%TF.GenerationSoftware,KiCad,Pcbnew,(5.1.8)-1*%
%TF.CreationDate,2020-12-20T15:01:14+01:00*%
%TF.ProjectId,GBA Cart,47424120-4361-4727-942e-6b696361645f,rev?*%
%TF.SameCoordinates,Original*%
%TF.FileFunction,Copper,L2,Bot*%
%TF.FilePolarity,Positive*%
%FSLAX46Y46*%
G04 Gerber Fmt 4.6, Leading zero omitted, Abs format (unit mm)*
G04 Created by KiCad (PCBNEW (5.1.8)-1) date 2020-12-20 15:01:14*
%MOMM*%
%LPD*%
G01*
G04 APERTURE LIST*
%TA.AperFunction,ViaPad*%
%ADD10C,0.800000*%
%TD*%
%TA.AperFunction,Conductor*%
%ADD11C,0.250000*%
%TD*%
%TA.AperFunction,NonConductor*%
%ADD12C,0.254000*%
%TD*%
%TA.AperFunction,NonConductor*%
%ADD13C,0.100000*%
%TD*%
G04 APERTURE END LIST*
D10*
%TO.N,VCC*%
X32479100Y-47153100D03*
X27511600Y-50096500D03*
%TO.N,A2*%
X37187800Y-50114200D03*
X53322800Y-46779100D03*
%TO.N,A5*%
X41811300Y-50113100D03*
X45263600Y-47169200D03*
%TO.N,A8*%
X46306200Y-50101700D03*
X48252000Y-37127000D03*
%TO.N,A9*%
X47214200Y-48668400D03*
X48470100Y-36126600D03*
%TO.N,A10*%
X49532400Y-50114200D03*
X51515800Y-36296700D03*
%TO.N,A11*%
X49564800Y-49044900D03*
X50331500Y-35619500D03*
%TO.N,A12*%
X46263900Y-47626800D03*
X43493500Y-44603900D03*
%TO.N,A13*%
X49180400Y-46837600D03*
X46867600Y-35697500D03*
%TO.N,A14*%
X53860800Y-50100200D03*
X50903400Y-37099200D03*
%TO.N,A17*%
X58405600Y-50102300D03*
X44857800Y-35123800D03*
%TD*%
D11*
%TO.N,VCC*%
X32479100Y-47153100D02*
X32479100Y-47899100D01*
X32479100Y-47899100D02*
X30101900Y-50276300D01*
X30101900Y-50276300D02*
X27691400Y-50276300D01*
X27691400Y-50276300D02*
X27511600Y-50096500D01*
%TO.N,A2*%
X37187800Y-50114200D02*
X37940400Y-50866800D01*
X37940400Y-50866800D02*
X49811100Y-50866800D01*
X49811100Y-50866800D02*
X53322800Y-47355100D01*
X53322800Y-47355100D02*
X53322800Y-46779100D01*
%TO.N,A5*%
X45263600Y-47169200D02*
X42319700Y-50113100D01*
X42319700Y-50113100D02*
X41811300Y-50113100D01*
%TO.N,A8*%
X46306200Y-50101700D02*
X46822200Y-50101700D01*
X46822200Y-50101700D02*
X48252000Y-48671900D01*
X48252000Y-48671900D02*
X48252000Y-37127000D01*
%TO.N,A9*%
X47214200Y-48668400D02*
X47214200Y-37107500D01*
X47214200Y-37107500D02*
X48195100Y-36126600D01*
X48195100Y-36126600D02*
X48470100Y-36126600D01*
%TO.N,A10*%
X51515800Y-36296700D02*
X50680200Y-36296700D01*
X50680200Y-36296700D02*
X50178100Y-36798800D01*
X50178100Y-36798800D02*
X50178100Y-37399600D01*
X50178100Y-37399600D02*
X50411900Y-37633400D01*
X50411900Y-37633400D02*
X50411900Y-49234700D01*
X50411900Y-49234700D02*
X49532400Y-50114200D01*
%TO.N,A11*%
X49564800Y-49044900D02*
X49911300Y-48698400D01*
X49911300Y-48698400D02*
X49911300Y-37769700D01*
X49911300Y-37769700D02*
X49727800Y-37586200D01*
X49727800Y-37586200D02*
X49727800Y-36223200D01*
X49727800Y-36223200D02*
X50331500Y-35619500D01*
%TO.N,A12*%
X46263900Y-47626800D02*
X46263900Y-47105400D01*
X46263900Y-47105400D02*
X43762500Y-44604000D01*
X43762500Y-44604000D02*
X43493500Y-44604000D01*
X43493500Y-44604000D02*
X43493500Y-44603900D01*
%TO.N,A13*%
X46867600Y-35697500D02*
X47172000Y-35393100D01*
X47172000Y-35393100D02*
X48816000Y-35393100D01*
X48816000Y-35393100D02*
X49195400Y-35772500D01*
X49195400Y-35772500D02*
X49195400Y-46822600D01*
X49195400Y-46822600D02*
X49180400Y-46837600D01*
%TO.N,A14*%
X50903400Y-37099200D02*
X54087600Y-40283400D01*
X54087600Y-40283400D02*
X54087600Y-49873400D01*
X54087600Y-49873400D02*
X53860800Y-50100200D01*
%TO.N,A17*%
X44857800Y-35123800D02*
X45108300Y-34873300D01*
X45108300Y-34873300D02*
X51167900Y-34873300D01*
X51167900Y-34873300D02*
X58405600Y-42111000D01*
X58405600Y-42111000D02*
X58405600Y-50102300D01*
%TD*%
D12*
X75956441Y-36480385D02*
X75947218Y-36574446D01*
X75929634Y-36632687D01*
X75901075Y-36686400D01*
X75862623Y-36733546D01*
X75815750Y-36772323D01*
X75762236Y-36801258D01*
X75704117Y-36819249D01*
X75612295Y-36828900D01*
X74507793Y-36828900D01*
X74473659Y-36832262D01*
X74461332Y-36832262D01*
X74451820Y-36833262D01*
X74267568Y-36853929D01*
X74206836Y-36866838D01*
X74145940Y-36878896D01*
X74136804Y-36881723D01*
X73960074Y-36937785D01*
X73903032Y-36962233D01*
X73845607Y-36985902D01*
X73837193Y-36990451D01*
X73674719Y-37079772D01*
X73623471Y-37114863D01*
X73571779Y-37149207D01*
X73564410Y-37155303D01*
X73422380Y-37274481D01*
X73378942Y-37318838D01*
X73334889Y-37362585D01*
X73328844Y-37369997D01*
X73212668Y-37514491D01*
X73178699Y-37566401D01*
X73143955Y-37617912D01*
X73139465Y-37626356D01*
X73053566Y-37790665D01*
X73030312Y-37848220D01*
X73006249Y-37905465D01*
X73003485Y-37914621D01*
X72951137Y-38092485D01*
X72939499Y-38153492D01*
X72927020Y-38214286D01*
X72926086Y-38223804D01*
X72909282Y-38408448D01*
X72909716Y-38470538D01*
X72909283Y-38532618D01*
X72910216Y-38542136D01*
X72929597Y-38726529D01*
X72942086Y-38787369D01*
X72953714Y-38848326D01*
X72956478Y-38857482D01*
X72956479Y-38857487D01*
X72956481Y-38857492D01*
X73011304Y-39034599D01*
X73035378Y-39091868D01*
X73058621Y-39149398D01*
X73063106Y-39157833D01*
X73063110Y-39157842D01*
X73063115Y-39157849D01*
X73151295Y-39320935D01*
X73186003Y-39372392D01*
X73220009Y-39424358D01*
X73226054Y-39431770D01*
X73344238Y-39574629D01*
X73388293Y-39618377D01*
X73431728Y-39662731D01*
X73439097Y-39668828D01*
X73582777Y-39786011D01*
X73634500Y-39820376D01*
X73685715Y-39855444D01*
X73694121Y-39859989D01*
X73694129Y-39859994D01*
X73694137Y-39859997D01*
X73857834Y-39947038D01*
X73915261Y-39970708D01*
X73972302Y-39995155D01*
X73981430Y-39997981D01*
X73981436Y-39997983D01*
X73981442Y-39997984D01*
X74158932Y-40051571D01*
X74219821Y-40063627D01*
X74280560Y-40076538D01*
X74290071Y-40077538D01*
X74474594Y-40095631D01*
X74474603Y-40095631D01*
X74507793Y-40098900D01*
X75607935Y-40098900D01*
X75701987Y-40108122D01*
X75760226Y-40125705D01*
X75813941Y-40154266D01*
X75861086Y-40192716D01*
X75899864Y-40239591D01*
X75928798Y-40293104D01*
X75946789Y-40351223D01*
X75956440Y-40443045D01*
X75956441Y-48569313D01*
X75936536Y-48573110D01*
X75927380Y-48575874D01*
X75778231Y-48622043D01*
X75721003Y-48646099D01*
X75663429Y-48669361D01*
X75654991Y-48673847D01*
X75654987Y-48673849D01*
X75654984Y-48673851D01*
X75517642Y-48748112D01*
X75466196Y-48782813D01*
X75414223Y-48816823D01*
X75406811Y-48822868D01*
X75286508Y-48922391D01*
X75242741Y-48966465D01*
X75198402Y-49009885D01*
X75192305Y-49017254D01*
X75093625Y-49138248D01*
X75059266Y-49189963D01*
X75024193Y-49241185D01*
X75019644Y-49249598D01*
X74946344Y-49387456D01*
X74922679Y-49444871D01*
X74898227Y-49501922D01*
X74895400Y-49511054D01*
X74895400Y-49511056D01*
X74895399Y-49511058D01*
X74850272Y-49660528D01*
X74838214Y-49721424D01*
X74825305Y-49782156D01*
X74824305Y-49791668D01*
X74809069Y-49947055D01*
X74809069Y-49947064D01*
X74805800Y-49980254D01*
X74805801Y-57028900D01*
X26775800Y-57028900D01*
X26775800Y-50824411D01*
X26851826Y-50900437D01*
X27021344Y-51013705D01*
X27209702Y-51091726D01*
X27409661Y-51131500D01*
X27613539Y-51131500D01*
X27813498Y-51091726D01*
X27947307Y-51036300D01*
X30064578Y-51036300D01*
X30101900Y-51039976D01*
X30139222Y-51036300D01*
X30139233Y-51036300D01*
X30250886Y-51025303D01*
X30394147Y-50981846D01*
X30526176Y-50911274D01*
X30641901Y-50816301D01*
X30665704Y-50787297D01*
X31440740Y-50012261D01*
X36152800Y-50012261D01*
X36152800Y-50216139D01*
X36192574Y-50416098D01*
X36270595Y-50604456D01*
X36383863Y-50773974D01*
X36528026Y-50918137D01*
X36697544Y-51031405D01*
X36885902Y-51109426D01*
X37085861Y-51149200D01*
X37147998Y-51149200D01*
X37376601Y-51377802D01*
X37400399Y-51406801D01*
X37429397Y-51430599D01*
X37516123Y-51501774D01*
X37648153Y-51572346D01*
X37791414Y-51615803D01*
X37903067Y-51626800D01*
X37903076Y-51626800D01*
X37940399Y-51630476D01*
X37977722Y-51626800D01*
X49773778Y-51626800D01*
X49811100Y-51630476D01*
X49848422Y-51626800D01*
X49848433Y-51626800D01*
X49960086Y-51615803D01*
X50103347Y-51572346D01*
X50235376Y-51501774D01*
X50351101Y-51406801D01*
X50374904Y-51377797D01*
X53327601Y-48425101D01*
X53327601Y-49211689D01*
X53201026Y-49296263D01*
X53056863Y-49440426D01*
X52943595Y-49609944D01*
X52865574Y-49798302D01*
X52825800Y-49998261D01*
X52825800Y-50202139D01*
X52865574Y-50402098D01*
X52943595Y-50590456D01*
X53056863Y-50759974D01*
X53201026Y-50904137D01*
X53370544Y-51017405D01*
X53558902Y-51095426D01*
X53758861Y-51135200D01*
X53962739Y-51135200D01*
X54162698Y-51095426D01*
X54351056Y-51017405D01*
X54520574Y-50904137D01*
X54664737Y-50759974D01*
X54778005Y-50590456D01*
X54856026Y-50402098D01*
X54895800Y-50202139D01*
X54895800Y-49998261D01*
X54856026Y-49798302D01*
X54847600Y-49777960D01*
X54847600Y-40320723D01*
X54851276Y-40283400D01*
X54847600Y-40246077D01*
X54847600Y-40246067D01*
X54836603Y-40134414D01*
X54793146Y-39991153D01*
X54722574Y-39859124D01*
X54627601Y-39743399D01*
X54598604Y-39719602D01*
X52058119Y-37179118D01*
X52175574Y-37100637D01*
X52248005Y-37028206D01*
X57645600Y-42425802D01*
X57645601Y-49398588D01*
X57601663Y-49442526D01*
X57488395Y-49612044D01*
X57410374Y-49800402D01*
X57370600Y-50000361D01*
X57370600Y-50204239D01*
X57410374Y-50404198D01*
X57488395Y-50592556D01*
X57601663Y-50762074D01*
X57745826Y-50906237D01*
X57915344Y-51019505D01*
X58103702Y-51097526D01*
X58303661Y-51137300D01*
X58507539Y-51137300D01*
X58707498Y-51097526D01*
X58895856Y-51019505D01*
X59065374Y-50906237D01*
X59209537Y-50762074D01*
X59322805Y-50592556D01*
X59400826Y-50404198D01*
X59440600Y-50204239D01*
X59440600Y-50000361D01*
X59400826Y-49800402D01*
X59322805Y-49612044D01*
X59209537Y-49442526D01*
X59165600Y-49398589D01*
X59165600Y-42148333D01*
X59169277Y-42111000D01*
X59157106Y-41987422D01*
X59154603Y-41962014D01*
X59111146Y-41818753D01*
X59040574Y-41686724D01*
X58945601Y-41570999D01*
X58916604Y-41547202D01*
X51731704Y-34362303D01*
X51707901Y-34333299D01*
X51592176Y-34238326D01*
X51460147Y-34167754D01*
X51316886Y-34124297D01*
X51205233Y-34113300D01*
X51205222Y-34113300D01*
X51167900Y-34109624D01*
X51130578Y-34113300D01*
X45145622Y-34113300D01*
X45108299Y-34109624D01*
X45078958Y-34112514D01*
X44959739Y-34088800D01*
X44755861Y-34088800D01*
X44555902Y-34128574D01*
X44367544Y-34206595D01*
X44198026Y-34319863D01*
X44053863Y-34464026D01*
X43940595Y-34633544D01*
X43862574Y-34821902D01*
X43822800Y-35021861D01*
X43822800Y-35225739D01*
X43862574Y-35425698D01*
X43940595Y-35614056D01*
X44053863Y-35783574D01*
X44198026Y-35927737D01*
X44367544Y-36041005D01*
X44555902Y-36119026D01*
X44755861Y-36158800D01*
X44959739Y-36158800D01*
X45159698Y-36119026D01*
X45348056Y-36041005D01*
X45517574Y-35927737D01*
X45661737Y-35783574D01*
X45762147Y-35633300D01*
X45832600Y-35633300D01*
X45832600Y-35799439D01*
X45872374Y-35999398D01*
X45950395Y-36187756D01*
X46063663Y-36357274D01*
X46207826Y-36501437D01*
X46377344Y-36614705D01*
X46565702Y-36692726D01*
X46573335Y-36694244D01*
X46508654Y-36815254D01*
X46478380Y-36915058D01*
X46465198Y-36958514D01*
X46454201Y-37070167D01*
X46450524Y-37107500D01*
X46454201Y-37144832D01*
X46454200Y-46220898D01*
X44455791Y-44222490D01*
X44410705Y-44113644D01*
X44297437Y-43944126D01*
X44153274Y-43799963D01*
X43983756Y-43686695D01*
X43795398Y-43608674D01*
X43595439Y-43568900D01*
X43391561Y-43568900D01*
X43191602Y-43608674D01*
X43003244Y-43686695D01*
X42833726Y-43799963D01*
X42689563Y-43944126D01*
X42576295Y-44113644D01*
X42498274Y-44302002D01*
X42458500Y-44501961D01*
X42458500Y-44705839D01*
X42498274Y-44905798D01*
X42576295Y-45094156D01*
X42689563Y-45263674D01*
X42833726Y-45407837D01*
X43003244Y-45521105D01*
X43191602Y-45599126D01*
X43391561Y-45638900D01*
X43595439Y-45638900D01*
X43701502Y-45617803D01*
X44526394Y-46442695D01*
X44459663Y-46509426D01*
X44346395Y-46678944D01*
X44268374Y-46867302D01*
X44228600Y-47067261D01*
X44228600Y-47129398D01*
X42202949Y-49155050D01*
X42113198Y-49117874D01*
X41913239Y-49078100D01*
X41709361Y-49078100D01*
X41509402Y-49117874D01*
X41321044Y-49195895D01*
X41151526Y-49309163D01*
X41007363Y-49453326D01*
X40894095Y-49622844D01*
X40816074Y-49811202D01*
X40776300Y-50011161D01*
X40776300Y-50106800D01*
X38255202Y-50106800D01*
X38222800Y-50074398D01*
X38222800Y-50012261D01*
X38183026Y-49812302D01*
X38105005Y-49623944D01*
X37991737Y-49454426D01*
X37847574Y-49310263D01*
X37678056Y-49196995D01*
X37489698Y-49118974D01*
X37289739Y-49079200D01*
X37085861Y-49079200D01*
X36885902Y-49118974D01*
X36697544Y-49196995D01*
X36528026Y-49310263D01*
X36383863Y-49454426D01*
X36270595Y-49623944D01*
X36192574Y-49812302D01*
X36152800Y-50012261D01*
X31440740Y-50012261D01*
X32990108Y-48462895D01*
X33019101Y-48439101D01*
X33042895Y-48410108D01*
X33042899Y-48410104D01*
X33100911Y-48339415D01*
X33114074Y-48323376D01*
X33184646Y-48191347D01*
X33228103Y-48048086D01*
X33239100Y-47936433D01*
X33239100Y-47936424D01*
X33242776Y-47899101D01*
X33239100Y-47861778D01*
X33239100Y-47856811D01*
X33283037Y-47812874D01*
X33396305Y-47643356D01*
X33474326Y-47454998D01*
X33514100Y-47255039D01*
X33514100Y-47051161D01*
X33474326Y-46851202D01*
X33396305Y-46662844D01*
X33283037Y-46493326D01*
X33138874Y-46349163D01*
X32969356Y-46235895D01*
X32780998Y-46157874D01*
X32581039Y-46118100D01*
X32377161Y-46118100D01*
X32177202Y-46157874D01*
X31988844Y-46235895D01*
X31819326Y-46349163D01*
X31675163Y-46493326D01*
X31561895Y-46662844D01*
X31483874Y-46851202D01*
X31444100Y-47051161D01*
X31444100Y-47255039D01*
X31483874Y-47454998D01*
X31561895Y-47643356D01*
X31601207Y-47702190D01*
X29787099Y-49516300D01*
X28368707Y-49516300D01*
X28315537Y-49436726D01*
X28171374Y-49292563D01*
X28001856Y-49179295D01*
X27813498Y-49101274D01*
X27613539Y-49061500D01*
X27409661Y-49061500D01*
X27209702Y-49101274D01*
X27021344Y-49179295D01*
X26851826Y-49292563D01*
X26707663Y-49436726D01*
X26675644Y-49484647D01*
X26658601Y-49444103D01*
X26635339Y-49386529D01*
X26630849Y-49378084D01*
X26556588Y-49240742D01*
X26521887Y-49189296D01*
X26487877Y-49137323D01*
X26481832Y-49129911D01*
X26382309Y-49009608D01*
X26338235Y-48965841D01*
X26294815Y-48921502D01*
X26287446Y-48915405D01*
X26166452Y-48816725D01*
X26114737Y-48782366D01*
X26063515Y-48747293D01*
X26055102Y-48742744D01*
X25975800Y-48700579D01*
X25975800Y-42247405D01*
X25985022Y-42153353D01*
X26002605Y-42095114D01*
X26031166Y-42041399D01*
X26069616Y-41994254D01*
X26116491Y-41955476D01*
X26170004Y-41926542D01*
X26228123Y-41908551D01*
X26319945Y-41898900D01*
X27424447Y-41898900D01*
X27458581Y-41895538D01*
X27470908Y-41895538D01*
X27480420Y-41894538D01*
X27664671Y-41873871D01*
X27725428Y-41860957D01*
X27786300Y-41848904D01*
X27795433Y-41846077D01*
X27795439Y-41846076D01*
X27795445Y-41846074D01*
X27972166Y-41790015D01*
X28029220Y-41765562D01*
X28086633Y-41741898D01*
X28095047Y-41737349D01*
X28257521Y-41648028D01*
X28308776Y-41612933D01*
X28360460Y-41578594D01*
X28367830Y-41572497D01*
X28509860Y-41453319D01*
X28553317Y-41408942D01*
X28597350Y-41365215D01*
X28603395Y-41357804D01*
X28719572Y-41213309D01*
X28753551Y-41161384D01*
X28788285Y-41109888D01*
X28792775Y-41101444D01*
X28878674Y-40937135D01*
X28901939Y-40879551D01*
X28925991Y-40822335D01*
X28928755Y-40813179D01*
X28981103Y-40635316D01*
X28992742Y-40574301D01*
X29005220Y-40513514D01*
X29006154Y-40503996D01*
X29022958Y-40319352D01*
X29022524Y-40257262D01*
X29022957Y-40195183D01*
X29022024Y-40185664D01*
X29002643Y-40001272D01*
X28990162Y-39940469D01*
X28978527Y-39879474D01*
X28975762Y-39870318D01*
X28975761Y-39870313D01*
X28975759Y-39870308D01*
X28920936Y-39693202D01*
X28896873Y-39635957D01*
X28873619Y-39578402D01*
X28869129Y-39569958D01*
X28780945Y-39406865D01*
X28746237Y-39355408D01*
X28712231Y-39303442D01*
X28706186Y-39296030D01*
X28588002Y-39153171D01*
X28543950Y-39109426D01*
X28500512Y-39065068D01*
X28493143Y-39058972D01*
X28493140Y-39058969D01*
X28493136Y-39058967D01*
X28349463Y-38941789D01*
X28297756Y-38907435D01*
X28246525Y-38872356D01*
X28238115Y-38867808D01*
X28238107Y-38867804D01*
X28074406Y-38780763D01*
X28017028Y-38757113D01*
X27959938Y-38732645D01*
X27950802Y-38729817D01*
X27773308Y-38676229D01*
X27712427Y-38664174D01*
X27651681Y-38651262D01*
X27642169Y-38650262D01*
X27457646Y-38632169D01*
X27457637Y-38632169D01*
X27424447Y-38628900D01*
X26324305Y-38628900D01*
X26230254Y-38619678D01*
X26172013Y-38602094D01*
X26118300Y-38573535D01*
X26071154Y-38535083D01*
X26032377Y-38488210D01*
X26003442Y-38434696D01*
X25985451Y-38376577D01*
X25975800Y-38284755D01*
X25975800Y-27398900D01*
X46605800Y-27398900D01*
X46605800Y-27547546D01*
X46608856Y-27578578D01*
X46608704Y-27600418D01*
X46609638Y-27609937D01*
X46681040Y-28289276D01*
X46693519Y-28350070D01*
X46705157Y-28411077D01*
X46707921Y-28420233D01*
X46909913Y-29072764D01*
X46933975Y-29130005D01*
X46957230Y-29187563D01*
X46961720Y-29196007D01*
X47286609Y-29796878D01*
X47321339Y-29848367D01*
X47355322Y-29900298D01*
X47361366Y-29907710D01*
X47796778Y-30434033D01*
X47840833Y-30477781D01*
X47884271Y-30522139D01*
X47891641Y-30528236D01*
X48420990Y-30959961D01*
X48472693Y-30994312D01*
X48523929Y-31029394D01*
X48532342Y-31033943D01*
X49135465Y-31354630D01*
X49192901Y-31378303D01*
X49249931Y-31402746D01*
X49259067Y-31405575D01*
X49912993Y-31603007D01*
X49973926Y-31615072D01*
X50034624Y-31627974D01*
X50044136Y-31628974D01*
X50723956Y-31695631D01*
X50753881Y-31695631D01*
X50783619Y-31698862D01*
X50793183Y-31698896D01*
X50817617Y-31698811D01*
X50847389Y-31695787D01*
X50877318Y-31695996D01*
X50886837Y-31695062D01*
X51566176Y-31623660D01*
X51626970Y-31611181D01*
X51687977Y-31599543D01*
X51697133Y-31596779D01*
X52349664Y-31394787D01*
X52406905Y-31370725D01*
X52464463Y-31347470D01*
X52472907Y-31342980D01*
X53073778Y-31018091D01*
X53125267Y-30983361D01*
X53177198Y-30949378D01*
X53184610Y-30943334D01*
X53710933Y-30507922D01*
X53754681Y-30463867D01*
X53799039Y-30420429D01*
X53805136Y-30413059D01*
X54236861Y-29883710D01*
X54271212Y-29832007D01*
X54306294Y-29780771D01*
X54310843Y-29772358D01*
X54631530Y-29169235D01*
X54655203Y-29111799D01*
X54679646Y-29054769D01*
X54682475Y-29045633D01*
X54879907Y-28391707D01*
X54891972Y-28330774D01*
X54904874Y-28270076D01*
X54905874Y-28260564D01*
X54972531Y-27580744D01*
X54972531Y-27580737D01*
X54975800Y-27547547D01*
X54975800Y-27398897D01*
X75956440Y-27398562D01*
X75956441Y-36480385D01*
%TA.AperFunction,NonConductor*%
D13*
G36*
X75956441Y-36480385D02*
G01*
X75947218Y-36574446D01*
X75929634Y-36632687D01*
X75901075Y-36686400D01*
X75862623Y-36733546D01*
X75815750Y-36772323D01*
X75762236Y-36801258D01*
X75704117Y-36819249D01*
X75612295Y-36828900D01*
X74507793Y-36828900D01*
X74473659Y-36832262D01*
X74461332Y-36832262D01*
X74451820Y-36833262D01*
X74267568Y-36853929D01*
X74206836Y-36866838D01*
X74145940Y-36878896D01*
X74136804Y-36881723D01*
X73960074Y-36937785D01*
X73903032Y-36962233D01*
X73845607Y-36985902D01*
X73837193Y-36990451D01*
X73674719Y-37079772D01*
X73623471Y-37114863D01*
X73571779Y-37149207D01*
X73564410Y-37155303D01*
X73422380Y-37274481D01*
X73378942Y-37318838D01*
X73334889Y-37362585D01*
X73328844Y-37369997D01*
X73212668Y-37514491D01*
X73178699Y-37566401D01*
X73143955Y-37617912D01*
X73139465Y-37626356D01*
X73053566Y-37790665D01*
X73030312Y-37848220D01*
X73006249Y-37905465D01*
X73003485Y-37914621D01*
X72951137Y-38092485D01*
X72939499Y-38153492D01*
X72927020Y-38214286D01*
X72926086Y-38223804D01*
X72909282Y-38408448D01*
X72909716Y-38470538D01*
X72909283Y-38532618D01*
X72910216Y-38542136D01*
X72929597Y-38726529D01*
X72942086Y-38787369D01*
X72953714Y-38848326D01*
X72956478Y-38857482D01*
X72956479Y-38857487D01*
X72956481Y-38857492D01*
X73011304Y-39034599D01*
X73035378Y-39091868D01*
X73058621Y-39149398D01*
X73063106Y-39157833D01*
X73063110Y-39157842D01*
X73063115Y-39157849D01*
X73151295Y-39320935D01*
X73186003Y-39372392D01*
X73220009Y-39424358D01*
X73226054Y-39431770D01*
X73344238Y-39574629D01*
X73388293Y-39618377D01*
X73431728Y-39662731D01*
X73439097Y-39668828D01*
X73582777Y-39786011D01*
X73634500Y-39820376D01*
X73685715Y-39855444D01*
X73694121Y-39859989D01*
X73694129Y-39859994D01*
X73694137Y-39859997D01*
X73857834Y-39947038D01*
X73915261Y-39970708D01*
X73972302Y-39995155D01*
X73981430Y-39997981D01*
X73981436Y-39997983D01*
X73981442Y-39997984D01*
X74158932Y-40051571D01*
X74219821Y-40063627D01*
X74280560Y-40076538D01*
X74290071Y-40077538D01*
X74474594Y-40095631D01*
X74474603Y-40095631D01*
X74507793Y-40098900D01*
X75607935Y-40098900D01*
X75701987Y-40108122D01*
X75760226Y-40125705D01*
X75813941Y-40154266D01*
X75861086Y-40192716D01*
X75899864Y-40239591D01*
X75928798Y-40293104D01*
X75946789Y-40351223D01*
X75956440Y-40443045D01*
X75956441Y-48569313D01*
X75936536Y-48573110D01*
X75927380Y-48575874D01*
X75778231Y-48622043D01*
X75721003Y-48646099D01*
X75663429Y-48669361D01*
X75654991Y-48673847D01*
X75654987Y-48673849D01*
X75654984Y-48673851D01*
X75517642Y-48748112D01*
X75466196Y-48782813D01*
X75414223Y-48816823D01*
X75406811Y-48822868D01*
X75286508Y-48922391D01*
X75242741Y-48966465D01*
X75198402Y-49009885D01*
X75192305Y-49017254D01*
X75093625Y-49138248D01*
X75059266Y-49189963D01*
X75024193Y-49241185D01*
X75019644Y-49249598D01*
X74946344Y-49387456D01*
X74922679Y-49444871D01*
X74898227Y-49501922D01*
X74895400Y-49511054D01*
X74895400Y-49511056D01*
X74895399Y-49511058D01*
X74850272Y-49660528D01*
X74838214Y-49721424D01*
X74825305Y-49782156D01*
X74824305Y-49791668D01*
X74809069Y-49947055D01*
X74809069Y-49947064D01*
X74805800Y-49980254D01*
X74805801Y-57028900D01*
X26775800Y-57028900D01*
X26775800Y-50824411D01*
X26851826Y-50900437D01*
X27021344Y-51013705D01*
X27209702Y-51091726D01*
X27409661Y-51131500D01*
X27613539Y-51131500D01*
X27813498Y-51091726D01*
X27947307Y-51036300D01*
X30064578Y-51036300D01*
X30101900Y-51039976D01*
X30139222Y-51036300D01*
X30139233Y-51036300D01*
X30250886Y-51025303D01*
X30394147Y-50981846D01*
X30526176Y-50911274D01*
X30641901Y-50816301D01*
X30665704Y-50787297D01*
X31440740Y-50012261D01*
X36152800Y-50012261D01*
X36152800Y-50216139D01*
X36192574Y-50416098D01*
X36270595Y-50604456D01*
X36383863Y-50773974D01*
X36528026Y-50918137D01*
X36697544Y-51031405D01*
X36885902Y-51109426D01*
X37085861Y-51149200D01*
X37147998Y-51149200D01*
X37376601Y-51377802D01*
X37400399Y-51406801D01*
X37429397Y-51430599D01*
X37516123Y-51501774D01*
X37648153Y-51572346D01*
X37791414Y-51615803D01*
X37903067Y-51626800D01*
X37903076Y-51626800D01*
X37940399Y-51630476D01*
X37977722Y-51626800D01*
X49773778Y-51626800D01*
X49811100Y-51630476D01*
X49848422Y-51626800D01*
X49848433Y-51626800D01*
X49960086Y-51615803D01*
X50103347Y-51572346D01*
X50235376Y-51501774D01*
X50351101Y-51406801D01*
X50374904Y-51377797D01*
X53327601Y-48425101D01*
X53327601Y-49211689D01*
X53201026Y-49296263D01*
X53056863Y-49440426D01*
X52943595Y-49609944D01*
X52865574Y-49798302D01*
X52825800Y-49998261D01*
X52825800Y-50202139D01*
X52865574Y-50402098D01*
X52943595Y-50590456D01*
X53056863Y-50759974D01*
X53201026Y-50904137D01*
X53370544Y-51017405D01*
X53558902Y-51095426D01*
X53758861Y-51135200D01*
X53962739Y-51135200D01*
X54162698Y-51095426D01*
X54351056Y-51017405D01*
X54520574Y-50904137D01*
X54664737Y-50759974D01*
X54778005Y-50590456D01*
X54856026Y-50402098D01*
X54895800Y-50202139D01*
X54895800Y-49998261D01*
X54856026Y-49798302D01*
X54847600Y-49777960D01*
X54847600Y-40320723D01*
X54851276Y-40283400D01*
X54847600Y-40246077D01*
X54847600Y-40246067D01*
X54836603Y-40134414D01*
X54793146Y-39991153D01*
X54722574Y-39859124D01*
X54627601Y-39743399D01*
X54598604Y-39719602D01*
X52058119Y-37179118D01*
X52175574Y-37100637D01*
X52248005Y-37028206D01*
X57645600Y-42425802D01*
X57645601Y-49398588D01*
X57601663Y-49442526D01*
X57488395Y-49612044D01*
X57410374Y-49800402D01*
X57370600Y-50000361D01*
X57370600Y-50204239D01*
X57410374Y-50404198D01*
X57488395Y-50592556D01*
X57601663Y-50762074D01*
X57745826Y-50906237D01*
X57915344Y-51019505D01*
X58103702Y-51097526D01*
X58303661Y-51137300D01*
X58507539Y-51137300D01*
X58707498Y-51097526D01*
X58895856Y-51019505D01*
X59065374Y-50906237D01*
X59209537Y-50762074D01*
X59322805Y-50592556D01*
X59400826Y-50404198D01*
X59440600Y-50204239D01*
X59440600Y-50000361D01*
X59400826Y-49800402D01*
X59322805Y-49612044D01*
X59209537Y-49442526D01*
X59165600Y-49398589D01*
X59165600Y-42148333D01*
X59169277Y-42111000D01*
X59157106Y-41987422D01*
X59154603Y-41962014D01*
X59111146Y-41818753D01*
X59040574Y-41686724D01*
X58945601Y-41570999D01*
X58916604Y-41547202D01*
X51731704Y-34362303D01*
X51707901Y-34333299D01*
X51592176Y-34238326D01*
X51460147Y-34167754D01*
X51316886Y-34124297D01*
X51205233Y-34113300D01*
X51205222Y-34113300D01*
X51167900Y-34109624D01*
X51130578Y-34113300D01*
X45145622Y-34113300D01*
X45108299Y-34109624D01*
X45078958Y-34112514D01*
X44959739Y-34088800D01*
X44755861Y-34088800D01*
X44555902Y-34128574D01*
X44367544Y-34206595D01*
X44198026Y-34319863D01*
X44053863Y-34464026D01*
X43940595Y-34633544D01*
X43862574Y-34821902D01*
X43822800Y-35021861D01*
X43822800Y-35225739D01*
X43862574Y-35425698D01*
X43940595Y-35614056D01*
X44053863Y-35783574D01*
X44198026Y-35927737D01*
X44367544Y-36041005D01*
X44555902Y-36119026D01*
X44755861Y-36158800D01*
X44959739Y-36158800D01*
X45159698Y-36119026D01*
X45348056Y-36041005D01*
X45517574Y-35927737D01*
X45661737Y-35783574D01*
X45762147Y-35633300D01*
X45832600Y-35633300D01*
X45832600Y-35799439D01*
X45872374Y-35999398D01*
X45950395Y-36187756D01*
X46063663Y-36357274D01*
X46207826Y-36501437D01*
X46377344Y-36614705D01*
X46565702Y-36692726D01*
X46573335Y-36694244D01*
X46508654Y-36815254D01*
X46478380Y-36915058D01*
X46465198Y-36958514D01*
X46454201Y-37070167D01*
X46450524Y-37107500D01*
X46454201Y-37144832D01*
X46454200Y-46220898D01*
X44455791Y-44222490D01*
X44410705Y-44113644D01*
X44297437Y-43944126D01*
X44153274Y-43799963D01*
X43983756Y-43686695D01*
X43795398Y-43608674D01*
X43595439Y-43568900D01*
X43391561Y-43568900D01*
X43191602Y-43608674D01*
X43003244Y-43686695D01*
X42833726Y-43799963D01*
X42689563Y-43944126D01*
X42576295Y-44113644D01*
X42498274Y-44302002D01*
X42458500Y-44501961D01*
X42458500Y-44705839D01*
X42498274Y-44905798D01*
X42576295Y-45094156D01*
X42689563Y-45263674D01*
X42833726Y-45407837D01*
X43003244Y-45521105D01*
X43191602Y-45599126D01*
X43391561Y-45638900D01*
X43595439Y-45638900D01*
X43701502Y-45617803D01*
X44526394Y-46442695D01*
X44459663Y-46509426D01*
X44346395Y-46678944D01*
X44268374Y-46867302D01*
X44228600Y-47067261D01*
X44228600Y-47129398D01*
X42202949Y-49155050D01*
X42113198Y-49117874D01*
X41913239Y-49078100D01*
X41709361Y-49078100D01*
X41509402Y-49117874D01*
X41321044Y-49195895D01*
X41151526Y-49309163D01*
X41007363Y-49453326D01*
X40894095Y-49622844D01*
X40816074Y-49811202D01*
X40776300Y-50011161D01*
X40776300Y-50106800D01*
X38255202Y-50106800D01*
X38222800Y-50074398D01*
X38222800Y-50012261D01*
X38183026Y-49812302D01*
X38105005Y-49623944D01*
X37991737Y-49454426D01*
X37847574Y-49310263D01*
X37678056Y-49196995D01*
X37489698Y-49118974D01*
X37289739Y-49079200D01*
X37085861Y-49079200D01*
X36885902Y-49118974D01*
X36697544Y-49196995D01*
X36528026Y-49310263D01*
X36383863Y-49454426D01*
X36270595Y-49623944D01*
X36192574Y-49812302D01*
X36152800Y-50012261D01*
X31440740Y-50012261D01*
X32990108Y-48462895D01*
X33019101Y-48439101D01*
X33042895Y-48410108D01*
X33042899Y-48410104D01*
X33100911Y-48339415D01*
X33114074Y-48323376D01*
X33184646Y-48191347D01*
X33228103Y-48048086D01*
X33239100Y-47936433D01*
X33239100Y-47936424D01*
X33242776Y-47899101D01*
X33239100Y-47861778D01*
X33239100Y-47856811D01*
X33283037Y-47812874D01*
X33396305Y-47643356D01*
X33474326Y-47454998D01*
X33514100Y-47255039D01*
X33514100Y-47051161D01*
X33474326Y-46851202D01*
X33396305Y-46662844D01*
X33283037Y-46493326D01*
X33138874Y-46349163D01*
X32969356Y-46235895D01*
X32780998Y-46157874D01*
X32581039Y-46118100D01*
X32377161Y-46118100D01*
X32177202Y-46157874D01*
X31988844Y-46235895D01*
X31819326Y-46349163D01*
X31675163Y-46493326D01*
X31561895Y-46662844D01*
X31483874Y-46851202D01*
X31444100Y-47051161D01*
X31444100Y-47255039D01*
X31483874Y-47454998D01*
X31561895Y-47643356D01*
X31601207Y-47702190D01*
X29787099Y-49516300D01*
X28368707Y-49516300D01*
X28315537Y-49436726D01*
X28171374Y-49292563D01*
X28001856Y-49179295D01*
X27813498Y-49101274D01*
X27613539Y-49061500D01*
X27409661Y-49061500D01*
X27209702Y-49101274D01*
X27021344Y-49179295D01*
X26851826Y-49292563D01*
X26707663Y-49436726D01*
X26675644Y-49484647D01*
X26658601Y-49444103D01*
X26635339Y-49386529D01*
X26630849Y-49378084D01*
X26556588Y-49240742D01*
X26521887Y-49189296D01*
X26487877Y-49137323D01*
X26481832Y-49129911D01*
X26382309Y-49009608D01*
X26338235Y-48965841D01*
X26294815Y-48921502D01*
X26287446Y-48915405D01*
X26166452Y-48816725D01*
X26114737Y-48782366D01*
X26063515Y-48747293D01*
X26055102Y-48742744D01*
X25975800Y-48700579D01*
X25975800Y-42247405D01*
X25985022Y-42153353D01*
X26002605Y-42095114D01*
X26031166Y-42041399D01*
X26069616Y-41994254D01*
X26116491Y-41955476D01*
X26170004Y-41926542D01*
X26228123Y-41908551D01*
X26319945Y-41898900D01*
X27424447Y-41898900D01*
X27458581Y-41895538D01*
X27470908Y-41895538D01*
X27480420Y-41894538D01*
X27664671Y-41873871D01*
X27725428Y-41860957D01*
X27786300Y-41848904D01*
X27795433Y-41846077D01*
X27795439Y-41846076D01*
X27795445Y-41846074D01*
X27972166Y-41790015D01*
X28029220Y-41765562D01*
X28086633Y-41741898D01*
X28095047Y-41737349D01*
X28257521Y-41648028D01*
X28308776Y-41612933D01*
X28360460Y-41578594D01*
X28367830Y-41572497D01*
X28509860Y-41453319D01*
X28553317Y-41408942D01*
X28597350Y-41365215D01*
X28603395Y-41357804D01*
X28719572Y-41213309D01*
X28753551Y-41161384D01*
X28788285Y-41109888D01*
X28792775Y-41101444D01*
X28878674Y-40937135D01*
X28901939Y-40879551D01*
X28925991Y-40822335D01*
X28928755Y-40813179D01*
X28981103Y-40635316D01*
X28992742Y-40574301D01*
X29005220Y-40513514D01*
X29006154Y-40503996D01*
X29022958Y-40319352D01*
X29022524Y-40257262D01*
X29022957Y-40195183D01*
X29022024Y-40185664D01*
X29002643Y-40001272D01*
X28990162Y-39940469D01*
X28978527Y-39879474D01*
X28975762Y-39870318D01*
X28975761Y-39870313D01*
X28975759Y-39870308D01*
X28920936Y-39693202D01*
X28896873Y-39635957D01*
X28873619Y-39578402D01*
X28869129Y-39569958D01*
X28780945Y-39406865D01*
X28746237Y-39355408D01*
X28712231Y-39303442D01*
X28706186Y-39296030D01*
X28588002Y-39153171D01*
X28543950Y-39109426D01*
X28500512Y-39065068D01*
X28493143Y-39058972D01*
X28493140Y-39058969D01*
X28493136Y-39058967D01*
X28349463Y-38941789D01*
X28297756Y-38907435D01*
X28246525Y-38872356D01*
X28238115Y-38867808D01*
X28238107Y-38867804D01*
X28074406Y-38780763D01*
X28017028Y-38757113D01*
X27959938Y-38732645D01*
X27950802Y-38729817D01*
X27773308Y-38676229D01*
X27712427Y-38664174D01*
X27651681Y-38651262D01*
X27642169Y-38650262D01*
X27457646Y-38632169D01*
X27457637Y-38632169D01*
X27424447Y-38628900D01*
X26324305Y-38628900D01*
X26230254Y-38619678D01*
X26172013Y-38602094D01*
X26118300Y-38573535D01*
X26071154Y-38535083D01*
X26032377Y-38488210D01*
X26003442Y-38434696D01*
X25985451Y-38376577D01*
X25975800Y-38284755D01*
X25975800Y-27398900D01*
X46605800Y-27398900D01*
X46605800Y-27547546D01*
X46608856Y-27578578D01*
X46608704Y-27600418D01*
X46609638Y-27609937D01*
X46681040Y-28289276D01*
X46693519Y-28350070D01*
X46705157Y-28411077D01*
X46707921Y-28420233D01*
X46909913Y-29072764D01*
X46933975Y-29130005D01*
X46957230Y-29187563D01*
X46961720Y-29196007D01*
X47286609Y-29796878D01*
X47321339Y-29848367D01*
X47355322Y-29900298D01*
X47361366Y-29907710D01*
X47796778Y-30434033D01*
X47840833Y-30477781D01*
X47884271Y-30522139D01*
X47891641Y-30528236D01*
X48420990Y-30959961D01*
X48472693Y-30994312D01*
X48523929Y-31029394D01*
X48532342Y-31033943D01*
X49135465Y-31354630D01*
X49192901Y-31378303D01*
X49249931Y-31402746D01*
X49259067Y-31405575D01*
X49912993Y-31603007D01*
X49973926Y-31615072D01*
X50034624Y-31627974D01*
X50044136Y-31628974D01*
X50723956Y-31695631D01*
X50753881Y-31695631D01*
X50783619Y-31698862D01*
X50793183Y-31698896D01*
X50817617Y-31698811D01*
X50847389Y-31695787D01*
X50877318Y-31695996D01*
X50886837Y-31695062D01*
X51566176Y-31623660D01*
X51626970Y-31611181D01*
X51687977Y-31599543D01*
X51697133Y-31596779D01*
X52349664Y-31394787D01*
X52406905Y-31370725D01*
X52464463Y-31347470D01*
X52472907Y-31342980D01*
X53073778Y-31018091D01*
X53125267Y-30983361D01*
X53177198Y-30949378D01*
X53184610Y-30943334D01*
X53710933Y-30507922D01*
X53754681Y-30463867D01*
X53799039Y-30420429D01*
X53805136Y-30413059D01*
X54236861Y-29883710D01*
X54271212Y-29832007D01*
X54306294Y-29780771D01*
X54310843Y-29772358D01*
X54631530Y-29169235D01*
X54655203Y-29111799D01*
X54679646Y-29054769D01*
X54682475Y-29045633D01*
X54879907Y-28391707D01*
X54891972Y-28330774D01*
X54904874Y-28270076D01*
X54905874Y-28260564D01*
X54972531Y-27580744D01*
X54972531Y-27580737D01*
X54975800Y-27547547D01*
X54975800Y-27398897D01*
X75956440Y-27398562D01*
X75956441Y-36480385D01*
G37*
%TD.AperFunction*%
D12*
X48647595Y-49535156D02*
X48661058Y-49555305D01*
X48615195Y-49623944D01*
X48537174Y-49812302D01*
X48497400Y-50012261D01*
X48497400Y-50106800D01*
X47891901Y-50106800D01*
X48593688Y-49405014D01*
X48647595Y-49535156D01*
%TA.AperFunction,NonConductor*%
D13*
G36*
X48647595Y-49535156D02*
G01*
X48661058Y-49555305D01*
X48615195Y-49623944D01*
X48537174Y-49812302D01*
X48497400Y-50012261D01*
X48497400Y-50106800D01*
X47891901Y-50106800D01*
X48593688Y-49405014D01*
X48647595Y-49535156D01*
G37*
%TD.AperFunction*%
D12*
X45459963Y-48286574D02*
X45604126Y-48430737D01*
X45773644Y-48544005D01*
X45962002Y-48622026D01*
X46161961Y-48661800D01*
X46179200Y-48661800D01*
X46179200Y-48770339D01*
X46218974Y-48970298D01*
X46258905Y-49066700D01*
X46204261Y-49066700D01*
X46004302Y-49106474D01*
X45815944Y-49184495D01*
X45646426Y-49297763D01*
X45502263Y-49441926D01*
X45388995Y-49611444D01*
X45310974Y-49799802D01*
X45271200Y-49999761D01*
X45271200Y-50106800D01*
X43400801Y-50106800D01*
X45303402Y-48204200D01*
X45365539Y-48204200D01*
X45400302Y-48197285D01*
X45459963Y-48286574D01*
%TA.AperFunction,NonConductor*%
D13*
G36*
X45459963Y-48286574D02*
G01*
X45604126Y-48430737D01*
X45773644Y-48544005D01*
X45962002Y-48622026D01*
X46161961Y-48661800D01*
X46179200Y-48661800D01*
X46179200Y-48770339D01*
X46218974Y-48970298D01*
X46258905Y-49066700D01*
X46204261Y-49066700D01*
X46004302Y-49106474D01*
X45815944Y-49184495D01*
X45646426Y-49297763D01*
X45502263Y-49441926D01*
X45388995Y-49611444D01*
X45310974Y-49799802D01*
X45271200Y-49999761D01*
X45271200Y-50106800D01*
X43400801Y-50106800D01*
X45303402Y-48204200D01*
X45365539Y-48204200D01*
X45400302Y-48197285D01*
X45459963Y-48286574D01*
G37*
%TD.AperFunction*%
D12*
X53327600Y-40598202D02*
X53327601Y-45744100D01*
X53220861Y-45744100D01*
X53020902Y-45783874D01*
X52832544Y-45861895D01*
X52663026Y-45975163D01*
X52518863Y-46119326D01*
X52405595Y-46288844D01*
X52327574Y-46477202D01*
X52287800Y-46677161D01*
X52287800Y-46881039D01*
X52327574Y-47080998D01*
X52384550Y-47218548D01*
X51171900Y-48431198D01*
X51171900Y-38442501D01*
X53327600Y-40598202D01*
%TA.AperFunction,NonConductor*%
D13*
G36*
X53327600Y-40598202D02*
G01*
X53327601Y-45744100D01*
X53220861Y-45744100D01*
X53020902Y-45783874D01*
X52832544Y-45861895D01*
X52663026Y-45975163D01*
X52518863Y-46119326D01*
X52405595Y-46288844D01*
X52327574Y-46477202D01*
X52287800Y-46677161D01*
X52287800Y-46881039D01*
X52327574Y-47080998D01*
X52384550Y-47218548D01*
X51171900Y-48431198D01*
X51171900Y-38442501D01*
X53327600Y-40598202D01*
G37*
%TD.AperFunction*%
D12*
X49078461Y-47872600D02*
X49151300Y-47872600D01*
X49151300Y-48095901D01*
X49074544Y-48127695D01*
X49012000Y-48169485D01*
X49012000Y-47859380D01*
X49078461Y-47872600D01*
%TA.AperFunction,NonConductor*%
D13*
G36*
X49078461Y-47872600D02*
G01*
X49151300Y-47872600D01*
X49151300Y-48095901D01*
X49074544Y-48127695D01*
X49012000Y-48169485D01*
X49012000Y-47859380D01*
X49078461Y-47872600D01*
G37*
%TD.AperFunction*%
M02*
