%TF.GenerationSoftware,KiCad,Pcbnew,(5.1.8)-1*%
%TF.CreationDate,2020-12-20T15:01:14+01:00*%
%TF.ProjectId,GBA Cart,47424120-4361-4727-942e-6b696361645f,rev?*%
%TF.SameCoordinates,Original*%
%TF.FileFunction,Legend,Bot*%
%TF.FilePolarity,Positive*%
%FSLAX46Y46*%
G04 Gerber Fmt 4.6, Leading zero omitted, Abs format (unit mm)*
G04 Created by KiCad (PCBNEW (5.1.8)-1) date 2020-12-20 15:01:14*
%MOMM*%
%LPD*%
G01*
G04 APERTURE LIST*
%ADD10C,0.010000*%
G04 APERTURE END LIST*
D10*
%TO.C,G\u002A\u002A\u002A*%
G36*
X29878931Y-29892783D02*
G01*
X29827335Y-29905068D01*
X29793995Y-29933482D01*
X29775470Y-29984496D01*
X29768317Y-30064582D01*
X29769094Y-30180208D01*
X29774359Y-30337846D01*
X29776678Y-30405755D01*
X29790367Y-30709003D01*
X29810908Y-30965923D01*
X29839776Y-31180702D01*
X29878448Y-31357527D01*
X29928399Y-31500585D01*
X29991104Y-31614062D01*
X30068040Y-31702147D01*
X30160683Y-31769025D01*
X30270508Y-31818883D01*
X30275388Y-31820621D01*
X30402811Y-31848748D01*
X30554835Y-31857386D01*
X30709332Y-31846964D01*
X30844169Y-31817909D01*
X30868812Y-31809131D01*
X31039765Y-31720534D01*
X31169675Y-31603703D01*
X31228178Y-31520527D01*
X31258831Y-31459168D01*
X31281327Y-31388457D01*
X31298469Y-31295855D01*
X31313058Y-31168825D01*
X31317427Y-31121338D01*
X31329789Y-30952495D01*
X31336318Y-30816256D01*
X31187194Y-30816256D01*
X31177587Y-30922553D01*
X31158855Y-31003737D01*
X31132947Y-31050817D01*
X31106963Y-31057394D01*
X31090608Y-31029734D01*
X31083652Y-30960258D01*
X31085648Y-30845512D01*
X31085397Y-30819284D01*
X30934721Y-30819284D01*
X30926187Y-30878921D01*
X30909799Y-30890932D01*
X30887443Y-30856228D01*
X30861006Y-30775721D01*
X30858229Y-30763731D01*
X30682675Y-30763731D01*
X30680078Y-30813905D01*
X30668437Y-30831986D01*
X30652835Y-30829973D01*
X30626918Y-30797358D01*
X30601603Y-30726794D01*
X30587508Y-30664792D01*
X30560061Y-30552056D01*
X30520754Y-30429778D01*
X30496341Y-30367415D01*
X30459646Y-30275601D01*
X30430432Y-30190641D01*
X30418129Y-30144720D01*
X30403025Y-30068520D01*
X30457014Y-30131942D01*
X30552286Y-30273449D01*
X30626680Y-30441742D01*
X30670941Y-30614151D01*
X30677675Y-30672296D01*
X30682675Y-30763731D01*
X30858229Y-30763731D01*
X30834996Y-30663447D01*
X30784822Y-30472337D01*
X30711766Y-30296972D01*
X30607075Y-30117110D01*
X30583198Y-30081220D01*
X30538990Y-30006624D01*
X30528806Y-29964567D01*
X30536128Y-29956754D01*
X30573843Y-29969001D01*
X30627529Y-30019058D01*
X30691001Y-30099021D01*
X30758075Y-30200987D01*
X30822567Y-30317052D01*
X30830628Y-30333146D01*
X30883023Y-30448438D01*
X30913728Y-30545612D01*
X30929302Y-30648771D01*
X30933516Y-30711107D01*
X30934721Y-30819284D01*
X31085397Y-30819284D01*
X31084098Y-30683880D01*
X31060687Y-30538333D01*
X31011068Y-30393836D01*
X30930895Y-30235354D01*
X30888413Y-30163222D01*
X30829214Y-30058327D01*
X30798909Y-29988752D01*
X30796353Y-29956517D01*
X30820403Y-29963642D01*
X30869913Y-30012147D01*
X30931275Y-30087570D01*
X31046051Y-30253434D01*
X31123289Y-30405245D01*
X31168446Y-30556005D01*
X31185730Y-30693835D01*
X31187194Y-30816256D01*
X31336318Y-30816256D01*
X31338310Y-30774692D01*
X31343057Y-30596065D01*
X31344101Y-30424751D01*
X31341511Y-30268885D01*
X31339543Y-30226571D01*
X31242000Y-30226571D01*
X31238514Y-30271596D01*
X31232676Y-30284420D01*
X31214528Y-30265233D01*
X31178887Y-30216450D01*
X31156476Y-30183364D01*
X31111498Y-30113028D01*
X31093527Y-30074683D01*
X31100304Y-30058796D01*
X31126260Y-30055820D01*
X31171343Y-30077736D01*
X31213047Y-30131200D01*
X31238880Y-30197783D01*
X31242000Y-30226571D01*
X31339543Y-30226571D01*
X31335356Y-30136605D01*
X31325706Y-30036048D01*
X31312631Y-29975349D01*
X31307556Y-29965424D01*
X31290020Y-29947021D01*
X31263180Y-29933499D01*
X31219256Y-29923868D01*
X31150465Y-29917136D01*
X31049024Y-29912314D01*
X30907151Y-29908410D01*
X30849769Y-29907147D01*
X30676206Y-29904710D01*
X30548181Y-29905991D01*
X30460551Y-29911241D01*
X30408174Y-29920707D01*
X30390391Y-29929409D01*
X30378876Y-29945117D01*
X30370399Y-29974389D01*
X30364783Y-30023041D01*
X30361850Y-30096888D01*
X30361423Y-30201747D01*
X30363325Y-30343434D01*
X30367379Y-30527764D01*
X30369541Y-30613883D01*
X30374405Y-30829337D01*
X30376607Y-30998042D01*
X30376070Y-31123982D01*
X30372721Y-31211141D01*
X30366484Y-31263505D01*
X30357286Y-31285058D01*
X30356964Y-31285270D01*
X30347591Y-31277590D01*
X30340240Y-31239130D01*
X30334740Y-31166118D01*
X30330922Y-31054781D01*
X30328616Y-30901346D01*
X30327653Y-30702041D01*
X30327625Y-30664108D01*
X29916422Y-30664108D01*
X29912462Y-30684603D01*
X29892216Y-30671436D01*
X29884327Y-30663886D01*
X29857931Y-30614777D01*
X29837675Y-30534112D01*
X29831467Y-30486086D01*
X29825219Y-30409057D01*
X29825827Y-30377171D01*
X29835280Y-30385005D01*
X29854180Y-30424120D01*
X29882392Y-30501952D01*
X29905107Y-30591525D01*
X29907040Y-30601920D01*
X29916422Y-30664108D01*
X30327625Y-30664108D01*
X30327600Y-30631929D01*
X30327527Y-30581543D01*
X30140062Y-30581543D01*
X30118973Y-30605865D01*
X30114821Y-30606153D01*
X30081162Y-30584135D01*
X30060755Y-30537755D01*
X30041518Y-30484908D01*
X30003215Y-30403133D01*
X29952877Y-30307080D01*
X29932666Y-30270953D01*
X29881939Y-30176067D01*
X29843247Y-30092495D01*
X29822543Y-30033580D01*
X29820633Y-30019734D01*
X29825198Y-29991992D01*
X29842621Y-29996362D01*
X29880991Y-30036424D01*
X29894991Y-30052654D01*
X29962581Y-30142346D01*
X30024138Y-30243166D01*
X30076163Y-30346305D01*
X30115158Y-30442954D01*
X30137624Y-30524303D01*
X30140062Y-30581543D01*
X30327527Y-30581543D01*
X30327300Y-30427272D01*
X30326166Y-30267532D01*
X30325674Y-30241853D01*
X30210333Y-30241853D01*
X30208333Y-30263330D01*
X30194462Y-30256233D01*
X30163740Y-30216646D01*
X30111185Y-30140658D01*
X30083327Y-30099770D01*
X30029906Y-30012633D01*
X30005708Y-29954738D01*
X30009385Y-29929789D01*
X30039590Y-29941487D01*
X30094975Y-29993534D01*
X30114155Y-30015080D01*
X30170041Y-30097088D01*
X30202653Y-30179596D01*
X30205444Y-30195714D01*
X30210333Y-30241853D01*
X30325674Y-30241853D01*
X30323849Y-30146828D01*
X30319998Y-30059278D01*
X30314266Y-29999001D01*
X30306301Y-29960116D01*
X30295754Y-29936743D01*
X30285612Y-29925580D01*
X30228870Y-29903760D01*
X30125527Y-29892368D01*
X30050662Y-29890720D01*
X29952226Y-29890157D01*
X29878931Y-29892783D01*
G37*
X29878931Y-29892783D02*
X29827335Y-29905068D01*
X29793995Y-29933482D01*
X29775470Y-29984496D01*
X29768317Y-30064582D01*
X29769094Y-30180208D01*
X29774359Y-30337846D01*
X29776678Y-30405755D01*
X29790367Y-30709003D01*
X29810908Y-30965923D01*
X29839776Y-31180702D01*
X29878448Y-31357527D01*
X29928399Y-31500585D01*
X29991104Y-31614062D01*
X30068040Y-31702147D01*
X30160683Y-31769025D01*
X30270508Y-31818883D01*
X30275388Y-31820621D01*
X30402811Y-31848748D01*
X30554835Y-31857386D01*
X30709332Y-31846964D01*
X30844169Y-31817909D01*
X30868812Y-31809131D01*
X31039765Y-31720534D01*
X31169675Y-31603703D01*
X31228178Y-31520527D01*
X31258831Y-31459168D01*
X31281327Y-31388457D01*
X31298469Y-31295855D01*
X31313058Y-31168825D01*
X31317427Y-31121338D01*
X31329789Y-30952495D01*
X31336318Y-30816256D01*
X31187194Y-30816256D01*
X31177587Y-30922553D01*
X31158855Y-31003737D01*
X31132947Y-31050817D01*
X31106963Y-31057394D01*
X31090608Y-31029734D01*
X31083652Y-30960258D01*
X31085648Y-30845512D01*
X31085397Y-30819284D01*
X30934721Y-30819284D01*
X30926187Y-30878921D01*
X30909799Y-30890932D01*
X30887443Y-30856228D01*
X30861006Y-30775721D01*
X30858229Y-30763731D01*
X30682675Y-30763731D01*
X30680078Y-30813905D01*
X30668437Y-30831986D01*
X30652835Y-30829973D01*
X30626918Y-30797358D01*
X30601603Y-30726794D01*
X30587508Y-30664792D01*
X30560061Y-30552056D01*
X30520754Y-30429778D01*
X30496341Y-30367415D01*
X30459646Y-30275601D01*
X30430432Y-30190641D01*
X30418129Y-30144720D01*
X30403025Y-30068520D01*
X30457014Y-30131942D01*
X30552286Y-30273449D01*
X30626680Y-30441742D01*
X30670941Y-30614151D01*
X30677675Y-30672296D01*
X30682675Y-30763731D01*
X30858229Y-30763731D01*
X30834996Y-30663447D01*
X30784822Y-30472337D01*
X30711766Y-30296972D01*
X30607075Y-30117110D01*
X30583198Y-30081220D01*
X30538990Y-30006624D01*
X30528806Y-29964567D01*
X30536128Y-29956754D01*
X30573843Y-29969001D01*
X30627529Y-30019058D01*
X30691001Y-30099021D01*
X30758075Y-30200987D01*
X30822567Y-30317052D01*
X30830628Y-30333146D01*
X30883023Y-30448438D01*
X30913728Y-30545612D01*
X30929302Y-30648771D01*
X30933516Y-30711107D01*
X30934721Y-30819284D01*
X31085397Y-30819284D01*
X31084098Y-30683880D01*
X31060687Y-30538333D01*
X31011068Y-30393836D01*
X30930895Y-30235354D01*
X30888413Y-30163222D01*
X30829214Y-30058327D01*
X30798909Y-29988752D01*
X30796353Y-29956517D01*
X30820403Y-29963642D01*
X30869913Y-30012147D01*
X30931275Y-30087570D01*
X31046051Y-30253434D01*
X31123289Y-30405245D01*
X31168446Y-30556005D01*
X31185730Y-30693835D01*
X31187194Y-30816256D01*
X31336318Y-30816256D01*
X31338310Y-30774692D01*
X31343057Y-30596065D01*
X31344101Y-30424751D01*
X31341511Y-30268885D01*
X31339543Y-30226571D01*
X31242000Y-30226571D01*
X31238514Y-30271596D01*
X31232676Y-30284420D01*
X31214528Y-30265233D01*
X31178887Y-30216450D01*
X31156476Y-30183364D01*
X31111498Y-30113028D01*
X31093527Y-30074683D01*
X31100304Y-30058796D01*
X31126260Y-30055820D01*
X31171343Y-30077736D01*
X31213047Y-30131200D01*
X31238880Y-30197783D01*
X31242000Y-30226571D01*
X31339543Y-30226571D01*
X31335356Y-30136605D01*
X31325706Y-30036048D01*
X31312631Y-29975349D01*
X31307556Y-29965424D01*
X31290020Y-29947021D01*
X31263180Y-29933499D01*
X31219256Y-29923868D01*
X31150465Y-29917136D01*
X31049024Y-29912314D01*
X30907151Y-29908410D01*
X30849769Y-29907147D01*
X30676206Y-29904710D01*
X30548181Y-29905991D01*
X30460551Y-29911241D01*
X30408174Y-29920707D01*
X30390391Y-29929409D01*
X30378876Y-29945117D01*
X30370399Y-29974389D01*
X30364783Y-30023041D01*
X30361850Y-30096888D01*
X30361423Y-30201747D01*
X30363325Y-30343434D01*
X30367379Y-30527764D01*
X30369541Y-30613883D01*
X30374405Y-30829337D01*
X30376607Y-30998042D01*
X30376070Y-31123982D01*
X30372721Y-31211141D01*
X30366484Y-31263505D01*
X30357286Y-31285058D01*
X30356964Y-31285270D01*
X30347591Y-31277590D01*
X30340240Y-31239130D01*
X30334740Y-31166118D01*
X30330922Y-31054781D01*
X30328616Y-30901346D01*
X30327653Y-30702041D01*
X30327625Y-30664108D01*
X29916422Y-30664108D01*
X29912462Y-30684603D01*
X29892216Y-30671436D01*
X29884327Y-30663886D01*
X29857931Y-30614777D01*
X29837675Y-30534112D01*
X29831467Y-30486086D01*
X29825219Y-30409057D01*
X29825827Y-30377171D01*
X29835280Y-30385005D01*
X29854180Y-30424120D01*
X29882392Y-30501952D01*
X29905107Y-30591525D01*
X29907040Y-30601920D01*
X29916422Y-30664108D01*
X30327625Y-30664108D01*
X30327600Y-30631929D01*
X30327527Y-30581543D01*
X30140062Y-30581543D01*
X30118973Y-30605865D01*
X30114821Y-30606153D01*
X30081162Y-30584135D01*
X30060755Y-30537755D01*
X30041518Y-30484908D01*
X30003215Y-30403133D01*
X29952877Y-30307080D01*
X29932666Y-30270953D01*
X29881939Y-30176067D01*
X29843247Y-30092495D01*
X29822543Y-30033580D01*
X29820633Y-30019734D01*
X29825198Y-29991992D01*
X29842621Y-29996362D01*
X29880991Y-30036424D01*
X29894991Y-30052654D01*
X29962581Y-30142346D01*
X30024138Y-30243166D01*
X30076163Y-30346305D01*
X30115158Y-30442954D01*
X30137624Y-30524303D01*
X30140062Y-30581543D01*
X30327527Y-30581543D01*
X30327300Y-30427272D01*
X30326166Y-30267532D01*
X30325674Y-30241853D01*
X30210333Y-30241853D01*
X30208333Y-30263330D01*
X30194462Y-30256233D01*
X30163740Y-30216646D01*
X30111185Y-30140658D01*
X30083327Y-30099770D01*
X30029906Y-30012633D01*
X30005708Y-29954738D01*
X30009385Y-29929789D01*
X30039590Y-29941487D01*
X30094975Y-29993534D01*
X30114155Y-30015080D01*
X30170041Y-30097088D01*
X30202653Y-30179596D01*
X30205444Y-30195714D01*
X30210333Y-30241853D01*
X30325674Y-30241853D01*
X30323849Y-30146828D01*
X30319998Y-30059278D01*
X30314266Y-29999001D01*
X30306301Y-29960116D01*
X30295754Y-29936743D01*
X30285612Y-29925580D01*
X30228870Y-29903760D01*
X30125527Y-29892368D01*
X30050662Y-29890720D01*
X29952226Y-29890157D01*
X29878931Y-29892783D01*
G36*
X32424543Y-29880018D02*
G01*
X32335205Y-29891677D01*
X32302264Y-29901076D01*
X32260086Y-29932718D01*
X32203008Y-29995765D01*
X32141939Y-30077867D01*
X32129161Y-30097092D01*
X32016700Y-30270051D01*
X32003902Y-30110016D01*
X31999937Y-30079566D01*
X31870773Y-30079566D01*
X31867299Y-30081220D01*
X31844119Y-30063338D01*
X31838900Y-30055820D01*
X31832428Y-30032073D01*
X31835902Y-30030420D01*
X31859082Y-30048301D01*
X31864300Y-30055820D01*
X31870773Y-30079566D01*
X31999937Y-30079566D01*
X31990517Y-30007232D01*
X31963862Y-29939905D01*
X31914701Y-29900770D01*
X31833794Y-29882563D01*
X31711904Y-29878021D01*
X31708860Y-29878020D01*
X31596314Y-29882075D01*
X31524368Y-29895394D01*
X31484808Y-29918241D01*
X31474330Y-29933458D01*
X31465918Y-29959242D01*
X31459406Y-30000496D01*
X31454627Y-30062120D01*
X31451412Y-30149016D01*
X31449596Y-30266087D01*
X31449010Y-30418232D01*
X31449488Y-30610355D01*
X31450862Y-30847357D01*
X31451243Y-30902491D01*
X31457900Y-31846520D01*
X31751677Y-31853635D01*
X32045454Y-31860751D01*
X32296100Y-31496605D01*
X32303881Y-31645284D01*
X32312524Y-31731606D01*
X32326720Y-31799307D01*
X32338741Y-31826591D01*
X32377882Y-31843500D01*
X32452179Y-31854517D01*
X32546325Y-31859571D01*
X32645012Y-31858594D01*
X32732930Y-31851516D01*
X32794772Y-31838267D01*
X32811720Y-31828740D01*
X32820326Y-31805684D01*
X32827330Y-31753106D01*
X32832842Y-31667562D01*
X32836974Y-31545607D01*
X32839835Y-31383797D01*
X32840370Y-31319189D01*
X32735056Y-31319189D01*
X32729563Y-31366339D01*
X32701600Y-31443077D01*
X32667578Y-31486505D01*
X32636216Y-31489198D01*
X32631152Y-31459916D01*
X32649028Y-31407326D01*
X32651613Y-31402189D01*
X32690710Y-31338136D01*
X32720455Y-31309582D01*
X32735056Y-31319189D01*
X32840370Y-31319189D01*
X32841045Y-31237689D01*
X32784831Y-31237689D01*
X32779745Y-31247930D01*
X32755525Y-31274190D01*
X32751070Y-31255671D01*
X32757236Y-31235824D01*
X32775936Y-31208162D01*
X32784382Y-31208734D01*
X32784831Y-31237689D01*
X32841045Y-31237689D01*
X32841535Y-31178688D01*
X32842186Y-30926834D01*
X32842200Y-30877680D01*
X32842200Y-30765283D01*
X32718140Y-30765283D01*
X32710531Y-30921287D01*
X32683851Y-31055329D01*
X32678333Y-31071820D01*
X32641194Y-31157539D01*
X32592009Y-31247494D01*
X32538570Y-31329955D01*
X32488669Y-31393191D01*
X32450097Y-31425473D01*
X32442150Y-31427370D01*
X32412554Y-31420987D01*
X32410400Y-31417356D01*
X32420606Y-31391463D01*
X32447867Y-31330902D01*
X32487147Y-31246751D01*
X32505650Y-31207806D01*
X32550949Y-31109321D01*
X32579044Y-31032749D01*
X32594014Y-30959222D01*
X32599936Y-30869872D01*
X32600900Y-30767020D01*
X32600477Y-30756931D01*
X32473158Y-30756931D01*
X32462057Y-30913714D01*
X32437947Y-31005027D01*
X32400394Y-31104528D01*
X32355359Y-31200526D01*
X32308799Y-31281332D01*
X32266674Y-31335253D01*
X32239044Y-31351220D01*
X32214375Y-31337291D01*
X32221345Y-31306770D01*
X32307116Y-31079130D01*
X32352020Y-30873766D01*
X32353659Y-30800809D01*
X32214455Y-30800809D01*
X32185637Y-30999010D01*
X32115487Y-31174084D01*
X32069482Y-31249064D01*
X32032942Y-31291374D01*
X32010771Y-31297723D01*
X32007873Y-31264822D01*
X32012358Y-31243270D01*
X32027280Y-31186886D01*
X32050126Y-31104013D01*
X32066119Y-31047234D01*
X32097177Y-30882196D01*
X32100923Y-30771280D01*
X31961385Y-30771280D01*
X31952762Y-30894813D01*
X31950787Y-30906189D01*
X31924470Y-31010412D01*
X31887977Y-31108373D01*
X31847027Y-31188319D01*
X31807337Y-31238497D01*
X31783718Y-31249620D01*
X31757492Y-31233583D01*
X31759068Y-31217870D01*
X31829822Y-30993909D01*
X31844882Y-30841995D01*
X31709238Y-30841995D01*
X31699240Y-30906543D01*
X31664363Y-31037180D01*
X31627677Y-31129307D01*
X31591292Y-31178592D01*
X31563866Y-31184280D01*
X31543561Y-31169078D01*
X31541143Y-31136807D01*
X31556464Y-31073740D01*
X31562462Y-31053502D01*
X31592737Y-30885305D01*
X31592630Y-30699027D01*
X31562776Y-30516821D01*
X31545429Y-30458148D01*
X31518992Y-30365681D01*
X31503360Y-30282964D01*
X31501499Y-30236699D01*
X31508301Y-30206702D01*
X31521377Y-30206963D01*
X31545856Y-30242567D01*
X31586867Y-30318603D01*
X31589821Y-30324284D01*
X31663943Y-30501700D01*
X31704556Y-30678569D01*
X31709238Y-30841995D01*
X31844882Y-30841995D01*
X31851580Y-30774443D01*
X31823992Y-30556812D01*
X31746707Y-30338355D01*
X31619376Y-30116413D01*
X31612698Y-30106643D01*
X31561044Y-30024823D01*
X31541578Y-29974814D01*
X31550312Y-29952049D01*
X31586522Y-29957137D01*
X31636199Y-30001313D01*
X31694532Y-30076266D01*
X31756708Y-30173687D01*
X31817916Y-30285267D01*
X31873342Y-30402695D01*
X31918174Y-30517663D01*
X31947600Y-30621861D01*
X31952068Y-30645763D01*
X31961385Y-30771280D01*
X32100923Y-30771280D01*
X32103045Y-30708457D01*
X32083744Y-30547326D01*
X32065539Y-30480694D01*
X32041953Y-30390455D01*
X32045169Y-30331064D01*
X32051265Y-30317420D01*
X32068877Y-30296811D01*
X32087648Y-30307750D01*
X32114404Y-30356745D01*
X32131147Y-30393573D01*
X32196340Y-30596581D01*
X32214455Y-30800809D01*
X32353659Y-30800809D01*
X32356304Y-30683116D01*
X32320213Y-30499616D01*
X32253055Y-30333604D01*
X32201965Y-30221559D01*
X32180172Y-30149820D01*
X32184915Y-30119320D01*
X32212651Y-30113095D01*
X32248713Y-30144875D01*
X32295647Y-30217946D01*
X32355999Y-30335597D01*
X32361958Y-30348030D01*
X32441815Y-30559218D01*
X32473158Y-30756931D01*
X32600477Y-30756931D01*
X32594611Y-30617085D01*
X32572339Y-30488623D01*
X32528975Y-30366756D01*
X32459412Y-30236604D01*
X32373705Y-30105199D01*
X32326920Y-30027616D01*
X32307908Y-29974913D01*
X32316506Y-29952317D01*
X32352550Y-29965054D01*
X32377512Y-29983568D01*
X32424688Y-30035462D01*
X32484694Y-30119589D01*
X32549078Y-30222055D01*
X32609389Y-30328966D01*
X32657174Y-30426430D01*
X32676428Y-30474920D01*
X32706749Y-30609199D01*
X32718140Y-30765283D01*
X32842200Y-30765283D01*
X32842200Y-30275408D01*
X32791400Y-30275408D01*
X32789937Y-30314245D01*
X32782038Y-30326871D01*
X32762442Y-30308870D01*
X32725888Y-30255826D01*
X32677493Y-30179793D01*
X32625821Y-30089749D01*
X32606894Y-30033778D01*
X32619796Y-30007910D01*
X32637124Y-30005020D01*
X32667708Y-30026170D01*
X32707345Y-30079199D01*
X32747114Y-30148471D01*
X32778093Y-30218348D01*
X32791362Y-30273197D01*
X32791400Y-30275408D01*
X32842200Y-30275408D01*
X32842200Y-29957100D01*
X32785749Y-29917560D01*
X32728698Y-29896701D01*
X32638204Y-29883107D01*
X32531181Y-29877354D01*
X32424543Y-29880018D01*
G37*
X32424543Y-29880018D02*
X32335205Y-29891677D01*
X32302264Y-29901076D01*
X32260086Y-29932718D01*
X32203008Y-29995765D01*
X32141939Y-30077867D01*
X32129161Y-30097092D01*
X32016700Y-30270051D01*
X32003902Y-30110016D01*
X31999937Y-30079566D01*
X31870773Y-30079566D01*
X31867299Y-30081220D01*
X31844119Y-30063338D01*
X31838900Y-30055820D01*
X31832428Y-30032073D01*
X31835902Y-30030420D01*
X31859082Y-30048301D01*
X31864300Y-30055820D01*
X31870773Y-30079566D01*
X31999937Y-30079566D01*
X31990517Y-30007232D01*
X31963862Y-29939905D01*
X31914701Y-29900770D01*
X31833794Y-29882563D01*
X31711904Y-29878021D01*
X31708860Y-29878020D01*
X31596314Y-29882075D01*
X31524368Y-29895394D01*
X31484808Y-29918241D01*
X31474330Y-29933458D01*
X31465918Y-29959242D01*
X31459406Y-30000496D01*
X31454627Y-30062120D01*
X31451412Y-30149016D01*
X31449596Y-30266087D01*
X31449010Y-30418232D01*
X31449488Y-30610355D01*
X31450862Y-30847357D01*
X31451243Y-30902491D01*
X31457900Y-31846520D01*
X31751677Y-31853635D01*
X32045454Y-31860751D01*
X32296100Y-31496605D01*
X32303881Y-31645284D01*
X32312524Y-31731606D01*
X32326720Y-31799307D01*
X32338741Y-31826591D01*
X32377882Y-31843500D01*
X32452179Y-31854517D01*
X32546325Y-31859571D01*
X32645012Y-31858594D01*
X32732930Y-31851516D01*
X32794772Y-31838267D01*
X32811720Y-31828740D01*
X32820326Y-31805684D01*
X32827330Y-31753106D01*
X32832842Y-31667562D01*
X32836974Y-31545607D01*
X32839835Y-31383797D01*
X32840370Y-31319189D01*
X32735056Y-31319189D01*
X32729563Y-31366339D01*
X32701600Y-31443077D01*
X32667578Y-31486505D01*
X32636216Y-31489198D01*
X32631152Y-31459916D01*
X32649028Y-31407326D01*
X32651613Y-31402189D01*
X32690710Y-31338136D01*
X32720455Y-31309582D01*
X32735056Y-31319189D01*
X32840370Y-31319189D01*
X32841045Y-31237689D01*
X32784831Y-31237689D01*
X32779745Y-31247930D01*
X32755525Y-31274190D01*
X32751070Y-31255671D01*
X32757236Y-31235824D01*
X32775936Y-31208162D01*
X32784382Y-31208734D01*
X32784831Y-31237689D01*
X32841045Y-31237689D01*
X32841535Y-31178688D01*
X32842186Y-30926834D01*
X32842200Y-30877680D01*
X32842200Y-30765283D01*
X32718140Y-30765283D01*
X32710531Y-30921287D01*
X32683851Y-31055329D01*
X32678333Y-31071820D01*
X32641194Y-31157539D01*
X32592009Y-31247494D01*
X32538570Y-31329955D01*
X32488669Y-31393191D01*
X32450097Y-31425473D01*
X32442150Y-31427370D01*
X32412554Y-31420987D01*
X32410400Y-31417356D01*
X32420606Y-31391463D01*
X32447867Y-31330902D01*
X32487147Y-31246751D01*
X32505650Y-31207806D01*
X32550949Y-31109321D01*
X32579044Y-31032749D01*
X32594014Y-30959222D01*
X32599936Y-30869872D01*
X32600900Y-30767020D01*
X32600477Y-30756931D01*
X32473158Y-30756931D01*
X32462057Y-30913714D01*
X32437947Y-31005027D01*
X32400394Y-31104528D01*
X32355359Y-31200526D01*
X32308799Y-31281332D01*
X32266674Y-31335253D01*
X32239044Y-31351220D01*
X32214375Y-31337291D01*
X32221345Y-31306770D01*
X32307116Y-31079130D01*
X32352020Y-30873766D01*
X32353659Y-30800809D01*
X32214455Y-30800809D01*
X32185637Y-30999010D01*
X32115487Y-31174084D01*
X32069482Y-31249064D01*
X32032942Y-31291374D01*
X32010771Y-31297723D01*
X32007873Y-31264822D01*
X32012358Y-31243270D01*
X32027280Y-31186886D01*
X32050126Y-31104013D01*
X32066119Y-31047234D01*
X32097177Y-30882196D01*
X32100923Y-30771280D01*
X31961385Y-30771280D01*
X31952762Y-30894813D01*
X31950787Y-30906189D01*
X31924470Y-31010412D01*
X31887977Y-31108373D01*
X31847027Y-31188319D01*
X31807337Y-31238497D01*
X31783718Y-31249620D01*
X31757492Y-31233583D01*
X31759068Y-31217870D01*
X31829822Y-30993909D01*
X31844882Y-30841995D01*
X31709238Y-30841995D01*
X31699240Y-30906543D01*
X31664363Y-31037180D01*
X31627677Y-31129307D01*
X31591292Y-31178592D01*
X31563866Y-31184280D01*
X31543561Y-31169078D01*
X31541143Y-31136807D01*
X31556464Y-31073740D01*
X31562462Y-31053502D01*
X31592737Y-30885305D01*
X31592630Y-30699027D01*
X31562776Y-30516821D01*
X31545429Y-30458148D01*
X31518992Y-30365681D01*
X31503360Y-30282964D01*
X31501499Y-30236699D01*
X31508301Y-30206702D01*
X31521377Y-30206963D01*
X31545856Y-30242567D01*
X31586867Y-30318603D01*
X31589821Y-30324284D01*
X31663943Y-30501700D01*
X31704556Y-30678569D01*
X31709238Y-30841995D01*
X31844882Y-30841995D01*
X31851580Y-30774443D01*
X31823992Y-30556812D01*
X31746707Y-30338355D01*
X31619376Y-30116413D01*
X31612698Y-30106643D01*
X31561044Y-30024823D01*
X31541578Y-29974814D01*
X31550312Y-29952049D01*
X31586522Y-29957137D01*
X31636199Y-30001313D01*
X31694532Y-30076266D01*
X31756708Y-30173687D01*
X31817916Y-30285267D01*
X31873342Y-30402695D01*
X31918174Y-30517663D01*
X31947600Y-30621861D01*
X31952068Y-30645763D01*
X31961385Y-30771280D01*
X32100923Y-30771280D01*
X32103045Y-30708457D01*
X32083744Y-30547326D01*
X32065539Y-30480694D01*
X32041953Y-30390455D01*
X32045169Y-30331064D01*
X32051265Y-30317420D01*
X32068877Y-30296811D01*
X32087648Y-30307750D01*
X32114404Y-30356745D01*
X32131147Y-30393573D01*
X32196340Y-30596581D01*
X32214455Y-30800809D01*
X32353659Y-30800809D01*
X32356304Y-30683116D01*
X32320213Y-30499616D01*
X32253055Y-30333604D01*
X32201965Y-30221559D01*
X32180172Y-30149820D01*
X32184915Y-30119320D01*
X32212651Y-30113095D01*
X32248713Y-30144875D01*
X32295647Y-30217946D01*
X32355999Y-30335597D01*
X32361958Y-30348030D01*
X32441815Y-30559218D01*
X32473158Y-30756931D01*
X32600477Y-30756931D01*
X32594611Y-30617085D01*
X32572339Y-30488623D01*
X32528975Y-30366756D01*
X32459412Y-30236604D01*
X32373705Y-30105199D01*
X32326920Y-30027616D01*
X32307908Y-29974913D01*
X32316506Y-29952317D01*
X32352550Y-29965054D01*
X32377512Y-29983568D01*
X32424688Y-30035462D01*
X32484694Y-30119589D01*
X32549078Y-30222055D01*
X32609389Y-30328966D01*
X32657174Y-30426430D01*
X32676428Y-30474920D01*
X32706749Y-30609199D01*
X32718140Y-30765283D01*
X32842200Y-30765283D01*
X32842200Y-30275408D01*
X32791400Y-30275408D01*
X32789937Y-30314245D01*
X32782038Y-30326871D01*
X32762442Y-30308870D01*
X32725888Y-30255826D01*
X32677493Y-30179793D01*
X32625821Y-30089749D01*
X32606894Y-30033778D01*
X32619796Y-30007910D01*
X32637124Y-30005020D01*
X32667708Y-30026170D01*
X32707345Y-30079199D01*
X32747114Y-30148471D01*
X32778093Y-30218348D01*
X32791362Y-30273197D01*
X32791400Y-30275408D01*
X32842200Y-30275408D01*
X32842200Y-29957100D01*
X32785749Y-29917560D01*
X32728698Y-29896701D01*
X32638204Y-29883107D01*
X32531181Y-29877354D01*
X32424543Y-29880018D01*
G36*
X35200756Y-29809960D02*
G01*
X35167508Y-29811611D01*
X35047768Y-29819302D01*
X34946817Y-29828579D01*
X34875353Y-29838266D01*
X34844157Y-29847103D01*
X34830883Y-29883223D01*
X34817031Y-29958758D01*
X34803678Y-30062348D01*
X34791900Y-30182635D01*
X34782771Y-30308260D01*
X34777369Y-30427864D01*
X34776769Y-30530089D01*
X34777474Y-30551120D01*
X34785300Y-30728920D01*
X34994502Y-30730184D01*
X35099805Y-30732112D01*
X35168869Y-30738914D01*
X35216244Y-30754437D01*
X35256481Y-30782531D01*
X35282578Y-30806384D01*
X35362035Y-30898111D01*
X35418529Y-30995674D01*
X35445428Y-31085529D01*
X35443510Y-31135003D01*
X35414793Y-31190792D01*
X35361941Y-31254497D01*
X35340532Y-31274746D01*
X35290002Y-31315050D01*
X35242255Y-31338041D01*
X35180325Y-31348496D01*
X35087246Y-31351189D01*
X35068897Y-31351220D01*
X34964162Y-31355466D01*
X34887797Y-31367074D01*
X34853881Y-31381699D01*
X34835752Y-31425885D01*
X34825945Y-31501637D01*
X34824704Y-31590367D01*
X34832276Y-31673487D01*
X34848905Y-31732408D01*
X34849237Y-31733035D01*
X34899368Y-31778862D01*
X34988702Y-31815101D01*
X35106365Y-31840698D01*
X35241484Y-31854600D01*
X35383183Y-31855754D01*
X35520588Y-31843106D01*
X35642826Y-31815603D01*
X35656161Y-31811185D01*
X35857304Y-31716045D01*
X36041875Y-31578571D01*
X36201449Y-31406572D01*
X36327596Y-31207857D01*
X36344436Y-31173420D01*
X36376914Y-31096439D01*
X36396748Y-31023705D01*
X36406892Y-30938135D01*
X36410302Y-30822649D01*
X36410442Y-30791974D01*
X36410141Y-30764152D01*
X36278443Y-30764152D01*
X36265053Y-30965126D01*
X36204866Y-31152992D01*
X36192688Y-31177952D01*
X36161985Y-31247032D01*
X36145242Y-31302012D01*
X36144200Y-31312108D01*
X36133107Y-31346586D01*
X36123242Y-31351220D01*
X36098804Y-31370304D01*
X36055062Y-31420286D01*
X36002592Y-31488855D01*
X35923263Y-31586355D01*
X35846329Y-31659535D01*
X35780884Y-31700375D01*
X35756070Y-31706144D01*
X35758701Y-31687235D01*
X35784325Y-31636867D01*
X35827492Y-31565668D01*
X35830648Y-31560770D01*
X35942551Y-31384699D01*
X36027865Y-31241663D01*
X36089739Y-31123510D01*
X36131324Y-31022090D01*
X36155769Y-30929251D01*
X36166223Y-30836843D01*
X36166030Y-30786894D01*
X36026464Y-30786894D01*
X36015986Y-30925824D01*
X35963087Y-31102683D01*
X35869286Y-31298723D01*
X35737873Y-31508070D01*
X35572136Y-31724852D01*
X35560706Y-31738523D01*
X35513109Y-31781057D01*
X35486393Y-31779442D01*
X35487763Y-31738456D01*
X35503293Y-31700470D01*
X35534977Y-31643517D01*
X35586468Y-31558224D01*
X35649287Y-31458446D01*
X35686851Y-31400498D01*
X35792058Y-31225557D01*
X35862167Y-31071063D01*
X35901074Y-30924901D01*
X35911611Y-30788663D01*
X35770603Y-30788663D01*
X35742621Y-30998137D01*
X35666109Y-31209854D01*
X35615305Y-31307056D01*
X35558399Y-31399204D01*
X35517674Y-31454023D01*
X35455124Y-31530751D01*
X35395680Y-31609448D01*
X35385202Y-31624270D01*
X35339349Y-31677251D01*
X35297226Y-31705421D01*
X35289146Y-31706820D01*
X35272709Y-31696993D01*
X35280066Y-31662437D01*
X35313336Y-31595538D01*
X35326847Y-31571277D01*
X35367192Y-31491032D01*
X35393239Y-31422191D01*
X35397978Y-31394158D01*
X35295079Y-31394158D01*
X35289816Y-31415617D01*
X35260665Y-31461317D01*
X35205009Y-31538387D01*
X35179000Y-31573799D01*
X35118110Y-31649178D01*
X35062691Y-31704807D01*
X35023367Y-31730224D01*
X35019598Y-31730782D01*
X34991750Y-31728177D01*
X34989186Y-31709075D01*
X35011491Y-31660431D01*
X35017013Y-31649670D01*
X35088669Y-31530460D01*
X35161842Y-31444657D01*
X35189932Y-31426037D01*
X35009722Y-31426037D01*
X35006116Y-31453311D01*
X34974446Y-31504673D01*
X34958491Y-31527278D01*
X34886900Y-31627394D01*
X34878675Y-31549239D01*
X34885069Y-31476717D01*
X34908456Y-31433079D01*
X34957148Y-31408869D01*
X34988271Y-31411117D01*
X35009722Y-31426037D01*
X35189932Y-31426037D01*
X35230185Y-31399355D01*
X35244392Y-31395441D01*
X35279066Y-31389809D01*
X35295079Y-31394158D01*
X35397978Y-31394158D01*
X35399121Y-31387399D01*
X35417318Y-31338830D01*
X35451101Y-31314127D01*
X35506179Y-31266402D01*
X35558820Y-31179619D01*
X35604418Y-31065472D01*
X35638367Y-30935656D01*
X35644961Y-30885792D01*
X35520189Y-30885792D01*
X35517105Y-30912972D01*
X35501355Y-31027884D01*
X35455542Y-30941902D01*
X35424991Y-30854571D01*
X35409435Y-30747474D01*
X35408665Y-30723522D01*
X35397332Y-30642783D01*
X35252811Y-30642783D01*
X35238787Y-30681599D01*
X35212245Y-30686272D01*
X35176801Y-30655060D01*
X35176099Y-30653551D01*
X34998818Y-30653551D01*
X34990472Y-30683352D01*
X34961805Y-30690785D01*
X34957926Y-30690820D01*
X34922713Y-30677759D01*
X34895568Y-30631797D01*
X34876520Y-30570170D01*
X34844207Y-30435153D01*
X34829816Y-30343263D01*
X34832877Y-30290274D01*
X34843658Y-30274898D01*
X34868246Y-30285768D01*
X34900816Y-30333290D01*
X34935594Y-30405217D01*
X34966803Y-30489300D01*
X34988667Y-30573290D01*
X34991225Y-30587832D01*
X34998818Y-30653551D01*
X35176099Y-30653551D01*
X35140771Y-30577631D01*
X35126147Y-30532673D01*
X35081828Y-30411333D01*
X35021927Y-30283989D01*
X34956496Y-30170358D01*
X34906871Y-30102516D01*
X34882399Y-30046676D01*
X34878647Y-29988216D01*
X34884462Y-29957563D01*
X34896238Y-29950359D01*
X34919470Y-29971471D01*
X34959652Y-30025768D01*
X35017916Y-30111606D01*
X35098068Y-30240625D01*
X35163882Y-30364901D01*
X35213109Y-30477785D01*
X35243502Y-30572629D01*
X35252811Y-30642783D01*
X35397332Y-30642783D01*
X35384341Y-30550247D01*
X35315109Y-30361058D01*
X35202629Y-30160346D01*
X35186986Y-30136710D01*
X35114953Y-30028662D01*
X35068529Y-29955646D01*
X35044477Y-29910879D01*
X35039560Y-29887579D01*
X35050539Y-29878963D01*
X35063516Y-29878020D01*
X35099573Y-29898697D01*
X35153265Y-29954474D01*
X35217694Y-30035968D01*
X35285960Y-30133796D01*
X35351162Y-30238576D01*
X35406402Y-30340925D01*
X35411171Y-30350788D01*
X35479114Y-30530683D01*
X35516561Y-30714895D01*
X35520189Y-30885792D01*
X35644961Y-30885792D01*
X35656061Y-30801867D01*
X35656583Y-30792420D01*
X35654518Y-30650785D01*
X35630705Y-30518199D01*
X35581096Y-30382626D01*
X35501644Y-30232031D01*
X35428916Y-30115537D01*
X35357932Y-30005425D01*
X35312708Y-29930715D01*
X35290280Y-29884908D01*
X35287685Y-29861506D01*
X35301961Y-29854010D01*
X35309633Y-29853910D01*
X35341313Y-29875050D01*
X35391605Y-29930561D01*
X35453696Y-30010834D01*
X35520771Y-30106262D01*
X35586017Y-30207235D01*
X35642619Y-30304146D01*
X35676794Y-30371630D01*
X35748646Y-30581003D01*
X35770603Y-30788663D01*
X35911611Y-30788663D01*
X35912672Y-30774958D01*
X35910208Y-30705902D01*
X35876321Y-30505495D01*
X35798880Y-30306763D01*
X35687553Y-30120123D01*
X35645242Y-30047964D01*
X35637312Y-30009689D01*
X35659215Y-30006547D01*
X35706404Y-30039785D01*
X35764312Y-30099066D01*
X35869619Y-30248055D01*
X35951347Y-30421994D01*
X36005096Y-30606426D01*
X36026464Y-30786894D01*
X36166030Y-30786894D01*
X36165836Y-30736714D01*
X36163749Y-30698741D01*
X36154042Y-30598925D01*
X36135792Y-30512697D01*
X36103655Y-30422452D01*
X36052284Y-30310589D01*
X36035581Y-30276723D01*
X35988527Y-30178545D01*
X35953333Y-30098103D01*
X35934219Y-30045500D01*
X35932740Y-30030574D01*
X35957247Y-30038132D01*
X35998913Y-30081047D01*
X36050798Y-30149957D01*
X36105958Y-30235502D01*
X36157454Y-30328320D01*
X36165530Y-30344528D01*
X36245209Y-30555482D01*
X36278443Y-30764152D01*
X36410141Y-30764152D01*
X36409157Y-30673325D01*
X36402404Y-30587782D01*
X36386638Y-30517688D01*
X36358312Y-30445387D01*
X36328113Y-30381974D01*
X36212652Y-30194880D01*
X36067429Y-30045740D01*
X35888455Y-29931426D01*
X35671742Y-29848808D01*
X35636200Y-29839078D01*
X35545833Y-29819206D01*
X35453172Y-29808317D01*
X35343164Y-29805529D01*
X35200756Y-29809960D01*
G37*
X35200756Y-29809960D02*
X35167508Y-29811611D01*
X35047768Y-29819302D01*
X34946817Y-29828579D01*
X34875353Y-29838266D01*
X34844157Y-29847103D01*
X34830883Y-29883223D01*
X34817031Y-29958758D01*
X34803678Y-30062348D01*
X34791900Y-30182635D01*
X34782771Y-30308260D01*
X34777369Y-30427864D01*
X34776769Y-30530089D01*
X34777474Y-30551120D01*
X34785300Y-30728920D01*
X34994502Y-30730184D01*
X35099805Y-30732112D01*
X35168869Y-30738914D01*
X35216244Y-30754437D01*
X35256481Y-30782531D01*
X35282578Y-30806384D01*
X35362035Y-30898111D01*
X35418529Y-30995674D01*
X35445428Y-31085529D01*
X35443510Y-31135003D01*
X35414793Y-31190792D01*
X35361941Y-31254497D01*
X35340532Y-31274746D01*
X35290002Y-31315050D01*
X35242255Y-31338041D01*
X35180325Y-31348496D01*
X35087246Y-31351189D01*
X35068897Y-31351220D01*
X34964162Y-31355466D01*
X34887797Y-31367074D01*
X34853881Y-31381699D01*
X34835752Y-31425885D01*
X34825945Y-31501637D01*
X34824704Y-31590367D01*
X34832276Y-31673487D01*
X34848905Y-31732408D01*
X34849237Y-31733035D01*
X34899368Y-31778862D01*
X34988702Y-31815101D01*
X35106365Y-31840698D01*
X35241484Y-31854600D01*
X35383183Y-31855754D01*
X35520588Y-31843106D01*
X35642826Y-31815603D01*
X35656161Y-31811185D01*
X35857304Y-31716045D01*
X36041875Y-31578571D01*
X36201449Y-31406572D01*
X36327596Y-31207857D01*
X36344436Y-31173420D01*
X36376914Y-31096439D01*
X36396748Y-31023705D01*
X36406892Y-30938135D01*
X36410302Y-30822649D01*
X36410442Y-30791974D01*
X36410141Y-30764152D01*
X36278443Y-30764152D01*
X36265053Y-30965126D01*
X36204866Y-31152992D01*
X36192688Y-31177952D01*
X36161985Y-31247032D01*
X36145242Y-31302012D01*
X36144200Y-31312108D01*
X36133107Y-31346586D01*
X36123242Y-31351220D01*
X36098804Y-31370304D01*
X36055062Y-31420286D01*
X36002592Y-31488855D01*
X35923263Y-31586355D01*
X35846329Y-31659535D01*
X35780884Y-31700375D01*
X35756070Y-31706144D01*
X35758701Y-31687235D01*
X35784325Y-31636867D01*
X35827492Y-31565668D01*
X35830648Y-31560770D01*
X35942551Y-31384699D01*
X36027865Y-31241663D01*
X36089739Y-31123510D01*
X36131324Y-31022090D01*
X36155769Y-30929251D01*
X36166223Y-30836843D01*
X36166030Y-30786894D01*
X36026464Y-30786894D01*
X36015986Y-30925824D01*
X35963087Y-31102683D01*
X35869286Y-31298723D01*
X35737873Y-31508070D01*
X35572136Y-31724852D01*
X35560706Y-31738523D01*
X35513109Y-31781057D01*
X35486393Y-31779442D01*
X35487763Y-31738456D01*
X35503293Y-31700470D01*
X35534977Y-31643517D01*
X35586468Y-31558224D01*
X35649287Y-31458446D01*
X35686851Y-31400498D01*
X35792058Y-31225557D01*
X35862167Y-31071063D01*
X35901074Y-30924901D01*
X35911611Y-30788663D01*
X35770603Y-30788663D01*
X35742621Y-30998137D01*
X35666109Y-31209854D01*
X35615305Y-31307056D01*
X35558399Y-31399204D01*
X35517674Y-31454023D01*
X35455124Y-31530751D01*
X35395680Y-31609448D01*
X35385202Y-31624270D01*
X35339349Y-31677251D01*
X35297226Y-31705421D01*
X35289146Y-31706820D01*
X35272709Y-31696993D01*
X35280066Y-31662437D01*
X35313336Y-31595538D01*
X35326847Y-31571277D01*
X35367192Y-31491032D01*
X35393239Y-31422191D01*
X35397978Y-31394158D01*
X35295079Y-31394158D01*
X35289816Y-31415617D01*
X35260665Y-31461317D01*
X35205009Y-31538387D01*
X35179000Y-31573799D01*
X35118110Y-31649178D01*
X35062691Y-31704807D01*
X35023367Y-31730224D01*
X35019598Y-31730782D01*
X34991750Y-31728177D01*
X34989186Y-31709075D01*
X35011491Y-31660431D01*
X35017013Y-31649670D01*
X35088669Y-31530460D01*
X35161842Y-31444657D01*
X35189932Y-31426037D01*
X35009722Y-31426037D01*
X35006116Y-31453311D01*
X34974446Y-31504673D01*
X34958491Y-31527278D01*
X34886900Y-31627394D01*
X34878675Y-31549239D01*
X34885069Y-31476717D01*
X34908456Y-31433079D01*
X34957148Y-31408869D01*
X34988271Y-31411117D01*
X35009722Y-31426037D01*
X35189932Y-31426037D01*
X35230185Y-31399355D01*
X35244392Y-31395441D01*
X35279066Y-31389809D01*
X35295079Y-31394158D01*
X35397978Y-31394158D01*
X35399121Y-31387399D01*
X35417318Y-31338830D01*
X35451101Y-31314127D01*
X35506179Y-31266402D01*
X35558820Y-31179619D01*
X35604418Y-31065472D01*
X35638367Y-30935656D01*
X35644961Y-30885792D01*
X35520189Y-30885792D01*
X35517105Y-30912972D01*
X35501355Y-31027884D01*
X35455542Y-30941902D01*
X35424991Y-30854571D01*
X35409435Y-30747474D01*
X35408665Y-30723522D01*
X35397332Y-30642783D01*
X35252811Y-30642783D01*
X35238787Y-30681599D01*
X35212245Y-30686272D01*
X35176801Y-30655060D01*
X35176099Y-30653551D01*
X34998818Y-30653551D01*
X34990472Y-30683352D01*
X34961805Y-30690785D01*
X34957926Y-30690820D01*
X34922713Y-30677759D01*
X34895568Y-30631797D01*
X34876520Y-30570170D01*
X34844207Y-30435153D01*
X34829816Y-30343263D01*
X34832877Y-30290274D01*
X34843658Y-30274898D01*
X34868246Y-30285768D01*
X34900816Y-30333290D01*
X34935594Y-30405217D01*
X34966803Y-30489300D01*
X34988667Y-30573290D01*
X34991225Y-30587832D01*
X34998818Y-30653551D01*
X35176099Y-30653551D01*
X35140771Y-30577631D01*
X35126147Y-30532673D01*
X35081828Y-30411333D01*
X35021927Y-30283989D01*
X34956496Y-30170358D01*
X34906871Y-30102516D01*
X34882399Y-30046676D01*
X34878647Y-29988216D01*
X34884462Y-29957563D01*
X34896238Y-29950359D01*
X34919470Y-29971471D01*
X34959652Y-30025768D01*
X35017916Y-30111606D01*
X35098068Y-30240625D01*
X35163882Y-30364901D01*
X35213109Y-30477785D01*
X35243502Y-30572629D01*
X35252811Y-30642783D01*
X35397332Y-30642783D01*
X35384341Y-30550247D01*
X35315109Y-30361058D01*
X35202629Y-30160346D01*
X35186986Y-30136710D01*
X35114953Y-30028662D01*
X35068529Y-29955646D01*
X35044477Y-29910879D01*
X35039560Y-29887579D01*
X35050539Y-29878963D01*
X35063516Y-29878020D01*
X35099573Y-29898697D01*
X35153265Y-29954474D01*
X35217694Y-30035968D01*
X35285960Y-30133796D01*
X35351162Y-30238576D01*
X35406402Y-30340925D01*
X35411171Y-30350788D01*
X35479114Y-30530683D01*
X35516561Y-30714895D01*
X35520189Y-30885792D01*
X35644961Y-30885792D01*
X35656061Y-30801867D01*
X35656583Y-30792420D01*
X35654518Y-30650785D01*
X35630705Y-30518199D01*
X35581096Y-30382626D01*
X35501644Y-30232031D01*
X35428916Y-30115537D01*
X35357932Y-30005425D01*
X35312708Y-29930715D01*
X35290280Y-29884908D01*
X35287685Y-29861506D01*
X35301961Y-29854010D01*
X35309633Y-29853910D01*
X35341313Y-29875050D01*
X35391605Y-29930561D01*
X35453696Y-30010834D01*
X35520771Y-30106262D01*
X35586017Y-30207235D01*
X35642619Y-30304146D01*
X35676794Y-30371630D01*
X35748646Y-30581003D01*
X35770603Y-30788663D01*
X35911611Y-30788663D01*
X35912672Y-30774958D01*
X35910208Y-30705902D01*
X35876321Y-30505495D01*
X35798880Y-30306763D01*
X35687553Y-30120123D01*
X35645242Y-30047964D01*
X35637312Y-30009689D01*
X35659215Y-30006547D01*
X35706404Y-30039785D01*
X35764312Y-30099066D01*
X35869619Y-30248055D01*
X35951347Y-30421994D01*
X36005096Y-30606426D01*
X36026464Y-30786894D01*
X36166030Y-30786894D01*
X36165836Y-30736714D01*
X36163749Y-30698741D01*
X36154042Y-30598925D01*
X36135792Y-30512697D01*
X36103655Y-30422452D01*
X36052284Y-30310589D01*
X36035581Y-30276723D01*
X35988527Y-30178545D01*
X35953333Y-30098103D01*
X35934219Y-30045500D01*
X35932740Y-30030574D01*
X35957247Y-30038132D01*
X35998913Y-30081047D01*
X36050798Y-30149957D01*
X36105958Y-30235502D01*
X36157454Y-30328320D01*
X36165530Y-30344528D01*
X36245209Y-30555482D01*
X36278443Y-30764152D01*
X36410141Y-30764152D01*
X36409157Y-30673325D01*
X36402404Y-30587782D01*
X36386638Y-30517688D01*
X36358312Y-30445387D01*
X36328113Y-30381974D01*
X36212652Y-30194880D01*
X36067429Y-30045740D01*
X35888455Y-29931426D01*
X35671742Y-29848808D01*
X35636200Y-29839078D01*
X35545833Y-29819206D01*
X35453172Y-29808317D01*
X35343164Y-29805529D01*
X35200756Y-29809960D01*
G36*
X37504543Y-29880018D02*
G01*
X37415205Y-29891677D01*
X37382264Y-29901076D01*
X37340086Y-29932718D01*
X37283008Y-29995765D01*
X37221939Y-30077867D01*
X37209161Y-30097092D01*
X37096700Y-30270051D01*
X37083902Y-30110016D01*
X37079937Y-30079566D01*
X36950773Y-30079566D01*
X36947299Y-30081220D01*
X36924119Y-30063338D01*
X36918900Y-30055820D01*
X36912428Y-30032073D01*
X36915902Y-30030420D01*
X36939082Y-30048301D01*
X36944300Y-30055820D01*
X36950773Y-30079566D01*
X37079937Y-30079566D01*
X37070517Y-30007232D01*
X37043862Y-29939905D01*
X36994701Y-29900770D01*
X36913794Y-29882563D01*
X36791904Y-29878021D01*
X36788860Y-29878020D01*
X36676314Y-29882075D01*
X36604368Y-29895394D01*
X36564808Y-29918241D01*
X36554330Y-29933458D01*
X36545918Y-29959242D01*
X36539406Y-30000496D01*
X36534627Y-30062120D01*
X36531412Y-30149016D01*
X36529596Y-30266087D01*
X36529010Y-30418232D01*
X36529488Y-30610355D01*
X36530862Y-30847357D01*
X36531243Y-30902491D01*
X36537900Y-31846520D01*
X36831677Y-31853635D01*
X37125454Y-31860751D01*
X37376100Y-31496605D01*
X37383881Y-31645284D01*
X37392524Y-31731606D01*
X37406720Y-31799307D01*
X37418741Y-31826591D01*
X37457882Y-31843500D01*
X37532179Y-31854517D01*
X37626325Y-31859571D01*
X37725012Y-31858594D01*
X37812930Y-31851516D01*
X37874772Y-31838267D01*
X37891720Y-31828740D01*
X37900326Y-31805684D01*
X37907330Y-31753106D01*
X37912842Y-31667562D01*
X37916974Y-31545607D01*
X37919835Y-31383797D01*
X37920400Y-31315584D01*
X37813414Y-31315584D01*
X37810444Y-31350090D01*
X37794713Y-31398690D01*
X37771068Y-31445648D01*
X37749199Y-31471870D01*
X37702862Y-31501274D01*
X37688172Y-31491754D01*
X37705732Y-31444593D01*
X37722414Y-31414638D01*
X37761313Y-31354622D01*
X37793021Y-31315584D01*
X37798775Y-31310910D01*
X37813414Y-31315584D01*
X37920400Y-31315584D01*
X37921262Y-31211520D01*
X37871400Y-31211520D01*
X37858700Y-31224220D01*
X37846000Y-31211520D01*
X37858700Y-31198820D01*
X37871400Y-31211520D01*
X37921262Y-31211520D01*
X37921535Y-31178688D01*
X37922186Y-30926834D01*
X37922200Y-30877680D01*
X37922200Y-30817826D01*
X37803811Y-30817826D01*
X37771027Y-31016186D01*
X37698141Y-31208645D01*
X37588882Y-31383328D01*
X37534984Y-31446470D01*
X37485152Y-31490421D01*
X37450195Y-31503935D01*
X37439600Y-31488697D01*
X37451051Y-31460638D01*
X37481161Y-31400949D01*
X37523568Y-31322209D01*
X37526313Y-31317247D01*
X37629307Y-31092674D01*
X37683080Y-30877637D01*
X37685558Y-30764235D01*
X37551883Y-30764235D01*
X37533251Y-30963511D01*
X37468789Y-31156471D01*
X37425189Y-31239341D01*
X37367022Y-31331054D01*
X37302201Y-31421275D01*
X37238641Y-31499668D01*
X37184255Y-31555898D01*
X37146957Y-31579631D01*
X37144632Y-31579820D01*
X37119939Y-31574904D01*
X37123903Y-31551917D01*
X37149802Y-31509970D01*
X37263660Y-31328695D01*
X37345736Y-31173708D01*
X37399641Y-31034856D01*
X37428988Y-30901989D01*
X37434435Y-30813136D01*
X37293904Y-30813136D01*
X37260892Y-31021921D01*
X37191048Y-31199332D01*
X37134555Y-31300081D01*
X37070350Y-31400085D01*
X37005619Y-31489715D01*
X36947552Y-31559341D01*
X36903337Y-31599332D01*
X36888079Y-31605220D01*
X36857831Y-31597739D01*
X36855400Y-31593204D01*
X36867843Y-31567592D01*
X36901036Y-31509629D01*
X36948777Y-31430023D01*
X36969425Y-31396354D01*
X37091592Y-31164184D01*
X37164414Y-30943611D01*
X37175459Y-30845374D01*
X37038442Y-30845374D01*
X36995888Y-31052211D01*
X36905270Y-31263470D01*
X36767482Y-31476484D01*
X36741578Y-31509970D01*
X36663838Y-31601518D01*
X36610570Y-31648630D01*
X36581713Y-31651349D01*
X36576000Y-31627595D01*
X36588836Y-31595255D01*
X36623441Y-31530785D01*
X36673967Y-31444689D01*
X36713932Y-31379945D01*
X36810423Y-31215910D01*
X36875701Y-31075967D01*
X36913731Y-30947561D01*
X36928478Y-30818135D01*
X36928150Y-30801403D01*
X36792368Y-30801403D01*
X36761512Y-30992268D01*
X36684751Y-31197187D01*
X36672255Y-31223280D01*
X36630450Y-31307418D01*
X36605498Y-31350618D01*
X36592148Y-31357679D01*
X36585146Y-31333400D01*
X36581819Y-31305897D01*
X36585258Y-31236500D01*
X36603648Y-31143448D01*
X36625126Y-31070846D01*
X36668975Y-30874370D01*
X36671155Y-30670359D01*
X36631617Y-30476356D01*
X36626800Y-30462220D01*
X36599994Y-30373536D01*
X36582855Y-30292298D01*
X36576450Y-30228912D01*
X36581847Y-30193785D01*
X36599595Y-30196790D01*
X36638360Y-30253049D01*
X36682909Y-30342315D01*
X36726401Y-30448390D01*
X36761994Y-30555075D01*
X36778186Y-30619661D01*
X36792368Y-30801403D01*
X36928150Y-30801403D01*
X36926306Y-30707415D01*
X36900122Y-30533847D01*
X36841474Y-30364473D01*
X36745607Y-30187072D01*
X36692698Y-30106643D01*
X36641044Y-30024823D01*
X36621578Y-29974814D01*
X36630312Y-29952049D01*
X36666469Y-29957170D01*
X36716120Y-30001350D01*
X36774442Y-30076265D01*
X36836614Y-30173589D01*
X36897814Y-30284999D01*
X36953222Y-30402169D01*
X36998014Y-30516775D01*
X37027370Y-30620493D01*
X37032035Y-30645621D01*
X37038442Y-30845374D01*
X37175459Y-30845374D01*
X37187940Y-30734370D01*
X37162223Y-30536197D01*
X37145539Y-30480694D01*
X37121953Y-30390455D01*
X37125169Y-30331064D01*
X37131265Y-30317420D01*
X37148877Y-30296811D01*
X37167648Y-30307750D01*
X37194404Y-30356745D01*
X37211147Y-30393573D01*
X37277366Y-30601943D01*
X37293904Y-30813136D01*
X37434435Y-30813136D01*
X37437389Y-30764955D01*
X37435687Y-30706560D01*
X37425160Y-30592494D01*
X37402375Y-30495344D01*
X37360755Y-30391244D01*
X37332772Y-30333039D01*
X37281790Y-30221180D01*
X37260124Y-30149609D01*
X37264915Y-30119320D01*
X37292582Y-30113060D01*
X37328539Y-30144666D01*
X37375348Y-30217452D01*
X37435572Y-30334733D01*
X37442347Y-30348859D01*
X37521629Y-30560784D01*
X37551883Y-30764235D01*
X37685558Y-30764235D01*
X37687637Y-30669123D01*
X37642984Y-30464117D01*
X37549125Y-30259607D01*
X37528091Y-30224373D01*
X37475570Y-30139601D01*
X37425534Y-30059453D01*
X37403991Y-30025249D01*
X37373673Y-29974968D01*
X37370913Y-29955908D01*
X37395553Y-29956719D01*
X37403051Y-29958131D01*
X37459430Y-29990267D01*
X37525361Y-30060955D01*
X37595074Y-30160310D01*
X37662795Y-30278449D01*
X37722753Y-30405489D01*
X37769177Y-30531548D01*
X37792765Y-30625443D01*
X37803811Y-30817826D01*
X37922200Y-30817826D01*
X37922200Y-30275408D01*
X37871400Y-30275408D01*
X37869937Y-30314245D01*
X37862038Y-30326871D01*
X37842442Y-30308870D01*
X37805888Y-30255826D01*
X37757493Y-30179793D01*
X37705821Y-30089749D01*
X37686894Y-30033778D01*
X37699796Y-30007910D01*
X37717124Y-30005020D01*
X37747708Y-30026170D01*
X37787345Y-30079199D01*
X37827114Y-30148471D01*
X37858093Y-30218348D01*
X37871362Y-30273197D01*
X37871400Y-30275408D01*
X37922200Y-30275408D01*
X37922200Y-29957100D01*
X37865749Y-29917560D01*
X37808698Y-29896701D01*
X37718204Y-29883107D01*
X37611181Y-29877354D01*
X37504543Y-29880018D01*
G37*
X37504543Y-29880018D02*
X37415205Y-29891677D01*
X37382264Y-29901076D01*
X37340086Y-29932718D01*
X37283008Y-29995765D01*
X37221939Y-30077867D01*
X37209161Y-30097092D01*
X37096700Y-30270051D01*
X37083902Y-30110016D01*
X37079937Y-30079566D01*
X36950773Y-30079566D01*
X36947299Y-30081220D01*
X36924119Y-30063338D01*
X36918900Y-30055820D01*
X36912428Y-30032073D01*
X36915902Y-30030420D01*
X36939082Y-30048301D01*
X36944300Y-30055820D01*
X36950773Y-30079566D01*
X37079937Y-30079566D01*
X37070517Y-30007232D01*
X37043862Y-29939905D01*
X36994701Y-29900770D01*
X36913794Y-29882563D01*
X36791904Y-29878021D01*
X36788860Y-29878020D01*
X36676314Y-29882075D01*
X36604368Y-29895394D01*
X36564808Y-29918241D01*
X36554330Y-29933458D01*
X36545918Y-29959242D01*
X36539406Y-30000496D01*
X36534627Y-30062120D01*
X36531412Y-30149016D01*
X36529596Y-30266087D01*
X36529010Y-30418232D01*
X36529488Y-30610355D01*
X36530862Y-30847357D01*
X36531243Y-30902491D01*
X36537900Y-31846520D01*
X36831677Y-31853635D01*
X37125454Y-31860751D01*
X37376100Y-31496605D01*
X37383881Y-31645284D01*
X37392524Y-31731606D01*
X37406720Y-31799307D01*
X37418741Y-31826591D01*
X37457882Y-31843500D01*
X37532179Y-31854517D01*
X37626325Y-31859571D01*
X37725012Y-31858594D01*
X37812930Y-31851516D01*
X37874772Y-31838267D01*
X37891720Y-31828740D01*
X37900326Y-31805684D01*
X37907330Y-31753106D01*
X37912842Y-31667562D01*
X37916974Y-31545607D01*
X37919835Y-31383797D01*
X37920400Y-31315584D01*
X37813414Y-31315584D01*
X37810444Y-31350090D01*
X37794713Y-31398690D01*
X37771068Y-31445648D01*
X37749199Y-31471870D01*
X37702862Y-31501274D01*
X37688172Y-31491754D01*
X37705732Y-31444593D01*
X37722414Y-31414638D01*
X37761313Y-31354622D01*
X37793021Y-31315584D01*
X37798775Y-31310910D01*
X37813414Y-31315584D01*
X37920400Y-31315584D01*
X37921262Y-31211520D01*
X37871400Y-31211520D01*
X37858700Y-31224220D01*
X37846000Y-31211520D01*
X37858700Y-31198820D01*
X37871400Y-31211520D01*
X37921262Y-31211520D01*
X37921535Y-31178688D01*
X37922186Y-30926834D01*
X37922200Y-30877680D01*
X37922200Y-30817826D01*
X37803811Y-30817826D01*
X37771027Y-31016186D01*
X37698141Y-31208645D01*
X37588882Y-31383328D01*
X37534984Y-31446470D01*
X37485152Y-31490421D01*
X37450195Y-31503935D01*
X37439600Y-31488697D01*
X37451051Y-31460638D01*
X37481161Y-31400949D01*
X37523568Y-31322209D01*
X37526313Y-31317247D01*
X37629307Y-31092674D01*
X37683080Y-30877637D01*
X37685558Y-30764235D01*
X37551883Y-30764235D01*
X37533251Y-30963511D01*
X37468789Y-31156471D01*
X37425189Y-31239341D01*
X37367022Y-31331054D01*
X37302201Y-31421275D01*
X37238641Y-31499668D01*
X37184255Y-31555898D01*
X37146957Y-31579631D01*
X37144632Y-31579820D01*
X37119939Y-31574904D01*
X37123903Y-31551917D01*
X37149802Y-31509970D01*
X37263660Y-31328695D01*
X37345736Y-31173708D01*
X37399641Y-31034856D01*
X37428988Y-30901989D01*
X37434435Y-30813136D01*
X37293904Y-30813136D01*
X37260892Y-31021921D01*
X37191048Y-31199332D01*
X37134555Y-31300081D01*
X37070350Y-31400085D01*
X37005619Y-31489715D01*
X36947552Y-31559341D01*
X36903337Y-31599332D01*
X36888079Y-31605220D01*
X36857831Y-31597739D01*
X36855400Y-31593204D01*
X36867843Y-31567592D01*
X36901036Y-31509629D01*
X36948777Y-31430023D01*
X36969425Y-31396354D01*
X37091592Y-31164184D01*
X37164414Y-30943611D01*
X37175459Y-30845374D01*
X37038442Y-30845374D01*
X36995888Y-31052211D01*
X36905270Y-31263470D01*
X36767482Y-31476484D01*
X36741578Y-31509970D01*
X36663838Y-31601518D01*
X36610570Y-31648630D01*
X36581713Y-31651349D01*
X36576000Y-31627595D01*
X36588836Y-31595255D01*
X36623441Y-31530785D01*
X36673967Y-31444689D01*
X36713932Y-31379945D01*
X36810423Y-31215910D01*
X36875701Y-31075967D01*
X36913731Y-30947561D01*
X36928478Y-30818135D01*
X36928150Y-30801403D01*
X36792368Y-30801403D01*
X36761512Y-30992268D01*
X36684751Y-31197187D01*
X36672255Y-31223280D01*
X36630450Y-31307418D01*
X36605498Y-31350618D01*
X36592148Y-31357679D01*
X36585146Y-31333400D01*
X36581819Y-31305897D01*
X36585258Y-31236500D01*
X36603648Y-31143448D01*
X36625126Y-31070846D01*
X36668975Y-30874370D01*
X36671155Y-30670359D01*
X36631617Y-30476356D01*
X36626800Y-30462220D01*
X36599994Y-30373536D01*
X36582855Y-30292298D01*
X36576450Y-30228912D01*
X36581847Y-30193785D01*
X36599595Y-30196790D01*
X36638360Y-30253049D01*
X36682909Y-30342315D01*
X36726401Y-30448390D01*
X36761994Y-30555075D01*
X36778186Y-30619661D01*
X36792368Y-30801403D01*
X36928150Y-30801403D01*
X36926306Y-30707415D01*
X36900122Y-30533847D01*
X36841474Y-30364473D01*
X36745607Y-30187072D01*
X36692698Y-30106643D01*
X36641044Y-30024823D01*
X36621578Y-29974814D01*
X36630312Y-29952049D01*
X36666469Y-29957170D01*
X36716120Y-30001350D01*
X36774442Y-30076265D01*
X36836614Y-30173589D01*
X36897814Y-30284999D01*
X36953222Y-30402169D01*
X36998014Y-30516775D01*
X37027370Y-30620493D01*
X37032035Y-30645621D01*
X37038442Y-30845374D01*
X37175459Y-30845374D01*
X37187940Y-30734370D01*
X37162223Y-30536197D01*
X37145539Y-30480694D01*
X37121953Y-30390455D01*
X37125169Y-30331064D01*
X37131265Y-30317420D01*
X37148877Y-30296811D01*
X37167648Y-30307750D01*
X37194404Y-30356745D01*
X37211147Y-30393573D01*
X37277366Y-30601943D01*
X37293904Y-30813136D01*
X37434435Y-30813136D01*
X37437389Y-30764955D01*
X37435687Y-30706560D01*
X37425160Y-30592494D01*
X37402375Y-30495344D01*
X37360755Y-30391244D01*
X37332772Y-30333039D01*
X37281790Y-30221180D01*
X37260124Y-30149609D01*
X37264915Y-30119320D01*
X37292582Y-30113060D01*
X37328539Y-30144666D01*
X37375348Y-30217452D01*
X37435572Y-30334733D01*
X37442347Y-30348859D01*
X37521629Y-30560784D01*
X37551883Y-30764235D01*
X37685558Y-30764235D01*
X37687637Y-30669123D01*
X37642984Y-30464117D01*
X37549125Y-30259607D01*
X37528091Y-30224373D01*
X37475570Y-30139601D01*
X37425534Y-30059453D01*
X37403991Y-30025249D01*
X37373673Y-29974968D01*
X37370913Y-29955908D01*
X37395553Y-29956719D01*
X37403051Y-29958131D01*
X37459430Y-29990267D01*
X37525361Y-30060955D01*
X37595074Y-30160310D01*
X37662795Y-30278449D01*
X37722753Y-30405489D01*
X37769177Y-30531548D01*
X37792765Y-30625443D01*
X37803811Y-30817826D01*
X37922200Y-30817826D01*
X37922200Y-30275408D01*
X37871400Y-30275408D01*
X37869937Y-30314245D01*
X37862038Y-30326871D01*
X37842442Y-30308870D01*
X37805888Y-30255826D01*
X37757493Y-30179793D01*
X37705821Y-30089749D01*
X37686894Y-30033778D01*
X37699796Y-30007910D01*
X37717124Y-30005020D01*
X37747708Y-30026170D01*
X37787345Y-30079199D01*
X37827114Y-30148471D01*
X37858093Y-30218348D01*
X37871362Y-30273197D01*
X37871400Y-30275408D01*
X37922200Y-30275408D01*
X37922200Y-29957100D01*
X37865749Y-29917560D01*
X37808698Y-29896701D01*
X37718204Y-29883107D01*
X37611181Y-29877354D01*
X37504543Y-29880018D01*
G36*
X28686215Y-29808365D02*
G01*
X28483023Y-29847835D01*
X28305780Y-29929912D01*
X28157422Y-30051914D01*
X28040885Y-30211159D01*
X27959105Y-30404964D01*
X27936422Y-30493243D01*
X27919440Y-30632013D01*
X27918552Y-30797128D01*
X27932312Y-30968655D01*
X27959275Y-31126663D01*
X27989990Y-31231558D01*
X28048112Y-31359576D01*
X28123103Y-31489674D01*
X28205940Y-31608609D01*
X28287599Y-31703138D01*
X28343887Y-31750891D01*
X28490369Y-31821587D01*
X28663027Y-31860788D01*
X28846073Y-31865630D01*
X28924854Y-31856300D01*
X29119643Y-31800486D01*
X29286167Y-31703645D01*
X29423019Y-31567871D01*
X29528793Y-31395256D01*
X29602084Y-31187891D01*
X29630258Y-31016262D01*
X28879800Y-31016262D01*
X28871267Y-31119427D01*
X28848735Y-31200989D01*
X28816806Y-31254321D01*
X28780080Y-31272798D01*
X28743161Y-31249793D01*
X28730967Y-31230570D01*
X28716718Y-31180102D01*
X28705177Y-31097804D01*
X28698141Y-31002640D01*
X28697407Y-30913571D01*
X28698723Y-30890387D01*
X28722996Y-30845278D01*
X28775285Y-30829328D01*
X28830841Y-30844204D01*
X28859873Y-30869923D01*
X28874862Y-30916233D01*
X28879705Y-30996841D01*
X28879800Y-31016262D01*
X29630258Y-31016262D01*
X29641486Y-30947870D01*
X29648273Y-30779720D01*
X29630934Y-30575838D01*
X29387832Y-30575838D01*
X29378750Y-30584919D01*
X29353618Y-30566814D01*
X29318113Y-30523098D01*
X29277415Y-30452985D01*
X29260455Y-30417422D01*
X29218518Y-30334816D01*
X29192516Y-30290211D01*
X29018407Y-30290211D01*
X29012629Y-30304705D01*
X28983903Y-30286292D01*
X28983211Y-30285595D01*
X28255612Y-30285595D01*
X28252641Y-30306777D01*
X28235674Y-30309820D01*
X28196694Y-30290379D01*
X28160144Y-30249231D01*
X28135092Y-30192205D01*
X28149731Y-30161546D01*
X28172182Y-30157420D01*
X28196553Y-30177681D01*
X28228662Y-30227114D01*
X28232100Y-30233620D01*
X28255612Y-30285595D01*
X28983211Y-30285595D01*
X28936445Y-30238496D01*
X28880999Y-30172602D01*
X28435011Y-30172602D01*
X28433800Y-30209974D01*
X28407658Y-30212202D01*
X28361986Y-30172702D01*
X28356813Y-30166523D01*
X28317194Y-30110329D01*
X28297092Y-30066702D01*
X28296514Y-30062170D01*
X28308898Y-30032052D01*
X28341290Y-30037229D01*
X28382295Y-30073065D01*
X28405891Y-30106672D01*
X28435011Y-30172602D01*
X28880999Y-30172602D01*
X28874467Y-30164840D01*
X28843824Y-30124532D01*
X28653554Y-30124532D01*
X28652606Y-30156940D01*
X28626681Y-30153681D01*
X28581891Y-30114218D01*
X28542155Y-30064155D01*
X28504788Y-30004124D01*
X28487393Y-29960700D01*
X28488112Y-29950965D01*
X28518305Y-29938600D01*
X28561535Y-29968967D01*
X28612085Y-30037586D01*
X28623410Y-30056996D01*
X28653554Y-30124532D01*
X28843824Y-30124532D01*
X28815968Y-30087891D01*
X28742717Y-29985288D01*
X28698413Y-29916397D01*
X28680202Y-29875321D01*
X28685225Y-29856159D01*
X28702053Y-29852620D01*
X28727984Y-29871996D01*
X28773722Y-29922920D01*
X28831021Y-29994586D01*
X28891641Y-30076189D01*
X28947336Y-30156922D01*
X28989863Y-30225980D01*
X28997025Y-30239287D01*
X29018407Y-30290211D01*
X29192516Y-30290211D01*
X29160336Y-30235008D01*
X29108154Y-30154077D01*
X29053311Y-30068007D01*
X29032021Y-30019754D01*
X29044252Y-30009437D01*
X29089971Y-30037177D01*
X29131032Y-30070088D01*
X29186424Y-30133106D01*
X29248085Y-30228307D01*
X29307160Y-30339379D01*
X29354793Y-30450009D01*
X29378360Y-30525720D01*
X29387832Y-30575838D01*
X29630934Y-30575838D01*
X29627832Y-30539368D01*
X29569447Y-30328436D01*
X29542845Y-30277682D01*
X29478418Y-30277682D01*
X29471003Y-30283963D01*
X29447959Y-30264020D01*
X29407623Y-30212542D01*
X29365300Y-30150613D01*
X29320349Y-30080228D01*
X29302207Y-30047382D01*
X29309709Y-30047210D01*
X29341689Y-30074849D01*
X29348663Y-30081220D01*
X29396471Y-30132682D01*
X29439141Y-30191045D01*
X29469011Y-30243612D01*
X29478418Y-30277682D01*
X29542845Y-30277682D01*
X29475652Y-30149486D01*
X29348982Y-30005075D01*
X29191974Y-29897764D01*
X29007162Y-29830113D01*
X28797082Y-29804681D01*
X28686215Y-29808365D01*
G37*
X28686215Y-29808365D02*
X28483023Y-29847835D01*
X28305780Y-29929912D01*
X28157422Y-30051914D01*
X28040885Y-30211159D01*
X27959105Y-30404964D01*
X27936422Y-30493243D01*
X27919440Y-30632013D01*
X27918552Y-30797128D01*
X27932312Y-30968655D01*
X27959275Y-31126663D01*
X27989990Y-31231558D01*
X28048112Y-31359576D01*
X28123103Y-31489674D01*
X28205940Y-31608609D01*
X28287599Y-31703138D01*
X28343887Y-31750891D01*
X28490369Y-31821587D01*
X28663027Y-31860788D01*
X28846073Y-31865630D01*
X28924854Y-31856300D01*
X29119643Y-31800486D01*
X29286167Y-31703645D01*
X29423019Y-31567871D01*
X29528793Y-31395256D01*
X29602084Y-31187891D01*
X29630258Y-31016262D01*
X28879800Y-31016262D01*
X28871267Y-31119427D01*
X28848735Y-31200989D01*
X28816806Y-31254321D01*
X28780080Y-31272798D01*
X28743161Y-31249793D01*
X28730967Y-31230570D01*
X28716718Y-31180102D01*
X28705177Y-31097804D01*
X28698141Y-31002640D01*
X28697407Y-30913571D01*
X28698723Y-30890387D01*
X28722996Y-30845278D01*
X28775285Y-30829328D01*
X28830841Y-30844204D01*
X28859873Y-30869923D01*
X28874862Y-30916233D01*
X28879705Y-30996841D01*
X28879800Y-31016262D01*
X29630258Y-31016262D01*
X29641486Y-30947870D01*
X29648273Y-30779720D01*
X29630934Y-30575838D01*
X29387832Y-30575838D01*
X29378750Y-30584919D01*
X29353618Y-30566814D01*
X29318113Y-30523098D01*
X29277415Y-30452985D01*
X29260455Y-30417422D01*
X29218518Y-30334816D01*
X29192516Y-30290211D01*
X29018407Y-30290211D01*
X29012629Y-30304705D01*
X28983903Y-30286292D01*
X28983211Y-30285595D01*
X28255612Y-30285595D01*
X28252641Y-30306777D01*
X28235674Y-30309820D01*
X28196694Y-30290379D01*
X28160144Y-30249231D01*
X28135092Y-30192205D01*
X28149731Y-30161546D01*
X28172182Y-30157420D01*
X28196553Y-30177681D01*
X28228662Y-30227114D01*
X28232100Y-30233620D01*
X28255612Y-30285595D01*
X28983211Y-30285595D01*
X28936445Y-30238496D01*
X28880999Y-30172602D01*
X28435011Y-30172602D01*
X28433800Y-30209974D01*
X28407658Y-30212202D01*
X28361986Y-30172702D01*
X28356813Y-30166523D01*
X28317194Y-30110329D01*
X28297092Y-30066702D01*
X28296514Y-30062170D01*
X28308898Y-30032052D01*
X28341290Y-30037229D01*
X28382295Y-30073065D01*
X28405891Y-30106672D01*
X28435011Y-30172602D01*
X28880999Y-30172602D01*
X28874467Y-30164840D01*
X28843824Y-30124532D01*
X28653554Y-30124532D01*
X28652606Y-30156940D01*
X28626681Y-30153681D01*
X28581891Y-30114218D01*
X28542155Y-30064155D01*
X28504788Y-30004124D01*
X28487393Y-29960700D01*
X28488112Y-29950965D01*
X28518305Y-29938600D01*
X28561535Y-29968967D01*
X28612085Y-30037586D01*
X28623410Y-30056996D01*
X28653554Y-30124532D01*
X28843824Y-30124532D01*
X28815968Y-30087891D01*
X28742717Y-29985288D01*
X28698413Y-29916397D01*
X28680202Y-29875321D01*
X28685225Y-29856159D01*
X28702053Y-29852620D01*
X28727984Y-29871996D01*
X28773722Y-29922920D01*
X28831021Y-29994586D01*
X28891641Y-30076189D01*
X28947336Y-30156922D01*
X28989863Y-30225980D01*
X28997025Y-30239287D01*
X29018407Y-30290211D01*
X29192516Y-30290211D01*
X29160336Y-30235008D01*
X29108154Y-30154077D01*
X29053311Y-30068007D01*
X29032021Y-30019754D01*
X29044252Y-30009437D01*
X29089971Y-30037177D01*
X29131032Y-30070088D01*
X29186424Y-30133106D01*
X29248085Y-30228307D01*
X29307160Y-30339379D01*
X29354793Y-30450009D01*
X29378360Y-30525720D01*
X29387832Y-30575838D01*
X29630934Y-30575838D01*
X29627832Y-30539368D01*
X29569447Y-30328436D01*
X29542845Y-30277682D01*
X29478418Y-30277682D01*
X29471003Y-30283963D01*
X29447959Y-30264020D01*
X29407623Y-30212542D01*
X29365300Y-30150613D01*
X29320349Y-30080228D01*
X29302207Y-30047382D01*
X29309709Y-30047210D01*
X29341689Y-30074849D01*
X29348663Y-30081220D01*
X29396471Y-30132682D01*
X29439141Y-30191045D01*
X29469011Y-30243612D01*
X29478418Y-30277682D01*
X29542845Y-30277682D01*
X29475652Y-30149486D01*
X29348982Y-30005075D01*
X29191974Y-29897764D01*
X29007162Y-29830113D01*
X28797082Y-29804681D01*
X28686215Y-29808365D01*
G36*
X33536084Y-29892287D02*
G01*
X33422234Y-29897556D01*
X33333344Y-29905543D01*
X33280227Y-29916224D01*
X33271643Y-29921012D01*
X33259936Y-29951782D01*
X33239769Y-30025574D01*
X33212601Y-30135588D01*
X33179891Y-30275024D01*
X33143099Y-30437083D01*
X33103682Y-30614965D01*
X33063102Y-30801868D01*
X33022815Y-30990994D01*
X32984282Y-31175543D01*
X32948962Y-31348714D01*
X32918314Y-31503708D01*
X32893796Y-31633724D01*
X32876868Y-31731963D01*
X32868989Y-31791625D01*
X32868607Y-31799352D01*
X32884151Y-31870319D01*
X32933638Y-31903597D01*
X32990328Y-31904704D01*
X33032896Y-31901727D01*
X33112975Y-31898039D01*
X33217293Y-31894206D01*
X33286700Y-31892052D01*
X33430206Y-31886855D01*
X33530767Y-31879679D01*
X33596238Y-31868628D01*
X33634475Y-31851805D01*
X33653332Y-31827314D01*
X33659589Y-31802028D01*
X33685733Y-31757482D01*
X33734718Y-31742582D01*
X33787553Y-31758151D01*
X33820851Y-31795045D01*
X33833804Y-31814632D01*
X33854834Y-31828510D01*
X33891894Y-31837658D01*
X33952936Y-31843051D01*
X34045914Y-31845665D01*
X34178781Y-31846479D01*
X34239951Y-31846520D01*
X34632900Y-31846520D01*
X34639985Y-31783020D01*
X34493200Y-31783020D01*
X34473872Y-31807681D01*
X34467800Y-31808420D01*
X34443139Y-31789091D01*
X34442400Y-31783020D01*
X34461729Y-31758358D01*
X34467800Y-31757620D01*
X34492462Y-31776948D01*
X34493200Y-31783020D01*
X34639985Y-31783020D01*
X34635165Y-31744003D01*
X34618339Y-31663558D01*
X34615722Y-31652404D01*
X34569400Y-31652404D01*
X34548391Y-31706037D01*
X34486937Y-31730113D01*
X34485957Y-31730214D01*
X34480274Y-31713511D01*
X34492443Y-31682834D01*
X34528507Y-31631028D01*
X34556589Y-31618007D01*
X34569265Y-31646706D01*
X34569400Y-31652404D01*
X34615722Y-31652404D01*
X34591325Y-31548442D01*
X34555946Y-31405413D01*
X34548156Y-31374903D01*
X34497536Y-31374903D01*
X34494082Y-31424253D01*
X34464873Y-31495029D01*
X34419202Y-31572852D01*
X34366362Y-31643344D01*
X34315646Y-31692125D01*
X34283650Y-31705851D01*
X34245928Y-31698720D01*
X34239200Y-31689993D01*
X34252138Y-31659785D01*
X34285267Y-31601334D01*
X34330066Y-31528306D01*
X34378012Y-31454364D01*
X34420583Y-31393171D01*
X34439528Y-31368816D01*
X34470051Y-31337891D01*
X34486970Y-31348769D01*
X34497536Y-31374903D01*
X34548156Y-31374903D01*
X34514021Y-31241231D01*
X34490415Y-31150864D01*
X34407380Y-31150864D01*
X34376004Y-31251258D01*
X34309077Y-31367791D01*
X34203638Y-31506958D01*
X34201155Y-31509970D01*
X34130565Y-31588804D01*
X34074860Y-31638816D01*
X34038581Y-31658328D01*
X34026268Y-31645661D01*
X34042460Y-31599134D01*
X34063792Y-31560770D01*
X34112026Y-31482907D01*
X34158642Y-31411073D01*
X34166937Y-31398838D01*
X34200132Y-31343557D01*
X34245527Y-31259098D01*
X34294057Y-31162415D01*
X34300587Y-31148865D01*
X34388427Y-30965574D01*
X34406163Y-31060115D01*
X34407380Y-31150864D01*
X34490415Y-31150864D01*
X34467371Y-31062653D01*
X34417816Y-30876438D01*
X34409305Y-30844992D01*
X34245843Y-30844992D01*
X34210429Y-31045421D01*
X34190240Y-31104221D01*
X34152071Y-31185529D01*
X34097124Y-31281050D01*
X34032360Y-31381035D01*
X33964739Y-31475734D01*
X33901222Y-31555398D01*
X33848769Y-31610276D01*
X33814432Y-31630620D01*
X33792104Y-31615420D01*
X33796994Y-31598870D01*
X33818052Y-31563449D01*
X33858194Y-31497237D01*
X33909857Y-31412693D01*
X33926502Y-31385569D01*
X34044403Y-31162186D01*
X34114315Y-30950564D01*
X34136166Y-30745590D01*
X34132411Y-30716525D01*
X33988298Y-30716525D01*
X33979938Y-30929228D01*
X33921294Y-31137711D01*
X33909276Y-31166012D01*
X33864144Y-31253200D01*
X33804570Y-31348286D01*
X33738323Y-31441103D01*
X33673170Y-31521485D01*
X33616880Y-31579264D01*
X33577223Y-31604273D01*
X33574171Y-31604587D01*
X33560274Y-31594717D01*
X33568662Y-31560644D01*
X33601740Y-31496747D01*
X33661914Y-31397406D01*
X33664896Y-31392651D01*
X33766046Y-31217274D01*
X33833165Y-31063418D01*
X33870087Y-30918737D01*
X33875246Y-30846490D01*
X33736674Y-30846490D01*
X33694881Y-31054849D01*
X33605092Y-31261110D01*
X33479852Y-31447231D01*
X33414874Y-31520445D01*
X33367791Y-31558057D01*
X33343154Y-31560218D01*
X33345511Y-31527078D01*
X33379413Y-31458788D01*
X33388322Y-31444204D01*
X33434716Y-31364657D01*
X33489748Y-31262834D01*
X33535211Y-31173420D01*
X33574112Y-31089211D01*
X33598146Y-31018753D01*
X33610857Y-30944326D01*
X33615788Y-30848212D01*
X33615791Y-30847783D01*
X33481821Y-30847783D01*
X33444723Y-31051732D01*
X33427262Y-31102929D01*
X33386332Y-31193285D01*
X33331024Y-31291405D01*
X33268651Y-31386919D01*
X33206524Y-31469456D01*
X33151952Y-31528646D01*
X33112248Y-31554120D01*
X33108953Y-31554420D01*
X33075035Y-31548314D01*
X33070800Y-31543186D01*
X33083331Y-31517832D01*
X33116479Y-31460993D01*
X33163575Y-31384036D01*
X33173156Y-31368706D01*
X33289363Y-31149830D01*
X33356621Y-30940828D01*
X33370842Y-30787518D01*
X33232027Y-30787518D01*
X33225659Y-30898945D01*
X33212133Y-30996342D01*
X33203036Y-31033720D01*
X33178966Y-31098111D01*
X33142874Y-31176756D01*
X33101195Y-31257814D01*
X33060367Y-31329444D01*
X33026824Y-31379805D01*
X33007005Y-31397056D01*
X33005902Y-31396387D01*
X33007052Y-31368926D01*
X33018386Y-31303048D01*
X33037858Y-31209641D01*
X33055244Y-31133670D01*
X33085880Y-30997533D01*
X33116083Y-30852126D01*
X33140812Y-30722071D01*
X33147679Y-30682078D01*
X33165247Y-30584223D01*
X33179479Y-30530588D01*
X33192806Y-30514921D01*
X33206936Y-30529678D01*
X33222790Y-30586822D01*
X33231112Y-30678122D01*
X33232027Y-30787518D01*
X33370842Y-30787518D01*
X33375304Y-30739420D01*
X33345788Y-30543328D01*
X33321343Y-30467935D01*
X33289187Y-30369193D01*
X33264790Y-30271549D01*
X33256433Y-30220920D01*
X33245781Y-30119320D01*
X33321119Y-30236244D01*
X33418877Y-30430718D01*
X33472825Y-30637671D01*
X33481821Y-30847783D01*
X33615791Y-30847783D01*
X33616498Y-30767020D01*
X33610490Y-30617447D01*
X33588523Y-30489341D01*
X33545513Y-30367861D01*
X33476372Y-30238163D01*
X33389705Y-30105199D01*
X33337334Y-30021761D01*
X33319167Y-29972874D01*
X33327938Y-29957407D01*
X33369961Y-29968431D01*
X33424558Y-30018417D01*
X33486634Y-30098699D01*
X33551095Y-30200612D01*
X33612845Y-30315489D01*
X33666789Y-30434665D01*
X33707834Y-30549472D01*
X33729239Y-30640020D01*
X33736674Y-30846490D01*
X33875246Y-30846490D01*
X33880646Y-30770888D01*
X33878208Y-30705902D01*
X33852768Y-30536471D01*
X33795772Y-30369557D01*
X33702580Y-30193153D01*
X33645808Y-30104815D01*
X33593524Y-30015935D01*
X33576094Y-29962098D01*
X33589368Y-29945799D01*
X33629195Y-29969534D01*
X33691426Y-30035799D01*
X33713613Y-30064042D01*
X33854941Y-30282838D01*
X33946567Y-30500697D01*
X33988298Y-30716525D01*
X34132411Y-30716525D01*
X34109882Y-30542150D01*
X34035391Y-30335130D01*
X33912620Y-30119418D01*
X33908331Y-30112970D01*
X33874881Y-30059911D01*
X33869630Y-30036406D01*
X33891397Y-30030564D01*
X33900156Y-30030469D01*
X33944266Y-30052764D01*
X34000464Y-30113702D01*
X34062699Y-30204476D01*
X34124918Y-30316281D01*
X34180000Y-30437655D01*
X34235638Y-30638406D01*
X34245843Y-30844992D01*
X34409305Y-30844992D01*
X34367176Y-30689345D01*
X34317272Y-30508131D01*
X34269924Y-30339556D01*
X34226952Y-30190377D01*
X34190178Y-30067354D01*
X34182444Y-30043120D01*
X34137600Y-30043120D01*
X34124900Y-30055820D01*
X34112200Y-30043120D01*
X34124900Y-30030420D01*
X34137600Y-30043120D01*
X34182444Y-30043120D01*
X34161420Y-29977244D01*
X34142501Y-29926806D01*
X34137939Y-29919091D01*
X34101359Y-29907549D01*
X34024872Y-29898869D01*
X33919290Y-29893027D01*
X33795424Y-29889999D01*
X33664085Y-29889760D01*
X33536084Y-29892287D01*
G37*
X33536084Y-29892287D02*
X33422234Y-29897556D01*
X33333344Y-29905543D01*
X33280227Y-29916224D01*
X33271643Y-29921012D01*
X33259936Y-29951782D01*
X33239769Y-30025574D01*
X33212601Y-30135588D01*
X33179891Y-30275024D01*
X33143099Y-30437083D01*
X33103682Y-30614965D01*
X33063102Y-30801868D01*
X33022815Y-30990994D01*
X32984282Y-31175543D01*
X32948962Y-31348714D01*
X32918314Y-31503708D01*
X32893796Y-31633724D01*
X32876868Y-31731963D01*
X32868989Y-31791625D01*
X32868607Y-31799352D01*
X32884151Y-31870319D01*
X32933638Y-31903597D01*
X32990328Y-31904704D01*
X33032896Y-31901727D01*
X33112975Y-31898039D01*
X33217293Y-31894206D01*
X33286700Y-31892052D01*
X33430206Y-31886855D01*
X33530767Y-31879679D01*
X33596238Y-31868628D01*
X33634475Y-31851805D01*
X33653332Y-31827314D01*
X33659589Y-31802028D01*
X33685733Y-31757482D01*
X33734718Y-31742582D01*
X33787553Y-31758151D01*
X33820851Y-31795045D01*
X33833804Y-31814632D01*
X33854834Y-31828510D01*
X33891894Y-31837658D01*
X33952936Y-31843051D01*
X34045914Y-31845665D01*
X34178781Y-31846479D01*
X34239951Y-31846520D01*
X34632900Y-31846520D01*
X34639985Y-31783020D01*
X34493200Y-31783020D01*
X34473872Y-31807681D01*
X34467800Y-31808420D01*
X34443139Y-31789091D01*
X34442400Y-31783020D01*
X34461729Y-31758358D01*
X34467800Y-31757620D01*
X34492462Y-31776948D01*
X34493200Y-31783020D01*
X34639985Y-31783020D01*
X34635165Y-31744003D01*
X34618339Y-31663558D01*
X34615722Y-31652404D01*
X34569400Y-31652404D01*
X34548391Y-31706037D01*
X34486937Y-31730113D01*
X34485957Y-31730214D01*
X34480274Y-31713511D01*
X34492443Y-31682834D01*
X34528507Y-31631028D01*
X34556589Y-31618007D01*
X34569265Y-31646706D01*
X34569400Y-31652404D01*
X34615722Y-31652404D01*
X34591325Y-31548442D01*
X34555946Y-31405413D01*
X34548156Y-31374903D01*
X34497536Y-31374903D01*
X34494082Y-31424253D01*
X34464873Y-31495029D01*
X34419202Y-31572852D01*
X34366362Y-31643344D01*
X34315646Y-31692125D01*
X34283650Y-31705851D01*
X34245928Y-31698720D01*
X34239200Y-31689993D01*
X34252138Y-31659785D01*
X34285267Y-31601334D01*
X34330066Y-31528306D01*
X34378012Y-31454364D01*
X34420583Y-31393171D01*
X34439528Y-31368816D01*
X34470051Y-31337891D01*
X34486970Y-31348769D01*
X34497536Y-31374903D01*
X34548156Y-31374903D01*
X34514021Y-31241231D01*
X34490415Y-31150864D01*
X34407380Y-31150864D01*
X34376004Y-31251258D01*
X34309077Y-31367791D01*
X34203638Y-31506958D01*
X34201155Y-31509970D01*
X34130565Y-31588804D01*
X34074860Y-31638816D01*
X34038581Y-31658328D01*
X34026268Y-31645661D01*
X34042460Y-31599134D01*
X34063792Y-31560770D01*
X34112026Y-31482907D01*
X34158642Y-31411073D01*
X34166937Y-31398838D01*
X34200132Y-31343557D01*
X34245527Y-31259098D01*
X34294057Y-31162415D01*
X34300587Y-31148865D01*
X34388427Y-30965574D01*
X34406163Y-31060115D01*
X34407380Y-31150864D01*
X34490415Y-31150864D01*
X34467371Y-31062653D01*
X34417816Y-30876438D01*
X34409305Y-30844992D01*
X34245843Y-30844992D01*
X34210429Y-31045421D01*
X34190240Y-31104221D01*
X34152071Y-31185529D01*
X34097124Y-31281050D01*
X34032360Y-31381035D01*
X33964739Y-31475734D01*
X33901222Y-31555398D01*
X33848769Y-31610276D01*
X33814432Y-31630620D01*
X33792104Y-31615420D01*
X33796994Y-31598870D01*
X33818052Y-31563449D01*
X33858194Y-31497237D01*
X33909857Y-31412693D01*
X33926502Y-31385569D01*
X34044403Y-31162186D01*
X34114315Y-30950564D01*
X34136166Y-30745590D01*
X34132411Y-30716525D01*
X33988298Y-30716525D01*
X33979938Y-30929228D01*
X33921294Y-31137711D01*
X33909276Y-31166012D01*
X33864144Y-31253200D01*
X33804570Y-31348286D01*
X33738323Y-31441103D01*
X33673170Y-31521485D01*
X33616880Y-31579264D01*
X33577223Y-31604273D01*
X33574171Y-31604587D01*
X33560274Y-31594717D01*
X33568662Y-31560644D01*
X33601740Y-31496747D01*
X33661914Y-31397406D01*
X33664896Y-31392651D01*
X33766046Y-31217274D01*
X33833165Y-31063418D01*
X33870087Y-30918737D01*
X33875246Y-30846490D01*
X33736674Y-30846490D01*
X33694881Y-31054849D01*
X33605092Y-31261110D01*
X33479852Y-31447231D01*
X33414874Y-31520445D01*
X33367791Y-31558057D01*
X33343154Y-31560218D01*
X33345511Y-31527078D01*
X33379413Y-31458788D01*
X33388322Y-31444204D01*
X33434716Y-31364657D01*
X33489748Y-31262834D01*
X33535211Y-31173420D01*
X33574112Y-31089211D01*
X33598146Y-31018753D01*
X33610857Y-30944326D01*
X33615788Y-30848212D01*
X33615791Y-30847783D01*
X33481821Y-30847783D01*
X33444723Y-31051732D01*
X33427262Y-31102929D01*
X33386332Y-31193285D01*
X33331024Y-31291405D01*
X33268651Y-31386919D01*
X33206524Y-31469456D01*
X33151952Y-31528646D01*
X33112248Y-31554120D01*
X33108953Y-31554420D01*
X33075035Y-31548314D01*
X33070800Y-31543186D01*
X33083331Y-31517832D01*
X33116479Y-31460993D01*
X33163575Y-31384036D01*
X33173156Y-31368706D01*
X33289363Y-31149830D01*
X33356621Y-30940828D01*
X33370842Y-30787518D01*
X33232027Y-30787518D01*
X33225659Y-30898945D01*
X33212133Y-30996342D01*
X33203036Y-31033720D01*
X33178966Y-31098111D01*
X33142874Y-31176756D01*
X33101195Y-31257814D01*
X33060367Y-31329444D01*
X33026824Y-31379805D01*
X33007005Y-31397056D01*
X33005902Y-31396387D01*
X33007052Y-31368926D01*
X33018386Y-31303048D01*
X33037858Y-31209641D01*
X33055244Y-31133670D01*
X33085880Y-30997533D01*
X33116083Y-30852126D01*
X33140812Y-30722071D01*
X33147679Y-30682078D01*
X33165247Y-30584223D01*
X33179479Y-30530588D01*
X33192806Y-30514921D01*
X33206936Y-30529678D01*
X33222790Y-30586822D01*
X33231112Y-30678122D01*
X33232027Y-30787518D01*
X33370842Y-30787518D01*
X33375304Y-30739420D01*
X33345788Y-30543328D01*
X33321343Y-30467935D01*
X33289187Y-30369193D01*
X33264790Y-30271549D01*
X33256433Y-30220920D01*
X33245781Y-30119320D01*
X33321119Y-30236244D01*
X33418877Y-30430718D01*
X33472825Y-30637671D01*
X33481821Y-30847783D01*
X33615791Y-30847783D01*
X33616498Y-30767020D01*
X33610490Y-30617447D01*
X33588523Y-30489341D01*
X33545513Y-30367861D01*
X33476372Y-30238163D01*
X33389705Y-30105199D01*
X33337334Y-30021761D01*
X33319167Y-29972874D01*
X33327938Y-29957407D01*
X33369961Y-29968431D01*
X33424558Y-30018417D01*
X33486634Y-30098699D01*
X33551095Y-30200612D01*
X33612845Y-30315489D01*
X33666789Y-30434665D01*
X33707834Y-30549472D01*
X33729239Y-30640020D01*
X33736674Y-30846490D01*
X33875246Y-30846490D01*
X33880646Y-30770888D01*
X33878208Y-30705902D01*
X33852768Y-30536471D01*
X33795772Y-30369557D01*
X33702580Y-30193153D01*
X33645808Y-30104815D01*
X33593524Y-30015935D01*
X33576094Y-29962098D01*
X33589368Y-29945799D01*
X33629195Y-29969534D01*
X33691426Y-30035799D01*
X33713613Y-30064042D01*
X33854941Y-30282838D01*
X33946567Y-30500697D01*
X33988298Y-30716525D01*
X34132411Y-30716525D01*
X34109882Y-30542150D01*
X34035391Y-30335130D01*
X33912620Y-30119418D01*
X33908331Y-30112970D01*
X33874881Y-30059911D01*
X33869630Y-30036406D01*
X33891397Y-30030564D01*
X33900156Y-30030469D01*
X33944266Y-30052764D01*
X34000464Y-30113702D01*
X34062699Y-30204476D01*
X34124918Y-30316281D01*
X34180000Y-30437655D01*
X34235638Y-30638406D01*
X34245843Y-30844992D01*
X34409305Y-30844992D01*
X34367176Y-30689345D01*
X34317272Y-30508131D01*
X34269924Y-30339556D01*
X34226952Y-30190377D01*
X34190178Y-30067354D01*
X34182444Y-30043120D01*
X34137600Y-30043120D01*
X34124900Y-30055820D01*
X34112200Y-30043120D01*
X34124900Y-30030420D01*
X34137600Y-30043120D01*
X34182444Y-30043120D01*
X34161420Y-29977244D01*
X34142501Y-29926806D01*
X34137939Y-29919091D01*
X34101359Y-29907549D01*
X34024872Y-29898869D01*
X33919290Y-29893027D01*
X33795424Y-29889999D01*
X33664085Y-29889760D01*
X33536084Y-29892287D01*
G36*
X38641484Y-29892287D02*
G01*
X38527634Y-29897556D01*
X38438744Y-29905543D01*
X38385627Y-29916224D01*
X38377043Y-29921012D01*
X38365336Y-29951782D01*
X38345169Y-30025574D01*
X38318001Y-30135588D01*
X38285291Y-30275024D01*
X38248499Y-30437083D01*
X38209082Y-30614965D01*
X38168502Y-30801868D01*
X38128215Y-30990994D01*
X38089682Y-31175543D01*
X38054362Y-31348714D01*
X38023714Y-31503708D01*
X37999196Y-31633724D01*
X37982268Y-31731963D01*
X37974389Y-31791625D01*
X37974007Y-31799352D01*
X37989551Y-31870319D01*
X38039038Y-31903597D01*
X38095728Y-31904704D01*
X38138296Y-31901727D01*
X38218375Y-31898039D01*
X38322693Y-31894206D01*
X38392100Y-31892052D01*
X38535606Y-31886855D01*
X38636167Y-31879679D01*
X38701638Y-31868628D01*
X38739875Y-31851805D01*
X38758732Y-31827314D01*
X38764989Y-31802028D01*
X38791133Y-31757482D01*
X38840118Y-31742582D01*
X38892953Y-31758151D01*
X38926251Y-31795045D01*
X38939204Y-31814632D01*
X38960234Y-31828510D01*
X38997294Y-31837658D01*
X39058336Y-31843051D01*
X39151314Y-31845665D01*
X39284181Y-31846479D01*
X39345351Y-31846520D01*
X39738300Y-31846520D01*
X39745385Y-31783020D01*
X39740565Y-31744003D01*
X39723739Y-31663558D01*
X39696725Y-31548442D01*
X39661346Y-31405413D01*
X39619421Y-31241231D01*
X39572771Y-31062653D01*
X39523216Y-30876438D01*
X39514191Y-30843091D01*
X39320657Y-30843091D01*
X39310892Y-30924262D01*
X39290687Y-30976131D01*
X39259992Y-30988651D01*
X39258921Y-30988318D01*
X39243587Y-30959425D01*
X39229394Y-30889134D01*
X39218071Y-30786842D01*
X39215554Y-30752294D01*
X39215003Y-30747579D01*
X39052500Y-30747579D01*
X39050298Y-30864135D01*
X39042773Y-30939018D01*
X39028547Y-30981201D01*
X39014400Y-30995751D01*
X38996379Y-31000174D01*
X38983638Y-30981810D01*
X38974355Y-30932863D01*
X38966709Y-30845541D01*
X38962210Y-30772575D01*
X38958559Y-30728647D01*
X38812653Y-30728647D01*
X38809304Y-30864963D01*
X38787669Y-30985342D01*
X38748604Y-31077549D01*
X38715002Y-31116007D01*
X38679216Y-31138733D01*
X38667125Y-31126740D01*
X38676439Y-31074659D01*
X38684635Y-31044905D01*
X38703512Y-30933618D01*
X38708541Y-30795368D01*
X38701379Y-30671728D01*
X38558860Y-30671728D01*
X38557243Y-30878661D01*
X38508602Y-31077484D01*
X38506525Y-31082930D01*
X38457732Y-31188317D01*
X38402315Y-31274906D01*
X38347885Y-31332529D01*
X38305690Y-31351220D01*
X38303544Y-31330397D01*
X38320745Y-31275284D01*
X38353692Y-31196909D01*
X38361685Y-31179770D01*
X38400707Y-31092626D01*
X38424704Y-31020581D01*
X38437177Y-30945616D01*
X38441627Y-30849709D01*
X38441873Y-30767020D01*
X38441705Y-30760381D01*
X38317343Y-30760381D01*
X38314674Y-30845088D01*
X38307156Y-30916348D01*
X38304120Y-30932120D01*
X38283495Y-31004731D01*
X38253146Y-31088175D01*
X38218106Y-31171491D01*
X38183405Y-31243719D01*
X38154075Y-31293898D01*
X38135147Y-31311067D01*
X38131913Y-31307256D01*
X38134159Y-31275152D01*
X38145687Y-31202871D01*
X38164800Y-31099838D01*
X38189806Y-30975475D01*
X38201797Y-30918499D01*
X38229856Y-30789211D01*
X38254772Y-30678710D01*
X38274443Y-30595997D01*
X38286766Y-30550070D01*
X38289312Y-30543841D01*
X38301146Y-30553956D01*
X38310089Y-30601977D01*
X38315651Y-30675064D01*
X38317343Y-30760381D01*
X38441705Y-30760381D01*
X38438547Y-30635962D01*
X38428212Y-30539444D01*
X38408372Y-30461403D01*
X38385581Y-30404964D01*
X38349394Y-30303094D01*
X38349257Y-30233210D01*
X38350333Y-30230097D01*
X38364946Y-30199742D01*
X38381617Y-30202514D01*
X38409874Y-30243245D01*
X38424464Y-30267701D01*
X38514314Y-30465227D01*
X38558860Y-30671728D01*
X38701379Y-30671728D01*
X38700231Y-30651922D01*
X38679089Y-30525048D01*
X38671891Y-30498580D01*
X38636301Y-30406274D01*
X38584450Y-30300802D01*
X38545311Y-30233620D01*
X38475629Y-30121732D01*
X38431833Y-30044811D01*
X38410665Y-29996212D01*
X38408870Y-29969293D01*
X38412761Y-29963193D01*
X38442881Y-29964706D01*
X38489463Y-30003789D01*
X38546774Y-30072314D01*
X38609083Y-30162154D01*
X38670661Y-30265181D01*
X38725775Y-30373269D01*
X38761072Y-30457144D01*
X38796861Y-30588629D01*
X38812653Y-30728647D01*
X38958559Y-30728647D01*
X38950355Y-30629964D01*
X38931245Y-30520464D01*
X38901303Y-30426519D01*
X38883023Y-30383947D01*
X38830180Y-30280684D01*
X38764654Y-30168321D01*
X38723705Y-30105199D01*
X38671037Y-30021047D01*
X38653171Y-29971957D01*
X38661635Y-29957508D01*
X38700212Y-29969641D01*
X38754671Y-30020134D01*
X38819089Y-30101462D01*
X38887546Y-30206101D01*
X38954120Y-30326527D01*
X38957831Y-30333902D01*
X39004441Y-30431145D01*
X39032611Y-30506998D01*
X39046932Y-30581523D01*
X39051996Y-30674785D01*
X39052500Y-30747579D01*
X39215003Y-30747579D01*
X39195305Y-30579273D01*
X39154901Y-30428623D01*
X39087596Y-30280454D01*
X39013123Y-30155428D01*
X38964720Y-30077667D01*
X38943426Y-30034172D01*
X38947563Y-30017350D01*
X38975456Y-30019610D01*
X38983563Y-30021638D01*
X39028875Y-30053065D01*
X39086406Y-30121145D01*
X39149161Y-30215500D01*
X39210151Y-30325755D01*
X39256255Y-30426339D01*
X39287779Y-30524242D01*
X39309052Y-30633034D01*
X39320028Y-30742666D01*
X39320657Y-30843091D01*
X39514191Y-30843091D01*
X39472576Y-30689345D01*
X39422672Y-30508131D01*
X39375324Y-30339556D01*
X39332352Y-30190377D01*
X39311112Y-30119320D01*
X39268400Y-30119320D01*
X39255700Y-30132020D01*
X39243000Y-30119320D01*
X39255700Y-30106620D01*
X39268400Y-30119320D01*
X39311112Y-30119320D01*
X39295578Y-30067354D01*
X39292854Y-30058818D01*
X39243000Y-30058818D01*
X39227351Y-30072589D01*
X39217600Y-30068520D01*
X39193149Y-30034872D01*
X39192200Y-30027421D01*
X39207850Y-30013650D01*
X39217600Y-30017720D01*
X39242052Y-30051367D01*
X39243000Y-30058818D01*
X39292854Y-30058818D01*
X39266820Y-29977244D01*
X39258184Y-29954220D01*
X38912800Y-29954220D01*
X38903507Y-29975127D01*
X38895867Y-29971153D01*
X38892827Y-29941009D01*
X38895867Y-29937286D01*
X38910967Y-29940773D01*
X38912800Y-29954220D01*
X39258184Y-29954220D01*
X39247901Y-29926806D01*
X39243339Y-29919091D01*
X39206759Y-29907549D01*
X39130272Y-29898869D01*
X39024690Y-29893027D01*
X38900824Y-29889999D01*
X38769485Y-29889760D01*
X38641484Y-29892287D01*
G37*
X38641484Y-29892287D02*
X38527634Y-29897556D01*
X38438744Y-29905543D01*
X38385627Y-29916224D01*
X38377043Y-29921012D01*
X38365336Y-29951782D01*
X38345169Y-30025574D01*
X38318001Y-30135588D01*
X38285291Y-30275024D01*
X38248499Y-30437083D01*
X38209082Y-30614965D01*
X38168502Y-30801868D01*
X38128215Y-30990994D01*
X38089682Y-31175543D01*
X38054362Y-31348714D01*
X38023714Y-31503708D01*
X37999196Y-31633724D01*
X37982268Y-31731963D01*
X37974389Y-31791625D01*
X37974007Y-31799352D01*
X37989551Y-31870319D01*
X38039038Y-31903597D01*
X38095728Y-31904704D01*
X38138296Y-31901727D01*
X38218375Y-31898039D01*
X38322693Y-31894206D01*
X38392100Y-31892052D01*
X38535606Y-31886855D01*
X38636167Y-31879679D01*
X38701638Y-31868628D01*
X38739875Y-31851805D01*
X38758732Y-31827314D01*
X38764989Y-31802028D01*
X38791133Y-31757482D01*
X38840118Y-31742582D01*
X38892953Y-31758151D01*
X38926251Y-31795045D01*
X38939204Y-31814632D01*
X38960234Y-31828510D01*
X38997294Y-31837658D01*
X39058336Y-31843051D01*
X39151314Y-31845665D01*
X39284181Y-31846479D01*
X39345351Y-31846520D01*
X39738300Y-31846520D01*
X39745385Y-31783020D01*
X39740565Y-31744003D01*
X39723739Y-31663558D01*
X39696725Y-31548442D01*
X39661346Y-31405413D01*
X39619421Y-31241231D01*
X39572771Y-31062653D01*
X39523216Y-30876438D01*
X39514191Y-30843091D01*
X39320657Y-30843091D01*
X39310892Y-30924262D01*
X39290687Y-30976131D01*
X39259992Y-30988651D01*
X39258921Y-30988318D01*
X39243587Y-30959425D01*
X39229394Y-30889134D01*
X39218071Y-30786842D01*
X39215554Y-30752294D01*
X39215003Y-30747579D01*
X39052500Y-30747579D01*
X39050298Y-30864135D01*
X39042773Y-30939018D01*
X39028547Y-30981201D01*
X39014400Y-30995751D01*
X38996379Y-31000174D01*
X38983638Y-30981810D01*
X38974355Y-30932863D01*
X38966709Y-30845541D01*
X38962210Y-30772575D01*
X38958559Y-30728647D01*
X38812653Y-30728647D01*
X38809304Y-30864963D01*
X38787669Y-30985342D01*
X38748604Y-31077549D01*
X38715002Y-31116007D01*
X38679216Y-31138733D01*
X38667125Y-31126740D01*
X38676439Y-31074659D01*
X38684635Y-31044905D01*
X38703512Y-30933618D01*
X38708541Y-30795368D01*
X38701379Y-30671728D01*
X38558860Y-30671728D01*
X38557243Y-30878661D01*
X38508602Y-31077484D01*
X38506525Y-31082930D01*
X38457732Y-31188317D01*
X38402315Y-31274906D01*
X38347885Y-31332529D01*
X38305690Y-31351220D01*
X38303544Y-31330397D01*
X38320745Y-31275284D01*
X38353692Y-31196909D01*
X38361685Y-31179770D01*
X38400707Y-31092626D01*
X38424704Y-31020581D01*
X38437177Y-30945616D01*
X38441627Y-30849709D01*
X38441873Y-30767020D01*
X38441705Y-30760381D01*
X38317343Y-30760381D01*
X38314674Y-30845088D01*
X38307156Y-30916348D01*
X38304120Y-30932120D01*
X38283495Y-31004731D01*
X38253146Y-31088175D01*
X38218106Y-31171491D01*
X38183405Y-31243719D01*
X38154075Y-31293898D01*
X38135147Y-31311067D01*
X38131913Y-31307256D01*
X38134159Y-31275152D01*
X38145687Y-31202871D01*
X38164800Y-31099838D01*
X38189806Y-30975475D01*
X38201797Y-30918499D01*
X38229856Y-30789211D01*
X38254772Y-30678710D01*
X38274443Y-30595997D01*
X38286766Y-30550070D01*
X38289312Y-30543841D01*
X38301146Y-30553956D01*
X38310089Y-30601977D01*
X38315651Y-30675064D01*
X38317343Y-30760381D01*
X38441705Y-30760381D01*
X38438547Y-30635962D01*
X38428212Y-30539444D01*
X38408372Y-30461403D01*
X38385581Y-30404964D01*
X38349394Y-30303094D01*
X38349257Y-30233210D01*
X38350333Y-30230097D01*
X38364946Y-30199742D01*
X38381617Y-30202514D01*
X38409874Y-30243245D01*
X38424464Y-30267701D01*
X38514314Y-30465227D01*
X38558860Y-30671728D01*
X38701379Y-30671728D01*
X38700231Y-30651922D01*
X38679089Y-30525048D01*
X38671891Y-30498580D01*
X38636301Y-30406274D01*
X38584450Y-30300802D01*
X38545311Y-30233620D01*
X38475629Y-30121732D01*
X38431833Y-30044811D01*
X38410665Y-29996212D01*
X38408870Y-29969293D01*
X38412761Y-29963193D01*
X38442881Y-29964706D01*
X38489463Y-30003789D01*
X38546774Y-30072314D01*
X38609083Y-30162154D01*
X38670661Y-30265181D01*
X38725775Y-30373269D01*
X38761072Y-30457144D01*
X38796861Y-30588629D01*
X38812653Y-30728647D01*
X38958559Y-30728647D01*
X38950355Y-30629964D01*
X38931245Y-30520464D01*
X38901303Y-30426519D01*
X38883023Y-30383947D01*
X38830180Y-30280684D01*
X38764654Y-30168321D01*
X38723705Y-30105199D01*
X38671037Y-30021047D01*
X38653171Y-29971957D01*
X38661635Y-29957508D01*
X38700212Y-29969641D01*
X38754671Y-30020134D01*
X38819089Y-30101462D01*
X38887546Y-30206101D01*
X38954120Y-30326527D01*
X38957831Y-30333902D01*
X39004441Y-30431145D01*
X39032611Y-30506998D01*
X39046932Y-30581523D01*
X39051996Y-30674785D01*
X39052500Y-30747579D01*
X39215003Y-30747579D01*
X39195305Y-30579273D01*
X39154901Y-30428623D01*
X39087596Y-30280454D01*
X39013123Y-30155428D01*
X38964720Y-30077667D01*
X38943426Y-30034172D01*
X38947563Y-30017350D01*
X38975456Y-30019610D01*
X38983563Y-30021638D01*
X39028875Y-30053065D01*
X39086406Y-30121145D01*
X39149161Y-30215500D01*
X39210151Y-30325755D01*
X39256255Y-30426339D01*
X39287779Y-30524242D01*
X39309052Y-30633034D01*
X39320028Y-30742666D01*
X39320657Y-30843091D01*
X39514191Y-30843091D01*
X39472576Y-30689345D01*
X39422672Y-30508131D01*
X39375324Y-30339556D01*
X39332352Y-30190377D01*
X39311112Y-30119320D01*
X39268400Y-30119320D01*
X39255700Y-30132020D01*
X39243000Y-30119320D01*
X39255700Y-30106620D01*
X39268400Y-30119320D01*
X39311112Y-30119320D01*
X39295578Y-30067354D01*
X39292854Y-30058818D01*
X39243000Y-30058818D01*
X39227351Y-30072589D01*
X39217600Y-30068520D01*
X39193149Y-30034872D01*
X39192200Y-30027421D01*
X39207850Y-30013650D01*
X39217600Y-30017720D01*
X39242052Y-30051367D01*
X39243000Y-30058818D01*
X39292854Y-30058818D01*
X39266820Y-29977244D01*
X39258184Y-29954220D01*
X38912800Y-29954220D01*
X38903507Y-29975127D01*
X38895867Y-29971153D01*
X38892827Y-29941009D01*
X38895867Y-29937286D01*
X38910967Y-29940773D01*
X38912800Y-29954220D01*
X39258184Y-29954220D01*
X39247901Y-29926806D01*
X39243339Y-29919091D01*
X39206759Y-29907549D01*
X39130272Y-29898869D01*
X39024690Y-29893027D01*
X38900824Y-29889999D01*
X38769485Y-29889760D01*
X38641484Y-29892287D01*
G36*
X41054697Y-29355063D02*
G01*
X40775982Y-29415403D01*
X40527468Y-29516368D01*
X40308868Y-29658064D01*
X40193247Y-29761374D01*
X40077402Y-29894293D01*
X40001037Y-30027493D01*
X39958475Y-30175319D01*
X39944038Y-30352114D01*
X39944014Y-30391034D01*
X39948723Y-30506527D01*
X39963935Y-30595878D01*
X39995262Y-30683506D01*
X40026599Y-30750447D01*
X40086899Y-30853230D01*
X40167789Y-30965816D01*
X40251976Y-31064163D01*
X40252993Y-31065218D01*
X40398700Y-31216090D01*
X40214550Y-31451191D01*
X40124706Y-31569862D01*
X40066765Y-31657579D01*
X40038019Y-31720570D01*
X40035755Y-31765063D01*
X40057264Y-31797284D01*
X40062150Y-31801273D01*
X40102107Y-31821388D01*
X40178248Y-31851661D01*
X40278036Y-31887878D01*
X40388931Y-31925823D01*
X40498395Y-31961280D01*
X40593889Y-31990036D01*
X40662873Y-32007874D01*
X40687879Y-32011620D01*
X40728432Y-31992740D01*
X40789742Y-31941673D01*
X40861958Y-31866771D01*
X40871371Y-31856021D01*
X40938058Y-31779824D01*
X40979349Y-31737586D01*
X41003101Y-31724862D01*
X41017172Y-31737206D01*
X41028418Y-31767173D01*
X41073680Y-31830080D01*
X41118384Y-31852921D01*
X41173519Y-31861121D01*
X41263625Y-31866660D01*
X41378148Y-31869678D01*
X41506536Y-31870316D01*
X41638236Y-31868712D01*
X41762695Y-31865007D01*
X41869361Y-31859339D01*
X41947679Y-31851848D01*
X41987098Y-31842674D01*
X41988770Y-31841410D01*
X42000345Y-31806998D01*
X42014208Y-31728443D01*
X42029871Y-31611964D01*
X42046848Y-31463776D01*
X42064654Y-31290096D01*
X42082800Y-31097140D01*
X42100802Y-30891124D01*
X42106784Y-30817820D01*
X41021000Y-30817820D01*
X41018589Y-30918485D01*
X41012130Y-30996534D01*
X41002786Y-31040635D01*
X40997549Y-31046420D01*
X40964797Y-31031337D01*
X40912031Y-30993759D01*
X40895037Y-30979894D01*
X40822738Y-30905307D01*
X40772978Y-30826934D01*
X40753171Y-30758145D01*
X40757001Y-30731042D01*
X40791288Y-30688878D01*
X40853172Y-30642581D01*
X40862682Y-30637426D01*
X40305184Y-30637426D01*
X40292981Y-30712969D01*
X40282336Y-30734783D01*
X40268387Y-30722317D01*
X40251332Y-30678330D01*
X40075876Y-30678330D01*
X40074901Y-30704702D01*
X40063388Y-30690552D01*
X40044471Y-30652720D01*
X40017707Y-30571031D01*
X40006919Y-30487620D01*
X40011380Y-30436096D01*
X40023116Y-30427687D01*
X40038708Y-30455845D01*
X40054738Y-30514025D01*
X40067788Y-30595678D01*
X40068959Y-30606433D01*
X40075876Y-30678330D01*
X40251332Y-30678330D01*
X40248232Y-30670336D01*
X40222538Y-30585969D01*
X40184322Y-30471660D01*
X40137572Y-30356062D01*
X40095089Y-30269289D01*
X40049236Y-30172767D01*
X40036905Y-30106279D01*
X40039815Y-30093321D01*
X40054499Y-30070266D01*
X40075578Y-30079655D01*
X40111839Y-30126629D01*
X40121947Y-30141371D01*
X40229688Y-30324927D01*
X40290684Y-30490004D01*
X40305184Y-30637426D01*
X40862682Y-30637426D01*
X40922396Y-30605060D01*
X40978702Y-30589226D01*
X40979549Y-30589220D01*
X40999524Y-30596149D01*
X41011959Y-30623057D01*
X41018518Y-30679123D01*
X41020866Y-30773526D01*
X41021000Y-30817820D01*
X42106784Y-30817820D01*
X42118173Y-30678265D01*
X42126288Y-30571669D01*
X40563198Y-30571669D01*
X40555245Y-30604838D01*
X40530078Y-30590640D01*
X40487974Y-30529398D01*
X40429208Y-30421440D01*
X40420165Y-30403605D01*
X40359313Y-30290835D01*
X40289153Y-30172624D01*
X40227382Y-30078250D01*
X40171112Y-29991875D01*
X40145863Y-29933992D01*
X40147994Y-29895955D01*
X40149446Y-29893136D01*
X40173949Y-29888847D01*
X40215165Y-29922514D01*
X40268200Y-29986112D01*
X40328163Y-30071619D01*
X40390162Y-30171013D01*
X40449306Y-30276271D01*
X40500701Y-30379370D01*
X40539456Y-30472288D01*
X40560678Y-30547003D01*
X40563198Y-30571669D01*
X42126288Y-30571669D01*
X42134427Y-30464779D01*
X42140276Y-30381764D01*
X40730311Y-30381764D01*
X40727395Y-30388455D01*
X40707739Y-30407879D01*
X40704132Y-30406759D01*
X40688172Y-30383981D01*
X40649001Y-30326774D01*
X40591846Y-30242808D01*
X40521932Y-30139748D01*
X40490904Y-30093920D01*
X40417427Y-29983350D01*
X40355481Y-29886356D01*
X40310192Y-29811257D01*
X40286685Y-29766375D01*
X40284529Y-29758869D01*
X40293154Y-29721670D01*
X40320338Y-29725633D01*
X40367313Y-29771867D01*
X40435309Y-29861481D01*
X40494308Y-29947954D01*
X40591696Y-30097230D01*
X40661448Y-30210445D01*
X40706106Y-30292403D01*
X40728213Y-30347908D01*
X40730311Y-30381764D01*
X42140276Y-30381764D01*
X42147834Y-30274514D01*
X40923741Y-30274514D01*
X40898851Y-30284149D01*
X40878968Y-30264105D01*
X40837116Y-30209493D01*
X40779115Y-30128272D01*
X40710784Y-30028399D01*
X40699200Y-30011099D01*
X40609107Y-29875163D01*
X40544799Y-29775077D01*
X40503144Y-29704922D01*
X40481009Y-29658782D01*
X40475259Y-29630741D01*
X40482762Y-29614881D01*
X40487532Y-29611362D01*
X40520002Y-29604691D01*
X40554354Y-29630000D01*
X40596385Y-29693226D01*
X40631035Y-29758389D01*
X40679090Y-29844571D01*
X40744192Y-29950233D01*
X40813138Y-30054042D01*
X40820540Y-30064645D01*
X40888385Y-30167774D01*
X40922445Y-30236774D01*
X40923741Y-30274514D01*
X42147834Y-30274514D01*
X42149077Y-30256883D01*
X42155264Y-30160270D01*
X41122600Y-30160270D01*
X41110430Y-30183549D01*
X41075782Y-30164818D01*
X41021451Y-30106135D01*
X40985437Y-30059275D01*
X40914102Y-29956652D01*
X40843849Y-29846187D01*
X40780580Y-29738291D01*
X40730199Y-29643373D01*
X40698610Y-29571840D01*
X40690800Y-29539756D01*
X40700256Y-29502435D01*
X40726915Y-29509411D01*
X40768211Y-29558187D01*
X40821583Y-29646263D01*
X40844535Y-29689592D01*
X40904479Y-29799622D01*
X40972279Y-29914144D01*
X41028685Y-30001520D01*
X41077008Y-30074835D01*
X41110906Y-30132445D01*
X41122600Y-30160270D01*
X42155264Y-30160270D01*
X42161636Y-30060792D01*
X42162393Y-30047274D01*
X41280927Y-30047274D01*
X41268722Y-30056371D01*
X41235448Y-30031522D01*
X41185495Y-29973924D01*
X41131209Y-29897070D01*
X41058253Y-29780688D01*
X40995771Y-29672024D01*
X40948945Y-29580841D01*
X40922959Y-29516902D01*
X40919400Y-29498031D01*
X40939939Y-29474562D01*
X40957248Y-29471620D01*
X40987180Y-29493424D01*
X41028022Y-29551556D01*
X41069820Y-29630370D01*
X41123619Y-29738689D01*
X41184427Y-29852451D01*
X41224569Y-29922470D01*
X41267672Y-30003038D01*
X41280927Y-30047274D01*
X42162393Y-30047274D01*
X42164659Y-30006868D01*
X42011600Y-30006868D01*
X42001147Y-30024351D01*
X41976592Y-30008271D01*
X41948147Y-29969671D01*
X41926023Y-29919595D01*
X41924781Y-29915077D01*
X41452800Y-29915077D01*
X41440896Y-29932376D01*
X41409097Y-29911042D01*
X41363281Y-29856218D01*
X41330731Y-29808170D01*
X41278258Y-29718373D01*
X41230269Y-29624026D01*
X41193471Y-29539612D01*
X41174575Y-29479616D01*
X41173400Y-29468518D01*
X41193442Y-29448329D01*
X41205150Y-29447058D01*
X41225366Y-29468379D01*
X41260911Y-29523957D01*
X41305570Y-29602043D01*
X41353127Y-29690891D01*
X41397365Y-29778752D01*
X41432068Y-29853880D01*
X41451021Y-29904526D01*
X41452800Y-29915077D01*
X41924781Y-29915077D01*
X41923956Y-29912080D01*
X41915759Y-29859375D01*
X41919591Y-29834562D01*
X41937088Y-29845585D01*
X41963962Y-29886591D01*
X41990983Y-29940297D01*
X42008922Y-29989417D01*
X42011600Y-30006868D01*
X42164659Y-30006868D01*
X42171619Y-29882723D01*
X42177987Y-29741168D01*
X41593906Y-29741168D01*
X41591926Y-29748976D01*
X41577091Y-29769359D01*
X41556681Y-29757641D01*
X41526797Y-29708876D01*
X41483537Y-29618120D01*
X41476676Y-29602864D01*
X41444064Y-29528617D01*
X41431096Y-29489501D01*
X41436712Y-29474255D01*
X41459850Y-29471623D01*
X41464312Y-29471620D01*
X41495364Y-29493452D01*
X41531476Y-29547899D01*
X41565021Y-29618385D01*
X41588373Y-29688333D01*
X41593906Y-29741168D01*
X42177987Y-29741168D01*
X42178540Y-29728893D01*
X42178799Y-29719395D01*
X42059698Y-29719395D01*
X42046951Y-29715742D01*
X42025047Y-29689015D01*
X41994997Y-29642534D01*
X41986200Y-29617048D01*
X41997202Y-29596654D01*
X42021466Y-29608578D01*
X42045879Y-29641717D01*
X42056797Y-29676809D01*
X42059698Y-29719395D01*
X42178799Y-29719395D01*
X42181911Y-29605517D01*
X42181687Y-29576218D01*
X41757600Y-29576218D01*
X41741951Y-29589989D01*
X41732200Y-29585920D01*
X41707749Y-29552272D01*
X41706800Y-29544821D01*
X41722450Y-29531050D01*
X41732200Y-29535120D01*
X41756652Y-29568767D01*
X41757600Y-29576218D01*
X42181687Y-29576218D01*
X42181247Y-29518812D01*
X42176062Y-29474995D01*
X42174167Y-29471626D01*
X42123292Y-29443794D01*
X42031952Y-29415868D01*
X41910449Y-29389585D01*
X41769086Y-29366677D01*
X41618164Y-29348879D01*
X41467985Y-29337924D01*
X41363900Y-29335244D01*
X41054697Y-29355063D01*
G37*
X41054697Y-29355063D02*
X40775982Y-29415403D01*
X40527468Y-29516368D01*
X40308868Y-29658064D01*
X40193247Y-29761374D01*
X40077402Y-29894293D01*
X40001037Y-30027493D01*
X39958475Y-30175319D01*
X39944038Y-30352114D01*
X39944014Y-30391034D01*
X39948723Y-30506527D01*
X39963935Y-30595878D01*
X39995262Y-30683506D01*
X40026599Y-30750447D01*
X40086899Y-30853230D01*
X40167789Y-30965816D01*
X40251976Y-31064163D01*
X40252993Y-31065218D01*
X40398700Y-31216090D01*
X40214550Y-31451191D01*
X40124706Y-31569862D01*
X40066765Y-31657579D01*
X40038019Y-31720570D01*
X40035755Y-31765063D01*
X40057264Y-31797284D01*
X40062150Y-31801273D01*
X40102107Y-31821388D01*
X40178248Y-31851661D01*
X40278036Y-31887878D01*
X40388931Y-31925823D01*
X40498395Y-31961280D01*
X40593889Y-31990036D01*
X40662873Y-32007874D01*
X40687879Y-32011620D01*
X40728432Y-31992740D01*
X40789742Y-31941673D01*
X40861958Y-31866771D01*
X40871371Y-31856021D01*
X40938058Y-31779824D01*
X40979349Y-31737586D01*
X41003101Y-31724862D01*
X41017172Y-31737206D01*
X41028418Y-31767173D01*
X41073680Y-31830080D01*
X41118384Y-31852921D01*
X41173519Y-31861121D01*
X41263625Y-31866660D01*
X41378148Y-31869678D01*
X41506536Y-31870316D01*
X41638236Y-31868712D01*
X41762695Y-31865007D01*
X41869361Y-31859339D01*
X41947679Y-31851848D01*
X41987098Y-31842674D01*
X41988770Y-31841410D01*
X42000345Y-31806998D01*
X42014208Y-31728443D01*
X42029871Y-31611964D01*
X42046848Y-31463776D01*
X42064654Y-31290096D01*
X42082800Y-31097140D01*
X42100802Y-30891124D01*
X42106784Y-30817820D01*
X41021000Y-30817820D01*
X41018589Y-30918485D01*
X41012130Y-30996534D01*
X41002786Y-31040635D01*
X40997549Y-31046420D01*
X40964797Y-31031337D01*
X40912031Y-30993759D01*
X40895037Y-30979894D01*
X40822738Y-30905307D01*
X40772978Y-30826934D01*
X40753171Y-30758145D01*
X40757001Y-30731042D01*
X40791288Y-30688878D01*
X40853172Y-30642581D01*
X40862682Y-30637426D01*
X40305184Y-30637426D01*
X40292981Y-30712969D01*
X40282336Y-30734783D01*
X40268387Y-30722317D01*
X40251332Y-30678330D01*
X40075876Y-30678330D01*
X40074901Y-30704702D01*
X40063388Y-30690552D01*
X40044471Y-30652720D01*
X40017707Y-30571031D01*
X40006919Y-30487620D01*
X40011380Y-30436096D01*
X40023116Y-30427687D01*
X40038708Y-30455845D01*
X40054738Y-30514025D01*
X40067788Y-30595678D01*
X40068959Y-30606433D01*
X40075876Y-30678330D01*
X40251332Y-30678330D01*
X40248232Y-30670336D01*
X40222538Y-30585969D01*
X40184322Y-30471660D01*
X40137572Y-30356062D01*
X40095089Y-30269289D01*
X40049236Y-30172767D01*
X40036905Y-30106279D01*
X40039815Y-30093321D01*
X40054499Y-30070266D01*
X40075578Y-30079655D01*
X40111839Y-30126629D01*
X40121947Y-30141371D01*
X40229688Y-30324927D01*
X40290684Y-30490004D01*
X40305184Y-30637426D01*
X40862682Y-30637426D01*
X40922396Y-30605060D01*
X40978702Y-30589226D01*
X40979549Y-30589220D01*
X40999524Y-30596149D01*
X41011959Y-30623057D01*
X41018518Y-30679123D01*
X41020866Y-30773526D01*
X41021000Y-30817820D01*
X42106784Y-30817820D01*
X42118173Y-30678265D01*
X42126288Y-30571669D01*
X40563198Y-30571669D01*
X40555245Y-30604838D01*
X40530078Y-30590640D01*
X40487974Y-30529398D01*
X40429208Y-30421440D01*
X40420165Y-30403605D01*
X40359313Y-30290835D01*
X40289153Y-30172624D01*
X40227382Y-30078250D01*
X40171112Y-29991875D01*
X40145863Y-29933992D01*
X40147994Y-29895955D01*
X40149446Y-29893136D01*
X40173949Y-29888847D01*
X40215165Y-29922514D01*
X40268200Y-29986112D01*
X40328163Y-30071619D01*
X40390162Y-30171013D01*
X40449306Y-30276271D01*
X40500701Y-30379370D01*
X40539456Y-30472288D01*
X40560678Y-30547003D01*
X40563198Y-30571669D01*
X42126288Y-30571669D01*
X42134427Y-30464779D01*
X42140276Y-30381764D01*
X40730311Y-30381764D01*
X40727395Y-30388455D01*
X40707739Y-30407879D01*
X40704132Y-30406759D01*
X40688172Y-30383981D01*
X40649001Y-30326774D01*
X40591846Y-30242808D01*
X40521932Y-30139748D01*
X40490904Y-30093920D01*
X40417427Y-29983350D01*
X40355481Y-29886356D01*
X40310192Y-29811257D01*
X40286685Y-29766375D01*
X40284529Y-29758869D01*
X40293154Y-29721670D01*
X40320338Y-29725633D01*
X40367313Y-29771867D01*
X40435309Y-29861481D01*
X40494308Y-29947954D01*
X40591696Y-30097230D01*
X40661448Y-30210445D01*
X40706106Y-30292403D01*
X40728213Y-30347908D01*
X40730311Y-30381764D01*
X42140276Y-30381764D01*
X42147834Y-30274514D01*
X40923741Y-30274514D01*
X40898851Y-30284149D01*
X40878968Y-30264105D01*
X40837116Y-30209493D01*
X40779115Y-30128272D01*
X40710784Y-30028399D01*
X40699200Y-30011099D01*
X40609107Y-29875163D01*
X40544799Y-29775077D01*
X40503144Y-29704922D01*
X40481009Y-29658782D01*
X40475259Y-29630741D01*
X40482762Y-29614881D01*
X40487532Y-29611362D01*
X40520002Y-29604691D01*
X40554354Y-29630000D01*
X40596385Y-29693226D01*
X40631035Y-29758389D01*
X40679090Y-29844571D01*
X40744192Y-29950233D01*
X40813138Y-30054042D01*
X40820540Y-30064645D01*
X40888385Y-30167774D01*
X40922445Y-30236774D01*
X40923741Y-30274514D01*
X42147834Y-30274514D01*
X42149077Y-30256883D01*
X42155264Y-30160270D01*
X41122600Y-30160270D01*
X41110430Y-30183549D01*
X41075782Y-30164818D01*
X41021451Y-30106135D01*
X40985437Y-30059275D01*
X40914102Y-29956652D01*
X40843849Y-29846187D01*
X40780580Y-29738291D01*
X40730199Y-29643373D01*
X40698610Y-29571840D01*
X40690800Y-29539756D01*
X40700256Y-29502435D01*
X40726915Y-29509411D01*
X40768211Y-29558187D01*
X40821583Y-29646263D01*
X40844535Y-29689592D01*
X40904479Y-29799622D01*
X40972279Y-29914144D01*
X41028685Y-30001520D01*
X41077008Y-30074835D01*
X41110906Y-30132445D01*
X41122600Y-30160270D01*
X42155264Y-30160270D01*
X42161636Y-30060792D01*
X42162393Y-30047274D01*
X41280927Y-30047274D01*
X41268722Y-30056371D01*
X41235448Y-30031522D01*
X41185495Y-29973924D01*
X41131209Y-29897070D01*
X41058253Y-29780688D01*
X40995771Y-29672024D01*
X40948945Y-29580841D01*
X40922959Y-29516902D01*
X40919400Y-29498031D01*
X40939939Y-29474562D01*
X40957248Y-29471620D01*
X40987180Y-29493424D01*
X41028022Y-29551556D01*
X41069820Y-29630370D01*
X41123619Y-29738689D01*
X41184427Y-29852451D01*
X41224569Y-29922470D01*
X41267672Y-30003038D01*
X41280927Y-30047274D01*
X42162393Y-30047274D01*
X42164659Y-30006868D01*
X42011600Y-30006868D01*
X42001147Y-30024351D01*
X41976592Y-30008271D01*
X41948147Y-29969671D01*
X41926023Y-29919595D01*
X41924781Y-29915077D01*
X41452800Y-29915077D01*
X41440896Y-29932376D01*
X41409097Y-29911042D01*
X41363281Y-29856218D01*
X41330731Y-29808170D01*
X41278258Y-29718373D01*
X41230269Y-29624026D01*
X41193471Y-29539612D01*
X41174575Y-29479616D01*
X41173400Y-29468518D01*
X41193442Y-29448329D01*
X41205150Y-29447058D01*
X41225366Y-29468379D01*
X41260911Y-29523957D01*
X41305570Y-29602043D01*
X41353127Y-29690891D01*
X41397365Y-29778752D01*
X41432068Y-29853880D01*
X41451021Y-29904526D01*
X41452800Y-29915077D01*
X41924781Y-29915077D01*
X41923956Y-29912080D01*
X41915759Y-29859375D01*
X41919591Y-29834562D01*
X41937088Y-29845585D01*
X41963962Y-29886591D01*
X41990983Y-29940297D01*
X42008922Y-29989417D01*
X42011600Y-30006868D01*
X42164659Y-30006868D01*
X42171619Y-29882723D01*
X42177987Y-29741168D01*
X41593906Y-29741168D01*
X41591926Y-29748976D01*
X41577091Y-29769359D01*
X41556681Y-29757641D01*
X41526797Y-29708876D01*
X41483537Y-29618120D01*
X41476676Y-29602864D01*
X41444064Y-29528617D01*
X41431096Y-29489501D01*
X41436712Y-29474255D01*
X41459850Y-29471623D01*
X41464312Y-29471620D01*
X41495364Y-29493452D01*
X41531476Y-29547899D01*
X41565021Y-29618385D01*
X41588373Y-29688333D01*
X41593906Y-29741168D01*
X42177987Y-29741168D01*
X42178540Y-29728893D01*
X42178799Y-29719395D01*
X42059698Y-29719395D01*
X42046951Y-29715742D01*
X42025047Y-29689015D01*
X41994997Y-29642534D01*
X41986200Y-29617048D01*
X41997202Y-29596654D01*
X42021466Y-29608578D01*
X42045879Y-29641717D01*
X42056797Y-29676809D01*
X42059698Y-29719395D01*
X42178799Y-29719395D01*
X42181911Y-29605517D01*
X42181687Y-29576218D01*
X41757600Y-29576218D01*
X41741951Y-29589989D01*
X41732200Y-29585920D01*
X41707749Y-29552272D01*
X41706800Y-29544821D01*
X41722450Y-29531050D01*
X41732200Y-29535120D01*
X41756652Y-29568767D01*
X41757600Y-29576218D01*
X42181687Y-29576218D01*
X42181247Y-29518812D01*
X42176062Y-29474995D01*
X42174167Y-29471626D01*
X42123292Y-29443794D01*
X42031952Y-29415868D01*
X41910449Y-29389585D01*
X41769086Y-29366677D01*
X41618164Y-29348879D01*
X41467985Y-29337924D01*
X41363900Y-29335244D01*
X41054697Y-29355063D01*
G36*
X35476816Y-33514491D02*
G01*
X35397505Y-33517467D01*
X35344351Y-33523507D01*
X35311204Y-33532792D01*
X35297320Y-33540772D01*
X35279746Y-33557148D01*
X35268156Y-33580160D01*
X35262224Y-33617931D01*
X35261626Y-33678584D01*
X35266037Y-33770242D01*
X35275133Y-33901026D01*
X35280211Y-33968783D01*
X35296054Y-34150186D01*
X35312749Y-34284301D01*
X35330835Y-34374636D01*
X35349937Y-34423321D01*
X35373584Y-34473436D01*
X35360696Y-34495288D01*
X35338320Y-34525139D01*
X35331400Y-34567889D01*
X35337951Y-34637253D01*
X35354538Y-34723620D01*
X35376566Y-34808371D01*
X35399442Y-34872884D01*
X35412005Y-34894520D01*
X35447619Y-34912127D01*
X35517330Y-34932475D01*
X35592701Y-34948569D01*
X35750500Y-34977218D01*
X35602781Y-34980319D01*
X35490153Y-34985978D01*
X35418382Y-35003556D01*
X35378328Y-35042521D01*
X35360853Y-35112344D01*
X35356817Y-35222495D01*
X35356800Y-35235203D01*
X35359493Y-35345171D01*
X35368867Y-35415416D01*
X35386868Y-35456795D01*
X35398742Y-35469259D01*
X35435953Y-35480381D01*
X35513656Y-35490371D01*
X35622903Y-35499032D01*
X35754748Y-35506168D01*
X35900246Y-35511582D01*
X36050450Y-35515078D01*
X36196414Y-35516459D01*
X36329190Y-35515528D01*
X36439834Y-35512089D01*
X36519399Y-35505946D01*
X36558938Y-35496901D01*
X36561212Y-35494799D01*
X36573317Y-35452824D01*
X36586869Y-35367995D01*
X36601387Y-35247484D01*
X36616390Y-35098463D01*
X36631397Y-34928103D01*
X36645928Y-34743578D01*
X36659501Y-34552058D01*
X36671635Y-34360716D01*
X36681851Y-34176725D01*
X36689666Y-34007255D01*
X36694600Y-33859480D01*
X36696172Y-33740570D01*
X36693901Y-33657699D01*
X36687307Y-33618038D01*
X36687071Y-33617644D01*
X36668077Y-33595139D01*
X36638740Y-33577115D01*
X36593231Y-33562835D01*
X36525722Y-33551560D01*
X36430385Y-33542553D01*
X36301392Y-33535074D01*
X36132913Y-33528386D01*
X35933156Y-33522155D01*
X35738494Y-33517016D01*
X35588429Y-33514401D01*
X35476816Y-33514491D01*
G37*
X35476816Y-33514491D02*
X35397505Y-33517467D01*
X35344351Y-33523507D01*
X35311204Y-33532792D01*
X35297320Y-33540772D01*
X35279746Y-33557148D01*
X35268156Y-33580160D01*
X35262224Y-33617931D01*
X35261626Y-33678584D01*
X35266037Y-33770242D01*
X35275133Y-33901026D01*
X35280211Y-33968783D01*
X35296054Y-34150186D01*
X35312749Y-34284301D01*
X35330835Y-34374636D01*
X35349937Y-34423321D01*
X35373584Y-34473436D01*
X35360696Y-34495288D01*
X35338320Y-34525139D01*
X35331400Y-34567889D01*
X35337951Y-34637253D01*
X35354538Y-34723620D01*
X35376566Y-34808371D01*
X35399442Y-34872884D01*
X35412005Y-34894520D01*
X35447619Y-34912127D01*
X35517330Y-34932475D01*
X35592701Y-34948569D01*
X35750500Y-34977218D01*
X35602781Y-34980319D01*
X35490153Y-34985978D01*
X35418382Y-35003556D01*
X35378328Y-35042521D01*
X35360853Y-35112344D01*
X35356817Y-35222495D01*
X35356800Y-35235203D01*
X35359493Y-35345171D01*
X35368867Y-35415416D01*
X35386868Y-35456795D01*
X35398742Y-35469259D01*
X35435953Y-35480381D01*
X35513656Y-35490371D01*
X35622903Y-35499032D01*
X35754748Y-35506168D01*
X35900246Y-35511582D01*
X36050450Y-35515078D01*
X36196414Y-35516459D01*
X36329190Y-35515528D01*
X36439834Y-35512089D01*
X36519399Y-35505946D01*
X36558938Y-35496901D01*
X36561212Y-35494799D01*
X36573317Y-35452824D01*
X36586869Y-35367995D01*
X36601387Y-35247484D01*
X36616390Y-35098463D01*
X36631397Y-34928103D01*
X36645928Y-34743578D01*
X36659501Y-34552058D01*
X36671635Y-34360716D01*
X36681851Y-34176725D01*
X36689666Y-34007255D01*
X36694600Y-33859480D01*
X36696172Y-33740570D01*
X36693901Y-33657699D01*
X36687307Y-33618038D01*
X36687071Y-33617644D01*
X36668077Y-33595139D01*
X36638740Y-33577115D01*
X36593231Y-33562835D01*
X36525722Y-33551560D01*
X36430385Y-33542553D01*
X36301392Y-33535074D01*
X36132913Y-33528386D01*
X35933156Y-33522155D01*
X35738494Y-33517016D01*
X35588429Y-33514401D01*
X35476816Y-33514491D01*
G36*
X31581576Y-33539812D02*
G01*
X31535358Y-33555338D01*
X31500826Y-33585709D01*
X31476299Y-33635558D01*
X31460098Y-33709520D01*
X31450541Y-33812227D01*
X31445949Y-33948314D01*
X31444641Y-34122413D01*
X31444937Y-34339160D01*
X31445200Y-34534065D01*
X31445656Y-34788303D01*
X31447111Y-34995716D01*
X31449702Y-35160269D01*
X31453562Y-35285931D01*
X31458826Y-35376666D01*
X31465630Y-35436443D01*
X31474107Y-35469227D01*
X31477132Y-35474579D01*
X31494803Y-35491510D01*
X31524204Y-35503113D01*
X31573424Y-35510105D01*
X31650554Y-35513205D01*
X31763684Y-35513129D01*
X31889882Y-35511184D01*
X32270700Y-35504120D01*
X32299076Y-35416329D01*
X32318406Y-35360676D01*
X32330346Y-35349383D01*
X32342627Y-35378311D01*
X32346530Y-35390929D01*
X32392536Y-35482679D01*
X32463590Y-35531552D01*
X32536482Y-35542220D01*
X32609982Y-35533806D01*
X32665871Y-35513270D01*
X32669806Y-35510470D01*
X32703748Y-35470659D01*
X32747244Y-35402667D01*
X32775078Y-35351720D01*
X32839835Y-35224720D01*
X32841018Y-35321639D01*
X32846305Y-35409047D01*
X32865589Y-35465729D01*
X32907843Y-35498224D01*
X32982040Y-35513070D01*
X33097155Y-35516805D01*
X33108900Y-35516820D01*
X33216044Y-35515362D01*
X33283632Y-35509463D01*
X33322864Y-35496835D01*
X33344937Y-35475188D01*
X33349307Y-35467689D01*
X33356966Y-35427288D01*
X33363404Y-35338508D01*
X33368553Y-35203761D01*
X33372347Y-35025454D01*
X33374717Y-34805997D01*
X33375596Y-34547799D01*
X33375600Y-34527889D01*
X33375799Y-34277043D01*
X33375484Y-34072321D01*
X33373289Y-33909058D01*
X33367848Y-33782585D01*
X33357794Y-33688236D01*
X33341762Y-33621342D01*
X33318386Y-33577236D01*
X33286298Y-33551251D01*
X33244133Y-33538720D01*
X33190525Y-33534974D01*
X33124108Y-33535347D01*
X33085154Y-33535620D01*
X32983369Y-33538704D01*
X32894472Y-33546812D01*
X32836923Y-33558226D01*
X32835113Y-33558886D01*
X32790491Y-33593248D01*
X32730596Y-33664125D01*
X32662830Y-33762571D01*
X32651226Y-33781136D01*
X32593468Y-33874434D01*
X32543210Y-33954944D01*
X32508281Y-34010151D01*
X32499824Y-34023144D01*
X32484046Y-34036217D01*
X32463197Y-34027126D01*
X32432472Y-33990151D01*
X32387061Y-33919570D01*
X32326103Y-33816463D01*
X32244083Y-33683106D01*
X32179741Y-33596144D01*
X32132351Y-33554623D01*
X32124296Y-33551536D01*
X32075396Y-33545039D01*
X31989638Y-33539850D01*
X31880961Y-33536651D01*
X31807150Y-33535966D01*
X31715792Y-33534760D01*
X31641161Y-33534497D01*
X31581576Y-33539812D01*
G37*
X31581576Y-33539812D02*
X31535358Y-33555338D01*
X31500826Y-33585709D01*
X31476299Y-33635558D01*
X31460098Y-33709520D01*
X31450541Y-33812227D01*
X31445949Y-33948314D01*
X31444641Y-34122413D01*
X31444937Y-34339160D01*
X31445200Y-34534065D01*
X31445656Y-34788303D01*
X31447111Y-34995716D01*
X31449702Y-35160269D01*
X31453562Y-35285931D01*
X31458826Y-35376666D01*
X31465630Y-35436443D01*
X31474107Y-35469227D01*
X31477132Y-35474579D01*
X31494803Y-35491510D01*
X31524204Y-35503113D01*
X31573424Y-35510105D01*
X31650554Y-35513205D01*
X31763684Y-35513129D01*
X31889882Y-35511184D01*
X32270700Y-35504120D01*
X32299076Y-35416329D01*
X32318406Y-35360676D01*
X32330346Y-35349383D01*
X32342627Y-35378311D01*
X32346530Y-35390929D01*
X32392536Y-35482679D01*
X32463590Y-35531552D01*
X32536482Y-35542220D01*
X32609982Y-35533806D01*
X32665871Y-35513270D01*
X32669806Y-35510470D01*
X32703748Y-35470659D01*
X32747244Y-35402667D01*
X32775078Y-35351720D01*
X32839835Y-35224720D01*
X32841018Y-35321639D01*
X32846305Y-35409047D01*
X32865589Y-35465729D01*
X32907843Y-35498224D01*
X32982040Y-35513070D01*
X33097155Y-35516805D01*
X33108900Y-35516820D01*
X33216044Y-35515362D01*
X33283632Y-35509463D01*
X33322864Y-35496835D01*
X33344937Y-35475188D01*
X33349307Y-35467689D01*
X33356966Y-35427288D01*
X33363404Y-35338508D01*
X33368553Y-35203761D01*
X33372347Y-35025454D01*
X33374717Y-34805997D01*
X33375596Y-34547799D01*
X33375600Y-34527889D01*
X33375799Y-34277043D01*
X33375484Y-34072321D01*
X33373289Y-33909058D01*
X33367848Y-33782585D01*
X33357794Y-33688236D01*
X33341762Y-33621342D01*
X33318386Y-33577236D01*
X33286298Y-33551251D01*
X33244133Y-33538720D01*
X33190525Y-33534974D01*
X33124108Y-33535347D01*
X33085154Y-33535620D01*
X32983369Y-33538704D01*
X32894472Y-33546812D01*
X32836923Y-33558226D01*
X32835113Y-33558886D01*
X32790491Y-33593248D01*
X32730596Y-33664125D01*
X32662830Y-33762571D01*
X32651226Y-33781136D01*
X32593468Y-33874434D01*
X32543210Y-33954944D01*
X32508281Y-34010151D01*
X32499824Y-34023144D01*
X32484046Y-34036217D01*
X32463197Y-34027126D01*
X32432472Y-33990151D01*
X32387061Y-33919570D01*
X32326103Y-33816463D01*
X32244083Y-33683106D01*
X32179741Y-33596144D01*
X32132351Y-33554623D01*
X32124296Y-33551536D01*
X32075396Y-33545039D01*
X31989638Y-33539850D01*
X31880961Y-33536651D01*
X31807150Y-33535966D01*
X31715792Y-33534760D01*
X31641161Y-33534497D01*
X31581576Y-33539812D01*
G36*
X37872667Y-33028652D02*
G01*
X37681578Y-33030788D01*
X37495442Y-33034310D01*
X37321224Y-33039156D01*
X37165888Y-33045262D01*
X37036400Y-33052563D01*
X36939725Y-33060997D01*
X36882826Y-33070499D01*
X36871964Y-33075180D01*
X36857517Y-33092790D01*
X36846758Y-33122799D01*
X36839166Y-33172006D01*
X36834220Y-33247210D01*
X36831398Y-33355212D01*
X36830180Y-33502811D01*
X36830000Y-33622550D01*
X36831105Y-33818337D01*
X36834555Y-33966974D01*
X36840551Y-34072064D01*
X36849296Y-34137213D01*
X36860480Y-34165540D01*
X36903080Y-34182099D01*
X36985756Y-34192719D01*
X37085277Y-34196020D01*
X37279594Y-34196020D01*
X37296119Y-34430970D01*
X37308074Y-34585343D01*
X37322705Y-34749957D01*
X37339071Y-34916524D01*
X37356233Y-35076758D01*
X37373251Y-35222374D01*
X37389183Y-35345086D01*
X37403091Y-35436608D01*
X37414034Y-35488654D01*
X37416954Y-35495952D01*
X37442832Y-35511605D01*
X37501882Y-35522614D01*
X37599874Y-35529627D01*
X37742579Y-35533294D01*
X37749776Y-35533386D01*
X37876578Y-35533909D01*
X37989874Y-35532461D01*
X38077153Y-35529325D01*
X38125400Y-35524885D01*
X38180531Y-35509294D01*
X38206604Y-35495619D01*
X38214079Y-35466122D01*
X38224326Y-35394098D01*
X38236424Y-35287682D01*
X38249452Y-35155014D01*
X38262488Y-35004229D01*
X38263143Y-34996120D01*
X38276481Y-34832077D01*
X38289601Y-34673767D01*
X38301526Y-34532754D01*
X38311280Y-34420601D01*
X38317311Y-34354770D01*
X38332644Y-34196020D01*
X38528742Y-34196020D01*
X38639282Y-34191963D01*
X38718771Y-34180716D01*
X38755320Y-34165540D01*
X38764517Y-34131780D01*
X38772208Y-34056579D01*
X38778319Y-33949274D01*
X38782778Y-33819204D01*
X38785512Y-33675707D01*
X38786449Y-33528120D01*
X38785516Y-33385783D01*
X38782640Y-33258032D01*
X38777749Y-33154207D01*
X38770769Y-33083645D01*
X38763944Y-33057884D01*
X38733195Y-33048529D01*
X38658646Y-33041006D01*
X38547262Y-33035252D01*
X38406007Y-33031203D01*
X38241846Y-33028796D01*
X38061745Y-33027967D01*
X37872667Y-33028652D01*
G37*
X37872667Y-33028652D02*
X37681578Y-33030788D01*
X37495442Y-33034310D01*
X37321224Y-33039156D01*
X37165888Y-33045262D01*
X37036400Y-33052563D01*
X36939725Y-33060997D01*
X36882826Y-33070499D01*
X36871964Y-33075180D01*
X36857517Y-33092790D01*
X36846758Y-33122799D01*
X36839166Y-33172006D01*
X36834220Y-33247210D01*
X36831398Y-33355212D01*
X36830180Y-33502811D01*
X36830000Y-33622550D01*
X36831105Y-33818337D01*
X36834555Y-33966974D01*
X36840551Y-34072064D01*
X36849296Y-34137213D01*
X36860480Y-34165540D01*
X36903080Y-34182099D01*
X36985756Y-34192719D01*
X37085277Y-34196020D01*
X37279594Y-34196020D01*
X37296119Y-34430970D01*
X37308074Y-34585343D01*
X37322705Y-34749957D01*
X37339071Y-34916524D01*
X37356233Y-35076758D01*
X37373251Y-35222374D01*
X37389183Y-35345086D01*
X37403091Y-35436608D01*
X37414034Y-35488654D01*
X37416954Y-35495952D01*
X37442832Y-35511605D01*
X37501882Y-35522614D01*
X37599874Y-35529627D01*
X37742579Y-35533294D01*
X37749776Y-35533386D01*
X37876578Y-35533909D01*
X37989874Y-35532461D01*
X38077153Y-35529325D01*
X38125400Y-35524885D01*
X38180531Y-35509294D01*
X38206604Y-35495619D01*
X38214079Y-35466122D01*
X38224326Y-35394098D01*
X38236424Y-35287682D01*
X38249452Y-35155014D01*
X38262488Y-35004229D01*
X38263143Y-34996120D01*
X38276481Y-34832077D01*
X38289601Y-34673767D01*
X38301526Y-34532754D01*
X38311280Y-34420601D01*
X38317311Y-34354770D01*
X38332644Y-34196020D01*
X38528742Y-34196020D01*
X38639282Y-34191963D01*
X38718771Y-34180716D01*
X38755320Y-34165540D01*
X38764517Y-34131780D01*
X38772208Y-34056579D01*
X38778319Y-33949274D01*
X38782778Y-33819204D01*
X38785512Y-33675707D01*
X38786449Y-33528120D01*
X38785516Y-33385783D01*
X38782640Y-33258032D01*
X38777749Y-33154207D01*
X38770769Y-33083645D01*
X38763944Y-33057884D01*
X38733195Y-33048529D01*
X38658646Y-33041006D01*
X38547262Y-33035252D01*
X38406007Y-33031203D01*
X38241846Y-33028796D01*
X38061745Y-33027967D01*
X37872667Y-33028652D01*
G36*
X34069484Y-33549887D02*
G01*
X33955634Y-33555156D01*
X33866744Y-33563143D01*
X33813627Y-33573824D01*
X33805043Y-33578612D01*
X33793336Y-33609382D01*
X33773169Y-33683174D01*
X33746001Y-33793188D01*
X33713291Y-33932624D01*
X33676499Y-34094683D01*
X33637082Y-34272565D01*
X33596502Y-34459468D01*
X33556215Y-34648594D01*
X33517682Y-34833143D01*
X33482362Y-35006314D01*
X33451714Y-35161308D01*
X33427196Y-35291324D01*
X33410268Y-35389563D01*
X33402389Y-35449225D01*
X33402007Y-35456952D01*
X33417551Y-35527919D01*
X33467038Y-35561197D01*
X33523728Y-35562304D01*
X33566296Y-35559327D01*
X33646375Y-35555639D01*
X33750693Y-35551806D01*
X33820100Y-35549652D01*
X33963606Y-35544455D01*
X34064167Y-35537279D01*
X34129638Y-35526228D01*
X34167875Y-35509405D01*
X34186732Y-35484914D01*
X34192989Y-35459628D01*
X34219133Y-35415082D01*
X34268118Y-35400182D01*
X34320953Y-35415751D01*
X34354251Y-35452645D01*
X34367204Y-35472232D01*
X34388234Y-35486110D01*
X34425294Y-35495258D01*
X34486336Y-35500651D01*
X34579314Y-35503265D01*
X34712181Y-35504079D01*
X34773351Y-35504120D01*
X35166300Y-35504120D01*
X35173385Y-35440620D01*
X35168565Y-35401603D01*
X35151739Y-35321158D01*
X35124725Y-35206042D01*
X35089346Y-35063013D01*
X35047421Y-34898831D01*
X35000771Y-34720253D01*
X34951216Y-34534038D01*
X34900576Y-34346945D01*
X34850672Y-34165731D01*
X34803324Y-33997156D01*
X34760352Y-33847977D01*
X34723578Y-33724954D01*
X34694820Y-33634844D01*
X34675901Y-33584406D01*
X34671339Y-33576691D01*
X34634759Y-33565149D01*
X34558272Y-33556469D01*
X34452690Y-33550627D01*
X34328824Y-33547599D01*
X34197485Y-33547360D01*
X34069484Y-33549887D01*
G37*
X34069484Y-33549887D02*
X33955634Y-33555156D01*
X33866744Y-33563143D01*
X33813627Y-33573824D01*
X33805043Y-33578612D01*
X33793336Y-33609382D01*
X33773169Y-33683174D01*
X33746001Y-33793188D01*
X33713291Y-33932624D01*
X33676499Y-34094683D01*
X33637082Y-34272565D01*
X33596502Y-34459468D01*
X33556215Y-34648594D01*
X33517682Y-34833143D01*
X33482362Y-35006314D01*
X33451714Y-35161308D01*
X33427196Y-35291324D01*
X33410268Y-35389563D01*
X33402389Y-35449225D01*
X33402007Y-35456952D01*
X33417551Y-35527919D01*
X33467038Y-35561197D01*
X33523728Y-35562304D01*
X33566296Y-35559327D01*
X33646375Y-35555639D01*
X33750693Y-35551806D01*
X33820100Y-35549652D01*
X33963606Y-35544455D01*
X34064167Y-35537279D01*
X34129638Y-35526228D01*
X34167875Y-35509405D01*
X34186732Y-35484914D01*
X34192989Y-35459628D01*
X34219133Y-35415082D01*
X34268118Y-35400182D01*
X34320953Y-35415751D01*
X34354251Y-35452645D01*
X34367204Y-35472232D01*
X34388234Y-35486110D01*
X34425294Y-35495258D01*
X34486336Y-35500651D01*
X34579314Y-35503265D01*
X34712181Y-35504079D01*
X34773351Y-35504120D01*
X35166300Y-35504120D01*
X35173385Y-35440620D01*
X35168565Y-35401603D01*
X35151739Y-35321158D01*
X35124725Y-35206042D01*
X35089346Y-35063013D01*
X35047421Y-34898831D01*
X35000771Y-34720253D01*
X34951216Y-34534038D01*
X34900576Y-34346945D01*
X34850672Y-34165731D01*
X34803324Y-33997156D01*
X34760352Y-33847977D01*
X34723578Y-33724954D01*
X34694820Y-33634844D01*
X34675901Y-33584406D01*
X34671339Y-33576691D01*
X34634759Y-33565149D01*
X34558272Y-33556469D01*
X34452690Y-33550627D01*
X34328824Y-33547599D01*
X34197485Y-33547360D01*
X34069484Y-33549887D01*
%TD*%
M02*
