M48
; DRILL file {KiCad (5.1.8)-1} date 12/20/20 15:01:16
; FORMAT={-:-/ absolute / inch / decimal}
; #@! TF.CreationDate,2020-12-20T15:01:16+01:00
; #@! TF.GenerationSoftware,Kicad,Pcbnew,(5.1.8)-1
; #@! TF.FileFunction,Plated,1,2,PTH
FMAT,2
INCH
T1C0.0157
%
G90
G05
T1
X1.0831Y-1.9723
X1.2787Y-1.8564
X1.4641Y-1.973
X1.6461Y-1.973
X1.7123Y-1.7561
X1.7661Y-1.3828
X1.782Y-1.8571
X1.8214Y-1.8751
X1.8231Y-1.9725
X1.8452Y-1.4054
X1.8588Y-1.9161
X1.8997Y-1.4617
X1.9083Y-1.4223
X1.9362Y-1.844
X1.9501Y-1.973
X1.9514Y-1.9309
X1.9816Y-1.4023
X2.0041Y-1.4606
X2.0282Y-1.429
X2.0993Y-1.8417
X2.1205Y-1.9724
X2.2994Y-1.9725
T0
M30
