%TF.GenerationSoftware,KiCad,Pcbnew,(5.1.8)-1*%
%TF.CreationDate,2020-12-20T15:01:14+01:00*%
%TF.ProjectId,GBA Cart,47424120-4361-4727-942e-6b696361645f,rev?*%
%TF.SameCoordinates,Original*%
%TF.FileFunction,Legend,Top*%
%TF.FilePolarity,Positive*%
%FSLAX46Y46*%
G04 Gerber Fmt 4.6, Leading zero omitted, Abs format (unit mm)*
G04 Created by KiCad (PCBNEW (5.1.8)-1) date 2020-12-20 15:01:14*
%MOMM*%
%LPD*%
G01*
G04 APERTURE LIST*
%ADD10C,0.010000*%
%ADD11C,0.120000*%
%ADD12C,0.150000*%
%ADD13C,0.101600*%
G04 APERTURE END LIST*
D10*
%TO.C,G\u002A\u002A\u002A*%
G36*
X67266356Y-33486387D02*
G01*
X67380206Y-33491656D01*
X67469096Y-33499643D01*
X67522213Y-33510324D01*
X67530797Y-33515112D01*
X67542504Y-33545882D01*
X67562671Y-33619674D01*
X67589839Y-33729688D01*
X67622549Y-33869124D01*
X67659341Y-34031183D01*
X67698758Y-34209065D01*
X67739338Y-34395968D01*
X67779625Y-34585094D01*
X67818158Y-34769643D01*
X67853478Y-34942814D01*
X67884126Y-35097808D01*
X67908644Y-35227824D01*
X67925572Y-35326063D01*
X67933451Y-35385725D01*
X67933833Y-35393452D01*
X67918289Y-35464419D01*
X67868802Y-35497697D01*
X67812112Y-35498804D01*
X67769544Y-35495827D01*
X67689465Y-35492139D01*
X67585147Y-35488306D01*
X67515740Y-35486152D01*
X67372234Y-35480955D01*
X67271673Y-35473779D01*
X67206202Y-35462728D01*
X67167965Y-35445905D01*
X67149108Y-35421414D01*
X67142851Y-35396128D01*
X67116707Y-35351582D01*
X67067722Y-35336682D01*
X67014887Y-35352251D01*
X66981589Y-35389145D01*
X66968636Y-35408732D01*
X66947606Y-35422610D01*
X66910546Y-35431758D01*
X66849504Y-35437151D01*
X66756526Y-35439765D01*
X66623659Y-35440579D01*
X66562489Y-35440620D01*
X66169540Y-35440620D01*
X66162455Y-35377120D01*
X66167275Y-35338103D01*
X66184101Y-35257658D01*
X66211115Y-35142542D01*
X66246494Y-34999513D01*
X66288419Y-34835331D01*
X66335069Y-34656753D01*
X66384624Y-34470538D01*
X66435264Y-34283445D01*
X66485168Y-34102231D01*
X66532516Y-33933656D01*
X66575488Y-33784477D01*
X66612262Y-33661454D01*
X66641020Y-33571344D01*
X66659939Y-33520906D01*
X66664501Y-33513191D01*
X66701081Y-33501649D01*
X66777568Y-33492969D01*
X66883150Y-33487127D01*
X67007016Y-33484099D01*
X67138355Y-33483860D01*
X67266356Y-33486387D01*
G37*
X67266356Y-33486387D02*
X67380206Y-33491656D01*
X67469096Y-33499643D01*
X67522213Y-33510324D01*
X67530797Y-33515112D01*
X67542504Y-33545882D01*
X67562671Y-33619674D01*
X67589839Y-33729688D01*
X67622549Y-33869124D01*
X67659341Y-34031183D01*
X67698758Y-34209065D01*
X67739338Y-34395968D01*
X67779625Y-34585094D01*
X67818158Y-34769643D01*
X67853478Y-34942814D01*
X67884126Y-35097808D01*
X67908644Y-35227824D01*
X67925572Y-35326063D01*
X67933451Y-35385725D01*
X67933833Y-35393452D01*
X67918289Y-35464419D01*
X67868802Y-35497697D01*
X67812112Y-35498804D01*
X67769544Y-35495827D01*
X67689465Y-35492139D01*
X67585147Y-35488306D01*
X67515740Y-35486152D01*
X67372234Y-35480955D01*
X67271673Y-35473779D01*
X67206202Y-35462728D01*
X67167965Y-35445905D01*
X67149108Y-35421414D01*
X67142851Y-35396128D01*
X67116707Y-35351582D01*
X67067722Y-35336682D01*
X67014887Y-35352251D01*
X66981589Y-35389145D01*
X66968636Y-35408732D01*
X66947606Y-35422610D01*
X66910546Y-35431758D01*
X66849504Y-35437151D01*
X66756526Y-35439765D01*
X66623659Y-35440579D01*
X66562489Y-35440620D01*
X66169540Y-35440620D01*
X66162455Y-35377120D01*
X66167275Y-35338103D01*
X66184101Y-35257658D01*
X66211115Y-35142542D01*
X66246494Y-34999513D01*
X66288419Y-34835331D01*
X66335069Y-34656753D01*
X66384624Y-34470538D01*
X66435264Y-34283445D01*
X66485168Y-34102231D01*
X66532516Y-33933656D01*
X66575488Y-33784477D01*
X66612262Y-33661454D01*
X66641020Y-33571344D01*
X66659939Y-33520906D01*
X66664501Y-33513191D01*
X66701081Y-33501649D01*
X66777568Y-33492969D01*
X66883150Y-33487127D01*
X67007016Y-33484099D01*
X67138355Y-33483860D01*
X67266356Y-33486387D01*
G36*
X63463173Y-32965152D02*
G01*
X63654262Y-32967288D01*
X63840398Y-32970810D01*
X64014616Y-32975656D01*
X64169952Y-32981762D01*
X64299440Y-32989063D01*
X64396115Y-32997497D01*
X64453014Y-33006999D01*
X64463876Y-33011680D01*
X64478323Y-33029290D01*
X64489082Y-33059299D01*
X64496674Y-33108506D01*
X64501620Y-33183710D01*
X64504442Y-33291712D01*
X64505660Y-33439311D01*
X64505840Y-33559050D01*
X64504735Y-33754837D01*
X64501285Y-33903474D01*
X64495289Y-34008564D01*
X64486544Y-34073713D01*
X64475360Y-34102040D01*
X64432760Y-34118599D01*
X64350084Y-34129219D01*
X64250563Y-34132520D01*
X64056246Y-34132520D01*
X64039721Y-34367470D01*
X64027766Y-34521843D01*
X64013135Y-34686457D01*
X63996769Y-34853024D01*
X63979607Y-35013258D01*
X63962589Y-35158874D01*
X63946657Y-35281586D01*
X63932749Y-35373108D01*
X63921806Y-35425154D01*
X63918886Y-35432452D01*
X63893008Y-35448105D01*
X63833958Y-35459114D01*
X63735966Y-35466127D01*
X63593261Y-35469794D01*
X63586064Y-35469886D01*
X63459262Y-35470409D01*
X63345966Y-35468961D01*
X63258687Y-35465825D01*
X63210440Y-35461385D01*
X63155309Y-35445794D01*
X63129236Y-35432119D01*
X63121761Y-35402622D01*
X63111514Y-35330598D01*
X63099416Y-35224182D01*
X63086388Y-35091514D01*
X63073352Y-34940729D01*
X63072697Y-34932620D01*
X63059359Y-34768577D01*
X63046239Y-34610267D01*
X63034314Y-34469254D01*
X63024560Y-34357101D01*
X63018529Y-34291270D01*
X63003196Y-34132520D01*
X62807098Y-34132520D01*
X62696558Y-34128463D01*
X62617069Y-34117216D01*
X62580520Y-34102040D01*
X62571323Y-34068280D01*
X62563632Y-33993079D01*
X62557521Y-33885774D01*
X62553062Y-33755704D01*
X62550328Y-33612207D01*
X62549391Y-33464620D01*
X62550324Y-33322283D01*
X62553200Y-33194532D01*
X62558091Y-33090707D01*
X62565071Y-33020145D01*
X62571896Y-32994384D01*
X62602645Y-32985029D01*
X62677194Y-32977506D01*
X62788578Y-32971752D01*
X62929833Y-32967703D01*
X63093994Y-32965296D01*
X63274095Y-32964467D01*
X63463173Y-32965152D01*
G37*
X63463173Y-32965152D02*
X63654262Y-32967288D01*
X63840398Y-32970810D01*
X64014616Y-32975656D01*
X64169952Y-32981762D01*
X64299440Y-32989063D01*
X64396115Y-32997497D01*
X64453014Y-33006999D01*
X64463876Y-33011680D01*
X64478323Y-33029290D01*
X64489082Y-33059299D01*
X64496674Y-33108506D01*
X64501620Y-33183710D01*
X64504442Y-33291712D01*
X64505660Y-33439311D01*
X64505840Y-33559050D01*
X64504735Y-33754837D01*
X64501285Y-33903474D01*
X64495289Y-34008564D01*
X64486544Y-34073713D01*
X64475360Y-34102040D01*
X64432760Y-34118599D01*
X64350084Y-34129219D01*
X64250563Y-34132520D01*
X64056246Y-34132520D01*
X64039721Y-34367470D01*
X64027766Y-34521843D01*
X64013135Y-34686457D01*
X63996769Y-34853024D01*
X63979607Y-35013258D01*
X63962589Y-35158874D01*
X63946657Y-35281586D01*
X63932749Y-35373108D01*
X63921806Y-35425154D01*
X63918886Y-35432452D01*
X63893008Y-35448105D01*
X63833958Y-35459114D01*
X63735966Y-35466127D01*
X63593261Y-35469794D01*
X63586064Y-35469886D01*
X63459262Y-35470409D01*
X63345966Y-35468961D01*
X63258687Y-35465825D01*
X63210440Y-35461385D01*
X63155309Y-35445794D01*
X63129236Y-35432119D01*
X63121761Y-35402622D01*
X63111514Y-35330598D01*
X63099416Y-35224182D01*
X63086388Y-35091514D01*
X63073352Y-34940729D01*
X63072697Y-34932620D01*
X63059359Y-34768577D01*
X63046239Y-34610267D01*
X63034314Y-34469254D01*
X63024560Y-34357101D01*
X63018529Y-34291270D01*
X63003196Y-34132520D01*
X62807098Y-34132520D01*
X62696558Y-34128463D01*
X62617069Y-34117216D01*
X62580520Y-34102040D01*
X62571323Y-34068280D01*
X62563632Y-33993079D01*
X62557521Y-33885774D01*
X62553062Y-33755704D01*
X62550328Y-33612207D01*
X62549391Y-33464620D01*
X62550324Y-33322283D01*
X62553200Y-33194532D01*
X62558091Y-33090707D01*
X62565071Y-33020145D01*
X62571896Y-32994384D01*
X62602645Y-32985029D01*
X62677194Y-32977506D01*
X62788578Y-32971752D01*
X62929833Y-32967703D01*
X63093994Y-32965296D01*
X63274095Y-32964467D01*
X63463173Y-32965152D01*
G36*
X69754264Y-33476312D02*
G01*
X69800482Y-33491838D01*
X69835014Y-33522209D01*
X69859541Y-33572058D01*
X69875742Y-33646020D01*
X69885299Y-33748727D01*
X69889891Y-33884814D01*
X69891199Y-34058913D01*
X69890903Y-34275660D01*
X69890640Y-34470565D01*
X69890184Y-34724803D01*
X69888729Y-34932216D01*
X69886138Y-35096769D01*
X69882278Y-35222431D01*
X69877014Y-35313166D01*
X69870210Y-35372943D01*
X69861733Y-35405727D01*
X69858708Y-35411079D01*
X69841037Y-35428010D01*
X69811636Y-35439613D01*
X69762416Y-35446605D01*
X69685286Y-35449705D01*
X69572156Y-35449629D01*
X69445958Y-35447684D01*
X69065140Y-35440620D01*
X69036764Y-35352829D01*
X69017434Y-35297176D01*
X69005494Y-35285883D01*
X68993213Y-35314811D01*
X68989310Y-35327429D01*
X68943304Y-35419179D01*
X68872250Y-35468052D01*
X68799358Y-35478720D01*
X68725858Y-35470306D01*
X68669969Y-35449770D01*
X68666034Y-35446970D01*
X68632092Y-35407159D01*
X68588596Y-35339167D01*
X68560762Y-35288220D01*
X68496005Y-35161220D01*
X68494822Y-35258139D01*
X68489535Y-35345547D01*
X68470251Y-35402229D01*
X68427997Y-35434724D01*
X68353800Y-35449570D01*
X68238685Y-35453305D01*
X68226940Y-35453320D01*
X68119796Y-35451862D01*
X68052208Y-35445963D01*
X68012976Y-35433335D01*
X67990903Y-35411688D01*
X67986533Y-35404189D01*
X67978874Y-35363788D01*
X67972436Y-35275008D01*
X67967287Y-35140261D01*
X67963493Y-34961954D01*
X67961123Y-34742497D01*
X67960244Y-34484299D01*
X67960240Y-34464389D01*
X67960041Y-34213543D01*
X67960356Y-34008821D01*
X67962551Y-33845558D01*
X67967992Y-33719085D01*
X67978046Y-33624736D01*
X67994078Y-33557842D01*
X68017454Y-33513736D01*
X68049542Y-33487751D01*
X68091707Y-33475220D01*
X68145315Y-33471474D01*
X68211732Y-33471847D01*
X68250686Y-33472120D01*
X68352471Y-33475204D01*
X68441368Y-33483312D01*
X68498917Y-33494726D01*
X68500727Y-33495386D01*
X68545349Y-33529748D01*
X68605244Y-33600625D01*
X68673010Y-33699071D01*
X68684614Y-33717636D01*
X68742372Y-33810934D01*
X68792630Y-33891444D01*
X68827559Y-33946651D01*
X68836016Y-33959644D01*
X68851794Y-33972717D01*
X68872643Y-33963626D01*
X68903368Y-33926651D01*
X68948779Y-33856070D01*
X69009737Y-33752963D01*
X69091757Y-33619606D01*
X69156099Y-33532644D01*
X69203489Y-33491123D01*
X69211544Y-33488036D01*
X69260444Y-33481539D01*
X69346202Y-33476350D01*
X69454879Y-33473151D01*
X69528690Y-33472466D01*
X69620048Y-33471260D01*
X69694679Y-33470997D01*
X69754264Y-33476312D01*
G37*
X69754264Y-33476312D02*
X69800482Y-33491838D01*
X69835014Y-33522209D01*
X69859541Y-33572058D01*
X69875742Y-33646020D01*
X69885299Y-33748727D01*
X69889891Y-33884814D01*
X69891199Y-34058913D01*
X69890903Y-34275660D01*
X69890640Y-34470565D01*
X69890184Y-34724803D01*
X69888729Y-34932216D01*
X69886138Y-35096769D01*
X69882278Y-35222431D01*
X69877014Y-35313166D01*
X69870210Y-35372943D01*
X69861733Y-35405727D01*
X69858708Y-35411079D01*
X69841037Y-35428010D01*
X69811636Y-35439613D01*
X69762416Y-35446605D01*
X69685286Y-35449705D01*
X69572156Y-35449629D01*
X69445958Y-35447684D01*
X69065140Y-35440620D01*
X69036764Y-35352829D01*
X69017434Y-35297176D01*
X69005494Y-35285883D01*
X68993213Y-35314811D01*
X68989310Y-35327429D01*
X68943304Y-35419179D01*
X68872250Y-35468052D01*
X68799358Y-35478720D01*
X68725858Y-35470306D01*
X68669969Y-35449770D01*
X68666034Y-35446970D01*
X68632092Y-35407159D01*
X68588596Y-35339167D01*
X68560762Y-35288220D01*
X68496005Y-35161220D01*
X68494822Y-35258139D01*
X68489535Y-35345547D01*
X68470251Y-35402229D01*
X68427997Y-35434724D01*
X68353800Y-35449570D01*
X68238685Y-35453305D01*
X68226940Y-35453320D01*
X68119796Y-35451862D01*
X68052208Y-35445963D01*
X68012976Y-35433335D01*
X67990903Y-35411688D01*
X67986533Y-35404189D01*
X67978874Y-35363788D01*
X67972436Y-35275008D01*
X67967287Y-35140261D01*
X67963493Y-34961954D01*
X67961123Y-34742497D01*
X67960244Y-34484299D01*
X67960240Y-34464389D01*
X67960041Y-34213543D01*
X67960356Y-34008821D01*
X67962551Y-33845558D01*
X67967992Y-33719085D01*
X67978046Y-33624736D01*
X67994078Y-33557842D01*
X68017454Y-33513736D01*
X68049542Y-33487751D01*
X68091707Y-33475220D01*
X68145315Y-33471474D01*
X68211732Y-33471847D01*
X68250686Y-33472120D01*
X68352471Y-33475204D01*
X68441368Y-33483312D01*
X68498917Y-33494726D01*
X68500727Y-33495386D01*
X68545349Y-33529748D01*
X68605244Y-33600625D01*
X68673010Y-33699071D01*
X68684614Y-33717636D01*
X68742372Y-33810934D01*
X68792630Y-33891444D01*
X68827559Y-33946651D01*
X68836016Y-33959644D01*
X68851794Y-33972717D01*
X68872643Y-33963626D01*
X68903368Y-33926651D01*
X68948779Y-33856070D01*
X69009737Y-33752963D01*
X69091757Y-33619606D01*
X69156099Y-33532644D01*
X69203489Y-33491123D01*
X69211544Y-33488036D01*
X69260444Y-33481539D01*
X69346202Y-33476350D01*
X69454879Y-33473151D01*
X69528690Y-33472466D01*
X69620048Y-33471260D01*
X69694679Y-33470997D01*
X69754264Y-33476312D01*
G36*
X65859024Y-33450991D02*
G01*
X65938335Y-33453967D01*
X65991489Y-33460007D01*
X66024636Y-33469292D01*
X66038520Y-33477272D01*
X66056094Y-33493648D01*
X66067684Y-33516660D01*
X66073616Y-33554431D01*
X66074214Y-33615084D01*
X66069803Y-33706742D01*
X66060707Y-33837526D01*
X66055629Y-33905283D01*
X66039786Y-34086686D01*
X66023091Y-34220801D01*
X66005005Y-34311136D01*
X65985903Y-34359821D01*
X65962256Y-34409936D01*
X65975144Y-34431788D01*
X65997520Y-34461639D01*
X66004440Y-34504389D01*
X65997889Y-34573753D01*
X65981302Y-34660120D01*
X65959274Y-34744871D01*
X65936398Y-34809384D01*
X65923835Y-34831020D01*
X65888221Y-34848627D01*
X65818510Y-34868975D01*
X65743139Y-34885069D01*
X65585340Y-34913718D01*
X65733059Y-34916819D01*
X65845687Y-34922478D01*
X65917458Y-34940056D01*
X65957512Y-34979021D01*
X65974987Y-35048844D01*
X65979023Y-35158995D01*
X65979040Y-35171703D01*
X65976347Y-35281671D01*
X65966973Y-35351916D01*
X65948972Y-35393295D01*
X65937098Y-35405759D01*
X65899887Y-35416881D01*
X65822184Y-35426871D01*
X65712937Y-35435532D01*
X65581092Y-35442668D01*
X65435594Y-35448082D01*
X65285390Y-35451578D01*
X65139426Y-35452959D01*
X65006650Y-35452028D01*
X64896006Y-35448589D01*
X64816441Y-35442446D01*
X64776902Y-35433401D01*
X64774628Y-35431299D01*
X64762523Y-35389324D01*
X64748971Y-35304495D01*
X64734453Y-35183984D01*
X64719450Y-35034963D01*
X64704443Y-34864603D01*
X64689912Y-34680078D01*
X64676339Y-34488558D01*
X64664205Y-34297216D01*
X64653989Y-34113225D01*
X64646174Y-33943755D01*
X64641240Y-33795980D01*
X64639668Y-33677070D01*
X64641939Y-33594199D01*
X64648533Y-33554538D01*
X64648769Y-33554144D01*
X64667763Y-33531639D01*
X64697100Y-33513615D01*
X64742609Y-33499335D01*
X64810118Y-33488060D01*
X64905455Y-33479053D01*
X65034448Y-33471574D01*
X65202927Y-33464886D01*
X65402684Y-33458655D01*
X65597346Y-33453516D01*
X65747411Y-33450901D01*
X65859024Y-33450991D01*
G37*
X65859024Y-33450991D02*
X65938335Y-33453967D01*
X65991489Y-33460007D01*
X66024636Y-33469292D01*
X66038520Y-33477272D01*
X66056094Y-33493648D01*
X66067684Y-33516660D01*
X66073616Y-33554431D01*
X66074214Y-33615084D01*
X66069803Y-33706742D01*
X66060707Y-33837526D01*
X66055629Y-33905283D01*
X66039786Y-34086686D01*
X66023091Y-34220801D01*
X66005005Y-34311136D01*
X65985903Y-34359821D01*
X65962256Y-34409936D01*
X65975144Y-34431788D01*
X65997520Y-34461639D01*
X66004440Y-34504389D01*
X65997889Y-34573753D01*
X65981302Y-34660120D01*
X65959274Y-34744871D01*
X65936398Y-34809384D01*
X65923835Y-34831020D01*
X65888221Y-34848627D01*
X65818510Y-34868975D01*
X65743139Y-34885069D01*
X65585340Y-34913718D01*
X65733059Y-34916819D01*
X65845687Y-34922478D01*
X65917458Y-34940056D01*
X65957512Y-34979021D01*
X65974987Y-35048844D01*
X65979023Y-35158995D01*
X65979040Y-35171703D01*
X65976347Y-35281671D01*
X65966973Y-35351916D01*
X65948972Y-35393295D01*
X65937098Y-35405759D01*
X65899887Y-35416881D01*
X65822184Y-35426871D01*
X65712937Y-35435532D01*
X65581092Y-35442668D01*
X65435594Y-35448082D01*
X65285390Y-35451578D01*
X65139426Y-35452959D01*
X65006650Y-35452028D01*
X64896006Y-35448589D01*
X64816441Y-35442446D01*
X64776902Y-35433401D01*
X64774628Y-35431299D01*
X64762523Y-35389324D01*
X64748971Y-35304495D01*
X64734453Y-35183984D01*
X64719450Y-35034963D01*
X64704443Y-34864603D01*
X64689912Y-34680078D01*
X64676339Y-34488558D01*
X64664205Y-34297216D01*
X64653989Y-34113225D01*
X64646174Y-33943755D01*
X64641240Y-33795980D01*
X64639668Y-33677070D01*
X64641939Y-33594199D01*
X64648533Y-33554538D01*
X64648769Y-33554144D01*
X64667763Y-33531639D01*
X64697100Y-33513615D01*
X64742609Y-33499335D01*
X64810118Y-33488060D01*
X64905455Y-33479053D01*
X65034448Y-33471574D01*
X65202927Y-33464886D01*
X65402684Y-33458655D01*
X65597346Y-33453516D01*
X65747411Y-33450901D01*
X65859024Y-33450991D01*
G36*
X60281143Y-29291563D02*
G01*
X60559858Y-29351903D01*
X60808372Y-29452868D01*
X61026972Y-29594564D01*
X61142593Y-29697874D01*
X61258438Y-29830793D01*
X61334803Y-29963993D01*
X61377365Y-30111819D01*
X61391802Y-30288614D01*
X61391826Y-30327534D01*
X61387117Y-30443027D01*
X61371905Y-30532378D01*
X61340578Y-30620006D01*
X61309241Y-30686947D01*
X61248941Y-30789730D01*
X61168051Y-30902316D01*
X61083864Y-31000663D01*
X61082847Y-31001718D01*
X60937140Y-31152590D01*
X61121290Y-31387691D01*
X61211134Y-31506362D01*
X61269075Y-31594079D01*
X61297821Y-31657070D01*
X61300085Y-31701563D01*
X61278576Y-31733784D01*
X61273690Y-31737773D01*
X61233733Y-31757888D01*
X61157592Y-31788161D01*
X61057804Y-31824378D01*
X60946909Y-31862323D01*
X60837445Y-31897780D01*
X60741951Y-31926536D01*
X60672967Y-31944374D01*
X60647961Y-31948120D01*
X60607408Y-31929240D01*
X60546098Y-31878173D01*
X60473882Y-31803271D01*
X60464469Y-31792521D01*
X60397782Y-31716324D01*
X60356491Y-31674086D01*
X60332739Y-31661362D01*
X60318668Y-31673706D01*
X60307422Y-31703673D01*
X60262160Y-31766580D01*
X60217456Y-31789421D01*
X60162321Y-31797621D01*
X60072215Y-31803160D01*
X59957692Y-31806178D01*
X59829304Y-31806816D01*
X59697604Y-31805212D01*
X59573145Y-31801507D01*
X59466479Y-31795839D01*
X59388161Y-31788348D01*
X59348742Y-31779174D01*
X59347070Y-31777910D01*
X59335495Y-31743498D01*
X59321632Y-31664943D01*
X59305969Y-31548464D01*
X59288992Y-31400276D01*
X59271186Y-31226596D01*
X59253040Y-31033640D01*
X59235038Y-30827624D01*
X59229056Y-30754320D01*
X60314840Y-30754320D01*
X60317251Y-30854985D01*
X60323710Y-30933034D01*
X60333054Y-30977135D01*
X60338291Y-30982920D01*
X60371043Y-30967837D01*
X60423809Y-30930259D01*
X60440803Y-30916394D01*
X60513102Y-30841807D01*
X60562862Y-30763434D01*
X60582669Y-30694645D01*
X60578839Y-30667542D01*
X60544552Y-30625378D01*
X60482668Y-30579081D01*
X60473158Y-30573926D01*
X61030656Y-30573926D01*
X61042859Y-30649469D01*
X61053504Y-30671283D01*
X61067453Y-30658817D01*
X61084508Y-30614830D01*
X61259964Y-30614830D01*
X61260939Y-30641202D01*
X61272452Y-30627052D01*
X61291369Y-30589220D01*
X61318133Y-30507531D01*
X61328921Y-30424120D01*
X61324460Y-30372596D01*
X61312724Y-30364187D01*
X61297132Y-30392345D01*
X61281102Y-30450525D01*
X61268052Y-30532178D01*
X61266881Y-30542933D01*
X61259964Y-30614830D01*
X61084508Y-30614830D01*
X61087608Y-30606836D01*
X61113302Y-30522469D01*
X61151518Y-30408160D01*
X61198268Y-30292562D01*
X61240751Y-30205789D01*
X61286604Y-30109267D01*
X61298935Y-30042779D01*
X61296025Y-30029821D01*
X61281341Y-30006766D01*
X61260262Y-30016155D01*
X61224001Y-30063129D01*
X61213893Y-30077871D01*
X61106152Y-30261427D01*
X61045156Y-30426504D01*
X61030656Y-30573926D01*
X60473158Y-30573926D01*
X60413444Y-30541560D01*
X60357138Y-30525726D01*
X60356291Y-30525720D01*
X60336316Y-30532649D01*
X60323881Y-30559557D01*
X60317322Y-30615623D01*
X60314974Y-30710026D01*
X60314840Y-30754320D01*
X59229056Y-30754320D01*
X59217667Y-30614765D01*
X59209552Y-30508169D01*
X60772642Y-30508169D01*
X60780595Y-30541338D01*
X60805762Y-30527140D01*
X60847866Y-30465898D01*
X60906632Y-30357940D01*
X60915675Y-30340105D01*
X60976527Y-30227335D01*
X61046687Y-30109124D01*
X61108458Y-30014750D01*
X61164728Y-29928375D01*
X61189977Y-29870492D01*
X61187846Y-29832455D01*
X61186394Y-29829636D01*
X61161891Y-29825347D01*
X61120675Y-29859014D01*
X61067640Y-29922612D01*
X61007677Y-30008119D01*
X60945678Y-30107513D01*
X60886534Y-30212771D01*
X60835139Y-30315870D01*
X60796384Y-30408788D01*
X60775162Y-30483503D01*
X60772642Y-30508169D01*
X59209552Y-30508169D01*
X59201413Y-30401279D01*
X59195564Y-30318264D01*
X60605529Y-30318264D01*
X60608445Y-30324955D01*
X60628101Y-30344379D01*
X60631708Y-30343259D01*
X60647668Y-30320481D01*
X60686839Y-30263274D01*
X60743994Y-30179308D01*
X60813908Y-30076248D01*
X60844936Y-30030420D01*
X60918413Y-29919850D01*
X60980359Y-29822856D01*
X61025648Y-29747757D01*
X61049155Y-29702875D01*
X61051311Y-29695369D01*
X61042686Y-29658170D01*
X61015502Y-29662133D01*
X60968527Y-29708367D01*
X60900531Y-29797981D01*
X60841532Y-29884454D01*
X60744144Y-30033730D01*
X60674392Y-30146945D01*
X60629734Y-30228903D01*
X60607627Y-30284408D01*
X60605529Y-30318264D01*
X59195564Y-30318264D01*
X59188006Y-30211014D01*
X60412099Y-30211014D01*
X60436989Y-30220649D01*
X60456872Y-30200605D01*
X60498724Y-30145993D01*
X60556725Y-30064772D01*
X60625056Y-29964899D01*
X60636640Y-29947599D01*
X60726733Y-29811663D01*
X60791041Y-29711577D01*
X60832696Y-29641422D01*
X60854831Y-29595282D01*
X60860581Y-29567241D01*
X60853078Y-29551381D01*
X60848308Y-29547862D01*
X60815838Y-29541191D01*
X60781486Y-29566500D01*
X60739455Y-29629726D01*
X60704805Y-29694889D01*
X60656750Y-29781071D01*
X60591648Y-29886733D01*
X60522702Y-29990542D01*
X60515300Y-30001145D01*
X60447455Y-30104274D01*
X60413395Y-30173274D01*
X60412099Y-30211014D01*
X59188006Y-30211014D01*
X59186763Y-30193383D01*
X59180576Y-30096770D01*
X60213240Y-30096770D01*
X60225410Y-30120049D01*
X60260058Y-30101318D01*
X60314389Y-30042635D01*
X60350403Y-29995775D01*
X60421738Y-29893152D01*
X60491991Y-29782687D01*
X60555260Y-29674791D01*
X60605641Y-29579873D01*
X60637230Y-29508340D01*
X60645040Y-29476256D01*
X60635584Y-29438935D01*
X60608925Y-29445911D01*
X60567629Y-29494687D01*
X60514257Y-29582763D01*
X60491305Y-29626092D01*
X60431361Y-29736122D01*
X60363561Y-29850644D01*
X60307155Y-29938020D01*
X60258832Y-30011335D01*
X60224934Y-30068945D01*
X60213240Y-30096770D01*
X59180576Y-30096770D01*
X59174204Y-29997292D01*
X59173447Y-29983774D01*
X60054913Y-29983774D01*
X60067118Y-29992871D01*
X60100392Y-29968022D01*
X60150345Y-29910424D01*
X60204631Y-29833570D01*
X60277587Y-29717188D01*
X60340069Y-29608524D01*
X60386895Y-29517341D01*
X60412881Y-29453402D01*
X60416440Y-29434531D01*
X60395901Y-29411062D01*
X60378592Y-29408120D01*
X60348660Y-29429924D01*
X60307818Y-29488056D01*
X60266020Y-29566870D01*
X60212221Y-29675189D01*
X60151413Y-29788951D01*
X60111271Y-29858970D01*
X60068168Y-29939538D01*
X60054913Y-29983774D01*
X59173447Y-29983774D01*
X59171181Y-29943368D01*
X59324240Y-29943368D01*
X59334693Y-29960851D01*
X59359248Y-29944771D01*
X59387693Y-29906171D01*
X59409817Y-29856095D01*
X59411059Y-29851577D01*
X59883040Y-29851577D01*
X59894944Y-29868876D01*
X59926743Y-29847542D01*
X59972559Y-29792718D01*
X60005109Y-29744670D01*
X60057582Y-29654873D01*
X60105571Y-29560526D01*
X60142369Y-29476112D01*
X60161265Y-29416116D01*
X60162440Y-29405018D01*
X60142398Y-29384829D01*
X60130690Y-29383558D01*
X60110474Y-29404879D01*
X60074929Y-29460457D01*
X60030270Y-29538543D01*
X59982713Y-29627391D01*
X59938475Y-29715252D01*
X59903772Y-29790380D01*
X59884819Y-29841026D01*
X59883040Y-29851577D01*
X59411059Y-29851577D01*
X59411884Y-29848580D01*
X59420081Y-29795875D01*
X59416249Y-29771062D01*
X59398752Y-29782085D01*
X59371878Y-29823091D01*
X59344857Y-29876797D01*
X59326918Y-29925917D01*
X59324240Y-29943368D01*
X59171181Y-29943368D01*
X59164221Y-29819223D01*
X59157853Y-29677668D01*
X59741934Y-29677668D01*
X59743914Y-29685476D01*
X59758749Y-29705859D01*
X59779159Y-29694141D01*
X59809043Y-29645376D01*
X59852303Y-29554620D01*
X59859164Y-29539364D01*
X59891776Y-29465117D01*
X59904744Y-29426001D01*
X59899128Y-29410755D01*
X59875990Y-29408123D01*
X59871528Y-29408120D01*
X59840476Y-29429952D01*
X59804364Y-29484399D01*
X59770819Y-29554885D01*
X59747467Y-29624833D01*
X59741934Y-29677668D01*
X59157853Y-29677668D01*
X59157300Y-29665393D01*
X59157041Y-29655895D01*
X59276142Y-29655895D01*
X59288889Y-29652242D01*
X59310793Y-29625515D01*
X59340843Y-29579034D01*
X59349640Y-29553548D01*
X59338638Y-29533154D01*
X59314374Y-29545078D01*
X59289961Y-29578217D01*
X59279043Y-29613309D01*
X59276142Y-29655895D01*
X59157041Y-29655895D01*
X59153929Y-29542017D01*
X59154153Y-29512718D01*
X59578240Y-29512718D01*
X59593889Y-29526489D01*
X59603640Y-29522420D01*
X59628091Y-29488772D01*
X59629040Y-29481321D01*
X59613390Y-29467550D01*
X59603640Y-29471620D01*
X59579188Y-29505267D01*
X59578240Y-29512718D01*
X59154153Y-29512718D01*
X59154593Y-29455312D01*
X59159778Y-29411495D01*
X59161673Y-29408126D01*
X59212548Y-29380294D01*
X59303888Y-29352368D01*
X59425391Y-29326085D01*
X59566754Y-29303177D01*
X59717676Y-29285379D01*
X59867855Y-29274424D01*
X59971940Y-29271744D01*
X60281143Y-29291563D01*
G37*
X60281143Y-29291563D02*
X60559858Y-29351903D01*
X60808372Y-29452868D01*
X61026972Y-29594564D01*
X61142593Y-29697874D01*
X61258438Y-29830793D01*
X61334803Y-29963993D01*
X61377365Y-30111819D01*
X61391802Y-30288614D01*
X61391826Y-30327534D01*
X61387117Y-30443027D01*
X61371905Y-30532378D01*
X61340578Y-30620006D01*
X61309241Y-30686947D01*
X61248941Y-30789730D01*
X61168051Y-30902316D01*
X61083864Y-31000663D01*
X61082847Y-31001718D01*
X60937140Y-31152590D01*
X61121290Y-31387691D01*
X61211134Y-31506362D01*
X61269075Y-31594079D01*
X61297821Y-31657070D01*
X61300085Y-31701563D01*
X61278576Y-31733784D01*
X61273690Y-31737773D01*
X61233733Y-31757888D01*
X61157592Y-31788161D01*
X61057804Y-31824378D01*
X60946909Y-31862323D01*
X60837445Y-31897780D01*
X60741951Y-31926536D01*
X60672967Y-31944374D01*
X60647961Y-31948120D01*
X60607408Y-31929240D01*
X60546098Y-31878173D01*
X60473882Y-31803271D01*
X60464469Y-31792521D01*
X60397782Y-31716324D01*
X60356491Y-31674086D01*
X60332739Y-31661362D01*
X60318668Y-31673706D01*
X60307422Y-31703673D01*
X60262160Y-31766580D01*
X60217456Y-31789421D01*
X60162321Y-31797621D01*
X60072215Y-31803160D01*
X59957692Y-31806178D01*
X59829304Y-31806816D01*
X59697604Y-31805212D01*
X59573145Y-31801507D01*
X59466479Y-31795839D01*
X59388161Y-31788348D01*
X59348742Y-31779174D01*
X59347070Y-31777910D01*
X59335495Y-31743498D01*
X59321632Y-31664943D01*
X59305969Y-31548464D01*
X59288992Y-31400276D01*
X59271186Y-31226596D01*
X59253040Y-31033640D01*
X59235038Y-30827624D01*
X59229056Y-30754320D01*
X60314840Y-30754320D01*
X60317251Y-30854985D01*
X60323710Y-30933034D01*
X60333054Y-30977135D01*
X60338291Y-30982920D01*
X60371043Y-30967837D01*
X60423809Y-30930259D01*
X60440803Y-30916394D01*
X60513102Y-30841807D01*
X60562862Y-30763434D01*
X60582669Y-30694645D01*
X60578839Y-30667542D01*
X60544552Y-30625378D01*
X60482668Y-30579081D01*
X60473158Y-30573926D01*
X61030656Y-30573926D01*
X61042859Y-30649469D01*
X61053504Y-30671283D01*
X61067453Y-30658817D01*
X61084508Y-30614830D01*
X61259964Y-30614830D01*
X61260939Y-30641202D01*
X61272452Y-30627052D01*
X61291369Y-30589220D01*
X61318133Y-30507531D01*
X61328921Y-30424120D01*
X61324460Y-30372596D01*
X61312724Y-30364187D01*
X61297132Y-30392345D01*
X61281102Y-30450525D01*
X61268052Y-30532178D01*
X61266881Y-30542933D01*
X61259964Y-30614830D01*
X61084508Y-30614830D01*
X61087608Y-30606836D01*
X61113302Y-30522469D01*
X61151518Y-30408160D01*
X61198268Y-30292562D01*
X61240751Y-30205789D01*
X61286604Y-30109267D01*
X61298935Y-30042779D01*
X61296025Y-30029821D01*
X61281341Y-30006766D01*
X61260262Y-30016155D01*
X61224001Y-30063129D01*
X61213893Y-30077871D01*
X61106152Y-30261427D01*
X61045156Y-30426504D01*
X61030656Y-30573926D01*
X60473158Y-30573926D01*
X60413444Y-30541560D01*
X60357138Y-30525726D01*
X60356291Y-30525720D01*
X60336316Y-30532649D01*
X60323881Y-30559557D01*
X60317322Y-30615623D01*
X60314974Y-30710026D01*
X60314840Y-30754320D01*
X59229056Y-30754320D01*
X59217667Y-30614765D01*
X59209552Y-30508169D01*
X60772642Y-30508169D01*
X60780595Y-30541338D01*
X60805762Y-30527140D01*
X60847866Y-30465898D01*
X60906632Y-30357940D01*
X60915675Y-30340105D01*
X60976527Y-30227335D01*
X61046687Y-30109124D01*
X61108458Y-30014750D01*
X61164728Y-29928375D01*
X61189977Y-29870492D01*
X61187846Y-29832455D01*
X61186394Y-29829636D01*
X61161891Y-29825347D01*
X61120675Y-29859014D01*
X61067640Y-29922612D01*
X61007677Y-30008119D01*
X60945678Y-30107513D01*
X60886534Y-30212771D01*
X60835139Y-30315870D01*
X60796384Y-30408788D01*
X60775162Y-30483503D01*
X60772642Y-30508169D01*
X59209552Y-30508169D01*
X59201413Y-30401279D01*
X59195564Y-30318264D01*
X60605529Y-30318264D01*
X60608445Y-30324955D01*
X60628101Y-30344379D01*
X60631708Y-30343259D01*
X60647668Y-30320481D01*
X60686839Y-30263274D01*
X60743994Y-30179308D01*
X60813908Y-30076248D01*
X60844936Y-30030420D01*
X60918413Y-29919850D01*
X60980359Y-29822856D01*
X61025648Y-29747757D01*
X61049155Y-29702875D01*
X61051311Y-29695369D01*
X61042686Y-29658170D01*
X61015502Y-29662133D01*
X60968527Y-29708367D01*
X60900531Y-29797981D01*
X60841532Y-29884454D01*
X60744144Y-30033730D01*
X60674392Y-30146945D01*
X60629734Y-30228903D01*
X60607627Y-30284408D01*
X60605529Y-30318264D01*
X59195564Y-30318264D01*
X59188006Y-30211014D01*
X60412099Y-30211014D01*
X60436989Y-30220649D01*
X60456872Y-30200605D01*
X60498724Y-30145993D01*
X60556725Y-30064772D01*
X60625056Y-29964899D01*
X60636640Y-29947599D01*
X60726733Y-29811663D01*
X60791041Y-29711577D01*
X60832696Y-29641422D01*
X60854831Y-29595282D01*
X60860581Y-29567241D01*
X60853078Y-29551381D01*
X60848308Y-29547862D01*
X60815838Y-29541191D01*
X60781486Y-29566500D01*
X60739455Y-29629726D01*
X60704805Y-29694889D01*
X60656750Y-29781071D01*
X60591648Y-29886733D01*
X60522702Y-29990542D01*
X60515300Y-30001145D01*
X60447455Y-30104274D01*
X60413395Y-30173274D01*
X60412099Y-30211014D01*
X59188006Y-30211014D01*
X59186763Y-30193383D01*
X59180576Y-30096770D01*
X60213240Y-30096770D01*
X60225410Y-30120049D01*
X60260058Y-30101318D01*
X60314389Y-30042635D01*
X60350403Y-29995775D01*
X60421738Y-29893152D01*
X60491991Y-29782687D01*
X60555260Y-29674791D01*
X60605641Y-29579873D01*
X60637230Y-29508340D01*
X60645040Y-29476256D01*
X60635584Y-29438935D01*
X60608925Y-29445911D01*
X60567629Y-29494687D01*
X60514257Y-29582763D01*
X60491305Y-29626092D01*
X60431361Y-29736122D01*
X60363561Y-29850644D01*
X60307155Y-29938020D01*
X60258832Y-30011335D01*
X60224934Y-30068945D01*
X60213240Y-30096770D01*
X59180576Y-30096770D01*
X59174204Y-29997292D01*
X59173447Y-29983774D01*
X60054913Y-29983774D01*
X60067118Y-29992871D01*
X60100392Y-29968022D01*
X60150345Y-29910424D01*
X60204631Y-29833570D01*
X60277587Y-29717188D01*
X60340069Y-29608524D01*
X60386895Y-29517341D01*
X60412881Y-29453402D01*
X60416440Y-29434531D01*
X60395901Y-29411062D01*
X60378592Y-29408120D01*
X60348660Y-29429924D01*
X60307818Y-29488056D01*
X60266020Y-29566870D01*
X60212221Y-29675189D01*
X60151413Y-29788951D01*
X60111271Y-29858970D01*
X60068168Y-29939538D01*
X60054913Y-29983774D01*
X59173447Y-29983774D01*
X59171181Y-29943368D01*
X59324240Y-29943368D01*
X59334693Y-29960851D01*
X59359248Y-29944771D01*
X59387693Y-29906171D01*
X59409817Y-29856095D01*
X59411059Y-29851577D01*
X59883040Y-29851577D01*
X59894944Y-29868876D01*
X59926743Y-29847542D01*
X59972559Y-29792718D01*
X60005109Y-29744670D01*
X60057582Y-29654873D01*
X60105571Y-29560526D01*
X60142369Y-29476112D01*
X60161265Y-29416116D01*
X60162440Y-29405018D01*
X60142398Y-29384829D01*
X60130690Y-29383558D01*
X60110474Y-29404879D01*
X60074929Y-29460457D01*
X60030270Y-29538543D01*
X59982713Y-29627391D01*
X59938475Y-29715252D01*
X59903772Y-29790380D01*
X59884819Y-29841026D01*
X59883040Y-29851577D01*
X59411059Y-29851577D01*
X59411884Y-29848580D01*
X59420081Y-29795875D01*
X59416249Y-29771062D01*
X59398752Y-29782085D01*
X59371878Y-29823091D01*
X59344857Y-29876797D01*
X59326918Y-29925917D01*
X59324240Y-29943368D01*
X59171181Y-29943368D01*
X59164221Y-29819223D01*
X59157853Y-29677668D01*
X59741934Y-29677668D01*
X59743914Y-29685476D01*
X59758749Y-29705859D01*
X59779159Y-29694141D01*
X59809043Y-29645376D01*
X59852303Y-29554620D01*
X59859164Y-29539364D01*
X59891776Y-29465117D01*
X59904744Y-29426001D01*
X59899128Y-29410755D01*
X59875990Y-29408123D01*
X59871528Y-29408120D01*
X59840476Y-29429952D01*
X59804364Y-29484399D01*
X59770819Y-29554885D01*
X59747467Y-29624833D01*
X59741934Y-29677668D01*
X59157853Y-29677668D01*
X59157300Y-29665393D01*
X59157041Y-29655895D01*
X59276142Y-29655895D01*
X59288889Y-29652242D01*
X59310793Y-29625515D01*
X59340843Y-29579034D01*
X59349640Y-29553548D01*
X59338638Y-29533154D01*
X59314374Y-29545078D01*
X59289961Y-29578217D01*
X59279043Y-29613309D01*
X59276142Y-29655895D01*
X59157041Y-29655895D01*
X59153929Y-29542017D01*
X59154153Y-29512718D01*
X59578240Y-29512718D01*
X59593889Y-29526489D01*
X59603640Y-29522420D01*
X59628091Y-29488772D01*
X59629040Y-29481321D01*
X59613390Y-29467550D01*
X59603640Y-29471620D01*
X59579188Y-29505267D01*
X59578240Y-29512718D01*
X59154153Y-29512718D01*
X59154593Y-29455312D01*
X59159778Y-29411495D01*
X59161673Y-29408126D01*
X59212548Y-29380294D01*
X59303888Y-29352368D01*
X59425391Y-29326085D01*
X59566754Y-29303177D01*
X59717676Y-29285379D01*
X59867855Y-29274424D01*
X59971940Y-29271744D01*
X60281143Y-29291563D01*
G36*
X62694356Y-29828787D02*
G01*
X62808206Y-29834056D01*
X62897096Y-29842043D01*
X62950213Y-29852724D01*
X62958797Y-29857512D01*
X62970504Y-29888282D01*
X62990671Y-29962074D01*
X63017839Y-30072088D01*
X63050549Y-30211524D01*
X63087341Y-30373583D01*
X63126758Y-30551465D01*
X63167338Y-30738368D01*
X63207625Y-30927494D01*
X63246158Y-31112043D01*
X63281478Y-31285214D01*
X63312126Y-31440208D01*
X63336644Y-31570224D01*
X63353572Y-31668463D01*
X63361451Y-31728125D01*
X63361833Y-31735852D01*
X63346289Y-31806819D01*
X63296802Y-31840097D01*
X63240112Y-31841204D01*
X63197544Y-31838227D01*
X63117465Y-31834539D01*
X63013147Y-31830706D01*
X62943740Y-31828552D01*
X62800234Y-31823355D01*
X62699673Y-31816179D01*
X62634202Y-31805128D01*
X62595965Y-31788305D01*
X62577108Y-31763814D01*
X62570851Y-31738528D01*
X62544707Y-31693982D01*
X62495722Y-31679082D01*
X62442887Y-31694651D01*
X62409589Y-31731545D01*
X62396636Y-31751132D01*
X62375606Y-31765010D01*
X62338546Y-31774158D01*
X62277504Y-31779551D01*
X62184526Y-31782165D01*
X62051659Y-31782979D01*
X61990489Y-31783020D01*
X61597540Y-31783020D01*
X61590455Y-31719520D01*
X61595275Y-31680503D01*
X61612101Y-31600058D01*
X61639115Y-31484942D01*
X61674494Y-31341913D01*
X61716419Y-31177731D01*
X61763069Y-30999153D01*
X61812624Y-30812938D01*
X61821649Y-30779591D01*
X62015183Y-30779591D01*
X62024948Y-30860762D01*
X62045153Y-30912631D01*
X62075848Y-30925151D01*
X62076919Y-30924818D01*
X62092253Y-30895925D01*
X62106446Y-30825634D01*
X62117769Y-30723342D01*
X62120286Y-30688794D01*
X62120837Y-30684079D01*
X62283340Y-30684079D01*
X62285542Y-30800635D01*
X62293067Y-30875518D01*
X62307293Y-30917701D01*
X62321440Y-30932251D01*
X62339461Y-30936674D01*
X62352202Y-30918310D01*
X62361485Y-30869363D01*
X62369131Y-30782041D01*
X62373630Y-30709075D01*
X62377281Y-30665147D01*
X62523187Y-30665147D01*
X62526536Y-30801463D01*
X62548171Y-30921842D01*
X62587236Y-31014049D01*
X62620838Y-31052507D01*
X62656624Y-31075233D01*
X62668715Y-31063240D01*
X62659401Y-31011159D01*
X62651205Y-30981405D01*
X62632328Y-30870118D01*
X62627299Y-30731868D01*
X62634461Y-30608228D01*
X62776980Y-30608228D01*
X62778597Y-30815161D01*
X62827238Y-31013984D01*
X62829315Y-31019430D01*
X62878108Y-31124817D01*
X62933525Y-31211406D01*
X62987955Y-31269029D01*
X63030150Y-31287720D01*
X63032296Y-31266897D01*
X63015095Y-31211784D01*
X62982148Y-31133409D01*
X62974155Y-31116270D01*
X62935133Y-31029126D01*
X62911136Y-30957081D01*
X62898663Y-30882116D01*
X62894213Y-30786209D01*
X62893967Y-30703520D01*
X62894135Y-30696881D01*
X63018497Y-30696881D01*
X63021166Y-30781588D01*
X63028684Y-30852848D01*
X63031720Y-30868620D01*
X63052345Y-30941231D01*
X63082694Y-31024675D01*
X63117734Y-31107991D01*
X63152435Y-31180219D01*
X63181765Y-31230398D01*
X63200693Y-31247567D01*
X63203927Y-31243756D01*
X63201681Y-31211652D01*
X63190153Y-31139371D01*
X63171040Y-31036338D01*
X63146034Y-30911975D01*
X63134043Y-30854999D01*
X63105984Y-30725711D01*
X63081068Y-30615210D01*
X63061397Y-30532497D01*
X63049074Y-30486570D01*
X63046528Y-30480341D01*
X63034694Y-30490456D01*
X63025751Y-30538477D01*
X63020189Y-30611564D01*
X63018497Y-30696881D01*
X62894135Y-30696881D01*
X62897293Y-30572462D01*
X62907628Y-30475944D01*
X62927468Y-30397903D01*
X62950259Y-30341464D01*
X62986446Y-30239594D01*
X62986583Y-30169710D01*
X62985507Y-30166597D01*
X62970894Y-30136242D01*
X62954223Y-30139014D01*
X62925966Y-30179745D01*
X62911376Y-30204201D01*
X62821526Y-30401727D01*
X62776980Y-30608228D01*
X62634461Y-30608228D01*
X62635609Y-30588422D01*
X62656751Y-30461548D01*
X62663949Y-30435080D01*
X62699539Y-30342774D01*
X62751390Y-30237302D01*
X62790529Y-30170120D01*
X62860211Y-30058232D01*
X62904007Y-29981311D01*
X62925175Y-29932712D01*
X62926970Y-29905793D01*
X62923079Y-29899693D01*
X62892959Y-29901206D01*
X62846377Y-29940289D01*
X62789066Y-30008814D01*
X62726757Y-30098654D01*
X62665179Y-30201681D01*
X62610065Y-30309769D01*
X62574768Y-30393644D01*
X62538979Y-30525129D01*
X62523187Y-30665147D01*
X62377281Y-30665147D01*
X62385485Y-30566464D01*
X62404595Y-30456964D01*
X62434537Y-30363019D01*
X62452817Y-30320447D01*
X62505660Y-30217184D01*
X62571186Y-30104821D01*
X62612135Y-30041699D01*
X62664803Y-29957547D01*
X62682669Y-29908457D01*
X62674205Y-29894008D01*
X62635628Y-29906141D01*
X62581169Y-29956634D01*
X62516751Y-30037962D01*
X62448294Y-30142601D01*
X62381720Y-30263027D01*
X62378009Y-30270402D01*
X62331399Y-30367645D01*
X62303229Y-30443498D01*
X62288908Y-30518023D01*
X62283844Y-30611285D01*
X62283340Y-30684079D01*
X62120837Y-30684079D01*
X62140535Y-30515773D01*
X62180939Y-30365123D01*
X62248244Y-30216954D01*
X62322717Y-30091928D01*
X62371120Y-30014167D01*
X62392414Y-29970672D01*
X62388277Y-29953850D01*
X62360384Y-29956110D01*
X62352277Y-29958138D01*
X62306965Y-29989565D01*
X62249434Y-30057645D01*
X62186679Y-30152000D01*
X62125689Y-30262255D01*
X62079585Y-30362839D01*
X62048061Y-30460742D01*
X62026788Y-30569534D01*
X62015812Y-30679166D01*
X62015183Y-30779591D01*
X61821649Y-30779591D01*
X61863264Y-30625845D01*
X61913168Y-30444631D01*
X61960516Y-30276056D01*
X62003488Y-30126877D01*
X62024728Y-30055820D01*
X62067440Y-30055820D01*
X62080140Y-30068520D01*
X62092840Y-30055820D01*
X62080140Y-30043120D01*
X62067440Y-30055820D01*
X62024728Y-30055820D01*
X62040262Y-30003854D01*
X62042986Y-29995318D01*
X62092840Y-29995318D01*
X62108489Y-30009089D01*
X62118240Y-30005020D01*
X62142691Y-29971372D01*
X62143640Y-29963921D01*
X62127990Y-29950150D01*
X62118240Y-29954220D01*
X62093788Y-29987867D01*
X62092840Y-29995318D01*
X62042986Y-29995318D01*
X62069020Y-29913744D01*
X62077656Y-29890720D01*
X62423040Y-29890720D01*
X62432333Y-29911627D01*
X62439973Y-29907653D01*
X62443013Y-29877509D01*
X62439973Y-29873786D01*
X62424873Y-29877273D01*
X62423040Y-29890720D01*
X62077656Y-29890720D01*
X62087939Y-29863306D01*
X62092501Y-29855591D01*
X62129081Y-29844049D01*
X62205568Y-29835369D01*
X62311150Y-29829527D01*
X62435016Y-29826499D01*
X62566355Y-29826260D01*
X62694356Y-29828787D01*
G37*
X62694356Y-29828787D02*
X62808206Y-29834056D01*
X62897096Y-29842043D01*
X62950213Y-29852724D01*
X62958797Y-29857512D01*
X62970504Y-29888282D01*
X62990671Y-29962074D01*
X63017839Y-30072088D01*
X63050549Y-30211524D01*
X63087341Y-30373583D01*
X63126758Y-30551465D01*
X63167338Y-30738368D01*
X63207625Y-30927494D01*
X63246158Y-31112043D01*
X63281478Y-31285214D01*
X63312126Y-31440208D01*
X63336644Y-31570224D01*
X63353572Y-31668463D01*
X63361451Y-31728125D01*
X63361833Y-31735852D01*
X63346289Y-31806819D01*
X63296802Y-31840097D01*
X63240112Y-31841204D01*
X63197544Y-31838227D01*
X63117465Y-31834539D01*
X63013147Y-31830706D01*
X62943740Y-31828552D01*
X62800234Y-31823355D01*
X62699673Y-31816179D01*
X62634202Y-31805128D01*
X62595965Y-31788305D01*
X62577108Y-31763814D01*
X62570851Y-31738528D01*
X62544707Y-31693982D01*
X62495722Y-31679082D01*
X62442887Y-31694651D01*
X62409589Y-31731545D01*
X62396636Y-31751132D01*
X62375606Y-31765010D01*
X62338546Y-31774158D01*
X62277504Y-31779551D01*
X62184526Y-31782165D01*
X62051659Y-31782979D01*
X61990489Y-31783020D01*
X61597540Y-31783020D01*
X61590455Y-31719520D01*
X61595275Y-31680503D01*
X61612101Y-31600058D01*
X61639115Y-31484942D01*
X61674494Y-31341913D01*
X61716419Y-31177731D01*
X61763069Y-30999153D01*
X61812624Y-30812938D01*
X61821649Y-30779591D01*
X62015183Y-30779591D01*
X62024948Y-30860762D01*
X62045153Y-30912631D01*
X62075848Y-30925151D01*
X62076919Y-30924818D01*
X62092253Y-30895925D01*
X62106446Y-30825634D01*
X62117769Y-30723342D01*
X62120286Y-30688794D01*
X62120837Y-30684079D01*
X62283340Y-30684079D01*
X62285542Y-30800635D01*
X62293067Y-30875518D01*
X62307293Y-30917701D01*
X62321440Y-30932251D01*
X62339461Y-30936674D01*
X62352202Y-30918310D01*
X62361485Y-30869363D01*
X62369131Y-30782041D01*
X62373630Y-30709075D01*
X62377281Y-30665147D01*
X62523187Y-30665147D01*
X62526536Y-30801463D01*
X62548171Y-30921842D01*
X62587236Y-31014049D01*
X62620838Y-31052507D01*
X62656624Y-31075233D01*
X62668715Y-31063240D01*
X62659401Y-31011159D01*
X62651205Y-30981405D01*
X62632328Y-30870118D01*
X62627299Y-30731868D01*
X62634461Y-30608228D01*
X62776980Y-30608228D01*
X62778597Y-30815161D01*
X62827238Y-31013984D01*
X62829315Y-31019430D01*
X62878108Y-31124817D01*
X62933525Y-31211406D01*
X62987955Y-31269029D01*
X63030150Y-31287720D01*
X63032296Y-31266897D01*
X63015095Y-31211784D01*
X62982148Y-31133409D01*
X62974155Y-31116270D01*
X62935133Y-31029126D01*
X62911136Y-30957081D01*
X62898663Y-30882116D01*
X62894213Y-30786209D01*
X62893967Y-30703520D01*
X62894135Y-30696881D01*
X63018497Y-30696881D01*
X63021166Y-30781588D01*
X63028684Y-30852848D01*
X63031720Y-30868620D01*
X63052345Y-30941231D01*
X63082694Y-31024675D01*
X63117734Y-31107991D01*
X63152435Y-31180219D01*
X63181765Y-31230398D01*
X63200693Y-31247567D01*
X63203927Y-31243756D01*
X63201681Y-31211652D01*
X63190153Y-31139371D01*
X63171040Y-31036338D01*
X63146034Y-30911975D01*
X63134043Y-30854999D01*
X63105984Y-30725711D01*
X63081068Y-30615210D01*
X63061397Y-30532497D01*
X63049074Y-30486570D01*
X63046528Y-30480341D01*
X63034694Y-30490456D01*
X63025751Y-30538477D01*
X63020189Y-30611564D01*
X63018497Y-30696881D01*
X62894135Y-30696881D01*
X62897293Y-30572462D01*
X62907628Y-30475944D01*
X62927468Y-30397903D01*
X62950259Y-30341464D01*
X62986446Y-30239594D01*
X62986583Y-30169710D01*
X62985507Y-30166597D01*
X62970894Y-30136242D01*
X62954223Y-30139014D01*
X62925966Y-30179745D01*
X62911376Y-30204201D01*
X62821526Y-30401727D01*
X62776980Y-30608228D01*
X62634461Y-30608228D01*
X62635609Y-30588422D01*
X62656751Y-30461548D01*
X62663949Y-30435080D01*
X62699539Y-30342774D01*
X62751390Y-30237302D01*
X62790529Y-30170120D01*
X62860211Y-30058232D01*
X62904007Y-29981311D01*
X62925175Y-29932712D01*
X62926970Y-29905793D01*
X62923079Y-29899693D01*
X62892959Y-29901206D01*
X62846377Y-29940289D01*
X62789066Y-30008814D01*
X62726757Y-30098654D01*
X62665179Y-30201681D01*
X62610065Y-30309769D01*
X62574768Y-30393644D01*
X62538979Y-30525129D01*
X62523187Y-30665147D01*
X62377281Y-30665147D01*
X62385485Y-30566464D01*
X62404595Y-30456964D01*
X62434537Y-30363019D01*
X62452817Y-30320447D01*
X62505660Y-30217184D01*
X62571186Y-30104821D01*
X62612135Y-30041699D01*
X62664803Y-29957547D01*
X62682669Y-29908457D01*
X62674205Y-29894008D01*
X62635628Y-29906141D01*
X62581169Y-29956634D01*
X62516751Y-30037962D01*
X62448294Y-30142601D01*
X62381720Y-30263027D01*
X62378009Y-30270402D01*
X62331399Y-30367645D01*
X62303229Y-30443498D01*
X62288908Y-30518023D01*
X62283844Y-30611285D01*
X62283340Y-30684079D01*
X62120837Y-30684079D01*
X62140535Y-30515773D01*
X62180939Y-30365123D01*
X62248244Y-30216954D01*
X62322717Y-30091928D01*
X62371120Y-30014167D01*
X62392414Y-29970672D01*
X62388277Y-29953850D01*
X62360384Y-29956110D01*
X62352277Y-29958138D01*
X62306965Y-29989565D01*
X62249434Y-30057645D01*
X62186679Y-30152000D01*
X62125689Y-30262255D01*
X62079585Y-30362839D01*
X62048061Y-30460742D01*
X62026788Y-30569534D01*
X62015812Y-30679166D01*
X62015183Y-30779591D01*
X61821649Y-30779591D01*
X61863264Y-30625845D01*
X61913168Y-30444631D01*
X61960516Y-30276056D01*
X62003488Y-30126877D01*
X62024728Y-30055820D01*
X62067440Y-30055820D01*
X62080140Y-30068520D01*
X62092840Y-30055820D01*
X62080140Y-30043120D01*
X62067440Y-30055820D01*
X62024728Y-30055820D01*
X62040262Y-30003854D01*
X62042986Y-29995318D01*
X62092840Y-29995318D01*
X62108489Y-30009089D01*
X62118240Y-30005020D01*
X62142691Y-29971372D01*
X62143640Y-29963921D01*
X62127990Y-29950150D01*
X62118240Y-29954220D01*
X62093788Y-29987867D01*
X62092840Y-29995318D01*
X62042986Y-29995318D01*
X62069020Y-29913744D01*
X62077656Y-29890720D01*
X62423040Y-29890720D01*
X62432333Y-29911627D01*
X62439973Y-29907653D01*
X62443013Y-29877509D01*
X62439973Y-29873786D01*
X62424873Y-29877273D01*
X62423040Y-29890720D01*
X62077656Y-29890720D01*
X62087939Y-29863306D01*
X62092501Y-29855591D01*
X62129081Y-29844049D01*
X62205568Y-29835369D01*
X62311150Y-29829527D01*
X62435016Y-29826499D01*
X62566355Y-29826260D01*
X62694356Y-29828787D01*
G36*
X67799756Y-29828787D02*
G01*
X67913606Y-29834056D01*
X68002496Y-29842043D01*
X68055613Y-29852724D01*
X68064197Y-29857512D01*
X68075904Y-29888282D01*
X68096071Y-29962074D01*
X68123239Y-30072088D01*
X68155949Y-30211524D01*
X68192741Y-30373583D01*
X68232158Y-30551465D01*
X68272738Y-30738368D01*
X68313025Y-30927494D01*
X68351558Y-31112043D01*
X68386878Y-31285214D01*
X68417526Y-31440208D01*
X68442044Y-31570224D01*
X68458972Y-31668463D01*
X68466851Y-31728125D01*
X68467233Y-31735852D01*
X68451689Y-31806819D01*
X68402202Y-31840097D01*
X68345512Y-31841204D01*
X68302944Y-31838227D01*
X68222865Y-31834539D01*
X68118547Y-31830706D01*
X68049140Y-31828552D01*
X67905634Y-31823355D01*
X67805073Y-31816179D01*
X67739602Y-31805128D01*
X67701365Y-31788305D01*
X67682508Y-31763814D01*
X67676251Y-31738528D01*
X67650107Y-31693982D01*
X67601122Y-31679082D01*
X67548287Y-31694651D01*
X67514989Y-31731545D01*
X67502036Y-31751132D01*
X67481006Y-31765010D01*
X67443946Y-31774158D01*
X67382904Y-31779551D01*
X67289926Y-31782165D01*
X67157059Y-31782979D01*
X67095889Y-31783020D01*
X66702940Y-31783020D01*
X66695855Y-31719520D01*
X66842640Y-31719520D01*
X66861968Y-31744181D01*
X66868040Y-31744920D01*
X66892701Y-31725591D01*
X66893440Y-31719520D01*
X66874111Y-31694858D01*
X66868040Y-31694120D01*
X66843378Y-31713448D01*
X66842640Y-31719520D01*
X66695855Y-31719520D01*
X66700675Y-31680503D01*
X66717501Y-31600058D01*
X66720118Y-31588904D01*
X66766440Y-31588904D01*
X66787449Y-31642537D01*
X66848903Y-31666613D01*
X66849883Y-31666714D01*
X66855566Y-31650011D01*
X66843397Y-31619334D01*
X66807333Y-31567528D01*
X66779251Y-31554507D01*
X66766575Y-31583206D01*
X66766440Y-31588904D01*
X66720118Y-31588904D01*
X66744515Y-31484942D01*
X66779894Y-31341913D01*
X66787684Y-31311403D01*
X66838304Y-31311403D01*
X66841758Y-31360753D01*
X66870967Y-31431529D01*
X66916638Y-31509352D01*
X66969478Y-31579844D01*
X67020194Y-31628625D01*
X67052190Y-31642351D01*
X67089912Y-31635220D01*
X67096640Y-31626493D01*
X67083702Y-31596285D01*
X67050573Y-31537834D01*
X67005774Y-31464806D01*
X66957828Y-31390864D01*
X66915257Y-31329671D01*
X66896312Y-31305316D01*
X66865789Y-31274391D01*
X66848870Y-31285269D01*
X66838304Y-31311403D01*
X66787684Y-31311403D01*
X66821819Y-31177731D01*
X66845425Y-31087364D01*
X66928460Y-31087364D01*
X66959836Y-31187758D01*
X67026763Y-31304291D01*
X67132202Y-31443458D01*
X67134685Y-31446470D01*
X67205275Y-31525304D01*
X67260980Y-31575316D01*
X67297259Y-31594828D01*
X67309572Y-31582161D01*
X67293380Y-31535634D01*
X67272048Y-31497270D01*
X67223814Y-31419407D01*
X67177198Y-31347573D01*
X67168903Y-31335338D01*
X67135708Y-31280057D01*
X67090313Y-31195598D01*
X67041783Y-31098915D01*
X67035253Y-31085365D01*
X66947413Y-30902074D01*
X66929677Y-30996615D01*
X66928460Y-31087364D01*
X66845425Y-31087364D01*
X66868469Y-30999153D01*
X66918024Y-30812938D01*
X66926535Y-30781492D01*
X67089997Y-30781492D01*
X67125411Y-30981921D01*
X67145600Y-31040721D01*
X67183769Y-31122029D01*
X67238716Y-31217550D01*
X67303480Y-31317535D01*
X67371101Y-31412234D01*
X67434618Y-31491898D01*
X67487071Y-31546776D01*
X67521408Y-31567120D01*
X67543736Y-31551920D01*
X67538846Y-31535370D01*
X67517788Y-31499949D01*
X67477646Y-31433737D01*
X67425983Y-31349193D01*
X67409338Y-31322069D01*
X67291437Y-31098686D01*
X67221525Y-30887064D01*
X67199674Y-30682090D01*
X67203429Y-30653025D01*
X67347542Y-30653025D01*
X67355902Y-30865728D01*
X67414546Y-31074211D01*
X67426564Y-31102512D01*
X67471696Y-31189700D01*
X67531270Y-31284786D01*
X67597517Y-31377603D01*
X67662670Y-31457985D01*
X67718960Y-31515764D01*
X67758617Y-31540773D01*
X67761669Y-31541087D01*
X67775566Y-31531217D01*
X67767178Y-31497144D01*
X67734100Y-31433247D01*
X67673926Y-31333906D01*
X67670944Y-31329151D01*
X67569794Y-31153774D01*
X67502675Y-30999918D01*
X67465753Y-30855237D01*
X67460594Y-30782990D01*
X67599166Y-30782990D01*
X67640959Y-30991349D01*
X67730748Y-31197610D01*
X67855988Y-31383731D01*
X67920966Y-31456945D01*
X67968049Y-31494557D01*
X67992686Y-31496718D01*
X67990329Y-31463578D01*
X67956427Y-31395288D01*
X67947518Y-31380704D01*
X67901124Y-31301157D01*
X67846092Y-31199334D01*
X67800629Y-31109920D01*
X67761728Y-31025711D01*
X67737694Y-30955253D01*
X67724983Y-30880826D01*
X67720052Y-30784712D01*
X67720049Y-30784283D01*
X67854019Y-30784283D01*
X67891117Y-30988232D01*
X67908578Y-31039429D01*
X67949508Y-31129785D01*
X68004816Y-31227905D01*
X68067189Y-31323419D01*
X68129316Y-31405956D01*
X68183888Y-31465146D01*
X68223592Y-31490620D01*
X68226887Y-31490920D01*
X68260805Y-31484814D01*
X68265040Y-31479686D01*
X68252509Y-31454332D01*
X68219361Y-31397493D01*
X68172265Y-31320536D01*
X68162684Y-31305206D01*
X68046477Y-31086330D01*
X67979219Y-30877328D01*
X67964998Y-30724018D01*
X68103813Y-30724018D01*
X68110181Y-30835445D01*
X68123707Y-30932842D01*
X68132804Y-30970220D01*
X68156874Y-31034611D01*
X68192966Y-31113256D01*
X68234645Y-31194314D01*
X68275473Y-31265944D01*
X68309016Y-31316305D01*
X68328835Y-31333556D01*
X68329938Y-31332887D01*
X68328788Y-31305426D01*
X68317454Y-31239548D01*
X68297982Y-31146141D01*
X68280596Y-31070170D01*
X68249960Y-30934033D01*
X68219757Y-30788626D01*
X68195028Y-30658571D01*
X68188161Y-30618578D01*
X68170593Y-30520723D01*
X68156361Y-30467088D01*
X68143034Y-30451421D01*
X68128904Y-30466178D01*
X68113050Y-30523322D01*
X68104728Y-30614622D01*
X68103813Y-30724018D01*
X67964998Y-30724018D01*
X67960536Y-30675920D01*
X67990052Y-30479828D01*
X68014497Y-30404435D01*
X68046653Y-30305693D01*
X68071050Y-30208049D01*
X68079407Y-30157420D01*
X68090059Y-30055820D01*
X68014721Y-30172744D01*
X67916963Y-30367218D01*
X67863015Y-30574171D01*
X67854019Y-30784283D01*
X67720049Y-30784283D01*
X67719342Y-30703520D01*
X67725350Y-30553947D01*
X67747317Y-30425841D01*
X67790327Y-30304361D01*
X67859468Y-30174663D01*
X67946135Y-30041699D01*
X67998506Y-29958261D01*
X68016673Y-29909374D01*
X68007902Y-29893907D01*
X67965879Y-29904931D01*
X67911282Y-29954917D01*
X67849206Y-30035199D01*
X67784745Y-30137112D01*
X67722995Y-30251989D01*
X67669051Y-30371165D01*
X67628006Y-30485972D01*
X67606601Y-30576520D01*
X67599166Y-30782990D01*
X67460594Y-30782990D01*
X67455194Y-30707388D01*
X67457632Y-30642402D01*
X67483072Y-30472971D01*
X67540068Y-30306057D01*
X67633260Y-30129653D01*
X67690032Y-30041315D01*
X67742316Y-29952435D01*
X67759746Y-29898598D01*
X67746472Y-29882299D01*
X67706645Y-29906034D01*
X67644414Y-29972299D01*
X67622227Y-30000542D01*
X67480899Y-30219338D01*
X67389273Y-30437197D01*
X67347542Y-30653025D01*
X67203429Y-30653025D01*
X67225958Y-30478650D01*
X67300449Y-30271630D01*
X67423220Y-30055918D01*
X67427509Y-30049470D01*
X67460959Y-29996411D01*
X67466210Y-29972906D01*
X67444443Y-29967064D01*
X67435684Y-29966969D01*
X67391574Y-29989264D01*
X67335376Y-30050202D01*
X67273141Y-30140976D01*
X67210922Y-30252781D01*
X67155840Y-30374155D01*
X67100202Y-30574906D01*
X67089997Y-30781492D01*
X66926535Y-30781492D01*
X66968664Y-30625845D01*
X67018568Y-30444631D01*
X67065916Y-30276056D01*
X67108888Y-30126877D01*
X67145662Y-30003854D01*
X67153396Y-29979620D01*
X67198240Y-29979620D01*
X67210940Y-29992320D01*
X67223640Y-29979620D01*
X67210940Y-29966920D01*
X67198240Y-29979620D01*
X67153396Y-29979620D01*
X67174420Y-29913744D01*
X67193339Y-29863306D01*
X67197901Y-29855591D01*
X67234481Y-29844049D01*
X67310968Y-29835369D01*
X67416550Y-29829527D01*
X67540416Y-29826499D01*
X67671755Y-29826260D01*
X67799756Y-29828787D01*
G37*
X67799756Y-29828787D02*
X67913606Y-29834056D01*
X68002496Y-29842043D01*
X68055613Y-29852724D01*
X68064197Y-29857512D01*
X68075904Y-29888282D01*
X68096071Y-29962074D01*
X68123239Y-30072088D01*
X68155949Y-30211524D01*
X68192741Y-30373583D01*
X68232158Y-30551465D01*
X68272738Y-30738368D01*
X68313025Y-30927494D01*
X68351558Y-31112043D01*
X68386878Y-31285214D01*
X68417526Y-31440208D01*
X68442044Y-31570224D01*
X68458972Y-31668463D01*
X68466851Y-31728125D01*
X68467233Y-31735852D01*
X68451689Y-31806819D01*
X68402202Y-31840097D01*
X68345512Y-31841204D01*
X68302944Y-31838227D01*
X68222865Y-31834539D01*
X68118547Y-31830706D01*
X68049140Y-31828552D01*
X67905634Y-31823355D01*
X67805073Y-31816179D01*
X67739602Y-31805128D01*
X67701365Y-31788305D01*
X67682508Y-31763814D01*
X67676251Y-31738528D01*
X67650107Y-31693982D01*
X67601122Y-31679082D01*
X67548287Y-31694651D01*
X67514989Y-31731545D01*
X67502036Y-31751132D01*
X67481006Y-31765010D01*
X67443946Y-31774158D01*
X67382904Y-31779551D01*
X67289926Y-31782165D01*
X67157059Y-31782979D01*
X67095889Y-31783020D01*
X66702940Y-31783020D01*
X66695855Y-31719520D01*
X66842640Y-31719520D01*
X66861968Y-31744181D01*
X66868040Y-31744920D01*
X66892701Y-31725591D01*
X66893440Y-31719520D01*
X66874111Y-31694858D01*
X66868040Y-31694120D01*
X66843378Y-31713448D01*
X66842640Y-31719520D01*
X66695855Y-31719520D01*
X66700675Y-31680503D01*
X66717501Y-31600058D01*
X66720118Y-31588904D01*
X66766440Y-31588904D01*
X66787449Y-31642537D01*
X66848903Y-31666613D01*
X66849883Y-31666714D01*
X66855566Y-31650011D01*
X66843397Y-31619334D01*
X66807333Y-31567528D01*
X66779251Y-31554507D01*
X66766575Y-31583206D01*
X66766440Y-31588904D01*
X66720118Y-31588904D01*
X66744515Y-31484942D01*
X66779894Y-31341913D01*
X66787684Y-31311403D01*
X66838304Y-31311403D01*
X66841758Y-31360753D01*
X66870967Y-31431529D01*
X66916638Y-31509352D01*
X66969478Y-31579844D01*
X67020194Y-31628625D01*
X67052190Y-31642351D01*
X67089912Y-31635220D01*
X67096640Y-31626493D01*
X67083702Y-31596285D01*
X67050573Y-31537834D01*
X67005774Y-31464806D01*
X66957828Y-31390864D01*
X66915257Y-31329671D01*
X66896312Y-31305316D01*
X66865789Y-31274391D01*
X66848870Y-31285269D01*
X66838304Y-31311403D01*
X66787684Y-31311403D01*
X66821819Y-31177731D01*
X66845425Y-31087364D01*
X66928460Y-31087364D01*
X66959836Y-31187758D01*
X67026763Y-31304291D01*
X67132202Y-31443458D01*
X67134685Y-31446470D01*
X67205275Y-31525304D01*
X67260980Y-31575316D01*
X67297259Y-31594828D01*
X67309572Y-31582161D01*
X67293380Y-31535634D01*
X67272048Y-31497270D01*
X67223814Y-31419407D01*
X67177198Y-31347573D01*
X67168903Y-31335338D01*
X67135708Y-31280057D01*
X67090313Y-31195598D01*
X67041783Y-31098915D01*
X67035253Y-31085365D01*
X66947413Y-30902074D01*
X66929677Y-30996615D01*
X66928460Y-31087364D01*
X66845425Y-31087364D01*
X66868469Y-30999153D01*
X66918024Y-30812938D01*
X66926535Y-30781492D01*
X67089997Y-30781492D01*
X67125411Y-30981921D01*
X67145600Y-31040721D01*
X67183769Y-31122029D01*
X67238716Y-31217550D01*
X67303480Y-31317535D01*
X67371101Y-31412234D01*
X67434618Y-31491898D01*
X67487071Y-31546776D01*
X67521408Y-31567120D01*
X67543736Y-31551920D01*
X67538846Y-31535370D01*
X67517788Y-31499949D01*
X67477646Y-31433737D01*
X67425983Y-31349193D01*
X67409338Y-31322069D01*
X67291437Y-31098686D01*
X67221525Y-30887064D01*
X67199674Y-30682090D01*
X67203429Y-30653025D01*
X67347542Y-30653025D01*
X67355902Y-30865728D01*
X67414546Y-31074211D01*
X67426564Y-31102512D01*
X67471696Y-31189700D01*
X67531270Y-31284786D01*
X67597517Y-31377603D01*
X67662670Y-31457985D01*
X67718960Y-31515764D01*
X67758617Y-31540773D01*
X67761669Y-31541087D01*
X67775566Y-31531217D01*
X67767178Y-31497144D01*
X67734100Y-31433247D01*
X67673926Y-31333906D01*
X67670944Y-31329151D01*
X67569794Y-31153774D01*
X67502675Y-30999918D01*
X67465753Y-30855237D01*
X67460594Y-30782990D01*
X67599166Y-30782990D01*
X67640959Y-30991349D01*
X67730748Y-31197610D01*
X67855988Y-31383731D01*
X67920966Y-31456945D01*
X67968049Y-31494557D01*
X67992686Y-31496718D01*
X67990329Y-31463578D01*
X67956427Y-31395288D01*
X67947518Y-31380704D01*
X67901124Y-31301157D01*
X67846092Y-31199334D01*
X67800629Y-31109920D01*
X67761728Y-31025711D01*
X67737694Y-30955253D01*
X67724983Y-30880826D01*
X67720052Y-30784712D01*
X67720049Y-30784283D01*
X67854019Y-30784283D01*
X67891117Y-30988232D01*
X67908578Y-31039429D01*
X67949508Y-31129785D01*
X68004816Y-31227905D01*
X68067189Y-31323419D01*
X68129316Y-31405956D01*
X68183888Y-31465146D01*
X68223592Y-31490620D01*
X68226887Y-31490920D01*
X68260805Y-31484814D01*
X68265040Y-31479686D01*
X68252509Y-31454332D01*
X68219361Y-31397493D01*
X68172265Y-31320536D01*
X68162684Y-31305206D01*
X68046477Y-31086330D01*
X67979219Y-30877328D01*
X67964998Y-30724018D01*
X68103813Y-30724018D01*
X68110181Y-30835445D01*
X68123707Y-30932842D01*
X68132804Y-30970220D01*
X68156874Y-31034611D01*
X68192966Y-31113256D01*
X68234645Y-31194314D01*
X68275473Y-31265944D01*
X68309016Y-31316305D01*
X68328835Y-31333556D01*
X68329938Y-31332887D01*
X68328788Y-31305426D01*
X68317454Y-31239548D01*
X68297982Y-31146141D01*
X68280596Y-31070170D01*
X68249960Y-30934033D01*
X68219757Y-30788626D01*
X68195028Y-30658571D01*
X68188161Y-30618578D01*
X68170593Y-30520723D01*
X68156361Y-30467088D01*
X68143034Y-30451421D01*
X68128904Y-30466178D01*
X68113050Y-30523322D01*
X68104728Y-30614622D01*
X68103813Y-30724018D01*
X67964998Y-30724018D01*
X67960536Y-30675920D01*
X67990052Y-30479828D01*
X68014497Y-30404435D01*
X68046653Y-30305693D01*
X68071050Y-30208049D01*
X68079407Y-30157420D01*
X68090059Y-30055820D01*
X68014721Y-30172744D01*
X67916963Y-30367218D01*
X67863015Y-30574171D01*
X67854019Y-30784283D01*
X67720049Y-30784283D01*
X67719342Y-30703520D01*
X67725350Y-30553947D01*
X67747317Y-30425841D01*
X67790327Y-30304361D01*
X67859468Y-30174663D01*
X67946135Y-30041699D01*
X67998506Y-29958261D01*
X68016673Y-29909374D01*
X68007902Y-29893907D01*
X67965879Y-29904931D01*
X67911282Y-29954917D01*
X67849206Y-30035199D01*
X67784745Y-30137112D01*
X67722995Y-30251989D01*
X67669051Y-30371165D01*
X67628006Y-30485972D01*
X67606601Y-30576520D01*
X67599166Y-30782990D01*
X67460594Y-30782990D01*
X67455194Y-30707388D01*
X67457632Y-30642402D01*
X67483072Y-30472971D01*
X67540068Y-30306057D01*
X67633260Y-30129653D01*
X67690032Y-30041315D01*
X67742316Y-29952435D01*
X67759746Y-29898598D01*
X67746472Y-29882299D01*
X67706645Y-29906034D01*
X67644414Y-29972299D01*
X67622227Y-30000542D01*
X67480899Y-30219338D01*
X67389273Y-30437197D01*
X67347542Y-30653025D01*
X67203429Y-30653025D01*
X67225958Y-30478650D01*
X67300449Y-30271630D01*
X67423220Y-30055918D01*
X67427509Y-30049470D01*
X67460959Y-29996411D01*
X67466210Y-29972906D01*
X67444443Y-29967064D01*
X67435684Y-29966969D01*
X67391574Y-29989264D01*
X67335376Y-30050202D01*
X67273141Y-30140976D01*
X67210922Y-30252781D01*
X67155840Y-30374155D01*
X67100202Y-30574906D01*
X67089997Y-30781492D01*
X66926535Y-30781492D01*
X66968664Y-30625845D01*
X67018568Y-30444631D01*
X67065916Y-30276056D01*
X67108888Y-30126877D01*
X67145662Y-30003854D01*
X67153396Y-29979620D01*
X67198240Y-29979620D01*
X67210940Y-29992320D01*
X67223640Y-29979620D01*
X67210940Y-29966920D01*
X67198240Y-29979620D01*
X67153396Y-29979620D01*
X67174420Y-29913744D01*
X67193339Y-29863306D01*
X67197901Y-29855591D01*
X67234481Y-29844049D01*
X67310968Y-29835369D01*
X67416550Y-29829527D01*
X67540416Y-29826499D01*
X67671755Y-29826260D01*
X67799756Y-29828787D01*
G36*
X72649625Y-29744865D02*
G01*
X72852817Y-29784335D01*
X73030060Y-29866412D01*
X73178418Y-29988414D01*
X73294955Y-30147659D01*
X73376735Y-30341464D01*
X73399418Y-30429743D01*
X73416400Y-30568513D01*
X73417288Y-30733628D01*
X73403528Y-30905155D01*
X73376565Y-31063163D01*
X73345850Y-31168058D01*
X73287728Y-31296076D01*
X73212737Y-31426174D01*
X73129900Y-31545109D01*
X73048241Y-31639638D01*
X72991953Y-31687391D01*
X72845471Y-31758087D01*
X72672813Y-31797288D01*
X72489767Y-31802130D01*
X72410986Y-31792800D01*
X72216197Y-31736986D01*
X72049673Y-31640145D01*
X71912821Y-31504371D01*
X71807047Y-31331756D01*
X71733756Y-31124391D01*
X71705582Y-30952762D01*
X72456040Y-30952762D01*
X72464573Y-31055927D01*
X72487105Y-31137489D01*
X72519034Y-31190821D01*
X72555760Y-31209298D01*
X72592679Y-31186293D01*
X72604873Y-31167070D01*
X72619122Y-31116602D01*
X72630663Y-31034304D01*
X72637699Y-30939140D01*
X72638433Y-30850071D01*
X72637117Y-30826887D01*
X72612844Y-30781778D01*
X72560555Y-30765828D01*
X72504999Y-30780704D01*
X72475967Y-30806423D01*
X72460978Y-30852733D01*
X72456135Y-30933341D01*
X72456040Y-30952762D01*
X71705582Y-30952762D01*
X71694354Y-30884370D01*
X71687567Y-30716220D01*
X71704906Y-30512338D01*
X71948008Y-30512338D01*
X71957090Y-30521419D01*
X71982222Y-30503314D01*
X72017727Y-30459598D01*
X72058425Y-30389485D01*
X72075385Y-30353922D01*
X72117322Y-30271316D01*
X72143324Y-30226711D01*
X72317433Y-30226711D01*
X72323211Y-30241205D01*
X72351937Y-30222792D01*
X72352629Y-30222095D01*
X73080228Y-30222095D01*
X73083199Y-30243277D01*
X73100166Y-30246320D01*
X73139146Y-30226879D01*
X73175696Y-30185731D01*
X73200748Y-30128705D01*
X73186109Y-30098046D01*
X73163658Y-30093920D01*
X73139287Y-30114181D01*
X73107178Y-30163614D01*
X73103740Y-30170120D01*
X73080228Y-30222095D01*
X72352629Y-30222095D01*
X72399395Y-30174996D01*
X72454841Y-30109102D01*
X72900829Y-30109102D01*
X72902040Y-30146474D01*
X72928182Y-30148702D01*
X72973854Y-30109202D01*
X72979027Y-30103023D01*
X73018646Y-30046829D01*
X73038748Y-30003202D01*
X73039326Y-29998670D01*
X73026942Y-29968552D01*
X72994550Y-29973729D01*
X72953545Y-30009565D01*
X72929949Y-30043172D01*
X72900829Y-30109102D01*
X72454841Y-30109102D01*
X72461373Y-30101340D01*
X72492016Y-30061032D01*
X72682286Y-30061032D01*
X72683234Y-30093440D01*
X72709159Y-30090181D01*
X72753949Y-30050718D01*
X72793685Y-30000655D01*
X72831052Y-29940624D01*
X72848447Y-29897200D01*
X72847728Y-29887465D01*
X72817535Y-29875100D01*
X72774305Y-29905467D01*
X72723755Y-29974086D01*
X72712430Y-29993496D01*
X72682286Y-30061032D01*
X72492016Y-30061032D01*
X72519872Y-30024391D01*
X72593123Y-29921788D01*
X72637427Y-29852897D01*
X72655638Y-29811821D01*
X72650615Y-29792659D01*
X72633787Y-29789120D01*
X72607856Y-29808496D01*
X72562118Y-29859420D01*
X72504819Y-29931086D01*
X72444199Y-30012689D01*
X72388504Y-30093422D01*
X72345977Y-30162480D01*
X72338815Y-30175787D01*
X72317433Y-30226711D01*
X72143324Y-30226711D01*
X72175504Y-30171508D01*
X72227686Y-30090577D01*
X72282529Y-30004507D01*
X72303819Y-29956254D01*
X72291588Y-29945937D01*
X72245869Y-29973677D01*
X72204808Y-30006588D01*
X72149416Y-30069606D01*
X72087755Y-30164807D01*
X72028680Y-30275879D01*
X71981047Y-30386509D01*
X71957480Y-30462220D01*
X71948008Y-30512338D01*
X71704906Y-30512338D01*
X71708008Y-30475868D01*
X71766393Y-30264936D01*
X71792995Y-30214182D01*
X71857422Y-30214182D01*
X71864837Y-30220463D01*
X71887881Y-30200520D01*
X71928217Y-30149042D01*
X71970540Y-30087113D01*
X72015491Y-30016728D01*
X72033633Y-29983882D01*
X72026131Y-29983710D01*
X71994151Y-30011349D01*
X71987177Y-30017720D01*
X71939369Y-30069182D01*
X71896699Y-30127545D01*
X71866829Y-30180112D01*
X71857422Y-30214182D01*
X71792995Y-30214182D01*
X71860188Y-30085986D01*
X71986858Y-29941575D01*
X72143866Y-29834264D01*
X72328678Y-29766613D01*
X72538758Y-29741181D01*
X72649625Y-29744865D01*
G37*
X72649625Y-29744865D02*
X72852817Y-29784335D01*
X73030060Y-29866412D01*
X73178418Y-29988414D01*
X73294955Y-30147659D01*
X73376735Y-30341464D01*
X73399418Y-30429743D01*
X73416400Y-30568513D01*
X73417288Y-30733628D01*
X73403528Y-30905155D01*
X73376565Y-31063163D01*
X73345850Y-31168058D01*
X73287728Y-31296076D01*
X73212737Y-31426174D01*
X73129900Y-31545109D01*
X73048241Y-31639638D01*
X72991953Y-31687391D01*
X72845471Y-31758087D01*
X72672813Y-31797288D01*
X72489767Y-31802130D01*
X72410986Y-31792800D01*
X72216197Y-31736986D01*
X72049673Y-31640145D01*
X71912821Y-31504371D01*
X71807047Y-31331756D01*
X71733756Y-31124391D01*
X71705582Y-30952762D01*
X72456040Y-30952762D01*
X72464573Y-31055927D01*
X72487105Y-31137489D01*
X72519034Y-31190821D01*
X72555760Y-31209298D01*
X72592679Y-31186293D01*
X72604873Y-31167070D01*
X72619122Y-31116602D01*
X72630663Y-31034304D01*
X72637699Y-30939140D01*
X72638433Y-30850071D01*
X72637117Y-30826887D01*
X72612844Y-30781778D01*
X72560555Y-30765828D01*
X72504999Y-30780704D01*
X72475967Y-30806423D01*
X72460978Y-30852733D01*
X72456135Y-30933341D01*
X72456040Y-30952762D01*
X71705582Y-30952762D01*
X71694354Y-30884370D01*
X71687567Y-30716220D01*
X71704906Y-30512338D01*
X71948008Y-30512338D01*
X71957090Y-30521419D01*
X71982222Y-30503314D01*
X72017727Y-30459598D01*
X72058425Y-30389485D01*
X72075385Y-30353922D01*
X72117322Y-30271316D01*
X72143324Y-30226711D01*
X72317433Y-30226711D01*
X72323211Y-30241205D01*
X72351937Y-30222792D01*
X72352629Y-30222095D01*
X73080228Y-30222095D01*
X73083199Y-30243277D01*
X73100166Y-30246320D01*
X73139146Y-30226879D01*
X73175696Y-30185731D01*
X73200748Y-30128705D01*
X73186109Y-30098046D01*
X73163658Y-30093920D01*
X73139287Y-30114181D01*
X73107178Y-30163614D01*
X73103740Y-30170120D01*
X73080228Y-30222095D01*
X72352629Y-30222095D01*
X72399395Y-30174996D01*
X72454841Y-30109102D01*
X72900829Y-30109102D01*
X72902040Y-30146474D01*
X72928182Y-30148702D01*
X72973854Y-30109202D01*
X72979027Y-30103023D01*
X73018646Y-30046829D01*
X73038748Y-30003202D01*
X73039326Y-29998670D01*
X73026942Y-29968552D01*
X72994550Y-29973729D01*
X72953545Y-30009565D01*
X72929949Y-30043172D01*
X72900829Y-30109102D01*
X72454841Y-30109102D01*
X72461373Y-30101340D01*
X72492016Y-30061032D01*
X72682286Y-30061032D01*
X72683234Y-30093440D01*
X72709159Y-30090181D01*
X72753949Y-30050718D01*
X72793685Y-30000655D01*
X72831052Y-29940624D01*
X72848447Y-29897200D01*
X72847728Y-29887465D01*
X72817535Y-29875100D01*
X72774305Y-29905467D01*
X72723755Y-29974086D01*
X72712430Y-29993496D01*
X72682286Y-30061032D01*
X72492016Y-30061032D01*
X72519872Y-30024391D01*
X72593123Y-29921788D01*
X72637427Y-29852897D01*
X72655638Y-29811821D01*
X72650615Y-29792659D01*
X72633787Y-29789120D01*
X72607856Y-29808496D01*
X72562118Y-29859420D01*
X72504819Y-29931086D01*
X72444199Y-30012689D01*
X72388504Y-30093422D01*
X72345977Y-30162480D01*
X72338815Y-30175787D01*
X72317433Y-30226711D01*
X72143324Y-30226711D01*
X72175504Y-30171508D01*
X72227686Y-30090577D01*
X72282529Y-30004507D01*
X72303819Y-29956254D01*
X72291588Y-29945937D01*
X72245869Y-29973677D01*
X72204808Y-30006588D01*
X72149416Y-30069606D01*
X72087755Y-30164807D01*
X72028680Y-30275879D01*
X71981047Y-30386509D01*
X71957480Y-30462220D01*
X71948008Y-30512338D01*
X71704906Y-30512338D01*
X71708008Y-30475868D01*
X71766393Y-30264936D01*
X71792995Y-30214182D01*
X71857422Y-30214182D01*
X71864837Y-30220463D01*
X71887881Y-30200520D01*
X71928217Y-30149042D01*
X71970540Y-30087113D01*
X72015491Y-30016728D01*
X72033633Y-29983882D01*
X72026131Y-29983710D01*
X71994151Y-30011349D01*
X71987177Y-30017720D01*
X71939369Y-30069182D01*
X71896699Y-30127545D01*
X71866829Y-30180112D01*
X71857422Y-30214182D01*
X71792995Y-30214182D01*
X71860188Y-30085986D01*
X71986858Y-29941575D01*
X72143866Y-29834264D01*
X72328678Y-29766613D01*
X72538758Y-29741181D01*
X72649625Y-29744865D01*
G36*
X63831297Y-29816518D02*
G01*
X63920635Y-29828177D01*
X63953576Y-29837576D01*
X63995754Y-29869218D01*
X64052832Y-29932265D01*
X64113901Y-30014367D01*
X64126679Y-30033592D01*
X64239140Y-30206551D01*
X64251938Y-30046516D01*
X64255903Y-30016066D01*
X64385067Y-30016066D01*
X64388541Y-30017720D01*
X64411721Y-29999838D01*
X64416940Y-29992320D01*
X64423412Y-29968573D01*
X64419938Y-29966920D01*
X64396758Y-29984801D01*
X64391540Y-29992320D01*
X64385067Y-30016066D01*
X64255903Y-30016066D01*
X64265323Y-29943732D01*
X64291978Y-29876405D01*
X64341139Y-29837270D01*
X64422046Y-29819063D01*
X64543936Y-29814521D01*
X64546980Y-29814520D01*
X64659526Y-29818575D01*
X64731472Y-29831894D01*
X64771032Y-29854741D01*
X64781510Y-29869958D01*
X64789922Y-29895742D01*
X64796434Y-29936996D01*
X64801213Y-29998620D01*
X64804428Y-30085516D01*
X64806244Y-30202587D01*
X64806830Y-30354732D01*
X64806352Y-30546855D01*
X64804978Y-30783857D01*
X64804597Y-30838991D01*
X64797940Y-31783020D01*
X64504163Y-31790135D01*
X64210386Y-31797251D01*
X63959740Y-31433105D01*
X63951959Y-31581784D01*
X63943316Y-31668106D01*
X63929120Y-31735807D01*
X63917099Y-31763091D01*
X63877958Y-31780000D01*
X63803661Y-31791017D01*
X63709515Y-31796071D01*
X63610828Y-31795094D01*
X63522910Y-31788016D01*
X63461068Y-31774767D01*
X63444120Y-31765240D01*
X63435514Y-31742184D01*
X63428510Y-31689606D01*
X63422998Y-31604062D01*
X63418866Y-31482107D01*
X63416005Y-31320297D01*
X63415440Y-31252084D01*
X63522426Y-31252084D01*
X63525396Y-31286590D01*
X63541127Y-31335190D01*
X63564772Y-31382148D01*
X63586641Y-31408370D01*
X63632978Y-31437774D01*
X63647668Y-31428254D01*
X63630108Y-31381093D01*
X63613426Y-31351138D01*
X63574527Y-31291122D01*
X63542819Y-31252084D01*
X63537065Y-31247410D01*
X63522426Y-31252084D01*
X63415440Y-31252084D01*
X63414578Y-31148020D01*
X63464440Y-31148020D01*
X63477140Y-31160720D01*
X63489840Y-31148020D01*
X63477140Y-31135320D01*
X63464440Y-31148020D01*
X63414578Y-31148020D01*
X63414305Y-31115188D01*
X63413654Y-30863334D01*
X63413640Y-30814180D01*
X63413640Y-30754326D01*
X63532029Y-30754326D01*
X63564813Y-30952686D01*
X63637699Y-31145145D01*
X63746958Y-31319828D01*
X63800856Y-31382970D01*
X63850688Y-31426921D01*
X63885645Y-31440435D01*
X63896240Y-31425197D01*
X63884789Y-31397138D01*
X63854679Y-31337449D01*
X63812272Y-31258709D01*
X63809527Y-31253747D01*
X63706533Y-31029174D01*
X63652760Y-30814137D01*
X63650282Y-30700735D01*
X63783957Y-30700735D01*
X63802589Y-30900011D01*
X63867051Y-31092971D01*
X63910651Y-31175841D01*
X63968818Y-31267554D01*
X64033639Y-31357775D01*
X64097199Y-31436168D01*
X64151585Y-31492398D01*
X64188883Y-31516131D01*
X64191208Y-31516320D01*
X64215901Y-31511404D01*
X64211937Y-31488417D01*
X64186038Y-31446470D01*
X64072180Y-31265195D01*
X63990104Y-31110208D01*
X63936199Y-30971356D01*
X63906852Y-30838489D01*
X63901405Y-30749636D01*
X64041936Y-30749636D01*
X64074948Y-30958421D01*
X64144792Y-31135832D01*
X64201285Y-31236581D01*
X64265490Y-31336585D01*
X64330221Y-31426215D01*
X64388288Y-31495841D01*
X64432503Y-31535832D01*
X64447761Y-31541720D01*
X64478009Y-31534239D01*
X64480440Y-31529704D01*
X64467997Y-31504092D01*
X64434804Y-31446129D01*
X64387063Y-31366523D01*
X64366415Y-31332854D01*
X64244248Y-31100684D01*
X64171426Y-30880111D01*
X64160381Y-30781874D01*
X64297398Y-30781874D01*
X64339952Y-30988711D01*
X64430570Y-31199970D01*
X64568358Y-31412984D01*
X64594262Y-31446470D01*
X64672002Y-31538018D01*
X64725270Y-31585130D01*
X64754127Y-31587849D01*
X64759840Y-31564095D01*
X64747004Y-31531755D01*
X64712399Y-31467285D01*
X64661873Y-31381189D01*
X64621908Y-31316445D01*
X64525417Y-31152410D01*
X64460139Y-31012467D01*
X64422109Y-30884061D01*
X64407362Y-30754635D01*
X64407690Y-30737903D01*
X64543472Y-30737903D01*
X64574328Y-30928768D01*
X64651089Y-31133687D01*
X64663585Y-31159780D01*
X64705390Y-31243918D01*
X64730342Y-31287118D01*
X64743692Y-31294179D01*
X64750694Y-31269900D01*
X64754021Y-31242397D01*
X64750582Y-31173000D01*
X64732192Y-31079948D01*
X64710714Y-31007346D01*
X64666865Y-30810870D01*
X64664685Y-30606859D01*
X64704223Y-30412856D01*
X64709040Y-30398720D01*
X64735846Y-30310036D01*
X64752985Y-30228798D01*
X64759390Y-30165412D01*
X64753993Y-30130285D01*
X64736245Y-30133290D01*
X64697480Y-30189549D01*
X64652931Y-30278815D01*
X64609439Y-30384890D01*
X64573846Y-30491575D01*
X64557654Y-30556161D01*
X64543472Y-30737903D01*
X64407690Y-30737903D01*
X64409534Y-30643915D01*
X64435718Y-30470347D01*
X64494366Y-30300973D01*
X64590233Y-30123572D01*
X64643142Y-30043143D01*
X64694796Y-29961323D01*
X64714262Y-29911314D01*
X64705528Y-29888549D01*
X64669371Y-29893670D01*
X64619720Y-29937850D01*
X64561398Y-30012765D01*
X64499226Y-30110089D01*
X64438026Y-30221499D01*
X64382618Y-30338669D01*
X64337826Y-30453275D01*
X64308470Y-30556993D01*
X64303805Y-30582121D01*
X64297398Y-30781874D01*
X64160381Y-30781874D01*
X64147900Y-30670870D01*
X64173617Y-30472697D01*
X64190301Y-30417194D01*
X64213887Y-30326955D01*
X64210671Y-30267564D01*
X64204575Y-30253920D01*
X64186963Y-30233311D01*
X64168192Y-30244250D01*
X64141436Y-30293245D01*
X64124693Y-30330073D01*
X64058474Y-30538443D01*
X64041936Y-30749636D01*
X63901405Y-30749636D01*
X63898451Y-30701455D01*
X63900153Y-30643060D01*
X63910680Y-30528994D01*
X63933465Y-30431844D01*
X63975085Y-30327744D01*
X64003068Y-30269539D01*
X64054050Y-30157680D01*
X64075716Y-30086109D01*
X64070925Y-30055820D01*
X64043258Y-30049560D01*
X64007301Y-30081166D01*
X63960492Y-30153952D01*
X63900268Y-30271233D01*
X63893493Y-30285359D01*
X63814211Y-30497284D01*
X63783957Y-30700735D01*
X63650282Y-30700735D01*
X63648203Y-30605623D01*
X63692856Y-30400617D01*
X63786715Y-30196107D01*
X63807749Y-30160873D01*
X63860270Y-30076101D01*
X63910306Y-29995953D01*
X63931849Y-29961749D01*
X63962167Y-29911468D01*
X63964927Y-29892408D01*
X63940287Y-29893219D01*
X63932789Y-29894631D01*
X63876410Y-29926767D01*
X63810479Y-29997455D01*
X63740766Y-30096810D01*
X63673045Y-30214949D01*
X63613087Y-30341989D01*
X63566663Y-30468048D01*
X63543075Y-30561943D01*
X63532029Y-30754326D01*
X63413640Y-30754326D01*
X63413640Y-30211908D01*
X63464440Y-30211908D01*
X63465903Y-30250745D01*
X63473802Y-30263371D01*
X63493398Y-30245370D01*
X63529952Y-30192326D01*
X63578347Y-30116293D01*
X63630019Y-30026249D01*
X63648946Y-29970278D01*
X63636044Y-29944410D01*
X63618716Y-29941520D01*
X63588132Y-29962670D01*
X63548495Y-30015699D01*
X63508726Y-30084971D01*
X63477747Y-30154848D01*
X63464478Y-30209697D01*
X63464440Y-30211908D01*
X63413640Y-30211908D01*
X63413640Y-29893600D01*
X63470091Y-29854060D01*
X63527142Y-29833201D01*
X63617636Y-29819607D01*
X63724659Y-29813854D01*
X63831297Y-29816518D01*
G37*
X63831297Y-29816518D02*
X63920635Y-29828177D01*
X63953576Y-29837576D01*
X63995754Y-29869218D01*
X64052832Y-29932265D01*
X64113901Y-30014367D01*
X64126679Y-30033592D01*
X64239140Y-30206551D01*
X64251938Y-30046516D01*
X64255903Y-30016066D01*
X64385067Y-30016066D01*
X64388541Y-30017720D01*
X64411721Y-29999838D01*
X64416940Y-29992320D01*
X64423412Y-29968573D01*
X64419938Y-29966920D01*
X64396758Y-29984801D01*
X64391540Y-29992320D01*
X64385067Y-30016066D01*
X64255903Y-30016066D01*
X64265323Y-29943732D01*
X64291978Y-29876405D01*
X64341139Y-29837270D01*
X64422046Y-29819063D01*
X64543936Y-29814521D01*
X64546980Y-29814520D01*
X64659526Y-29818575D01*
X64731472Y-29831894D01*
X64771032Y-29854741D01*
X64781510Y-29869958D01*
X64789922Y-29895742D01*
X64796434Y-29936996D01*
X64801213Y-29998620D01*
X64804428Y-30085516D01*
X64806244Y-30202587D01*
X64806830Y-30354732D01*
X64806352Y-30546855D01*
X64804978Y-30783857D01*
X64804597Y-30838991D01*
X64797940Y-31783020D01*
X64504163Y-31790135D01*
X64210386Y-31797251D01*
X63959740Y-31433105D01*
X63951959Y-31581784D01*
X63943316Y-31668106D01*
X63929120Y-31735807D01*
X63917099Y-31763091D01*
X63877958Y-31780000D01*
X63803661Y-31791017D01*
X63709515Y-31796071D01*
X63610828Y-31795094D01*
X63522910Y-31788016D01*
X63461068Y-31774767D01*
X63444120Y-31765240D01*
X63435514Y-31742184D01*
X63428510Y-31689606D01*
X63422998Y-31604062D01*
X63418866Y-31482107D01*
X63416005Y-31320297D01*
X63415440Y-31252084D01*
X63522426Y-31252084D01*
X63525396Y-31286590D01*
X63541127Y-31335190D01*
X63564772Y-31382148D01*
X63586641Y-31408370D01*
X63632978Y-31437774D01*
X63647668Y-31428254D01*
X63630108Y-31381093D01*
X63613426Y-31351138D01*
X63574527Y-31291122D01*
X63542819Y-31252084D01*
X63537065Y-31247410D01*
X63522426Y-31252084D01*
X63415440Y-31252084D01*
X63414578Y-31148020D01*
X63464440Y-31148020D01*
X63477140Y-31160720D01*
X63489840Y-31148020D01*
X63477140Y-31135320D01*
X63464440Y-31148020D01*
X63414578Y-31148020D01*
X63414305Y-31115188D01*
X63413654Y-30863334D01*
X63413640Y-30814180D01*
X63413640Y-30754326D01*
X63532029Y-30754326D01*
X63564813Y-30952686D01*
X63637699Y-31145145D01*
X63746958Y-31319828D01*
X63800856Y-31382970D01*
X63850688Y-31426921D01*
X63885645Y-31440435D01*
X63896240Y-31425197D01*
X63884789Y-31397138D01*
X63854679Y-31337449D01*
X63812272Y-31258709D01*
X63809527Y-31253747D01*
X63706533Y-31029174D01*
X63652760Y-30814137D01*
X63650282Y-30700735D01*
X63783957Y-30700735D01*
X63802589Y-30900011D01*
X63867051Y-31092971D01*
X63910651Y-31175841D01*
X63968818Y-31267554D01*
X64033639Y-31357775D01*
X64097199Y-31436168D01*
X64151585Y-31492398D01*
X64188883Y-31516131D01*
X64191208Y-31516320D01*
X64215901Y-31511404D01*
X64211937Y-31488417D01*
X64186038Y-31446470D01*
X64072180Y-31265195D01*
X63990104Y-31110208D01*
X63936199Y-30971356D01*
X63906852Y-30838489D01*
X63901405Y-30749636D01*
X64041936Y-30749636D01*
X64074948Y-30958421D01*
X64144792Y-31135832D01*
X64201285Y-31236581D01*
X64265490Y-31336585D01*
X64330221Y-31426215D01*
X64388288Y-31495841D01*
X64432503Y-31535832D01*
X64447761Y-31541720D01*
X64478009Y-31534239D01*
X64480440Y-31529704D01*
X64467997Y-31504092D01*
X64434804Y-31446129D01*
X64387063Y-31366523D01*
X64366415Y-31332854D01*
X64244248Y-31100684D01*
X64171426Y-30880111D01*
X64160381Y-30781874D01*
X64297398Y-30781874D01*
X64339952Y-30988711D01*
X64430570Y-31199970D01*
X64568358Y-31412984D01*
X64594262Y-31446470D01*
X64672002Y-31538018D01*
X64725270Y-31585130D01*
X64754127Y-31587849D01*
X64759840Y-31564095D01*
X64747004Y-31531755D01*
X64712399Y-31467285D01*
X64661873Y-31381189D01*
X64621908Y-31316445D01*
X64525417Y-31152410D01*
X64460139Y-31012467D01*
X64422109Y-30884061D01*
X64407362Y-30754635D01*
X64407690Y-30737903D01*
X64543472Y-30737903D01*
X64574328Y-30928768D01*
X64651089Y-31133687D01*
X64663585Y-31159780D01*
X64705390Y-31243918D01*
X64730342Y-31287118D01*
X64743692Y-31294179D01*
X64750694Y-31269900D01*
X64754021Y-31242397D01*
X64750582Y-31173000D01*
X64732192Y-31079948D01*
X64710714Y-31007346D01*
X64666865Y-30810870D01*
X64664685Y-30606859D01*
X64704223Y-30412856D01*
X64709040Y-30398720D01*
X64735846Y-30310036D01*
X64752985Y-30228798D01*
X64759390Y-30165412D01*
X64753993Y-30130285D01*
X64736245Y-30133290D01*
X64697480Y-30189549D01*
X64652931Y-30278815D01*
X64609439Y-30384890D01*
X64573846Y-30491575D01*
X64557654Y-30556161D01*
X64543472Y-30737903D01*
X64407690Y-30737903D01*
X64409534Y-30643915D01*
X64435718Y-30470347D01*
X64494366Y-30300973D01*
X64590233Y-30123572D01*
X64643142Y-30043143D01*
X64694796Y-29961323D01*
X64714262Y-29911314D01*
X64705528Y-29888549D01*
X64669371Y-29893670D01*
X64619720Y-29937850D01*
X64561398Y-30012765D01*
X64499226Y-30110089D01*
X64438026Y-30221499D01*
X64382618Y-30338669D01*
X64337826Y-30453275D01*
X64308470Y-30556993D01*
X64303805Y-30582121D01*
X64297398Y-30781874D01*
X64160381Y-30781874D01*
X64147900Y-30670870D01*
X64173617Y-30472697D01*
X64190301Y-30417194D01*
X64213887Y-30326955D01*
X64210671Y-30267564D01*
X64204575Y-30253920D01*
X64186963Y-30233311D01*
X64168192Y-30244250D01*
X64141436Y-30293245D01*
X64124693Y-30330073D01*
X64058474Y-30538443D01*
X64041936Y-30749636D01*
X63901405Y-30749636D01*
X63898451Y-30701455D01*
X63900153Y-30643060D01*
X63910680Y-30528994D01*
X63933465Y-30431844D01*
X63975085Y-30327744D01*
X64003068Y-30269539D01*
X64054050Y-30157680D01*
X64075716Y-30086109D01*
X64070925Y-30055820D01*
X64043258Y-30049560D01*
X64007301Y-30081166D01*
X63960492Y-30153952D01*
X63900268Y-30271233D01*
X63893493Y-30285359D01*
X63814211Y-30497284D01*
X63783957Y-30700735D01*
X63650282Y-30700735D01*
X63648203Y-30605623D01*
X63692856Y-30400617D01*
X63786715Y-30196107D01*
X63807749Y-30160873D01*
X63860270Y-30076101D01*
X63910306Y-29995953D01*
X63931849Y-29961749D01*
X63962167Y-29911468D01*
X63964927Y-29892408D01*
X63940287Y-29893219D01*
X63932789Y-29894631D01*
X63876410Y-29926767D01*
X63810479Y-29997455D01*
X63740766Y-30096810D01*
X63673045Y-30214949D01*
X63613087Y-30341989D01*
X63566663Y-30468048D01*
X63543075Y-30561943D01*
X63532029Y-30754326D01*
X63413640Y-30754326D01*
X63413640Y-30211908D01*
X63464440Y-30211908D01*
X63465903Y-30250745D01*
X63473802Y-30263371D01*
X63493398Y-30245370D01*
X63529952Y-30192326D01*
X63578347Y-30116293D01*
X63630019Y-30026249D01*
X63648946Y-29970278D01*
X63636044Y-29944410D01*
X63618716Y-29941520D01*
X63588132Y-29962670D01*
X63548495Y-30015699D01*
X63508726Y-30084971D01*
X63477747Y-30154848D01*
X63464478Y-30209697D01*
X63464440Y-30211908D01*
X63413640Y-30211908D01*
X63413640Y-29893600D01*
X63470091Y-29854060D01*
X63527142Y-29833201D01*
X63617636Y-29819607D01*
X63724659Y-29813854D01*
X63831297Y-29816518D01*
G36*
X66135084Y-29746460D02*
G01*
X66168332Y-29748111D01*
X66288072Y-29755802D01*
X66389023Y-29765079D01*
X66460487Y-29774766D01*
X66491683Y-29783603D01*
X66504957Y-29819723D01*
X66518809Y-29895258D01*
X66532162Y-29998848D01*
X66543940Y-30119135D01*
X66553069Y-30244760D01*
X66558471Y-30364364D01*
X66559071Y-30466589D01*
X66558366Y-30487620D01*
X66550540Y-30665420D01*
X66341338Y-30666684D01*
X66236035Y-30668612D01*
X66166971Y-30675414D01*
X66119596Y-30690937D01*
X66079359Y-30719031D01*
X66053262Y-30742884D01*
X65973805Y-30834611D01*
X65917311Y-30932174D01*
X65890412Y-31022029D01*
X65892330Y-31071503D01*
X65921047Y-31127292D01*
X65973899Y-31190997D01*
X65995308Y-31211246D01*
X66045838Y-31251550D01*
X66093585Y-31274541D01*
X66155515Y-31284996D01*
X66248594Y-31287689D01*
X66266943Y-31287720D01*
X66371678Y-31291966D01*
X66448043Y-31303574D01*
X66481959Y-31318199D01*
X66500088Y-31362385D01*
X66509895Y-31438137D01*
X66511136Y-31526867D01*
X66503564Y-31609987D01*
X66486935Y-31668908D01*
X66486603Y-31669535D01*
X66436472Y-31715362D01*
X66347138Y-31751601D01*
X66229475Y-31777198D01*
X66094356Y-31791100D01*
X65952657Y-31792254D01*
X65815252Y-31779606D01*
X65693014Y-31752103D01*
X65679679Y-31747685D01*
X65478536Y-31652545D01*
X65293965Y-31515071D01*
X65134391Y-31343072D01*
X65008244Y-31144357D01*
X64991404Y-31109920D01*
X64958926Y-31032939D01*
X64939092Y-30960205D01*
X64928948Y-30874635D01*
X64925538Y-30759149D01*
X64925398Y-30728474D01*
X64925699Y-30700652D01*
X65057397Y-30700652D01*
X65070787Y-30901626D01*
X65130974Y-31089492D01*
X65143152Y-31114452D01*
X65173855Y-31183532D01*
X65190598Y-31238512D01*
X65191640Y-31248608D01*
X65202733Y-31283086D01*
X65212598Y-31287720D01*
X65237036Y-31306804D01*
X65280778Y-31356786D01*
X65333248Y-31425355D01*
X65412577Y-31522855D01*
X65489511Y-31596035D01*
X65554956Y-31636875D01*
X65579770Y-31642644D01*
X65577139Y-31623735D01*
X65551515Y-31573367D01*
X65508348Y-31502168D01*
X65505192Y-31497270D01*
X65393289Y-31321199D01*
X65307975Y-31178163D01*
X65246101Y-31060010D01*
X65204516Y-30958590D01*
X65180071Y-30865751D01*
X65169617Y-30773343D01*
X65169810Y-30723394D01*
X65309376Y-30723394D01*
X65319854Y-30862324D01*
X65372753Y-31039183D01*
X65466554Y-31235223D01*
X65597967Y-31444570D01*
X65763704Y-31661352D01*
X65775134Y-31675023D01*
X65822731Y-31717557D01*
X65849447Y-31715942D01*
X65848077Y-31674956D01*
X65832547Y-31636970D01*
X65800863Y-31580017D01*
X65749372Y-31494724D01*
X65686553Y-31394946D01*
X65648989Y-31336998D01*
X65543782Y-31162057D01*
X65473673Y-31007563D01*
X65434766Y-30861401D01*
X65424229Y-30725163D01*
X65565237Y-30725163D01*
X65593219Y-30934637D01*
X65669731Y-31146354D01*
X65720535Y-31243556D01*
X65777441Y-31335704D01*
X65818166Y-31390523D01*
X65880716Y-31467251D01*
X65940160Y-31545948D01*
X65950638Y-31560770D01*
X65996491Y-31613751D01*
X66038614Y-31641921D01*
X66046694Y-31643320D01*
X66063131Y-31633493D01*
X66055774Y-31598937D01*
X66022504Y-31532038D01*
X66008993Y-31507777D01*
X65968648Y-31427532D01*
X65942601Y-31358691D01*
X65937862Y-31330658D01*
X66040761Y-31330658D01*
X66046024Y-31352117D01*
X66075175Y-31397817D01*
X66130831Y-31474887D01*
X66156840Y-31510299D01*
X66217730Y-31585678D01*
X66273149Y-31641307D01*
X66312473Y-31666724D01*
X66316242Y-31667282D01*
X66344090Y-31664677D01*
X66346654Y-31645575D01*
X66324349Y-31596931D01*
X66318827Y-31586170D01*
X66247171Y-31466960D01*
X66173998Y-31381157D01*
X66145908Y-31362537D01*
X66326118Y-31362537D01*
X66329724Y-31389811D01*
X66361394Y-31441173D01*
X66377349Y-31463778D01*
X66448940Y-31563894D01*
X66457165Y-31485739D01*
X66450771Y-31413217D01*
X66427384Y-31369579D01*
X66378692Y-31345369D01*
X66347569Y-31347617D01*
X66326118Y-31362537D01*
X66145908Y-31362537D01*
X66105655Y-31335855D01*
X66091448Y-31331941D01*
X66056774Y-31326309D01*
X66040761Y-31330658D01*
X65937862Y-31330658D01*
X65936719Y-31323899D01*
X65918522Y-31275330D01*
X65884739Y-31250627D01*
X65829661Y-31202902D01*
X65777020Y-31116119D01*
X65731422Y-31001972D01*
X65697473Y-30872156D01*
X65690879Y-30822292D01*
X65815651Y-30822292D01*
X65818735Y-30849472D01*
X65834485Y-30964384D01*
X65880298Y-30878402D01*
X65910849Y-30791071D01*
X65926405Y-30683974D01*
X65927175Y-30660022D01*
X65938508Y-30579283D01*
X66083029Y-30579283D01*
X66097053Y-30618099D01*
X66123595Y-30622772D01*
X66159039Y-30591560D01*
X66159741Y-30590051D01*
X66337022Y-30590051D01*
X66345368Y-30619852D01*
X66374035Y-30627285D01*
X66377914Y-30627320D01*
X66413127Y-30614259D01*
X66440272Y-30568297D01*
X66459320Y-30506670D01*
X66491633Y-30371653D01*
X66506024Y-30279763D01*
X66502963Y-30226774D01*
X66492182Y-30211398D01*
X66467594Y-30222268D01*
X66435024Y-30269790D01*
X66400246Y-30341717D01*
X66369037Y-30425800D01*
X66347173Y-30509790D01*
X66344615Y-30524332D01*
X66337022Y-30590051D01*
X66159741Y-30590051D01*
X66195069Y-30514131D01*
X66209693Y-30469173D01*
X66254012Y-30347833D01*
X66313913Y-30220489D01*
X66379344Y-30106858D01*
X66428969Y-30039016D01*
X66453441Y-29983176D01*
X66457193Y-29924716D01*
X66451378Y-29894063D01*
X66439602Y-29886859D01*
X66416370Y-29907971D01*
X66376188Y-29962268D01*
X66317924Y-30048106D01*
X66237772Y-30177125D01*
X66171958Y-30301401D01*
X66122731Y-30414285D01*
X66092338Y-30509129D01*
X66083029Y-30579283D01*
X65938508Y-30579283D01*
X65951499Y-30486747D01*
X66020731Y-30297558D01*
X66133211Y-30096846D01*
X66148854Y-30073210D01*
X66220887Y-29965162D01*
X66267311Y-29892146D01*
X66291363Y-29847379D01*
X66296280Y-29824079D01*
X66285301Y-29815463D01*
X66272324Y-29814520D01*
X66236267Y-29835197D01*
X66182575Y-29890974D01*
X66118146Y-29972468D01*
X66049880Y-30070296D01*
X65984678Y-30175076D01*
X65929438Y-30277425D01*
X65924669Y-30287288D01*
X65856726Y-30467183D01*
X65819279Y-30651395D01*
X65815651Y-30822292D01*
X65690879Y-30822292D01*
X65679779Y-30738367D01*
X65679257Y-30728920D01*
X65681322Y-30587285D01*
X65705135Y-30454699D01*
X65754744Y-30319126D01*
X65834196Y-30168531D01*
X65906924Y-30052037D01*
X65977908Y-29941925D01*
X66023132Y-29867215D01*
X66045560Y-29821408D01*
X66048155Y-29798006D01*
X66033879Y-29790510D01*
X66026207Y-29790410D01*
X65994527Y-29811550D01*
X65944235Y-29867061D01*
X65882144Y-29947334D01*
X65815069Y-30042762D01*
X65749823Y-30143735D01*
X65693221Y-30240646D01*
X65659046Y-30308130D01*
X65587194Y-30517503D01*
X65565237Y-30725163D01*
X65424229Y-30725163D01*
X65423168Y-30711458D01*
X65425632Y-30642402D01*
X65459519Y-30441995D01*
X65536960Y-30243263D01*
X65648287Y-30056623D01*
X65690598Y-29984464D01*
X65698528Y-29946189D01*
X65676625Y-29943047D01*
X65629436Y-29976285D01*
X65571528Y-30035566D01*
X65466221Y-30184555D01*
X65384493Y-30358494D01*
X65330744Y-30542926D01*
X65309376Y-30723394D01*
X65169810Y-30723394D01*
X65170004Y-30673214D01*
X65172091Y-30635241D01*
X65181798Y-30535425D01*
X65200048Y-30449197D01*
X65232185Y-30358952D01*
X65283556Y-30247089D01*
X65300259Y-30213223D01*
X65347313Y-30115045D01*
X65382507Y-30034603D01*
X65401621Y-29982000D01*
X65403100Y-29967074D01*
X65378593Y-29974632D01*
X65336927Y-30017547D01*
X65285042Y-30086457D01*
X65229882Y-30172002D01*
X65178386Y-30264820D01*
X65170310Y-30281028D01*
X65090631Y-30491982D01*
X65057397Y-30700652D01*
X64925699Y-30700652D01*
X64926683Y-30609825D01*
X64933436Y-30524282D01*
X64949202Y-30454188D01*
X64977528Y-30381887D01*
X65007727Y-30318474D01*
X65123188Y-30131380D01*
X65268411Y-29982240D01*
X65447385Y-29867926D01*
X65664098Y-29785308D01*
X65699640Y-29775578D01*
X65790007Y-29755706D01*
X65882668Y-29744817D01*
X65992676Y-29742029D01*
X66135084Y-29746460D01*
G37*
X66135084Y-29746460D02*
X66168332Y-29748111D01*
X66288072Y-29755802D01*
X66389023Y-29765079D01*
X66460487Y-29774766D01*
X66491683Y-29783603D01*
X66504957Y-29819723D01*
X66518809Y-29895258D01*
X66532162Y-29998848D01*
X66543940Y-30119135D01*
X66553069Y-30244760D01*
X66558471Y-30364364D01*
X66559071Y-30466589D01*
X66558366Y-30487620D01*
X66550540Y-30665420D01*
X66341338Y-30666684D01*
X66236035Y-30668612D01*
X66166971Y-30675414D01*
X66119596Y-30690937D01*
X66079359Y-30719031D01*
X66053262Y-30742884D01*
X65973805Y-30834611D01*
X65917311Y-30932174D01*
X65890412Y-31022029D01*
X65892330Y-31071503D01*
X65921047Y-31127292D01*
X65973899Y-31190997D01*
X65995308Y-31211246D01*
X66045838Y-31251550D01*
X66093585Y-31274541D01*
X66155515Y-31284996D01*
X66248594Y-31287689D01*
X66266943Y-31287720D01*
X66371678Y-31291966D01*
X66448043Y-31303574D01*
X66481959Y-31318199D01*
X66500088Y-31362385D01*
X66509895Y-31438137D01*
X66511136Y-31526867D01*
X66503564Y-31609987D01*
X66486935Y-31668908D01*
X66486603Y-31669535D01*
X66436472Y-31715362D01*
X66347138Y-31751601D01*
X66229475Y-31777198D01*
X66094356Y-31791100D01*
X65952657Y-31792254D01*
X65815252Y-31779606D01*
X65693014Y-31752103D01*
X65679679Y-31747685D01*
X65478536Y-31652545D01*
X65293965Y-31515071D01*
X65134391Y-31343072D01*
X65008244Y-31144357D01*
X64991404Y-31109920D01*
X64958926Y-31032939D01*
X64939092Y-30960205D01*
X64928948Y-30874635D01*
X64925538Y-30759149D01*
X64925398Y-30728474D01*
X64925699Y-30700652D01*
X65057397Y-30700652D01*
X65070787Y-30901626D01*
X65130974Y-31089492D01*
X65143152Y-31114452D01*
X65173855Y-31183532D01*
X65190598Y-31238512D01*
X65191640Y-31248608D01*
X65202733Y-31283086D01*
X65212598Y-31287720D01*
X65237036Y-31306804D01*
X65280778Y-31356786D01*
X65333248Y-31425355D01*
X65412577Y-31522855D01*
X65489511Y-31596035D01*
X65554956Y-31636875D01*
X65579770Y-31642644D01*
X65577139Y-31623735D01*
X65551515Y-31573367D01*
X65508348Y-31502168D01*
X65505192Y-31497270D01*
X65393289Y-31321199D01*
X65307975Y-31178163D01*
X65246101Y-31060010D01*
X65204516Y-30958590D01*
X65180071Y-30865751D01*
X65169617Y-30773343D01*
X65169810Y-30723394D01*
X65309376Y-30723394D01*
X65319854Y-30862324D01*
X65372753Y-31039183D01*
X65466554Y-31235223D01*
X65597967Y-31444570D01*
X65763704Y-31661352D01*
X65775134Y-31675023D01*
X65822731Y-31717557D01*
X65849447Y-31715942D01*
X65848077Y-31674956D01*
X65832547Y-31636970D01*
X65800863Y-31580017D01*
X65749372Y-31494724D01*
X65686553Y-31394946D01*
X65648989Y-31336998D01*
X65543782Y-31162057D01*
X65473673Y-31007563D01*
X65434766Y-30861401D01*
X65424229Y-30725163D01*
X65565237Y-30725163D01*
X65593219Y-30934637D01*
X65669731Y-31146354D01*
X65720535Y-31243556D01*
X65777441Y-31335704D01*
X65818166Y-31390523D01*
X65880716Y-31467251D01*
X65940160Y-31545948D01*
X65950638Y-31560770D01*
X65996491Y-31613751D01*
X66038614Y-31641921D01*
X66046694Y-31643320D01*
X66063131Y-31633493D01*
X66055774Y-31598937D01*
X66022504Y-31532038D01*
X66008993Y-31507777D01*
X65968648Y-31427532D01*
X65942601Y-31358691D01*
X65937862Y-31330658D01*
X66040761Y-31330658D01*
X66046024Y-31352117D01*
X66075175Y-31397817D01*
X66130831Y-31474887D01*
X66156840Y-31510299D01*
X66217730Y-31585678D01*
X66273149Y-31641307D01*
X66312473Y-31666724D01*
X66316242Y-31667282D01*
X66344090Y-31664677D01*
X66346654Y-31645575D01*
X66324349Y-31596931D01*
X66318827Y-31586170D01*
X66247171Y-31466960D01*
X66173998Y-31381157D01*
X66145908Y-31362537D01*
X66326118Y-31362537D01*
X66329724Y-31389811D01*
X66361394Y-31441173D01*
X66377349Y-31463778D01*
X66448940Y-31563894D01*
X66457165Y-31485739D01*
X66450771Y-31413217D01*
X66427384Y-31369579D01*
X66378692Y-31345369D01*
X66347569Y-31347617D01*
X66326118Y-31362537D01*
X66145908Y-31362537D01*
X66105655Y-31335855D01*
X66091448Y-31331941D01*
X66056774Y-31326309D01*
X66040761Y-31330658D01*
X65937862Y-31330658D01*
X65936719Y-31323899D01*
X65918522Y-31275330D01*
X65884739Y-31250627D01*
X65829661Y-31202902D01*
X65777020Y-31116119D01*
X65731422Y-31001972D01*
X65697473Y-30872156D01*
X65690879Y-30822292D01*
X65815651Y-30822292D01*
X65818735Y-30849472D01*
X65834485Y-30964384D01*
X65880298Y-30878402D01*
X65910849Y-30791071D01*
X65926405Y-30683974D01*
X65927175Y-30660022D01*
X65938508Y-30579283D01*
X66083029Y-30579283D01*
X66097053Y-30618099D01*
X66123595Y-30622772D01*
X66159039Y-30591560D01*
X66159741Y-30590051D01*
X66337022Y-30590051D01*
X66345368Y-30619852D01*
X66374035Y-30627285D01*
X66377914Y-30627320D01*
X66413127Y-30614259D01*
X66440272Y-30568297D01*
X66459320Y-30506670D01*
X66491633Y-30371653D01*
X66506024Y-30279763D01*
X66502963Y-30226774D01*
X66492182Y-30211398D01*
X66467594Y-30222268D01*
X66435024Y-30269790D01*
X66400246Y-30341717D01*
X66369037Y-30425800D01*
X66347173Y-30509790D01*
X66344615Y-30524332D01*
X66337022Y-30590051D01*
X66159741Y-30590051D01*
X66195069Y-30514131D01*
X66209693Y-30469173D01*
X66254012Y-30347833D01*
X66313913Y-30220489D01*
X66379344Y-30106858D01*
X66428969Y-30039016D01*
X66453441Y-29983176D01*
X66457193Y-29924716D01*
X66451378Y-29894063D01*
X66439602Y-29886859D01*
X66416370Y-29907971D01*
X66376188Y-29962268D01*
X66317924Y-30048106D01*
X66237772Y-30177125D01*
X66171958Y-30301401D01*
X66122731Y-30414285D01*
X66092338Y-30509129D01*
X66083029Y-30579283D01*
X65938508Y-30579283D01*
X65951499Y-30486747D01*
X66020731Y-30297558D01*
X66133211Y-30096846D01*
X66148854Y-30073210D01*
X66220887Y-29965162D01*
X66267311Y-29892146D01*
X66291363Y-29847379D01*
X66296280Y-29824079D01*
X66285301Y-29815463D01*
X66272324Y-29814520D01*
X66236267Y-29835197D01*
X66182575Y-29890974D01*
X66118146Y-29972468D01*
X66049880Y-30070296D01*
X65984678Y-30175076D01*
X65929438Y-30277425D01*
X65924669Y-30287288D01*
X65856726Y-30467183D01*
X65819279Y-30651395D01*
X65815651Y-30822292D01*
X65690879Y-30822292D01*
X65679779Y-30738367D01*
X65679257Y-30728920D01*
X65681322Y-30587285D01*
X65705135Y-30454699D01*
X65754744Y-30319126D01*
X65834196Y-30168531D01*
X65906924Y-30052037D01*
X65977908Y-29941925D01*
X66023132Y-29867215D01*
X66045560Y-29821408D01*
X66048155Y-29798006D01*
X66033879Y-29790510D01*
X66026207Y-29790410D01*
X65994527Y-29811550D01*
X65944235Y-29867061D01*
X65882144Y-29947334D01*
X65815069Y-30042762D01*
X65749823Y-30143735D01*
X65693221Y-30240646D01*
X65659046Y-30308130D01*
X65587194Y-30517503D01*
X65565237Y-30725163D01*
X65424229Y-30725163D01*
X65423168Y-30711458D01*
X65425632Y-30642402D01*
X65459519Y-30441995D01*
X65536960Y-30243263D01*
X65648287Y-30056623D01*
X65690598Y-29984464D01*
X65698528Y-29946189D01*
X65676625Y-29943047D01*
X65629436Y-29976285D01*
X65571528Y-30035566D01*
X65466221Y-30184555D01*
X65384493Y-30358494D01*
X65330744Y-30542926D01*
X65309376Y-30723394D01*
X65169810Y-30723394D01*
X65170004Y-30673214D01*
X65172091Y-30635241D01*
X65181798Y-30535425D01*
X65200048Y-30449197D01*
X65232185Y-30358952D01*
X65283556Y-30247089D01*
X65300259Y-30213223D01*
X65347313Y-30115045D01*
X65382507Y-30034603D01*
X65401621Y-29982000D01*
X65403100Y-29967074D01*
X65378593Y-29974632D01*
X65336927Y-30017547D01*
X65285042Y-30086457D01*
X65229882Y-30172002D01*
X65178386Y-30264820D01*
X65170310Y-30281028D01*
X65090631Y-30491982D01*
X65057397Y-30700652D01*
X64925699Y-30700652D01*
X64926683Y-30609825D01*
X64933436Y-30524282D01*
X64949202Y-30454188D01*
X64977528Y-30381887D01*
X65007727Y-30318474D01*
X65123188Y-30131380D01*
X65268411Y-29982240D01*
X65447385Y-29867926D01*
X65664098Y-29785308D01*
X65699640Y-29775578D01*
X65790007Y-29755706D01*
X65882668Y-29744817D01*
X65992676Y-29742029D01*
X66135084Y-29746460D01*
G36*
X68911297Y-29816518D02*
G01*
X69000635Y-29828177D01*
X69033576Y-29837576D01*
X69075754Y-29869218D01*
X69132832Y-29932265D01*
X69193901Y-30014367D01*
X69206679Y-30033592D01*
X69319140Y-30206551D01*
X69331938Y-30046516D01*
X69335903Y-30016066D01*
X69465067Y-30016066D01*
X69468541Y-30017720D01*
X69491721Y-29999838D01*
X69496940Y-29992320D01*
X69503412Y-29968573D01*
X69499938Y-29966920D01*
X69476758Y-29984801D01*
X69471540Y-29992320D01*
X69465067Y-30016066D01*
X69335903Y-30016066D01*
X69345323Y-29943732D01*
X69371978Y-29876405D01*
X69421139Y-29837270D01*
X69502046Y-29819063D01*
X69623936Y-29814521D01*
X69626980Y-29814520D01*
X69739526Y-29818575D01*
X69811472Y-29831894D01*
X69851032Y-29854741D01*
X69861510Y-29869958D01*
X69869922Y-29895742D01*
X69876434Y-29936996D01*
X69881213Y-29998620D01*
X69884428Y-30085516D01*
X69886244Y-30202587D01*
X69886830Y-30354732D01*
X69886352Y-30546855D01*
X69884978Y-30783857D01*
X69884597Y-30838991D01*
X69877940Y-31783020D01*
X69584163Y-31790135D01*
X69290386Y-31797251D01*
X69039740Y-31433105D01*
X69031959Y-31581784D01*
X69023316Y-31668106D01*
X69009120Y-31735807D01*
X68997099Y-31763091D01*
X68957958Y-31780000D01*
X68883661Y-31791017D01*
X68789515Y-31796071D01*
X68690828Y-31795094D01*
X68602910Y-31788016D01*
X68541068Y-31774767D01*
X68524120Y-31765240D01*
X68515514Y-31742184D01*
X68508510Y-31689606D01*
X68502998Y-31604062D01*
X68498866Y-31482107D01*
X68496005Y-31320297D01*
X68495470Y-31255689D01*
X68600784Y-31255689D01*
X68606277Y-31302839D01*
X68634240Y-31379577D01*
X68668262Y-31423005D01*
X68699624Y-31425698D01*
X68704688Y-31396416D01*
X68686812Y-31343826D01*
X68684227Y-31338689D01*
X68645130Y-31274636D01*
X68615385Y-31246082D01*
X68600784Y-31255689D01*
X68495470Y-31255689D01*
X68494795Y-31174189D01*
X68551009Y-31174189D01*
X68556095Y-31184430D01*
X68580315Y-31210690D01*
X68584770Y-31192171D01*
X68578604Y-31172324D01*
X68559904Y-31144662D01*
X68551458Y-31145234D01*
X68551009Y-31174189D01*
X68494795Y-31174189D01*
X68494305Y-31115188D01*
X68493654Y-30863334D01*
X68493640Y-30814180D01*
X68493640Y-30701783D01*
X68617700Y-30701783D01*
X68625309Y-30857787D01*
X68651989Y-30991829D01*
X68657507Y-31008320D01*
X68694646Y-31094039D01*
X68743831Y-31183994D01*
X68797270Y-31266455D01*
X68847171Y-31329691D01*
X68885743Y-31361973D01*
X68893690Y-31363870D01*
X68923286Y-31357487D01*
X68925440Y-31353856D01*
X68915234Y-31327963D01*
X68887973Y-31267402D01*
X68848693Y-31183251D01*
X68830190Y-31144306D01*
X68784891Y-31045821D01*
X68756796Y-30969249D01*
X68741826Y-30895722D01*
X68735904Y-30806372D01*
X68734940Y-30703520D01*
X68735363Y-30693431D01*
X68862682Y-30693431D01*
X68873783Y-30850214D01*
X68897893Y-30941527D01*
X68935446Y-31041028D01*
X68980481Y-31137026D01*
X69027041Y-31217832D01*
X69069166Y-31271753D01*
X69096796Y-31287720D01*
X69121465Y-31273791D01*
X69114495Y-31243270D01*
X69028724Y-31015630D01*
X68983820Y-30810266D01*
X68982181Y-30737309D01*
X69121385Y-30737309D01*
X69150203Y-30935510D01*
X69220353Y-31110584D01*
X69266358Y-31185564D01*
X69302898Y-31227874D01*
X69325069Y-31234223D01*
X69327967Y-31201322D01*
X69323482Y-31179770D01*
X69308560Y-31123386D01*
X69285714Y-31040513D01*
X69269721Y-30983734D01*
X69238663Y-30818696D01*
X69234917Y-30707780D01*
X69374455Y-30707780D01*
X69383078Y-30831313D01*
X69385053Y-30842689D01*
X69411370Y-30946912D01*
X69447863Y-31044873D01*
X69488813Y-31124819D01*
X69528503Y-31174997D01*
X69552122Y-31186120D01*
X69578348Y-31170083D01*
X69576772Y-31154370D01*
X69506018Y-30930409D01*
X69490958Y-30778495D01*
X69626602Y-30778495D01*
X69636600Y-30843043D01*
X69671477Y-30973680D01*
X69708163Y-31065807D01*
X69744548Y-31115092D01*
X69771974Y-31120780D01*
X69792279Y-31105578D01*
X69794697Y-31073307D01*
X69779376Y-31010240D01*
X69773378Y-30990002D01*
X69743103Y-30821805D01*
X69743210Y-30635527D01*
X69773064Y-30453321D01*
X69790411Y-30394648D01*
X69816848Y-30302181D01*
X69832480Y-30219464D01*
X69834341Y-30173199D01*
X69827539Y-30143202D01*
X69814463Y-30143463D01*
X69789984Y-30179067D01*
X69748973Y-30255103D01*
X69746019Y-30260784D01*
X69671897Y-30438200D01*
X69631284Y-30615069D01*
X69626602Y-30778495D01*
X69490958Y-30778495D01*
X69484260Y-30710943D01*
X69511848Y-30493312D01*
X69589133Y-30274855D01*
X69716464Y-30052913D01*
X69723142Y-30043143D01*
X69774796Y-29961323D01*
X69794262Y-29911314D01*
X69785528Y-29888549D01*
X69749318Y-29893637D01*
X69699641Y-29937813D01*
X69641308Y-30012766D01*
X69579132Y-30110187D01*
X69517924Y-30221767D01*
X69462498Y-30339195D01*
X69417666Y-30454163D01*
X69388240Y-30558361D01*
X69383772Y-30582263D01*
X69374455Y-30707780D01*
X69234917Y-30707780D01*
X69232795Y-30644957D01*
X69252096Y-30483826D01*
X69270301Y-30417194D01*
X69293887Y-30326955D01*
X69290671Y-30267564D01*
X69284575Y-30253920D01*
X69266963Y-30233311D01*
X69248192Y-30244250D01*
X69221436Y-30293245D01*
X69204693Y-30330073D01*
X69139500Y-30533081D01*
X69121385Y-30737309D01*
X68982181Y-30737309D01*
X68979536Y-30619616D01*
X69015627Y-30436116D01*
X69082785Y-30270104D01*
X69133875Y-30158059D01*
X69155668Y-30086320D01*
X69150925Y-30055820D01*
X69123189Y-30049595D01*
X69087127Y-30081375D01*
X69040193Y-30154446D01*
X68979841Y-30272097D01*
X68973882Y-30284530D01*
X68894025Y-30495718D01*
X68862682Y-30693431D01*
X68735363Y-30693431D01*
X68741229Y-30553585D01*
X68763501Y-30425123D01*
X68806865Y-30303256D01*
X68876428Y-30173104D01*
X68962135Y-30041699D01*
X69008920Y-29964116D01*
X69027932Y-29911413D01*
X69019334Y-29888817D01*
X68983290Y-29901554D01*
X68958328Y-29920068D01*
X68911152Y-29971962D01*
X68851146Y-30056089D01*
X68786762Y-30158555D01*
X68726451Y-30265466D01*
X68678666Y-30362930D01*
X68659412Y-30411420D01*
X68629091Y-30545699D01*
X68617700Y-30701783D01*
X68493640Y-30701783D01*
X68493640Y-30211908D01*
X68544440Y-30211908D01*
X68545903Y-30250745D01*
X68553802Y-30263371D01*
X68573398Y-30245370D01*
X68609952Y-30192326D01*
X68658347Y-30116293D01*
X68710019Y-30026249D01*
X68728946Y-29970278D01*
X68716044Y-29944410D01*
X68698716Y-29941520D01*
X68668132Y-29962670D01*
X68628495Y-30015699D01*
X68588726Y-30084971D01*
X68557747Y-30154848D01*
X68544478Y-30209697D01*
X68544440Y-30211908D01*
X68493640Y-30211908D01*
X68493640Y-29893600D01*
X68550091Y-29854060D01*
X68607142Y-29833201D01*
X68697636Y-29819607D01*
X68804659Y-29813854D01*
X68911297Y-29816518D01*
G37*
X68911297Y-29816518D02*
X69000635Y-29828177D01*
X69033576Y-29837576D01*
X69075754Y-29869218D01*
X69132832Y-29932265D01*
X69193901Y-30014367D01*
X69206679Y-30033592D01*
X69319140Y-30206551D01*
X69331938Y-30046516D01*
X69335903Y-30016066D01*
X69465067Y-30016066D01*
X69468541Y-30017720D01*
X69491721Y-29999838D01*
X69496940Y-29992320D01*
X69503412Y-29968573D01*
X69499938Y-29966920D01*
X69476758Y-29984801D01*
X69471540Y-29992320D01*
X69465067Y-30016066D01*
X69335903Y-30016066D01*
X69345323Y-29943732D01*
X69371978Y-29876405D01*
X69421139Y-29837270D01*
X69502046Y-29819063D01*
X69623936Y-29814521D01*
X69626980Y-29814520D01*
X69739526Y-29818575D01*
X69811472Y-29831894D01*
X69851032Y-29854741D01*
X69861510Y-29869958D01*
X69869922Y-29895742D01*
X69876434Y-29936996D01*
X69881213Y-29998620D01*
X69884428Y-30085516D01*
X69886244Y-30202587D01*
X69886830Y-30354732D01*
X69886352Y-30546855D01*
X69884978Y-30783857D01*
X69884597Y-30838991D01*
X69877940Y-31783020D01*
X69584163Y-31790135D01*
X69290386Y-31797251D01*
X69039740Y-31433105D01*
X69031959Y-31581784D01*
X69023316Y-31668106D01*
X69009120Y-31735807D01*
X68997099Y-31763091D01*
X68957958Y-31780000D01*
X68883661Y-31791017D01*
X68789515Y-31796071D01*
X68690828Y-31795094D01*
X68602910Y-31788016D01*
X68541068Y-31774767D01*
X68524120Y-31765240D01*
X68515514Y-31742184D01*
X68508510Y-31689606D01*
X68502998Y-31604062D01*
X68498866Y-31482107D01*
X68496005Y-31320297D01*
X68495470Y-31255689D01*
X68600784Y-31255689D01*
X68606277Y-31302839D01*
X68634240Y-31379577D01*
X68668262Y-31423005D01*
X68699624Y-31425698D01*
X68704688Y-31396416D01*
X68686812Y-31343826D01*
X68684227Y-31338689D01*
X68645130Y-31274636D01*
X68615385Y-31246082D01*
X68600784Y-31255689D01*
X68495470Y-31255689D01*
X68494795Y-31174189D01*
X68551009Y-31174189D01*
X68556095Y-31184430D01*
X68580315Y-31210690D01*
X68584770Y-31192171D01*
X68578604Y-31172324D01*
X68559904Y-31144662D01*
X68551458Y-31145234D01*
X68551009Y-31174189D01*
X68494795Y-31174189D01*
X68494305Y-31115188D01*
X68493654Y-30863334D01*
X68493640Y-30814180D01*
X68493640Y-30701783D01*
X68617700Y-30701783D01*
X68625309Y-30857787D01*
X68651989Y-30991829D01*
X68657507Y-31008320D01*
X68694646Y-31094039D01*
X68743831Y-31183994D01*
X68797270Y-31266455D01*
X68847171Y-31329691D01*
X68885743Y-31361973D01*
X68893690Y-31363870D01*
X68923286Y-31357487D01*
X68925440Y-31353856D01*
X68915234Y-31327963D01*
X68887973Y-31267402D01*
X68848693Y-31183251D01*
X68830190Y-31144306D01*
X68784891Y-31045821D01*
X68756796Y-30969249D01*
X68741826Y-30895722D01*
X68735904Y-30806372D01*
X68734940Y-30703520D01*
X68735363Y-30693431D01*
X68862682Y-30693431D01*
X68873783Y-30850214D01*
X68897893Y-30941527D01*
X68935446Y-31041028D01*
X68980481Y-31137026D01*
X69027041Y-31217832D01*
X69069166Y-31271753D01*
X69096796Y-31287720D01*
X69121465Y-31273791D01*
X69114495Y-31243270D01*
X69028724Y-31015630D01*
X68983820Y-30810266D01*
X68982181Y-30737309D01*
X69121385Y-30737309D01*
X69150203Y-30935510D01*
X69220353Y-31110584D01*
X69266358Y-31185564D01*
X69302898Y-31227874D01*
X69325069Y-31234223D01*
X69327967Y-31201322D01*
X69323482Y-31179770D01*
X69308560Y-31123386D01*
X69285714Y-31040513D01*
X69269721Y-30983734D01*
X69238663Y-30818696D01*
X69234917Y-30707780D01*
X69374455Y-30707780D01*
X69383078Y-30831313D01*
X69385053Y-30842689D01*
X69411370Y-30946912D01*
X69447863Y-31044873D01*
X69488813Y-31124819D01*
X69528503Y-31174997D01*
X69552122Y-31186120D01*
X69578348Y-31170083D01*
X69576772Y-31154370D01*
X69506018Y-30930409D01*
X69490958Y-30778495D01*
X69626602Y-30778495D01*
X69636600Y-30843043D01*
X69671477Y-30973680D01*
X69708163Y-31065807D01*
X69744548Y-31115092D01*
X69771974Y-31120780D01*
X69792279Y-31105578D01*
X69794697Y-31073307D01*
X69779376Y-31010240D01*
X69773378Y-30990002D01*
X69743103Y-30821805D01*
X69743210Y-30635527D01*
X69773064Y-30453321D01*
X69790411Y-30394648D01*
X69816848Y-30302181D01*
X69832480Y-30219464D01*
X69834341Y-30173199D01*
X69827539Y-30143202D01*
X69814463Y-30143463D01*
X69789984Y-30179067D01*
X69748973Y-30255103D01*
X69746019Y-30260784D01*
X69671897Y-30438200D01*
X69631284Y-30615069D01*
X69626602Y-30778495D01*
X69490958Y-30778495D01*
X69484260Y-30710943D01*
X69511848Y-30493312D01*
X69589133Y-30274855D01*
X69716464Y-30052913D01*
X69723142Y-30043143D01*
X69774796Y-29961323D01*
X69794262Y-29911314D01*
X69785528Y-29888549D01*
X69749318Y-29893637D01*
X69699641Y-29937813D01*
X69641308Y-30012766D01*
X69579132Y-30110187D01*
X69517924Y-30221767D01*
X69462498Y-30339195D01*
X69417666Y-30454163D01*
X69388240Y-30558361D01*
X69383772Y-30582263D01*
X69374455Y-30707780D01*
X69234917Y-30707780D01*
X69232795Y-30644957D01*
X69252096Y-30483826D01*
X69270301Y-30417194D01*
X69293887Y-30326955D01*
X69290671Y-30267564D01*
X69284575Y-30253920D01*
X69266963Y-30233311D01*
X69248192Y-30244250D01*
X69221436Y-30293245D01*
X69204693Y-30330073D01*
X69139500Y-30533081D01*
X69121385Y-30737309D01*
X68982181Y-30737309D01*
X68979536Y-30619616D01*
X69015627Y-30436116D01*
X69082785Y-30270104D01*
X69133875Y-30158059D01*
X69155668Y-30086320D01*
X69150925Y-30055820D01*
X69123189Y-30049595D01*
X69087127Y-30081375D01*
X69040193Y-30154446D01*
X68979841Y-30272097D01*
X68973882Y-30284530D01*
X68894025Y-30495718D01*
X68862682Y-30693431D01*
X68735363Y-30693431D01*
X68741229Y-30553585D01*
X68763501Y-30425123D01*
X68806865Y-30303256D01*
X68876428Y-30173104D01*
X68962135Y-30041699D01*
X69008920Y-29964116D01*
X69027932Y-29911413D01*
X69019334Y-29888817D01*
X68983290Y-29901554D01*
X68958328Y-29920068D01*
X68911152Y-29971962D01*
X68851146Y-30056089D01*
X68786762Y-30158555D01*
X68726451Y-30265466D01*
X68678666Y-30362930D01*
X68659412Y-30411420D01*
X68629091Y-30545699D01*
X68617700Y-30701783D01*
X68493640Y-30701783D01*
X68493640Y-30211908D01*
X68544440Y-30211908D01*
X68545903Y-30250745D01*
X68553802Y-30263371D01*
X68573398Y-30245370D01*
X68609952Y-30192326D01*
X68658347Y-30116293D01*
X68710019Y-30026249D01*
X68728946Y-29970278D01*
X68716044Y-29944410D01*
X68698716Y-29941520D01*
X68668132Y-29962670D01*
X68628495Y-30015699D01*
X68588726Y-30084971D01*
X68557747Y-30154848D01*
X68544478Y-30209697D01*
X68544440Y-30211908D01*
X68493640Y-30211908D01*
X68493640Y-29893600D01*
X68550091Y-29854060D01*
X68607142Y-29833201D01*
X68697636Y-29819607D01*
X68804659Y-29813854D01*
X68911297Y-29816518D01*
G36*
X71456909Y-29829283D02*
G01*
X71508505Y-29841568D01*
X71541845Y-29869982D01*
X71560370Y-29920996D01*
X71567523Y-30001082D01*
X71566746Y-30116708D01*
X71561481Y-30274346D01*
X71559162Y-30342255D01*
X71545473Y-30645503D01*
X71524932Y-30902423D01*
X71496064Y-31117202D01*
X71457392Y-31294027D01*
X71407441Y-31437085D01*
X71344736Y-31550562D01*
X71267800Y-31638647D01*
X71175157Y-31705525D01*
X71065332Y-31755383D01*
X71060452Y-31757121D01*
X70933029Y-31785248D01*
X70781005Y-31793886D01*
X70626508Y-31783464D01*
X70491671Y-31754409D01*
X70467028Y-31745631D01*
X70296075Y-31657034D01*
X70166165Y-31540203D01*
X70107662Y-31457027D01*
X70077009Y-31395668D01*
X70054513Y-31324957D01*
X70037371Y-31232355D01*
X70022782Y-31105325D01*
X70018413Y-31057838D01*
X70006051Y-30888995D01*
X69999522Y-30752756D01*
X70148646Y-30752756D01*
X70158253Y-30859053D01*
X70176985Y-30940237D01*
X70202893Y-30987317D01*
X70228877Y-30993894D01*
X70245232Y-30966234D01*
X70252188Y-30896758D01*
X70250192Y-30782012D01*
X70250443Y-30755784D01*
X70401119Y-30755784D01*
X70409653Y-30815421D01*
X70426041Y-30827432D01*
X70448397Y-30792728D01*
X70474834Y-30712221D01*
X70477611Y-30700231D01*
X70653165Y-30700231D01*
X70655762Y-30750405D01*
X70667403Y-30768486D01*
X70683005Y-30766473D01*
X70708922Y-30733858D01*
X70734237Y-30663294D01*
X70748332Y-30601292D01*
X70775779Y-30488556D01*
X70815086Y-30366278D01*
X70839499Y-30303915D01*
X70876194Y-30212101D01*
X70905408Y-30127141D01*
X70917711Y-30081220D01*
X70932815Y-30005020D01*
X70878826Y-30068442D01*
X70783554Y-30209949D01*
X70709160Y-30378242D01*
X70664899Y-30550651D01*
X70658165Y-30608796D01*
X70653165Y-30700231D01*
X70477611Y-30700231D01*
X70500844Y-30599947D01*
X70551018Y-30408837D01*
X70624074Y-30233472D01*
X70728765Y-30053610D01*
X70752642Y-30017720D01*
X70796850Y-29943124D01*
X70807034Y-29901067D01*
X70799712Y-29893254D01*
X70761997Y-29905501D01*
X70708311Y-29955558D01*
X70644839Y-30035521D01*
X70577765Y-30137487D01*
X70513273Y-30253552D01*
X70505212Y-30269646D01*
X70452817Y-30384938D01*
X70422112Y-30482112D01*
X70406538Y-30585271D01*
X70402324Y-30647607D01*
X70401119Y-30755784D01*
X70250443Y-30755784D01*
X70251742Y-30620380D01*
X70275153Y-30474833D01*
X70324772Y-30330336D01*
X70404945Y-30171854D01*
X70447427Y-30099722D01*
X70506626Y-29994827D01*
X70536931Y-29925252D01*
X70539487Y-29893017D01*
X70515437Y-29900142D01*
X70465927Y-29948647D01*
X70404565Y-30024070D01*
X70289789Y-30189934D01*
X70212551Y-30341745D01*
X70167394Y-30492505D01*
X70150110Y-30630335D01*
X70148646Y-30752756D01*
X69999522Y-30752756D01*
X69997530Y-30711192D01*
X69992783Y-30532565D01*
X69991739Y-30361251D01*
X69994329Y-30205385D01*
X69996297Y-30163071D01*
X70093840Y-30163071D01*
X70097326Y-30208096D01*
X70103164Y-30220920D01*
X70121312Y-30201733D01*
X70156953Y-30152950D01*
X70179364Y-30119864D01*
X70224342Y-30049528D01*
X70242313Y-30011183D01*
X70235536Y-29995296D01*
X70209580Y-29992320D01*
X70164497Y-30014236D01*
X70122793Y-30067700D01*
X70096960Y-30134283D01*
X70093840Y-30163071D01*
X69996297Y-30163071D01*
X70000484Y-30073105D01*
X70010134Y-29972548D01*
X70023209Y-29911849D01*
X70028284Y-29901924D01*
X70045820Y-29883521D01*
X70072660Y-29869999D01*
X70116584Y-29860368D01*
X70185375Y-29853636D01*
X70286816Y-29848814D01*
X70428689Y-29844910D01*
X70486071Y-29843647D01*
X70659634Y-29841210D01*
X70787659Y-29842491D01*
X70875289Y-29847741D01*
X70927666Y-29857207D01*
X70945449Y-29865909D01*
X70956964Y-29881617D01*
X70965441Y-29910889D01*
X70971057Y-29959541D01*
X70973990Y-30033388D01*
X70974417Y-30138247D01*
X70972515Y-30279934D01*
X70968461Y-30464264D01*
X70966299Y-30550383D01*
X70961435Y-30765837D01*
X70959233Y-30934542D01*
X70959770Y-31060482D01*
X70963119Y-31147641D01*
X70969356Y-31200005D01*
X70978554Y-31221558D01*
X70978876Y-31221770D01*
X70988249Y-31214090D01*
X70995600Y-31175630D01*
X71001100Y-31102618D01*
X71004918Y-30991281D01*
X71007224Y-30837846D01*
X71008187Y-30638541D01*
X71008215Y-30600608D01*
X71419418Y-30600608D01*
X71423378Y-30621103D01*
X71443624Y-30607936D01*
X71451513Y-30600386D01*
X71477909Y-30551277D01*
X71498165Y-30470612D01*
X71504373Y-30422586D01*
X71510621Y-30345557D01*
X71510013Y-30313671D01*
X71500560Y-30321505D01*
X71481660Y-30360620D01*
X71453448Y-30438452D01*
X71430733Y-30528025D01*
X71428800Y-30538420D01*
X71419418Y-30600608D01*
X71008215Y-30600608D01*
X71008240Y-30568429D01*
X71008313Y-30518043D01*
X71195778Y-30518043D01*
X71216867Y-30542365D01*
X71221019Y-30542653D01*
X71254678Y-30520635D01*
X71275085Y-30474255D01*
X71294322Y-30421408D01*
X71332625Y-30339633D01*
X71382963Y-30243580D01*
X71403174Y-30207453D01*
X71453901Y-30112567D01*
X71492593Y-30028995D01*
X71513297Y-29970080D01*
X71515207Y-29956234D01*
X71510642Y-29928492D01*
X71493219Y-29932862D01*
X71454849Y-29972924D01*
X71440849Y-29989154D01*
X71373259Y-30078846D01*
X71311702Y-30179666D01*
X71259677Y-30282805D01*
X71220682Y-30379454D01*
X71198216Y-30460803D01*
X71195778Y-30518043D01*
X71008313Y-30518043D01*
X71008540Y-30363772D01*
X71009674Y-30204032D01*
X71010166Y-30178353D01*
X71125507Y-30178353D01*
X71127507Y-30199830D01*
X71141378Y-30192733D01*
X71172100Y-30153146D01*
X71224655Y-30077158D01*
X71252513Y-30036270D01*
X71305934Y-29949133D01*
X71330132Y-29891238D01*
X71326455Y-29866289D01*
X71296250Y-29877987D01*
X71240865Y-29930034D01*
X71221685Y-29951580D01*
X71165799Y-30033588D01*
X71133187Y-30116096D01*
X71130396Y-30132214D01*
X71125507Y-30178353D01*
X71010166Y-30178353D01*
X71011991Y-30083328D01*
X71015842Y-29995778D01*
X71021574Y-29935501D01*
X71029539Y-29896616D01*
X71040086Y-29873243D01*
X71050228Y-29862080D01*
X71106970Y-29840260D01*
X71210313Y-29828868D01*
X71285178Y-29827220D01*
X71383614Y-29826657D01*
X71456909Y-29829283D01*
G37*
X71456909Y-29829283D02*
X71508505Y-29841568D01*
X71541845Y-29869982D01*
X71560370Y-29920996D01*
X71567523Y-30001082D01*
X71566746Y-30116708D01*
X71561481Y-30274346D01*
X71559162Y-30342255D01*
X71545473Y-30645503D01*
X71524932Y-30902423D01*
X71496064Y-31117202D01*
X71457392Y-31294027D01*
X71407441Y-31437085D01*
X71344736Y-31550562D01*
X71267800Y-31638647D01*
X71175157Y-31705525D01*
X71065332Y-31755383D01*
X71060452Y-31757121D01*
X70933029Y-31785248D01*
X70781005Y-31793886D01*
X70626508Y-31783464D01*
X70491671Y-31754409D01*
X70467028Y-31745631D01*
X70296075Y-31657034D01*
X70166165Y-31540203D01*
X70107662Y-31457027D01*
X70077009Y-31395668D01*
X70054513Y-31324957D01*
X70037371Y-31232355D01*
X70022782Y-31105325D01*
X70018413Y-31057838D01*
X70006051Y-30888995D01*
X69999522Y-30752756D01*
X70148646Y-30752756D01*
X70158253Y-30859053D01*
X70176985Y-30940237D01*
X70202893Y-30987317D01*
X70228877Y-30993894D01*
X70245232Y-30966234D01*
X70252188Y-30896758D01*
X70250192Y-30782012D01*
X70250443Y-30755784D01*
X70401119Y-30755784D01*
X70409653Y-30815421D01*
X70426041Y-30827432D01*
X70448397Y-30792728D01*
X70474834Y-30712221D01*
X70477611Y-30700231D01*
X70653165Y-30700231D01*
X70655762Y-30750405D01*
X70667403Y-30768486D01*
X70683005Y-30766473D01*
X70708922Y-30733858D01*
X70734237Y-30663294D01*
X70748332Y-30601292D01*
X70775779Y-30488556D01*
X70815086Y-30366278D01*
X70839499Y-30303915D01*
X70876194Y-30212101D01*
X70905408Y-30127141D01*
X70917711Y-30081220D01*
X70932815Y-30005020D01*
X70878826Y-30068442D01*
X70783554Y-30209949D01*
X70709160Y-30378242D01*
X70664899Y-30550651D01*
X70658165Y-30608796D01*
X70653165Y-30700231D01*
X70477611Y-30700231D01*
X70500844Y-30599947D01*
X70551018Y-30408837D01*
X70624074Y-30233472D01*
X70728765Y-30053610D01*
X70752642Y-30017720D01*
X70796850Y-29943124D01*
X70807034Y-29901067D01*
X70799712Y-29893254D01*
X70761997Y-29905501D01*
X70708311Y-29955558D01*
X70644839Y-30035521D01*
X70577765Y-30137487D01*
X70513273Y-30253552D01*
X70505212Y-30269646D01*
X70452817Y-30384938D01*
X70422112Y-30482112D01*
X70406538Y-30585271D01*
X70402324Y-30647607D01*
X70401119Y-30755784D01*
X70250443Y-30755784D01*
X70251742Y-30620380D01*
X70275153Y-30474833D01*
X70324772Y-30330336D01*
X70404945Y-30171854D01*
X70447427Y-30099722D01*
X70506626Y-29994827D01*
X70536931Y-29925252D01*
X70539487Y-29893017D01*
X70515437Y-29900142D01*
X70465927Y-29948647D01*
X70404565Y-30024070D01*
X70289789Y-30189934D01*
X70212551Y-30341745D01*
X70167394Y-30492505D01*
X70150110Y-30630335D01*
X70148646Y-30752756D01*
X69999522Y-30752756D01*
X69997530Y-30711192D01*
X69992783Y-30532565D01*
X69991739Y-30361251D01*
X69994329Y-30205385D01*
X69996297Y-30163071D01*
X70093840Y-30163071D01*
X70097326Y-30208096D01*
X70103164Y-30220920D01*
X70121312Y-30201733D01*
X70156953Y-30152950D01*
X70179364Y-30119864D01*
X70224342Y-30049528D01*
X70242313Y-30011183D01*
X70235536Y-29995296D01*
X70209580Y-29992320D01*
X70164497Y-30014236D01*
X70122793Y-30067700D01*
X70096960Y-30134283D01*
X70093840Y-30163071D01*
X69996297Y-30163071D01*
X70000484Y-30073105D01*
X70010134Y-29972548D01*
X70023209Y-29911849D01*
X70028284Y-29901924D01*
X70045820Y-29883521D01*
X70072660Y-29869999D01*
X70116584Y-29860368D01*
X70185375Y-29853636D01*
X70286816Y-29848814D01*
X70428689Y-29844910D01*
X70486071Y-29843647D01*
X70659634Y-29841210D01*
X70787659Y-29842491D01*
X70875289Y-29847741D01*
X70927666Y-29857207D01*
X70945449Y-29865909D01*
X70956964Y-29881617D01*
X70965441Y-29910889D01*
X70971057Y-29959541D01*
X70973990Y-30033388D01*
X70974417Y-30138247D01*
X70972515Y-30279934D01*
X70968461Y-30464264D01*
X70966299Y-30550383D01*
X70961435Y-30765837D01*
X70959233Y-30934542D01*
X70959770Y-31060482D01*
X70963119Y-31147641D01*
X70969356Y-31200005D01*
X70978554Y-31221558D01*
X70978876Y-31221770D01*
X70988249Y-31214090D01*
X70995600Y-31175630D01*
X71001100Y-31102618D01*
X71004918Y-30991281D01*
X71007224Y-30837846D01*
X71008187Y-30638541D01*
X71008215Y-30600608D01*
X71419418Y-30600608D01*
X71423378Y-30621103D01*
X71443624Y-30607936D01*
X71451513Y-30600386D01*
X71477909Y-30551277D01*
X71498165Y-30470612D01*
X71504373Y-30422586D01*
X71510621Y-30345557D01*
X71510013Y-30313671D01*
X71500560Y-30321505D01*
X71481660Y-30360620D01*
X71453448Y-30438452D01*
X71430733Y-30528025D01*
X71428800Y-30538420D01*
X71419418Y-30600608D01*
X71008215Y-30600608D01*
X71008240Y-30568429D01*
X71008313Y-30518043D01*
X71195778Y-30518043D01*
X71216867Y-30542365D01*
X71221019Y-30542653D01*
X71254678Y-30520635D01*
X71275085Y-30474255D01*
X71294322Y-30421408D01*
X71332625Y-30339633D01*
X71382963Y-30243580D01*
X71403174Y-30207453D01*
X71453901Y-30112567D01*
X71492593Y-30028995D01*
X71513297Y-29970080D01*
X71515207Y-29956234D01*
X71510642Y-29928492D01*
X71493219Y-29932862D01*
X71454849Y-29972924D01*
X71440849Y-29989154D01*
X71373259Y-30078846D01*
X71311702Y-30179666D01*
X71259677Y-30282805D01*
X71220682Y-30379454D01*
X71198216Y-30460803D01*
X71195778Y-30518043D01*
X71008313Y-30518043D01*
X71008540Y-30363772D01*
X71009674Y-30204032D01*
X71010166Y-30178353D01*
X71125507Y-30178353D01*
X71127507Y-30199830D01*
X71141378Y-30192733D01*
X71172100Y-30153146D01*
X71224655Y-30077158D01*
X71252513Y-30036270D01*
X71305934Y-29949133D01*
X71330132Y-29891238D01*
X71326455Y-29866289D01*
X71296250Y-29877987D01*
X71240865Y-29930034D01*
X71221685Y-29951580D01*
X71165799Y-30033588D01*
X71133187Y-30116096D01*
X71130396Y-30132214D01*
X71125507Y-30178353D01*
X71010166Y-30178353D01*
X71011991Y-30083328D01*
X71015842Y-29995778D01*
X71021574Y-29935501D01*
X71029539Y-29896616D01*
X71040086Y-29873243D01*
X71050228Y-29862080D01*
X71106970Y-29840260D01*
X71210313Y-29828868D01*
X71285178Y-29827220D01*
X71383614Y-29826657D01*
X71456909Y-29829283D01*
D11*
%TO.C,C1*%
X40661500Y-39279122D02*
X40661500Y-39796278D01*
X42081500Y-39279122D02*
X42081500Y-39796278D01*
%TO.C,U1*%
X44940718Y-45703000D02*
X45223500Y-45703000D01*
X43768500Y-44530782D02*
X44940718Y-45703000D01*
X43768500Y-44248000D02*
X43768500Y-44530782D01*
X57958500Y-34053000D02*
X56503500Y-34053000D01*
X57958500Y-35508000D02*
X57958500Y-34053000D01*
X57958500Y-45703000D02*
X56503500Y-45703000D01*
X57958500Y-44248000D02*
X57958500Y-45703000D01*
X43768500Y-34053000D02*
X45223500Y-34053000D01*
X43768500Y-35508000D02*
X43768500Y-34053000D01*
%TO.C,R2*%
D12*
X31367453Y-49967140D02*
X31034120Y-49490950D01*
X30796024Y-49967140D02*
X30796024Y-48967140D01*
X31176977Y-48967140D01*
X31272215Y-49014760D01*
X31319834Y-49062379D01*
X31367453Y-49157617D01*
X31367453Y-49300474D01*
X31319834Y-49395712D01*
X31272215Y-49443331D01*
X31176977Y-49490950D01*
X30796024Y-49490950D01*
X31748405Y-49062379D02*
X31796024Y-49014760D01*
X31891262Y-48967140D01*
X32129358Y-48967140D01*
X32224596Y-49014760D01*
X32272215Y-49062379D01*
X32319834Y-49157617D01*
X32319834Y-49252855D01*
X32272215Y-49395712D01*
X31700786Y-49967140D01*
X32319834Y-49967140D01*
%TO.C,J1*%
D13*
X73535757Y-48451987D02*
X74282638Y-48451987D01*
X73880471Y-48911606D01*
X74052828Y-48911606D01*
X74167733Y-48969059D01*
X74225185Y-49026511D01*
X74282638Y-49141416D01*
X74282638Y-49428678D01*
X74225185Y-49543582D01*
X74167733Y-49601035D01*
X74052828Y-49658487D01*
X73708114Y-49658487D01*
X73593209Y-49601035D01*
X73535757Y-49543582D01*
X74742257Y-48566892D02*
X74799709Y-48509440D01*
X74914614Y-48451987D01*
X75201876Y-48451987D01*
X75316780Y-48509440D01*
X75374233Y-48566892D01*
X75431685Y-48681797D01*
X75431685Y-48796701D01*
X75374233Y-48969059D01*
X74684804Y-49658487D01*
X75431685Y-49658487D01*
X27282638Y-49658487D02*
X26593209Y-49658487D01*
X26937923Y-49658487D02*
X26937923Y-48451987D01*
X26823019Y-48624344D01*
X26708114Y-48739249D01*
X26593209Y-48796701D01*
%TO.C,C1*%
D12*
X41199773Y-37220162D02*
X41152154Y-37267781D01*
X41009297Y-37315400D01*
X40914059Y-37315400D01*
X40771201Y-37267781D01*
X40675963Y-37172543D01*
X40628344Y-37077305D01*
X40580725Y-36886829D01*
X40580725Y-36743972D01*
X40628344Y-36553496D01*
X40675963Y-36458258D01*
X40771201Y-36363020D01*
X40914059Y-36315400D01*
X41009297Y-36315400D01*
X41152154Y-36363020D01*
X41199773Y-36410639D01*
X42152154Y-37315400D02*
X41580725Y-37315400D01*
X41866440Y-37315400D02*
X41866440Y-36315400D01*
X41771201Y-36458258D01*
X41675963Y-36553496D01*
X41580725Y-36601115D01*
%TO.C,U1*%
X41033795Y-42939720D02*
X41033795Y-43749244D01*
X41081414Y-43844482D01*
X41129033Y-43892101D01*
X41224271Y-43939720D01*
X41414747Y-43939720D01*
X41509985Y-43892101D01*
X41557604Y-43844482D01*
X41605223Y-43749244D01*
X41605223Y-42939720D01*
X42605223Y-43939720D02*
X42033795Y-43939720D01*
X42319509Y-43939720D02*
X42319509Y-42939720D01*
X42224271Y-43082578D01*
X42129033Y-43177816D01*
X42033795Y-43225435D01*
%TD*%
M02*
