%TF.GenerationSoftware,KiCad,Pcbnew,(5.1.8)-1*%
%TF.CreationDate,2020-12-20T15:01:14+01:00*%
%TF.ProjectId,GBA Cart,47424120-4361-4727-942e-6b696361645f,rev?*%
%TF.SameCoordinates,Original*%
%TF.FileFunction,Soldermask,Top*%
%TF.FilePolarity,Negative*%
%FSLAX46Y46*%
G04 Gerber Fmt 4.6, Leading zero omitted, Abs format (unit mm)*
G04 Created by KiCad (PCBNEW (5.1.8)-1) date 2020-12-20 15:01:14*
%MOMM*%
%LPD*%
G01*
G04 APERTURE LIST*
G04 APERTURE END LIST*
%TO.C,R2*%
G36*
G01*
X31679200Y-48521000D02*
X31679200Y-48126000D01*
G75*
G02*
X31851700Y-47953500I172500J0D01*
G01*
X32196700Y-47953500D01*
G75*
G02*
X32369200Y-48126000I0J-172500D01*
G01*
X32369200Y-48521000D01*
G75*
G02*
X32196700Y-48693500I-172500J0D01*
G01*
X31851700Y-48693500D01*
G75*
G02*
X31679200Y-48521000I0J172500D01*
G01*
G37*
G36*
G01*
X30709200Y-48521000D02*
X30709200Y-48126000D01*
G75*
G02*
X30881700Y-47953500I172500J0D01*
G01*
X31226700Y-47953500D01*
G75*
G02*
X31399200Y-48126000I0J-172500D01*
G01*
X31399200Y-48521000D01*
G75*
G02*
X31226700Y-48693500I-172500J0D01*
G01*
X30881700Y-48693500D01*
G75*
G02*
X30709200Y-48521000I0J172500D01*
G01*
G37*
%TD*%
%TO.C,J1*%
G36*
G01*
X73445760Y-56715940D02*
X73445760Y-50715940D01*
G75*
G02*
X73547360Y-50614340I101600J0D01*
G01*
X75047360Y-50614340D01*
G75*
G02*
X75148960Y-50715940I0J-101600D01*
G01*
X75148960Y-56715940D01*
G75*
G02*
X75047360Y-56817540I-101600J0D01*
G01*
X73547360Y-56817540D01*
G75*
G02*
X73445760Y-56715940I0J101600D01*
G01*
G37*
G36*
G01*
X71945760Y-56715941D02*
X71945760Y-50715939D01*
G75*
G02*
X72047359Y-50614340I101599J0D01*
G01*
X73047361Y-50614340D01*
G75*
G02*
X73148960Y-50715939I0J-101599D01*
G01*
X73148960Y-56715941D01*
G75*
G02*
X73047361Y-56817540I-101599J0D01*
G01*
X72047359Y-56817540D01*
G75*
G02*
X71945760Y-56715941I0J101599D01*
G01*
G37*
G36*
G01*
X70445760Y-56715941D02*
X70445760Y-50715939D01*
G75*
G02*
X70547359Y-50614340I101599J0D01*
G01*
X71547361Y-50614340D01*
G75*
G02*
X71648960Y-50715939I0J-101599D01*
G01*
X71648960Y-56715941D01*
G75*
G02*
X71547361Y-56817540I-101599J0D01*
G01*
X70547359Y-56817540D01*
G75*
G02*
X70445760Y-56715941I0J101599D01*
G01*
G37*
G36*
G01*
X68945760Y-56715941D02*
X68945760Y-50715939D01*
G75*
G02*
X69047359Y-50614340I101599J0D01*
G01*
X70047361Y-50614340D01*
G75*
G02*
X70148960Y-50715939I0J-101599D01*
G01*
X70148960Y-56715941D01*
G75*
G02*
X70047361Y-56817540I-101599J0D01*
G01*
X69047359Y-56817540D01*
G75*
G02*
X68945760Y-56715941I0J101599D01*
G01*
G37*
G36*
G01*
X67445760Y-56715941D02*
X67445760Y-50715939D01*
G75*
G02*
X67547359Y-50614340I101599J0D01*
G01*
X68547361Y-50614340D01*
G75*
G02*
X68648960Y-50715939I0J-101599D01*
G01*
X68648960Y-56715941D01*
G75*
G02*
X68547361Y-56817540I-101599J0D01*
G01*
X67547359Y-56817540D01*
G75*
G02*
X67445760Y-56715941I0J101599D01*
G01*
G37*
G36*
G01*
X65945760Y-56715941D02*
X65945760Y-50715939D01*
G75*
G02*
X66047359Y-50614340I101599J0D01*
G01*
X67047361Y-50614340D01*
G75*
G02*
X67148960Y-50715939I0J-101599D01*
G01*
X67148960Y-56715941D01*
G75*
G02*
X67047361Y-56817540I-101599J0D01*
G01*
X66047359Y-56817540D01*
G75*
G02*
X65945760Y-56715941I0J101599D01*
G01*
G37*
G36*
G01*
X64445760Y-56715941D02*
X64445760Y-50715939D01*
G75*
G02*
X64547359Y-50614340I101599J0D01*
G01*
X65547361Y-50614340D01*
G75*
G02*
X65648960Y-50715939I0J-101599D01*
G01*
X65648960Y-56715941D01*
G75*
G02*
X65547361Y-56817540I-101599J0D01*
G01*
X64547359Y-56817540D01*
G75*
G02*
X64445760Y-56715941I0J101599D01*
G01*
G37*
G36*
G01*
X62945760Y-56715941D02*
X62945760Y-50715939D01*
G75*
G02*
X63047359Y-50614340I101599J0D01*
G01*
X64047361Y-50614340D01*
G75*
G02*
X64148960Y-50715939I0J-101599D01*
G01*
X64148960Y-56715941D01*
G75*
G02*
X64047361Y-56817540I-101599J0D01*
G01*
X63047359Y-56817540D01*
G75*
G02*
X62945760Y-56715941I0J101599D01*
G01*
G37*
G36*
G01*
X61445760Y-56715941D02*
X61445760Y-50715939D01*
G75*
G02*
X61547359Y-50614340I101599J0D01*
G01*
X62547361Y-50614340D01*
G75*
G02*
X62648960Y-50715939I0J-101599D01*
G01*
X62648960Y-56715941D01*
G75*
G02*
X62547361Y-56817540I-101599J0D01*
G01*
X61547359Y-56817540D01*
G75*
G02*
X61445760Y-56715941I0J101599D01*
G01*
G37*
G36*
G01*
X59945760Y-56715941D02*
X59945760Y-50715939D01*
G75*
G02*
X60047359Y-50614340I101599J0D01*
G01*
X61047361Y-50614340D01*
G75*
G02*
X61148960Y-50715939I0J-101599D01*
G01*
X61148960Y-56715941D01*
G75*
G02*
X61047361Y-56817540I-101599J0D01*
G01*
X60047359Y-56817540D01*
G75*
G02*
X59945760Y-56715941I0J101599D01*
G01*
G37*
G36*
G01*
X58445760Y-56715941D02*
X58445760Y-50715939D01*
G75*
G02*
X58547359Y-50614340I101599J0D01*
G01*
X59547361Y-50614340D01*
G75*
G02*
X59648960Y-50715939I0J-101599D01*
G01*
X59648960Y-56715941D01*
G75*
G02*
X59547361Y-56817540I-101599J0D01*
G01*
X58547359Y-56817540D01*
G75*
G02*
X58445760Y-56715941I0J101599D01*
G01*
G37*
G36*
G01*
X56945760Y-56715941D02*
X56945760Y-50715939D01*
G75*
G02*
X57047359Y-50614340I101599J0D01*
G01*
X58047361Y-50614340D01*
G75*
G02*
X58148960Y-50715939I0J-101599D01*
G01*
X58148960Y-56715941D01*
G75*
G02*
X58047361Y-56817540I-101599J0D01*
G01*
X57047359Y-56817540D01*
G75*
G02*
X56945760Y-56715941I0J101599D01*
G01*
G37*
G36*
G01*
X55445760Y-56715941D02*
X55445760Y-50715939D01*
G75*
G02*
X55547359Y-50614340I101599J0D01*
G01*
X56547361Y-50614340D01*
G75*
G02*
X56648960Y-50715939I0J-101599D01*
G01*
X56648960Y-56715941D01*
G75*
G02*
X56547361Y-56817540I-101599J0D01*
G01*
X55547359Y-56817540D01*
G75*
G02*
X55445760Y-56715941I0J101599D01*
G01*
G37*
G36*
G01*
X53945760Y-56715941D02*
X53945760Y-50715939D01*
G75*
G02*
X54047359Y-50614340I101599J0D01*
G01*
X55047361Y-50614340D01*
G75*
G02*
X55148960Y-50715939I0J-101599D01*
G01*
X55148960Y-56715941D01*
G75*
G02*
X55047361Y-56817540I-101599J0D01*
G01*
X54047359Y-56817540D01*
G75*
G02*
X53945760Y-56715941I0J101599D01*
G01*
G37*
G36*
G01*
X52445760Y-56715941D02*
X52445760Y-50715939D01*
G75*
G02*
X52547359Y-50614340I101599J0D01*
G01*
X53547361Y-50614340D01*
G75*
G02*
X53648960Y-50715939I0J-101599D01*
G01*
X53648960Y-56715941D01*
G75*
G02*
X53547361Y-56817540I-101599J0D01*
G01*
X52547359Y-56817540D01*
G75*
G02*
X52445760Y-56715941I0J101599D01*
G01*
G37*
G36*
G01*
X50945760Y-56715941D02*
X50945760Y-50715939D01*
G75*
G02*
X51047359Y-50614340I101599J0D01*
G01*
X52047361Y-50614340D01*
G75*
G02*
X52148960Y-50715939I0J-101599D01*
G01*
X52148960Y-56715941D01*
G75*
G02*
X52047361Y-56817540I-101599J0D01*
G01*
X51047359Y-56817540D01*
G75*
G02*
X50945760Y-56715941I0J101599D01*
G01*
G37*
G36*
G01*
X49445760Y-56715941D02*
X49445760Y-50715939D01*
G75*
G02*
X49547359Y-50614340I101599J0D01*
G01*
X50547361Y-50614340D01*
G75*
G02*
X50648960Y-50715939I0J-101599D01*
G01*
X50648960Y-56715941D01*
G75*
G02*
X50547361Y-56817540I-101599J0D01*
G01*
X49547359Y-56817540D01*
G75*
G02*
X49445760Y-56715941I0J101599D01*
G01*
G37*
G36*
G01*
X47945760Y-56715941D02*
X47945760Y-50715939D01*
G75*
G02*
X48047359Y-50614340I101599J0D01*
G01*
X49047361Y-50614340D01*
G75*
G02*
X49148960Y-50715939I0J-101599D01*
G01*
X49148960Y-56715941D01*
G75*
G02*
X49047361Y-56817540I-101599J0D01*
G01*
X48047359Y-56817540D01*
G75*
G02*
X47945760Y-56715941I0J101599D01*
G01*
G37*
G36*
G01*
X46445760Y-56715941D02*
X46445760Y-50715939D01*
G75*
G02*
X46547359Y-50614340I101599J0D01*
G01*
X47547361Y-50614340D01*
G75*
G02*
X47648960Y-50715939I0J-101599D01*
G01*
X47648960Y-56715941D01*
G75*
G02*
X47547361Y-56817540I-101599J0D01*
G01*
X46547359Y-56817540D01*
G75*
G02*
X46445760Y-56715941I0J101599D01*
G01*
G37*
G36*
G01*
X44945760Y-56715941D02*
X44945760Y-50715939D01*
G75*
G02*
X45047359Y-50614340I101599J0D01*
G01*
X46047361Y-50614340D01*
G75*
G02*
X46148960Y-50715939I0J-101599D01*
G01*
X46148960Y-56715941D01*
G75*
G02*
X46047361Y-56817540I-101599J0D01*
G01*
X45047359Y-56817540D01*
G75*
G02*
X44945760Y-56715941I0J101599D01*
G01*
G37*
G36*
G01*
X43445760Y-56715941D02*
X43445760Y-50715939D01*
G75*
G02*
X43547359Y-50614340I101599J0D01*
G01*
X44547361Y-50614340D01*
G75*
G02*
X44648960Y-50715939I0J-101599D01*
G01*
X44648960Y-56715941D01*
G75*
G02*
X44547361Y-56817540I-101599J0D01*
G01*
X43547359Y-56817540D01*
G75*
G02*
X43445760Y-56715941I0J101599D01*
G01*
G37*
G36*
G01*
X41945760Y-56715941D02*
X41945760Y-50715939D01*
G75*
G02*
X42047359Y-50614340I101599J0D01*
G01*
X43047361Y-50614340D01*
G75*
G02*
X43148960Y-50715939I0J-101599D01*
G01*
X43148960Y-56715941D01*
G75*
G02*
X43047361Y-56817540I-101599J0D01*
G01*
X42047359Y-56817540D01*
G75*
G02*
X41945760Y-56715941I0J101599D01*
G01*
G37*
G36*
G01*
X40445760Y-56715941D02*
X40445760Y-50715939D01*
G75*
G02*
X40547359Y-50614340I101599J0D01*
G01*
X41547361Y-50614340D01*
G75*
G02*
X41648960Y-50715939I0J-101599D01*
G01*
X41648960Y-56715941D01*
G75*
G02*
X41547361Y-56817540I-101599J0D01*
G01*
X40547359Y-56817540D01*
G75*
G02*
X40445760Y-56715941I0J101599D01*
G01*
G37*
G36*
G01*
X38945760Y-56715941D02*
X38945760Y-50715939D01*
G75*
G02*
X39047359Y-50614340I101599J0D01*
G01*
X40047361Y-50614340D01*
G75*
G02*
X40148960Y-50715939I0J-101599D01*
G01*
X40148960Y-56715941D01*
G75*
G02*
X40047361Y-56817540I-101599J0D01*
G01*
X39047359Y-56817540D01*
G75*
G02*
X38945760Y-56715941I0J101599D01*
G01*
G37*
G36*
G01*
X37445760Y-56715941D02*
X37445760Y-50715939D01*
G75*
G02*
X37547359Y-50614340I101599J0D01*
G01*
X38547361Y-50614340D01*
G75*
G02*
X38648960Y-50715939I0J-101599D01*
G01*
X38648960Y-56715941D01*
G75*
G02*
X38547361Y-56817540I-101599J0D01*
G01*
X37547359Y-56817540D01*
G75*
G02*
X37445760Y-56715941I0J101599D01*
G01*
G37*
G36*
G01*
X35945760Y-56715941D02*
X35945760Y-50715939D01*
G75*
G02*
X36047359Y-50614340I101599J0D01*
G01*
X37047361Y-50614340D01*
G75*
G02*
X37148960Y-50715939I0J-101599D01*
G01*
X37148960Y-56715941D01*
G75*
G02*
X37047361Y-56817540I-101599J0D01*
G01*
X36047359Y-56817540D01*
G75*
G02*
X35945760Y-56715941I0J101599D01*
G01*
G37*
G36*
G01*
X34445760Y-56715941D02*
X34445760Y-50715939D01*
G75*
G02*
X34547359Y-50614340I101599J0D01*
G01*
X35547361Y-50614340D01*
G75*
G02*
X35648960Y-50715939I0J-101599D01*
G01*
X35648960Y-56715941D01*
G75*
G02*
X35547361Y-56817540I-101599J0D01*
G01*
X34547359Y-56817540D01*
G75*
G02*
X34445760Y-56715941I0J101599D01*
G01*
G37*
G36*
G01*
X32945760Y-56715941D02*
X32945760Y-50715939D01*
G75*
G02*
X33047359Y-50614340I101599J0D01*
G01*
X34047361Y-50614340D01*
G75*
G02*
X34148960Y-50715939I0J-101599D01*
G01*
X34148960Y-56715941D01*
G75*
G02*
X34047361Y-56817540I-101599J0D01*
G01*
X33047359Y-56817540D01*
G75*
G02*
X32945760Y-56715941I0J101599D01*
G01*
G37*
G36*
G01*
X31445760Y-56715941D02*
X31445760Y-50715939D01*
G75*
G02*
X31547359Y-50614340I101599J0D01*
G01*
X32547361Y-50614340D01*
G75*
G02*
X32648960Y-50715939I0J-101599D01*
G01*
X32648960Y-56715941D01*
G75*
G02*
X32547361Y-56817540I-101599J0D01*
G01*
X31547359Y-56817540D01*
G75*
G02*
X31445760Y-56715941I0J101599D01*
G01*
G37*
G36*
G01*
X29945760Y-56715941D02*
X29945760Y-50715939D01*
G75*
G02*
X30047359Y-50614340I101599J0D01*
G01*
X31047361Y-50614340D01*
G75*
G02*
X31148960Y-50715939I0J-101599D01*
G01*
X31148960Y-56715941D01*
G75*
G02*
X31047361Y-56817540I-101599J0D01*
G01*
X30047359Y-56817540D01*
G75*
G02*
X29945760Y-56715941I0J101599D01*
G01*
G37*
G36*
G01*
X28445760Y-56715941D02*
X28445760Y-50715939D01*
G75*
G02*
X28547359Y-50614340I101599J0D01*
G01*
X29547361Y-50614340D01*
G75*
G02*
X29648960Y-50715939I0J-101599D01*
G01*
X29648960Y-56715941D01*
G75*
G02*
X29547361Y-56817540I-101599J0D01*
G01*
X28547359Y-56817540D01*
G75*
G02*
X28445760Y-56715941I0J101599D01*
G01*
G37*
G36*
G01*
X26445760Y-56715940D02*
X26445760Y-50715940D01*
G75*
G02*
X26547360Y-50614340I101600J0D01*
G01*
X28047360Y-50614340D01*
G75*
G02*
X28148960Y-50715940I0J-101600D01*
G01*
X28148960Y-56715940D01*
G75*
G02*
X28047360Y-56817540I-101600J0D01*
G01*
X26547360Y-56817540D01*
G75*
G02*
X26445760Y-56715940I0J101600D01*
G01*
G37*
%TD*%
%TO.C,C1*%
G36*
G01*
X40890250Y-39937700D02*
X41852750Y-39937700D01*
G75*
G02*
X42121500Y-40206450I0J-268750D01*
G01*
X42121500Y-40743950D01*
G75*
G02*
X41852750Y-41012700I-268750J0D01*
G01*
X40890250Y-41012700D01*
G75*
G02*
X40621500Y-40743950I0J268750D01*
G01*
X40621500Y-40206450D01*
G75*
G02*
X40890250Y-39937700I268750J0D01*
G01*
G37*
G36*
G01*
X40890250Y-38062700D02*
X41852750Y-38062700D01*
G75*
G02*
X42121500Y-38331450I0J-268750D01*
G01*
X42121500Y-38868950D01*
G75*
G02*
X41852750Y-39137700I-268750J0D01*
G01*
X40890250Y-39137700D01*
G75*
G02*
X40621500Y-38868950I0J268750D01*
G01*
X40621500Y-38331450D01*
G75*
G02*
X40890250Y-38062700I268750J0D01*
G01*
G37*
%TD*%
%TO.C,U1*%
G36*
G01*
X44638500Y-38958000D02*
X43413500Y-38958000D01*
G75*
G02*
X43238500Y-38783000I0J175000D01*
G01*
X43238500Y-38433000D01*
G75*
G02*
X43413500Y-38258000I175000J0D01*
G01*
X44638500Y-38258000D01*
G75*
G02*
X44813500Y-38433000I0J-175000D01*
G01*
X44813500Y-38783000D01*
G75*
G02*
X44638500Y-38958000I-175000J0D01*
G01*
G37*
G36*
G01*
X44638500Y-37688000D02*
X43413500Y-37688000D01*
G75*
G02*
X43238500Y-37513000I0J175000D01*
G01*
X43238500Y-37163000D01*
G75*
G02*
X43413500Y-36988000I175000J0D01*
G01*
X44638500Y-36988000D01*
G75*
G02*
X44813500Y-37163000I0J-175000D01*
G01*
X44813500Y-37513000D01*
G75*
G02*
X44638500Y-37688000I-175000J0D01*
G01*
G37*
G36*
G01*
X44638500Y-36418000D02*
X43413500Y-36418000D01*
G75*
G02*
X43238500Y-36243000I0J175000D01*
G01*
X43238500Y-35893000D01*
G75*
G02*
X43413500Y-35718000I175000J0D01*
G01*
X44638500Y-35718000D01*
G75*
G02*
X44813500Y-35893000I0J-175000D01*
G01*
X44813500Y-36243000D01*
G75*
G02*
X44638500Y-36418000I-175000J0D01*
G01*
G37*
G36*
G01*
X45958500Y-35103000D02*
X45608500Y-35103000D01*
G75*
G02*
X45433500Y-34928000I0J175000D01*
G01*
X45433500Y-33703000D01*
G75*
G02*
X45608500Y-33528000I175000J0D01*
G01*
X45958500Y-33528000D01*
G75*
G02*
X46133500Y-33703000I0J-175000D01*
G01*
X46133500Y-34928000D01*
G75*
G02*
X45958500Y-35103000I-175000J0D01*
G01*
G37*
G36*
G01*
X47228500Y-35103000D02*
X46878500Y-35103000D01*
G75*
G02*
X46703500Y-34928000I0J175000D01*
G01*
X46703500Y-33703000D01*
G75*
G02*
X46878500Y-33528000I175000J0D01*
G01*
X47228500Y-33528000D01*
G75*
G02*
X47403500Y-33703000I0J-175000D01*
G01*
X47403500Y-34928000D01*
G75*
G02*
X47228500Y-35103000I-175000J0D01*
G01*
G37*
G36*
G01*
X48498500Y-35103000D02*
X48148500Y-35103000D01*
G75*
G02*
X47973500Y-34928000I0J175000D01*
G01*
X47973500Y-33703000D01*
G75*
G02*
X48148500Y-33528000I175000J0D01*
G01*
X48498500Y-33528000D01*
G75*
G02*
X48673500Y-33703000I0J-175000D01*
G01*
X48673500Y-34928000D01*
G75*
G02*
X48498500Y-35103000I-175000J0D01*
G01*
G37*
G36*
G01*
X49768500Y-35103000D02*
X49418500Y-35103000D01*
G75*
G02*
X49243500Y-34928000I0J175000D01*
G01*
X49243500Y-33703000D01*
G75*
G02*
X49418500Y-33528000I175000J0D01*
G01*
X49768500Y-33528000D01*
G75*
G02*
X49943500Y-33703000I0J-175000D01*
G01*
X49943500Y-34928000D01*
G75*
G02*
X49768500Y-35103000I-175000J0D01*
G01*
G37*
G36*
G01*
X51038500Y-35103000D02*
X50688500Y-35103000D01*
G75*
G02*
X50513500Y-34928000I0J175000D01*
G01*
X50513500Y-33703000D01*
G75*
G02*
X50688500Y-33528000I175000J0D01*
G01*
X51038500Y-33528000D01*
G75*
G02*
X51213500Y-33703000I0J-175000D01*
G01*
X51213500Y-34928000D01*
G75*
G02*
X51038500Y-35103000I-175000J0D01*
G01*
G37*
G36*
G01*
X52308500Y-35103000D02*
X51958500Y-35103000D01*
G75*
G02*
X51783500Y-34928000I0J175000D01*
G01*
X51783500Y-33703000D01*
G75*
G02*
X51958500Y-33528000I175000J0D01*
G01*
X52308500Y-33528000D01*
G75*
G02*
X52483500Y-33703000I0J-175000D01*
G01*
X52483500Y-34928000D01*
G75*
G02*
X52308500Y-35103000I-175000J0D01*
G01*
G37*
G36*
G01*
X53578500Y-35103000D02*
X53228500Y-35103000D01*
G75*
G02*
X53053500Y-34928000I0J175000D01*
G01*
X53053500Y-33703000D01*
G75*
G02*
X53228500Y-33528000I175000J0D01*
G01*
X53578500Y-33528000D01*
G75*
G02*
X53753500Y-33703000I0J-175000D01*
G01*
X53753500Y-34928000D01*
G75*
G02*
X53578500Y-35103000I-175000J0D01*
G01*
G37*
G36*
G01*
X54848500Y-35103000D02*
X54498500Y-35103000D01*
G75*
G02*
X54323500Y-34928000I0J175000D01*
G01*
X54323500Y-33703000D01*
G75*
G02*
X54498500Y-33528000I175000J0D01*
G01*
X54848500Y-33528000D01*
G75*
G02*
X55023500Y-33703000I0J-175000D01*
G01*
X55023500Y-34928000D01*
G75*
G02*
X54848500Y-35103000I-175000J0D01*
G01*
G37*
G36*
G01*
X56118500Y-35103000D02*
X55768500Y-35103000D01*
G75*
G02*
X55593500Y-34928000I0J175000D01*
G01*
X55593500Y-33703000D01*
G75*
G02*
X55768500Y-33528000I175000J0D01*
G01*
X56118500Y-33528000D01*
G75*
G02*
X56293500Y-33703000I0J-175000D01*
G01*
X56293500Y-34928000D01*
G75*
G02*
X56118500Y-35103000I-175000J0D01*
G01*
G37*
G36*
G01*
X58313500Y-36418000D02*
X57088500Y-36418000D01*
G75*
G02*
X56913500Y-36243000I0J175000D01*
G01*
X56913500Y-35893000D01*
G75*
G02*
X57088500Y-35718000I175000J0D01*
G01*
X58313500Y-35718000D01*
G75*
G02*
X58488500Y-35893000I0J-175000D01*
G01*
X58488500Y-36243000D01*
G75*
G02*
X58313500Y-36418000I-175000J0D01*
G01*
G37*
G36*
G01*
X58313500Y-37688000D02*
X57088500Y-37688000D01*
G75*
G02*
X56913500Y-37513000I0J175000D01*
G01*
X56913500Y-37163000D01*
G75*
G02*
X57088500Y-36988000I175000J0D01*
G01*
X58313500Y-36988000D01*
G75*
G02*
X58488500Y-37163000I0J-175000D01*
G01*
X58488500Y-37513000D01*
G75*
G02*
X58313500Y-37688000I-175000J0D01*
G01*
G37*
G36*
G01*
X58313500Y-38958000D02*
X57088500Y-38958000D01*
G75*
G02*
X56913500Y-38783000I0J175000D01*
G01*
X56913500Y-38433000D01*
G75*
G02*
X57088500Y-38258000I175000J0D01*
G01*
X58313500Y-38258000D01*
G75*
G02*
X58488500Y-38433000I0J-175000D01*
G01*
X58488500Y-38783000D01*
G75*
G02*
X58313500Y-38958000I-175000J0D01*
G01*
G37*
G36*
G01*
X58313500Y-40228000D02*
X57088500Y-40228000D01*
G75*
G02*
X56913500Y-40053000I0J175000D01*
G01*
X56913500Y-39703000D01*
G75*
G02*
X57088500Y-39528000I175000J0D01*
G01*
X58313500Y-39528000D01*
G75*
G02*
X58488500Y-39703000I0J-175000D01*
G01*
X58488500Y-40053000D01*
G75*
G02*
X58313500Y-40228000I-175000J0D01*
G01*
G37*
G36*
G01*
X58313500Y-41498000D02*
X57088500Y-41498000D01*
G75*
G02*
X56913500Y-41323000I0J175000D01*
G01*
X56913500Y-40973000D01*
G75*
G02*
X57088500Y-40798000I175000J0D01*
G01*
X58313500Y-40798000D01*
G75*
G02*
X58488500Y-40973000I0J-175000D01*
G01*
X58488500Y-41323000D01*
G75*
G02*
X58313500Y-41498000I-175000J0D01*
G01*
G37*
G36*
G01*
X58313500Y-42768000D02*
X57088500Y-42768000D01*
G75*
G02*
X56913500Y-42593000I0J175000D01*
G01*
X56913500Y-42243000D01*
G75*
G02*
X57088500Y-42068000I175000J0D01*
G01*
X58313500Y-42068000D01*
G75*
G02*
X58488500Y-42243000I0J-175000D01*
G01*
X58488500Y-42593000D01*
G75*
G02*
X58313500Y-42768000I-175000J0D01*
G01*
G37*
G36*
G01*
X58313500Y-44038000D02*
X57088500Y-44038000D01*
G75*
G02*
X56913500Y-43863000I0J175000D01*
G01*
X56913500Y-43513000D01*
G75*
G02*
X57088500Y-43338000I175000J0D01*
G01*
X58313500Y-43338000D01*
G75*
G02*
X58488500Y-43513000I0J-175000D01*
G01*
X58488500Y-43863000D01*
G75*
G02*
X58313500Y-44038000I-175000J0D01*
G01*
G37*
G36*
G01*
X56118500Y-46228000D02*
X55768500Y-46228000D01*
G75*
G02*
X55593500Y-46053000I0J175000D01*
G01*
X55593500Y-44828000D01*
G75*
G02*
X55768500Y-44653000I175000J0D01*
G01*
X56118500Y-44653000D01*
G75*
G02*
X56293500Y-44828000I0J-175000D01*
G01*
X56293500Y-46053000D01*
G75*
G02*
X56118500Y-46228000I-175000J0D01*
G01*
G37*
G36*
G01*
X54848500Y-46228000D02*
X54498500Y-46228000D01*
G75*
G02*
X54323500Y-46053000I0J175000D01*
G01*
X54323500Y-44828000D01*
G75*
G02*
X54498500Y-44653000I175000J0D01*
G01*
X54848500Y-44653000D01*
G75*
G02*
X55023500Y-44828000I0J-175000D01*
G01*
X55023500Y-46053000D01*
G75*
G02*
X54848500Y-46228000I-175000J0D01*
G01*
G37*
G36*
G01*
X53578500Y-46228000D02*
X53228500Y-46228000D01*
G75*
G02*
X53053500Y-46053000I0J175000D01*
G01*
X53053500Y-44828000D01*
G75*
G02*
X53228500Y-44653000I175000J0D01*
G01*
X53578500Y-44653000D01*
G75*
G02*
X53753500Y-44828000I0J-175000D01*
G01*
X53753500Y-46053000D01*
G75*
G02*
X53578500Y-46228000I-175000J0D01*
G01*
G37*
G36*
G01*
X52308500Y-46228000D02*
X51958500Y-46228000D01*
G75*
G02*
X51783500Y-46053000I0J175000D01*
G01*
X51783500Y-44828000D01*
G75*
G02*
X51958500Y-44653000I175000J0D01*
G01*
X52308500Y-44653000D01*
G75*
G02*
X52483500Y-44828000I0J-175000D01*
G01*
X52483500Y-46053000D01*
G75*
G02*
X52308500Y-46228000I-175000J0D01*
G01*
G37*
G36*
G01*
X51038500Y-46228000D02*
X50688500Y-46228000D01*
G75*
G02*
X50513500Y-46053000I0J175000D01*
G01*
X50513500Y-44828000D01*
G75*
G02*
X50688500Y-44653000I175000J0D01*
G01*
X51038500Y-44653000D01*
G75*
G02*
X51213500Y-44828000I0J-175000D01*
G01*
X51213500Y-46053000D01*
G75*
G02*
X51038500Y-46228000I-175000J0D01*
G01*
G37*
G36*
G01*
X49768500Y-46228000D02*
X49418500Y-46228000D01*
G75*
G02*
X49243500Y-46053000I0J175000D01*
G01*
X49243500Y-44828000D01*
G75*
G02*
X49418500Y-44653000I175000J0D01*
G01*
X49768500Y-44653000D01*
G75*
G02*
X49943500Y-44828000I0J-175000D01*
G01*
X49943500Y-46053000D01*
G75*
G02*
X49768500Y-46228000I-175000J0D01*
G01*
G37*
G36*
G01*
X48498500Y-46228000D02*
X48148500Y-46228000D01*
G75*
G02*
X47973500Y-46053000I0J175000D01*
G01*
X47973500Y-44828000D01*
G75*
G02*
X48148500Y-44653000I175000J0D01*
G01*
X48498500Y-44653000D01*
G75*
G02*
X48673500Y-44828000I0J-175000D01*
G01*
X48673500Y-46053000D01*
G75*
G02*
X48498500Y-46228000I-175000J0D01*
G01*
G37*
G36*
G01*
X47228500Y-46228000D02*
X46878500Y-46228000D01*
G75*
G02*
X46703500Y-46053000I0J175000D01*
G01*
X46703500Y-44828000D01*
G75*
G02*
X46878500Y-44653000I175000J0D01*
G01*
X47228500Y-44653000D01*
G75*
G02*
X47403500Y-44828000I0J-175000D01*
G01*
X47403500Y-46053000D01*
G75*
G02*
X47228500Y-46228000I-175000J0D01*
G01*
G37*
G36*
G01*
X45958500Y-46228000D02*
X45608500Y-46228000D01*
G75*
G02*
X45433500Y-46053000I0J175000D01*
G01*
X45433500Y-44828000D01*
G75*
G02*
X45608500Y-44653000I175000J0D01*
G01*
X45958500Y-44653000D01*
G75*
G02*
X46133500Y-44828000I0J-175000D01*
G01*
X46133500Y-46053000D01*
G75*
G02*
X45958500Y-46228000I-175000J0D01*
G01*
G37*
G36*
G01*
X44638500Y-44038000D02*
X43413500Y-44038000D01*
G75*
G02*
X43238500Y-43863000I0J175000D01*
G01*
X43238500Y-43513000D01*
G75*
G02*
X43413500Y-43338000I175000J0D01*
G01*
X44638500Y-43338000D01*
G75*
G02*
X44813500Y-43513000I0J-175000D01*
G01*
X44813500Y-43863000D01*
G75*
G02*
X44638500Y-44038000I-175000J0D01*
G01*
G37*
G36*
G01*
X44638500Y-42768000D02*
X43413500Y-42768000D01*
G75*
G02*
X43238500Y-42593000I0J175000D01*
G01*
X43238500Y-42243000D01*
G75*
G02*
X43413500Y-42068000I175000J0D01*
G01*
X44638500Y-42068000D01*
G75*
G02*
X44813500Y-42243000I0J-175000D01*
G01*
X44813500Y-42593000D01*
G75*
G02*
X44638500Y-42768000I-175000J0D01*
G01*
G37*
G36*
G01*
X44638500Y-41498000D02*
X43413500Y-41498000D01*
G75*
G02*
X43238500Y-41323000I0J175000D01*
G01*
X43238500Y-40973000D01*
G75*
G02*
X43413500Y-40798000I175000J0D01*
G01*
X44638500Y-40798000D01*
G75*
G02*
X44813500Y-40973000I0J-175000D01*
G01*
X44813500Y-41323000D01*
G75*
G02*
X44638500Y-41498000I-175000J0D01*
G01*
G37*
G36*
G01*
X44638500Y-40228000D02*
X43413500Y-40228000D01*
G75*
G02*
X43238500Y-40053000I0J175000D01*
G01*
X43238500Y-39703000D01*
G75*
G02*
X43413500Y-39528000I175000J0D01*
G01*
X44638500Y-39528000D01*
G75*
G02*
X44813500Y-39703000I0J-175000D01*
G01*
X44813500Y-40053000D01*
G75*
G02*
X44638500Y-40228000I-175000J0D01*
G01*
G37*
%TD*%
M02*
