%TF.GenerationSoftware,KiCad,Pcbnew,(5.1.8)-1*%
%TF.CreationDate,2020-12-20T15:01:14+01:00*%
%TF.ProjectId,GBA Cart,47424120-4361-4727-942e-6b696361645f,rev?*%
%TF.SameCoordinates,Original*%
%TF.FileFunction,Paste,Top*%
%TF.FilePolarity,Positive*%
%FSLAX46Y46*%
G04 Gerber Fmt 4.6, Leading zero omitted, Abs format (unit mm)*
G04 Created by KiCad (PCBNEW (5.1.8)-1) date 2020-12-20 15:01:14*
%MOMM*%
%LPD*%
G01*
G04 APERTURE LIST*
%ADD10R,1.500000X6.000000*%
%ADD11R,1.000000X6.000000*%
G04 APERTURE END LIST*
%TO.C,R2*%
G36*
G01*
X31729200Y-48496000D02*
X31729200Y-48151000D01*
G75*
G02*
X31876700Y-48003500I147500J0D01*
G01*
X32171700Y-48003500D01*
G75*
G02*
X32319200Y-48151000I0J-147500D01*
G01*
X32319200Y-48496000D01*
G75*
G02*
X32171700Y-48643500I-147500J0D01*
G01*
X31876700Y-48643500D01*
G75*
G02*
X31729200Y-48496000I0J147500D01*
G01*
G37*
G36*
G01*
X30759200Y-48496000D02*
X30759200Y-48151000D01*
G75*
G02*
X30906700Y-48003500I147500J0D01*
G01*
X31201700Y-48003500D01*
G75*
G02*
X31349200Y-48151000I0J-147500D01*
G01*
X31349200Y-48496000D01*
G75*
G02*
X31201700Y-48643500I-147500J0D01*
G01*
X30906700Y-48643500D01*
G75*
G02*
X30759200Y-48496000I0J147500D01*
G01*
G37*
%TD*%
D10*
%TO.C,J1*%
X74297360Y-53715940D03*
D11*
X72547360Y-53715940D03*
X71047360Y-53715940D03*
X69547360Y-53715940D03*
X68047360Y-53715940D03*
X66547360Y-53715940D03*
X65047360Y-53715940D03*
X63547360Y-53715940D03*
X62047360Y-53715940D03*
X60547360Y-53715940D03*
X59047360Y-53715940D03*
X57547360Y-53715940D03*
X56047360Y-53715940D03*
X54547360Y-53715940D03*
X53047360Y-53715940D03*
X51547360Y-53715940D03*
X50047360Y-53715940D03*
X48547360Y-53715940D03*
X47047360Y-53715940D03*
X45547360Y-53715940D03*
X44047360Y-53715940D03*
X42547360Y-53715940D03*
X41047360Y-53715940D03*
X39547360Y-53715940D03*
X38047360Y-53715940D03*
X36547360Y-53715940D03*
X35047360Y-53715940D03*
X33547360Y-53715940D03*
X32047360Y-53715940D03*
X30547360Y-53715940D03*
X29047360Y-53715940D03*
D10*
X27297360Y-53715940D03*
%TD*%
%TO.C,C1*%
G36*
G01*
X40915250Y-39987700D02*
X41827750Y-39987700D01*
G75*
G02*
X42071500Y-40231450I0J-243750D01*
G01*
X42071500Y-40718950D01*
G75*
G02*
X41827750Y-40962700I-243750J0D01*
G01*
X40915250Y-40962700D01*
G75*
G02*
X40671500Y-40718950I0J243750D01*
G01*
X40671500Y-40231450D01*
G75*
G02*
X40915250Y-39987700I243750J0D01*
G01*
G37*
G36*
G01*
X40915250Y-38112700D02*
X41827750Y-38112700D01*
G75*
G02*
X42071500Y-38356450I0J-243750D01*
G01*
X42071500Y-38843950D01*
G75*
G02*
X41827750Y-39087700I-243750J0D01*
G01*
X40915250Y-39087700D01*
G75*
G02*
X40671500Y-38843950I0J243750D01*
G01*
X40671500Y-38356450D01*
G75*
G02*
X40915250Y-38112700I243750J0D01*
G01*
G37*
%TD*%
%TO.C,U1*%
G36*
G01*
X44613500Y-38908000D02*
X43438500Y-38908000D01*
G75*
G02*
X43288500Y-38758000I0J150000D01*
G01*
X43288500Y-38458000D01*
G75*
G02*
X43438500Y-38308000I150000J0D01*
G01*
X44613500Y-38308000D01*
G75*
G02*
X44763500Y-38458000I0J-150000D01*
G01*
X44763500Y-38758000D01*
G75*
G02*
X44613500Y-38908000I-150000J0D01*
G01*
G37*
G36*
G01*
X44613500Y-37638000D02*
X43438500Y-37638000D01*
G75*
G02*
X43288500Y-37488000I0J150000D01*
G01*
X43288500Y-37188000D01*
G75*
G02*
X43438500Y-37038000I150000J0D01*
G01*
X44613500Y-37038000D01*
G75*
G02*
X44763500Y-37188000I0J-150000D01*
G01*
X44763500Y-37488000D01*
G75*
G02*
X44613500Y-37638000I-150000J0D01*
G01*
G37*
G36*
G01*
X44613500Y-36368000D02*
X43438500Y-36368000D01*
G75*
G02*
X43288500Y-36218000I0J150000D01*
G01*
X43288500Y-35918000D01*
G75*
G02*
X43438500Y-35768000I150000J0D01*
G01*
X44613500Y-35768000D01*
G75*
G02*
X44763500Y-35918000I0J-150000D01*
G01*
X44763500Y-36218000D01*
G75*
G02*
X44613500Y-36368000I-150000J0D01*
G01*
G37*
G36*
G01*
X45933500Y-35053000D02*
X45633500Y-35053000D01*
G75*
G02*
X45483500Y-34903000I0J150000D01*
G01*
X45483500Y-33728000D01*
G75*
G02*
X45633500Y-33578000I150000J0D01*
G01*
X45933500Y-33578000D01*
G75*
G02*
X46083500Y-33728000I0J-150000D01*
G01*
X46083500Y-34903000D01*
G75*
G02*
X45933500Y-35053000I-150000J0D01*
G01*
G37*
G36*
G01*
X47203500Y-35053000D02*
X46903500Y-35053000D01*
G75*
G02*
X46753500Y-34903000I0J150000D01*
G01*
X46753500Y-33728000D01*
G75*
G02*
X46903500Y-33578000I150000J0D01*
G01*
X47203500Y-33578000D01*
G75*
G02*
X47353500Y-33728000I0J-150000D01*
G01*
X47353500Y-34903000D01*
G75*
G02*
X47203500Y-35053000I-150000J0D01*
G01*
G37*
G36*
G01*
X48473500Y-35053000D02*
X48173500Y-35053000D01*
G75*
G02*
X48023500Y-34903000I0J150000D01*
G01*
X48023500Y-33728000D01*
G75*
G02*
X48173500Y-33578000I150000J0D01*
G01*
X48473500Y-33578000D01*
G75*
G02*
X48623500Y-33728000I0J-150000D01*
G01*
X48623500Y-34903000D01*
G75*
G02*
X48473500Y-35053000I-150000J0D01*
G01*
G37*
G36*
G01*
X49743500Y-35053000D02*
X49443500Y-35053000D01*
G75*
G02*
X49293500Y-34903000I0J150000D01*
G01*
X49293500Y-33728000D01*
G75*
G02*
X49443500Y-33578000I150000J0D01*
G01*
X49743500Y-33578000D01*
G75*
G02*
X49893500Y-33728000I0J-150000D01*
G01*
X49893500Y-34903000D01*
G75*
G02*
X49743500Y-35053000I-150000J0D01*
G01*
G37*
G36*
G01*
X51013500Y-35053000D02*
X50713500Y-35053000D01*
G75*
G02*
X50563500Y-34903000I0J150000D01*
G01*
X50563500Y-33728000D01*
G75*
G02*
X50713500Y-33578000I150000J0D01*
G01*
X51013500Y-33578000D01*
G75*
G02*
X51163500Y-33728000I0J-150000D01*
G01*
X51163500Y-34903000D01*
G75*
G02*
X51013500Y-35053000I-150000J0D01*
G01*
G37*
G36*
G01*
X52283500Y-35053000D02*
X51983500Y-35053000D01*
G75*
G02*
X51833500Y-34903000I0J150000D01*
G01*
X51833500Y-33728000D01*
G75*
G02*
X51983500Y-33578000I150000J0D01*
G01*
X52283500Y-33578000D01*
G75*
G02*
X52433500Y-33728000I0J-150000D01*
G01*
X52433500Y-34903000D01*
G75*
G02*
X52283500Y-35053000I-150000J0D01*
G01*
G37*
G36*
G01*
X53553500Y-35053000D02*
X53253500Y-35053000D01*
G75*
G02*
X53103500Y-34903000I0J150000D01*
G01*
X53103500Y-33728000D01*
G75*
G02*
X53253500Y-33578000I150000J0D01*
G01*
X53553500Y-33578000D01*
G75*
G02*
X53703500Y-33728000I0J-150000D01*
G01*
X53703500Y-34903000D01*
G75*
G02*
X53553500Y-35053000I-150000J0D01*
G01*
G37*
G36*
G01*
X54823500Y-35053000D02*
X54523500Y-35053000D01*
G75*
G02*
X54373500Y-34903000I0J150000D01*
G01*
X54373500Y-33728000D01*
G75*
G02*
X54523500Y-33578000I150000J0D01*
G01*
X54823500Y-33578000D01*
G75*
G02*
X54973500Y-33728000I0J-150000D01*
G01*
X54973500Y-34903000D01*
G75*
G02*
X54823500Y-35053000I-150000J0D01*
G01*
G37*
G36*
G01*
X56093500Y-35053000D02*
X55793500Y-35053000D01*
G75*
G02*
X55643500Y-34903000I0J150000D01*
G01*
X55643500Y-33728000D01*
G75*
G02*
X55793500Y-33578000I150000J0D01*
G01*
X56093500Y-33578000D01*
G75*
G02*
X56243500Y-33728000I0J-150000D01*
G01*
X56243500Y-34903000D01*
G75*
G02*
X56093500Y-35053000I-150000J0D01*
G01*
G37*
G36*
G01*
X58288500Y-36368000D02*
X57113500Y-36368000D01*
G75*
G02*
X56963500Y-36218000I0J150000D01*
G01*
X56963500Y-35918000D01*
G75*
G02*
X57113500Y-35768000I150000J0D01*
G01*
X58288500Y-35768000D01*
G75*
G02*
X58438500Y-35918000I0J-150000D01*
G01*
X58438500Y-36218000D01*
G75*
G02*
X58288500Y-36368000I-150000J0D01*
G01*
G37*
G36*
G01*
X58288500Y-37638000D02*
X57113500Y-37638000D01*
G75*
G02*
X56963500Y-37488000I0J150000D01*
G01*
X56963500Y-37188000D01*
G75*
G02*
X57113500Y-37038000I150000J0D01*
G01*
X58288500Y-37038000D01*
G75*
G02*
X58438500Y-37188000I0J-150000D01*
G01*
X58438500Y-37488000D01*
G75*
G02*
X58288500Y-37638000I-150000J0D01*
G01*
G37*
G36*
G01*
X58288500Y-38908000D02*
X57113500Y-38908000D01*
G75*
G02*
X56963500Y-38758000I0J150000D01*
G01*
X56963500Y-38458000D01*
G75*
G02*
X57113500Y-38308000I150000J0D01*
G01*
X58288500Y-38308000D01*
G75*
G02*
X58438500Y-38458000I0J-150000D01*
G01*
X58438500Y-38758000D01*
G75*
G02*
X58288500Y-38908000I-150000J0D01*
G01*
G37*
G36*
G01*
X58288500Y-40178000D02*
X57113500Y-40178000D01*
G75*
G02*
X56963500Y-40028000I0J150000D01*
G01*
X56963500Y-39728000D01*
G75*
G02*
X57113500Y-39578000I150000J0D01*
G01*
X58288500Y-39578000D01*
G75*
G02*
X58438500Y-39728000I0J-150000D01*
G01*
X58438500Y-40028000D01*
G75*
G02*
X58288500Y-40178000I-150000J0D01*
G01*
G37*
G36*
G01*
X58288500Y-41448000D02*
X57113500Y-41448000D01*
G75*
G02*
X56963500Y-41298000I0J150000D01*
G01*
X56963500Y-40998000D01*
G75*
G02*
X57113500Y-40848000I150000J0D01*
G01*
X58288500Y-40848000D01*
G75*
G02*
X58438500Y-40998000I0J-150000D01*
G01*
X58438500Y-41298000D01*
G75*
G02*
X58288500Y-41448000I-150000J0D01*
G01*
G37*
G36*
G01*
X58288500Y-42718000D02*
X57113500Y-42718000D01*
G75*
G02*
X56963500Y-42568000I0J150000D01*
G01*
X56963500Y-42268000D01*
G75*
G02*
X57113500Y-42118000I150000J0D01*
G01*
X58288500Y-42118000D01*
G75*
G02*
X58438500Y-42268000I0J-150000D01*
G01*
X58438500Y-42568000D01*
G75*
G02*
X58288500Y-42718000I-150000J0D01*
G01*
G37*
G36*
G01*
X58288500Y-43988000D02*
X57113500Y-43988000D01*
G75*
G02*
X56963500Y-43838000I0J150000D01*
G01*
X56963500Y-43538000D01*
G75*
G02*
X57113500Y-43388000I150000J0D01*
G01*
X58288500Y-43388000D01*
G75*
G02*
X58438500Y-43538000I0J-150000D01*
G01*
X58438500Y-43838000D01*
G75*
G02*
X58288500Y-43988000I-150000J0D01*
G01*
G37*
G36*
G01*
X56093500Y-46178000D02*
X55793500Y-46178000D01*
G75*
G02*
X55643500Y-46028000I0J150000D01*
G01*
X55643500Y-44853000D01*
G75*
G02*
X55793500Y-44703000I150000J0D01*
G01*
X56093500Y-44703000D01*
G75*
G02*
X56243500Y-44853000I0J-150000D01*
G01*
X56243500Y-46028000D01*
G75*
G02*
X56093500Y-46178000I-150000J0D01*
G01*
G37*
G36*
G01*
X54823500Y-46178000D02*
X54523500Y-46178000D01*
G75*
G02*
X54373500Y-46028000I0J150000D01*
G01*
X54373500Y-44853000D01*
G75*
G02*
X54523500Y-44703000I150000J0D01*
G01*
X54823500Y-44703000D01*
G75*
G02*
X54973500Y-44853000I0J-150000D01*
G01*
X54973500Y-46028000D01*
G75*
G02*
X54823500Y-46178000I-150000J0D01*
G01*
G37*
G36*
G01*
X53553500Y-46178000D02*
X53253500Y-46178000D01*
G75*
G02*
X53103500Y-46028000I0J150000D01*
G01*
X53103500Y-44853000D01*
G75*
G02*
X53253500Y-44703000I150000J0D01*
G01*
X53553500Y-44703000D01*
G75*
G02*
X53703500Y-44853000I0J-150000D01*
G01*
X53703500Y-46028000D01*
G75*
G02*
X53553500Y-46178000I-150000J0D01*
G01*
G37*
G36*
G01*
X52283500Y-46178000D02*
X51983500Y-46178000D01*
G75*
G02*
X51833500Y-46028000I0J150000D01*
G01*
X51833500Y-44853000D01*
G75*
G02*
X51983500Y-44703000I150000J0D01*
G01*
X52283500Y-44703000D01*
G75*
G02*
X52433500Y-44853000I0J-150000D01*
G01*
X52433500Y-46028000D01*
G75*
G02*
X52283500Y-46178000I-150000J0D01*
G01*
G37*
G36*
G01*
X51013500Y-46178000D02*
X50713500Y-46178000D01*
G75*
G02*
X50563500Y-46028000I0J150000D01*
G01*
X50563500Y-44853000D01*
G75*
G02*
X50713500Y-44703000I150000J0D01*
G01*
X51013500Y-44703000D01*
G75*
G02*
X51163500Y-44853000I0J-150000D01*
G01*
X51163500Y-46028000D01*
G75*
G02*
X51013500Y-46178000I-150000J0D01*
G01*
G37*
G36*
G01*
X49743500Y-46178000D02*
X49443500Y-46178000D01*
G75*
G02*
X49293500Y-46028000I0J150000D01*
G01*
X49293500Y-44853000D01*
G75*
G02*
X49443500Y-44703000I150000J0D01*
G01*
X49743500Y-44703000D01*
G75*
G02*
X49893500Y-44853000I0J-150000D01*
G01*
X49893500Y-46028000D01*
G75*
G02*
X49743500Y-46178000I-150000J0D01*
G01*
G37*
G36*
G01*
X48473500Y-46178000D02*
X48173500Y-46178000D01*
G75*
G02*
X48023500Y-46028000I0J150000D01*
G01*
X48023500Y-44853000D01*
G75*
G02*
X48173500Y-44703000I150000J0D01*
G01*
X48473500Y-44703000D01*
G75*
G02*
X48623500Y-44853000I0J-150000D01*
G01*
X48623500Y-46028000D01*
G75*
G02*
X48473500Y-46178000I-150000J0D01*
G01*
G37*
G36*
G01*
X47203500Y-46178000D02*
X46903500Y-46178000D01*
G75*
G02*
X46753500Y-46028000I0J150000D01*
G01*
X46753500Y-44853000D01*
G75*
G02*
X46903500Y-44703000I150000J0D01*
G01*
X47203500Y-44703000D01*
G75*
G02*
X47353500Y-44853000I0J-150000D01*
G01*
X47353500Y-46028000D01*
G75*
G02*
X47203500Y-46178000I-150000J0D01*
G01*
G37*
G36*
G01*
X45933500Y-46178000D02*
X45633500Y-46178000D01*
G75*
G02*
X45483500Y-46028000I0J150000D01*
G01*
X45483500Y-44853000D01*
G75*
G02*
X45633500Y-44703000I150000J0D01*
G01*
X45933500Y-44703000D01*
G75*
G02*
X46083500Y-44853000I0J-150000D01*
G01*
X46083500Y-46028000D01*
G75*
G02*
X45933500Y-46178000I-150000J0D01*
G01*
G37*
G36*
G01*
X44613500Y-43988000D02*
X43438500Y-43988000D01*
G75*
G02*
X43288500Y-43838000I0J150000D01*
G01*
X43288500Y-43538000D01*
G75*
G02*
X43438500Y-43388000I150000J0D01*
G01*
X44613500Y-43388000D01*
G75*
G02*
X44763500Y-43538000I0J-150000D01*
G01*
X44763500Y-43838000D01*
G75*
G02*
X44613500Y-43988000I-150000J0D01*
G01*
G37*
G36*
G01*
X44613500Y-42718000D02*
X43438500Y-42718000D01*
G75*
G02*
X43288500Y-42568000I0J150000D01*
G01*
X43288500Y-42268000D01*
G75*
G02*
X43438500Y-42118000I150000J0D01*
G01*
X44613500Y-42118000D01*
G75*
G02*
X44763500Y-42268000I0J-150000D01*
G01*
X44763500Y-42568000D01*
G75*
G02*
X44613500Y-42718000I-150000J0D01*
G01*
G37*
G36*
G01*
X44613500Y-41448000D02*
X43438500Y-41448000D01*
G75*
G02*
X43288500Y-41298000I0J150000D01*
G01*
X43288500Y-40998000D01*
G75*
G02*
X43438500Y-40848000I150000J0D01*
G01*
X44613500Y-40848000D01*
G75*
G02*
X44763500Y-40998000I0J-150000D01*
G01*
X44763500Y-41298000D01*
G75*
G02*
X44613500Y-41448000I-150000J0D01*
G01*
G37*
G36*
G01*
X44613500Y-40178000D02*
X43438500Y-40178000D01*
G75*
G02*
X43288500Y-40028000I0J150000D01*
G01*
X43288500Y-39728000D01*
G75*
G02*
X43438500Y-39578000I150000J0D01*
G01*
X44613500Y-39578000D01*
G75*
G02*
X44763500Y-39728000I0J-150000D01*
G01*
X44763500Y-40028000D01*
G75*
G02*
X44613500Y-40178000I-150000J0D01*
G01*
G37*
%TD*%
M02*
