%TF.GenerationSoftware,KiCad,Pcbnew,(5.1.8)-1*%
%TF.CreationDate,2020-12-20T15:01:14+01:00*%
%TF.ProjectId,GBA Cart,47424120-4361-4727-942e-6b696361645f,rev?*%
%TF.SameCoordinates,Original*%
%TF.FileFunction,Copper,L1,Top*%
%TF.FilePolarity,Positive*%
%FSLAX46Y46*%
G04 Gerber Fmt 4.6, Leading zero omitted, Abs format (unit mm)*
G04 Created by KiCad (PCBNEW (5.1.8)-1) date 2020-12-20 15:01:14*
%MOMM*%
%LPD*%
G01*
G04 APERTURE LIST*
%TA.AperFunction,SMDPad,CuDef*%
%ADD10R,1.500000X6.000000*%
%TD*%
%TA.AperFunction,SMDPad,CuDef*%
%ADD11R,1.000000X6.000000*%
%TD*%
%TA.AperFunction,ViaPad*%
%ADD12C,0.800000*%
%TD*%
%TA.AperFunction,Conductor*%
%ADD13C,0.250000*%
%TD*%
%TA.AperFunction,NonConductor*%
%ADD14C,0.254000*%
%TD*%
%TA.AperFunction,NonConductor*%
%ADD15C,0.100000*%
%TD*%
G04 APERTURE END LIST*
%TO.P,R2,2*%
%TO.N,CE_R*%
%TA.AperFunction,SMDPad,CuDef*%
G36*
G01*
X31729200Y-48496000D02*
X31729200Y-48151000D01*
G75*
G02*
X31876700Y-48003500I147500J0D01*
G01*
X32171700Y-48003500D01*
G75*
G02*
X32319200Y-48151000I0J-147500D01*
G01*
X32319200Y-48496000D01*
G75*
G02*
X32171700Y-48643500I-147500J0D01*
G01*
X31876700Y-48643500D01*
G75*
G02*
X31729200Y-48496000I0J147500D01*
G01*
G37*
%TD.AperFunction*%
%TO.P,R2,1*%
%TO.N,VCC*%
%TA.AperFunction,SMDPad,CuDef*%
G36*
G01*
X30759200Y-48496000D02*
X30759200Y-48151000D01*
G75*
G02*
X30906700Y-48003500I147500J0D01*
G01*
X31201700Y-48003500D01*
G75*
G02*
X31349200Y-48151000I0J-147500D01*
G01*
X31349200Y-48496000D01*
G75*
G02*
X31201700Y-48643500I-147500J0D01*
G01*
X30906700Y-48643500D01*
G75*
G02*
X30759200Y-48496000I0J147500D01*
G01*
G37*
%TD.AperFunction*%
%TD*%
D10*
%TO.P,J1,32*%
%TO.N,GND*%
X74297360Y-53715940D03*
D11*
%TO.P,J1,31*%
%TO.N,D7*%
X72547360Y-53715940D03*
%TO.P,J1,30*%
%TO.N,D6*%
X71047360Y-53715940D03*
%TO.P,J1,29*%
%TO.N,D5*%
X69547360Y-53715940D03*
%TO.P,J1,28*%
%TO.N,D4*%
X68047360Y-53715940D03*
%TO.P,J1,27*%
%TO.N,D3*%
X66547360Y-53715940D03*
%TO.P,J1,26*%
%TO.N,D2*%
X65047360Y-53715940D03*
%TO.P,J1,25*%
%TO.N,D1*%
X63547360Y-53715940D03*
%TO.P,J1,24*%
%TO.N,D0*%
X62047360Y-53715940D03*
%TO.P,J1,23*%
%TO.N,A18*%
X60547360Y-53715940D03*
%TO.P,J1,22*%
%TO.N,A17*%
X59047360Y-53715940D03*
%TO.P,J1,21*%
%TO.N,A16*%
X57547360Y-53715940D03*
%TO.P,J1,20*%
%TO.N,A15*%
X56047360Y-53715940D03*
%TO.P,J1,19*%
%TO.N,A14*%
X54547360Y-53715940D03*
%TO.P,J1,18*%
%TO.N,A13*%
X53047360Y-53715940D03*
%TO.P,J1,17*%
%TO.N,A12*%
X51547360Y-53715940D03*
%TO.P,J1,16*%
%TO.N,A11*%
X50047360Y-53715940D03*
%TO.P,J1,15*%
%TO.N,A10*%
X48547360Y-53715940D03*
%TO.P,J1,14*%
%TO.N,A9*%
X47047360Y-53715940D03*
%TO.P,J1,13*%
%TO.N,A8*%
X45547360Y-53715940D03*
%TO.P,J1,12*%
%TO.N,A7*%
X44047360Y-53715940D03*
%TO.P,J1,11*%
%TO.N,A6*%
X42547360Y-53715940D03*
%TO.P,J1,10*%
%TO.N,A5*%
X41047360Y-53715940D03*
%TO.P,J1,9*%
%TO.N,A4*%
X39547360Y-53715940D03*
%TO.P,J1,8*%
%TO.N,A3*%
X38047360Y-53715940D03*
%TO.P,J1,7*%
%TO.N,A2*%
X36547360Y-53715940D03*
%TO.P,J1,6*%
%TO.N,A1*%
X35047360Y-53715940D03*
%TO.P,J1,5*%
%TO.N,A0*%
X33547360Y-53715940D03*
%TO.P,J1,4*%
%TO.N,CE_R*%
X32047360Y-53715940D03*
%TO.P,J1,3*%
%TO.N,RD*%
X30547360Y-53715940D03*
%TO.P,J1,2*%
%TO.N,WR*%
X29047360Y-53715940D03*
D10*
%TO.P,J1,1*%
%TO.N,VCC*%
X27297360Y-53715940D03*
%TD*%
%TO.P,C1,2*%
%TO.N,GND*%
%TA.AperFunction,SMDPad,CuDef*%
G36*
G01*
X40915250Y-39987700D02*
X41827750Y-39987700D01*
G75*
G02*
X42071500Y-40231450I0J-243750D01*
G01*
X42071500Y-40718950D01*
G75*
G02*
X41827750Y-40962700I-243750J0D01*
G01*
X40915250Y-40962700D01*
G75*
G02*
X40671500Y-40718950I0J243750D01*
G01*
X40671500Y-40231450D01*
G75*
G02*
X40915250Y-39987700I243750J0D01*
G01*
G37*
%TD.AperFunction*%
%TO.P,C1,1*%
%TO.N,VCC*%
%TA.AperFunction,SMDPad,CuDef*%
G36*
G01*
X40915250Y-38112700D02*
X41827750Y-38112700D01*
G75*
G02*
X42071500Y-38356450I0J-243750D01*
G01*
X42071500Y-38843950D01*
G75*
G02*
X41827750Y-39087700I-243750J0D01*
G01*
X40915250Y-39087700D01*
G75*
G02*
X40671500Y-38843950I0J243750D01*
G01*
X40671500Y-38356450D01*
G75*
G02*
X40915250Y-38112700I243750J0D01*
G01*
G37*
%TD.AperFunction*%
%TD*%
%TO.P,U1,32*%
%TO.N,VCC*%
%TA.AperFunction,SMDPad,CuDef*%
G36*
G01*
X44613500Y-38908000D02*
X43438500Y-38908000D01*
G75*
G02*
X43288500Y-38758000I0J150000D01*
G01*
X43288500Y-38458000D01*
G75*
G02*
X43438500Y-38308000I150000J0D01*
G01*
X44613500Y-38308000D01*
G75*
G02*
X44763500Y-38458000I0J-150000D01*
G01*
X44763500Y-38758000D01*
G75*
G02*
X44613500Y-38908000I-150000J0D01*
G01*
G37*
%TD.AperFunction*%
%TO.P,U1,31*%
%TO.N,WR*%
%TA.AperFunction,SMDPad,CuDef*%
G36*
G01*
X44613500Y-37638000D02*
X43438500Y-37638000D01*
G75*
G02*
X43288500Y-37488000I0J150000D01*
G01*
X43288500Y-37188000D01*
G75*
G02*
X43438500Y-37038000I150000J0D01*
G01*
X44613500Y-37038000D01*
G75*
G02*
X44763500Y-37188000I0J-150000D01*
G01*
X44763500Y-37488000D01*
G75*
G02*
X44613500Y-37638000I-150000J0D01*
G01*
G37*
%TD.AperFunction*%
%TO.P,U1,30*%
%TO.N,A17*%
%TA.AperFunction,SMDPad,CuDef*%
G36*
G01*
X44613500Y-36368000D02*
X43438500Y-36368000D01*
G75*
G02*
X43288500Y-36218000I0J150000D01*
G01*
X43288500Y-35918000D01*
G75*
G02*
X43438500Y-35768000I150000J0D01*
G01*
X44613500Y-35768000D01*
G75*
G02*
X44763500Y-35918000I0J-150000D01*
G01*
X44763500Y-36218000D01*
G75*
G02*
X44613500Y-36368000I-150000J0D01*
G01*
G37*
%TD.AperFunction*%
%TO.P,U1,29*%
%TO.N,A14*%
%TA.AperFunction,SMDPad,CuDef*%
G36*
G01*
X45933500Y-35053000D02*
X45633500Y-35053000D01*
G75*
G02*
X45483500Y-34903000I0J150000D01*
G01*
X45483500Y-33728000D01*
G75*
G02*
X45633500Y-33578000I150000J0D01*
G01*
X45933500Y-33578000D01*
G75*
G02*
X46083500Y-33728000I0J-150000D01*
G01*
X46083500Y-34903000D01*
G75*
G02*
X45933500Y-35053000I-150000J0D01*
G01*
G37*
%TD.AperFunction*%
%TO.P,U1,28*%
%TO.N,A13*%
%TA.AperFunction,SMDPad,CuDef*%
G36*
G01*
X47203500Y-35053000D02*
X46903500Y-35053000D01*
G75*
G02*
X46753500Y-34903000I0J150000D01*
G01*
X46753500Y-33728000D01*
G75*
G02*
X46903500Y-33578000I150000J0D01*
G01*
X47203500Y-33578000D01*
G75*
G02*
X47353500Y-33728000I0J-150000D01*
G01*
X47353500Y-34903000D01*
G75*
G02*
X47203500Y-35053000I-150000J0D01*
G01*
G37*
%TD.AperFunction*%
%TO.P,U1,27*%
%TO.N,A8*%
%TA.AperFunction,SMDPad,CuDef*%
G36*
G01*
X48473500Y-35053000D02*
X48173500Y-35053000D01*
G75*
G02*
X48023500Y-34903000I0J150000D01*
G01*
X48023500Y-33728000D01*
G75*
G02*
X48173500Y-33578000I150000J0D01*
G01*
X48473500Y-33578000D01*
G75*
G02*
X48623500Y-33728000I0J-150000D01*
G01*
X48623500Y-34903000D01*
G75*
G02*
X48473500Y-35053000I-150000J0D01*
G01*
G37*
%TD.AperFunction*%
%TO.P,U1,26*%
%TO.N,A9*%
%TA.AperFunction,SMDPad,CuDef*%
G36*
G01*
X49743500Y-35053000D02*
X49443500Y-35053000D01*
G75*
G02*
X49293500Y-34903000I0J150000D01*
G01*
X49293500Y-33728000D01*
G75*
G02*
X49443500Y-33578000I150000J0D01*
G01*
X49743500Y-33578000D01*
G75*
G02*
X49893500Y-33728000I0J-150000D01*
G01*
X49893500Y-34903000D01*
G75*
G02*
X49743500Y-35053000I-150000J0D01*
G01*
G37*
%TD.AperFunction*%
%TO.P,U1,25*%
%TO.N,A11*%
%TA.AperFunction,SMDPad,CuDef*%
G36*
G01*
X51013500Y-35053000D02*
X50713500Y-35053000D01*
G75*
G02*
X50563500Y-34903000I0J150000D01*
G01*
X50563500Y-33728000D01*
G75*
G02*
X50713500Y-33578000I150000J0D01*
G01*
X51013500Y-33578000D01*
G75*
G02*
X51163500Y-33728000I0J-150000D01*
G01*
X51163500Y-34903000D01*
G75*
G02*
X51013500Y-35053000I-150000J0D01*
G01*
G37*
%TD.AperFunction*%
%TO.P,U1,24*%
%TO.N,RD*%
%TA.AperFunction,SMDPad,CuDef*%
G36*
G01*
X52283500Y-35053000D02*
X51983500Y-35053000D01*
G75*
G02*
X51833500Y-34903000I0J150000D01*
G01*
X51833500Y-33728000D01*
G75*
G02*
X51983500Y-33578000I150000J0D01*
G01*
X52283500Y-33578000D01*
G75*
G02*
X52433500Y-33728000I0J-150000D01*
G01*
X52433500Y-34903000D01*
G75*
G02*
X52283500Y-35053000I-150000J0D01*
G01*
G37*
%TD.AperFunction*%
%TO.P,U1,23*%
%TO.N,A10*%
%TA.AperFunction,SMDPad,CuDef*%
G36*
G01*
X53553500Y-35053000D02*
X53253500Y-35053000D01*
G75*
G02*
X53103500Y-34903000I0J150000D01*
G01*
X53103500Y-33728000D01*
G75*
G02*
X53253500Y-33578000I150000J0D01*
G01*
X53553500Y-33578000D01*
G75*
G02*
X53703500Y-33728000I0J-150000D01*
G01*
X53703500Y-34903000D01*
G75*
G02*
X53553500Y-35053000I-150000J0D01*
G01*
G37*
%TD.AperFunction*%
%TO.P,U1,22*%
%TO.N,CE_R*%
%TA.AperFunction,SMDPad,CuDef*%
G36*
G01*
X54823500Y-35053000D02*
X54523500Y-35053000D01*
G75*
G02*
X54373500Y-34903000I0J150000D01*
G01*
X54373500Y-33728000D01*
G75*
G02*
X54523500Y-33578000I150000J0D01*
G01*
X54823500Y-33578000D01*
G75*
G02*
X54973500Y-33728000I0J-150000D01*
G01*
X54973500Y-34903000D01*
G75*
G02*
X54823500Y-35053000I-150000J0D01*
G01*
G37*
%TD.AperFunction*%
%TO.P,U1,21*%
%TO.N,D7*%
%TA.AperFunction,SMDPad,CuDef*%
G36*
G01*
X56093500Y-35053000D02*
X55793500Y-35053000D01*
G75*
G02*
X55643500Y-34903000I0J150000D01*
G01*
X55643500Y-33728000D01*
G75*
G02*
X55793500Y-33578000I150000J0D01*
G01*
X56093500Y-33578000D01*
G75*
G02*
X56243500Y-33728000I0J-150000D01*
G01*
X56243500Y-34903000D01*
G75*
G02*
X56093500Y-35053000I-150000J0D01*
G01*
G37*
%TD.AperFunction*%
%TO.P,U1,20*%
%TO.N,D6*%
%TA.AperFunction,SMDPad,CuDef*%
G36*
G01*
X58288500Y-36368000D02*
X57113500Y-36368000D01*
G75*
G02*
X56963500Y-36218000I0J150000D01*
G01*
X56963500Y-35918000D01*
G75*
G02*
X57113500Y-35768000I150000J0D01*
G01*
X58288500Y-35768000D01*
G75*
G02*
X58438500Y-35918000I0J-150000D01*
G01*
X58438500Y-36218000D01*
G75*
G02*
X58288500Y-36368000I-150000J0D01*
G01*
G37*
%TD.AperFunction*%
%TO.P,U1,19*%
%TO.N,D5*%
%TA.AperFunction,SMDPad,CuDef*%
G36*
G01*
X58288500Y-37638000D02*
X57113500Y-37638000D01*
G75*
G02*
X56963500Y-37488000I0J150000D01*
G01*
X56963500Y-37188000D01*
G75*
G02*
X57113500Y-37038000I150000J0D01*
G01*
X58288500Y-37038000D01*
G75*
G02*
X58438500Y-37188000I0J-150000D01*
G01*
X58438500Y-37488000D01*
G75*
G02*
X58288500Y-37638000I-150000J0D01*
G01*
G37*
%TD.AperFunction*%
%TO.P,U1,18*%
%TO.N,D4*%
%TA.AperFunction,SMDPad,CuDef*%
G36*
G01*
X58288500Y-38908000D02*
X57113500Y-38908000D01*
G75*
G02*
X56963500Y-38758000I0J150000D01*
G01*
X56963500Y-38458000D01*
G75*
G02*
X57113500Y-38308000I150000J0D01*
G01*
X58288500Y-38308000D01*
G75*
G02*
X58438500Y-38458000I0J-150000D01*
G01*
X58438500Y-38758000D01*
G75*
G02*
X58288500Y-38908000I-150000J0D01*
G01*
G37*
%TD.AperFunction*%
%TO.P,U1,17*%
%TO.N,D3*%
%TA.AperFunction,SMDPad,CuDef*%
G36*
G01*
X58288500Y-40178000D02*
X57113500Y-40178000D01*
G75*
G02*
X56963500Y-40028000I0J150000D01*
G01*
X56963500Y-39728000D01*
G75*
G02*
X57113500Y-39578000I150000J0D01*
G01*
X58288500Y-39578000D01*
G75*
G02*
X58438500Y-39728000I0J-150000D01*
G01*
X58438500Y-40028000D01*
G75*
G02*
X58288500Y-40178000I-150000J0D01*
G01*
G37*
%TD.AperFunction*%
%TO.P,U1,16*%
%TO.N,GND*%
%TA.AperFunction,SMDPad,CuDef*%
G36*
G01*
X58288500Y-41448000D02*
X57113500Y-41448000D01*
G75*
G02*
X56963500Y-41298000I0J150000D01*
G01*
X56963500Y-40998000D01*
G75*
G02*
X57113500Y-40848000I150000J0D01*
G01*
X58288500Y-40848000D01*
G75*
G02*
X58438500Y-40998000I0J-150000D01*
G01*
X58438500Y-41298000D01*
G75*
G02*
X58288500Y-41448000I-150000J0D01*
G01*
G37*
%TD.AperFunction*%
%TO.P,U1,15*%
%TO.N,D2*%
%TA.AperFunction,SMDPad,CuDef*%
G36*
G01*
X58288500Y-42718000D02*
X57113500Y-42718000D01*
G75*
G02*
X56963500Y-42568000I0J150000D01*
G01*
X56963500Y-42268000D01*
G75*
G02*
X57113500Y-42118000I150000J0D01*
G01*
X58288500Y-42118000D01*
G75*
G02*
X58438500Y-42268000I0J-150000D01*
G01*
X58438500Y-42568000D01*
G75*
G02*
X58288500Y-42718000I-150000J0D01*
G01*
G37*
%TD.AperFunction*%
%TO.P,U1,14*%
%TO.N,D1*%
%TA.AperFunction,SMDPad,CuDef*%
G36*
G01*
X58288500Y-43988000D02*
X57113500Y-43988000D01*
G75*
G02*
X56963500Y-43838000I0J150000D01*
G01*
X56963500Y-43538000D01*
G75*
G02*
X57113500Y-43388000I150000J0D01*
G01*
X58288500Y-43388000D01*
G75*
G02*
X58438500Y-43538000I0J-150000D01*
G01*
X58438500Y-43838000D01*
G75*
G02*
X58288500Y-43988000I-150000J0D01*
G01*
G37*
%TD.AperFunction*%
%TO.P,U1,13*%
%TO.N,D0*%
%TA.AperFunction,SMDPad,CuDef*%
G36*
G01*
X56093500Y-46178000D02*
X55793500Y-46178000D01*
G75*
G02*
X55643500Y-46028000I0J150000D01*
G01*
X55643500Y-44853000D01*
G75*
G02*
X55793500Y-44703000I150000J0D01*
G01*
X56093500Y-44703000D01*
G75*
G02*
X56243500Y-44853000I0J-150000D01*
G01*
X56243500Y-46028000D01*
G75*
G02*
X56093500Y-46178000I-150000J0D01*
G01*
G37*
%TD.AperFunction*%
%TO.P,U1,12*%
%TO.N,A0*%
%TA.AperFunction,SMDPad,CuDef*%
G36*
G01*
X54823500Y-46178000D02*
X54523500Y-46178000D01*
G75*
G02*
X54373500Y-46028000I0J150000D01*
G01*
X54373500Y-44853000D01*
G75*
G02*
X54523500Y-44703000I150000J0D01*
G01*
X54823500Y-44703000D01*
G75*
G02*
X54973500Y-44853000I0J-150000D01*
G01*
X54973500Y-46028000D01*
G75*
G02*
X54823500Y-46178000I-150000J0D01*
G01*
G37*
%TD.AperFunction*%
%TO.P,U1,11*%
%TO.N,A1*%
%TA.AperFunction,SMDPad,CuDef*%
G36*
G01*
X53553500Y-46178000D02*
X53253500Y-46178000D01*
G75*
G02*
X53103500Y-46028000I0J150000D01*
G01*
X53103500Y-44853000D01*
G75*
G02*
X53253500Y-44703000I150000J0D01*
G01*
X53553500Y-44703000D01*
G75*
G02*
X53703500Y-44853000I0J-150000D01*
G01*
X53703500Y-46028000D01*
G75*
G02*
X53553500Y-46178000I-150000J0D01*
G01*
G37*
%TD.AperFunction*%
%TO.P,U1,10*%
%TO.N,A2*%
%TA.AperFunction,SMDPad,CuDef*%
G36*
G01*
X52283500Y-46178000D02*
X51983500Y-46178000D01*
G75*
G02*
X51833500Y-46028000I0J150000D01*
G01*
X51833500Y-44853000D01*
G75*
G02*
X51983500Y-44703000I150000J0D01*
G01*
X52283500Y-44703000D01*
G75*
G02*
X52433500Y-44853000I0J-150000D01*
G01*
X52433500Y-46028000D01*
G75*
G02*
X52283500Y-46178000I-150000J0D01*
G01*
G37*
%TD.AperFunction*%
%TO.P,U1,9*%
%TO.N,A3*%
%TA.AperFunction,SMDPad,CuDef*%
G36*
G01*
X51013500Y-46178000D02*
X50713500Y-46178000D01*
G75*
G02*
X50563500Y-46028000I0J150000D01*
G01*
X50563500Y-44853000D01*
G75*
G02*
X50713500Y-44703000I150000J0D01*
G01*
X51013500Y-44703000D01*
G75*
G02*
X51163500Y-44853000I0J-150000D01*
G01*
X51163500Y-46028000D01*
G75*
G02*
X51013500Y-46178000I-150000J0D01*
G01*
G37*
%TD.AperFunction*%
%TO.P,U1,8*%
%TO.N,A4*%
%TA.AperFunction,SMDPad,CuDef*%
G36*
G01*
X49743500Y-46178000D02*
X49443500Y-46178000D01*
G75*
G02*
X49293500Y-46028000I0J150000D01*
G01*
X49293500Y-44853000D01*
G75*
G02*
X49443500Y-44703000I150000J0D01*
G01*
X49743500Y-44703000D01*
G75*
G02*
X49893500Y-44853000I0J-150000D01*
G01*
X49893500Y-46028000D01*
G75*
G02*
X49743500Y-46178000I-150000J0D01*
G01*
G37*
%TD.AperFunction*%
%TO.P,U1,7*%
%TO.N,A5*%
%TA.AperFunction,SMDPad,CuDef*%
G36*
G01*
X48473500Y-46178000D02*
X48173500Y-46178000D01*
G75*
G02*
X48023500Y-46028000I0J150000D01*
G01*
X48023500Y-44853000D01*
G75*
G02*
X48173500Y-44703000I150000J0D01*
G01*
X48473500Y-44703000D01*
G75*
G02*
X48623500Y-44853000I0J-150000D01*
G01*
X48623500Y-46028000D01*
G75*
G02*
X48473500Y-46178000I-150000J0D01*
G01*
G37*
%TD.AperFunction*%
%TO.P,U1,6*%
%TO.N,A6*%
%TA.AperFunction,SMDPad,CuDef*%
G36*
G01*
X47203500Y-46178000D02*
X46903500Y-46178000D01*
G75*
G02*
X46753500Y-46028000I0J150000D01*
G01*
X46753500Y-44853000D01*
G75*
G02*
X46903500Y-44703000I150000J0D01*
G01*
X47203500Y-44703000D01*
G75*
G02*
X47353500Y-44853000I0J-150000D01*
G01*
X47353500Y-46028000D01*
G75*
G02*
X47203500Y-46178000I-150000J0D01*
G01*
G37*
%TD.AperFunction*%
%TO.P,U1,5*%
%TO.N,A7*%
%TA.AperFunction,SMDPad,CuDef*%
G36*
G01*
X45933500Y-46178000D02*
X45633500Y-46178000D01*
G75*
G02*
X45483500Y-46028000I0J150000D01*
G01*
X45483500Y-44853000D01*
G75*
G02*
X45633500Y-44703000I150000J0D01*
G01*
X45933500Y-44703000D01*
G75*
G02*
X46083500Y-44853000I0J-150000D01*
G01*
X46083500Y-46028000D01*
G75*
G02*
X45933500Y-46178000I-150000J0D01*
G01*
G37*
%TD.AperFunction*%
%TO.P,U1,4*%
%TO.N,A12*%
%TA.AperFunction,SMDPad,CuDef*%
G36*
G01*
X44613500Y-43988000D02*
X43438500Y-43988000D01*
G75*
G02*
X43288500Y-43838000I0J150000D01*
G01*
X43288500Y-43538000D01*
G75*
G02*
X43438500Y-43388000I150000J0D01*
G01*
X44613500Y-43388000D01*
G75*
G02*
X44763500Y-43538000I0J-150000D01*
G01*
X44763500Y-43838000D01*
G75*
G02*
X44613500Y-43988000I-150000J0D01*
G01*
G37*
%TD.AperFunction*%
%TO.P,U1,3*%
%TO.N,A15*%
%TA.AperFunction,SMDPad,CuDef*%
G36*
G01*
X44613500Y-42718000D02*
X43438500Y-42718000D01*
G75*
G02*
X43288500Y-42568000I0J150000D01*
G01*
X43288500Y-42268000D01*
G75*
G02*
X43438500Y-42118000I150000J0D01*
G01*
X44613500Y-42118000D01*
G75*
G02*
X44763500Y-42268000I0J-150000D01*
G01*
X44763500Y-42568000D01*
G75*
G02*
X44613500Y-42718000I-150000J0D01*
G01*
G37*
%TD.AperFunction*%
%TO.P,U1,2*%
%TO.N,A16*%
%TA.AperFunction,SMDPad,CuDef*%
G36*
G01*
X44613500Y-41448000D02*
X43438500Y-41448000D01*
G75*
G02*
X43288500Y-41298000I0J150000D01*
G01*
X43288500Y-40998000D01*
G75*
G02*
X43438500Y-40848000I150000J0D01*
G01*
X44613500Y-40848000D01*
G75*
G02*
X44763500Y-40998000I0J-150000D01*
G01*
X44763500Y-41298000D01*
G75*
G02*
X44613500Y-41448000I-150000J0D01*
G01*
G37*
%TD.AperFunction*%
%TO.P,U1,1*%
%TO.N,A18*%
%TA.AperFunction,SMDPad,CuDef*%
G36*
G01*
X44613500Y-40178000D02*
X43438500Y-40178000D01*
G75*
G02*
X43288500Y-40028000I0J150000D01*
G01*
X43288500Y-39728000D01*
G75*
G02*
X43438500Y-39578000I150000J0D01*
G01*
X44613500Y-39578000D01*
G75*
G02*
X44763500Y-39728000I0J-150000D01*
G01*
X44763500Y-40028000D01*
G75*
G02*
X44613500Y-40178000I-150000J0D01*
G01*
G37*
%TD.AperFunction*%
%TD*%
D12*
%TO.N,VCC*%
X32479100Y-47153100D03*
X27511600Y-50096500D03*
%TO.N,A2*%
X37187800Y-50114200D03*
X53322800Y-46779100D03*
%TO.N,A5*%
X41811300Y-50113100D03*
X45263600Y-47169200D03*
%TO.N,A8*%
X46306200Y-50101700D03*
X48252000Y-37127000D03*
%TO.N,A9*%
X47214200Y-48668400D03*
X48470100Y-36126600D03*
%TO.N,A10*%
X49532400Y-50114200D03*
X51515800Y-36296700D03*
%TO.N,A11*%
X49564800Y-49044900D03*
X50331500Y-35619500D03*
%TO.N,A12*%
X46263900Y-47626800D03*
X43493500Y-44603900D03*
%TO.N,A13*%
X49180400Y-46837600D03*
X46867600Y-35697500D03*
%TO.N,A14*%
X53860800Y-50100200D03*
X50903400Y-37099200D03*
%TO.N,A17*%
X58405600Y-50102300D03*
X44857800Y-35123800D03*
%TD*%
D13*
%TO.N,VCC*%
X41371500Y-38600200D02*
X41032000Y-38600200D01*
X41032000Y-38600200D02*
X32479100Y-47153100D01*
X44026000Y-38608000D02*
X41379300Y-38608000D01*
X41379300Y-38608000D02*
X41371500Y-38600200D01*
X32479100Y-47153100D02*
X32205800Y-47153100D01*
X32205800Y-47153100D02*
X31054200Y-48304700D01*
X31054200Y-48304700D02*
X31054200Y-48323500D01*
X27297400Y-53715900D02*
X27297400Y-50390600D01*
X27297400Y-50390600D02*
X27511600Y-50176400D01*
X27511600Y-50176400D02*
X27511600Y-50096500D01*
%TO.N,WR*%
X44026000Y-37338000D02*
X46800000Y-37338000D01*
X46800000Y-37338000D02*
X47764800Y-38302800D01*
X47764800Y-38302800D02*
X50828500Y-38302800D01*
X50828500Y-38302800D02*
X54038500Y-35092800D01*
X54038500Y-35092800D02*
X54038500Y-33490900D01*
X54038500Y-33490900D02*
X53318500Y-32770900D01*
X53318500Y-32770900D02*
X44268200Y-32770900D01*
X44268200Y-32770900D02*
X29047400Y-47991700D01*
X29047400Y-47991700D02*
X29047400Y-53715900D01*
%TO.N,RD*%
X52133500Y-34315500D02*
X52133500Y-34134400D01*
X52133500Y-34134400D02*
X51222200Y-33223100D01*
X51222200Y-33223100D02*
X44513200Y-33223100D01*
X44513200Y-33223100D02*
X29957000Y-47779300D01*
X29957000Y-47779300D02*
X29957000Y-49800200D01*
X29957000Y-49800200D02*
X30547400Y-50390600D01*
X30547400Y-53715900D02*
X30547400Y-50390600D01*
%TO.N,A0*%
X33547400Y-53715900D02*
X33547400Y-50204200D01*
X33547400Y-50204200D02*
X43238600Y-40513000D01*
X43238600Y-40513000D02*
X50558500Y-40513000D01*
X50558500Y-40513000D02*
X54673500Y-44628000D01*
X54673500Y-44628000D02*
X54673500Y-45440500D01*
%TO.N,A1*%
X35047400Y-53715900D02*
X35047400Y-49981000D01*
X35047400Y-49981000D02*
X43245400Y-41783000D01*
X43245400Y-41783000D02*
X49889000Y-41783000D01*
X49889000Y-41783000D02*
X53403500Y-45297500D01*
X53403500Y-45297500D02*
X53403500Y-45440500D01*
%TO.N,A2*%
X52133500Y-45440500D02*
X52133500Y-45589800D01*
X52133500Y-45589800D02*
X53322800Y-46779100D01*
X36547400Y-53715900D02*
X36547400Y-50390600D01*
X36547400Y-50390600D02*
X36911400Y-50390600D01*
X36911400Y-50390600D02*
X37187800Y-50114200D01*
%TO.N,A3*%
X38047400Y-53715900D02*
X38047400Y-48235600D01*
X38047400Y-48235600D02*
X43230000Y-43053000D01*
X43230000Y-43053000D02*
X48617900Y-43053000D01*
X48617900Y-43053000D02*
X50863500Y-45298600D01*
X50863500Y-45298600D02*
X50863500Y-45440500D01*
%TO.N,A4*%
X49593500Y-45440500D02*
X49593500Y-45220700D01*
X49593500Y-45220700D02*
X48290500Y-43917700D01*
X48290500Y-43917700D02*
X45225700Y-43917700D01*
X45225700Y-43917700D02*
X39547400Y-49596000D01*
X39547400Y-49596000D02*
X39547400Y-53715900D01*
%TO.N,A5*%
X41047400Y-50390600D02*
X41533800Y-50390600D01*
X41533800Y-50390600D02*
X41811300Y-50113100D01*
X41047400Y-53715900D02*
X41047400Y-50390600D01*
X48323500Y-45440500D02*
X48323500Y-45706400D01*
X48323500Y-45706400D02*
X47442200Y-46587700D01*
X47442200Y-46587700D02*
X45845100Y-46587700D01*
X45845100Y-46587700D02*
X45263600Y-47169200D01*
%TO.N,A6*%
X42547400Y-53715900D02*
X42547400Y-50390600D01*
X47053500Y-45440500D02*
X47053500Y-45172300D01*
X47053500Y-45172300D02*
X46249200Y-44368000D01*
X46249200Y-44368000D02*
X45412300Y-44368000D01*
X45412300Y-44368000D02*
X42547400Y-47232900D01*
X42547400Y-47232900D02*
X42547400Y-50390600D01*
%TO.N,A7*%
X45783500Y-45440500D02*
X44047400Y-47176600D01*
X44047400Y-47176600D02*
X44047400Y-53715900D01*
%TO.N,A8*%
X48323500Y-34315500D02*
X47727500Y-34911500D01*
X47727500Y-34911500D02*
X47727500Y-36602500D01*
X47727500Y-36602500D02*
X48252000Y-37127000D01*
X45547400Y-50390600D02*
X46017300Y-50390600D01*
X46017300Y-50390600D02*
X46306200Y-50101700D01*
X45547400Y-53715900D02*
X45547400Y-50390600D01*
%TO.N,A9*%
X49593500Y-34315500D02*
X49593500Y-35003200D01*
X49593500Y-35003200D02*
X48470100Y-36126600D01*
X47047400Y-53715900D02*
X47047400Y-50390600D01*
X47214200Y-48668400D02*
X47214200Y-50223800D01*
X47214200Y-50223800D02*
X47047400Y-50390600D01*
%TO.N,A10*%
X53403500Y-34315500D02*
X53403500Y-34479800D01*
X53403500Y-34479800D02*
X51586600Y-36296700D01*
X51586600Y-36296700D02*
X51515800Y-36296700D01*
X49532400Y-50114200D02*
X49256000Y-50390600D01*
X49256000Y-50390600D02*
X48547400Y-50390600D01*
X48547400Y-53715900D02*
X48547400Y-50390600D01*
%TO.N,A11*%
X50863500Y-34315500D02*
X50863500Y-35087500D01*
X50863500Y-35087500D02*
X50331500Y-35619500D01*
X49564800Y-49044900D02*
X50267100Y-49747200D01*
X50267100Y-49747200D02*
X50267100Y-53496200D01*
X50267100Y-53496200D02*
X50047400Y-53715900D01*
%TO.N,A12*%
X51547400Y-50390600D02*
X51547400Y-49984400D01*
X51547400Y-49984400D02*
X49189800Y-47626800D01*
X49189800Y-47626800D02*
X46263900Y-47626800D01*
X51547400Y-53715900D02*
X51547400Y-50390600D01*
X44026000Y-43688000D02*
X44026000Y-44071400D01*
X44026000Y-44071400D02*
X43493500Y-44603900D01*
%TO.N,A13*%
X47053500Y-34315500D02*
X47053500Y-35511600D01*
X47053500Y-35511600D02*
X46867600Y-35697500D01*
X53047400Y-50390600D02*
X49494400Y-46837600D01*
X49494400Y-46837600D02*
X49180400Y-46837600D01*
X53047400Y-53715900D02*
X53047400Y-50390600D01*
%TO.N,A14*%
X54547400Y-53715900D02*
X54547400Y-50390600D01*
X54547400Y-50390600D02*
X54151200Y-50390600D01*
X54151200Y-50390600D02*
X53860800Y-50100200D01*
X45783500Y-34315500D02*
X45783500Y-35684600D01*
X45783500Y-35684600D02*
X47951400Y-37852500D01*
X47951400Y-37852500D02*
X50150100Y-37852500D01*
X50150100Y-37852500D02*
X50903400Y-37099200D01*
%TO.N,A15*%
X56047400Y-53715900D02*
X56047400Y-50390600D01*
X44026000Y-42418000D02*
X49306700Y-42418000D01*
X49306700Y-42418000D02*
X51498500Y-44609800D01*
X51498500Y-44609800D02*
X51498500Y-46217500D01*
X51498500Y-46217500D02*
X55671600Y-50390600D01*
X55671600Y-50390600D02*
X56047400Y-50390600D01*
%TO.N,A16*%
X44026000Y-41148000D02*
X50538600Y-41148000D01*
X50538600Y-41148000D02*
X54047600Y-44657000D01*
X54047600Y-44657000D02*
X54047600Y-46407000D01*
X54047600Y-46407000D02*
X57547400Y-49906800D01*
X57547400Y-49906800D02*
X57547400Y-50390600D01*
X57547400Y-53715900D02*
X57547400Y-50390600D01*
%TO.N,A17*%
X59047400Y-53715900D02*
X59047400Y-50390600D01*
X58405600Y-50102300D02*
X58693900Y-50390600D01*
X58693900Y-50390600D02*
X59047400Y-50390600D01*
X44026000Y-36068000D02*
X44857800Y-35236200D01*
X44857800Y-35236200D02*
X44857800Y-35123800D01*
%TO.N,A18*%
X60547400Y-50390600D02*
X59385700Y-49228900D01*
X59385700Y-49228900D02*
X58274300Y-49228900D01*
X58274300Y-49228900D02*
X55308400Y-46263000D01*
X55308400Y-46263000D02*
X55308400Y-44625700D01*
X55308400Y-44625700D02*
X50560700Y-39878000D01*
X50560700Y-39878000D02*
X44026000Y-39878000D01*
X60547400Y-53715900D02*
X60547400Y-50390600D01*
%TO.N,D0*%
X62047400Y-53715900D02*
X62047400Y-50390600D01*
X55943500Y-45440500D02*
X57097300Y-45440500D01*
X57097300Y-45440500D02*
X62047400Y-50390600D01*
%TO.N,D1*%
X57701000Y-43688000D02*
X63547400Y-49534400D01*
X63547400Y-49534400D02*
X63547400Y-53715900D01*
%TO.N,D2*%
X57701000Y-42418000D02*
X57844400Y-42418000D01*
X57844400Y-42418000D02*
X65047400Y-49621000D01*
X65047400Y-49621000D02*
X65047400Y-53715900D01*
%TO.N,D3*%
X57701000Y-39878000D02*
X57877800Y-39878000D01*
X57877800Y-39878000D02*
X66547400Y-48547600D01*
X66547400Y-48547600D02*
X66547400Y-53715900D01*
%TO.N,D4*%
X57701000Y-38608000D02*
X57891600Y-38608000D01*
X57891600Y-38608000D02*
X68047400Y-48763800D01*
X68047400Y-48763800D02*
X68047400Y-53715900D01*
%TO.N,D5*%
X57701000Y-37338000D02*
X57848700Y-37338000D01*
X57848700Y-37338000D02*
X69547400Y-49036700D01*
X69547400Y-49036700D02*
X69547400Y-53715900D01*
%TO.N,D6*%
X57701000Y-36068000D02*
X57889700Y-36068000D01*
X57889700Y-36068000D02*
X71047400Y-49225700D01*
X71047400Y-49225700D02*
X71047400Y-53715900D01*
%TO.N,D7*%
X55943500Y-34315500D02*
X57380200Y-34315500D01*
X57380200Y-34315500D02*
X72547400Y-49482700D01*
X72547400Y-49482700D02*
X72547400Y-53715900D01*
%TO.N,GND*%
X55308500Y-39243000D02*
X42603700Y-39243000D01*
X42603700Y-39243000D02*
X41371500Y-40475200D01*
X57701000Y-41148000D02*
X57213500Y-41148000D01*
X57213500Y-41148000D02*
X55308500Y-39243000D01*
X74297400Y-50390600D02*
X57137100Y-33230300D01*
X57137100Y-33230300D02*
X55575500Y-33230300D01*
X55575500Y-33230300D02*
X55308500Y-33497300D01*
X55308500Y-33497300D02*
X55308500Y-39243000D01*
X74297400Y-53715900D02*
X74297400Y-50390600D01*
%TO.N,CE_R*%
X32024200Y-49000200D02*
X30657900Y-49000200D01*
X30657900Y-49000200D02*
X30431300Y-48773600D01*
X30431300Y-48773600D02*
X30431300Y-47941900D01*
X30431300Y-47941900D02*
X40615500Y-37757700D01*
X40615500Y-37757700D02*
X42602500Y-37757700D01*
X42602500Y-37757700D02*
X42826800Y-37982000D01*
X42826800Y-37982000D02*
X45388900Y-37982000D01*
X45388900Y-37982000D02*
X46160000Y-38753100D01*
X46160000Y-38753100D02*
X51056600Y-38753100D01*
X51056600Y-38753100D02*
X54673500Y-35136200D01*
X54673500Y-35136200D02*
X54673500Y-34315500D01*
X32024200Y-49000200D02*
X32024200Y-50367400D01*
X32024200Y-50367400D02*
X32047400Y-50390600D01*
X32024200Y-48323500D02*
X32024200Y-49000200D01*
X32047400Y-53715900D02*
X32047400Y-50390600D01*
%TD*%
D14*
X40033428Y-40718950D02*
X40050372Y-40890985D01*
X40100553Y-41056409D01*
X40182042Y-41208864D01*
X40291708Y-41342492D01*
X40425336Y-41452158D01*
X40577791Y-41533647D01*
X40743215Y-41583828D01*
X40915250Y-41600772D01*
X41076025Y-41600772D01*
X33036398Y-49640401D01*
X33007400Y-49664199D01*
X32983602Y-49693197D01*
X32983601Y-49693198D01*
X32912426Y-49779924D01*
X32841854Y-49911954D01*
X32813619Y-50005036D01*
X32798398Y-50055214D01*
X32791388Y-50126392D01*
X32784200Y-50124211D01*
X32784200Y-49037533D01*
X32787877Y-49000200D01*
X32785883Y-48979957D01*
X32824879Y-48932440D01*
X32897474Y-48796625D01*
X32942177Y-48649257D01*
X32957272Y-48496000D01*
X32957272Y-48151000D01*
X32950109Y-48078277D01*
X32969356Y-48070305D01*
X33138874Y-47957037D01*
X33283037Y-47812874D01*
X33396305Y-47643356D01*
X33474326Y-47454998D01*
X33514100Y-47255039D01*
X33514100Y-47192901D01*
X40033428Y-40673574D01*
X40033428Y-40718950D01*
%TA.AperFunction,NonConductor*%
D15*
G36*
X40033428Y-40718950D02*
G01*
X40050372Y-40890985D01*
X40100553Y-41056409D01*
X40182042Y-41208864D01*
X40291708Y-41342492D01*
X40425336Y-41452158D01*
X40577791Y-41533647D01*
X40743215Y-41583828D01*
X40915250Y-41600772D01*
X41076025Y-41600772D01*
X33036398Y-49640401D01*
X33007400Y-49664199D01*
X32983602Y-49693197D01*
X32983601Y-49693198D01*
X32912426Y-49779924D01*
X32841854Y-49911954D01*
X32813619Y-50005036D01*
X32798398Y-50055214D01*
X32791388Y-50126392D01*
X32784200Y-50124211D01*
X32784200Y-49037533D01*
X32787877Y-49000200D01*
X32785883Y-48979957D01*
X32824879Y-48932440D01*
X32897474Y-48796625D01*
X32942177Y-48649257D01*
X32957272Y-48496000D01*
X32957272Y-48151000D01*
X32950109Y-48078277D01*
X32969356Y-48070305D01*
X33138874Y-47957037D01*
X33283037Y-47812874D01*
X33396305Y-47643356D01*
X33474326Y-47454998D01*
X33514100Y-47255039D01*
X33514100Y-47192901D01*
X40033428Y-40673574D01*
X40033428Y-40718950D01*
G37*
%TD.AperFunction*%
D14*
X56959755Y-44610929D02*
X57113500Y-44626072D01*
X57564271Y-44626072D01*
X62787400Y-49849202D01*
X62787400Y-50125182D01*
X62758417Y-50116390D01*
X62752946Y-50098353D01*
X62682374Y-49966324D01*
X62614939Y-49884154D01*
X62587401Y-49850599D01*
X62558403Y-49826801D01*
X57661104Y-44929503D01*
X57637301Y-44900499D01*
X57521576Y-44805526D01*
X57389547Y-44734954D01*
X57246286Y-44691497D01*
X57134633Y-44680500D01*
X57134622Y-44680500D01*
X57097300Y-44676824D01*
X57059978Y-44680500D01*
X56860740Y-44680500D01*
X56827463Y-44570799D01*
X56959755Y-44610929D01*
%TA.AperFunction,NonConductor*%
D15*
G36*
X56959755Y-44610929D02*
G01*
X57113500Y-44626072D01*
X57564271Y-44626072D01*
X62787400Y-49849202D01*
X62787400Y-50125182D01*
X62758417Y-50116390D01*
X62752946Y-50098353D01*
X62682374Y-49966324D01*
X62614939Y-49884154D01*
X62587401Y-49850599D01*
X62558403Y-49826801D01*
X57661104Y-44929503D01*
X57637301Y-44900499D01*
X57521576Y-44805526D01*
X57389547Y-44734954D01*
X57246286Y-44691497D01*
X57134633Y-44680500D01*
X57134622Y-44680500D01*
X57097300Y-44676824D01*
X57059978Y-44680500D01*
X56860740Y-44680500D01*
X56827463Y-44570799D01*
X56959755Y-44610929D01*
G37*
%TD.AperFunction*%
D14*
X44961702Y-48164426D02*
X45161661Y-48204200D01*
X45365539Y-48204200D01*
X45400302Y-48197285D01*
X45459963Y-48286574D01*
X45604126Y-48430737D01*
X45773644Y-48544005D01*
X45962002Y-48622026D01*
X46161961Y-48661800D01*
X46179200Y-48661800D01*
X46179200Y-48770339D01*
X46218974Y-48970298D01*
X46258905Y-49066700D01*
X46204261Y-49066700D01*
X46004302Y-49106474D01*
X45815944Y-49184495D01*
X45646426Y-49297763D01*
X45502263Y-49441926D01*
X45388995Y-49611444D01*
X45373357Y-49649198D01*
X45255153Y-49685054D01*
X45123124Y-49755626D01*
X45007399Y-49850599D01*
X44912426Y-49966324D01*
X44841854Y-50098353D01*
X44836391Y-50116364D01*
X44807400Y-50125158D01*
X44807400Y-48100512D01*
X44961702Y-48164426D01*
%TA.AperFunction,NonConductor*%
D15*
G36*
X44961702Y-48164426D02*
G01*
X45161661Y-48204200D01*
X45365539Y-48204200D01*
X45400302Y-48197285D01*
X45459963Y-48286574D01*
X45604126Y-48430737D01*
X45773644Y-48544005D01*
X45962002Y-48622026D01*
X46161961Y-48661800D01*
X46179200Y-48661800D01*
X46179200Y-48770339D01*
X46218974Y-48970298D01*
X46258905Y-49066700D01*
X46204261Y-49066700D01*
X46004302Y-49106474D01*
X45815944Y-49184495D01*
X45646426Y-49297763D01*
X45502263Y-49441926D01*
X45388995Y-49611444D01*
X45373357Y-49649198D01*
X45255153Y-49685054D01*
X45123124Y-49755626D01*
X45007399Y-49850599D01*
X44912426Y-49966324D01*
X44841854Y-50098353D01*
X44836391Y-50116364D01*
X44807400Y-50125158D01*
X44807400Y-48100512D01*
X44961702Y-48164426D01*
G37*
%TD.AperFunction*%
D14*
X41787401Y-49078100D02*
X41709361Y-49078100D01*
X41509402Y-49117874D01*
X41321044Y-49195895D01*
X41151526Y-49309163D01*
X41007363Y-49453326D01*
X40894095Y-49622844D01*
X40884590Y-49645790D01*
X40755153Y-49685054D01*
X40623124Y-49755626D01*
X40507399Y-49850599D01*
X40412426Y-49966324D01*
X40341854Y-50098353D01*
X40336391Y-50116364D01*
X40307400Y-50125158D01*
X40307400Y-49910801D01*
X41787400Y-48430801D01*
X41787401Y-49078100D01*
%TA.AperFunction,NonConductor*%
D15*
G36*
X41787401Y-49078100D02*
G01*
X41709361Y-49078100D01*
X41509402Y-49117874D01*
X41321044Y-49195895D01*
X41151526Y-49309163D01*
X41007363Y-49453326D01*
X40894095Y-49622844D01*
X40884590Y-49645790D01*
X40755153Y-49685054D01*
X40623124Y-49755626D01*
X40507399Y-49850599D01*
X40412426Y-49966324D01*
X40341854Y-50098353D01*
X40336391Y-50116364D01*
X40307400Y-50125158D01*
X40307400Y-49910801D01*
X41787400Y-48430801D01*
X41787401Y-49078100D01*
G37*
%TD.AperFunction*%
D14*
X31264201Y-50118145D02*
X31258417Y-50116390D01*
X31252946Y-50098353D01*
X31182374Y-49966324D01*
X31087401Y-49850599D01*
X31058402Y-49826800D01*
X30991802Y-49760200D01*
X31264201Y-49760200D01*
X31264201Y-50118145D01*
%TA.AperFunction,NonConductor*%
D15*
G36*
X31264201Y-50118145D02*
G01*
X31258417Y-50116390D01*
X31252946Y-50098353D01*
X31182374Y-49966324D01*
X31087401Y-49850599D01*
X31058402Y-49826800D01*
X30991802Y-49760200D01*
X31264201Y-49760200D01*
X31264201Y-50118145D01*
G37*
%TD.AperFunction*%
D14*
X48647595Y-48554644D02*
X48569574Y-48743002D01*
X48529800Y-48942961D01*
X48529800Y-49146839D01*
X48569574Y-49346798D01*
X48647595Y-49535156D01*
X48661058Y-49555305D01*
X48615195Y-49623944D01*
X48612438Y-49630600D01*
X48584733Y-49630600D01*
X48547400Y-49626923D01*
X48510067Y-49630600D01*
X48398414Y-49641597D01*
X48255153Y-49685054D01*
X48123124Y-49755626D01*
X48007399Y-49850599D01*
X47974200Y-49891052D01*
X47974200Y-49372111D01*
X48018137Y-49328174D01*
X48131405Y-49158656D01*
X48209426Y-48970298D01*
X48249200Y-48770339D01*
X48249200Y-48566461D01*
X48213463Y-48386800D01*
X48759744Y-48386800D01*
X48647595Y-48554644D01*
%TA.AperFunction,NonConductor*%
D15*
G36*
X48647595Y-48554644D02*
G01*
X48569574Y-48743002D01*
X48529800Y-48942961D01*
X48529800Y-49146839D01*
X48569574Y-49346798D01*
X48647595Y-49535156D01*
X48661058Y-49555305D01*
X48615195Y-49623944D01*
X48612438Y-49630600D01*
X48584733Y-49630600D01*
X48547400Y-49626923D01*
X48510067Y-49630600D01*
X48398414Y-49641597D01*
X48255153Y-49685054D01*
X48123124Y-49755626D01*
X48007399Y-49850599D01*
X47974200Y-49891052D01*
X47974200Y-49372111D01*
X48018137Y-49328174D01*
X48131405Y-49158656D01*
X48209426Y-48970298D01*
X48249200Y-48770339D01*
X48249200Y-48566461D01*
X48213463Y-48386800D01*
X48759744Y-48386800D01*
X48647595Y-48554644D01*
G37*
%TD.AperFunction*%
D14*
X75956441Y-36480385D02*
X75947218Y-36574446D01*
X75929634Y-36632687D01*
X75901075Y-36686400D01*
X75862623Y-36733546D01*
X75815750Y-36772323D01*
X75762236Y-36801258D01*
X75704117Y-36819249D01*
X75612295Y-36828900D01*
X74507793Y-36828900D01*
X74473659Y-36832262D01*
X74461332Y-36832262D01*
X74451820Y-36833262D01*
X74267568Y-36853929D01*
X74206836Y-36866838D01*
X74145940Y-36878896D01*
X74136804Y-36881723D01*
X73960074Y-36937785D01*
X73903032Y-36962233D01*
X73845607Y-36985902D01*
X73837193Y-36990451D01*
X73674719Y-37079772D01*
X73623471Y-37114863D01*
X73571779Y-37149207D01*
X73564410Y-37155303D01*
X73422380Y-37274481D01*
X73378942Y-37318838D01*
X73334889Y-37362585D01*
X73328844Y-37369997D01*
X73212668Y-37514491D01*
X73178699Y-37566401D01*
X73143955Y-37617912D01*
X73139465Y-37626356D01*
X73053566Y-37790665D01*
X73030312Y-37848220D01*
X73006249Y-37905465D01*
X73003485Y-37914621D01*
X72951137Y-38092485D01*
X72939499Y-38153492D01*
X72927020Y-38214286D01*
X72926086Y-38223804D01*
X72909282Y-38408448D01*
X72909716Y-38470538D01*
X72909283Y-38532618D01*
X72910216Y-38542136D01*
X72929597Y-38726529D01*
X72942086Y-38787369D01*
X72953714Y-38848326D01*
X72956478Y-38857482D01*
X72956479Y-38857487D01*
X72956481Y-38857492D01*
X73011304Y-39034599D01*
X73035378Y-39091868D01*
X73058621Y-39149398D01*
X73063106Y-39157833D01*
X73063110Y-39157842D01*
X73063115Y-39157849D01*
X73151295Y-39320935D01*
X73186003Y-39372392D01*
X73220009Y-39424358D01*
X73226054Y-39431770D01*
X73344238Y-39574629D01*
X73388293Y-39618377D01*
X73431728Y-39662731D01*
X73439097Y-39668828D01*
X73582777Y-39786011D01*
X73634500Y-39820376D01*
X73685715Y-39855444D01*
X73694121Y-39859989D01*
X73694129Y-39859994D01*
X73694137Y-39859997D01*
X73857834Y-39947038D01*
X73915261Y-39970708D01*
X73972302Y-39995155D01*
X73981430Y-39997981D01*
X73981436Y-39997983D01*
X73981442Y-39997984D01*
X74158932Y-40051571D01*
X74219821Y-40063627D01*
X74280560Y-40076538D01*
X74290071Y-40077538D01*
X74474594Y-40095631D01*
X74474603Y-40095631D01*
X74507793Y-40098900D01*
X75607935Y-40098900D01*
X75701987Y-40108122D01*
X75760226Y-40125705D01*
X75813941Y-40154266D01*
X75861086Y-40192716D01*
X75899864Y-40239591D01*
X75928798Y-40293104D01*
X75946789Y-40351223D01*
X75956440Y-40443045D01*
X75956441Y-48569313D01*
X75936536Y-48573110D01*
X75927380Y-48575874D01*
X75778231Y-48622043D01*
X75721003Y-48646099D01*
X75663429Y-48669361D01*
X75654991Y-48673847D01*
X75654987Y-48673849D01*
X75654984Y-48673851D01*
X75517642Y-48748112D01*
X75466196Y-48782813D01*
X75414223Y-48816823D01*
X75406811Y-48822868D01*
X75286508Y-48922391D01*
X75242741Y-48966465D01*
X75198402Y-49009885D01*
X75192305Y-49017254D01*
X75093625Y-49138248D01*
X75059266Y-49189963D01*
X75024193Y-49241185D01*
X75019644Y-49249598D01*
X74946344Y-49387456D01*
X74922679Y-49444871D01*
X74898227Y-49501922D01*
X74895400Y-49511054D01*
X74895400Y-49511056D01*
X74895399Y-49511058D01*
X74850272Y-49660528D01*
X74838214Y-49721424D01*
X74825305Y-49782156D01*
X74824305Y-49791668D01*
X74819932Y-49836263D01*
X74808403Y-49826801D01*
X57700904Y-32719303D01*
X57677101Y-32690299D01*
X57561376Y-32595326D01*
X57429347Y-32524754D01*
X57286086Y-32481297D01*
X57174433Y-32470300D01*
X57174422Y-32470300D01*
X57137100Y-32466624D01*
X57099778Y-32470300D01*
X55612822Y-32470300D01*
X55575499Y-32466624D01*
X55538177Y-32470300D01*
X55538167Y-32470300D01*
X55426514Y-32481297D01*
X55283253Y-32524754D01*
X55151224Y-32595326D01*
X55035499Y-32690299D01*
X55011696Y-32719303D01*
X54797503Y-32933496D01*
X54789666Y-32939928D01*
X54565133Y-32939928D01*
X54549502Y-32927101D01*
X53882303Y-32259902D01*
X53858501Y-32230899D01*
X53742776Y-32135926D01*
X53610747Y-32065354D01*
X53467486Y-32021897D01*
X53355833Y-32010900D01*
X53355822Y-32010900D01*
X53318500Y-32007224D01*
X53281178Y-32010900D01*
X44305525Y-32010900D01*
X44268200Y-32007224D01*
X44230875Y-32010900D01*
X44230867Y-32010900D01*
X44119214Y-32021897D01*
X43975953Y-32065354D01*
X43843924Y-32135926D01*
X43728199Y-32230899D01*
X43704401Y-32259897D01*
X28536403Y-47427896D01*
X28507399Y-47451699D01*
X28469915Y-47497374D01*
X28412426Y-47567424D01*
X28368473Y-47649654D01*
X28341854Y-47699454D01*
X28298397Y-47842715D01*
X28287400Y-47954368D01*
X28287400Y-47954378D01*
X28283724Y-47991700D01*
X28287400Y-48029023D01*
X28287400Y-49408589D01*
X28171374Y-49292563D01*
X28001856Y-49179295D01*
X27813498Y-49101274D01*
X27613539Y-49061500D01*
X27409661Y-49061500D01*
X27209702Y-49101274D01*
X27021344Y-49179295D01*
X26851826Y-49292563D01*
X26707663Y-49436726D01*
X26675644Y-49484647D01*
X26658601Y-49444103D01*
X26635339Y-49386529D01*
X26630849Y-49378084D01*
X26556588Y-49240742D01*
X26521887Y-49189296D01*
X26487877Y-49137323D01*
X26481832Y-49129911D01*
X26382309Y-49009608D01*
X26338235Y-48965841D01*
X26294815Y-48921502D01*
X26287446Y-48915405D01*
X26166452Y-48816725D01*
X26114737Y-48782366D01*
X26063515Y-48747293D01*
X26055102Y-48742744D01*
X25975800Y-48700579D01*
X25975800Y-42247405D01*
X25985022Y-42153353D01*
X26002605Y-42095114D01*
X26031166Y-42041399D01*
X26069616Y-41994254D01*
X26116491Y-41955476D01*
X26170004Y-41926542D01*
X26228123Y-41908551D01*
X26319945Y-41898900D01*
X27424447Y-41898900D01*
X27458581Y-41895538D01*
X27470908Y-41895538D01*
X27480420Y-41894538D01*
X27664671Y-41873871D01*
X27725428Y-41860957D01*
X27786300Y-41848904D01*
X27795433Y-41846077D01*
X27795439Y-41846076D01*
X27795445Y-41846074D01*
X27972166Y-41790015D01*
X28029220Y-41765562D01*
X28086633Y-41741898D01*
X28095047Y-41737349D01*
X28257521Y-41648028D01*
X28308776Y-41612933D01*
X28360460Y-41578594D01*
X28367830Y-41572497D01*
X28509860Y-41453319D01*
X28553317Y-41408942D01*
X28597350Y-41365215D01*
X28603395Y-41357804D01*
X28719572Y-41213309D01*
X28753551Y-41161384D01*
X28788285Y-41109888D01*
X28792775Y-41101444D01*
X28878674Y-40937135D01*
X28901939Y-40879551D01*
X28925991Y-40822335D01*
X28928755Y-40813179D01*
X28981103Y-40635316D01*
X28992742Y-40574301D01*
X29005220Y-40513514D01*
X29006154Y-40503996D01*
X29022958Y-40319352D01*
X29022524Y-40257262D01*
X29022957Y-40195183D01*
X29022024Y-40185664D01*
X29002643Y-40001272D01*
X28990162Y-39940469D01*
X28978527Y-39879474D01*
X28975762Y-39870318D01*
X28975761Y-39870313D01*
X28975759Y-39870308D01*
X28920936Y-39693202D01*
X28896873Y-39635957D01*
X28873619Y-39578402D01*
X28869129Y-39569958D01*
X28780945Y-39406865D01*
X28746237Y-39355408D01*
X28712231Y-39303442D01*
X28706186Y-39296030D01*
X28588002Y-39153171D01*
X28543950Y-39109426D01*
X28500512Y-39065068D01*
X28493143Y-39058972D01*
X28493140Y-39058969D01*
X28493136Y-39058967D01*
X28349463Y-38941789D01*
X28297756Y-38907435D01*
X28246525Y-38872356D01*
X28238115Y-38867808D01*
X28238107Y-38867804D01*
X28074406Y-38780763D01*
X28017028Y-38757113D01*
X27959938Y-38732645D01*
X27950802Y-38729817D01*
X27773308Y-38676229D01*
X27712427Y-38664174D01*
X27651681Y-38651262D01*
X27642169Y-38650262D01*
X27457646Y-38632169D01*
X27457637Y-38632169D01*
X27424447Y-38628900D01*
X26324305Y-38628900D01*
X26230254Y-38619678D01*
X26172013Y-38602094D01*
X26118300Y-38573535D01*
X26071154Y-38535083D01*
X26032377Y-38488210D01*
X26003442Y-38434696D01*
X25985451Y-38376577D01*
X25975800Y-38284755D01*
X25975800Y-27398900D01*
X46605800Y-27398900D01*
X46605800Y-27547546D01*
X46608856Y-27578578D01*
X46608704Y-27600418D01*
X46609638Y-27609937D01*
X46681040Y-28289276D01*
X46693519Y-28350070D01*
X46705157Y-28411077D01*
X46707921Y-28420233D01*
X46909913Y-29072764D01*
X46933975Y-29130005D01*
X46957230Y-29187563D01*
X46961720Y-29196007D01*
X47286609Y-29796878D01*
X47321339Y-29848367D01*
X47355322Y-29900298D01*
X47361366Y-29907710D01*
X47796778Y-30434033D01*
X47840833Y-30477781D01*
X47884271Y-30522139D01*
X47891641Y-30528236D01*
X48420990Y-30959961D01*
X48472693Y-30994312D01*
X48523929Y-31029394D01*
X48532342Y-31033943D01*
X49135465Y-31354630D01*
X49192901Y-31378303D01*
X49249931Y-31402746D01*
X49259067Y-31405575D01*
X49912993Y-31603007D01*
X49973926Y-31615072D01*
X50034624Y-31627974D01*
X50044136Y-31628974D01*
X50723956Y-31695631D01*
X50753881Y-31695631D01*
X50783619Y-31698862D01*
X50793183Y-31698896D01*
X50817617Y-31698811D01*
X50847389Y-31695787D01*
X50877318Y-31695996D01*
X50886837Y-31695062D01*
X51566176Y-31623660D01*
X51626970Y-31611181D01*
X51687977Y-31599543D01*
X51697133Y-31596779D01*
X52349664Y-31394787D01*
X52406905Y-31370725D01*
X52464463Y-31347470D01*
X52472907Y-31342980D01*
X53073778Y-31018091D01*
X53125267Y-30983361D01*
X53177198Y-30949378D01*
X53184610Y-30943334D01*
X53710933Y-30507922D01*
X53754681Y-30463867D01*
X53799039Y-30420429D01*
X53805136Y-30413059D01*
X54236861Y-29883710D01*
X54271212Y-29832007D01*
X54306294Y-29780771D01*
X54310843Y-29772358D01*
X54631530Y-29169235D01*
X54655203Y-29111799D01*
X54679646Y-29054769D01*
X54682475Y-29045633D01*
X54879907Y-28391707D01*
X54891972Y-28330774D01*
X54904874Y-28270076D01*
X54905874Y-28260564D01*
X54972531Y-27580744D01*
X54972531Y-27580737D01*
X54975800Y-27547547D01*
X54975800Y-27398897D01*
X75956440Y-27398562D01*
X75956441Y-36480385D01*
%TA.AperFunction,NonConductor*%
D15*
G36*
X75956441Y-36480385D02*
G01*
X75947218Y-36574446D01*
X75929634Y-36632687D01*
X75901075Y-36686400D01*
X75862623Y-36733546D01*
X75815750Y-36772323D01*
X75762236Y-36801258D01*
X75704117Y-36819249D01*
X75612295Y-36828900D01*
X74507793Y-36828900D01*
X74473659Y-36832262D01*
X74461332Y-36832262D01*
X74451820Y-36833262D01*
X74267568Y-36853929D01*
X74206836Y-36866838D01*
X74145940Y-36878896D01*
X74136804Y-36881723D01*
X73960074Y-36937785D01*
X73903032Y-36962233D01*
X73845607Y-36985902D01*
X73837193Y-36990451D01*
X73674719Y-37079772D01*
X73623471Y-37114863D01*
X73571779Y-37149207D01*
X73564410Y-37155303D01*
X73422380Y-37274481D01*
X73378942Y-37318838D01*
X73334889Y-37362585D01*
X73328844Y-37369997D01*
X73212668Y-37514491D01*
X73178699Y-37566401D01*
X73143955Y-37617912D01*
X73139465Y-37626356D01*
X73053566Y-37790665D01*
X73030312Y-37848220D01*
X73006249Y-37905465D01*
X73003485Y-37914621D01*
X72951137Y-38092485D01*
X72939499Y-38153492D01*
X72927020Y-38214286D01*
X72926086Y-38223804D01*
X72909282Y-38408448D01*
X72909716Y-38470538D01*
X72909283Y-38532618D01*
X72910216Y-38542136D01*
X72929597Y-38726529D01*
X72942086Y-38787369D01*
X72953714Y-38848326D01*
X72956478Y-38857482D01*
X72956479Y-38857487D01*
X72956481Y-38857492D01*
X73011304Y-39034599D01*
X73035378Y-39091868D01*
X73058621Y-39149398D01*
X73063106Y-39157833D01*
X73063110Y-39157842D01*
X73063115Y-39157849D01*
X73151295Y-39320935D01*
X73186003Y-39372392D01*
X73220009Y-39424358D01*
X73226054Y-39431770D01*
X73344238Y-39574629D01*
X73388293Y-39618377D01*
X73431728Y-39662731D01*
X73439097Y-39668828D01*
X73582777Y-39786011D01*
X73634500Y-39820376D01*
X73685715Y-39855444D01*
X73694121Y-39859989D01*
X73694129Y-39859994D01*
X73694137Y-39859997D01*
X73857834Y-39947038D01*
X73915261Y-39970708D01*
X73972302Y-39995155D01*
X73981430Y-39997981D01*
X73981436Y-39997983D01*
X73981442Y-39997984D01*
X74158932Y-40051571D01*
X74219821Y-40063627D01*
X74280560Y-40076538D01*
X74290071Y-40077538D01*
X74474594Y-40095631D01*
X74474603Y-40095631D01*
X74507793Y-40098900D01*
X75607935Y-40098900D01*
X75701987Y-40108122D01*
X75760226Y-40125705D01*
X75813941Y-40154266D01*
X75861086Y-40192716D01*
X75899864Y-40239591D01*
X75928798Y-40293104D01*
X75946789Y-40351223D01*
X75956440Y-40443045D01*
X75956441Y-48569313D01*
X75936536Y-48573110D01*
X75927380Y-48575874D01*
X75778231Y-48622043D01*
X75721003Y-48646099D01*
X75663429Y-48669361D01*
X75654991Y-48673847D01*
X75654987Y-48673849D01*
X75654984Y-48673851D01*
X75517642Y-48748112D01*
X75466196Y-48782813D01*
X75414223Y-48816823D01*
X75406811Y-48822868D01*
X75286508Y-48922391D01*
X75242741Y-48966465D01*
X75198402Y-49009885D01*
X75192305Y-49017254D01*
X75093625Y-49138248D01*
X75059266Y-49189963D01*
X75024193Y-49241185D01*
X75019644Y-49249598D01*
X74946344Y-49387456D01*
X74922679Y-49444871D01*
X74898227Y-49501922D01*
X74895400Y-49511054D01*
X74895400Y-49511056D01*
X74895399Y-49511058D01*
X74850272Y-49660528D01*
X74838214Y-49721424D01*
X74825305Y-49782156D01*
X74824305Y-49791668D01*
X74819932Y-49836263D01*
X74808403Y-49826801D01*
X57700904Y-32719303D01*
X57677101Y-32690299D01*
X57561376Y-32595326D01*
X57429347Y-32524754D01*
X57286086Y-32481297D01*
X57174433Y-32470300D01*
X57174422Y-32470300D01*
X57137100Y-32466624D01*
X57099778Y-32470300D01*
X55612822Y-32470300D01*
X55575499Y-32466624D01*
X55538177Y-32470300D01*
X55538167Y-32470300D01*
X55426514Y-32481297D01*
X55283253Y-32524754D01*
X55151224Y-32595326D01*
X55035499Y-32690299D01*
X55011696Y-32719303D01*
X54797503Y-32933496D01*
X54789666Y-32939928D01*
X54565133Y-32939928D01*
X54549502Y-32927101D01*
X53882303Y-32259902D01*
X53858501Y-32230899D01*
X53742776Y-32135926D01*
X53610747Y-32065354D01*
X53467486Y-32021897D01*
X53355833Y-32010900D01*
X53355822Y-32010900D01*
X53318500Y-32007224D01*
X53281178Y-32010900D01*
X44305525Y-32010900D01*
X44268200Y-32007224D01*
X44230875Y-32010900D01*
X44230867Y-32010900D01*
X44119214Y-32021897D01*
X43975953Y-32065354D01*
X43843924Y-32135926D01*
X43728199Y-32230899D01*
X43704401Y-32259897D01*
X28536403Y-47427896D01*
X28507399Y-47451699D01*
X28469915Y-47497374D01*
X28412426Y-47567424D01*
X28368473Y-47649654D01*
X28341854Y-47699454D01*
X28298397Y-47842715D01*
X28287400Y-47954368D01*
X28287400Y-47954378D01*
X28283724Y-47991700D01*
X28287400Y-48029023D01*
X28287400Y-49408589D01*
X28171374Y-49292563D01*
X28001856Y-49179295D01*
X27813498Y-49101274D01*
X27613539Y-49061500D01*
X27409661Y-49061500D01*
X27209702Y-49101274D01*
X27021344Y-49179295D01*
X26851826Y-49292563D01*
X26707663Y-49436726D01*
X26675644Y-49484647D01*
X26658601Y-49444103D01*
X26635339Y-49386529D01*
X26630849Y-49378084D01*
X26556588Y-49240742D01*
X26521887Y-49189296D01*
X26487877Y-49137323D01*
X26481832Y-49129911D01*
X26382309Y-49009608D01*
X26338235Y-48965841D01*
X26294815Y-48921502D01*
X26287446Y-48915405D01*
X26166452Y-48816725D01*
X26114737Y-48782366D01*
X26063515Y-48747293D01*
X26055102Y-48742744D01*
X25975800Y-48700579D01*
X25975800Y-42247405D01*
X25985022Y-42153353D01*
X26002605Y-42095114D01*
X26031166Y-42041399D01*
X26069616Y-41994254D01*
X26116491Y-41955476D01*
X26170004Y-41926542D01*
X26228123Y-41908551D01*
X26319945Y-41898900D01*
X27424447Y-41898900D01*
X27458581Y-41895538D01*
X27470908Y-41895538D01*
X27480420Y-41894538D01*
X27664671Y-41873871D01*
X27725428Y-41860957D01*
X27786300Y-41848904D01*
X27795433Y-41846077D01*
X27795439Y-41846076D01*
X27795445Y-41846074D01*
X27972166Y-41790015D01*
X28029220Y-41765562D01*
X28086633Y-41741898D01*
X28095047Y-41737349D01*
X28257521Y-41648028D01*
X28308776Y-41612933D01*
X28360460Y-41578594D01*
X28367830Y-41572497D01*
X28509860Y-41453319D01*
X28553317Y-41408942D01*
X28597350Y-41365215D01*
X28603395Y-41357804D01*
X28719572Y-41213309D01*
X28753551Y-41161384D01*
X28788285Y-41109888D01*
X28792775Y-41101444D01*
X28878674Y-40937135D01*
X28901939Y-40879551D01*
X28925991Y-40822335D01*
X28928755Y-40813179D01*
X28981103Y-40635316D01*
X28992742Y-40574301D01*
X29005220Y-40513514D01*
X29006154Y-40503996D01*
X29022958Y-40319352D01*
X29022524Y-40257262D01*
X29022957Y-40195183D01*
X29022024Y-40185664D01*
X29002643Y-40001272D01*
X28990162Y-39940469D01*
X28978527Y-39879474D01*
X28975762Y-39870318D01*
X28975761Y-39870313D01*
X28975759Y-39870308D01*
X28920936Y-39693202D01*
X28896873Y-39635957D01*
X28873619Y-39578402D01*
X28869129Y-39569958D01*
X28780945Y-39406865D01*
X28746237Y-39355408D01*
X28712231Y-39303442D01*
X28706186Y-39296030D01*
X28588002Y-39153171D01*
X28543950Y-39109426D01*
X28500512Y-39065068D01*
X28493143Y-39058972D01*
X28493140Y-39058969D01*
X28493136Y-39058967D01*
X28349463Y-38941789D01*
X28297756Y-38907435D01*
X28246525Y-38872356D01*
X28238115Y-38867808D01*
X28238107Y-38867804D01*
X28074406Y-38780763D01*
X28017028Y-38757113D01*
X27959938Y-38732645D01*
X27950802Y-38729817D01*
X27773308Y-38676229D01*
X27712427Y-38664174D01*
X27651681Y-38651262D01*
X27642169Y-38650262D01*
X27457646Y-38632169D01*
X27457637Y-38632169D01*
X27424447Y-38628900D01*
X26324305Y-38628900D01*
X26230254Y-38619678D01*
X26172013Y-38602094D01*
X26118300Y-38573535D01*
X26071154Y-38535083D01*
X26032377Y-38488210D01*
X26003442Y-38434696D01*
X25985451Y-38376577D01*
X25975800Y-38284755D01*
X25975800Y-27398900D01*
X46605800Y-27398900D01*
X46605800Y-27547546D01*
X46608856Y-27578578D01*
X46608704Y-27600418D01*
X46609638Y-27609937D01*
X46681040Y-28289276D01*
X46693519Y-28350070D01*
X46705157Y-28411077D01*
X46707921Y-28420233D01*
X46909913Y-29072764D01*
X46933975Y-29130005D01*
X46957230Y-29187563D01*
X46961720Y-29196007D01*
X47286609Y-29796878D01*
X47321339Y-29848367D01*
X47355322Y-29900298D01*
X47361366Y-29907710D01*
X47796778Y-30434033D01*
X47840833Y-30477781D01*
X47884271Y-30522139D01*
X47891641Y-30528236D01*
X48420990Y-30959961D01*
X48472693Y-30994312D01*
X48523929Y-31029394D01*
X48532342Y-31033943D01*
X49135465Y-31354630D01*
X49192901Y-31378303D01*
X49249931Y-31402746D01*
X49259067Y-31405575D01*
X49912993Y-31603007D01*
X49973926Y-31615072D01*
X50034624Y-31627974D01*
X50044136Y-31628974D01*
X50723956Y-31695631D01*
X50753881Y-31695631D01*
X50783619Y-31698862D01*
X50793183Y-31698896D01*
X50817617Y-31698811D01*
X50847389Y-31695787D01*
X50877318Y-31695996D01*
X50886837Y-31695062D01*
X51566176Y-31623660D01*
X51626970Y-31611181D01*
X51687977Y-31599543D01*
X51697133Y-31596779D01*
X52349664Y-31394787D01*
X52406905Y-31370725D01*
X52464463Y-31347470D01*
X52472907Y-31342980D01*
X53073778Y-31018091D01*
X53125267Y-30983361D01*
X53177198Y-30949378D01*
X53184610Y-30943334D01*
X53710933Y-30507922D01*
X53754681Y-30463867D01*
X53799039Y-30420429D01*
X53805136Y-30413059D01*
X54236861Y-29883710D01*
X54271212Y-29832007D01*
X54306294Y-29780771D01*
X54310843Y-29772358D01*
X54631530Y-29169235D01*
X54655203Y-29111799D01*
X54679646Y-29054769D01*
X54682475Y-29045633D01*
X54879907Y-28391707D01*
X54891972Y-28330774D01*
X54904874Y-28270076D01*
X54905874Y-28260564D01*
X54972531Y-27580744D01*
X54972531Y-27580737D01*
X54975800Y-27547547D01*
X54975800Y-27398897D01*
X75956440Y-27398562D01*
X75956441Y-36480385D01*
G37*
%TD.AperFunction*%
D14*
X56212189Y-49646391D02*
X56196386Y-49641597D01*
X56084733Y-49630600D01*
X56047400Y-49626923D01*
X56010067Y-49630600D01*
X55986402Y-49630600D01*
X53956356Y-47600555D01*
X53982574Y-47583037D01*
X54065705Y-47499906D01*
X56212189Y-49646391D01*
%TA.AperFunction,NonConductor*%
D15*
G36*
X56212189Y-49646391D02*
G01*
X56196386Y-49641597D01*
X56084733Y-49630600D01*
X56047400Y-49626923D01*
X56010067Y-49630600D01*
X55986402Y-49630600D01*
X53956356Y-47600555D01*
X53982574Y-47583037D01*
X54065705Y-47499906D01*
X56212189Y-49646391D01*
G37*
%TD.AperFunction*%
D14*
X65787400Y-48862402D02*
X65787400Y-49442335D01*
X65752946Y-49328753D01*
X65682374Y-49196724D01*
X65587401Y-49080999D01*
X65558404Y-49057202D01*
X59075911Y-42574710D01*
X59076572Y-42568000D01*
X59076572Y-42268000D01*
X59063852Y-42138853D01*
X65787400Y-48862402D01*
%TA.AperFunction,NonConductor*%
D15*
G36*
X65787400Y-48862402D02*
G01*
X65787400Y-49442335D01*
X65752946Y-49328753D01*
X65682374Y-49196724D01*
X65587401Y-49080999D01*
X65558404Y-49057202D01*
X59075911Y-42574710D01*
X59076572Y-42568000D01*
X59076572Y-42268000D01*
X59063852Y-42138853D01*
X65787400Y-48862402D01*
G37*
%TD.AperFunction*%
D14*
X42498274Y-44905798D02*
X42576295Y-45094156D01*
X42689563Y-45263674D01*
X42747244Y-45321355D01*
X39036403Y-49032196D01*
X39007399Y-49055999D01*
X38961934Y-49111399D01*
X38912426Y-49171724D01*
X38854145Y-49280760D01*
X38841854Y-49303754D01*
X38807400Y-49417336D01*
X38807400Y-48550401D01*
X42490597Y-44867204D01*
X42498274Y-44905798D01*
%TA.AperFunction,NonConductor*%
D15*
G36*
X42498274Y-44905798D02*
G01*
X42576295Y-45094156D01*
X42689563Y-45263674D01*
X42747244Y-45321355D01*
X39036403Y-49032196D01*
X39007399Y-49055999D01*
X38961934Y-49111399D01*
X38912426Y-49171724D01*
X38854145Y-49280760D01*
X38841854Y-49303754D01*
X38807400Y-49417336D01*
X38807400Y-48550401D01*
X42490597Y-44867204D01*
X42498274Y-44905798D01*
G37*
%TD.AperFunction*%
D14*
X50559755Y-46800929D02*
X50713500Y-46816072D01*
X51013500Y-46816072D01*
X51021485Y-46815286D01*
X53383731Y-49177533D01*
X53370544Y-49182995D01*
X53201026Y-49296263D01*
X53114445Y-49382844D01*
X50520676Y-46789075D01*
X50559755Y-46800929D01*
%TA.AperFunction,NonConductor*%
D15*
G36*
X50559755Y-46800929D02*
G01*
X50713500Y-46816072D01*
X51013500Y-46816072D01*
X51021485Y-46815286D01*
X53383731Y-49177533D01*
X53370544Y-49182995D01*
X53201026Y-49296263D01*
X53114445Y-49382844D01*
X50520676Y-46789075D01*
X50559755Y-46800929D01*
G37*
%TD.AperFunction*%
D14*
X37287401Y-49079200D02*
X37085861Y-49079200D01*
X37008641Y-49094560D01*
X37287401Y-48815800D01*
X37287401Y-49079200D01*
%TA.AperFunction,NonConductor*%
D15*
G36*
X37287401Y-49079200D02*
G01*
X37085861Y-49079200D01*
X37008641Y-49094560D01*
X37287401Y-48815800D01*
X37287401Y-49079200D01*
G37*
%TD.AperFunction*%
D14*
X59050898Y-48468900D02*
X58589102Y-48468900D01*
X56675408Y-46555207D01*
X56748758Y-46465829D01*
X56821584Y-46329582D01*
X56842530Y-46260531D01*
X59050898Y-48468900D01*
%TA.AperFunction,NonConductor*%
D15*
G36*
X59050898Y-48468900D02*
G01*
X58589102Y-48468900D01*
X56675408Y-46555207D01*
X56748758Y-46465829D01*
X56821584Y-46329582D01*
X56842530Y-46260531D01*
X59050898Y-48468900D01*
G37*
%TD.AperFunction*%
D14*
X56329441Y-41338743D02*
X56340571Y-41451745D01*
X56385416Y-41599582D01*
X56458242Y-41735829D01*
X56496954Y-41783000D01*
X56458242Y-41830171D01*
X56385416Y-41966418D01*
X56340571Y-42114255D01*
X56325428Y-42268000D01*
X56325428Y-42568000D01*
X56340571Y-42721745D01*
X56385416Y-42869582D01*
X56458242Y-43005829D01*
X56496954Y-43053000D01*
X56458242Y-43100171D01*
X56385416Y-43236418D01*
X56340571Y-43384255D01*
X56325428Y-43538000D01*
X56325428Y-43838000D01*
X56340571Y-43991745D01*
X56379537Y-44120201D01*
X56247245Y-44080071D01*
X56093500Y-44064928D01*
X55823091Y-44064928D01*
X55819403Y-44061901D01*
X51760501Y-40003000D01*
X54993699Y-40003000D01*
X56329441Y-41338743D01*
%TA.AperFunction,NonConductor*%
D15*
G36*
X56329441Y-41338743D02*
G01*
X56340571Y-41451745D01*
X56385416Y-41599582D01*
X56458242Y-41735829D01*
X56496954Y-41783000D01*
X56458242Y-41830171D01*
X56385416Y-41966418D01*
X56340571Y-42114255D01*
X56325428Y-42268000D01*
X56325428Y-42568000D01*
X56340571Y-42721745D01*
X56385416Y-42869582D01*
X56458242Y-43005829D01*
X56496954Y-43053000D01*
X56458242Y-43100171D01*
X56385416Y-43236418D01*
X56340571Y-43384255D01*
X56325428Y-43538000D01*
X56325428Y-43838000D01*
X56340571Y-43991745D01*
X56379537Y-44120201D01*
X56247245Y-44080071D01*
X56093500Y-44064928D01*
X55823091Y-44064928D01*
X55819403Y-44061901D01*
X51760501Y-40003000D01*
X54993699Y-40003000D01*
X56329441Y-41338743D01*
G37*
%TD.AperFunction*%
D14*
X56340571Y-35764255D02*
X56325428Y-35918000D01*
X56325428Y-36218000D01*
X56340571Y-36371745D01*
X56385416Y-36519582D01*
X56458242Y-36655829D01*
X56496954Y-36703000D01*
X56458242Y-36750171D01*
X56385416Y-36886418D01*
X56340571Y-37034255D01*
X56325428Y-37188000D01*
X56325428Y-37488000D01*
X56340571Y-37641745D01*
X56385416Y-37789582D01*
X56458242Y-37925829D01*
X56496954Y-37973000D01*
X56458242Y-38020171D01*
X56385416Y-38156418D01*
X56340571Y-38304255D01*
X56325428Y-38458000D01*
X56325428Y-38758000D01*
X56340571Y-38911745D01*
X56385416Y-39059582D01*
X56458242Y-39195829D01*
X56496954Y-39243000D01*
X56458242Y-39290171D01*
X56448569Y-39308268D01*
X56068500Y-38928199D01*
X56068500Y-35691072D01*
X56093500Y-35691072D01*
X56247245Y-35675929D01*
X56379537Y-35635799D01*
X56340571Y-35764255D01*
%TA.AperFunction,NonConductor*%
D15*
G36*
X56340571Y-35764255D02*
G01*
X56325428Y-35918000D01*
X56325428Y-36218000D01*
X56340571Y-36371745D01*
X56385416Y-36519582D01*
X56458242Y-36655829D01*
X56496954Y-36703000D01*
X56458242Y-36750171D01*
X56385416Y-36886418D01*
X56340571Y-37034255D01*
X56325428Y-37188000D01*
X56325428Y-37488000D01*
X56340571Y-37641745D01*
X56385416Y-37789582D01*
X56458242Y-37925829D01*
X56496954Y-37973000D01*
X56458242Y-38020171D01*
X56385416Y-38156418D01*
X56340571Y-38304255D01*
X56325428Y-38458000D01*
X56325428Y-38758000D01*
X56340571Y-38911745D01*
X56385416Y-39059582D01*
X56458242Y-39195829D01*
X56496954Y-39243000D01*
X56458242Y-39290171D01*
X56448569Y-39308268D01*
X56068500Y-38928199D01*
X56068500Y-35691072D01*
X56093500Y-35691072D01*
X56247245Y-35675929D01*
X56379537Y-35635799D01*
X56340571Y-35764255D01*
G37*
%TD.AperFunction*%
D14*
X54548501Y-38483000D02*
X52401501Y-38483000D01*
X54548500Y-36336001D01*
X54548501Y-38483000D01*
%TA.AperFunction,NonConductor*%
D15*
G36*
X54548501Y-38483000D02*
G01*
X52401501Y-38483000D01*
X54548500Y-36336001D01*
X54548501Y-38483000D01*
G37*
%TD.AperFunction*%
D14*
X49527563Y-36279274D02*
X49671726Y-36423437D01*
X49841244Y-36536705D01*
X49992579Y-36599390D01*
X49986195Y-36608944D01*
X49908174Y-36797302D01*
X49868400Y-36997261D01*
X49868400Y-37059399D01*
X49835299Y-37092500D01*
X49287000Y-37092500D01*
X49287000Y-37025061D01*
X49247226Y-36825102D01*
X49243736Y-36816675D01*
X49274037Y-36786374D01*
X49387305Y-36616856D01*
X49465326Y-36428498D01*
X49502476Y-36241729D01*
X49527563Y-36279274D01*
%TA.AperFunction,NonConductor*%
D15*
G36*
X49527563Y-36279274D02*
G01*
X49671726Y-36423437D01*
X49841244Y-36536705D01*
X49992579Y-36599390D01*
X49986195Y-36608944D01*
X49908174Y-36797302D01*
X49868400Y-36997261D01*
X49868400Y-37059399D01*
X49835299Y-37092500D01*
X49287000Y-37092500D01*
X49287000Y-37025061D01*
X49247226Y-36825102D01*
X49243736Y-36816675D01*
X49274037Y-36786374D01*
X49387305Y-36616856D01*
X49465326Y-36428498D01*
X49502476Y-36241729D01*
X49527563Y-36279274D01*
G37*
%TD.AperFunction*%
D14*
X42650428Y-36218000D02*
X42665571Y-36371745D01*
X42710416Y-36519582D01*
X42783242Y-36655829D01*
X42821954Y-36703000D01*
X42783242Y-36750171D01*
X42710416Y-36886418D01*
X42675591Y-37001222D01*
X42639833Y-36997700D01*
X42639822Y-36997700D01*
X42602500Y-36994024D01*
X42565178Y-36997700D01*
X41813403Y-36997700D01*
X42650428Y-36160675D01*
X42650428Y-36218000D01*
%TA.AperFunction,NonConductor*%
D15*
G36*
X42650428Y-36218000D02*
G01*
X42665571Y-36371745D01*
X42710416Y-36519582D01*
X42783242Y-36655829D01*
X42821954Y-36703000D01*
X42783242Y-36750171D01*
X42710416Y-36886418D01*
X42675591Y-37001222D01*
X42639833Y-36997700D01*
X42639822Y-36997700D01*
X42602500Y-36994024D01*
X42565178Y-36997700D01*
X41813403Y-36997700D01*
X42650428Y-36160675D01*
X42650428Y-36218000D01*
G37*
%TD.AperFunction*%
D14*
X45602099Y-36578000D02*
X45310359Y-36578000D01*
X45341584Y-36519582D01*
X45386429Y-36371745D01*
X45387273Y-36363174D01*
X45602099Y-36578000D01*
%TA.AperFunction,NonConductor*%
D15*
G36*
X45602099Y-36578000D02*
G01*
X45310359Y-36578000D01*
X45341584Y-36519582D01*
X45386429Y-36371745D01*
X45387273Y-36363174D01*
X45602099Y-36578000D01*
G37*
%TD.AperFunction*%
D14*
X57119827Y-35129928D02*
X57113500Y-35129928D01*
X56959755Y-35145071D01*
X56827463Y-35185201D01*
X56860740Y-35075500D01*
X57065399Y-35075500D01*
X57119827Y-35129928D01*
%TA.AperFunction,NonConductor*%
D15*
G36*
X57119827Y-35129928D02*
G01*
X57113500Y-35129928D01*
X56959755Y-35145071D01*
X56827463Y-35185201D01*
X56860740Y-35075500D01*
X57065399Y-35075500D01*
X57119827Y-35129928D01*
G37*
%TD.AperFunction*%
D14*
X43822800Y-35021861D02*
X43822800Y-35129928D01*
X43681175Y-35129928D01*
X43831133Y-34979970D01*
X43822800Y-35021861D01*
%TA.AperFunction,NonConductor*%
D15*
G36*
X43822800Y-35021861D02*
G01*
X43822800Y-35129928D01*
X43681175Y-35129928D01*
X43831133Y-34979970D01*
X43822800Y-35021861D01*
G37*
%TD.AperFunction*%
D14*
X44845428Y-34088800D02*
X44755861Y-34088800D01*
X44713970Y-34097132D01*
X44828003Y-33983100D01*
X44845428Y-33983100D01*
X44845428Y-34088800D01*
%TA.AperFunction,NonConductor*%
D15*
G36*
X44845428Y-34088800D02*
G01*
X44755861Y-34088800D01*
X44713970Y-34097132D01*
X44828003Y-33983100D01*
X44845428Y-33983100D01*
X44845428Y-34088800D01*
G37*
%TD.AperFunction*%
M02*
