M48
; DRILL file {KiCad (5.1.6)-1} date 11/21/20 20:25:49
; FORMAT={-:-/ absolute / inch / decimal}
; #@! TF.CreationDate,2020-11-21T20:25:49+01:00
; #@! TF.GenerationSoftware,Kicad,Pcbnew,(5.1.6)-1
; #@! TF.FileFunction,Plated,1,2,PTH
FMAT,2
INCH
T1C0.0157
T2C0.0390
T3C0.0394
T4C0.0400
T5C0.0512
%
G90
G05
T1
X1.8999Y-2.5029
X1.913Y-2.5423
X1.9171Y-3.0978
X1.9561Y-3.119
X1.9569Y-3.1966
X1.9811Y-3.0259
X2.0081Y-2.094
X2.0488Y-2.3185
X2.0895Y-2.8159
X2.0976Y-1.8953
X2.0999Y-3.2725
X2.1Y-3.2013
X2.1505Y-3.0794
X2.1664Y-3.5509
X2.209Y-3.5084
X2.213Y-3.2305
X2.2438Y-2.0721
X2.2593Y-2.9599
X2.2851Y-2.8053
X2.3157Y-2.9453
X2.3167Y-2.9997
X2.347Y-3.2676
X2.3637Y-2.7442
X2.3697Y-2.98
X2.371Y-3.6651
X2.411Y-3.1504
X2.43Y-3.0857
X2.4304Y-2.1065
X2.4379Y-2.1612
X2.4779Y-2.1088
X2.5477Y-2.0689
X2.5553Y-2.861
X2.5725Y-3.1422
X2.5864Y-2.0884
X2.5947Y-1.9022
X2.6467Y-2.8312
X2.6525Y-1.8795
X2.6588Y-2.1913
X2.6733Y-1.1038
X2.6801Y-2.0695
X2.699Y-2.9137
X2.7014Y-2.2379
X2.7046Y-1.7831
X2.7286Y-3.7305
X2.7405Y-2.2552
X2.7456Y-2.0888
X2.7577Y-1.8568
X2.7669Y-3.7583
X2.7849Y-2.8518
X2.7882Y-1.8301
X2.7905Y-2.8003
X2.7942Y-2.2775
X2.8062Y-2.0712
X2.8259Y-1.8121
X2.8287Y-3.4006
X2.8317Y-1.2452
X2.8364Y-2.3056
X2.8665Y-2.3325
X2.9066Y-2.3022
X2.9376Y-2.2302
X2.9753Y-1.7967
X2.984Y-3.2177
X2.9923Y-2.3918
X3.0023Y-1.7624
X3.0355Y-3.0492
X3.0451Y-2.9901
X3.0528Y-1.726
X3.1881Y-1.8961
X3.2761Y-1.902
X3.3377Y-1.9019
X3.3968Y-2.0693
X3.4625Y-2.2236
X3.4627Y-2.0771
X3.4628Y-2.6326
X3.5054Y-2.9037
X3.5149Y-1.9021
X3.5195Y-2.8563
X3.636Y-1.9907
X3.7191Y-2.181
X3.7783Y-2.1946
X3.8667Y-1.9499
X3.8989Y-1.9188
T2
X1.1906Y-2.3532
X1.1906Y-2.5304
X1.1912Y-1.8808
X1.1912Y-2.058
X1.1797Y-1.0085
X1.3569Y-1.0085
T3
X2.9539Y-2.9889
X2.9539Y-3.0889
X2.7704Y-2.9896
X2.7704Y-3.0896
X2.7704Y-3.1896
X2.7704Y-3.2896
X2.7704Y-3.3896
X2.7704Y-3.4896
T4
X1.4063Y-3.9283
X1.4063Y-4.1193
X1.5063Y-3.9283
X1.5063Y-4.1193
X1.6063Y-3.9283
X1.6063Y-4.1193
X1.7063Y-3.9283
X1.7063Y-4.1193
X1.8063Y-3.9283
X1.8063Y-4.1193
X1.9063Y-3.9283
X1.9063Y-4.1193
X2.0063Y-3.9283
X2.0063Y-4.1193
X2.1063Y-3.9283
X2.1063Y-4.1193
X2.2063Y-3.9283
X2.2063Y-4.1193
X2.3063Y-3.9283
X2.3063Y-4.1193
X2.4063Y-3.9283
X2.4063Y-4.1193
X2.5063Y-3.9283
X2.5063Y-4.1193
X2.6063Y-3.9283
X2.6063Y-4.1193
X2.7063Y-3.9283
X2.7063Y-4.1193
X2.8063Y-3.9283
X2.8063Y-4.1193
X2.9063Y-3.9283
X2.9063Y-4.1193
X3.0063Y-3.9283
X3.0063Y-4.1193
X3.1063Y-3.9283
X3.1063Y-4.1193
X3.2063Y-3.9283
X3.2063Y-4.1193
X3.3063Y-3.9283
X3.3063Y-4.1193
X3.4063Y-3.9283
X3.4063Y-4.1193
X3.5063Y-3.9283
X3.5063Y-4.1193
X3.6063Y-3.9283
X3.6063Y-4.1193
X3.7063Y-3.9283
X3.7063Y-4.1193
X3.8063Y-3.9283
X3.8063Y-4.1193
T5
X1.2886Y-2.3036
X1.2886Y-2.5796
X1.2892Y-1.8312
X1.2892Y-2.1072
X1.1305Y-1.1065
X1.4065Y-1.1065
T0
M30
