G04 #@! TF.GenerationSoftware,KiCad,Pcbnew,(5.1.6)-1*
G04 #@! TF.CreationDate,2020-11-21T20:25:47+01:00*
G04 #@! TF.ProjectId,Dandanator CPC,44616e64-616e-4617-946f-72204350432e,rev?*
G04 #@! TF.SameCoordinates,Original*
G04 #@! TF.FileFunction,Soldermask,Top*
G04 #@! TF.FilePolarity,Negative*
%FSLAX46Y46*%
G04 Gerber Fmt 4.6, Leading zero omitted, Abs format (unit mm)*
G04 Created by KiCad (PCBNEW (5.1.6)-1) date 2020-11-21 20:25:47*
%MOMM*%
%LPD*%
G01*
G04 APERTURE LIST*
%ADD10C,0.100000*%
G04 APERTURE END LIST*
D10*
G36*
X35957142Y-103848442D02*
G01*
X36105101Y-103909729D01*
X36238255Y-103998699D01*
X36351501Y-104111945D01*
X36440471Y-104245099D01*
X36501758Y-104393058D01*
X36533000Y-104550125D01*
X36533000Y-104710275D01*
X36501758Y-104867342D01*
X36440471Y-105015301D01*
X36351501Y-105148455D01*
X36238255Y-105261701D01*
X36105101Y-105350671D01*
X35957142Y-105411958D01*
X35800075Y-105443200D01*
X35639925Y-105443200D01*
X35482858Y-105411958D01*
X35334899Y-105350671D01*
X35201745Y-105261701D01*
X35088499Y-105148455D01*
X34999529Y-105015301D01*
X34938242Y-104867342D01*
X34907000Y-104710275D01*
X34907000Y-104550125D01*
X34938242Y-104393058D01*
X34999529Y-104245099D01*
X35088499Y-104111945D01*
X35201745Y-103998699D01*
X35334899Y-103909729D01*
X35482858Y-103848442D01*
X35639925Y-103817200D01*
X35800075Y-103817200D01*
X35957142Y-103848442D01*
G37*
G36*
X84217142Y-103848442D02*
G01*
X84365101Y-103909729D01*
X84498255Y-103998699D01*
X84611501Y-104111945D01*
X84700471Y-104245099D01*
X84761758Y-104393058D01*
X84793000Y-104550125D01*
X84793000Y-104710275D01*
X84761758Y-104867342D01*
X84700471Y-105015301D01*
X84611501Y-105148455D01*
X84498255Y-105261701D01*
X84365101Y-105350671D01*
X84217142Y-105411958D01*
X84060075Y-105443200D01*
X83899925Y-105443200D01*
X83742858Y-105411958D01*
X83594899Y-105350671D01*
X83461745Y-105261701D01*
X83348499Y-105148455D01*
X83259529Y-105015301D01*
X83198242Y-104867342D01*
X83167000Y-104710275D01*
X83167000Y-104550125D01*
X83198242Y-104393058D01*
X83259529Y-104245099D01*
X83348499Y-104111945D01*
X83461745Y-103998699D01*
X83594899Y-103909729D01*
X83742858Y-103848442D01*
X83899925Y-103817200D01*
X84060075Y-103817200D01*
X84217142Y-103848442D01*
G37*
G36*
X53737142Y-103848442D02*
G01*
X53885101Y-103909729D01*
X54018255Y-103998699D01*
X54131501Y-104111945D01*
X54220471Y-104245099D01*
X54281758Y-104393058D01*
X54313000Y-104550125D01*
X54313000Y-104710275D01*
X54281758Y-104867342D01*
X54220471Y-105015301D01*
X54131501Y-105148455D01*
X54018255Y-105261701D01*
X53885101Y-105350671D01*
X53737142Y-105411958D01*
X53580075Y-105443200D01*
X53419925Y-105443200D01*
X53262858Y-105411958D01*
X53114899Y-105350671D01*
X52981745Y-105261701D01*
X52868499Y-105148455D01*
X52779529Y-105015301D01*
X52718242Y-104867342D01*
X52687000Y-104710275D01*
X52687000Y-104550125D01*
X52718242Y-104393058D01*
X52779529Y-104245099D01*
X52868499Y-104111945D01*
X52981745Y-103998699D01*
X53114899Y-103909729D01*
X53262858Y-103848442D01*
X53419925Y-103817200D01*
X53580075Y-103817200D01*
X53737142Y-103848442D01*
G37*
G36*
X56277142Y-103848442D02*
G01*
X56425101Y-103909729D01*
X56558255Y-103998699D01*
X56671501Y-104111945D01*
X56760471Y-104245099D01*
X56821758Y-104393058D01*
X56853000Y-104550125D01*
X56853000Y-104710275D01*
X56821758Y-104867342D01*
X56760471Y-105015301D01*
X56671501Y-105148455D01*
X56558255Y-105261701D01*
X56425101Y-105350671D01*
X56277142Y-105411958D01*
X56120075Y-105443200D01*
X55959925Y-105443200D01*
X55802858Y-105411958D01*
X55654899Y-105350671D01*
X55521745Y-105261701D01*
X55408499Y-105148455D01*
X55319529Y-105015301D01*
X55258242Y-104867342D01*
X55227000Y-104710275D01*
X55227000Y-104550125D01*
X55258242Y-104393058D01*
X55319529Y-104245099D01*
X55408499Y-104111945D01*
X55521745Y-103998699D01*
X55654899Y-103909729D01*
X55802858Y-103848442D01*
X55959925Y-103817200D01*
X56120075Y-103817200D01*
X56277142Y-103848442D01*
G37*
G36*
X58817142Y-103848442D02*
G01*
X58965101Y-103909729D01*
X59098255Y-103998699D01*
X59211501Y-104111945D01*
X59300471Y-104245099D01*
X59361758Y-104393058D01*
X59393000Y-104550125D01*
X59393000Y-104710275D01*
X59361758Y-104867342D01*
X59300471Y-105015301D01*
X59211501Y-105148455D01*
X59098255Y-105261701D01*
X58965101Y-105350671D01*
X58817142Y-105411958D01*
X58660075Y-105443200D01*
X58499925Y-105443200D01*
X58342858Y-105411958D01*
X58194899Y-105350671D01*
X58061745Y-105261701D01*
X57948499Y-105148455D01*
X57859529Y-105015301D01*
X57798242Y-104867342D01*
X57767000Y-104710275D01*
X57767000Y-104550125D01*
X57798242Y-104393058D01*
X57859529Y-104245099D01*
X57948499Y-104111945D01*
X58061745Y-103998699D01*
X58194899Y-103909729D01*
X58342858Y-103848442D01*
X58499925Y-103817200D01*
X58660075Y-103817200D01*
X58817142Y-103848442D01*
G37*
G36*
X61357142Y-103848442D02*
G01*
X61505101Y-103909729D01*
X61638255Y-103998699D01*
X61751501Y-104111945D01*
X61840471Y-104245099D01*
X61901758Y-104393058D01*
X61933000Y-104550125D01*
X61933000Y-104710275D01*
X61901758Y-104867342D01*
X61840471Y-105015301D01*
X61751501Y-105148455D01*
X61638255Y-105261701D01*
X61505101Y-105350671D01*
X61357142Y-105411958D01*
X61200075Y-105443200D01*
X61039925Y-105443200D01*
X60882858Y-105411958D01*
X60734899Y-105350671D01*
X60601745Y-105261701D01*
X60488499Y-105148455D01*
X60399529Y-105015301D01*
X60338242Y-104867342D01*
X60307000Y-104710275D01*
X60307000Y-104550125D01*
X60338242Y-104393058D01*
X60399529Y-104245099D01*
X60488499Y-104111945D01*
X60601745Y-103998699D01*
X60734899Y-103909729D01*
X60882858Y-103848442D01*
X61039925Y-103817200D01*
X61200075Y-103817200D01*
X61357142Y-103848442D01*
G37*
G36*
X63897142Y-103848442D02*
G01*
X64045101Y-103909729D01*
X64178255Y-103998699D01*
X64291501Y-104111945D01*
X64380471Y-104245099D01*
X64441758Y-104393058D01*
X64473000Y-104550125D01*
X64473000Y-104710275D01*
X64441758Y-104867342D01*
X64380471Y-105015301D01*
X64291501Y-105148455D01*
X64178255Y-105261701D01*
X64045101Y-105350671D01*
X63897142Y-105411958D01*
X63740075Y-105443200D01*
X63579925Y-105443200D01*
X63422858Y-105411958D01*
X63274899Y-105350671D01*
X63141745Y-105261701D01*
X63028499Y-105148455D01*
X62939529Y-105015301D01*
X62878242Y-104867342D01*
X62847000Y-104710275D01*
X62847000Y-104550125D01*
X62878242Y-104393058D01*
X62939529Y-104245099D01*
X63028499Y-104111945D01*
X63141745Y-103998699D01*
X63274899Y-103909729D01*
X63422858Y-103848442D01*
X63579925Y-103817200D01*
X63740075Y-103817200D01*
X63897142Y-103848442D01*
G37*
G36*
X66437142Y-103848442D02*
G01*
X66585101Y-103909729D01*
X66718255Y-103998699D01*
X66831501Y-104111945D01*
X66920471Y-104245099D01*
X66981758Y-104393058D01*
X67013000Y-104550125D01*
X67013000Y-104710275D01*
X66981758Y-104867342D01*
X66920471Y-105015301D01*
X66831501Y-105148455D01*
X66718255Y-105261701D01*
X66585101Y-105350671D01*
X66437142Y-105411958D01*
X66280075Y-105443200D01*
X66119925Y-105443200D01*
X65962858Y-105411958D01*
X65814899Y-105350671D01*
X65681745Y-105261701D01*
X65568499Y-105148455D01*
X65479529Y-105015301D01*
X65418242Y-104867342D01*
X65387000Y-104710275D01*
X65387000Y-104550125D01*
X65418242Y-104393058D01*
X65479529Y-104245099D01*
X65568499Y-104111945D01*
X65681745Y-103998699D01*
X65814899Y-103909729D01*
X65962858Y-103848442D01*
X66119925Y-103817200D01*
X66280075Y-103817200D01*
X66437142Y-103848442D01*
G37*
G36*
X68977142Y-103848442D02*
G01*
X69125101Y-103909729D01*
X69258255Y-103998699D01*
X69371501Y-104111945D01*
X69460471Y-104245099D01*
X69521758Y-104393058D01*
X69553000Y-104550125D01*
X69553000Y-104710275D01*
X69521758Y-104867342D01*
X69460471Y-105015301D01*
X69371501Y-105148455D01*
X69258255Y-105261701D01*
X69125101Y-105350671D01*
X68977142Y-105411958D01*
X68820075Y-105443200D01*
X68659925Y-105443200D01*
X68502858Y-105411958D01*
X68354899Y-105350671D01*
X68221745Y-105261701D01*
X68108499Y-105148455D01*
X68019529Y-105015301D01*
X67958242Y-104867342D01*
X67927000Y-104710275D01*
X67927000Y-104550125D01*
X67958242Y-104393058D01*
X68019529Y-104245099D01*
X68108499Y-104111945D01*
X68221745Y-103998699D01*
X68354899Y-103909729D01*
X68502858Y-103848442D01*
X68659925Y-103817200D01*
X68820075Y-103817200D01*
X68977142Y-103848442D01*
G37*
G36*
X71517142Y-103848442D02*
G01*
X71665101Y-103909729D01*
X71798255Y-103998699D01*
X71911501Y-104111945D01*
X72000471Y-104245099D01*
X72061758Y-104393058D01*
X72093000Y-104550125D01*
X72093000Y-104710275D01*
X72061758Y-104867342D01*
X72000471Y-105015301D01*
X71911501Y-105148455D01*
X71798255Y-105261701D01*
X71665101Y-105350671D01*
X71517142Y-105411958D01*
X71360075Y-105443200D01*
X71199925Y-105443200D01*
X71042858Y-105411958D01*
X70894899Y-105350671D01*
X70761745Y-105261701D01*
X70648499Y-105148455D01*
X70559529Y-105015301D01*
X70498242Y-104867342D01*
X70467000Y-104710275D01*
X70467000Y-104550125D01*
X70498242Y-104393058D01*
X70559529Y-104245099D01*
X70648499Y-104111945D01*
X70761745Y-103998699D01*
X70894899Y-103909729D01*
X71042858Y-103848442D01*
X71199925Y-103817200D01*
X71360075Y-103817200D01*
X71517142Y-103848442D01*
G37*
G36*
X74057142Y-103848442D02*
G01*
X74205101Y-103909729D01*
X74338255Y-103998699D01*
X74451501Y-104111945D01*
X74540471Y-104245099D01*
X74601758Y-104393058D01*
X74633000Y-104550125D01*
X74633000Y-104710275D01*
X74601758Y-104867342D01*
X74540471Y-105015301D01*
X74451501Y-105148455D01*
X74338255Y-105261701D01*
X74205101Y-105350671D01*
X74057142Y-105411958D01*
X73900075Y-105443200D01*
X73739925Y-105443200D01*
X73582858Y-105411958D01*
X73434899Y-105350671D01*
X73301745Y-105261701D01*
X73188499Y-105148455D01*
X73099529Y-105015301D01*
X73038242Y-104867342D01*
X73007000Y-104710275D01*
X73007000Y-104550125D01*
X73038242Y-104393058D01*
X73099529Y-104245099D01*
X73188499Y-104111945D01*
X73301745Y-103998699D01*
X73434899Y-103909729D01*
X73582858Y-103848442D01*
X73739925Y-103817200D01*
X73900075Y-103817200D01*
X74057142Y-103848442D01*
G37*
G36*
X76597142Y-103848442D02*
G01*
X76745101Y-103909729D01*
X76878255Y-103998699D01*
X76991501Y-104111945D01*
X77080471Y-104245099D01*
X77141758Y-104393058D01*
X77173000Y-104550125D01*
X77173000Y-104710275D01*
X77141758Y-104867342D01*
X77080471Y-105015301D01*
X76991501Y-105148455D01*
X76878255Y-105261701D01*
X76745101Y-105350671D01*
X76597142Y-105411958D01*
X76440075Y-105443200D01*
X76279925Y-105443200D01*
X76122858Y-105411958D01*
X75974899Y-105350671D01*
X75841745Y-105261701D01*
X75728499Y-105148455D01*
X75639529Y-105015301D01*
X75578242Y-104867342D01*
X75547000Y-104710275D01*
X75547000Y-104550125D01*
X75578242Y-104393058D01*
X75639529Y-104245099D01*
X75728499Y-104111945D01*
X75841745Y-103998699D01*
X75974899Y-103909729D01*
X76122858Y-103848442D01*
X76279925Y-103817200D01*
X76440075Y-103817200D01*
X76597142Y-103848442D01*
G37*
G36*
X79137142Y-103848442D02*
G01*
X79285101Y-103909729D01*
X79418255Y-103998699D01*
X79531501Y-104111945D01*
X79620471Y-104245099D01*
X79681758Y-104393058D01*
X79713000Y-104550125D01*
X79713000Y-104710275D01*
X79681758Y-104867342D01*
X79620471Y-105015301D01*
X79531501Y-105148455D01*
X79418255Y-105261701D01*
X79285101Y-105350671D01*
X79137142Y-105411958D01*
X78980075Y-105443200D01*
X78819925Y-105443200D01*
X78662858Y-105411958D01*
X78514899Y-105350671D01*
X78381745Y-105261701D01*
X78268499Y-105148455D01*
X78179529Y-105015301D01*
X78118242Y-104867342D01*
X78087000Y-104710275D01*
X78087000Y-104550125D01*
X78118242Y-104393058D01*
X78179529Y-104245099D01*
X78268499Y-104111945D01*
X78381745Y-103998699D01*
X78514899Y-103909729D01*
X78662858Y-103848442D01*
X78819925Y-103817200D01*
X78980075Y-103817200D01*
X79137142Y-103848442D01*
G37*
G36*
X86757142Y-103848442D02*
G01*
X86905101Y-103909729D01*
X87038255Y-103998699D01*
X87151501Y-104111945D01*
X87240471Y-104245099D01*
X87301758Y-104393058D01*
X87333000Y-104550125D01*
X87333000Y-104710275D01*
X87301758Y-104867342D01*
X87240471Y-105015301D01*
X87151501Y-105148455D01*
X87038255Y-105261701D01*
X86905101Y-105350671D01*
X86757142Y-105411958D01*
X86600075Y-105443200D01*
X86439925Y-105443200D01*
X86282858Y-105411958D01*
X86134899Y-105350671D01*
X86001745Y-105261701D01*
X85888499Y-105148455D01*
X85799529Y-105015301D01*
X85738242Y-104867342D01*
X85707000Y-104710275D01*
X85707000Y-104550125D01*
X85738242Y-104393058D01*
X85799529Y-104245099D01*
X85888499Y-104111945D01*
X86001745Y-103998699D01*
X86134899Y-103909729D01*
X86282858Y-103848442D01*
X86439925Y-103817200D01*
X86600075Y-103817200D01*
X86757142Y-103848442D01*
G37*
G36*
X81677142Y-103848442D02*
G01*
X81825101Y-103909729D01*
X81958255Y-103998699D01*
X82071501Y-104111945D01*
X82160471Y-104245099D01*
X82221758Y-104393058D01*
X82253000Y-104550125D01*
X82253000Y-104710275D01*
X82221758Y-104867342D01*
X82160471Y-105015301D01*
X82071501Y-105148455D01*
X81958255Y-105261701D01*
X81825101Y-105350671D01*
X81677142Y-105411958D01*
X81520075Y-105443200D01*
X81359925Y-105443200D01*
X81202858Y-105411958D01*
X81054899Y-105350671D01*
X80921745Y-105261701D01*
X80808499Y-105148455D01*
X80719529Y-105015301D01*
X80658242Y-104867342D01*
X80627000Y-104710275D01*
X80627000Y-104550125D01*
X80658242Y-104393058D01*
X80719529Y-104245099D01*
X80808499Y-104111945D01*
X80921745Y-103998699D01*
X81054899Y-103909729D01*
X81202858Y-103848442D01*
X81359925Y-103817200D01*
X81520075Y-103817200D01*
X81677142Y-103848442D01*
G37*
G36*
X96917142Y-103848442D02*
G01*
X97065101Y-103909729D01*
X97198255Y-103998699D01*
X97311501Y-104111945D01*
X97400471Y-104245099D01*
X97461758Y-104393058D01*
X97493000Y-104550125D01*
X97493000Y-104710275D01*
X97461758Y-104867342D01*
X97400471Y-105015301D01*
X97311501Y-105148455D01*
X97198255Y-105261701D01*
X97065101Y-105350671D01*
X96917142Y-105411958D01*
X96760075Y-105443200D01*
X96599925Y-105443200D01*
X96442858Y-105411958D01*
X96294899Y-105350671D01*
X96161745Y-105261701D01*
X96048499Y-105148455D01*
X95959529Y-105015301D01*
X95898242Y-104867342D01*
X95867000Y-104710275D01*
X95867000Y-104550125D01*
X95898242Y-104393058D01*
X95959529Y-104245099D01*
X96048499Y-104111945D01*
X96161745Y-103998699D01*
X96294899Y-103909729D01*
X96442858Y-103848442D01*
X96599925Y-103817200D01*
X96760075Y-103817200D01*
X96917142Y-103848442D01*
G37*
G36*
X38497142Y-103848442D02*
G01*
X38645101Y-103909729D01*
X38778255Y-103998699D01*
X38891501Y-104111945D01*
X38980471Y-104245099D01*
X39041758Y-104393058D01*
X39073000Y-104550125D01*
X39073000Y-104710275D01*
X39041758Y-104867342D01*
X38980471Y-105015301D01*
X38891501Y-105148455D01*
X38778255Y-105261701D01*
X38645101Y-105350671D01*
X38497142Y-105411958D01*
X38340075Y-105443200D01*
X38179925Y-105443200D01*
X38022858Y-105411958D01*
X37874899Y-105350671D01*
X37741745Y-105261701D01*
X37628499Y-105148455D01*
X37539529Y-105015301D01*
X37478242Y-104867342D01*
X37447000Y-104710275D01*
X37447000Y-104550125D01*
X37478242Y-104393058D01*
X37539529Y-104245099D01*
X37628499Y-104111945D01*
X37741745Y-103998699D01*
X37874899Y-103909729D01*
X38022858Y-103848442D01*
X38179925Y-103817200D01*
X38340075Y-103817200D01*
X38497142Y-103848442D01*
G37*
G36*
X41037142Y-103848442D02*
G01*
X41185101Y-103909729D01*
X41318255Y-103998699D01*
X41431501Y-104111945D01*
X41520471Y-104245099D01*
X41581758Y-104393058D01*
X41613000Y-104550125D01*
X41613000Y-104710275D01*
X41581758Y-104867342D01*
X41520471Y-105015301D01*
X41431501Y-105148455D01*
X41318255Y-105261701D01*
X41185101Y-105350671D01*
X41037142Y-105411958D01*
X40880075Y-105443200D01*
X40719925Y-105443200D01*
X40562858Y-105411958D01*
X40414899Y-105350671D01*
X40281745Y-105261701D01*
X40168499Y-105148455D01*
X40079529Y-105015301D01*
X40018242Y-104867342D01*
X39987000Y-104710275D01*
X39987000Y-104550125D01*
X40018242Y-104393058D01*
X40079529Y-104245099D01*
X40168499Y-104111945D01*
X40281745Y-103998699D01*
X40414899Y-103909729D01*
X40562858Y-103848442D01*
X40719925Y-103817200D01*
X40880075Y-103817200D01*
X41037142Y-103848442D01*
G37*
G36*
X43577142Y-103848442D02*
G01*
X43725101Y-103909729D01*
X43858255Y-103998699D01*
X43971501Y-104111945D01*
X44060471Y-104245099D01*
X44121758Y-104393058D01*
X44153000Y-104550125D01*
X44153000Y-104710275D01*
X44121758Y-104867342D01*
X44060471Y-105015301D01*
X43971501Y-105148455D01*
X43858255Y-105261701D01*
X43725101Y-105350671D01*
X43577142Y-105411958D01*
X43420075Y-105443200D01*
X43259925Y-105443200D01*
X43102858Y-105411958D01*
X42954899Y-105350671D01*
X42821745Y-105261701D01*
X42708499Y-105148455D01*
X42619529Y-105015301D01*
X42558242Y-104867342D01*
X42527000Y-104710275D01*
X42527000Y-104550125D01*
X42558242Y-104393058D01*
X42619529Y-104245099D01*
X42708499Y-104111945D01*
X42821745Y-103998699D01*
X42954899Y-103909729D01*
X43102858Y-103848442D01*
X43259925Y-103817200D01*
X43420075Y-103817200D01*
X43577142Y-103848442D01*
G37*
G36*
X46117142Y-103848442D02*
G01*
X46265101Y-103909729D01*
X46398255Y-103998699D01*
X46511501Y-104111945D01*
X46600471Y-104245099D01*
X46661758Y-104393058D01*
X46693000Y-104550125D01*
X46693000Y-104710275D01*
X46661758Y-104867342D01*
X46600471Y-105015301D01*
X46511501Y-105148455D01*
X46398255Y-105261701D01*
X46265101Y-105350671D01*
X46117142Y-105411958D01*
X45960075Y-105443200D01*
X45799925Y-105443200D01*
X45642858Y-105411958D01*
X45494899Y-105350671D01*
X45361745Y-105261701D01*
X45248499Y-105148455D01*
X45159529Y-105015301D01*
X45098242Y-104867342D01*
X45067000Y-104710275D01*
X45067000Y-104550125D01*
X45098242Y-104393058D01*
X45159529Y-104245099D01*
X45248499Y-104111945D01*
X45361745Y-103998699D01*
X45494899Y-103909729D01*
X45642858Y-103848442D01*
X45799925Y-103817200D01*
X45960075Y-103817200D01*
X46117142Y-103848442D01*
G37*
G36*
X48657142Y-103848442D02*
G01*
X48805101Y-103909729D01*
X48938255Y-103998699D01*
X49051501Y-104111945D01*
X49140471Y-104245099D01*
X49201758Y-104393058D01*
X49233000Y-104550125D01*
X49233000Y-104710275D01*
X49201758Y-104867342D01*
X49140471Y-105015301D01*
X49051501Y-105148455D01*
X48938255Y-105261701D01*
X48805101Y-105350671D01*
X48657142Y-105411958D01*
X48500075Y-105443200D01*
X48339925Y-105443200D01*
X48182858Y-105411958D01*
X48034899Y-105350671D01*
X47901745Y-105261701D01*
X47788499Y-105148455D01*
X47699529Y-105015301D01*
X47638242Y-104867342D01*
X47607000Y-104710275D01*
X47607000Y-104550125D01*
X47638242Y-104393058D01*
X47699529Y-104245099D01*
X47788499Y-104111945D01*
X47901745Y-103998699D01*
X48034899Y-103909729D01*
X48182858Y-103848442D01*
X48339925Y-103817200D01*
X48500075Y-103817200D01*
X48657142Y-103848442D01*
G37*
G36*
X51197142Y-103848442D02*
G01*
X51345101Y-103909729D01*
X51478255Y-103998699D01*
X51591501Y-104111945D01*
X51680471Y-104245099D01*
X51741758Y-104393058D01*
X51773000Y-104550125D01*
X51773000Y-104710275D01*
X51741758Y-104867342D01*
X51680471Y-105015301D01*
X51591501Y-105148455D01*
X51478255Y-105261701D01*
X51345101Y-105350671D01*
X51197142Y-105411958D01*
X51040075Y-105443200D01*
X50879925Y-105443200D01*
X50722858Y-105411958D01*
X50574899Y-105350671D01*
X50441745Y-105261701D01*
X50328499Y-105148455D01*
X50239529Y-105015301D01*
X50178242Y-104867342D01*
X50147000Y-104710275D01*
X50147000Y-104550125D01*
X50178242Y-104393058D01*
X50239529Y-104245099D01*
X50328499Y-104111945D01*
X50441745Y-103998699D01*
X50574899Y-103909729D01*
X50722858Y-103848442D01*
X50879925Y-103817200D01*
X51040075Y-103817200D01*
X51197142Y-103848442D01*
G37*
G36*
X94377142Y-103848442D02*
G01*
X94525101Y-103909729D01*
X94658255Y-103998699D01*
X94771501Y-104111945D01*
X94860471Y-104245099D01*
X94921758Y-104393058D01*
X94953000Y-104550125D01*
X94953000Y-104710275D01*
X94921758Y-104867342D01*
X94860471Y-105015301D01*
X94771501Y-105148455D01*
X94658255Y-105261701D01*
X94525101Y-105350671D01*
X94377142Y-105411958D01*
X94220075Y-105443200D01*
X94059925Y-105443200D01*
X93902858Y-105411958D01*
X93754899Y-105350671D01*
X93621745Y-105261701D01*
X93508499Y-105148455D01*
X93419529Y-105015301D01*
X93358242Y-104867342D01*
X93327000Y-104710275D01*
X93327000Y-104550125D01*
X93358242Y-104393058D01*
X93419529Y-104245099D01*
X93508499Y-104111945D01*
X93621745Y-103998699D01*
X93754899Y-103909729D01*
X93902858Y-103848442D01*
X94059925Y-103817200D01*
X94220075Y-103817200D01*
X94377142Y-103848442D01*
G37*
G36*
X91837142Y-103848442D02*
G01*
X91985101Y-103909729D01*
X92118255Y-103998699D01*
X92231501Y-104111945D01*
X92320471Y-104245099D01*
X92381758Y-104393058D01*
X92413000Y-104550125D01*
X92413000Y-104710275D01*
X92381758Y-104867342D01*
X92320471Y-105015301D01*
X92231501Y-105148455D01*
X92118255Y-105261701D01*
X91985101Y-105350671D01*
X91837142Y-105411958D01*
X91680075Y-105443200D01*
X91519925Y-105443200D01*
X91362858Y-105411958D01*
X91214899Y-105350671D01*
X91081745Y-105261701D01*
X90968499Y-105148455D01*
X90879529Y-105015301D01*
X90818242Y-104867342D01*
X90787000Y-104710275D01*
X90787000Y-104550125D01*
X90818242Y-104393058D01*
X90879529Y-104245099D01*
X90968499Y-104111945D01*
X91081745Y-103998699D01*
X91214899Y-103909729D01*
X91362858Y-103848442D01*
X91519925Y-103817200D01*
X91680075Y-103817200D01*
X91837142Y-103848442D01*
G37*
G36*
X89297142Y-103848442D02*
G01*
X89445101Y-103909729D01*
X89578255Y-103998699D01*
X89691501Y-104111945D01*
X89780471Y-104245099D01*
X89841758Y-104393058D01*
X89873000Y-104550125D01*
X89873000Y-104710275D01*
X89841758Y-104867342D01*
X89780471Y-105015301D01*
X89691501Y-105148455D01*
X89578255Y-105261701D01*
X89445101Y-105350671D01*
X89297142Y-105411958D01*
X89140075Y-105443200D01*
X88979925Y-105443200D01*
X88822858Y-105411958D01*
X88674899Y-105350671D01*
X88541745Y-105261701D01*
X88428499Y-105148455D01*
X88339529Y-105015301D01*
X88278242Y-104867342D01*
X88247000Y-104710275D01*
X88247000Y-104550125D01*
X88278242Y-104393058D01*
X88339529Y-104245099D01*
X88428499Y-104111945D01*
X88541745Y-103998699D01*
X88674899Y-103909729D01*
X88822858Y-103848442D01*
X88979925Y-103817200D01*
X89140075Y-103817200D01*
X89297142Y-103848442D01*
G37*
G36*
X86757142Y-98997042D02*
G01*
X86905101Y-99058329D01*
X87038255Y-99147299D01*
X87151501Y-99260545D01*
X87240471Y-99393699D01*
X87301758Y-99541658D01*
X87333000Y-99698725D01*
X87333000Y-99858875D01*
X87301758Y-100015942D01*
X87240471Y-100163901D01*
X87151501Y-100297055D01*
X87038255Y-100410301D01*
X86905101Y-100499271D01*
X86757142Y-100560558D01*
X86600075Y-100591800D01*
X86439925Y-100591800D01*
X86282858Y-100560558D01*
X86134899Y-100499271D01*
X86001745Y-100410301D01*
X85888499Y-100297055D01*
X85799529Y-100163901D01*
X85738242Y-100015942D01*
X85707000Y-99858875D01*
X85707000Y-99698725D01*
X85738242Y-99541658D01*
X85799529Y-99393699D01*
X85888499Y-99260545D01*
X86001745Y-99147299D01*
X86134899Y-99058329D01*
X86282858Y-98997042D01*
X86439925Y-98965800D01*
X86600075Y-98965800D01*
X86757142Y-98997042D01*
G37*
G36*
X58817142Y-98997042D02*
G01*
X58965101Y-99058329D01*
X59098255Y-99147299D01*
X59211501Y-99260545D01*
X59300471Y-99393699D01*
X59361758Y-99541658D01*
X59393000Y-99698725D01*
X59393000Y-99858875D01*
X59361758Y-100015942D01*
X59300471Y-100163901D01*
X59211501Y-100297055D01*
X59098255Y-100410301D01*
X58965101Y-100499271D01*
X58817142Y-100560558D01*
X58660075Y-100591800D01*
X58499925Y-100591800D01*
X58342858Y-100560558D01*
X58194899Y-100499271D01*
X58061745Y-100410301D01*
X57948499Y-100297055D01*
X57859529Y-100163901D01*
X57798242Y-100015942D01*
X57767000Y-99858875D01*
X57767000Y-99698725D01*
X57798242Y-99541658D01*
X57859529Y-99393699D01*
X57948499Y-99260545D01*
X58061745Y-99147299D01*
X58194899Y-99058329D01*
X58342858Y-98997042D01*
X58499925Y-98965800D01*
X58660075Y-98965800D01*
X58817142Y-98997042D01*
G37*
G36*
X61357142Y-98997042D02*
G01*
X61505101Y-99058329D01*
X61638255Y-99147299D01*
X61751501Y-99260545D01*
X61840471Y-99393699D01*
X61901758Y-99541658D01*
X61933000Y-99698725D01*
X61933000Y-99858875D01*
X61901758Y-100015942D01*
X61840471Y-100163901D01*
X61751501Y-100297055D01*
X61638255Y-100410301D01*
X61505101Y-100499271D01*
X61357142Y-100560558D01*
X61200075Y-100591800D01*
X61039925Y-100591800D01*
X60882858Y-100560558D01*
X60734899Y-100499271D01*
X60601745Y-100410301D01*
X60488499Y-100297055D01*
X60399529Y-100163901D01*
X60338242Y-100015942D01*
X60307000Y-99858875D01*
X60307000Y-99698725D01*
X60338242Y-99541658D01*
X60399529Y-99393699D01*
X60488499Y-99260545D01*
X60601745Y-99147299D01*
X60734899Y-99058329D01*
X60882858Y-98997042D01*
X61039925Y-98965800D01*
X61200075Y-98965800D01*
X61357142Y-98997042D01*
G37*
G36*
X63897142Y-98997042D02*
G01*
X64045101Y-99058329D01*
X64178255Y-99147299D01*
X64291501Y-99260545D01*
X64380471Y-99393699D01*
X64441758Y-99541658D01*
X64473000Y-99698725D01*
X64473000Y-99858875D01*
X64441758Y-100015942D01*
X64380471Y-100163901D01*
X64291501Y-100297055D01*
X64178255Y-100410301D01*
X64045101Y-100499271D01*
X63897142Y-100560558D01*
X63740075Y-100591800D01*
X63579925Y-100591800D01*
X63422858Y-100560558D01*
X63274899Y-100499271D01*
X63141745Y-100410301D01*
X63028499Y-100297055D01*
X62939529Y-100163901D01*
X62878242Y-100015942D01*
X62847000Y-99858875D01*
X62847000Y-99698725D01*
X62878242Y-99541658D01*
X62939529Y-99393699D01*
X63028499Y-99260545D01*
X63141745Y-99147299D01*
X63274899Y-99058329D01*
X63422858Y-98997042D01*
X63579925Y-98965800D01*
X63740075Y-98965800D01*
X63897142Y-98997042D01*
G37*
G36*
X66437142Y-98997042D02*
G01*
X66585101Y-99058329D01*
X66718255Y-99147299D01*
X66831501Y-99260545D01*
X66920471Y-99393699D01*
X66981758Y-99541658D01*
X67013000Y-99698725D01*
X67013000Y-99858875D01*
X66981758Y-100015942D01*
X66920471Y-100163901D01*
X66831501Y-100297055D01*
X66718255Y-100410301D01*
X66585101Y-100499271D01*
X66437142Y-100560558D01*
X66280075Y-100591800D01*
X66119925Y-100591800D01*
X65962858Y-100560558D01*
X65814899Y-100499271D01*
X65681745Y-100410301D01*
X65568499Y-100297055D01*
X65479529Y-100163901D01*
X65418242Y-100015942D01*
X65387000Y-99858875D01*
X65387000Y-99698725D01*
X65418242Y-99541658D01*
X65479529Y-99393699D01*
X65568499Y-99260545D01*
X65681745Y-99147299D01*
X65814899Y-99058329D01*
X65962858Y-98997042D01*
X66119925Y-98965800D01*
X66280075Y-98965800D01*
X66437142Y-98997042D01*
G37*
G36*
X68977142Y-98997042D02*
G01*
X69125101Y-99058329D01*
X69258255Y-99147299D01*
X69371501Y-99260545D01*
X69460471Y-99393699D01*
X69521758Y-99541658D01*
X69553000Y-99698725D01*
X69553000Y-99858875D01*
X69521758Y-100015942D01*
X69460471Y-100163901D01*
X69371501Y-100297055D01*
X69258255Y-100410301D01*
X69125101Y-100499271D01*
X68977142Y-100560558D01*
X68820075Y-100591800D01*
X68659925Y-100591800D01*
X68502858Y-100560558D01*
X68354899Y-100499271D01*
X68221745Y-100410301D01*
X68108499Y-100297055D01*
X68019529Y-100163901D01*
X67958242Y-100015942D01*
X67927000Y-99858875D01*
X67927000Y-99698725D01*
X67958242Y-99541658D01*
X68019529Y-99393699D01*
X68108499Y-99260545D01*
X68221745Y-99147299D01*
X68354899Y-99058329D01*
X68502858Y-98997042D01*
X68659925Y-98965800D01*
X68820075Y-98965800D01*
X68977142Y-98997042D01*
G37*
G36*
X71517142Y-98997042D02*
G01*
X71665101Y-99058329D01*
X71798255Y-99147299D01*
X71911501Y-99260545D01*
X72000471Y-99393699D01*
X72061758Y-99541658D01*
X72093000Y-99698725D01*
X72093000Y-99858875D01*
X72061758Y-100015942D01*
X72000471Y-100163901D01*
X71911501Y-100297055D01*
X71798255Y-100410301D01*
X71665101Y-100499271D01*
X71517142Y-100560558D01*
X71360075Y-100591800D01*
X71199925Y-100591800D01*
X71042858Y-100560558D01*
X70894899Y-100499271D01*
X70761745Y-100410301D01*
X70648499Y-100297055D01*
X70559529Y-100163901D01*
X70498242Y-100015942D01*
X70467000Y-99858875D01*
X70467000Y-99698725D01*
X70498242Y-99541658D01*
X70559529Y-99393699D01*
X70648499Y-99260545D01*
X70761745Y-99147299D01*
X70894899Y-99058329D01*
X71042858Y-98997042D01*
X71199925Y-98965800D01*
X71360075Y-98965800D01*
X71517142Y-98997042D01*
G37*
G36*
X76597142Y-98997042D02*
G01*
X76745101Y-99058329D01*
X76878255Y-99147299D01*
X76991501Y-99260545D01*
X77080471Y-99393699D01*
X77141758Y-99541658D01*
X77173000Y-99698725D01*
X77173000Y-99858875D01*
X77141758Y-100015942D01*
X77080471Y-100163901D01*
X76991501Y-100297055D01*
X76878255Y-100410301D01*
X76745101Y-100499271D01*
X76597142Y-100560558D01*
X76440075Y-100591800D01*
X76279925Y-100591800D01*
X76122858Y-100560558D01*
X75974899Y-100499271D01*
X75841745Y-100410301D01*
X75728499Y-100297055D01*
X75639529Y-100163901D01*
X75578242Y-100015942D01*
X75547000Y-99858875D01*
X75547000Y-99698725D01*
X75578242Y-99541658D01*
X75639529Y-99393699D01*
X75728499Y-99260545D01*
X75841745Y-99147299D01*
X75974899Y-99058329D01*
X76122858Y-98997042D01*
X76279925Y-98965800D01*
X76440075Y-98965800D01*
X76597142Y-98997042D01*
G37*
G36*
X79137142Y-98997042D02*
G01*
X79285101Y-99058329D01*
X79418255Y-99147299D01*
X79531501Y-99260545D01*
X79620471Y-99393699D01*
X79681758Y-99541658D01*
X79713000Y-99698725D01*
X79713000Y-99858875D01*
X79681758Y-100015942D01*
X79620471Y-100163901D01*
X79531501Y-100297055D01*
X79418255Y-100410301D01*
X79285101Y-100499271D01*
X79137142Y-100560558D01*
X78980075Y-100591800D01*
X78819925Y-100591800D01*
X78662858Y-100560558D01*
X78514899Y-100499271D01*
X78381745Y-100410301D01*
X78268499Y-100297055D01*
X78179529Y-100163901D01*
X78118242Y-100015942D01*
X78087000Y-99858875D01*
X78087000Y-99698725D01*
X78118242Y-99541658D01*
X78179529Y-99393699D01*
X78268499Y-99260545D01*
X78381745Y-99147299D01*
X78514899Y-99058329D01*
X78662858Y-98997042D01*
X78819925Y-98965800D01*
X78980075Y-98965800D01*
X79137142Y-98997042D01*
G37*
G36*
X81677142Y-98997042D02*
G01*
X81825101Y-99058329D01*
X81958255Y-99147299D01*
X82071501Y-99260545D01*
X82160471Y-99393699D01*
X82221758Y-99541658D01*
X82253000Y-99698725D01*
X82253000Y-99858875D01*
X82221758Y-100015942D01*
X82160471Y-100163901D01*
X82071501Y-100297055D01*
X81958255Y-100410301D01*
X81825101Y-100499271D01*
X81677142Y-100560558D01*
X81520075Y-100591800D01*
X81359925Y-100591800D01*
X81202858Y-100560558D01*
X81054899Y-100499271D01*
X80921745Y-100410301D01*
X80808499Y-100297055D01*
X80719529Y-100163901D01*
X80658242Y-100015942D01*
X80627000Y-99858875D01*
X80627000Y-99698725D01*
X80658242Y-99541658D01*
X80719529Y-99393699D01*
X80808499Y-99260545D01*
X80921745Y-99147299D01*
X81054899Y-99058329D01*
X81202858Y-98997042D01*
X81359925Y-98965800D01*
X81520075Y-98965800D01*
X81677142Y-98997042D01*
G37*
G36*
X89297142Y-98997042D02*
G01*
X89445101Y-99058329D01*
X89578255Y-99147299D01*
X89691501Y-99260545D01*
X89780471Y-99393699D01*
X89841758Y-99541658D01*
X89873000Y-99698725D01*
X89873000Y-99858875D01*
X89841758Y-100015942D01*
X89780471Y-100163901D01*
X89691501Y-100297055D01*
X89578255Y-100410301D01*
X89445101Y-100499271D01*
X89297142Y-100560558D01*
X89140075Y-100591800D01*
X88979925Y-100591800D01*
X88822858Y-100560558D01*
X88674899Y-100499271D01*
X88541745Y-100410301D01*
X88428499Y-100297055D01*
X88339529Y-100163901D01*
X88278242Y-100015942D01*
X88247000Y-99858875D01*
X88247000Y-99698725D01*
X88278242Y-99541658D01*
X88339529Y-99393699D01*
X88428499Y-99260545D01*
X88541745Y-99147299D01*
X88674899Y-99058329D01*
X88822858Y-98997042D01*
X88979925Y-98965800D01*
X89140075Y-98965800D01*
X89297142Y-98997042D01*
G37*
G36*
X91837142Y-98997042D02*
G01*
X91985101Y-99058329D01*
X92118255Y-99147299D01*
X92231501Y-99260545D01*
X92320471Y-99393699D01*
X92381758Y-99541658D01*
X92413000Y-99698725D01*
X92413000Y-99858875D01*
X92381758Y-100015942D01*
X92320471Y-100163901D01*
X92231501Y-100297055D01*
X92118255Y-100410301D01*
X91985101Y-100499271D01*
X91837142Y-100560558D01*
X91680075Y-100591800D01*
X91519925Y-100591800D01*
X91362858Y-100560558D01*
X91214899Y-100499271D01*
X91081745Y-100410301D01*
X90968499Y-100297055D01*
X90879529Y-100163901D01*
X90818242Y-100015942D01*
X90787000Y-99858875D01*
X90787000Y-99698725D01*
X90818242Y-99541658D01*
X90879529Y-99393699D01*
X90968499Y-99260545D01*
X91081745Y-99147299D01*
X91214899Y-99058329D01*
X91362858Y-98997042D01*
X91519925Y-98965800D01*
X91680075Y-98965800D01*
X91837142Y-98997042D01*
G37*
G36*
X51197142Y-98997042D02*
G01*
X51345101Y-99058329D01*
X51478255Y-99147299D01*
X51591501Y-99260545D01*
X51680471Y-99393699D01*
X51741758Y-99541658D01*
X51773000Y-99698725D01*
X51773000Y-99858875D01*
X51741758Y-100015942D01*
X51680471Y-100163901D01*
X51591501Y-100297055D01*
X51478255Y-100410301D01*
X51345101Y-100499271D01*
X51197142Y-100560558D01*
X51040075Y-100591800D01*
X50879925Y-100591800D01*
X50722858Y-100560558D01*
X50574899Y-100499271D01*
X50441745Y-100410301D01*
X50328499Y-100297055D01*
X50239529Y-100163901D01*
X50178242Y-100015942D01*
X50147000Y-99858875D01*
X50147000Y-99698725D01*
X50178242Y-99541658D01*
X50239529Y-99393699D01*
X50328499Y-99260545D01*
X50441745Y-99147299D01*
X50574899Y-99058329D01*
X50722858Y-98997042D01*
X50879925Y-98965800D01*
X51040075Y-98965800D01*
X51197142Y-98997042D01*
G37*
G36*
X56277142Y-98997042D02*
G01*
X56425101Y-99058329D01*
X56558255Y-99147299D01*
X56671501Y-99260545D01*
X56760471Y-99393699D01*
X56821758Y-99541658D01*
X56853000Y-99698725D01*
X56853000Y-99858875D01*
X56821758Y-100015942D01*
X56760471Y-100163901D01*
X56671501Y-100297055D01*
X56558255Y-100410301D01*
X56425101Y-100499271D01*
X56277142Y-100560558D01*
X56120075Y-100591800D01*
X55959925Y-100591800D01*
X55802858Y-100560558D01*
X55654899Y-100499271D01*
X55521745Y-100410301D01*
X55408499Y-100297055D01*
X55319529Y-100163901D01*
X55258242Y-100015942D01*
X55227000Y-99858875D01*
X55227000Y-99698725D01*
X55258242Y-99541658D01*
X55319529Y-99393699D01*
X55408499Y-99260545D01*
X55521745Y-99147299D01*
X55654899Y-99058329D01*
X55802858Y-98997042D01*
X55959925Y-98965800D01*
X56120075Y-98965800D01*
X56277142Y-98997042D01*
G37*
G36*
X97493000Y-100591800D02*
G01*
X95867000Y-100591800D01*
X95867000Y-98965800D01*
X97493000Y-98965800D01*
X97493000Y-100591800D01*
G37*
G36*
X43577142Y-98997042D02*
G01*
X43725101Y-99058329D01*
X43858255Y-99147299D01*
X43971501Y-99260545D01*
X44060471Y-99393699D01*
X44121758Y-99541658D01*
X44153000Y-99698725D01*
X44153000Y-99858875D01*
X44121758Y-100015942D01*
X44060471Y-100163901D01*
X43971501Y-100297055D01*
X43858255Y-100410301D01*
X43725101Y-100499271D01*
X43577142Y-100560558D01*
X43420075Y-100591800D01*
X43259925Y-100591800D01*
X43102858Y-100560558D01*
X42954899Y-100499271D01*
X42821745Y-100410301D01*
X42708499Y-100297055D01*
X42619529Y-100163901D01*
X42558242Y-100015942D01*
X42527000Y-99858875D01*
X42527000Y-99698725D01*
X42558242Y-99541658D01*
X42619529Y-99393699D01*
X42708499Y-99260545D01*
X42821745Y-99147299D01*
X42954899Y-99058329D01*
X43102858Y-98997042D01*
X43259925Y-98965800D01*
X43420075Y-98965800D01*
X43577142Y-98997042D01*
G37*
G36*
X48657142Y-98997042D02*
G01*
X48805101Y-99058329D01*
X48938255Y-99147299D01*
X49051501Y-99260545D01*
X49140471Y-99393699D01*
X49201758Y-99541658D01*
X49233000Y-99698725D01*
X49233000Y-99858875D01*
X49201758Y-100015942D01*
X49140471Y-100163901D01*
X49051501Y-100297055D01*
X48938255Y-100410301D01*
X48805101Y-100499271D01*
X48657142Y-100560558D01*
X48500075Y-100591800D01*
X48339925Y-100591800D01*
X48182858Y-100560558D01*
X48034899Y-100499271D01*
X47901745Y-100410301D01*
X47788499Y-100297055D01*
X47699529Y-100163901D01*
X47638242Y-100015942D01*
X47607000Y-99858875D01*
X47607000Y-99698725D01*
X47638242Y-99541658D01*
X47699529Y-99393699D01*
X47788499Y-99260545D01*
X47901745Y-99147299D01*
X48034899Y-99058329D01*
X48182858Y-98997042D01*
X48339925Y-98965800D01*
X48500075Y-98965800D01*
X48657142Y-98997042D01*
G37*
G36*
X46117142Y-98997042D02*
G01*
X46265101Y-99058329D01*
X46398255Y-99147299D01*
X46511501Y-99260545D01*
X46600471Y-99393699D01*
X46661758Y-99541658D01*
X46693000Y-99698725D01*
X46693000Y-99858875D01*
X46661758Y-100015942D01*
X46600471Y-100163901D01*
X46511501Y-100297055D01*
X46398255Y-100410301D01*
X46265101Y-100499271D01*
X46117142Y-100560558D01*
X45960075Y-100591800D01*
X45799925Y-100591800D01*
X45642858Y-100560558D01*
X45494899Y-100499271D01*
X45361745Y-100410301D01*
X45248499Y-100297055D01*
X45159529Y-100163901D01*
X45098242Y-100015942D01*
X45067000Y-99858875D01*
X45067000Y-99698725D01*
X45098242Y-99541658D01*
X45159529Y-99393699D01*
X45248499Y-99260545D01*
X45361745Y-99147299D01*
X45494899Y-99058329D01*
X45642858Y-98997042D01*
X45799925Y-98965800D01*
X45960075Y-98965800D01*
X46117142Y-98997042D01*
G37*
G36*
X84217142Y-98997042D02*
G01*
X84365101Y-99058329D01*
X84498255Y-99147299D01*
X84611501Y-99260545D01*
X84700471Y-99393699D01*
X84761758Y-99541658D01*
X84793000Y-99698725D01*
X84793000Y-99858875D01*
X84761758Y-100015942D01*
X84700471Y-100163901D01*
X84611501Y-100297055D01*
X84498255Y-100410301D01*
X84365101Y-100499271D01*
X84217142Y-100560558D01*
X84060075Y-100591800D01*
X83899925Y-100591800D01*
X83742858Y-100560558D01*
X83594899Y-100499271D01*
X83461745Y-100410301D01*
X83348499Y-100297055D01*
X83259529Y-100163901D01*
X83198242Y-100015942D01*
X83167000Y-99858875D01*
X83167000Y-99698725D01*
X83198242Y-99541658D01*
X83259529Y-99393699D01*
X83348499Y-99260545D01*
X83461745Y-99147299D01*
X83594899Y-99058329D01*
X83742858Y-98997042D01*
X83899925Y-98965800D01*
X84060075Y-98965800D01*
X84217142Y-98997042D01*
G37*
G36*
X38497142Y-98997042D02*
G01*
X38645101Y-99058329D01*
X38778255Y-99147299D01*
X38891501Y-99260545D01*
X38980471Y-99393699D01*
X39041758Y-99541658D01*
X39073000Y-99698725D01*
X39073000Y-99858875D01*
X39041758Y-100015942D01*
X38980471Y-100163901D01*
X38891501Y-100297055D01*
X38778255Y-100410301D01*
X38645101Y-100499271D01*
X38497142Y-100560558D01*
X38340075Y-100591800D01*
X38179925Y-100591800D01*
X38022858Y-100560558D01*
X37874899Y-100499271D01*
X37741745Y-100410301D01*
X37628499Y-100297055D01*
X37539529Y-100163901D01*
X37478242Y-100015942D01*
X37447000Y-99858875D01*
X37447000Y-99698725D01*
X37478242Y-99541658D01*
X37539529Y-99393699D01*
X37628499Y-99260545D01*
X37741745Y-99147299D01*
X37874899Y-99058329D01*
X38022858Y-98997042D01*
X38179925Y-98965800D01*
X38340075Y-98965800D01*
X38497142Y-98997042D01*
G37*
G36*
X53737142Y-98997042D02*
G01*
X53885101Y-99058329D01*
X54018255Y-99147299D01*
X54131501Y-99260545D01*
X54220471Y-99393699D01*
X54281758Y-99541658D01*
X54313000Y-99698725D01*
X54313000Y-99858875D01*
X54281758Y-100015942D01*
X54220471Y-100163901D01*
X54131501Y-100297055D01*
X54018255Y-100410301D01*
X53885101Y-100499271D01*
X53737142Y-100560558D01*
X53580075Y-100591800D01*
X53419925Y-100591800D01*
X53262858Y-100560558D01*
X53114899Y-100499271D01*
X52981745Y-100410301D01*
X52868499Y-100297055D01*
X52779529Y-100163901D01*
X52718242Y-100015942D01*
X52687000Y-99858875D01*
X52687000Y-99698725D01*
X52718242Y-99541658D01*
X52779529Y-99393699D01*
X52868499Y-99260545D01*
X52981745Y-99147299D01*
X53114899Y-99058329D01*
X53262858Y-98997042D01*
X53419925Y-98965800D01*
X53580075Y-98965800D01*
X53737142Y-98997042D01*
G37*
G36*
X74057142Y-98997042D02*
G01*
X74205101Y-99058329D01*
X74338255Y-99147299D01*
X74451501Y-99260545D01*
X74540471Y-99393699D01*
X74601758Y-99541658D01*
X74633000Y-99698725D01*
X74633000Y-99858875D01*
X74601758Y-100015942D01*
X74540471Y-100163901D01*
X74451501Y-100297055D01*
X74338255Y-100410301D01*
X74205101Y-100499271D01*
X74057142Y-100560558D01*
X73900075Y-100591800D01*
X73739925Y-100591800D01*
X73582858Y-100560558D01*
X73434899Y-100499271D01*
X73301745Y-100410301D01*
X73188499Y-100297055D01*
X73099529Y-100163901D01*
X73038242Y-100015942D01*
X73007000Y-99858875D01*
X73007000Y-99698725D01*
X73038242Y-99541658D01*
X73099529Y-99393699D01*
X73188499Y-99260545D01*
X73301745Y-99147299D01*
X73434899Y-99058329D01*
X73582858Y-98997042D01*
X73739925Y-98965800D01*
X73900075Y-98965800D01*
X74057142Y-98997042D01*
G37*
G36*
X94377142Y-98997042D02*
G01*
X94525101Y-99058329D01*
X94658255Y-99147299D01*
X94771501Y-99260545D01*
X94860471Y-99393699D01*
X94921758Y-99541658D01*
X94953000Y-99698725D01*
X94953000Y-99858875D01*
X94921758Y-100015942D01*
X94860471Y-100163901D01*
X94771501Y-100297055D01*
X94658255Y-100410301D01*
X94525101Y-100499271D01*
X94377142Y-100560558D01*
X94220075Y-100591800D01*
X94059925Y-100591800D01*
X93902858Y-100560558D01*
X93754899Y-100499271D01*
X93621745Y-100410301D01*
X93508499Y-100297055D01*
X93419529Y-100163901D01*
X93358242Y-100015942D01*
X93327000Y-99858875D01*
X93327000Y-99698725D01*
X93358242Y-99541658D01*
X93419529Y-99393699D01*
X93508499Y-99260545D01*
X93621745Y-99147299D01*
X93754899Y-99058329D01*
X93902858Y-98997042D01*
X94059925Y-98965800D01*
X94220075Y-98965800D01*
X94377142Y-98997042D01*
G37*
G36*
X35957142Y-98997042D02*
G01*
X36105101Y-99058329D01*
X36238255Y-99147299D01*
X36351501Y-99260545D01*
X36440471Y-99393699D01*
X36501758Y-99541658D01*
X36533000Y-99698725D01*
X36533000Y-99858875D01*
X36501758Y-100015942D01*
X36440471Y-100163901D01*
X36351501Y-100297055D01*
X36238255Y-100410301D01*
X36105101Y-100499271D01*
X35957142Y-100560558D01*
X35800075Y-100591800D01*
X35639925Y-100591800D01*
X35482858Y-100560558D01*
X35334899Y-100499271D01*
X35201745Y-100410301D01*
X35088499Y-100297055D01*
X34999529Y-100163901D01*
X34938242Y-100015942D01*
X34907000Y-99858875D01*
X34907000Y-99698725D01*
X34938242Y-99541658D01*
X34999529Y-99393699D01*
X35088499Y-99260545D01*
X35201745Y-99147299D01*
X35334899Y-99058329D01*
X35482858Y-98997042D01*
X35639925Y-98965800D01*
X35800075Y-98965800D01*
X35957142Y-98997042D01*
G37*
G36*
X41037142Y-98997042D02*
G01*
X41185101Y-99058329D01*
X41318255Y-99147299D01*
X41431501Y-99260545D01*
X41520471Y-99393699D01*
X41581758Y-99541658D01*
X41613000Y-99698725D01*
X41613000Y-99858875D01*
X41581758Y-100015942D01*
X41520471Y-100163901D01*
X41431501Y-100297055D01*
X41318255Y-100410301D01*
X41185101Y-100499271D01*
X41037142Y-100560558D01*
X40880075Y-100591800D01*
X40719925Y-100591800D01*
X40562858Y-100560558D01*
X40414899Y-100499271D01*
X40281745Y-100410301D01*
X40168499Y-100297055D01*
X40079529Y-100163901D01*
X40018242Y-100015942D01*
X39987000Y-99858875D01*
X39987000Y-99698725D01*
X40018242Y-99541658D01*
X40079529Y-99393699D01*
X40168499Y-99260545D01*
X40281745Y-99147299D01*
X40414899Y-99058329D01*
X40562858Y-98997042D01*
X40719925Y-98965800D01*
X40880075Y-98965800D01*
X41037142Y-98997042D01*
G37*
G36*
X88356100Y-91825900D02*
G01*
X86754100Y-91825900D01*
X86754100Y-89723900D01*
X88356100Y-89723900D01*
X88356100Y-91825900D01*
G37*
G36*
X86056100Y-91825900D02*
G01*
X84454100Y-91825900D01*
X84454100Y-89723900D01*
X86056100Y-89723900D01*
X86056100Y-91825900D01*
G37*
G36*
X83756100Y-91825900D02*
G01*
X82154100Y-91825900D01*
X82154100Y-89723900D01*
X83756100Y-89723900D01*
X83756100Y-91825900D01*
G37*
G36*
X90819898Y-90065447D02*
G01*
X90855467Y-90076237D01*
X90888239Y-90093754D01*
X90916969Y-90117331D01*
X90940546Y-90146061D01*
X90958063Y-90178833D01*
X90968853Y-90214402D01*
X90973100Y-90257525D01*
X90973100Y-91316875D01*
X90968853Y-91359998D01*
X90958063Y-91395567D01*
X90940546Y-91428339D01*
X90916969Y-91457069D01*
X90888239Y-91480646D01*
X90855467Y-91498163D01*
X90819898Y-91508953D01*
X90776775Y-91513200D01*
X89667425Y-91513200D01*
X89624302Y-91508953D01*
X89588733Y-91498163D01*
X89555961Y-91480646D01*
X89527231Y-91457069D01*
X89503654Y-91428339D01*
X89486137Y-91395567D01*
X89475347Y-91359998D01*
X89471100Y-91316875D01*
X89471100Y-90257525D01*
X89475347Y-90214402D01*
X89486137Y-90178833D01*
X89503654Y-90146061D01*
X89527231Y-90117331D01*
X89555961Y-90093754D01*
X89588733Y-90076237D01*
X89624302Y-90065447D01*
X89667425Y-90061200D01*
X90776775Y-90061200D01*
X90819898Y-90065447D01*
G37*
G36*
X93519898Y-90065447D02*
G01*
X93555467Y-90076237D01*
X93588239Y-90093754D01*
X93616969Y-90117331D01*
X93640546Y-90146061D01*
X93658063Y-90178833D01*
X93668853Y-90214402D01*
X93673100Y-90257525D01*
X93673100Y-91316875D01*
X93668853Y-91359998D01*
X93658063Y-91395567D01*
X93640546Y-91428339D01*
X93616969Y-91457069D01*
X93588239Y-91480646D01*
X93555467Y-91498163D01*
X93519898Y-91508953D01*
X93476775Y-91513200D01*
X92367425Y-91513200D01*
X92324302Y-91508953D01*
X92288733Y-91498163D01*
X92255961Y-91480646D01*
X92227231Y-91457069D01*
X92203654Y-91428339D01*
X92186137Y-91395567D01*
X92175347Y-91359998D01*
X92171100Y-91316875D01*
X92171100Y-90257525D01*
X92175347Y-90214402D01*
X92186137Y-90178833D01*
X92203654Y-90146061D01*
X92227231Y-90117331D01*
X92255961Y-90093754D01*
X92288733Y-90076237D01*
X92324302Y-90065447D01*
X92367425Y-90061200D01*
X93476775Y-90061200D01*
X93519898Y-90065447D01*
G37*
G36*
X80944298Y-90057847D02*
G01*
X80979867Y-90068637D01*
X81012639Y-90086154D01*
X81041369Y-90109731D01*
X81064946Y-90138461D01*
X81082463Y-90171233D01*
X81093253Y-90206802D01*
X81097500Y-90249925D01*
X81097500Y-91309275D01*
X81093253Y-91352398D01*
X81082463Y-91387967D01*
X81064946Y-91420739D01*
X81041369Y-91449469D01*
X81012639Y-91473046D01*
X80979867Y-91490563D01*
X80944298Y-91501353D01*
X80901175Y-91505600D01*
X79791825Y-91505600D01*
X79748702Y-91501353D01*
X79713133Y-91490563D01*
X79680361Y-91473046D01*
X79651631Y-91449469D01*
X79628054Y-91420739D01*
X79610537Y-91387967D01*
X79599747Y-91352398D01*
X79595500Y-91309275D01*
X79595500Y-90249925D01*
X79599747Y-90206802D01*
X79610537Y-90171233D01*
X79628054Y-90138461D01*
X79651631Y-90109731D01*
X79680361Y-90086154D01*
X79713133Y-90068637D01*
X79748702Y-90057847D01*
X79791825Y-90053600D01*
X80901175Y-90053600D01*
X80944298Y-90057847D01*
G37*
G36*
X78244298Y-90057847D02*
G01*
X78279867Y-90068637D01*
X78312639Y-90086154D01*
X78341369Y-90109731D01*
X78364946Y-90138461D01*
X78382463Y-90171233D01*
X78393253Y-90206802D01*
X78397500Y-90249925D01*
X78397500Y-91309275D01*
X78393253Y-91352398D01*
X78382463Y-91387967D01*
X78364946Y-91420739D01*
X78341369Y-91449469D01*
X78312639Y-91473046D01*
X78279867Y-91490563D01*
X78244298Y-91501353D01*
X78201175Y-91505600D01*
X77091825Y-91505600D01*
X77048702Y-91501353D01*
X77013133Y-91490563D01*
X76980361Y-91473046D01*
X76951631Y-91449469D01*
X76928054Y-91420739D01*
X76910537Y-91387967D01*
X76899747Y-91352398D01*
X76895500Y-91309275D01*
X76895500Y-90249925D01*
X76899747Y-90206802D01*
X76910537Y-90171233D01*
X76928054Y-90138461D01*
X76951631Y-90109731D01*
X76980361Y-90086154D01*
X77013133Y-90068637D01*
X77048702Y-90057847D01*
X77091825Y-90053600D01*
X78201175Y-90053600D01*
X78244298Y-90057847D01*
G37*
G36*
X100436256Y-87822198D02*
G01*
X100542579Y-87843347D01*
X100843042Y-87967803D01*
X101113451Y-88148485D01*
X101343415Y-88378449D01*
X101524097Y-88648858D01*
X101648553Y-88949321D01*
X101712000Y-89268291D01*
X101712000Y-89593509D01*
X101648553Y-89912479D01*
X101576614Y-90086154D01*
X101538226Y-90178833D01*
X101524097Y-90212942D01*
X101343415Y-90483351D01*
X101113451Y-90713315D01*
X100843042Y-90893997D01*
X100542579Y-91018453D01*
X100436256Y-91039602D01*
X100223611Y-91081900D01*
X99898389Y-91081900D01*
X99685744Y-91039602D01*
X99579421Y-91018453D01*
X99278958Y-90893997D01*
X99008549Y-90713315D01*
X98778585Y-90483351D01*
X98597903Y-90212942D01*
X98583775Y-90178833D01*
X98545386Y-90086154D01*
X98473447Y-89912479D01*
X98410000Y-89593509D01*
X98410000Y-89268291D01*
X98473447Y-88949321D01*
X98597903Y-88648858D01*
X98778585Y-88378449D01*
X99008549Y-88148485D01*
X99278958Y-87967803D01*
X99579421Y-87843347D01*
X99685744Y-87822198D01*
X99898389Y-87779900D01*
X100223611Y-87779900D01*
X100436256Y-87822198D01*
G37*
G36*
X32277656Y-87822198D02*
G01*
X32383979Y-87843347D01*
X32684442Y-87967803D01*
X32954851Y-88148485D01*
X33184815Y-88378449D01*
X33365497Y-88648858D01*
X33489953Y-88949321D01*
X33553400Y-89268291D01*
X33553400Y-89593509D01*
X33489953Y-89912479D01*
X33418014Y-90086154D01*
X33379626Y-90178833D01*
X33365497Y-90212942D01*
X33184815Y-90483351D01*
X32954851Y-90713315D01*
X32684442Y-90893997D01*
X32383979Y-91018453D01*
X32277656Y-91039602D01*
X32065011Y-91081900D01*
X31739789Y-91081900D01*
X31527144Y-91039602D01*
X31420821Y-91018453D01*
X31120358Y-90893997D01*
X30849949Y-90713315D01*
X30619985Y-90483351D01*
X30439303Y-90212942D01*
X30425175Y-90178833D01*
X30386786Y-90086154D01*
X30314847Y-89912479D01*
X30251400Y-89593509D01*
X30251400Y-89268291D01*
X30314847Y-88949321D01*
X30439303Y-88648858D01*
X30619985Y-88378449D01*
X30849949Y-88148485D01*
X31120358Y-87967803D01*
X31420821Y-87843347D01*
X31527144Y-87822198D01*
X31739789Y-87779900D01*
X32065011Y-87779900D01*
X32277656Y-87822198D01*
G37*
G36*
X70481612Y-87739727D02*
G01*
X70630912Y-87769424D01*
X70794884Y-87837344D01*
X70942454Y-87935947D01*
X71067953Y-88061446D01*
X71166556Y-88209016D01*
X71234476Y-88372988D01*
X71269100Y-88547059D01*
X71269100Y-88724541D01*
X71234476Y-88898612D01*
X71166556Y-89062584D01*
X71067953Y-89210154D01*
X70942454Y-89335653D01*
X70794884Y-89434256D01*
X70630912Y-89502176D01*
X70481612Y-89531873D01*
X70456842Y-89536800D01*
X70279358Y-89536800D01*
X70254588Y-89531873D01*
X70105288Y-89502176D01*
X69941316Y-89434256D01*
X69793746Y-89335653D01*
X69668247Y-89210154D01*
X69569644Y-89062584D01*
X69501724Y-88898612D01*
X69467100Y-88724541D01*
X69467100Y-88547059D01*
X69501724Y-88372988D01*
X69569644Y-88209016D01*
X69668247Y-88061446D01*
X69793746Y-87935947D01*
X69941316Y-87837344D01*
X70105288Y-87769424D01*
X70254588Y-87739727D01*
X70279358Y-87734800D01*
X70456842Y-87734800D01*
X70481612Y-87739727D01*
G37*
G36*
X70481612Y-85199727D02*
G01*
X70630912Y-85229424D01*
X70794884Y-85297344D01*
X70942454Y-85395947D01*
X71067953Y-85521446D01*
X71166556Y-85669016D01*
X71234476Y-85832988D01*
X71269100Y-86007059D01*
X71269100Y-86184541D01*
X71234476Y-86358612D01*
X71166556Y-86522584D01*
X71067953Y-86670154D01*
X70942454Y-86795653D01*
X70794884Y-86894256D01*
X70630912Y-86962176D01*
X70481612Y-86991873D01*
X70456842Y-86996800D01*
X70279358Y-86996800D01*
X70254588Y-86991873D01*
X70105288Y-86962176D01*
X69941316Y-86894256D01*
X69793746Y-86795653D01*
X69668247Y-86670154D01*
X69569644Y-86522584D01*
X69501724Y-86358612D01*
X69467100Y-86184541D01*
X69467100Y-86007059D01*
X69501724Y-85832988D01*
X69569644Y-85669016D01*
X69668247Y-85521446D01*
X69793746Y-85395947D01*
X69941316Y-85297344D01*
X70105288Y-85229424D01*
X70254588Y-85199727D01*
X70279358Y-85194800D01*
X70456842Y-85194800D01*
X70481612Y-85199727D01*
G37*
G36*
X62124100Y-86247200D02*
G01*
X53522100Y-86247200D01*
X53522100Y-84345200D01*
X62124100Y-84345200D01*
X62124100Y-86247200D01*
G37*
G36*
X87206100Y-85525900D02*
G01*
X83304100Y-85525900D01*
X83304100Y-83423900D01*
X87206100Y-83423900D01*
X87206100Y-85525900D01*
G37*
G36*
X70481612Y-82659727D02*
G01*
X70630912Y-82689424D01*
X70794884Y-82757344D01*
X70942454Y-82855947D01*
X71067953Y-82981446D01*
X71166556Y-83129016D01*
X71234476Y-83292988D01*
X71269100Y-83467059D01*
X71269100Y-83644541D01*
X71234476Y-83818612D01*
X71166556Y-83982584D01*
X71067953Y-84130154D01*
X70942454Y-84255653D01*
X70794884Y-84354256D01*
X70630912Y-84422176D01*
X70481612Y-84451873D01*
X70456842Y-84456800D01*
X70279358Y-84456800D01*
X70254588Y-84451873D01*
X70105288Y-84422176D01*
X69941316Y-84354256D01*
X69793746Y-84255653D01*
X69668247Y-84130154D01*
X69569644Y-83982584D01*
X69501724Y-83818612D01*
X69467100Y-83644541D01*
X69467100Y-83467059D01*
X69501724Y-83292988D01*
X69569644Y-83129016D01*
X69668247Y-82981446D01*
X69793746Y-82855947D01*
X69941316Y-82757344D01*
X70105288Y-82689424D01*
X70254588Y-82659727D01*
X70279358Y-82654800D01*
X70456842Y-82654800D01*
X70481612Y-82659727D01*
G37*
G36*
X64774100Y-83597200D02*
G01*
X62872100Y-83597200D01*
X62872100Y-74995200D01*
X64774100Y-74995200D01*
X64774100Y-83597200D01*
G37*
G36*
X52774100Y-83597200D02*
G01*
X50872100Y-83597200D01*
X50872100Y-74995200D01*
X52774100Y-74995200D01*
X52774100Y-83597200D01*
G37*
G36*
X70481612Y-80119727D02*
G01*
X70630912Y-80149424D01*
X70794884Y-80217344D01*
X70942454Y-80315947D01*
X71067953Y-80441446D01*
X71166556Y-80589016D01*
X71234476Y-80752988D01*
X71269100Y-80927059D01*
X71269100Y-81104541D01*
X71234476Y-81278612D01*
X71166556Y-81442584D01*
X71067953Y-81590154D01*
X70942454Y-81715653D01*
X70794884Y-81814256D01*
X70630912Y-81882176D01*
X70481612Y-81911873D01*
X70456842Y-81916800D01*
X70279358Y-81916800D01*
X70254588Y-81911873D01*
X70105288Y-81882176D01*
X69941316Y-81814256D01*
X69793746Y-81715653D01*
X69668247Y-81590154D01*
X69569644Y-81442584D01*
X69501724Y-81278612D01*
X69467100Y-81104541D01*
X69467100Y-80927059D01*
X69501724Y-80752988D01*
X69569644Y-80589016D01*
X69668247Y-80441446D01*
X69793746Y-80315947D01*
X69941316Y-80217344D01*
X70105288Y-80149424D01*
X70254588Y-80119727D01*
X70279358Y-80114800D01*
X70456842Y-80114800D01*
X70481612Y-80119727D01*
G37*
G36*
X86621838Y-79258216D02*
G01*
X86642457Y-79264471D01*
X86661453Y-79274624D01*
X86678108Y-79288292D01*
X86691776Y-79304947D01*
X86701929Y-79323943D01*
X86708184Y-79344562D01*
X86710900Y-79372140D01*
X86710900Y-79880860D01*
X86708184Y-79908438D01*
X86701929Y-79929057D01*
X86691776Y-79948053D01*
X86678108Y-79964708D01*
X86661453Y-79978376D01*
X86642457Y-79988529D01*
X86621838Y-79994784D01*
X86594260Y-79997500D01*
X86135540Y-79997500D01*
X86107962Y-79994784D01*
X86087343Y-79988529D01*
X86068347Y-79978376D01*
X86051692Y-79964708D01*
X86038024Y-79948053D01*
X86027871Y-79929057D01*
X86021616Y-79908438D01*
X86018900Y-79880860D01*
X86018900Y-79372140D01*
X86021616Y-79344562D01*
X86027871Y-79323943D01*
X86038024Y-79304947D01*
X86051692Y-79288292D01*
X86068347Y-79274624D01*
X86087343Y-79264471D01*
X86107962Y-79258216D01*
X86135540Y-79255500D01*
X86594260Y-79255500D01*
X86621838Y-79258216D01*
G37*
G36*
X85651838Y-79258216D02*
G01*
X85672457Y-79264471D01*
X85691453Y-79274624D01*
X85708108Y-79288292D01*
X85721776Y-79304947D01*
X85731929Y-79323943D01*
X85738184Y-79344562D01*
X85740900Y-79372140D01*
X85740900Y-79880860D01*
X85738184Y-79908438D01*
X85731929Y-79929057D01*
X85721776Y-79948053D01*
X85708108Y-79964708D01*
X85691453Y-79978376D01*
X85672457Y-79988529D01*
X85651838Y-79994784D01*
X85624260Y-79997500D01*
X85165540Y-79997500D01*
X85137962Y-79994784D01*
X85117343Y-79988529D01*
X85098347Y-79978376D01*
X85081692Y-79964708D01*
X85068024Y-79948053D01*
X85057871Y-79929057D01*
X85051616Y-79908438D01*
X85048900Y-79880860D01*
X85048900Y-79372140D01*
X85051616Y-79344562D01*
X85057871Y-79323943D01*
X85068024Y-79304947D01*
X85081692Y-79288292D01*
X85098347Y-79274624D01*
X85117343Y-79264471D01*
X85137962Y-79258216D01*
X85165540Y-79255500D01*
X85624260Y-79255500D01*
X85651838Y-79258216D01*
G37*
G36*
X70481612Y-77579727D02*
G01*
X70630912Y-77609424D01*
X70794884Y-77677344D01*
X70942454Y-77775947D01*
X71067953Y-77901446D01*
X71166556Y-78049016D01*
X71234476Y-78212988D01*
X71262182Y-78352277D01*
X71268396Y-78383517D01*
X71269100Y-78387059D01*
X71269100Y-78564541D01*
X71234476Y-78738612D01*
X71166556Y-78902584D01*
X71067953Y-79050154D01*
X70942454Y-79175653D01*
X70794884Y-79274256D01*
X70630912Y-79342176D01*
X70481612Y-79371873D01*
X70456842Y-79376800D01*
X70279358Y-79376800D01*
X70254588Y-79371873D01*
X70105288Y-79342176D01*
X69941316Y-79274256D01*
X69793746Y-79175653D01*
X69668247Y-79050154D01*
X69569644Y-78902584D01*
X69501724Y-78738612D01*
X69467100Y-78564541D01*
X69467100Y-78387059D01*
X69467805Y-78383517D01*
X69474018Y-78352277D01*
X69501724Y-78212988D01*
X69569644Y-78049016D01*
X69668247Y-77901446D01*
X69793746Y-77775947D01*
X69941316Y-77677344D01*
X70105288Y-77609424D01*
X70254588Y-77579727D01*
X70279358Y-77574800D01*
X70456842Y-77574800D01*
X70481612Y-77579727D01*
G37*
G36*
X75142512Y-77561927D02*
G01*
X75291812Y-77591624D01*
X75455784Y-77659544D01*
X75603354Y-77758147D01*
X75728853Y-77883646D01*
X75827456Y-78031216D01*
X75895376Y-78195188D01*
X75911905Y-78278288D01*
X75930000Y-78369258D01*
X75930000Y-78546742D01*
X75926459Y-78564542D01*
X75895376Y-78720812D01*
X75827456Y-78884784D01*
X75728853Y-79032354D01*
X75603354Y-79157853D01*
X75455784Y-79256456D01*
X75291812Y-79324376D01*
X75142512Y-79354073D01*
X75117742Y-79359000D01*
X74940258Y-79359000D01*
X74915488Y-79354073D01*
X74766188Y-79324376D01*
X74602216Y-79256456D01*
X74454646Y-79157853D01*
X74329147Y-79032354D01*
X74230544Y-78884784D01*
X74162624Y-78720812D01*
X74131541Y-78564542D01*
X74128000Y-78546742D01*
X74128000Y-78369258D01*
X74146095Y-78278288D01*
X74162624Y-78195188D01*
X74230544Y-78031216D01*
X74329147Y-77883646D01*
X74454646Y-77758147D01*
X74602216Y-77659544D01*
X74766188Y-77591624D01*
X74915488Y-77561927D01*
X74940258Y-77557000D01*
X75117742Y-77557000D01*
X75142512Y-77561927D01*
G37*
G36*
X91136568Y-76947065D02*
G01*
X91175238Y-76958796D01*
X91210877Y-76977846D01*
X91242117Y-77003483D01*
X91267754Y-77034723D01*
X91286804Y-77070362D01*
X91298535Y-77109032D01*
X91303100Y-77155388D01*
X91303100Y-78231612D01*
X91298535Y-78277968D01*
X91286804Y-78316638D01*
X91267754Y-78352277D01*
X91242117Y-78383517D01*
X91210877Y-78409154D01*
X91175238Y-78428204D01*
X91136568Y-78439935D01*
X91090212Y-78444500D01*
X90438988Y-78444500D01*
X90392632Y-78439935D01*
X90353962Y-78428204D01*
X90318323Y-78409154D01*
X90287083Y-78383517D01*
X90261446Y-78352277D01*
X90242396Y-78316638D01*
X90230665Y-78277968D01*
X90226100Y-78231612D01*
X90226100Y-77155388D01*
X90230665Y-77109032D01*
X90242396Y-77070362D01*
X90261446Y-77034723D01*
X90287083Y-77003483D01*
X90318323Y-76977846D01*
X90353962Y-76958796D01*
X90392632Y-76947065D01*
X90438988Y-76942500D01*
X91090212Y-76942500D01*
X91136568Y-76947065D01*
G37*
G36*
X87631368Y-76947065D02*
G01*
X87670038Y-76958796D01*
X87705677Y-76977846D01*
X87736917Y-77003483D01*
X87762554Y-77034723D01*
X87781604Y-77070362D01*
X87793335Y-77109032D01*
X87797900Y-77155388D01*
X87797900Y-78231612D01*
X87793335Y-78277968D01*
X87781604Y-78316638D01*
X87762554Y-78352277D01*
X87736917Y-78383517D01*
X87705677Y-78409154D01*
X87670038Y-78428204D01*
X87631368Y-78439935D01*
X87585012Y-78444500D01*
X86933788Y-78444500D01*
X86887432Y-78439935D01*
X86848762Y-78428204D01*
X86813123Y-78409154D01*
X86781883Y-78383517D01*
X86756246Y-78352277D01*
X86737196Y-78316638D01*
X86725465Y-78277968D01*
X86720900Y-78231612D01*
X86720900Y-77155388D01*
X86725465Y-77109032D01*
X86737196Y-77070362D01*
X86756246Y-77034723D01*
X86781883Y-77003483D01*
X86813123Y-76977846D01*
X86848762Y-76958796D01*
X86887432Y-76947065D01*
X86933788Y-76942500D01*
X87585012Y-76942500D01*
X87631368Y-76947065D01*
G37*
G36*
X85756368Y-76947065D02*
G01*
X85795038Y-76958796D01*
X85830677Y-76977846D01*
X85861917Y-77003483D01*
X85887554Y-77034723D01*
X85906604Y-77070362D01*
X85918335Y-77109032D01*
X85922900Y-77155388D01*
X85922900Y-78231612D01*
X85918335Y-78277968D01*
X85906604Y-78316638D01*
X85887554Y-78352277D01*
X85861917Y-78383517D01*
X85830677Y-78409154D01*
X85795038Y-78428204D01*
X85756368Y-78439935D01*
X85710012Y-78444500D01*
X85058788Y-78444500D01*
X85012432Y-78439935D01*
X84973762Y-78428204D01*
X84938123Y-78409154D01*
X84906883Y-78383517D01*
X84881246Y-78352277D01*
X84862196Y-78316638D01*
X84850465Y-78277968D01*
X84845900Y-78231612D01*
X84845900Y-77155388D01*
X84850465Y-77109032D01*
X84862196Y-77070362D01*
X84881246Y-77034723D01*
X84906883Y-77003483D01*
X84938123Y-76977846D01*
X84973762Y-76958796D01*
X85012432Y-76947065D01*
X85058788Y-76942500D01*
X85710012Y-76942500D01*
X85756368Y-76947065D01*
G37*
G36*
X89261568Y-76947065D02*
G01*
X89300238Y-76958796D01*
X89335877Y-76977846D01*
X89367117Y-77003483D01*
X89392754Y-77034723D01*
X89411804Y-77070362D01*
X89423535Y-77109032D01*
X89428100Y-77155388D01*
X89428100Y-78231612D01*
X89423535Y-78277968D01*
X89411804Y-78316638D01*
X89392754Y-78352277D01*
X89367117Y-78383517D01*
X89335877Y-78409154D01*
X89300238Y-78428204D01*
X89261568Y-78439935D01*
X89215212Y-78444500D01*
X88563988Y-78444500D01*
X88517632Y-78439935D01*
X88478962Y-78428204D01*
X88443323Y-78409154D01*
X88412083Y-78383517D01*
X88386446Y-78352277D01*
X88367396Y-78316638D01*
X88355665Y-78277968D01*
X88351100Y-78231612D01*
X88351100Y-77155388D01*
X88355665Y-77109032D01*
X88367396Y-77070362D01*
X88386446Y-77034723D01*
X88412083Y-77003483D01*
X88443323Y-76977846D01*
X88478962Y-76958796D01*
X88517632Y-76947065D01*
X88563988Y-76942500D01*
X89215212Y-76942500D01*
X89261568Y-76947065D01*
G37*
G36*
X71269100Y-76836800D02*
G01*
X69467100Y-76836800D01*
X69467100Y-75034800D01*
X71269100Y-75034800D01*
X71269100Y-76836800D01*
G37*
G36*
X75930000Y-76819000D02*
G01*
X74128000Y-76819000D01*
X74128000Y-75017000D01*
X75930000Y-75017000D01*
X75930000Y-76819000D01*
G37*
G36*
X91562800Y-75441000D02*
G01*
X89960800Y-75441000D01*
X89960800Y-74739000D01*
X91562800Y-74739000D01*
X91562800Y-75441000D01*
G37*
G36*
X86162800Y-75441000D02*
G01*
X84560800Y-75441000D01*
X84560800Y-74739000D01*
X86162800Y-74739000D01*
X86162800Y-75441000D01*
G37*
G36*
X62124100Y-74247200D02*
G01*
X53522100Y-74247200D01*
X53522100Y-72345200D01*
X62124100Y-72345200D01*
X62124100Y-74247200D01*
G37*
G36*
X86162800Y-74171000D02*
G01*
X84560800Y-74171000D01*
X84560800Y-73469000D01*
X86162800Y-73469000D01*
X86162800Y-74171000D01*
G37*
G36*
X91562800Y-74171000D02*
G01*
X89960800Y-74171000D01*
X89960800Y-73469000D01*
X91562800Y-73469000D01*
X91562800Y-74171000D01*
G37*
G36*
X91562800Y-72901000D02*
G01*
X89960800Y-72901000D01*
X89960800Y-72199000D01*
X91562800Y-72199000D01*
X91562800Y-72901000D01*
G37*
G36*
X86162800Y-72901000D02*
G01*
X84560800Y-72901000D01*
X84560800Y-72199000D01*
X86162800Y-72199000D01*
X86162800Y-72901000D01*
G37*
G36*
X86162800Y-71631000D02*
G01*
X84560800Y-71631000D01*
X84560800Y-70929000D01*
X86162800Y-70929000D01*
X86162800Y-71631000D01*
G37*
G36*
X91562800Y-71631000D02*
G01*
X89960800Y-71631000D01*
X89960800Y-70929000D01*
X91562800Y-70929000D01*
X91562800Y-71631000D01*
G37*
G36*
X59518168Y-70066165D02*
G01*
X59556838Y-70077896D01*
X59592477Y-70096946D01*
X59623717Y-70122583D01*
X59649354Y-70153823D01*
X59668404Y-70189462D01*
X59680135Y-70228132D01*
X59684700Y-70274488D01*
X59684700Y-71350712D01*
X59680135Y-71397068D01*
X59668404Y-71435738D01*
X59649354Y-71471377D01*
X59623717Y-71502617D01*
X59592477Y-71528254D01*
X59556838Y-71547304D01*
X59518168Y-71559035D01*
X59471812Y-71563600D01*
X58820588Y-71563600D01*
X58774232Y-71559035D01*
X58735562Y-71547304D01*
X58699923Y-71528254D01*
X58668683Y-71502617D01*
X58643046Y-71471377D01*
X58623996Y-71435738D01*
X58612265Y-71397068D01*
X58607700Y-71350712D01*
X58607700Y-70274488D01*
X58612265Y-70228132D01*
X58623996Y-70189462D01*
X58643046Y-70153823D01*
X58668683Y-70122583D01*
X58699923Y-70096946D01*
X58735562Y-70077896D01*
X58774232Y-70066165D01*
X58820588Y-70061600D01*
X59471812Y-70061600D01*
X59518168Y-70066165D01*
G37*
G36*
X61393168Y-70066165D02*
G01*
X61431838Y-70077896D01*
X61467477Y-70096946D01*
X61498717Y-70122583D01*
X61524354Y-70153823D01*
X61543404Y-70189462D01*
X61555135Y-70228132D01*
X61559700Y-70274488D01*
X61559700Y-71350712D01*
X61555135Y-71397068D01*
X61543404Y-71435738D01*
X61524354Y-71471377D01*
X61498717Y-71502617D01*
X61467477Y-71528254D01*
X61431838Y-71547304D01*
X61393168Y-71559035D01*
X61346812Y-71563600D01*
X60695588Y-71563600D01*
X60649232Y-71559035D01*
X60610562Y-71547304D01*
X60574923Y-71528254D01*
X60543683Y-71502617D01*
X60518046Y-71471377D01*
X60498996Y-71435738D01*
X60487265Y-71397068D01*
X60482700Y-71350712D01*
X60482700Y-70274488D01*
X60487265Y-70228132D01*
X60498996Y-70189462D01*
X60518046Y-70153823D01*
X60543683Y-70122583D01*
X60574923Y-70096946D01*
X60610562Y-70077896D01*
X60649232Y-70066165D01*
X60695588Y-70061600D01*
X61346812Y-70061600D01*
X61393168Y-70066165D01*
G37*
G36*
X86162800Y-70361000D02*
G01*
X84560800Y-70361000D01*
X84560800Y-69659000D01*
X86162800Y-69659000D01*
X86162800Y-70361000D01*
G37*
G36*
X91562800Y-70361000D02*
G01*
X89960800Y-70361000D01*
X89960800Y-69659000D01*
X91562800Y-69659000D01*
X91562800Y-70361000D01*
G37*
G36*
X52333291Y-68825185D02*
G01*
X52367269Y-68835493D01*
X52398590Y-68852234D01*
X52426039Y-68874761D01*
X52448566Y-68902210D01*
X52465307Y-68933531D01*
X52475615Y-68967509D01*
X52479700Y-69008990D01*
X52479700Y-69685210D01*
X52475615Y-69726691D01*
X52465307Y-69760669D01*
X52448566Y-69791990D01*
X52426039Y-69819439D01*
X52398590Y-69841966D01*
X52367269Y-69858707D01*
X52333291Y-69869015D01*
X52291810Y-69873100D01*
X51690590Y-69873100D01*
X51649109Y-69869015D01*
X51615131Y-69858707D01*
X51583810Y-69841966D01*
X51556361Y-69819439D01*
X51533834Y-69791990D01*
X51517093Y-69760669D01*
X51506785Y-69726691D01*
X51502700Y-69685210D01*
X51502700Y-69008990D01*
X51506785Y-68967509D01*
X51517093Y-68933531D01*
X51533834Y-68902210D01*
X51556361Y-68874761D01*
X51583810Y-68852234D01*
X51615131Y-68835493D01*
X51649109Y-68825185D01*
X51690590Y-68821100D01*
X52291810Y-68821100D01*
X52333291Y-68825185D01*
G37*
G36*
X53908291Y-68825185D02*
G01*
X53942269Y-68835493D01*
X53973590Y-68852234D01*
X54001039Y-68874761D01*
X54023566Y-68902210D01*
X54040307Y-68933531D01*
X54050615Y-68967509D01*
X54054700Y-69008990D01*
X54054700Y-69685210D01*
X54050615Y-69726691D01*
X54040307Y-69760669D01*
X54023566Y-69791990D01*
X54001039Y-69819439D01*
X53973590Y-69841966D01*
X53942269Y-69858707D01*
X53908291Y-69869015D01*
X53866810Y-69873100D01*
X53265590Y-69873100D01*
X53224109Y-69869015D01*
X53190131Y-69858707D01*
X53158810Y-69841966D01*
X53131361Y-69819439D01*
X53108834Y-69791990D01*
X53092093Y-69760669D01*
X53081785Y-69726691D01*
X53077700Y-69685210D01*
X53077700Y-69008990D01*
X53081785Y-68967509D01*
X53092093Y-68933531D01*
X53108834Y-68902210D01*
X53131361Y-68874761D01*
X53158810Y-68852234D01*
X53190131Y-68835493D01*
X53224109Y-68825185D01*
X53265590Y-68821100D01*
X53866810Y-68821100D01*
X53908291Y-68825185D01*
G37*
G36*
X86162800Y-69091000D02*
G01*
X84560800Y-69091000D01*
X84560800Y-68389000D01*
X86162800Y-68389000D01*
X86162800Y-69091000D01*
G37*
G36*
X91562800Y-69091000D02*
G01*
X89960800Y-69091000D01*
X89960800Y-68389000D01*
X91562800Y-68389000D01*
X91562800Y-69091000D01*
G37*
G36*
X52328191Y-67263085D02*
G01*
X52362169Y-67273393D01*
X52393490Y-67290134D01*
X52420939Y-67312661D01*
X52443466Y-67340110D01*
X52460207Y-67371431D01*
X52470515Y-67405409D01*
X52474600Y-67446890D01*
X52474600Y-68123110D01*
X52470515Y-68164591D01*
X52460207Y-68198569D01*
X52443466Y-68229890D01*
X52420939Y-68257339D01*
X52393490Y-68279866D01*
X52362169Y-68296607D01*
X52328191Y-68306915D01*
X52286710Y-68311000D01*
X51685490Y-68311000D01*
X51644009Y-68306915D01*
X51610031Y-68296607D01*
X51578710Y-68279866D01*
X51551261Y-68257339D01*
X51528734Y-68229890D01*
X51511993Y-68198569D01*
X51501685Y-68164591D01*
X51497600Y-68123110D01*
X51497600Y-67446890D01*
X51501685Y-67405409D01*
X51511993Y-67371431D01*
X51528734Y-67340110D01*
X51551261Y-67312661D01*
X51578710Y-67290134D01*
X51610031Y-67273393D01*
X51644009Y-67263085D01*
X51685490Y-67259000D01*
X52286710Y-67259000D01*
X52328191Y-67263085D01*
G37*
G36*
X53903191Y-67263085D02*
G01*
X53937169Y-67273393D01*
X53968490Y-67290134D01*
X53995939Y-67312661D01*
X54018466Y-67340110D01*
X54035207Y-67371431D01*
X54045515Y-67405409D01*
X54049600Y-67446890D01*
X54049600Y-68123110D01*
X54045515Y-68164591D01*
X54035207Y-68198569D01*
X54018466Y-68229890D01*
X53995939Y-68257339D01*
X53968490Y-68279866D01*
X53937169Y-68296607D01*
X53903191Y-68306915D01*
X53861710Y-68311000D01*
X53260490Y-68311000D01*
X53219009Y-68306915D01*
X53185031Y-68296607D01*
X53153710Y-68279866D01*
X53126261Y-68257339D01*
X53103734Y-68229890D01*
X53086993Y-68198569D01*
X53076685Y-68164591D01*
X53072600Y-68123110D01*
X53072600Y-67446890D01*
X53076685Y-67405409D01*
X53086993Y-67371431D01*
X53103734Y-67340110D01*
X53126261Y-67312661D01*
X53153710Y-67290134D01*
X53185031Y-67273393D01*
X53219009Y-67263085D01*
X53260490Y-67259000D01*
X53861710Y-67259000D01*
X53903191Y-67263085D01*
G37*
G36*
X86162800Y-67821000D02*
G01*
X84560800Y-67821000D01*
X84560800Y-67119000D01*
X86162800Y-67119000D01*
X86162800Y-67821000D01*
G37*
G36*
X91562800Y-67821000D02*
G01*
X89960800Y-67821000D01*
X89960800Y-67119000D01*
X91562800Y-67119000D01*
X91562800Y-67821000D01*
G37*
G36*
X101965200Y-67339800D02*
G01*
X100163200Y-67339800D01*
X100163200Y-65237800D01*
X101965200Y-65237800D01*
X101965200Y-67339800D01*
G37*
G36*
X96515200Y-67339800D02*
G01*
X94713200Y-67339800D01*
X94713200Y-65237800D01*
X96515200Y-65237800D01*
X96515200Y-67339800D01*
G37*
G36*
X32946095Y-64442656D02*
G01*
X33052450Y-64463811D01*
X33252820Y-64546807D01*
X33433144Y-64667295D01*
X33586505Y-64820656D01*
X33706993Y-65000980D01*
X33706993Y-65000981D01*
X33774069Y-65162915D01*
X33789989Y-65201351D01*
X33832300Y-65414060D01*
X33832300Y-65630940D01*
X33789989Y-65843649D01*
X33706993Y-66044020D01*
X33586505Y-66224344D01*
X33433144Y-66377705D01*
X33252820Y-66498193D01*
X33152634Y-66539691D01*
X33052450Y-66581189D01*
X32946094Y-66602345D01*
X32839740Y-66623500D01*
X32622860Y-66623500D01*
X32516506Y-66602345D01*
X32410150Y-66581189D01*
X32309966Y-66539691D01*
X32209780Y-66498193D01*
X32029456Y-66377705D01*
X31876095Y-66224344D01*
X31755607Y-66044020D01*
X31672611Y-65843649D01*
X31630300Y-65630940D01*
X31630300Y-65414060D01*
X31672611Y-65201351D01*
X31688532Y-65162915D01*
X31755607Y-65000981D01*
X31755607Y-65000980D01*
X31876095Y-64820656D01*
X32029456Y-64667295D01*
X32209780Y-64546807D01*
X32410150Y-64463811D01*
X32516505Y-64442656D01*
X32622860Y-64421500D01*
X32839740Y-64421500D01*
X32946095Y-64442656D01*
G37*
G36*
X91562800Y-66551000D02*
G01*
X89960800Y-66551000D01*
X89960800Y-65849000D01*
X91562800Y-65849000D01*
X91562800Y-66551000D01*
G37*
G36*
X86162800Y-66551000D02*
G01*
X84560800Y-66551000D01*
X84560800Y-65849000D01*
X86162800Y-65849000D01*
X86162800Y-66551000D01*
G37*
G36*
X30511404Y-63382085D02*
G01*
X30679926Y-63451889D01*
X30831591Y-63553228D01*
X30960572Y-63682209D01*
X31061911Y-63833874D01*
X31131715Y-64002396D01*
X31167300Y-64181297D01*
X31167300Y-64363703D01*
X31131715Y-64542604D01*
X31061911Y-64711126D01*
X30960572Y-64862791D01*
X30831591Y-64991772D01*
X30679926Y-65093111D01*
X30511404Y-65162915D01*
X30332503Y-65198500D01*
X30150097Y-65198500D01*
X29971196Y-65162915D01*
X29802674Y-65093111D01*
X29651009Y-64991772D01*
X29522028Y-64862791D01*
X29420689Y-64711126D01*
X29350885Y-64542604D01*
X29315300Y-64363703D01*
X29315300Y-64181297D01*
X29350885Y-64002396D01*
X29420689Y-63833874D01*
X29522028Y-63682209D01*
X29651009Y-63553228D01*
X29802674Y-63451889D01*
X29971196Y-63382085D01*
X30150097Y-63346500D01*
X30332503Y-63346500D01*
X30511404Y-63382085D01*
G37*
G36*
X98374921Y-63508974D02*
G01*
X98475195Y-63550509D01*
X98520012Y-63580455D01*
X98565442Y-63610810D01*
X98642190Y-63687558D01*
X98642191Y-63687560D01*
X98702491Y-63777805D01*
X98744026Y-63878079D01*
X98765200Y-63984530D01*
X98765200Y-64093070D01*
X98744026Y-64199521D01*
X98702491Y-64299795D01*
X98702490Y-64299796D01*
X98642190Y-64390042D01*
X98565442Y-64466790D01*
X98520012Y-64497145D01*
X98475195Y-64527091D01*
X98374921Y-64568626D01*
X98268470Y-64589800D01*
X98159930Y-64589800D01*
X98053479Y-64568626D01*
X97953205Y-64527091D01*
X97908388Y-64497145D01*
X97862958Y-64466790D01*
X97786210Y-64390042D01*
X97725910Y-64299796D01*
X97725909Y-64299795D01*
X97684374Y-64199521D01*
X97663200Y-64093070D01*
X97663200Y-63984530D01*
X97684374Y-63878079D01*
X97725909Y-63777805D01*
X97786209Y-63687560D01*
X97786210Y-63687558D01*
X97862958Y-63610810D01*
X97908388Y-63580455D01*
X97953205Y-63550509D01*
X98053479Y-63508974D01*
X98159930Y-63487800D01*
X98268470Y-63487800D01*
X98374921Y-63508974D01*
G37*
G36*
X90962800Y-63895000D02*
G01*
X88860800Y-63895000D01*
X88860800Y-61393000D01*
X90962800Y-61393000D01*
X90962800Y-63895000D01*
G37*
G36*
X87262800Y-63895000D02*
G01*
X85160800Y-63895000D01*
X85160800Y-61393000D01*
X87262800Y-61393000D01*
X87262800Y-63895000D01*
G37*
G36*
X96565200Y-63739800D02*
G01*
X94463200Y-63739800D01*
X94463200Y-59937800D01*
X96565200Y-59937800D01*
X96565200Y-63739800D01*
G37*
G36*
X30511404Y-58882085D02*
G01*
X30679926Y-58951889D01*
X30831591Y-59053228D01*
X30960572Y-59182209D01*
X31061911Y-59333874D01*
X31131715Y-59502396D01*
X31167300Y-59681297D01*
X31167300Y-59863703D01*
X31131715Y-60042604D01*
X31061911Y-60211126D01*
X30960572Y-60362791D01*
X30831591Y-60491772D01*
X30679926Y-60593111D01*
X30511404Y-60662915D01*
X30332503Y-60698500D01*
X30150097Y-60698500D01*
X29971196Y-60662915D01*
X29802674Y-60593111D01*
X29651009Y-60491772D01*
X29522028Y-60362791D01*
X29420689Y-60211126D01*
X29350885Y-60042604D01*
X29315300Y-59863703D01*
X29315300Y-59681297D01*
X29350885Y-59502396D01*
X29420689Y-59333874D01*
X29522028Y-59182209D01*
X29651009Y-59053228D01*
X29802674Y-58951889D01*
X29971196Y-58882085D01*
X30150097Y-58846500D01*
X30332503Y-58846500D01*
X30511404Y-58882085D01*
G37*
G36*
X98374921Y-59108974D02*
G01*
X98475195Y-59150509D01*
X98475196Y-59150510D01*
X98565442Y-59210810D01*
X98642190Y-59287558D01*
X98642191Y-59287560D01*
X98702491Y-59377805D01*
X98744026Y-59478079D01*
X98765200Y-59584530D01*
X98765200Y-59693070D01*
X98744026Y-59799521D01*
X98702491Y-59899795D01*
X98702490Y-59899796D01*
X98642190Y-59990042D01*
X98565442Y-60066790D01*
X98553340Y-60074876D01*
X98475195Y-60127091D01*
X98374921Y-60168626D01*
X98268470Y-60189800D01*
X98159930Y-60189800D01*
X98053479Y-60168626D01*
X97953205Y-60127091D01*
X97875060Y-60074876D01*
X97862958Y-60066790D01*
X97786210Y-59990042D01*
X97725910Y-59899796D01*
X97725909Y-59899795D01*
X97684374Y-59799521D01*
X97663200Y-59693070D01*
X97663200Y-59584530D01*
X97684374Y-59478079D01*
X97725909Y-59377805D01*
X97786209Y-59287560D01*
X97786210Y-59287558D01*
X97862958Y-59210810D01*
X97953204Y-59150510D01*
X97953205Y-59150509D01*
X98053479Y-59108974D01*
X98159930Y-59087800D01*
X98268470Y-59087800D01*
X98374921Y-59108974D01*
G37*
G36*
X90200738Y-59354716D02*
G01*
X90221357Y-59360971D01*
X90240353Y-59371124D01*
X90257008Y-59384792D01*
X90270676Y-59401447D01*
X90280829Y-59420443D01*
X90287084Y-59441062D01*
X90289800Y-59468640D01*
X90289800Y-59977360D01*
X90287084Y-60004938D01*
X90280829Y-60025557D01*
X90270676Y-60044553D01*
X90257008Y-60061208D01*
X90240353Y-60074876D01*
X90221357Y-60085029D01*
X90200738Y-60091284D01*
X90173160Y-60094000D01*
X89714440Y-60094000D01*
X89686862Y-60091284D01*
X89666243Y-60085029D01*
X89647247Y-60074876D01*
X89630592Y-60061208D01*
X89616924Y-60044553D01*
X89606771Y-60025557D01*
X89600516Y-60004938D01*
X89597800Y-59977360D01*
X89597800Y-59468640D01*
X89600516Y-59441062D01*
X89606771Y-59420443D01*
X89616924Y-59401447D01*
X89630592Y-59384792D01*
X89647247Y-59371124D01*
X89666243Y-59360971D01*
X89686862Y-59354716D01*
X89714440Y-59352000D01*
X90173160Y-59352000D01*
X90200738Y-59354716D01*
G37*
G36*
X89230738Y-59354716D02*
G01*
X89251357Y-59360971D01*
X89270353Y-59371124D01*
X89287008Y-59384792D01*
X89300676Y-59401447D01*
X89310829Y-59420443D01*
X89317084Y-59441062D01*
X89319800Y-59468640D01*
X89319800Y-59977360D01*
X89317084Y-60004938D01*
X89310829Y-60025557D01*
X89300676Y-60044553D01*
X89287008Y-60061208D01*
X89270353Y-60074876D01*
X89251357Y-60085029D01*
X89230738Y-60091284D01*
X89203160Y-60094000D01*
X88744440Y-60094000D01*
X88716862Y-60091284D01*
X88696243Y-60085029D01*
X88677247Y-60074876D01*
X88660592Y-60061208D01*
X88646924Y-60044553D01*
X88636771Y-60025557D01*
X88630516Y-60004938D01*
X88627800Y-59977360D01*
X88627800Y-59468640D01*
X88630516Y-59441062D01*
X88636771Y-59420443D01*
X88646924Y-59401447D01*
X88660592Y-59384792D01*
X88677247Y-59371124D01*
X88696243Y-59360971D01*
X88716862Y-59354716D01*
X88744440Y-59352000D01*
X89203160Y-59352000D01*
X89230738Y-59354716D01*
G37*
G36*
X86500238Y-59354716D02*
G01*
X86520857Y-59360971D01*
X86539853Y-59371124D01*
X86556508Y-59384792D01*
X86570176Y-59401447D01*
X86580329Y-59420443D01*
X86586584Y-59441062D01*
X86589300Y-59468640D01*
X86589300Y-59977360D01*
X86586584Y-60004938D01*
X86580329Y-60025557D01*
X86570176Y-60044553D01*
X86556508Y-60061208D01*
X86539853Y-60074876D01*
X86520857Y-60085029D01*
X86500238Y-60091284D01*
X86472660Y-60094000D01*
X86013940Y-60094000D01*
X85986362Y-60091284D01*
X85965743Y-60085029D01*
X85946747Y-60074876D01*
X85930092Y-60061208D01*
X85916424Y-60044553D01*
X85906271Y-60025557D01*
X85900016Y-60004938D01*
X85897300Y-59977360D01*
X85897300Y-59468640D01*
X85900016Y-59441062D01*
X85906271Y-59420443D01*
X85916424Y-59401447D01*
X85930092Y-59384792D01*
X85946747Y-59371124D01*
X85965743Y-59360971D01*
X85986362Y-59354716D01*
X86013940Y-59352000D01*
X86472660Y-59352000D01*
X86500238Y-59354716D01*
G37*
G36*
X87470238Y-59354716D02*
G01*
X87490857Y-59360971D01*
X87509853Y-59371124D01*
X87526508Y-59384792D01*
X87540176Y-59401447D01*
X87550329Y-59420443D01*
X87556584Y-59441062D01*
X87559300Y-59468640D01*
X87559300Y-59977360D01*
X87556584Y-60004938D01*
X87550329Y-60025557D01*
X87540176Y-60044553D01*
X87526508Y-60061208D01*
X87509853Y-60074876D01*
X87490857Y-60085029D01*
X87470238Y-60091284D01*
X87442660Y-60094000D01*
X86983940Y-60094000D01*
X86956362Y-60091284D01*
X86935743Y-60085029D01*
X86916747Y-60074876D01*
X86900092Y-60061208D01*
X86886424Y-60044553D01*
X86876271Y-60025557D01*
X86870016Y-60004938D01*
X86867300Y-59977360D01*
X86867300Y-59468640D01*
X86870016Y-59441062D01*
X86876271Y-59420443D01*
X86886424Y-59401447D01*
X86900092Y-59384792D01*
X86916747Y-59371124D01*
X86935743Y-59360971D01*
X86956362Y-59354716D01*
X86983940Y-59352000D01*
X87442660Y-59352000D01*
X87470238Y-59354716D01*
G37*
G36*
X32946094Y-57432655D02*
G01*
X33052450Y-57453811D01*
X33152634Y-57495309D01*
X33252820Y-57536807D01*
X33433144Y-57657295D01*
X33586505Y-57810656D01*
X33706993Y-57990980D01*
X33789989Y-58191351D01*
X33832300Y-58404060D01*
X33832300Y-58620940D01*
X33789989Y-58833649D01*
X33706993Y-59034020D01*
X33586505Y-59214344D01*
X33433144Y-59367705D01*
X33252820Y-59488193D01*
X33218528Y-59502397D01*
X33052450Y-59571189D01*
X32985375Y-59584531D01*
X32839740Y-59613500D01*
X32622860Y-59613500D01*
X32477225Y-59584531D01*
X32410150Y-59571189D01*
X32244072Y-59502397D01*
X32209780Y-59488193D01*
X32029456Y-59367705D01*
X31876095Y-59214344D01*
X31755607Y-59034020D01*
X31672611Y-58833649D01*
X31630300Y-58620940D01*
X31630300Y-58404060D01*
X31672611Y-58191351D01*
X31755607Y-57990980D01*
X31876095Y-57810656D01*
X32029456Y-57657295D01*
X32209780Y-57536807D01*
X32309966Y-57495309D01*
X32410150Y-57453811D01*
X32516506Y-57432655D01*
X32622860Y-57411500D01*
X32839740Y-57411500D01*
X32946094Y-57432655D01*
G37*
G36*
X101965200Y-58439800D02*
G01*
X100163200Y-58439800D01*
X100163200Y-56337800D01*
X101965200Y-56337800D01*
X101965200Y-58439800D01*
G37*
G36*
X96515200Y-58439800D02*
G01*
X94713200Y-58439800D01*
X94713200Y-56337800D01*
X96515200Y-56337800D01*
X96515200Y-58439800D01*
G37*
G36*
X32961294Y-52442655D02*
G01*
X33067650Y-52463811D01*
X33167834Y-52505309D01*
X33268020Y-52546807D01*
X33448344Y-52667295D01*
X33601705Y-52820656D01*
X33722193Y-53000980D01*
X33722193Y-53000981D01*
X33789269Y-53162915D01*
X33805189Y-53201351D01*
X33847500Y-53414060D01*
X33847500Y-53630940D01*
X33805189Y-53843649D01*
X33722193Y-54044020D01*
X33601705Y-54224344D01*
X33448344Y-54377705D01*
X33268020Y-54498193D01*
X33067650Y-54581189D01*
X32961295Y-54602344D01*
X32854940Y-54623500D01*
X32638060Y-54623500D01*
X32531705Y-54602344D01*
X32425350Y-54581189D01*
X32325166Y-54539691D01*
X32224980Y-54498193D01*
X32044656Y-54377705D01*
X31891295Y-54224344D01*
X31770807Y-54044020D01*
X31687811Y-53843649D01*
X31645500Y-53630940D01*
X31645500Y-53414060D01*
X31687811Y-53201351D01*
X31703732Y-53162915D01*
X31770807Y-53000981D01*
X31770807Y-53000980D01*
X31891295Y-52820656D01*
X32044656Y-52667295D01*
X32224980Y-52546807D01*
X32325166Y-52505309D01*
X32425350Y-52463811D01*
X32531706Y-52442655D01*
X32638060Y-52421500D01*
X32854940Y-52421500D01*
X32961294Y-52442655D01*
G37*
G36*
X30526604Y-51382085D02*
G01*
X30695126Y-51451889D01*
X30846791Y-51553228D01*
X30975772Y-51682209D01*
X31077111Y-51833874D01*
X31146915Y-52002396D01*
X31182500Y-52181297D01*
X31182500Y-52363703D01*
X31146915Y-52542604D01*
X31077111Y-52711126D01*
X30975772Y-52862791D01*
X30846791Y-52991772D01*
X30695126Y-53093111D01*
X30526604Y-53162915D01*
X30347703Y-53198500D01*
X30165297Y-53198500D01*
X29986396Y-53162915D01*
X29817874Y-53093111D01*
X29666209Y-52991772D01*
X29537228Y-52862791D01*
X29435889Y-52711126D01*
X29366085Y-52542604D01*
X29330500Y-52363703D01*
X29330500Y-52181297D01*
X29366085Y-52002396D01*
X29435889Y-51833874D01*
X29537228Y-51682209D01*
X29666209Y-51553228D01*
X29817874Y-51451889D01*
X29986396Y-51382085D01*
X30165297Y-51346500D01*
X30347703Y-51346500D01*
X30526604Y-51382085D01*
G37*
G36*
X85329400Y-51978600D02*
G01*
X84227400Y-51978600D01*
X84227400Y-48876600D01*
X85329400Y-48876600D01*
X85329400Y-51978600D01*
G37*
G36*
X83829400Y-51978600D02*
G01*
X82727400Y-51978600D01*
X82727400Y-48876600D01*
X83829400Y-48876600D01*
X83829400Y-51978600D01*
G37*
G36*
X82329400Y-51978600D02*
G01*
X81227400Y-51978600D01*
X81227400Y-48876600D01*
X82329400Y-48876600D01*
X82329400Y-51978600D01*
G37*
G36*
X80829400Y-51978600D02*
G01*
X79727400Y-51978600D01*
X79727400Y-48876600D01*
X80829400Y-48876600D01*
X80829400Y-51978600D01*
G37*
G36*
X79329400Y-51978600D02*
G01*
X78227400Y-51978600D01*
X78227400Y-48876600D01*
X79329400Y-48876600D01*
X79329400Y-51978600D01*
G37*
G36*
X77829400Y-51978600D02*
G01*
X76727400Y-51978600D01*
X76727400Y-48876600D01*
X77829400Y-48876600D01*
X77829400Y-51978600D01*
G37*
G36*
X76329400Y-51978600D02*
G01*
X75227400Y-51978600D01*
X75227400Y-48876600D01*
X76329400Y-48876600D01*
X76329400Y-51978600D01*
G37*
G36*
X62829400Y-51978600D02*
G01*
X61727400Y-51978600D01*
X61727400Y-48876600D01*
X62829400Y-48876600D01*
X62829400Y-51978600D01*
G37*
G36*
X73329400Y-51978600D02*
G01*
X72227400Y-51978600D01*
X72227400Y-48876600D01*
X73329400Y-48876600D01*
X73329400Y-51978600D01*
G37*
G36*
X53829400Y-51978600D02*
G01*
X52727400Y-51978600D01*
X52727400Y-48876600D01*
X53829400Y-48876600D01*
X53829400Y-51978600D01*
G37*
G36*
X71829400Y-51978600D02*
G01*
X70727400Y-51978600D01*
X70727400Y-48876600D01*
X71829400Y-48876600D01*
X71829400Y-51978600D01*
G37*
G36*
X70329400Y-51978600D02*
G01*
X69227400Y-51978600D01*
X69227400Y-48876600D01*
X70329400Y-48876600D01*
X70329400Y-51978600D01*
G37*
G36*
X68829400Y-51978600D02*
G01*
X67727400Y-51978600D01*
X67727400Y-48876600D01*
X68829400Y-48876600D01*
X68829400Y-51978600D01*
G37*
G36*
X67329400Y-51978600D02*
G01*
X66227400Y-51978600D01*
X66227400Y-48876600D01*
X67329400Y-48876600D01*
X67329400Y-51978600D01*
G37*
G36*
X65829400Y-51978600D02*
G01*
X64727400Y-51978600D01*
X64727400Y-48876600D01*
X65829400Y-48876600D01*
X65829400Y-51978600D01*
G37*
G36*
X64329400Y-51978600D02*
G01*
X63227400Y-51978600D01*
X63227400Y-48876600D01*
X64329400Y-48876600D01*
X64329400Y-51978600D01*
G37*
G36*
X50829400Y-51978600D02*
G01*
X49727400Y-51978600D01*
X49727400Y-48876600D01*
X50829400Y-48876600D01*
X50829400Y-51978600D01*
G37*
G36*
X86829400Y-51978600D02*
G01*
X85727400Y-51978600D01*
X85727400Y-48876600D01*
X86829400Y-48876600D01*
X86829400Y-51978600D01*
G37*
G36*
X61329400Y-51978600D02*
G01*
X60227400Y-51978600D01*
X60227400Y-48876600D01*
X61329400Y-48876600D01*
X61329400Y-51978600D01*
G37*
G36*
X91329400Y-51978600D02*
G01*
X90227400Y-51978600D01*
X90227400Y-48876600D01*
X91329400Y-48876600D01*
X91329400Y-51978600D01*
G37*
G36*
X59829400Y-51978600D02*
G01*
X58727400Y-51978600D01*
X58727400Y-48876600D01*
X59829400Y-48876600D01*
X59829400Y-51978600D01*
G37*
G36*
X58329400Y-51978600D02*
G01*
X57227400Y-51978600D01*
X57227400Y-48876600D01*
X58329400Y-48876600D01*
X58329400Y-51978600D01*
G37*
G36*
X56829400Y-51978600D02*
G01*
X55727400Y-51978600D01*
X55727400Y-48876600D01*
X56829400Y-48876600D01*
X56829400Y-51978600D01*
G37*
G36*
X55329400Y-51978600D02*
G01*
X54227400Y-51978600D01*
X54227400Y-48876600D01*
X55329400Y-48876600D01*
X55329400Y-51978600D01*
G37*
G36*
X52329400Y-51978600D02*
G01*
X51227400Y-51978600D01*
X51227400Y-48876600D01*
X52329400Y-48876600D01*
X52329400Y-51978600D01*
G37*
G36*
X49329400Y-51978600D02*
G01*
X48227400Y-51978600D01*
X48227400Y-48876600D01*
X49329400Y-48876600D01*
X49329400Y-51978600D01*
G37*
G36*
X47829400Y-51978600D02*
G01*
X46727400Y-51978600D01*
X46727400Y-48876600D01*
X47829400Y-48876600D01*
X47829400Y-51978600D01*
G37*
G36*
X46329400Y-51978600D02*
G01*
X45227400Y-51978600D01*
X45227400Y-48876600D01*
X46329400Y-48876600D01*
X46329400Y-51978600D01*
G37*
G36*
X44829400Y-51978600D02*
G01*
X43727400Y-51978600D01*
X43727400Y-48876600D01*
X44829400Y-48876600D01*
X44829400Y-51978600D01*
G37*
G36*
X89829400Y-51978600D02*
G01*
X88727400Y-51978600D01*
X88727400Y-48876600D01*
X89829400Y-48876600D01*
X89829400Y-51978600D01*
G37*
G36*
X88329400Y-51978600D02*
G01*
X87227400Y-51978600D01*
X87227400Y-48876600D01*
X88329400Y-48876600D01*
X88329400Y-51978600D01*
G37*
G36*
X74829400Y-51978600D02*
G01*
X73727400Y-51978600D01*
X73727400Y-48876600D01*
X74829400Y-48876600D01*
X74829400Y-51978600D01*
G37*
G36*
X30526604Y-46882085D02*
G01*
X30695126Y-46951889D01*
X30846791Y-47053228D01*
X30975772Y-47182209D01*
X31077111Y-47333874D01*
X31146915Y-47502396D01*
X31182500Y-47681297D01*
X31182500Y-47863703D01*
X31146915Y-48042604D01*
X31077111Y-48211126D01*
X30975772Y-48362791D01*
X30846791Y-48491772D01*
X30695126Y-48593111D01*
X30526604Y-48662915D01*
X30347703Y-48698500D01*
X30165297Y-48698500D01*
X29986396Y-48662915D01*
X29817874Y-48593111D01*
X29666209Y-48491772D01*
X29537228Y-48362791D01*
X29435889Y-48211126D01*
X29366085Y-48042604D01*
X29330500Y-47863703D01*
X29330500Y-47681297D01*
X29366085Y-47502396D01*
X29435889Y-47333874D01*
X29537228Y-47182209D01*
X29666209Y-47053228D01*
X29817874Y-46951889D01*
X29986396Y-46882085D01*
X30165297Y-46846500D01*
X30347703Y-46846500D01*
X30526604Y-46882085D01*
G37*
G36*
X32961294Y-45432655D02*
G01*
X33067650Y-45453811D01*
X33268020Y-45536807D01*
X33448344Y-45657295D01*
X33601705Y-45810656D01*
X33722193Y-45990980D01*
X33805189Y-46191351D01*
X33847500Y-46404060D01*
X33847500Y-46620940D01*
X33805189Y-46833649D01*
X33722193Y-47034020D01*
X33601705Y-47214344D01*
X33448344Y-47367705D01*
X33268020Y-47488193D01*
X33233728Y-47502397D01*
X33067650Y-47571189D01*
X32961294Y-47592345D01*
X32854940Y-47613500D01*
X32638060Y-47613500D01*
X32531706Y-47592345D01*
X32425350Y-47571189D01*
X32259272Y-47502397D01*
X32224980Y-47488193D01*
X32044656Y-47367705D01*
X31891295Y-47214344D01*
X31770807Y-47034020D01*
X31687811Y-46833649D01*
X31645500Y-46620940D01*
X31645500Y-46404060D01*
X31687811Y-46191351D01*
X31770807Y-45990980D01*
X31891295Y-45810656D01*
X32044656Y-45657295D01*
X32224980Y-45536807D01*
X32425350Y-45453811D01*
X32531706Y-45432655D01*
X32638060Y-45411500D01*
X32854940Y-45411500D01*
X32961294Y-45432655D01*
G37*
G36*
X54819764Y-41415689D02*
G01*
X55011033Y-41494915D01*
X55011035Y-41494916D01*
X55183173Y-41609935D01*
X55329565Y-41756327D01*
X55444585Y-41928467D01*
X55523811Y-42119736D01*
X55564200Y-42322784D01*
X55564200Y-42529816D01*
X55523811Y-42732864D01*
X55523272Y-42734165D01*
X55444584Y-42924135D01*
X55329565Y-43096273D01*
X55183173Y-43242665D01*
X55011035Y-43357684D01*
X55011034Y-43357685D01*
X55011033Y-43357685D01*
X54818161Y-43437575D01*
X54611916Y-43478600D01*
X54404884Y-43478600D01*
X54201836Y-43438211D01*
X54010567Y-43358985D01*
X54010566Y-43358985D01*
X54010565Y-43358984D01*
X53838427Y-43243965D01*
X53692035Y-43097573D01*
X53577016Y-42925435D01*
X53577015Y-42925433D01*
X53497789Y-42734164D01*
X53457400Y-42531116D01*
X53457400Y-42324084D01*
X53497789Y-42121036D01*
X53577015Y-41929767D01*
X53577884Y-41928467D01*
X53692035Y-41757627D01*
X53838427Y-41611235D01*
X54010565Y-41496216D01*
X54010567Y-41496215D01*
X54203439Y-41416325D01*
X54409684Y-41375300D01*
X54616716Y-41375300D01*
X54819764Y-41415689D01*
G37*
G36*
X80819764Y-41415689D02*
G01*
X81011033Y-41494915D01*
X81011035Y-41494916D01*
X81183173Y-41609935D01*
X81329565Y-41756327D01*
X81444585Y-41928467D01*
X81523811Y-42119736D01*
X81564200Y-42322784D01*
X81564200Y-42529816D01*
X81523811Y-42732864D01*
X81523272Y-42734165D01*
X81444584Y-42924135D01*
X81329565Y-43096273D01*
X81183173Y-43242665D01*
X81011035Y-43357684D01*
X81011034Y-43357685D01*
X81011033Y-43357685D01*
X80818161Y-43437575D01*
X80611916Y-43478600D01*
X80404884Y-43478600D01*
X80201836Y-43438211D01*
X80010567Y-43358985D01*
X80010566Y-43358985D01*
X80010565Y-43358984D01*
X79838427Y-43243965D01*
X79692035Y-43097573D01*
X79577016Y-42925435D01*
X79577015Y-42925433D01*
X79497789Y-42734164D01*
X79457400Y-42531116D01*
X79457400Y-42324084D01*
X79497789Y-42121036D01*
X79577015Y-41929767D01*
X79577884Y-41928467D01*
X79692035Y-41757627D01*
X79838427Y-41611235D01*
X80010565Y-41496216D01*
X80010567Y-41496215D01*
X80203439Y-41416325D01*
X80409684Y-41375300D01*
X80616716Y-41375300D01*
X80819764Y-41415689D01*
G37*
G36*
X32277656Y-34141798D02*
G01*
X32383979Y-34162947D01*
X32684442Y-34287403D01*
X32954851Y-34468085D01*
X33184815Y-34698049D01*
X33365497Y-34968458D01*
X33489953Y-35268921D01*
X33553400Y-35587891D01*
X33553400Y-35913109D01*
X33489953Y-36232079D01*
X33365497Y-36532542D01*
X33184815Y-36802951D01*
X32954851Y-37032915D01*
X32684442Y-37213597D01*
X32383979Y-37338053D01*
X32277656Y-37359202D01*
X32065011Y-37401500D01*
X31739789Y-37401500D01*
X31527144Y-37359202D01*
X31420821Y-37338053D01*
X31120358Y-37213597D01*
X30849949Y-37032915D01*
X30619985Y-36802951D01*
X30439303Y-36532542D01*
X30314847Y-36232079D01*
X30251400Y-35913109D01*
X30251400Y-35587891D01*
X30314847Y-35268921D01*
X30439303Y-34968458D01*
X30619985Y-34698049D01*
X30849949Y-34468085D01*
X31120358Y-34287403D01*
X31420821Y-34162947D01*
X31527144Y-34141798D01*
X31739789Y-34099500D01*
X32065011Y-34099500D01*
X32277656Y-34141798D01*
G37*
G36*
X56559400Y-31878600D02*
G01*
X52457400Y-31878600D01*
X52457400Y-28776600D01*
X56559400Y-28776600D01*
X56559400Y-31878600D01*
G37*
G36*
X82559400Y-31878600D02*
G01*
X78457400Y-31878600D01*
X78457400Y-28776600D01*
X82559400Y-28776600D01*
X82559400Y-31878600D01*
G37*
G36*
X28929195Y-27026056D02*
G01*
X29035550Y-27047211D01*
X29135734Y-27088709D01*
X29235920Y-27130207D01*
X29416244Y-27250695D01*
X29569605Y-27404056D01*
X29690093Y-27584380D01*
X29690093Y-27584381D01*
X29773089Y-27784750D01*
X29815400Y-27997461D01*
X29815400Y-28214339D01*
X29773089Y-28427050D01*
X29690093Y-28627420D01*
X29569605Y-28807744D01*
X29416244Y-28961105D01*
X29235920Y-29081593D01*
X29135734Y-29123091D01*
X29035550Y-29164589D01*
X28929194Y-29185745D01*
X28822840Y-29206900D01*
X28605960Y-29206900D01*
X28499606Y-29185745D01*
X28393250Y-29164589D01*
X28293066Y-29123091D01*
X28192880Y-29081593D01*
X28012556Y-28961105D01*
X27859195Y-28807744D01*
X27738707Y-28627420D01*
X27655711Y-28427050D01*
X27613400Y-28214339D01*
X27613400Y-27997461D01*
X27655711Y-27784750D01*
X27738707Y-27584381D01*
X27738707Y-27584380D01*
X27859195Y-27404056D01*
X28012556Y-27250695D01*
X28192880Y-27130207D01*
X28293066Y-27088709D01*
X28393250Y-27047211D01*
X28499605Y-27026056D01*
X28605960Y-27004900D01*
X28822840Y-27004900D01*
X28929195Y-27026056D01*
G37*
G36*
X35939195Y-27026056D02*
G01*
X36045550Y-27047211D01*
X36145734Y-27088709D01*
X36245920Y-27130207D01*
X36426244Y-27250695D01*
X36579605Y-27404056D01*
X36700093Y-27584380D01*
X36700093Y-27584381D01*
X36783089Y-27784750D01*
X36825400Y-27997461D01*
X36825400Y-28214339D01*
X36783089Y-28427050D01*
X36700093Y-28627420D01*
X36579605Y-28807744D01*
X36426244Y-28961105D01*
X36245920Y-29081593D01*
X36145734Y-29123091D01*
X36045550Y-29164589D01*
X35939194Y-29185745D01*
X35832840Y-29206900D01*
X35615960Y-29206900D01*
X35509606Y-29185745D01*
X35403250Y-29164589D01*
X35303066Y-29123091D01*
X35202880Y-29081593D01*
X35022556Y-28961105D01*
X34869195Y-28807744D01*
X34748707Y-28627420D01*
X34665711Y-28427050D01*
X34623400Y-28214339D01*
X34623400Y-27997461D01*
X34665711Y-27784750D01*
X34748707Y-27584381D01*
X34748707Y-27584380D01*
X34869195Y-27404056D01*
X35022556Y-27250695D01*
X35202880Y-27130207D01*
X35303066Y-27088709D01*
X35403250Y-27047211D01*
X35509605Y-27026056D01*
X35615960Y-27004900D01*
X35832840Y-27004900D01*
X35939195Y-27026056D01*
G37*
G36*
X100487256Y-25772498D02*
G01*
X100593579Y-25793647D01*
X100894042Y-25918103D01*
X101164451Y-26098785D01*
X101394415Y-26328749D01*
X101466419Y-26436511D01*
X101575098Y-26599160D01*
X101699553Y-26899622D01*
X101745420Y-27130207D01*
X101763000Y-27218591D01*
X101763000Y-27543809D01*
X101699553Y-27862779D01*
X101575097Y-28163242D01*
X101394415Y-28433651D01*
X101164451Y-28663615D01*
X100894042Y-28844297D01*
X100593579Y-28968753D01*
X100487256Y-28989902D01*
X100274611Y-29032200D01*
X99949389Y-29032200D01*
X99736744Y-28989902D01*
X99630421Y-28968753D01*
X99329958Y-28844297D01*
X99059549Y-28663615D01*
X98829585Y-28433651D01*
X98648903Y-28163242D01*
X98524447Y-27862779D01*
X98461000Y-27543809D01*
X98461000Y-27218591D01*
X98478581Y-27130207D01*
X98524447Y-26899622D01*
X98648902Y-26599160D01*
X98757581Y-26436511D01*
X98829585Y-26328749D01*
X99059549Y-26098785D01*
X99329958Y-25918103D01*
X99630421Y-25793647D01*
X99736744Y-25772498D01*
X99949389Y-25730200D01*
X100274611Y-25730200D01*
X100487256Y-25772498D01*
G37*
G36*
X74555200Y-28534900D02*
G01*
X73453200Y-28534900D01*
X73453200Y-27532900D01*
X74555200Y-27532900D01*
X74555200Y-28534900D01*
G37*
G36*
X69555200Y-28534900D02*
G01*
X68453200Y-28534900D01*
X68453200Y-27532900D01*
X69555200Y-27532900D01*
X69555200Y-28534900D01*
G37*
G36*
X34734504Y-24725485D02*
G01*
X34903026Y-24795289D01*
X35054691Y-24896628D01*
X35183672Y-25025609D01*
X35285011Y-25177274D01*
X35354815Y-25345796D01*
X35390400Y-25524697D01*
X35390400Y-25707103D01*
X35354815Y-25886004D01*
X35285011Y-26054526D01*
X35183672Y-26206191D01*
X35054691Y-26335172D01*
X34903026Y-26436511D01*
X34734504Y-26506315D01*
X34555603Y-26541900D01*
X34373197Y-26541900D01*
X34194296Y-26506315D01*
X34025774Y-26436511D01*
X33874109Y-26335172D01*
X33745128Y-26206191D01*
X33643789Y-26054526D01*
X33573985Y-25886004D01*
X33538400Y-25707103D01*
X33538400Y-25524697D01*
X33573985Y-25345796D01*
X33643789Y-25177274D01*
X33745128Y-25025609D01*
X33874109Y-24896628D01*
X34025774Y-24795289D01*
X34194296Y-24725485D01*
X34373197Y-24689900D01*
X34555603Y-24689900D01*
X34734504Y-24725485D01*
G37*
G36*
X30234504Y-24725485D02*
G01*
X30403026Y-24795289D01*
X30554691Y-24896628D01*
X30683672Y-25025609D01*
X30785011Y-25177274D01*
X30854815Y-25345796D01*
X30890400Y-25524697D01*
X30890400Y-25707103D01*
X30854815Y-25886004D01*
X30785011Y-26054526D01*
X30683672Y-26206191D01*
X30554691Y-26335172D01*
X30403026Y-26436511D01*
X30234504Y-26506315D01*
X30055603Y-26541900D01*
X29873197Y-26541900D01*
X29694296Y-26506315D01*
X29525774Y-26436511D01*
X29374109Y-26335172D01*
X29245128Y-26206191D01*
X29143789Y-26054526D01*
X29073985Y-25886004D01*
X29038400Y-25707103D01*
X29038400Y-25524697D01*
X29073985Y-25345796D01*
X29143789Y-25177274D01*
X29245128Y-25025609D01*
X29374109Y-24896628D01*
X29525774Y-24795289D01*
X29694296Y-24725485D01*
X29873197Y-24689900D01*
X30055603Y-24689900D01*
X30234504Y-24725485D01*
G37*
G36*
X74555200Y-26134900D02*
G01*
X73453200Y-26134900D01*
X73453200Y-25132900D01*
X74555200Y-25132900D01*
X74555200Y-26134900D01*
G37*
G36*
X69555200Y-26134900D02*
G01*
X68453200Y-26134900D01*
X68453200Y-25132900D01*
X69555200Y-25132900D01*
X69555200Y-26134900D01*
G37*
M02*
