G04 #@! TF.GenerationSoftware,KiCad,Pcbnew,(5.1.6)-1*
G04 #@! TF.CreationDate,2020-11-21T20:25:47+01:00*
G04 #@! TF.ProjectId,Dandanator CPC,44616e64-616e-4617-946f-72204350432e,rev?*
G04 #@! TF.SameCoordinates,Original*
G04 #@! TF.FileFunction,Legend,Top*
G04 #@! TF.FilePolarity,Positive*
%FSLAX46Y46*%
G04 Gerber Fmt 4.6, Leading zero omitted, Abs format (unit mm)*
G04 Created by KiCad (PCBNEW (5.1.6)-1) date 2020-11-21 20:25:47*
%MOMM*%
%LPD*%
G01*
G04 APERTURE LIST*
%ADD10C,0.250000*%
%ADD11C,0.150000*%
%ADD12C,0.010000*%
%ADD13C,0.120000*%
%ADD14C,0.200000*%
%ADD15C,0.100000*%
%ADD16C,0.203200*%
%ADD17C,0.152400*%
%ADD18C,0.015000*%
G04 APERTURE END LIST*
D10*
X71023460Y-55006761D02*
X71023460Y-53006761D01*
X71499650Y-53006761D01*
X71785364Y-53102000D01*
X71975840Y-53292476D01*
X72071079Y-53482952D01*
X72166317Y-53863904D01*
X72166317Y-54149619D01*
X72071079Y-54530571D01*
X71975840Y-54721047D01*
X71785364Y-54911523D01*
X71499650Y-55006761D01*
X71023460Y-55006761D01*
X73023460Y-53959142D02*
X73690126Y-53959142D01*
X73975840Y-55006761D02*
X73023460Y-55006761D01*
X73023460Y-53006761D01*
X73975840Y-53006761D01*
X74737745Y-54911523D02*
X75023460Y-55006761D01*
X75499650Y-55006761D01*
X75690126Y-54911523D01*
X75785364Y-54816285D01*
X75880602Y-54625809D01*
X75880602Y-54435333D01*
X75785364Y-54244857D01*
X75690126Y-54149619D01*
X75499650Y-54054380D01*
X75118698Y-53959142D01*
X74928221Y-53863904D01*
X74832983Y-53768666D01*
X74737745Y-53578190D01*
X74737745Y-53387714D01*
X74832983Y-53197238D01*
X74928221Y-53102000D01*
X75118698Y-53006761D01*
X75594888Y-53006761D01*
X75880602Y-53102000D01*
X79404412Y-54816285D02*
X79309174Y-54911523D01*
X79023460Y-55006761D01*
X78832983Y-55006761D01*
X78547269Y-54911523D01*
X78356793Y-54721047D01*
X78261555Y-54530571D01*
X78166317Y-54149619D01*
X78166317Y-53863904D01*
X78261555Y-53482952D01*
X78356793Y-53292476D01*
X78547269Y-53102000D01*
X78832983Y-53006761D01*
X79023460Y-53006761D01*
X79309174Y-53102000D01*
X79404412Y-53197238D01*
X81118698Y-55006761D02*
X81118698Y-53959142D01*
X81023460Y-53768666D01*
X80832983Y-53673428D01*
X80452031Y-53673428D01*
X80261555Y-53768666D01*
X81118698Y-54911523D02*
X80928221Y-55006761D01*
X80452031Y-55006761D01*
X80261555Y-54911523D01*
X80166317Y-54721047D01*
X80166317Y-54530571D01*
X80261555Y-54340095D01*
X80452031Y-54244857D01*
X80928221Y-54244857D01*
X81118698Y-54149619D01*
X82071079Y-55006761D02*
X82071079Y-53673428D01*
X82071079Y-54054380D02*
X82166317Y-53863904D01*
X82261555Y-53768666D01*
X82452031Y-53673428D01*
X82642507Y-53673428D01*
X83023460Y-53673428D02*
X83785364Y-53673428D01*
X83309174Y-53006761D02*
X83309174Y-54721047D01*
X83404412Y-54911523D01*
X83594888Y-55006761D01*
X83785364Y-55006761D01*
X84452031Y-55006761D02*
X84452031Y-53673428D01*
X84452031Y-54054380D02*
X84547269Y-53863904D01*
X84642507Y-53768666D01*
X84832983Y-53673428D01*
X85023460Y-53673428D01*
X85690126Y-55006761D02*
X85690126Y-53673428D01*
X85690126Y-53006761D02*
X85594888Y-53102000D01*
X85690126Y-53197238D01*
X85785364Y-53102000D01*
X85690126Y-53006761D01*
X85690126Y-53197238D01*
X87499650Y-55006761D02*
X87499650Y-53006761D01*
X87499650Y-54911523D02*
X87309174Y-55006761D01*
X86928221Y-55006761D01*
X86737745Y-54911523D01*
X86642507Y-54816285D01*
X86547269Y-54625809D01*
X86547269Y-54054380D01*
X86642507Y-53863904D01*
X86737745Y-53768666D01*
X86928221Y-53673428D01*
X87309174Y-53673428D01*
X87499650Y-53768666D01*
X89309174Y-53673428D02*
X89309174Y-55292476D01*
X89213936Y-55482952D01*
X89118698Y-55578190D01*
X88928221Y-55673428D01*
X88642507Y-55673428D01*
X88452031Y-55578190D01*
X89309174Y-54911523D02*
X89118698Y-55006761D01*
X88737745Y-55006761D01*
X88547269Y-54911523D01*
X88452031Y-54816285D01*
X88356793Y-54625809D01*
X88356793Y-54054380D01*
X88452031Y-53863904D01*
X88547269Y-53768666D01*
X88737745Y-53673428D01*
X89118698Y-53673428D01*
X89309174Y-53768666D01*
X91023460Y-54911523D02*
X90832983Y-55006761D01*
X90452031Y-55006761D01*
X90261555Y-54911523D01*
X90166317Y-54721047D01*
X90166317Y-53959142D01*
X90261555Y-53768666D01*
X90452031Y-53673428D01*
X90832983Y-53673428D01*
X91023460Y-53768666D01*
X91118698Y-53959142D01*
X91118698Y-54149619D01*
X90166317Y-54340095D01*
D11*
X65562646Y-88095840D02*
X66134075Y-88095840D01*
X65848360Y-89095840D02*
X65848360Y-88095840D01*
X66467408Y-89095840D02*
X66467408Y-88095840D01*
X66800741Y-88810126D01*
X67134075Y-88095840D01*
X67134075Y-89095840D01*
X67562646Y-89048221D02*
X67705503Y-89095840D01*
X67943599Y-89095840D01*
X68038837Y-89048221D01*
X68086456Y-89000602D01*
X68134075Y-88905364D01*
X68134075Y-88810126D01*
X68086456Y-88714888D01*
X68038837Y-88667269D01*
X67943599Y-88619650D01*
X67753122Y-88572031D01*
X67657884Y-88524412D01*
X67610265Y-88476793D01*
X67562646Y-88381555D01*
X67562646Y-88286317D01*
X67610265Y-88191079D01*
X67657884Y-88143460D01*
X67753122Y-88095840D01*
X67991218Y-88095840D01*
X68134075Y-88143460D01*
X65841690Y-85502500D02*
X66413119Y-85502500D01*
X66127404Y-86502500D02*
X66127404Y-85502500D01*
X66746452Y-86502500D02*
X66746452Y-85502500D01*
X66984547Y-85502500D01*
X67127404Y-85550120D01*
X67222642Y-85645358D01*
X67270261Y-85740596D01*
X67317880Y-85931072D01*
X67317880Y-86073929D01*
X67270261Y-86264405D01*
X67222642Y-86359643D01*
X67127404Y-86454881D01*
X66984547Y-86502500D01*
X66746452Y-86502500D01*
X67746452Y-86502500D02*
X67746452Y-85502500D01*
X65528036Y-83000600D02*
X66099464Y-83000600D01*
X65813750Y-84000600D02*
X65813750Y-83000600D01*
X66432798Y-84000600D02*
X66432798Y-83000600D01*
X66670893Y-83000600D01*
X66813750Y-83048220D01*
X66908988Y-83143458D01*
X66956607Y-83238696D01*
X67004226Y-83429172D01*
X67004226Y-83572029D01*
X66956607Y-83762505D01*
X66908988Y-83857743D01*
X66813750Y-83952981D01*
X66670893Y-84000600D01*
X66432798Y-84000600D01*
X67623274Y-83000600D02*
X67813750Y-83000600D01*
X67908988Y-83048220D01*
X68004226Y-83143458D01*
X68051845Y-83333934D01*
X68051845Y-83667267D01*
X68004226Y-83857743D01*
X67908988Y-83952981D01*
X67813750Y-84000600D01*
X67623274Y-84000600D01*
X67528036Y-83952981D01*
X67432798Y-83857743D01*
X67385179Y-83667267D01*
X67385179Y-83333934D01*
X67432798Y-83143458D01*
X67528036Y-83048220D01*
X67623274Y-83000600D01*
X65640745Y-80407260D02*
X66212174Y-80407260D01*
X65926460Y-81407260D02*
X65926460Y-80407260D01*
X67116936Y-81312022D02*
X67069317Y-81359641D01*
X66926460Y-81407260D01*
X66831221Y-81407260D01*
X66688364Y-81359641D01*
X66593126Y-81264403D01*
X66545507Y-81169165D01*
X66497888Y-80978689D01*
X66497888Y-80835832D01*
X66545507Y-80645356D01*
X66593126Y-80550118D01*
X66688364Y-80454880D01*
X66831221Y-80407260D01*
X66926460Y-80407260D01*
X67069317Y-80454880D01*
X67116936Y-80502499D01*
X67545507Y-81407260D02*
X67545507Y-80407260D01*
X68116936Y-81407260D02*
X67688364Y-80835832D01*
X68116936Y-80407260D02*
X67545507Y-80978689D01*
X66103595Y-77950440D02*
X66008357Y-77902820D01*
X65865500Y-77902820D01*
X65722642Y-77950440D01*
X65627404Y-78045678D01*
X65579785Y-78140916D01*
X65532166Y-78331392D01*
X65532166Y-78474249D01*
X65579785Y-78664725D01*
X65627404Y-78759963D01*
X65722642Y-78855201D01*
X65865500Y-78902820D01*
X65960738Y-78902820D01*
X66103595Y-78855201D01*
X66151214Y-78807582D01*
X66151214Y-78474249D01*
X65960738Y-78474249D01*
X66579785Y-78902820D02*
X66579785Y-77902820D01*
X67151214Y-78902820D01*
X67151214Y-77902820D01*
X67627404Y-78902820D02*
X67627404Y-77902820D01*
X67865500Y-77902820D01*
X68008357Y-77950440D01*
X68103595Y-78045678D01*
X68151214Y-78140916D01*
X68198833Y-78331392D01*
X68198833Y-78474249D01*
X68151214Y-78664725D01*
X68103595Y-78759963D01*
X68008357Y-78855201D01*
X67865500Y-78902820D01*
X67627404Y-78902820D01*
X68552915Y-73454568D02*
X69314820Y-73454568D01*
X68933867Y-73835520D02*
X68933867Y-73073616D01*
X69695772Y-72835520D02*
X70314820Y-72835520D01*
X69981486Y-73216473D01*
X70124343Y-73216473D01*
X70219581Y-73264092D01*
X70267200Y-73311711D01*
X70314820Y-73406949D01*
X70314820Y-73645044D01*
X70267200Y-73740282D01*
X70219581Y-73787901D01*
X70124343Y-73835520D01*
X69838629Y-73835520D01*
X69743391Y-73787901D01*
X69695772Y-73740282D01*
X70600534Y-72835520D02*
X70933867Y-73835520D01*
X71267200Y-72835520D01*
X71505296Y-72835520D02*
X72124343Y-72835520D01*
X71791010Y-73216473D01*
X71933867Y-73216473D01*
X72029105Y-73264092D01*
X72076724Y-73311711D01*
X72124343Y-73406949D01*
X72124343Y-73645044D01*
X72076724Y-73740282D01*
X72029105Y-73787901D01*
X71933867Y-73835520D01*
X71648153Y-73835520D01*
X71552915Y-73787901D01*
X71505296Y-73740282D01*
X77772355Y-77978380D02*
X77677117Y-77930760D01*
X77534260Y-77930760D01*
X77391402Y-77978380D01*
X77296164Y-78073618D01*
X77248545Y-78168856D01*
X77200926Y-78359332D01*
X77200926Y-78502189D01*
X77248545Y-78692665D01*
X77296164Y-78787903D01*
X77391402Y-78883141D01*
X77534260Y-78930760D01*
X77629498Y-78930760D01*
X77772355Y-78883141D01*
X77819974Y-78835522D01*
X77819974Y-78502189D01*
X77629498Y-78502189D01*
X78248545Y-78930760D02*
X78248545Y-77930760D01*
X78819974Y-78930760D01*
X78819974Y-77930760D01*
X79296164Y-78930760D02*
X79296164Y-77930760D01*
X79534260Y-77930760D01*
X79677117Y-77978380D01*
X79772355Y-78073618D01*
X79819974Y-78168856D01*
X79867593Y-78359332D01*
X79867593Y-78502189D01*
X79819974Y-78692665D01*
X79772355Y-78787903D01*
X79677117Y-78883141D01*
X79534260Y-78930760D01*
X79296164Y-78930760D01*
X76953905Y-75811688D02*
X77715810Y-75811688D01*
X77334858Y-76192640D02*
X77334858Y-75430736D01*
X78668191Y-75192640D02*
X78192000Y-75192640D01*
X78144381Y-75668831D01*
X78192000Y-75621212D01*
X78287239Y-75573593D01*
X78525334Y-75573593D01*
X78620572Y-75621212D01*
X78668191Y-75668831D01*
X78715810Y-75764069D01*
X78715810Y-76002164D01*
X78668191Y-76097402D01*
X78620572Y-76145021D01*
X78525334Y-76192640D01*
X78287239Y-76192640D01*
X78192000Y-76145021D01*
X78144381Y-76097402D01*
X79001524Y-75192640D02*
X79334858Y-76192640D01*
X79668191Y-75192640D01*
X69249753Y-90851740D02*
X69249753Y-91566026D01*
X69202134Y-91708883D01*
X69106896Y-91804121D01*
X68964039Y-91851740D01*
X68868800Y-91851740D01*
X69583086Y-90851740D02*
X70154515Y-90851740D01*
X69868800Y-91851740D02*
X69868800Y-90851740D01*
X70440229Y-91566026D02*
X70916420Y-91566026D01*
X70344991Y-91851740D02*
X70678324Y-90851740D01*
X71011658Y-91851740D01*
X71868800Y-90899360D02*
X71773562Y-90851740D01*
X71630705Y-90851740D01*
X71487848Y-90899360D01*
X71392610Y-90994598D01*
X71344991Y-91089836D01*
X71297372Y-91280312D01*
X71297372Y-91423169D01*
X71344991Y-91613645D01*
X71392610Y-91708883D01*
X71487848Y-91804121D01*
X71630705Y-91851740D01*
X71725943Y-91851740D01*
X71868800Y-91804121D01*
X71916420Y-91756502D01*
X71916420Y-91423169D01*
X71725943Y-91423169D01*
X30764979Y-31458160D02*
X30431645Y-30981970D01*
X30193550Y-31458160D02*
X30193550Y-30458160D01*
X30574502Y-30458160D01*
X30669740Y-30505780D01*
X30717360Y-30553399D01*
X30764979Y-30648637D01*
X30764979Y-30791494D01*
X30717360Y-30886732D01*
X30669740Y-30934351D01*
X30574502Y-30981970D01*
X30193550Y-30981970D01*
X31193550Y-30934351D02*
X31526883Y-30934351D01*
X31669740Y-31458160D02*
X31193550Y-31458160D01*
X31193550Y-30458160D01*
X31669740Y-30458160D01*
X32050693Y-31410541D02*
X32193550Y-31458160D01*
X32431645Y-31458160D01*
X32526883Y-31410541D01*
X32574502Y-31362922D01*
X32622121Y-31267684D01*
X32622121Y-31172446D01*
X32574502Y-31077208D01*
X32526883Y-31029589D01*
X32431645Y-30981970D01*
X32241169Y-30934351D01*
X32145931Y-30886732D01*
X32098312Y-30839113D01*
X32050693Y-30743875D01*
X32050693Y-30648637D01*
X32098312Y-30553399D01*
X32145931Y-30505780D01*
X32241169Y-30458160D01*
X32479264Y-30458160D01*
X32622121Y-30505780D01*
X33050693Y-30934351D02*
X33384026Y-30934351D01*
X33526883Y-31458160D02*
X33050693Y-31458160D01*
X33050693Y-30458160D01*
X33526883Y-30458160D01*
X33812598Y-30458160D02*
X34384026Y-30458160D01*
X34098312Y-31458160D02*
X34098312Y-30458160D01*
X36197800Y-64194344D02*
X35197800Y-64194344D01*
X35197800Y-63956249D01*
X35245420Y-63813392D01*
X35340658Y-63718154D01*
X35435896Y-63670535D01*
X35626372Y-63622916D01*
X35769229Y-63622916D01*
X35959705Y-63670535D01*
X36054943Y-63718154D01*
X36150181Y-63813392D01*
X36197800Y-63956249D01*
X36197800Y-64194344D01*
X36197800Y-63194344D02*
X35197800Y-63194344D01*
X36150181Y-62765773D02*
X36197800Y-62622916D01*
X36197800Y-62384820D01*
X36150181Y-62289582D01*
X36102562Y-62241963D01*
X36007324Y-62194344D01*
X35912086Y-62194344D01*
X35816848Y-62241963D01*
X35769229Y-62289582D01*
X35721610Y-62384820D01*
X35673991Y-62575297D01*
X35626372Y-62670535D01*
X35578753Y-62718154D01*
X35483515Y-62765773D01*
X35388277Y-62765773D01*
X35293039Y-62718154D01*
X35245420Y-62670535D01*
X35197800Y-62575297D01*
X35197800Y-62337201D01*
X35245420Y-62194344D01*
X35912086Y-61813392D02*
X35912086Y-61337201D01*
X36197800Y-61908630D02*
X35197800Y-61575297D01*
X36197800Y-61241963D01*
X35673991Y-60575297D02*
X35721610Y-60432440D01*
X35769229Y-60384820D01*
X35864467Y-60337201D01*
X36007324Y-60337201D01*
X36102562Y-60384820D01*
X36150181Y-60432440D01*
X36197800Y-60527678D01*
X36197800Y-60908630D01*
X35197800Y-60908630D01*
X35197800Y-60575297D01*
X35245420Y-60480059D01*
X35293039Y-60432440D01*
X35388277Y-60384820D01*
X35483515Y-60384820D01*
X35578753Y-60432440D01*
X35626372Y-60480059D01*
X35673991Y-60575297D01*
X35673991Y-60908630D01*
X36197800Y-59432440D02*
X36197800Y-59908630D01*
X35197800Y-59908630D01*
X35673991Y-59099106D02*
X35673991Y-58765773D01*
X36197800Y-58622916D02*
X36197800Y-59099106D01*
X35197800Y-59099106D01*
X35197800Y-58622916D01*
X27850935Y-44553166D02*
X28327125Y-44553166D01*
X27755697Y-44838880D02*
X28089030Y-43838880D01*
X28422363Y-44838880D01*
X29231887Y-44838880D02*
X28755697Y-44838880D01*
X28755697Y-43838880D01*
X29422363Y-43838880D02*
X29993792Y-43838880D01*
X29708078Y-44838880D02*
X29708078Y-43838880D01*
X30327125Y-44315071D02*
X30660459Y-44315071D01*
X30803316Y-44838880D02*
X30327125Y-44838880D01*
X30327125Y-43838880D01*
X30803316Y-43838880D01*
X31803316Y-44838880D02*
X31469982Y-44362690D01*
X31231887Y-44838880D02*
X31231887Y-43838880D01*
X31612840Y-43838880D01*
X31708078Y-43886500D01*
X31755697Y-43934119D01*
X31803316Y-44029357D01*
X31803316Y-44172214D01*
X31755697Y-44267452D01*
X31708078Y-44315071D01*
X31612840Y-44362690D01*
X31231887Y-44362690D01*
X32231887Y-44838880D02*
X32231887Y-43838880D01*
X32803316Y-44838880D01*
X32803316Y-43838880D01*
X33231887Y-44553166D02*
X33708078Y-44553166D01*
X33136649Y-44838880D02*
X33469982Y-43838880D01*
X33803316Y-44838880D01*
X33993792Y-43838880D02*
X34565220Y-43838880D01*
X34279506Y-44838880D02*
X34279506Y-43838880D01*
X34898554Y-44315071D02*
X35231887Y-44315071D01*
X35374744Y-44838880D02*
X34898554Y-44838880D01*
X34898554Y-43838880D01*
X35374744Y-43838880D01*
X97132615Y-68436240D02*
X97132615Y-69245764D01*
X97180234Y-69341002D01*
X97227853Y-69388621D01*
X97323091Y-69436240D01*
X97513567Y-69436240D01*
X97608805Y-69388621D01*
X97656424Y-69341002D01*
X97704043Y-69245764D01*
X97704043Y-68436240D01*
X98132615Y-69388621D02*
X98275472Y-69436240D01*
X98513567Y-69436240D01*
X98608805Y-69388621D01*
X98656424Y-69341002D01*
X98704043Y-69245764D01*
X98704043Y-69150526D01*
X98656424Y-69055288D01*
X98608805Y-69007669D01*
X98513567Y-68960050D01*
X98323091Y-68912431D01*
X98227853Y-68864812D01*
X98180234Y-68817193D01*
X98132615Y-68721955D01*
X98132615Y-68626717D01*
X98180234Y-68531479D01*
X98227853Y-68483860D01*
X98323091Y-68436240D01*
X98561186Y-68436240D01*
X98704043Y-68483860D01*
X99465948Y-68912431D02*
X99608805Y-68960050D01*
X99656424Y-69007669D01*
X99704043Y-69102907D01*
X99704043Y-69245764D01*
X99656424Y-69341002D01*
X99608805Y-69388621D01*
X99513567Y-69436240D01*
X99132615Y-69436240D01*
X99132615Y-68436240D01*
X99465948Y-68436240D01*
X99561186Y-68483860D01*
X99608805Y-68531479D01*
X99656424Y-68626717D01*
X99656424Y-68721955D01*
X99608805Y-68817193D01*
X99561186Y-68864812D01*
X99465948Y-68912431D01*
X99132615Y-68912431D01*
D12*
G36*
X56862516Y-61124127D02*
G01*
X56976366Y-61129396D01*
X57065256Y-61137383D01*
X57118373Y-61148064D01*
X57126957Y-61152852D01*
X57138664Y-61183622D01*
X57158831Y-61257414D01*
X57185999Y-61367428D01*
X57218709Y-61506864D01*
X57255501Y-61668923D01*
X57294918Y-61846805D01*
X57335498Y-62033708D01*
X57375785Y-62222834D01*
X57414318Y-62407383D01*
X57449638Y-62580554D01*
X57480286Y-62735548D01*
X57504804Y-62865564D01*
X57521732Y-62963803D01*
X57529611Y-63023465D01*
X57529993Y-63031192D01*
X57514449Y-63102159D01*
X57464962Y-63135437D01*
X57408272Y-63136544D01*
X57365704Y-63133567D01*
X57285625Y-63129879D01*
X57181307Y-63126046D01*
X57111900Y-63123892D01*
X56968394Y-63118695D01*
X56867833Y-63111519D01*
X56802362Y-63100468D01*
X56764125Y-63083645D01*
X56745268Y-63059154D01*
X56739011Y-63033868D01*
X56712867Y-62989322D01*
X56663882Y-62974422D01*
X56611047Y-62989991D01*
X56577749Y-63026885D01*
X56564796Y-63046472D01*
X56543766Y-63060350D01*
X56506706Y-63069498D01*
X56445664Y-63074891D01*
X56352686Y-63077505D01*
X56219819Y-63078319D01*
X56158649Y-63078360D01*
X55765700Y-63078360D01*
X55758615Y-63014860D01*
X55763435Y-62975843D01*
X55780261Y-62895398D01*
X55807275Y-62780282D01*
X55842654Y-62637253D01*
X55884579Y-62473071D01*
X55931229Y-62294493D01*
X55980784Y-62108278D01*
X56031424Y-61921185D01*
X56081328Y-61739971D01*
X56128676Y-61571396D01*
X56171648Y-61422217D01*
X56208422Y-61299194D01*
X56237180Y-61209084D01*
X56256099Y-61158646D01*
X56260661Y-61150931D01*
X56297241Y-61139389D01*
X56373728Y-61130709D01*
X56479310Y-61124867D01*
X56603176Y-61121839D01*
X56734515Y-61121600D01*
X56862516Y-61124127D01*
G37*
X56862516Y-61124127D02*
X56976366Y-61129396D01*
X57065256Y-61137383D01*
X57118373Y-61148064D01*
X57126957Y-61152852D01*
X57138664Y-61183622D01*
X57158831Y-61257414D01*
X57185999Y-61367428D01*
X57218709Y-61506864D01*
X57255501Y-61668923D01*
X57294918Y-61846805D01*
X57335498Y-62033708D01*
X57375785Y-62222834D01*
X57414318Y-62407383D01*
X57449638Y-62580554D01*
X57480286Y-62735548D01*
X57504804Y-62865564D01*
X57521732Y-62963803D01*
X57529611Y-63023465D01*
X57529993Y-63031192D01*
X57514449Y-63102159D01*
X57464962Y-63135437D01*
X57408272Y-63136544D01*
X57365704Y-63133567D01*
X57285625Y-63129879D01*
X57181307Y-63126046D01*
X57111900Y-63123892D01*
X56968394Y-63118695D01*
X56867833Y-63111519D01*
X56802362Y-63100468D01*
X56764125Y-63083645D01*
X56745268Y-63059154D01*
X56739011Y-63033868D01*
X56712867Y-62989322D01*
X56663882Y-62974422D01*
X56611047Y-62989991D01*
X56577749Y-63026885D01*
X56564796Y-63046472D01*
X56543766Y-63060350D01*
X56506706Y-63069498D01*
X56445664Y-63074891D01*
X56352686Y-63077505D01*
X56219819Y-63078319D01*
X56158649Y-63078360D01*
X55765700Y-63078360D01*
X55758615Y-63014860D01*
X55763435Y-62975843D01*
X55780261Y-62895398D01*
X55807275Y-62780282D01*
X55842654Y-62637253D01*
X55884579Y-62473071D01*
X55931229Y-62294493D01*
X55980784Y-62108278D01*
X56031424Y-61921185D01*
X56081328Y-61739971D01*
X56128676Y-61571396D01*
X56171648Y-61422217D01*
X56208422Y-61299194D01*
X56237180Y-61209084D01*
X56256099Y-61158646D01*
X56260661Y-61150931D01*
X56297241Y-61139389D01*
X56373728Y-61130709D01*
X56479310Y-61124867D01*
X56603176Y-61121839D01*
X56734515Y-61121600D01*
X56862516Y-61124127D01*
G36*
X53059333Y-60602892D02*
G01*
X53250422Y-60605028D01*
X53436558Y-60608550D01*
X53610776Y-60613396D01*
X53766112Y-60619502D01*
X53895600Y-60626803D01*
X53992275Y-60635237D01*
X54049174Y-60644739D01*
X54060036Y-60649420D01*
X54074483Y-60667030D01*
X54085242Y-60697039D01*
X54092834Y-60746246D01*
X54097780Y-60821450D01*
X54100602Y-60929452D01*
X54101820Y-61077051D01*
X54102000Y-61196790D01*
X54100895Y-61392577D01*
X54097445Y-61541214D01*
X54091449Y-61646304D01*
X54082704Y-61711453D01*
X54071520Y-61739780D01*
X54028920Y-61756339D01*
X53946244Y-61766959D01*
X53846723Y-61770260D01*
X53652406Y-61770260D01*
X53635881Y-62005210D01*
X53623926Y-62159583D01*
X53609295Y-62324197D01*
X53592929Y-62490764D01*
X53575767Y-62650998D01*
X53558749Y-62796614D01*
X53542817Y-62919326D01*
X53528909Y-63010848D01*
X53517966Y-63062894D01*
X53515046Y-63070192D01*
X53489168Y-63085845D01*
X53430118Y-63096854D01*
X53332126Y-63103867D01*
X53189421Y-63107534D01*
X53182224Y-63107626D01*
X53055422Y-63108149D01*
X52942126Y-63106701D01*
X52854847Y-63103565D01*
X52806600Y-63099125D01*
X52751469Y-63083534D01*
X52725396Y-63069859D01*
X52717921Y-63040362D01*
X52707674Y-62968338D01*
X52695576Y-62861922D01*
X52682548Y-62729254D01*
X52669512Y-62578469D01*
X52668857Y-62570360D01*
X52655519Y-62406317D01*
X52642399Y-62248007D01*
X52630474Y-62106994D01*
X52620720Y-61994841D01*
X52614689Y-61929010D01*
X52599356Y-61770260D01*
X52403258Y-61770260D01*
X52292718Y-61766203D01*
X52213229Y-61754956D01*
X52176680Y-61739780D01*
X52167483Y-61706020D01*
X52159792Y-61630819D01*
X52153681Y-61523514D01*
X52149222Y-61393444D01*
X52146488Y-61249947D01*
X52145551Y-61102360D01*
X52146484Y-60960023D01*
X52149360Y-60832272D01*
X52154251Y-60728447D01*
X52161231Y-60657885D01*
X52168056Y-60632124D01*
X52198805Y-60622769D01*
X52273354Y-60615246D01*
X52384738Y-60609492D01*
X52525993Y-60605443D01*
X52690154Y-60603036D01*
X52870255Y-60602207D01*
X53059333Y-60602892D01*
G37*
X53059333Y-60602892D02*
X53250422Y-60605028D01*
X53436558Y-60608550D01*
X53610776Y-60613396D01*
X53766112Y-60619502D01*
X53895600Y-60626803D01*
X53992275Y-60635237D01*
X54049174Y-60644739D01*
X54060036Y-60649420D01*
X54074483Y-60667030D01*
X54085242Y-60697039D01*
X54092834Y-60746246D01*
X54097780Y-60821450D01*
X54100602Y-60929452D01*
X54101820Y-61077051D01*
X54102000Y-61196790D01*
X54100895Y-61392577D01*
X54097445Y-61541214D01*
X54091449Y-61646304D01*
X54082704Y-61711453D01*
X54071520Y-61739780D01*
X54028920Y-61756339D01*
X53946244Y-61766959D01*
X53846723Y-61770260D01*
X53652406Y-61770260D01*
X53635881Y-62005210D01*
X53623926Y-62159583D01*
X53609295Y-62324197D01*
X53592929Y-62490764D01*
X53575767Y-62650998D01*
X53558749Y-62796614D01*
X53542817Y-62919326D01*
X53528909Y-63010848D01*
X53517966Y-63062894D01*
X53515046Y-63070192D01*
X53489168Y-63085845D01*
X53430118Y-63096854D01*
X53332126Y-63103867D01*
X53189421Y-63107534D01*
X53182224Y-63107626D01*
X53055422Y-63108149D01*
X52942126Y-63106701D01*
X52854847Y-63103565D01*
X52806600Y-63099125D01*
X52751469Y-63083534D01*
X52725396Y-63069859D01*
X52717921Y-63040362D01*
X52707674Y-62968338D01*
X52695576Y-62861922D01*
X52682548Y-62729254D01*
X52669512Y-62578469D01*
X52668857Y-62570360D01*
X52655519Y-62406317D01*
X52642399Y-62248007D01*
X52630474Y-62106994D01*
X52620720Y-61994841D01*
X52614689Y-61929010D01*
X52599356Y-61770260D01*
X52403258Y-61770260D01*
X52292718Y-61766203D01*
X52213229Y-61754956D01*
X52176680Y-61739780D01*
X52167483Y-61706020D01*
X52159792Y-61630819D01*
X52153681Y-61523514D01*
X52149222Y-61393444D01*
X52146488Y-61249947D01*
X52145551Y-61102360D01*
X52146484Y-60960023D01*
X52149360Y-60832272D01*
X52154251Y-60728447D01*
X52161231Y-60657885D01*
X52168056Y-60632124D01*
X52198805Y-60622769D01*
X52273354Y-60615246D01*
X52384738Y-60609492D01*
X52525993Y-60605443D01*
X52690154Y-60603036D01*
X52870255Y-60602207D01*
X53059333Y-60602892D01*
G36*
X59350424Y-61114052D02*
G01*
X59396642Y-61129578D01*
X59431174Y-61159949D01*
X59455701Y-61209798D01*
X59471902Y-61283760D01*
X59481459Y-61386467D01*
X59486051Y-61522554D01*
X59487359Y-61696653D01*
X59487063Y-61913400D01*
X59486800Y-62108305D01*
X59486344Y-62362543D01*
X59484889Y-62569956D01*
X59482298Y-62734509D01*
X59478438Y-62860171D01*
X59473174Y-62950906D01*
X59466370Y-63010683D01*
X59457893Y-63043467D01*
X59454868Y-63048819D01*
X59437197Y-63065750D01*
X59407796Y-63077353D01*
X59358576Y-63084345D01*
X59281446Y-63087445D01*
X59168316Y-63087369D01*
X59042118Y-63085424D01*
X58661300Y-63078360D01*
X58632924Y-62990569D01*
X58613594Y-62934916D01*
X58601654Y-62923623D01*
X58589373Y-62952551D01*
X58585470Y-62965169D01*
X58539464Y-63056919D01*
X58468410Y-63105792D01*
X58395518Y-63116460D01*
X58322018Y-63108046D01*
X58266129Y-63087510D01*
X58262194Y-63084710D01*
X58228252Y-63044899D01*
X58184756Y-62976907D01*
X58156922Y-62925960D01*
X58092165Y-62798960D01*
X58090982Y-62895879D01*
X58085695Y-62983287D01*
X58066411Y-63039969D01*
X58024157Y-63072464D01*
X57949960Y-63087310D01*
X57834845Y-63091045D01*
X57823100Y-63091060D01*
X57715956Y-63089602D01*
X57648368Y-63083703D01*
X57609136Y-63071075D01*
X57587063Y-63049428D01*
X57582693Y-63041929D01*
X57575034Y-63001528D01*
X57568596Y-62912748D01*
X57563447Y-62778001D01*
X57559653Y-62599694D01*
X57557283Y-62380237D01*
X57556404Y-62122039D01*
X57556400Y-62102129D01*
X57556201Y-61851283D01*
X57556516Y-61646561D01*
X57558711Y-61483298D01*
X57564152Y-61356825D01*
X57574206Y-61262476D01*
X57590238Y-61195582D01*
X57613614Y-61151476D01*
X57645702Y-61125491D01*
X57687867Y-61112960D01*
X57741475Y-61109214D01*
X57807892Y-61109587D01*
X57846846Y-61109860D01*
X57948631Y-61112944D01*
X58037528Y-61121052D01*
X58095077Y-61132466D01*
X58096887Y-61133126D01*
X58141509Y-61167488D01*
X58201404Y-61238365D01*
X58269170Y-61336811D01*
X58280774Y-61355376D01*
X58338532Y-61448674D01*
X58388790Y-61529184D01*
X58423719Y-61584391D01*
X58432176Y-61597384D01*
X58447954Y-61610457D01*
X58468803Y-61601366D01*
X58499528Y-61564391D01*
X58544939Y-61493810D01*
X58605897Y-61390703D01*
X58687917Y-61257346D01*
X58752259Y-61170384D01*
X58799649Y-61128863D01*
X58807704Y-61125776D01*
X58856604Y-61119279D01*
X58942362Y-61114090D01*
X59051039Y-61110891D01*
X59124850Y-61110206D01*
X59216208Y-61109000D01*
X59290839Y-61108737D01*
X59350424Y-61114052D01*
G37*
X59350424Y-61114052D02*
X59396642Y-61129578D01*
X59431174Y-61159949D01*
X59455701Y-61209798D01*
X59471902Y-61283760D01*
X59481459Y-61386467D01*
X59486051Y-61522554D01*
X59487359Y-61696653D01*
X59487063Y-61913400D01*
X59486800Y-62108305D01*
X59486344Y-62362543D01*
X59484889Y-62569956D01*
X59482298Y-62734509D01*
X59478438Y-62860171D01*
X59473174Y-62950906D01*
X59466370Y-63010683D01*
X59457893Y-63043467D01*
X59454868Y-63048819D01*
X59437197Y-63065750D01*
X59407796Y-63077353D01*
X59358576Y-63084345D01*
X59281446Y-63087445D01*
X59168316Y-63087369D01*
X59042118Y-63085424D01*
X58661300Y-63078360D01*
X58632924Y-62990569D01*
X58613594Y-62934916D01*
X58601654Y-62923623D01*
X58589373Y-62952551D01*
X58585470Y-62965169D01*
X58539464Y-63056919D01*
X58468410Y-63105792D01*
X58395518Y-63116460D01*
X58322018Y-63108046D01*
X58266129Y-63087510D01*
X58262194Y-63084710D01*
X58228252Y-63044899D01*
X58184756Y-62976907D01*
X58156922Y-62925960D01*
X58092165Y-62798960D01*
X58090982Y-62895879D01*
X58085695Y-62983287D01*
X58066411Y-63039969D01*
X58024157Y-63072464D01*
X57949960Y-63087310D01*
X57834845Y-63091045D01*
X57823100Y-63091060D01*
X57715956Y-63089602D01*
X57648368Y-63083703D01*
X57609136Y-63071075D01*
X57587063Y-63049428D01*
X57582693Y-63041929D01*
X57575034Y-63001528D01*
X57568596Y-62912748D01*
X57563447Y-62778001D01*
X57559653Y-62599694D01*
X57557283Y-62380237D01*
X57556404Y-62122039D01*
X57556400Y-62102129D01*
X57556201Y-61851283D01*
X57556516Y-61646561D01*
X57558711Y-61483298D01*
X57564152Y-61356825D01*
X57574206Y-61262476D01*
X57590238Y-61195582D01*
X57613614Y-61151476D01*
X57645702Y-61125491D01*
X57687867Y-61112960D01*
X57741475Y-61109214D01*
X57807892Y-61109587D01*
X57846846Y-61109860D01*
X57948631Y-61112944D01*
X58037528Y-61121052D01*
X58095077Y-61132466D01*
X58096887Y-61133126D01*
X58141509Y-61167488D01*
X58201404Y-61238365D01*
X58269170Y-61336811D01*
X58280774Y-61355376D01*
X58338532Y-61448674D01*
X58388790Y-61529184D01*
X58423719Y-61584391D01*
X58432176Y-61597384D01*
X58447954Y-61610457D01*
X58468803Y-61601366D01*
X58499528Y-61564391D01*
X58544939Y-61493810D01*
X58605897Y-61390703D01*
X58687917Y-61257346D01*
X58752259Y-61170384D01*
X58799649Y-61128863D01*
X58807704Y-61125776D01*
X58856604Y-61119279D01*
X58942362Y-61114090D01*
X59051039Y-61110891D01*
X59124850Y-61110206D01*
X59216208Y-61109000D01*
X59290839Y-61108737D01*
X59350424Y-61114052D01*
G36*
X55455184Y-61088731D02*
G01*
X55534495Y-61091707D01*
X55587649Y-61097747D01*
X55620796Y-61107032D01*
X55634680Y-61115012D01*
X55652254Y-61131388D01*
X55663844Y-61154400D01*
X55669776Y-61192171D01*
X55670374Y-61252824D01*
X55665963Y-61344482D01*
X55656867Y-61475266D01*
X55651789Y-61543023D01*
X55635946Y-61724426D01*
X55619251Y-61858541D01*
X55601165Y-61948876D01*
X55582063Y-61997561D01*
X55558416Y-62047676D01*
X55571304Y-62069528D01*
X55593680Y-62099379D01*
X55600600Y-62142129D01*
X55594049Y-62211493D01*
X55577462Y-62297860D01*
X55555434Y-62382611D01*
X55532558Y-62447124D01*
X55519995Y-62468760D01*
X55484381Y-62486367D01*
X55414670Y-62506715D01*
X55339299Y-62522809D01*
X55181500Y-62551458D01*
X55329219Y-62554559D01*
X55441847Y-62560218D01*
X55513618Y-62577796D01*
X55553672Y-62616761D01*
X55571147Y-62686584D01*
X55575183Y-62796735D01*
X55575200Y-62809443D01*
X55572507Y-62919411D01*
X55563133Y-62989656D01*
X55545132Y-63031035D01*
X55533258Y-63043499D01*
X55496047Y-63054621D01*
X55418344Y-63064611D01*
X55309097Y-63073272D01*
X55177252Y-63080408D01*
X55031754Y-63085822D01*
X54881550Y-63089318D01*
X54735586Y-63090699D01*
X54602810Y-63089768D01*
X54492166Y-63086329D01*
X54412601Y-63080186D01*
X54373062Y-63071141D01*
X54370788Y-63069039D01*
X54358683Y-63027064D01*
X54345131Y-62942235D01*
X54330613Y-62821724D01*
X54315610Y-62672703D01*
X54300603Y-62502343D01*
X54286072Y-62317818D01*
X54272499Y-62126298D01*
X54260365Y-61934956D01*
X54250149Y-61750965D01*
X54242334Y-61581495D01*
X54237400Y-61433720D01*
X54235828Y-61314810D01*
X54238099Y-61231939D01*
X54244693Y-61192278D01*
X54244929Y-61191884D01*
X54263923Y-61169379D01*
X54293260Y-61151355D01*
X54338769Y-61137075D01*
X54406278Y-61125800D01*
X54501615Y-61116793D01*
X54630608Y-61109314D01*
X54799087Y-61102626D01*
X54998844Y-61096395D01*
X55193506Y-61091256D01*
X55343571Y-61088641D01*
X55455184Y-61088731D01*
G37*
X55455184Y-61088731D02*
X55534495Y-61091707D01*
X55587649Y-61097747D01*
X55620796Y-61107032D01*
X55634680Y-61115012D01*
X55652254Y-61131388D01*
X55663844Y-61154400D01*
X55669776Y-61192171D01*
X55670374Y-61252824D01*
X55665963Y-61344482D01*
X55656867Y-61475266D01*
X55651789Y-61543023D01*
X55635946Y-61724426D01*
X55619251Y-61858541D01*
X55601165Y-61948876D01*
X55582063Y-61997561D01*
X55558416Y-62047676D01*
X55571304Y-62069528D01*
X55593680Y-62099379D01*
X55600600Y-62142129D01*
X55594049Y-62211493D01*
X55577462Y-62297860D01*
X55555434Y-62382611D01*
X55532558Y-62447124D01*
X55519995Y-62468760D01*
X55484381Y-62486367D01*
X55414670Y-62506715D01*
X55339299Y-62522809D01*
X55181500Y-62551458D01*
X55329219Y-62554559D01*
X55441847Y-62560218D01*
X55513618Y-62577796D01*
X55553672Y-62616761D01*
X55571147Y-62686584D01*
X55575183Y-62796735D01*
X55575200Y-62809443D01*
X55572507Y-62919411D01*
X55563133Y-62989656D01*
X55545132Y-63031035D01*
X55533258Y-63043499D01*
X55496047Y-63054621D01*
X55418344Y-63064611D01*
X55309097Y-63073272D01*
X55177252Y-63080408D01*
X55031754Y-63085822D01*
X54881550Y-63089318D01*
X54735586Y-63090699D01*
X54602810Y-63089768D01*
X54492166Y-63086329D01*
X54412601Y-63080186D01*
X54373062Y-63071141D01*
X54370788Y-63069039D01*
X54358683Y-63027064D01*
X54345131Y-62942235D01*
X54330613Y-62821724D01*
X54315610Y-62672703D01*
X54300603Y-62502343D01*
X54286072Y-62317818D01*
X54272499Y-62126298D01*
X54260365Y-61934956D01*
X54250149Y-61750965D01*
X54242334Y-61581495D01*
X54237400Y-61433720D01*
X54235828Y-61314810D01*
X54238099Y-61231939D01*
X54244693Y-61192278D01*
X54244929Y-61191884D01*
X54263923Y-61169379D01*
X54293260Y-61151355D01*
X54338769Y-61137075D01*
X54406278Y-61125800D01*
X54501615Y-61116793D01*
X54630608Y-61109314D01*
X54799087Y-61102626D01*
X54998844Y-61096395D01*
X55193506Y-61091256D01*
X55343571Y-61088641D01*
X55455184Y-61088731D01*
G36*
X49877303Y-56929303D02*
G01*
X50156018Y-56989643D01*
X50404532Y-57090608D01*
X50623132Y-57232304D01*
X50738753Y-57335614D01*
X50854598Y-57468533D01*
X50930963Y-57601733D01*
X50973525Y-57749559D01*
X50987962Y-57926354D01*
X50987986Y-57965274D01*
X50983277Y-58080767D01*
X50968065Y-58170118D01*
X50936738Y-58257746D01*
X50905401Y-58324687D01*
X50845101Y-58427470D01*
X50764211Y-58540056D01*
X50680024Y-58638403D01*
X50679007Y-58639458D01*
X50533300Y-58790330D01*
X50717450Y-59025431D01*
X50807294Y-59144102D01*
X50865235Y-59231819D01*
X50893981Y-59294810D01*
X50896245Y-59339303D01*
X50874736Y-59371524D01*
X50869850Y-59375513D01*
X50829893Y-59395628D01*
X50753752Y-59425901D01*
X50653964Y-59462118D01*
X50543069Y-59500063D01*
X50433605Y-59535520D01*
X50338111Y-59564276D01*
X50269127Y-59582114D01*
X50244121Y-59585860D01*
X50203568Y-59566980D01*
X50142258Y-59515913D01*
X50070042Y-59441011D01*
X50060629Y-59430261D01*
X49993942Y-59354064D01*
X49952651Y-59311826D01*
X49928899Y-59299102D01*
X49914828Y-59311446D01*
X49903582Y-59341413D01*
X49858320Y-59404320D01*
X49813616Y-59427161D01*
X49758481Y-59435361D01*
X49668375Y-59440900D01*
X49553852Y-59443918D01*
X49425464Y-59444556D01*
X49293764Y-59442952D01*
X49169305Y-59439247D01*
X49062639Y-59433579D01*
X48984321Y-59426088D01*
X48944902Y-59416914D01*
X48943230Y-59415650D01*
X48931655Y-59381238D01*
X48917792Y-59302683D01*
X48902129Y-59186204D01*
X48885152Y-59038016D01*
X48867346Y-58864336D01*
X48849200Y-58671380D01*
X48831198Y-58465364D01*
X48825216Y-58392060D01*
X49911000Y-58392060D01*
X49913411Y-58492725D01*
X49919870Y-58570774D01*
X49929214Y-58614875D01*
X49934451Y-58620660D01*
X49967203Y-58605577D01*
X50019969Y-58567999D01*
X50036963Y-58554134D01*
X50109262Y-58479547D01*
X50159022Y-58401174D01*
X50178829Y-58332385D01*
X50174999Y-58305282D01*
X50140712Y-58263118D01*
X50078828Y-58216821D01*
X50069318Y-58211666D01*
X50626816Y-58211666D01*
X50639019Y-58287209D01*
X50649664Y-58309023D01*
X50663613Y-58296557D01*
X50680668Y-58252570D01*
X50856124Y-58252570D01*
X50857099Y-58278942D01*
X50868612Y-58264792D01*
X50887529Y-58226960D01*
X50914293Y-58145271D01*
X50925081Y-58061860D01*
X50920620Y-58010336D01*
X50908884Y-58001927D01*
X50893292Y-58030085D01*
X50877262Y-58088265D01*
X50864212Y-58169918D01*
X50863041Y-58180673D01*
X50856124Y-58252570D01*
X50680668Y-58252570D01*
X50683768Y-58244576D01*
X50709462Y-58160209D01*
X50747678Y-58045900D01*
X50794428Y-57930302D01*
X50836911Y-57843529D01*
X50882764Y-57747007D01*
X50895095Y-57680519D01*
X50892185Y-57667561D01*
X50877501Y-57644506D01*
X50856422Y-57653895D01*
X50820161Y-57700869D01*
X50810053Y-57715611D01*
X50702312Y-57899167D01*
X50641316Y-58064244D01*
X50626816Y-58211666D01*
X50069318Y-58211666D01*
X50009604Y-58179300D01*
X49953298Y-58163466D01*
X49952451Y-58163460D01*
X49932476Y-58170389D01*
X49920041Y-58197297D01*
X49913482Y-58253363D01*
X49911134Y-58347766D01*
X49911000Y-58392060D01*
X48825216Y-58392060D01*
X48813827Y-58252505D01*
X48805712Y-58145909D01*
X50368802Y-58145909D01*
X50376755Y-58179078D01*
X50401922Y-58164880D01*
X50444026Y-58103638D01*
X50502792Y-57995680D01*
X50511835Y-57977845D01*
X50572687Y-57865075D01*
X50642847Y-57746864D01*
X50704618Y-57652490D01*
X50760888Y-57566115D01*
X50786137Y-57508232D01*
X50784006Y-57470195D01*
X50782554Y-57467376D01*
X50758051Y-57463087D01*
X50716835Y-57496754D01*
X50663800Y-57560352D01*
X50603837Y-57645859D01*
X50541838Y-57745253D01*
X50482694Y-57850511D01*
X50431299Y-57953610D01*
X50392544Y-58046528D01*
X50371322Y-58121243D01*
X50368802Y-58145909D01*
X48805712Y-58145909D01*
X48797573Y-58039019D01*
X48791724Y-57956004D01*
X50201689Y-57956004D01*
X50204605Y-57962695D01*
X50224261Y-57982119D01*
X50227868Y-57980999D01*
X50243828Y-57958221D01*
X50282999Y-57901014D01*
X50340154Y-57817048D01*
X50410068Y-57713988D01*
X50441096Y-57668160D01*
X50514573Y-57557590D01*
X50576519Y-57460596D01*
X50621808Y-57385497D01*
X50645315Y-57340615D01*
X50647471Y-57333109D01*
X50638846Y-57295910D01*
X50611662Y-57299873D01*
X50564687Y-57346107D01*
X50496691Y-57435721D01*
X50437692Y-57522194D01*
X50340304Y-57671470D01*
X50270552Y-57784685D01*
X50225894Y-57866643D01*
X50203787Y-57922148D01*
X50201689Y-57956004D01*
X48791724Y-57956004D01*
X48784166Y-57848754D01*
X50008259Y-57848754D01*
X50033149Y-57858389D01*
X50053032Y-57838345D01*
X50094884Y-57783733D01*
X50152885Y-57702512D01*
X50221216Y-57602639D01*
X50232800Y-57585339D01*
X50322893Y-57449403D01*
X50387201Y-57349317D01*
X50428856Y-57279162D01*
X50450991Y-57233022D01*
X50456741Y-57204981D01*
X50449238Y-57189121D01*
X50444468Y-57185602D01*
X50411998Y-57178931D01*
X50377646Y-57204240D01*
X50335615Y-57267466D01*
X50300965Y-57332629D01*
X50252910Y-57418811D01*
X50187808Y-57524473D01*
X50118862Y-57628282D01*
X50111460Y-57638885D01*
X50043615Y-57742014D01*
X50009555Y-57811014D01*
X50008259Y-57848754D01*
X48784166Y-57848754D01*
X48782923Y-57831123D01*
X48776736Y-57734510D01*
X49809400Y-57734510D01*
X49821570Y-57757789D01*
X49856218Y-57739058D01*
X49910549Y-57680375D01*
X49946563Y-57633515D01*
X50017898Y-57530892D01*
X50088151Y-57420427D01*
X50151420Y-57312531D01*
X50201801Y-57217613D01*
X50233390Y-57146080D01*
X50241200Y-57113996D01*
X50231744Y-57076675D01*
X50205085Y-57083651D01*
X50163789Y-57132427D01*
X50110417Y-57220503D01*
X50087465Y-57263832D01*
X50027521Y-57373862D01*
X49959721Y-57488384D01*
X49903315Y-57575760D01*
X49854992Y-57649075D01*
X49821094Y-57706685D01*
X49809400Y-57734510D01*
X48776736Y-57734510D01*
X48770364Y-57635032D01*
X48769607Y-57621514D01*
X49651073Y-57621514D01*
X49663278Y-57630611D01*
X49696552Y-57605762D01*
X49746505Y-57548164D01*
X49800791Y-57471310D01*
X49873747Y-57354928D01*
X49936229Y-57246264D01*
X49983055Y-57155081D01*
X50009041Y-57091142D01*
X50012600Y-57072271D01*
X49992061Y-57048802D01*
X49974752Y-57045860D01*
X49944820Y-57067664D01*
X49903978Y-57125796D01*
X49862180Y-57204610D01*
X49808381Y-57312929D01*
X49747573Y-57426691D01*
X49707431Y-57496710D01*
X49664328Y-57577278D01*
X49651073Y-57621514D01*
X48769607Y-57621514D01*
X48767341Y-57581108D01*
X48920400Y-57581108D01*
X48930853Y-57598591D01*
X48955408Y-57582511D01*
X48983853Y-57543911D01*
X49005977Y-57493835D01*
X49007219Y-57489317D01*
X49479200Y-57489317D01*
X49491104Y-57506616D01*
X49522903Y-57485282D01*
X49568719Y-57430458D01*
X49601269Y-57382410D01*
X49653742Y-57292613D01*
X49701731Y-57198266D01*
X49738529Y-57113852D01*
X49757425Y-57053856D01*
X49758600Y-57042758D01*
X49738558Y-57022569D01*
X49726850Y-57021298D01*
X49706634Y-57042619D01*
X49671089Y-57098197D01*
X49626430Y-57176283D01*
X49578873Y-57265131D01*
X49534635Y-57352992D01*
X49499932Y-57428120D01*
X49480979Y-57478766D01*
X49479200Y-57489317D01*
X49007219Y-57489317D01*
X49008044Y-57486320D01*
X49016241Y-57433615D01*
X49012409Y-57408802D01*
X48994912Y-57419825D01*
X48968038Y-57460831D01*
X48941017Y-57514537D01*
X48923078Y-57563657D01*
X48920400Y-57581108D01*
X48767341Y-57581108D01*
X48760381Y-57456963D01*
X48754013Y-57315408D01*
X49338094Y-57315408D01*
X49340074Y-57323216D01*
X49354909Y-57343599D01*
X49375319Y-57331881D01*
X49405203Y-57283116D01*
X49448463Y-57192360D01*
X49455324Y-57177104D01*
X49487936Y-57102857D01*
X49500904Y-57063741D01*
X49495288Y-57048495D01*
X49472150Y-57045863D01*
X49467688Y-57045860D01*
X49436636Y-57067692D01*
X49400524Y-57122139D01*
X49366979Y-57192625D01*
X49343627Y-57262573D01*
X49338094Y-57315408D01*
X48754013Y-57315408D01*
X48753460Y-57303133D01*
X48753201Y-57293635D01*
X48872302Y-57293635D01*
X48885049Y-57289982D01*
X48906953Y-57263255D01*
X48937003Y-57216774D01*
X48945800Y-57191288D01*
X48934798Y-57170894D01*
X48910534Y-57182818D01*
X48886121Y-57215957D01*
X48875203Y-57251049D01*
X48872302Y-57293635D01*
X48753201Y-57293635D01*
X48750089Y-57179757D01*
X48750313Y-57150458D01*
X49174400Y-57150458D01*
X49190049Y-57164229D01*
X49199800Y-57160160D01*
X49224251Y-57126512D01*
X49225200Y-57119061D01*
X49209550Y-57105290D01*
X49199800Y-57109360D01*
X49175348Y-57143007D01*
X49174400Y-57150458D01*
X48750313Y-57150458D01*
X48750753Y-57093052D01*
X48755938Y-57049235D01*
X48757833Y-57045866D01*
X48808708Y-57018034D01*
X48900048Y-56990108D01*
X49021551Y-56963825D01*
X49162914Y-56940917D01*
X49313836Y-56923119D01*
X49464015Y-56912164D01*
X49568100Y-56909484D01*
X49877303Y-56929303D01*
G37*
X49877303Y-56929303D02*
X50156018Y-56989643D01*
X50404532Y-57090608D01*
X50623132Y-57232304D01*
X50738753Y-57335614D01*
X50854598Y-57468533D01*
X50930963Y-57601733D01*
X50973525Y-57749559D01*
X50987962Y-57926354D01*
X50987986Y-57965274D01*
X50983277Y-58080767D01*
X50968065Y-58170118D01*
X50936738Y-58257746D01*
X50905401Y-58324687D01*
X50845101Y-58427470D01*
X50764211Y-58540056D01*
X50680024Y-58638403D01*
X50679007Y-58639458D01*
X50533300Y-58790330D01*
X50717450Y-59025431D01*
X50807294Y-59144102D01*
X50865235Y-59231819D01*
X50893981Y-59294810D01*
X50896245Y-59339303D01*
X50874736Y-59371524D01*
X50869850Y-59375513D01*
X50829893Y-59395628D01*
X50753752Y-59425901D01*
X50653964Y-59462118D01*
X50543069Y-59500063D01*
X50433605Y-59535520D01*
X50338111Y-59564276D01*
X50269127Y-59582114D01*
X50244121Y-59585860D01*
X50203568Y-59566980D01*
X50142258Y-59515913D01*
X50070042Y-59441011D01*
X50060629Y-59430261D01*
X49993942Y-59354064D01*
X49952651Y-59311826D01*
X49928899Y-59299102D01*
X49914828Y-59311446D01*
X49903582Y-59341413D01*
X49858320Y-59404320D01*
X49813616Y-59427161D01*
X49758481Y-59435361D01*
X49668375Y-59440900D01*
X49553852Y-59443918D01*
X49425464Y-59444556D01*
X49293764Y-59442952D01*
X49169305Y-59439247D01*
X49062639Y-59433579D01*
X48984321Y-59426088D01*
X48944902Y-59416914D01*
X48943230Y-59415650D01*
X48931655Y-59381238D01*
X48917792Y-59302683D01*
X48902129Y-59186204D01*
X48885152Y-59038016D01*
X48867346Y-58864336D01*
X48849200Y-58671380D01*
X48831198Y-58465364D01*
X48825216Y-58392060D01*
X49911000Y-58392060D01*
X49913411Y-58492725D01*
X49919870Y-58570774D01*
X49929214Y-58614875D01*
X49934451Y-58620660D01*
X49967203Y-58605577D01*
X50019969Y-58567999D01*
X50036963Y-58554134D01*
X50109262Y-58479547D01*
X50159022Y-58401174D01*
X50178829Y-58332385D01*
X50174999Y-58305282D01*
X50140712Y-58263118D01*
X50078828Y-58216821D01*
X50069318Y-58211666D01*
X50626816Y-58211666D01*
X50639019Y-58287209D01*
X50649664Y-58309023D01*
X50663613Y-58296557D01*
X50680668Y-58252570D01*
X50856124Y-58252570D01*
X50857099Y-58278942D01*
X50868612Y-58264792D01*
X50887529Y-58226960D01*
X50914293Y-58145271D01*
X50925081Y-58061860D01*
X50920620Y-58010336D01*
X50908884Y-58001927D01*
X50893292Y-58030085D01*
X50877262Y-58088265D01*
X50864212Y-58169918D01*
X50863041Y-58180673D01*
X50856124Y-58252570D01*
X50680668Y-58252570D01*
X50683768Y-58244576D01*
X50709462Y-58160209D01*
X50747678Y-58045900D01*
X50794428Y-57930302D01*
X50836911Y-57843529D01*
X50882764Y-57747007D01*
X50895095Y-57680519D01*
X50892185Y-57667561D01*
X50877501Y-57644506D01*
X50856422Y-57653895D01*
X50820161Y-57700869D01*
X50810053Y-57715611D01*
X50702312Y-57899167D01*
X50641316Y-58064244D01*
X50626816Y-58211666D01*
X50069318Y-58211666D01*
X50009604Y-58179300D01*
X49953298Y-58163466D01*
X49952451Y-58163460D01*
X49932476Y-58170389D01*
X49920041Y-58197297D01*
X49913482Y-58253363D01*
X49911134Y-58347766D01*
X49911000Y-58392060D01*
X48825216Y-58392060D01*
X48813827Y-58252505D01*
X48805712Y-58145909D01*
X50368802Y-58145909D01*
X50376755Y-58179078D01*
X50401922Y-58164880D01*
X50444026Y-58103638D01*
X50502792Y-57995680D01*
X50511835Y-57977845D01*
X50572687Y-57865075D01*
X50642847Y-57746864D01*
X50704618Y-57652490D01*
X50760888Y-57566115D01*
X50786137Y-57508232D01*
X50784006Y-57470195D01*
X50782554Y-57467376D01*
X50758051Y-57463087D01*
X50716835Y-57496754D01*
X50663800Y-57560352D01*
X50603837Y-57645859D01*
X50541838Y-57745253D01*
X50482694Y-57850511D01*
X50431299Y-57953610D01*
X50392544Y-58046528D01*
X50371322Y-58121243D01*
X50368802Y-58145909D01*
X48805712Y-58145909D01*
X48797573Y-58039019D01*
X48791724Y-57956004D01*
X50201689Y-57956004D01*
X50204605Y-57962695D01*
X50224261Y-57982119D01*
X50227868Y-57980999D01*
X50243828Y-57958221D01*
X50282999Y-57901014D01*
X50340154Y-57817048D01*
X50410068Y-57713988D01*
X50441096Y-57668160D01*
X50514573Y-57557590D01*
X50576519Y-57460596D01*
X50621808Y-57385497D01*
X50645315Y-57340615D01*
X50647471Y-57333109D01*
X50638846Y-57295910D01*
X50611662Y-57299873D01*
X50564687Y-57346107D01*
X50496691Y-57435721D01*
X50437692Y-57522194D01*
X50340304Y-57671470D01*
X50270552Y-57784685D01*
X50225894Y-57866643D01*
X50203787Y-57922148D01*
X50201689Y-57956004D01*
X48791724Y-57956004D01*
X48784166Y-57848754D01*
X50008259Y-57848754D01*
X50033149Y-57858389D01*
X50053032Y-57838345D01*
X50094884Y-57783733D01*
X50152885Y-57702512D01*
X50221216Y-57602639D01*
X50232800Y-57585339D01*
X50322893Y-57449403D01*
X50387201Y-57349317D01*
X50428856Y-57279162D01*
X50450991Y-57233022D01*
X50456741Y-57204981D01*
X50449238Y-57189121D01*
X50444468Y-57185602D01*
X50411998Y-57178931D01*
X50377646Y-57204240D01*
X50335615Y-57267466D01*
X50300965Y-57332629D01*
X50252910Y-57418811D01*
X50187808Y-57524473D01*
X50118862Y-57628282D01*
X50111460Y-57638885D01*
X50043615Y-57742014D01*
X50009555Y-57811014D01*
X50008259Y-57848754D01*
X48784166Y-57848754D01*
X48782923Y-57831123D01*
X48776736Y-57734510D01*
X49809400Y-57734510D01*
X49821570Y-57757789D01*
X49856218Y-57739058D01*
X49910549Y-57680375D01*
X49946563Y-57633515D01*
X50017898Y-57530892D01*
X50088151Y-57420427D01*
X50151420Y-57312531D01*
X50201801Y-57217613D01*
X50233390Y-57146080D01*
X50241200Y-57113996D01*
X50231744Y-57076675D01*
X50205085Y-57083651D01*
X50163789Y-57132427D01*
X50110417Y-57220503D01*
X50087465Y-57263832D01*
X50027521Y-57373862D01*
X49959721Y-57488384D01*
X49903315Y-57575760D01*
X49854992Y-57649075D01*
X49821094Y-57706685D01*
X49809400Y-57734510D01*
X48776736Y-57734510D01*
X48770364Y-57635032D01*
X48769607Y-57621514D01*
X49651073Y-57621514D01*
X49663278Y-57630611D01*
X49696552Y-57605762D01*
X49746505Y-57548164D01*
X49800791Y-57471310D01*
X49873747Y-57354928D01*
X49936229Y-57246264D01*
X49983055Y-57155081D01*
X50009041Y-57091142D01*
X50012600Y-57072271D01*
X49992061Y-57048802D01*
X49974752Y-57045860D01*
X49944820Y-57067664D01*
X49903978Y-57125796D01*
X49862180Y-57204610D01*
X49808381Y-57312929D01*
X49747573Y-57426691D01*
X49707431Y-57496710D01*
X49664328Y-57577278D01*
X49651073Y-57621514D01*
X48769607Y-57621514D01*
X48767341Y-57581108D01*
X48920400Y-57581108D01*
X48930853Y-57598591D01*
X48955408Y-57582511D01*
X48983853Y-57543911D01*
X49005977Y-57493835D01*
X49007219Y-57489317D01*
X49479200Y-57489317D01*
X49491104Y-57506616D01*
X49522903Y-57485282D01*
X49568719Y-57430458D01*
X49601269Y-57382410D01*
X49653742Y-57292613D01*
X49701731Y-57198266D01*
X49738529Y-57113852D01*
X49757425Y-57053856D01*
X49758600Y-57042758D01*
X49738558Y-57022569D01*
X49726850Y-57021298D01*
X49706634Y-57042619D01*
X49671089Y-57098197D01*
X49626430Y-57176283D01*
X49578873Y-57265131D01*
X49534635Y-57352992D01*
X49499932Y-57428120D01*
X49480979Y-57478766D01*
X49479200Y-57489317D01*
X49007219Y-57489317D01*
X49008044Y-57486320D01*
X49016241Y-57433615D01*
X49012409Y-57408802D01*
X48994912Y-57419825D01*
X48968038Y-57460831D01*
X48941017Y-57514537D01*
X48923078Y-57563657D01*
X48920400Y-57581108D01*
X48767341Y-57581108D01*
X48760381Y-57456963D01*
X48754013Y-57315408D01*
X49338094Y-57315408D01*
X49340074Y-57323216D01*
X49354909Y-57343599D01*
X49375319Y-57331881D01*
X49405203Y-57283116D01*
X49448463Y-57192360D01*
X49455324Y-57177104D01*
X49487936Y-57102857D01*
X49500904Y-57063741D01*
X49495288Y-57048495D01*
X49472150Y-57045863D01*
X49467688Y-57045860D01*
X49436636Y-57067692D01*
X49400524Y-57122139D01*
X49366979Y-57192625D01*
X49343627Y-57262573D01*
X49338094Y-57315408D01*
X48754013Y-57315408D01*
X48753460Y-57303133D01*
X48753201Y-57293635D01*
X48872302Y-57293635D01*
X48885049Y-57289982D01*
X48906953Y-57263255D01*
X48937003Y-57216774D01*
X48945800Y-57191288D01*
X48934798Y-57170894D01*
X48910534Y-57182818D01*
X48886121Y-57215957D01*
X48875203Y-57251049D01*
X48872302Y-57293635D01*
X48753201Y-57293635D01*
X48750089Y-57179757D01*
X48750313Y-57150458D01*
X49174400Y-57150458D01*
X49190049Y-57164229D01*
X49199800Y-57160160D01*
X49224251Y-57126512D01*
X49225200Y-57119061D01*
X49209550Y-57105290D01*
X49199800Y-57109360D01*
X49175348Y-57143007D01*
X49174400Y-57150458D01*
X48750313Y-57150458D01*
X48750753Y-57093052D01*
X48755938Y-57049235D01*
X48757833Y-57045866D01*
X48808708Y-57018034D01*
X48900048Y-56990108D01*
X49021551Y-56963825D01*
X49162914Y-56940917D01*
X49313836Y-56923119D01*
X49464015Y-56912164D01*
X49568100Y-56909484D01*
X49877303Y-56929303D01*
G36*
X52290516Y-57466527D02*
G01*
X52404366Y-57471796D01*
X52493256Y-57479783D01*
X52546373Y-57490464D01*
X52554957Y-57495252D01*
X52566664Y-57526022D01*
X52586831Y-57599814D01*
X52613999Y-57709828D01*
X52646709Y-57849264D01*
X52683501Y-58011323D01*
X52722918Y-58189205D01*
X52763498Y-58376108D01*
X52803785Y-58565234D01*
X52842318Y-58749783D01*
X52877638Y-58922954D01*
X52908286Y-59077948D01*
X52932804Y-59207964D01*
X52949732Y-59306203D01*
X52957611Y-59365865D01*
X52957993Y-59373592D01*
X52942449Y-59444559D01*
X52892962Y-59477837D01*
X52836272Y-59478944D01*
X52793704Y-59475967D01*
X52713625Y-59472279D01*
X52609307Y-59468446D01*
X52539900Y-59466292D01*
X52396394Y-59461095D01*
X52295833Y-59453919D01*
X52230362Y-59442868D01*
X52192125Y-59426045D01*
X52173268Y-59401554D01*
X52167011Y-59376268D01*
X52140867Y-59331722D01*
X52091882Y-59316822D01*
X52039047Y-59332391D01*
X52005749Y-59369285D01*
X51992796Y-59388872D01*
X51971766Y-59402750D01*
X51934706Y-59411898D01*
X51873664Y-59417291D01*
X51780686Y-59419905D01*
X51647819Y-59420719D01*
X51586649Y-59420760D01*
X51193700Y-59420760D01*
X51186615Y-59357260D01*
X51191435Y-59318243D01*
X51208261Y-59237798D01*
X51235275Y-59122682D01*
X51270654Y-58979653D01*
X51312579Y-58815471D01*
X51359229Y-58636893D01*
X51408784Y-58450678D01*
X51417809Y-58417331D01*
X51611343Y-58417331D01*
X51621108Y-58498502D01*
X51641313Y-58550371D01*
X51672008Y-58562891D01*
X51673079Y-58562558D01*
X51688413Y-58533665D01*
X51702606Y-58463374D01*
X51713929Y-58361082D01*
X51716446Y-58326534D01*
X51716997Y-58321819D01*
X51879500Y-58321819D01*
X51881702Y-58438375D01*
X51889227Y-58513258D01*
X51903453Y-58555441D01*
X51917600Y-58569991D01*
X51935621Y-58574414D01*
X51948362Y-58556050D01*
X51957645Y-58507103D01*
X51965291Y-58419781D01*
X51969790Y-58346815D01*
X51973441Y-58302887D01*
X52119347Y-58302887D01*
X52122696Y-58439203D01*
X52144331Y-58559582D01*
X52183396Y-58651789D01*
X52216998Y-58690247D01*
X52252784Y-58712973D01*
X52264875Y-58700980D01*
X52255561Y-58648899D01*
X52247365Y-58619145D01*
X52228488Y-58507858D01*
X52223459Y-58369608D01*
X52230621Y-58245968D01*
X52373140Y-58245968D01*
X52374757Y-58452901D01*
X52423398Y-58651724D01*
X52425475Y-58657170D01*
X52474268Y-58762557D01*
X52529685Y-58849146D01*
X52584115Y-58906769D01*
X52626310Y-58925460D01*
X52628456Y-58904637D01*
X52611255Y-58849524D01*
X52578308Y-58771149D01*
X52570315Y-58754010D01*
X52531293Y-58666866D01*
X52507296Y-58594821D01*
X52494823Y-58519856D01*
X52490373Y-58423949D01*
X52490127Y-58341260D01*
X52490295Y-58334621D01*
X52614657Y-58334621D01*
X52617326Y-58419328D01*
X52624844Y-58490588D01*
X52627880Y-58506360D01*
X52648505Y-58578971D01*
X52678854Y-58662415D01*
X52713894Y-58745731D01*
X52748595Y-58817959D01*
X52777925Y-58868138D01*
X52796853Y-58885307D01*
X52800087Y-58881496D01*
X52797841Y-58849392D01*
X52786313Y-58777111D01*
X52767200Y-58674078D01*
X52742194Y-58549715D01*
X52730203Y-58492739D01*
X52702144Y-58363451D01*
X52677228Y-58252950D01*
X52657557Y-58170237D01*
X52645234Y-58124310D01*
X52642688Y-58118081D01*
X52630854Y-58128196D01*
X52621911Y-58176217D01*
X52616349Y-58249304D01*
X52614657Y-58334621D01*
X52490295Y-58334621D01*
X52493453Y-58210202D01*
X52503788Y-58113684D01*
X52523628Y-58035643D01*
X52546419Y-57979204D01*
X52582606Y-57877334D01*
X52582743Y-57807450D01*
X52581667Y-57804337D01*
X52567054Y-57773982D01*
X52550383Y-57776754D01*
X52522126Y-57817485D01*
X52507536Y-57841941D01*
X52417686Y-58039467D01*
X52373140Y-58245968D01*
X52230621Y-58245968D01*
X52231769Y-58226162D01*
X52252911Y-58099288D01*
X52260109Y-58072820D01*
X52295699Y-57980514D01*
X52347550Y-57875042D01*
X52386689Y-57807860D01*
X52456371Y-57695972D01*
X52500167Y-57619051D01*
X52521335Y-57570452D01*
X52523130Y-57543533D01*
X52519239Y-57537433D01*
X52489119Y-57538946D01*
X52442537Y-57578029D01*
X52385226Y-57646554D01*
X52322917Y-57736394D01*
X52261339Y-57839421D01*
X52206225Y-57947509D01*
X52170928Y-58031384D01*
X52135139Y-58162869D01*
X52119347Y-58302887D01*
X51973441Y-58302887D01*
X51981645Y-58204204D01*
X52000755Y-58094704D01*
X52030697Y-58000759D01*
X52048977Y-57958187D01*
X52101820Y-57854924D01*
X52167346Y-57742561D01*
X52208295Y-57679439D01*
X52260963Y-57595287D01*
X52278829Y-57546197D01*
X52270365Y-57531748D01*
X52231788Y-57543881D01*
X52177329Y-57594374D01*
X52112911Y-57675702D01*
X52044454Y-57780341D01*
X51977880Y-57900767D01*
X51974169Y-57908142D01*
X51927559Y-58005385D01*
X51899389Y-58081238D01*
X51885068Y-58155763D01*
X51880004Y-58249025D01*
X51879500Y-58321819D01*
X51716997Y-58321819D01*
X51736695Y-58153513D01*
X51777099Y-58002863D01*
X51844404Y-57854694D01*
X51918877Y-57729668D01*
X51967280Y-57651907D01*
X51988574Y-57608412D01*
X51984437Y-57591590D01*
X51956544Y-57593850D01*
X51948437Y-57595878D01*
X51903125Y-57627305D01*
X51845594Y-57695385D01*
X51782839Y-57789740D01*
X51721849Y-57899995D01*
X51675745Y-58000579D01*
X51644221Y-58098482D01*
X51622948Y-58207274D01*
X51611972Y-58316906D01*
X51611343Y-58417331D01*
X51417809Y-58417331D01*
X51459424Y-58263585D01*
X51509328Y-58082371D01*
X51556676Y-57913796D01*
X51599648Y-57764617D01*
X51620888Y-57693560D01*
X51663600Y-57693560D01*
X51676300Y-57706260D01*
X51689000Y-57693560D01*
X51676300Y-57680860D01*
X51663600Y-57693560D01*
X51620888Y-57693560D01*
X51636422Y-57641594D01*
X51639146Y-57633058D01*
X51689000Y-57633058D01*
X51704649Y-57646829D01*
X51714400Y-57642760D01*
X51738851Y-57609112D01*
X51739800Y-57601661D01*
X51724150Y-57587890D01*
X51714400Y-57591960D01*
X51689948Y-57625607D01*
X51689000Y-57633058D01*
X51639146Y-57633058D01*
X51665180Y-57551484D01*
X51673816Y-57528460D01*
X52019200Y-57528460D01*
X52028493Y-57549367D01*
X52036133Y-57545393D01*
X52039173Y-57515249D01*
X52036133Y-57511526D01*
X52021033Y-57515013D01*
X52019200Y-57528460D01*
X51673816Y-57528460D01*
X51684099Y-57501046D01*
X51688661Y-57493331D01*
X51725241Y-57481789D01*
X51801728Y-57473109D01*
X51907310Y-57467267D01*
X52031176Y-57464239D01*
X52162515Y-57464000D01*
X52290516Y-57466527D01*
G37*
X52290516Y-57466527D02*
X52404366Y-57471796D01*
X52493256Y-57479783D01*
X52546373Y-57490464D01*
X52554957Y-57495252D01*
X52566664Y-57526022D01*
X52586831Y-57599814D01*
X52613999Y-57709828D01*
X52646709Y-57849264D01*
X52683501Y-58011323D01*
X52722918Y-58189205D01*
X52763498Y-58376108D01*
X52803785Y-58565234D01*
X52842318Y-58749783D01*
X52877638Y-58922954D01*
X52908286Y-59077948D01*
X52932804Y-59207964D01*
X52949732Y-59306203D01*
X52957611Y-59365865D01*
X52957993Y-59373592D01*
X52942449Y-59444559D01*
X52892962Y-59477837D01*
X52836272Y-59478944D01*
X52793704Y-59475967D01*
X52713625Y-59472279D01*
X52609307Y-59468446D01*
X52539900Y-59466292D01*
X52396394Y-59461095D01*
X52295833Y-59453919D01*
X52230362Y-59442868D01*
X52192125Y-59426045D01*
X52173268Y-59401554D01*
X52167011Y-59376268D01*
X52140867Y-59331722D01*
X52091882Y-59316822D01*
X52039047Y-59332391D01*
X52005749Y-59369285D01*
X51992796Y-59388872D01*
X51971766Y-59402750D01*
X51934706Y-59411898D01*
X51873664Y-59417291D01*
X51780686Y-59419905D01*
X51647819Y-59420719D01*
X51586649Y-59420760D01*
X51193700Y-59420760D01*
X51186615Y-59357260D01*
X51191435Y-59318243D01*
X51208261Y-59237798D01*
X51235275Y-59122682D01*
X51270654Y-58979653D01*
X51312579Y-58815471D01*
X51359229Y-58636893D01*
X51408784Y-58450678D01*
X51417809Y-58417331D01*
X51611343Y-58417331D01*
X51621108Y-58498502D01*
X51641313Y-58550371D01*
X51672008Y-58562891D01*
X51673079Y-58562558D01*
X51688413Y-58533665D01*
X51702606Y-58463374D01*
X51713929Y-58361082D01*
X51716446Y-58326534D01*
X51716997Y-58321819D01*
X51879500Y-58321819D01*
X51881702Y-58438375D01*
X51889227Y-58513258D01*
X51903453Y-58555441D01*
X51917600Y-58569991D01*
X51935621Y-58574414D01*
X51948362Y-58556050D01*
X51957645Y-58507103D01*
X51965291Y-58419781D01*
X51969790Y-58346815D01*
X51973441Y-58302887D01*
X52119347Y-58302887D01*
X52122696Y-58439203D01*
X52144331Y-58559582D01*
X52183396Y-58651789D01*
X52216998Y-58690247D01*
X52252784Y-58712973D01*
X52264875Y-58700980D01*
X52255561Y-58648899D01*
X52247365Y-58619145D01*
X52228488Y-58507858D01*
X52223459Y-58369608D01*
X52230621Y-58245968D01*
X52373140Y-58245968D01*
X52374757Y-58452901D01*
X52423398Y-58651724D01*
X52425475Y-58657170D01*
X52474268Y-58762557D01*
X52529685Y-58849146D01*
X52584115Y-58906769D01*
X52626310Y-58925460D01*
X52628456Y-58904637D01*
X52611255Y-58849524D01*
X52578308Y-58771149D01*
X52570315Y-58754010D01*
X52531293Y-58666866D01*
X52507296Y-58594821D01*
X52494823Y-58519856D01*
X52490373Y-58423949D01*
X52490127Y-58341260D01*
X52490295Y-58334621D01*
X52614657Y-58334621D01*
X52617326Y-58419328D01*
X52624844Y-58490588D01*
X52627880Y-58506360D01*
X52648505Y-58578971D01*
X52678854Y-58662415D01*
X52713894Y-58745731D01*
X52748595Y-58817959D01*
X52777925Y-58868138D01*
X52796853Y-58885307D01*
X52800087Y-58881496D01*
X52797841Y-58849392D01*
X52786313Y-58777111D01*
X52767200Y-58674078D01*
X52742194Y-58549715D01*
X52730203Y-58492739D01*
X52702144Y-58363451D01*
X52677228Y-58252950D01*
X52657557Y-58170237D01*
X52645234Y-58124310D01*
X52642688Y-58118081D01*
X52630854Y-58128196D01*
X52621911Y-58176217D01*
X52616349Y-58249304D01*
X52614657Y-58334621D01*
X52490295Y-58334621D01*
X52493453Y-58210202D01*
X52503788Y-58113684D01*
X52523628Y-58035643D01*
X52546419Y-57979204D01*
X52582606Y-57877334D01*
X52582743Y-57807450D01*
X52581667Y-57804337D01*
X52567054Y-57773982D01*
X52550383Y-57776754D01*
X52522126Y-57817485D01*
X52507536Y-57841941D01*
X52417686Y-58039467D01*
X52373140Y-58245968D01*
X52230621Y-58245968D01*
X52231769Y-58226162D01*
X52252911Y-58099288D01*
X52260109Y-58072820D01*
X52295699Y-57980514D01*
X52347550Y-57875042D01*
X52386689Y-57807860D01*
X52456371Y-57695972D01*
X52500167Y-57619051D01*
X52521335Y-57570452D01*
X52523130Y-57543533D01*
X52519239Y-57537433D01*
X52489119Y-57538946D01*
X52442537Y-57578029D01*
X52385226Y-57646554D01*
X52322917Y-57736394D01*
X52261339Y-57839421D01*
X52206225Y-57947509D01*
X52170928Y-58031384D01*
X52135139Y-58162869D01*
X52119347Y-58302887D01*
X51973441Y-58302887D01*
X51981645Y-58204204D01*
X52000755Y-58094704D01*
X52030697Y-58000759D01*
X52048977Y-57958187D01*
X52101820Y-57854924D01*
X52167346Y-57742561D01*
X52208295Y-57679439D01*
X52260963Y-57595287D01*
X52278829Y-57546197D01*
X52270365Y-57531748D01*
X52231788Y-57543881D01*
X52177329Y-57594374D01*
X52112911Y-57675702D01*
X52044454Y-57780341D01*
X51977880Y-57900767D01*
X51974169Y-57908142D01*
X51927559Y-58005385D01*
X51899389Y-58081238D01*
X51885068Y-58155763D01*
X51880004Y-58249025D01*
X51879500Y-58321819D01*
X51716997Y-58321819D01*
X51736695Y-58153513D01*
X51777099Y-58002863D01*
X51844404Y-57854694D01*
X51918877Y-57729668D01*
X51967280Y-57651907D01*
X51988574Y-57608412D01*
X51984437Y-57591590D01*
X51956544Y-57593850D01*
X51948437Y-57595878D01*
X51903125Y-57627305D01*
X51845594Y-57695385D01*
X51782839Y-57789740D01*
X51721849Y-57899995D01*
X51675745Y-58000579D01*
X51644221Y-58098482D01*
X51622948Y-58207274D01*
X51611972Y-58316906D01*
X51611343Y-58417331D01*
X51417809Y-58417331D01*
X51459424Y-58263585D01*
X51509328Y-58082371D01*
X51556676Y-57913796D01*
X51599648Y-57764617D01*
X51620888Y-57693560D01*
X51663600Y-57693560D01*
X51676300Y-57706260D01*
X51689000Y-57693560D01*
X51676300Y-57680860D01*
X51663600Y-57693560D01*
X51620888Y-57693560D01*
X51636422Y-57641594D01*
X51639146Y-57633058D01*
X51689000Y-57633058D01*
X51704649Y-57646829D01*
X51714400Y-57642760D01*
X51738851Y-57609112D01*
X51739800Y-57601661D01*
X51724150Y-57587890D01*
X51714400Y-57591960D01*
X51689948Y-57625607D01*
X51689000Y-57633058D01*
X51639146Y-57633058D01*
X51665180Y-57551484D01*
X51673816Y-57528460D01*
X52019200Y-57528460D01*
X52028493Y-57549367D01*
X52036133Y-57545393D01*
X52039173Y-57515249D01*
X52036133Y-57511526D01*
X52021033Y-57515013D01*
X52019200Y-57528460D01*
X51673816Y-57528460D01*
X51684099Y-57501046D01*
X51688661Y-57493331D01*
X51725241Y-57481789D01*
X51801728Y-57473109D01*
X51907310Y-57467267D01*
X52031176Y-57464239D01*
X52162515Y-57464000D01*
X52290516Y-57466527D01*
G36*
X57395916Y-57466527D02*
G01*
X57509766Y-57471796D01*
X57598656Y-57479783D01*
X57651773Y-57490464D01*
X57660357Y-57495252D01*
X57672064Y-57526022D01*
X57692231Y-57599814D01*
X57719399Y-57709828D01*
X57752109Y-57849264D01*
X57788901Y-58011323D01*
X57828318Y-58189205D01*
X57868898Y-58376108D01*
X57909185Y-58565234D01*
X57947718Y-58749783D01*
X57983038Y-58922954D01*
X58013686Y-59077948D01*
X58038204Y-59207964D01*
X58055132Y-59306203D01*
X58063011Y-59365865D01*
X58063393Y-59373592D01*
X58047849Y-59444559D01*
X57998362Y-59477837D01*
X57941672Y-59478944D01*
X57899104Y-59475967D01*
X57819025Y-59472279D01*
X57714707Y-59468446D01*
X57645300Y-59466292D01*
X57501794Y-59461095D01*
X57401233Y-59453919D01*
X57335762Y-59442868D01*
X57297525Y-59426045D01*
X57278668Y-59401554D01*
X57272411Y-59376268D01*
X57246267Y-59331722D01*
X57197282Y-59316822D01*
X57144447Y-59332391D01*
X57111149Y-59369285D01*
X57098196Y-59388872D01*
X57077166Y-59402750D01*
X57040106Y-59411898D01*
X56979064Y-59417291D01*
X56886086Y-59419905D01*
X56753219Y-59420719D01*
X56692049Y-59420760D01*
X56299100Y-59420760D01*
X56292015Y-59357260D01*
X56438800Y-59357260D01*
X56458128Y-59381921D01*
X56464200Y-59382660D01*
X56488861Y-59363331D01*
X56489600Y-59357260D01*
X56470271Y-59332598D01*
X56464200Y-59331860D01*
X56439538Y-59351188D01*
X56438800Y-59357260D01*
X56292015Y-59357260D01*
X56296835Y-59318243D01*
X56313661Y-59237798D01*
X56316278Y-59226644D01*
X56362600Y-59226644D01*
X56383609Y-59280277D01*
X56445063Y-59304353D01*
X56446043Y-59304454D01*
X56451726Y-59287751D01*
X56439557Y-59257074D01*
X56403493Y-59205268D01*
X56375411Y-59192247D01*
X56362735Y-59220946D01*
X56362600Y-59226644D01*
X56316278Y-59226644D01*
X56340675Y-59122682D01*
X56376054Y-58979653D01*
X56383844Y-58949143D01*
X56434464Y-58949143D01*
X56437918Y-58998493D01*
X56467127Y-59069269D01*
X56512798Y-59147092D01*
X56565638Y-59217584D01*
X56616354Y-59266365D01*
X56648350Y-59280091D01*
X56686072Y-59272960D01*
X56692800Y-59264233D01*
X56679862Y-59234025D01*
X56646733Y-59175574D01*
X56601934Y-59102546D01*
X56553988Y-59028604D01*
X56511417Y-58967411D01*
X56492472Y-58943056D01*
X56461949Y-58912131D01*
X56445030Y-58923009D01*
X56434464Y-58949143D01*
X56383844Y-58949143D01*
X56417979Y-58815471D01*
X56441585Y-58725104D01*
X56524620Y-58725104D01*
X56555996Y-58825498D01*
X56622923Y-58942031D01*
X56728362Y-59081198D01*
X56730845Y-59084210D01*
X56801435Y-59163044D01*
X56857140Y-59213056D01*
X56893419Y-59232568D01*
X56905732Y-59219901D01*
X56889540Y-59173374D01*
X56868208Y-59135010D01*
X56819974Y-59057147D01*
X56773358Y-58985313D01*
X56765063Y-58973078D01*
X56731868Y-58917797D01*
X56686473Y-58833338D01*
X56637943Y-58736655D01*
X56631413Y-58723105D01*
X56543573Y-58539814D01*
X56525837Y-58634355D01*
X56524620Y-58725104D01*
X56441585Y-58725104D01*
X56464629Y-58636893D01*
X56514184Y-58450678D01*
X56522695Y-58419232D01*
X56686157Y-58419232D01*
X56721571Y-58619661D01*
X56741760Y-58678461D01*
X56779929Y-58759769D01*
X56834876Y-58855290D01*
X56899640Y-58955275D01*
X56967261Y-59049974D01*
X57030778Y-59129638D01*
X57083231Y-59184516D01*
X57117568Y-59204860D01*
X57139896Y-59189660D01*
X57135006Y-59173110D01*
X57113948Y-59137689D01*
X57073806Y-59071477D01*
X57022143Y-58986933D01*
X57005498Y-58959809D01*
X56887597Y-58736426D01*
X56817685Y-58524804D01*
X56795834Y-58319830D01*
X56799589Y-58290765D01*
X56943702Y-58290765D01*
X56952062Y-58503468D01*
X57010706Y-58711951D01*
X57022724Y-58740252D01*
X57067856Y-58827440D01*
X57127430Y-58922526D01*
X57193677Y-59015343D01*
X57258830Y-59095725D01*
X57315120Y-59153504D01*
X57354777Y-59178513D01*
X57357829Y-59178827D01*
X57371726Y-59168957D01*
X57363338Y-59134884D01*
X57330260Y-59070987D01*
X57270086Y-58971646D01*
X57267104Y-58966891D01*
X57165954Y-58791514D01*
X57098835Y-58637658D01*
X57061913Y-58492977D01*
X57056754Y-58420730D01*
X57195326Y-58420730D01*
X57237119Y-58629089D01*
X57326908Y-58835350D01*
X57452148Y-59021471D01*
X57517126Y-59094685D01*
X57564209Y-59132297D01*
X57588846Y-59134458D01*
X57586489Y-59101318D01*
X57552587Y-59033028D01*
X57543678Y-59018444D01*
X57497284Y-58938897D01*
X57442252Y-58837074D01*
X57396789Y-58747660D01*
X57357888Y-58663451D01*
X57333854Y-58592993D01*
X57321143Y-58518566D01*
X57316212Y-58422452D01*
X57316209Y-58422023D01*
X57450179Y-58422023D01*
X57487277Y-58625972D01*
X57504738Y-58677169D01*
X57545668Y-58767525D01*
X57600976Y-58865645D01*
X57663349Y-58961159D01*
X57725476Y-59043696D01*
X57780048Y-59102886D01*
X57819752Y-59128360D01*
X57823047Y-59128660D01*
X57856965Y-59122554D01*
X57861200Y-59117426D01*
X57848669Y-59092072D01*
X57815521Y-59035233D01*
X57768425Y-58958276D01*
X57758844Y-58942946D01*
X57642637Y-58724070D01*
X57575379Y-58515068D01*
X57561158Y-58361758D01*
X57699973Y-58361758D01*
X57706341Y-58473185D01*
X57719867Y-58570582D01*
X57728964Y-58607960D01*
X57753034Y-58672351D01*
X57789126Y-58750996D01*
X57830805Y-58832054D01*
X57871633Y-58903684D01*
X57905176Y-58954045D01*
X57924995Y-58971296D01*
X57926098Y-58970627D01*
X57924948Y-58943166D01*
X57913614Y-58877288D01*
X57894142Y-58783881D01*
X57876756Y-58707910D01*
X57846120Y-58571773D01*
X57815917Y-58426366D01*
X57791188Y-58296311D01*
X57784321Y-58256318D01*
X57766753Y-58158463D01*
X57752521Y-58104828D01*
X57739194Y-58089161D01*
X57725064Y-58103918D01*
X57709210Y-58161062D01*
X57700888Y-58252362D01*
X57699973Y-58361758D01*
X57561158Y-58361758D01*
X57556696Y-58313660D01*
X57586212Y-58117568D01*
X57610657Y-58042175D01*
X57642813Y-57943433D01*
X57667210Y-57845789D01*
X57675567Y-57795160D01*
X57686219Y-57693560D01*
X57610881Y-57810484D01*
X57513123Y-58004958D01*
X57459175Y-58211911D01*
X57450179Y-58422023D01*
X57316209Y-58422023D01*
X57315502Y-58341260D01*
X57321510Y-58191687D01*
X57343477Y-58063581D01*
X57386487Y-57942101D01*
X57455628Y-57812403D01*
X57542295Y-57679439D01*
X57594666Y-57596001D01*
X57612833Y-57547114D01*
X57604062Y-57531647D01*
X57562039Y-57542671D01*
X57507442Y-57592657D01*
X57445366Y-57672939D01*
X57380905Y-57774852D01*
X57319155Y-57889729D01*
X57265211Y-58008905D01*
X57224166Y-58123712D01*
X57202761Y-58214260D01*
X57195326Y-58420730D01*
X57056754Y-58420730D01*
X57051354Y-58345128D01*
X57053792Y-58280142D01*
X57079232Y-58110711D01*
X57136228Y-57943797D01*
X57229420Y-57767393D01*
X57286192Y-57679055D01*
X57338476Y-57590175D01*
X57355906Y-57536338D01*
X57342632Y-57520039D01*
X57302805Y-57543774D01*
X57240574Y-57610039D01*
X57218387Y-57638282D01*
X57077059Y-57857078D01*
X56985433Y-58074937D01*
X56943702Y-58290765D01*
X56799589Y-58290765D01*
X56822118Y-58116390D01*
X56896609Y-57909370D01*
X57019380Y-57693658D01*
X57023669Y-57687210D01*
X57057119Y-57634151D01*
X57062370Y-57610646D01*
X57040603Y-57604804D01*
X57031844Y-57604709D01*
X56987734Y-57627004D01*
X56931536Y-57687942D01*
X56869301Y-57778716D01*
X56807082Y-57890521D01*
X56752000Y-58011895D01*
X56696362Y-58212646D01*
X56686157Y-58419232D01*
X56522695Y-58419232D01*
X56564824Y-58263585D01*
X56614728Y-58082371D01*
X56662076Y-57913796D01*
X56705048Y-57764617D01*
X56741822Y-57641594D01*
X56749556Y-57617360D01*
X56794400Y-57617360D01*
X56807100Y-57630060D01*
X56819800Y-57617360D01*
X56807100Y-57604660D01*
X56794400Y-57617360D01*
X56749556Y-57617360D01*
X56770580Y-57551484D01*
X56789499Y-57501046D01*
X56794061Y-57493331D01*
X56830641Y-57481789D01*
X56907128Y-57473109D01*
X57012710Y-57467267D01*
X57136576Y-57464239D01*
X57267915Y-57464000D01*
X57395916Y-57466527D01*
G37*
X57395916Y-57466527D02*
X57509766Y-57471796D01*
X57598656Y-57479783D01*
X57651773Y-57490464D01*
X57660357Y-57495252D01*
X57672064Y-57526022D01*
X57692231Y-57599814D01*
X57719399Y-57709828D01*
X57752109Y-57849264D01*
X57788901Y-58011323D01*
X57828318Y-58189205D01*
X57868898Y-58376108D01*
X57909185Y-58565234D01*
X57947718Y-58749783D01*
X57983038Y-58922954D01*
X58013686Y-59077948D01*
X58038204Y-59207964D01*
X58055132Y-59306203D01*
X58063011Y-59365865D01*
X58063393Y-59373592D01*
X58047849Y-59444559D01*
X57998362Y-59477837D01*
X57941672Y-59478944D01*
X57899104Y-59475967D01*
X57819025Y-59472279D01*
X57714707Y-59468446D01*
X57645300Y-59466292D01*
X57501794Y-59461095D01*
X57401233Y-59453919D01*
X57335762Y-59442868D01*
X57297525Y-59426045D01*
X57278668Y-59401554D01*
X57272411Y-59376268D01*
X57246267Y-59331722D01*
X57197282Y-59316822D01*
X57144447Y-59332391D01*
X57111149Y-59369285D01*
X57098196Y-59388872D01*
X57077166Y-59402750D01*
X57040106Y-59411898D01*
X56979064Y-59417291D01*
X56886086Y-59419905D01*
X56753219Y-59420719D01*
X56692049Y-59420760D01*
X56299100Y-59420760D01*
X56292015Y-59357260D01*
X56438800Y-59357260D01*
X56458128Y-59381921D01*
X56464200Y-59382660D01*
X56488861Y-59363331D01*
X56489600Y-59357260D01*
X56470271Y-59332598D01*
X56464200Y-59331860D01*
X56439538Y-59351188D01*
X56438800Y-59357260D01*
X56292015Y-59357260D01*
X56296835Y-59318243D01*
X56313661Y-59237798D01*
X56316278Y-59226644D01*
X56362600Y-59226644D01*
X56383609Y-59280277D01*
X56445063Y-59304353D01*
X56446043Y-59304454D01*
X56451726Y-59287751D01*
X56439557Y-59257074D01*
X56403493Y-59205268D01*
X56375411Y-59192247D01*
X56362735Y-59220946D01*
X56362600Y-59226644D01*
X56316278Y-59226644D01*
X56340675Y-59122682D01*
X56376054Y-58979653D01*
X56383844Y-58949143D01*
X56434464Y-58949143D01*
X56437918Y-58998493D01*
X56467127Y-59069269D01*
X56512798Y-59147092D01*
X56565638Y-59217584D01*
X56616354Y-59266365D01*
X56648350Y-59280091D01*
X56686072Y-59272960D01*
X56692800Y-59264233D01*
X56679862Y-59234025D01*
X56646733Y-59175574D01*
X56601934Y-59102546D01*
X56553988Y-59028604D01*
X56511417Y-58967411D01*
X56492472Y-58943056D01*
X56461949Y-58912131D01*
X56445030Y-58923009D01*
X56434464Y-58949143D01*
X56383844Y-58949143D01*
X56417979Y-58815471D01*
X56441585Y-58725104D01*
X56524620Y-58725104D01*
X56555996Y-58825498D01*
X56622923Y-58942031D01*
X56728362Y-59081198D01*
X56730845Y-59084210D01*
X56801435Y-59163044D01*
X56857140Y-59213056D01*
X56893419Y-59232568D01*
X56905732Y-59219901D01*
X56889540Y-59173374D01*
X56868208Y-59135010D01*
X56819974Y-59057147D01*
X56773358Y-58985313D01*
X56765063Y-58973078D01*
X56731868Y-58917797D01*
X56686473Y-58833338D01*
X56637943Y-58736655D01*
X56631413Y-58723105D01*
X56543573Y-58539814D01*
X56525837Y-58634355D01*
X56524620Y-58725104D01*
X56441585Y-58725104D01*
X56464629Y-58636893D01*
X56514184Y-58450678D01*
X56522695Y-58419232D01*
X56686157Y-58419232D01*
X56721571Y-58619661D01*
X56741760Y-58678461D01*
X56779929Y-58759769D01*
X56834876Y-58855290D01*
X56899640Y-58955275D01*
X56967261Y-59049974D01*
X57030778Y-59129638D01*
X57083231Y-59184516D01*
X57117568Y-59204860D01*
X57139896Y-59189660D01*
X57135006Y-59173110D01*
X57113948Y-59137689D01*
X57073806Y-59071477D01*
X57022143Y-58986933D01*
X57005498Y-58959809D01*
X56887597Y-58736426D01*
X56817685Y-58524804D01*
X56795834Y-58319830D01*
X56799589Y-58290765D01*
X56943702Y-58290765D01*
X56952062Y-58503468D01*
X57010706Y-58711951D01*
X57022724Y-58740252D01*
X57067856Y-58827440D01*
X57127430Y-58922526D01*
X57193677Y-59015343D01*
X57258830Y-59095725D01*
X57315120Y-59153504D01*
X57354777Y-59178513D01*
X57357829Y-59178827D01*
X57371726Y-59168957D01*
X57363338Y-59134884D01*
X57330260Y-59070987D01*
X57270086Y-58971646D01*
X57267104Y-58966891D01*
X57165954Y-58791514D01*
X57098835Y-58637658D01*
X57061913Y-58492977D01*
X57056754Y-58420730D01*
X57195326Y-58420730D01*
X57237119Y-58629089D01*
X57326908Y-58835350D01*
X57452148Y-59021471D01*
X57517126Y-59094685D01*
X57564209Y-59132297D01*
X57588846Y-59134458D01*
X57586489Y-59101318D01*
X57552587Y-59033028D01*
X57543678Y-59018444D01*
X57497284Y-58938897D01*
X57442252Y-58837074D01*
X57396789Y-58747660D01*
X57357888Y-58663451D01*
X57333854Y-58592993D01*
X57321143Y-58518566D01*
X57316212Y-58422452D01*
X57316209Y-58422023D01*
X57450179Y-58422023D01*
X57487277Y-58625972D01*
X57504738Y-58677169D01*
X57545668Y-58767525D01*
X57600976Y-58865645D01*
X57663349Y-58961159D01*
X57725476Y-59043696D01*
X57780048Y-59102886D01*
X57819752Y-59128360D01*
X57823047Y-59128660D01*
X57856965Y-59122554D01*
X57861200Y-59117426D01*
X57848669Y-59092072D01*
X57815521Y-59035233D01*
X57768425Y-58958276D01*
X57758844Y-58942946D01*
X57642637Y-58724070D01*
X57575379Y-58515068D01*
X57561158Y-58361758D01*
X57699973Y-58361758D01*
X57706341Y-58473185D01*
X57719867Y-58570582D01*
X57728964Y-58607960D01*
X57753034Y-58672351D01*
X57789126Y-58750996D01*
X57830805Y-58832054D01*
X57871633Y-58903684D01*
X57905176Y-58954045D01*
X57924995Y-58971296D01*
X57926098Y-58970627D01*
X57924948Y-58943166D01*
X57913614Y-58877288D01*
X57894142Y-58783881D01*
X57876756Y-58707910D01*
X57846120Y-58571773D01*
X57815917Y-58426366D01*
X57791188Y-58296311D01*
X57784321Y-58256318D01*
X57766753Y-58158463D01*
X57752521Y-58104828D01*
X57739194Y-58089161D01*
X57725064Y-58103918D01*
X57709210Y-58161062D01*
X57700888Y-58252362D01*
X57699973Y-58361758D01*
X57561158Y-58361758D01*
X57556696Y-58313660D01*
X57586212Y-58117568D01*
X57610657Y-58042175D01*
X57642813Y-57943433D01*
X57667210Y-57845789D01*
X57675567Y-57795160D01*
X57686219Y-57693560D01*
X57610881Y-57810484D01*
X57513123Y-58004958D01*
X57459175Y-58211911D01*
X57450179Y-58422023D01*
X57316209Y-58422023D01*
X57315502Y-58341260D01*
X57321510Y-58191687D01*
X57343477Y-58063581D01*
X57386487Y-57942101D01*
X57455628Y-57812403D01*
X57542295Y-57679439D01*
X57594666Y-57596001D01*
X57612833Y-57547114D01*
X57604062Y-57531647D01*
X57562039Y-57542671D01*
X57507442Y-57592657D01*
X57445366Y-57672939D01*
X57380905Y-57774852D01*
X57319155Y-57889729D01*
X57265211Y-58008905D01*
X57224166Y-58123712D01*
X57202761Y-58214260D01*
X57195326Y-58420730D01*
X57056754Y-58420730D01*
X57051354Y-58345128D01*
X57053792Y-58280142D01*
X57079232Y-58110711D01*
X57136228Y-57943797D01*
X57229420Y-57767393D01*
X57286192Y-57679055D01*
X57338476Y-57590175D01*
X57355906Y-57536338D01*
X57342632Y-57520039D01*
X57302805Y-57543774D01*
X57240574Y-57610039D01*
X57218387Y-57638282D01*
X57077059Y-57857078D01*
X56985433Y-58074937D01*
X56943702Y-58290765D01*
X56799589Y-58290765D01*
X56822118Y-58116390D01*
X56896609Y-57909370D01*
X57019380Y-57693658D01*
X57023669Y-57687210D01*
X57057119Y-57634151D01*
X57062370Y-57610646D01*
X57040603Y-57604804D01*
X57031844Y-57604709D01*
X56987734Y-57627004D01*
X56931536Y-57687942D01*
X56869301Y-57778716D01*
X56807082Y-57890521D01*
X56752000Y-58011895D01*
X56696362Y-58212646D01*
X56686157Y-58419232D01*
X56522695Y-58419232D01*
X56564824Y-58263585D01*
X56614728Y-58082371D01*
X56662076Y-57913796D01*
X56705048Y-57764617D01*
X56741822Y-57641594D01*
X56749556Y-57617360D01*
X56794400Y-57617360D01*
X56807100Y-57630060D01*
X56819800Y-57617360D01*
X56807100Y-57604660D01*
X56794400Y-57617360D01*
X56749556Y-57617360D01*
X56770580Y-57551484D01*
X56789499Y-57501046D01*
X56794061Y-57493331D01*
X56830641Y-57481789D01*
X56907128Y-57473109D01*
X57012710Y-57467267D01*
X57136576Y-57464239D01*
X57267915Y-57464000D01*
X57395916Y-57466527D01*
G36*
X62245785Y-57382605D02*
G01*
X62448977Y-57422075D01*
X62626220Y-57504152D01*
X62774578Y-57626154D01*
X62891115Y-57785399D01*
X62972895Y-57979204D01*
X62995578Y-58067483D01*
X63012560Y-58206253D01*
X63013448Y-58371368D01*
X62999688Y-58542895D01*
X62972725Y-58700903D01*
X62942010Y-58805798D01*
X62883888Y-58933816D01*
X62808897Y-59063914D01*
X62726060Y-59182849D01*
X62644401Y-59277378D01*
X62588113Y-59325131D01*
X62441631Y-59395827D01*
X62268973Y-59435028D01*
X62085927Y-59439870D01*
X62007146Y-59430540D01*
X61812357Y-59374726D01*
X61645833Y-59277885D01*
X61508981Y-59142111D01*
X61403207Y-58969496D01*
X61329916Y-58762131D01*
X61301742Y-58590502D01*
X62052200Y-58590502D01*
X62060733Y-58693667D01*
X62083265Y-58775229D01*
X62115194Y-58828561D01*
X62151920Y-58847038D01*
X62188839Y-58824033D01*
X62201033Y-58804810D01*
X62215282Y-58754342D01*
X62226823Y-58672044D01*
X62233859Y-58576880D01*
X62234593Y-58487811D01*
X62233277Y-58464627D01*
X62209004Y-58419518D01*
X62156715Y-58403568D01*
X62101159Y-58418444D01*
X62072127Y-58444163D01*
X62057138Y-58490473D01*
X62052295Y-58571081D01*
X62052200Y-58590502D01*
X61301742Y-58590502D01*
X61290514Y-58522110D01*
X61283727Y-58353960D01*
X61301066Y-58150078D01*
X61544168Y-58150078D01*
X61553250Y-58159159D01*
X61578382Y-58141054D01*
X61613887Y-58097338D01*
X61654585Y-58027225D01*
X61671545Y-57991662D01*
X61713482Y-57909056D01*
X61739484Y-57864451D01*
X61913593Y-57864451D01*
X61919371Y-57878945D01*
X61948097Y-57860532D01*
X61948789Y-57859835D01*
X62676388Y-57859835D01*
X62679359Y-57881017D01*
X62696326Y-57884060D01*
X62735306Y-57864619D01*
X62771856Y-57823471D01*
X62796908Y-57766445D01*
X62782269Y-57735786D01*
X62759818Y-57731660D01*
X62735447Y-57751921D01*
X62703338Y-57801354D01*
X62699900Y-57807860D01*
X62676388Y-57859835D01*
X61948789Y-57859835D01*
X61995555Y-57812736D01*
X62051001Y-57746842D01*
X62496989Y-57746842D01*
X62498200Y-57784214D01*
X62524342Y-57786442D01*
X62570014Y-57746942D01*
X62575187Y-57740763D01*
X62614806Y-57684569D01*
X62634908Y-57640942D01*
X62635486Y-57636410D01*
X62623102Y-57606292D01*
X62590710Y-57611469D01*
X62549705Y-57647305D01*
X62526109Y-57680912D01*
X62496989Y-57746842D01*
X62051001Y-57746842D01*
X62057533Y-57739080D01*
X62088176Y-57698772D01*
X62278446Y-57698772D01*
X62279394Y-57731180D01*
X62305319Y-57727921D01*
X62350109Y-57688458D01*
X62389845Y-57638395D01*
X62427212Y-57578364D01*
X62444607Y-57534940D01*
X62443888Y-57525205D01*
X62413695Y-57512840D01*
X62370465Y-57543207D01*
X62319915Y-57611826D01*
X62308590Y-57631236D01*
X62278446Y-57698772D01*
X62088176Y-57698772D01*
X62116032Y-57662131D01*
X62189283Y-57559528D01*
X62233587Y-57490637D01*
X62251798Y-57449561D01*
X62246775Y-57430399D01*
X62229947Y-57426860D01*
X62204016Y-57446236D01*
X62158278Y-57497160D01*
X62100979Y-57568826D01*
X62040359Y-57650429D01*
X61984664Y-57731162D01*
X61942137Y-57800220D01*
X61934975Y-57813527D01*
X61913593Y-57864451D01*
X61739484Y-57864451D01*
X61771664Y-57809248D01*
X61823846Y-57728317D01*
X61878689Y-57642247D01*
X61899979Y-57593994D01*
X61887748Y-57583677D01*
X61842029Y-57611417D01*
X61800968Y-57644328D01*
X61745576Y-57707346D01*
X61683915Y-57802547D01*
X61624840Y-57913619D01*
X61577207Y-58024249D01*
X61553640Y-58099960D01*
X61544168Y-58150078D01*
X61301066Y-58150078D01*
X61304168Y-58113608D01*
X61362553Y-57902676D01*
X61389155Y-57851922D01*
X61453582Y-57851922D01*
X61460997Y-57858203D01*
X61484041Y-57838260D01*
X61524377Y-57786782D01*
X61566700Y-57724853D01*
X61611651Y-57654468D01*
X61629793Y-57621622D01*
X61622291Y-57621450D01*
X61590311Y-57649089D01*
X61583337Y-57655460D01*
X61535529Y-57706922D01*
X61492859Y-57765285D01*
X61462989Y-57817852D01*
X61453582Y-57851922D01*
X61389155Y-57851922D01*
X61456348Y-57723726D01*
X61583018Y-57579315D01*
X61740026Y-57472004D01*
X61924838Y-57404353D01*
X62134918Y-57378921D01*
X62245785Y-57382605D01*
G37*
X62245785Y-57382605D02*
X62448977Y-57422075D01*
X62626220Y-57504152D01*
X62774578Y-57626154D01*
X62891115Y-57785399D01*
X62972895Y-57979204D01*
X62995578Y-58067483D01*
X63012560Y-58206253D01*
X63013448Y-58371368D01*
X62999688Y-58542895D01*
X62972725Y-58700903D01*
X62942010Y-58805798D01*
X62883888Y-58933816D01*
X62808897Y-59063914D01*
X62726060Y-59182849D01*
X62644401Y-59277378D01*
X62588113Y-59325131D01*
X62441631Y-59395827D01*
X62268973Y-59435028D01*
X62085927Y-59439870D01*
X62007146Y-59430540D01*
X61812357Y-59374726D01*
X61645833Y-59277885D01*
X61508981Y-59142111D01*
X61403207Y-58969496D01*
X61329916Y-58762131D01*
X61301742Y-58590502D01*
X62052200Y-58590502D01*
X62060733Y-58693667D01*
X62083265Y-58775229D01*
X62115194Y-58828561D01*
X62151920Y-58847038D01*
X62188839Y-58824033D01*
X62201033Y-58804810D01*
X62215282Y-58754342D01*
X62226823Y-58672044D01*
X62233859Y-58576880D01*
X62234593Y-58487811D01*
X62233277Y-58464627D01*
X62209004Y-58419518D01*
X62156715Y-58403568D01*
X62101159Y-58418444D01*
X62072127Y-58444163D01*
X62057138Y-58490473D01*
X62052295Y-58571081D01*
X62052200Y-58590502D01*
X61301742Y-58590502D01*
X61290514Y-58522110D01*
X61283727Y-58353960D01*
X61301066Y-58150078D01*
X61544168Y-58150078D01*
X61553250Y-58159159D01*
X61578382Y-58141054D01*
X61613887Y-58097338D01*
X61654585Y-58027225D01*
X61671545Y-57991662D01*
X61713482Y-57909056D01*
X61739484Y-57864451D01*
X61913593Y-57864451D01*
X61919371Y-57878945D01*
X61948097Y-57860532D01*
X61948789Y-57859835D01*
X62676388Y-57859835D01*
X62679359Y-57881017D01*
X62696326Y-57884060D01*
X62735306Y-57864619D01*
X62771856Y-57823471D01*
X62796908Y-57766445D01*
X62782269Y-57735786D01*
X62759818Y-57731660D01*
X62735447Y-57751921D01*
X62703338Y-57801354D01*
X62699900Y-57807860D01*
X62676388Y-57859835D01*
X61948789Y-57859835D01*
X61995555Y-57812736D01*
X62051001Y-57746842D01*
X62496989Y-57746842D01*
X62498200Y-57784214D01*
X62524342Y-57786442D01*
X62570014Y-57746942D01*
X62575187Y-57740763D01*
X62614806Y-57684569D01*
X62634908Y-57640942D01*
X62635486Y-57636410D01*
X62623102Y-57606292D01*
X62590710Y-57611469D01*
X62549705Y-57647305D01*
X62526109Y-57680912D01*
X62496989Y-57746842D01*
X62051001Y-57746842D01*
X62057533Y-57739080D01*
X62088176Y-57698772D01*
X62278446Y-57698772D01*
X62279394Y-57731180D01*
X62305319Y-57727921D01*
X62350109Y-57688458D01*
X62389845Y-57638395D01*
X62427212Y-57578364D01*
X62444607Y-57534940D01*
X62443888Y-57525205D01*
X62413695Y-57512840D01*
X62370465Y-57543207D01*
X62319915Y-57611826D01*
X62308590Y-57631236D01*
X62278446Y-57698772D01*
X62088176Y-57698772D01*
X62116032Y-57662131D01*
X62189283Y-57559528D01*
X62233587Y-57490637D01*
X62251798Y-57449561D01*
X62246775Y-57430399D01*
X62229947Y-57426860D01*
X62204016Y-57446236D01*
X62158278Y-57497160D01*
X62100979Y-57568826D01*
X62040359Y-57650429D01*
X61984664Y-57731162D01*
X61942137Y-57800220D01*
X61934975Y-57813527D01*
X61913593Y-57864451D01*
X61739484Y-57864451D01*
X61771664Y-57809248D01*
X61823846Y-57728317D01*
X61878689Y-57642247D01*
X61899979Y-57593994D01*
X61887748Y-57583677D01*
X61842029Y-57611417D01*
X61800968Y-57644328D01*
X61745576Y-57707346D01*
X61683915Y-57802547D01*
X61624840Y-57913619D01*
X61577207Y-58024249D01*
X61553640Y-58099960D01*
X61544168Y-58150078D01*
X61301066Y-58150078D01*
X61304168Y-58113608D01*
X61362553Y-57902676D01*
X61389155Y-57851922D01*
X61453582Y-57851922D01*
X61460997Y-57858203D01*
X61484041Y-57838260D01*
X61524377Y-57786782D01*
X61566700Y-57724853D01*
X61611651Y-57654468D01*
X61629793Y-57621622D01*
X61622291Y-57621450D01*
X61590311Y-57649089D01*
X61583337Y-57655460D01*
X61535529Y-57706922D01*
X61492859Y-57765285D01*
X61462989Y-57817852D01*
X61453582Y-57851922D01*
X61389155Y-57851922D01*
X61456348Y-57723726D01*
X61583018Y-57579315D01*
X61740026Y-57472004D01*
X61924838Y-57404353D01*
X62134918Y-57378921D01*
X62245785Y-57382605D01*
G36*
X53427457Y-57454258D02*
G01*
X53516795Y-57465917D01*
X53549736Y-57475316D01*
X53591914Y-57506958D01*
X53648992Y-57570005D01*
X53710061Y-57652107D01*
X53722839Y-57671332D01*
X53835300Y-57844291D01*
X53848098Y-57684256D01*
X53852063Y-57653806D01*
X53981227Y-57653806D01*
X53984701Y-57655460D01*
X54007881Y-57637578D01*
X54013100Y-57630060D01*
X54019572Y-57606313D01*
X54016098Y-57604660D01*
X53992918Y-57622541D01*
X53987700Y-57630060D01*
X53981227Y-57653806D01*
X53852063Y-57653806D01*
X53861483Y-57581472D01*
X53888138Y-57514145D01*
X53937299Y-57475010D01*
X54018206Y-57456803D01*
X54140096Y-57452261D01*
X54143140Y-57452260D01*
X54255686Y-57456315D01*
X54327632Y-57469634D01*
X54367192Y-57492481D01*
X54377670Y-57507698D01*
X54386082Y-57533482D01*
X54392594Y-57574736D01*
X54397373Y-57636360D01*
X54400588Y-57723256D01*
X54402404Y-57840327D01*
X54402990Y-57992472D01*
X54402512Y-58184595D01*
X54401138Y-58421597D01*
X54400757Y-58476731D01*
X54394100Y-59420760D01*
X54100323Y-59427875D01*
X53806546Y-59434991D01*
X53555900Y-59070845D01*
X53548119Y-59219524D01*
X53539476Y-59305846D01*
X53525280Y-59373547D01*
X53513259Y-59400831D01*
X53474118Y-59417740D01*
X53399821Y-59428757D01*
X53305675Y-59433811D01*
X53206988Y-59432834D01*
X53119070Y-59425756D01*
X53057228Y-59412507D01*
X53040280Y-59402980D01*
X53031674Y-59379924D01*
X53024670Y-59327346D01*
X53019158Y-59241802D01*
X53015026Y-59119847D01*
X53012165Y-58958037D01*
X53011600Y-58889824D01*
X53118586Y-58889824D01*
X53121556Y-58924330D01*
X53137287Y-58972930D01*
X53160932Y-59019888D01*
X53182801Y-59046110D01*
X53229138Y-59075514D01*
X53243828Y-59065994D01*
X53226268Y-59018833D01*
X53209586Y-58988878D01*
X53170687Y-58928862D01*
X53138979Y-58889824D01*
X53133225Y-58885150D01*
X53118586Y-58889824D01*
X53011600Y-58889824D01*
X53010738Y-58785760D01*
X53060600Y-58785760D01*
X53073300Y-58798460D01*
X53086000Y-58785760D01*
X53073300Y-58773060D01*
X53060600Y-58785760D01*
X53010738Y-58785760D01*
X53010465Y-58752928D01*
X53009814Y-58501074D01*
X53009800Y-58451920D01*
X53009800Y-58392066D01*
X53128189Y-58392066D01*
X53160973Y-58590426D01*
X53233859Y-58782885D01*
X53343118Y-58957568D01*
X53397016Y-59020710D01*
X53446848Y-59064661D01*
X53481805Y-59078175D01*
X53492400Y-59062937D01*
X53480949Y-59034878D01*
X53450839Y-58975189D01*
X53408432Y-58896449D01*
X53405687Y-58891487D01*
X53302693Y-58666914D01*
X53248920Y-58451877D01*
X53246442Y-58338475D01*
X53380117Y-58338475D01*
X53398749Y-58537751D01*
X53463211Y-58730711D01*
X53506811Y-58813581D01*
X53564978Y-58905294D01*
X53629799Y-58995515D01*
X53693359Y-59073908D01*
X53747745Y-59130138D01*
X53785043Y-59153871D01*
X53787368Y-59154060D01*
X53812061Y-59149144D01*
X53808097Y-59126157D01*
X53782198Y-59084210D01*
X53668340Y-58902935D01*
X53586264Y-58747948D01*
X53532359Y-58609096D01*
X53503012Y-58476229D01*
X53497565Y-58387376D01*
X53638096Y-58387376D01*
X53671108Y-58596161D01*
X53740952Y-58773572D01*
X53797445Y-58874321D01*
X53861650Y-58974325D01*
X53926381Y-59063955D01*
X53984448Y-59133581D01*
X54028663Y-59173572D01*
X54043921Y-59179460D01*
X54074169Y-59171979D01*
X54076600Y-59167444D01*
X54064157Y-59141832D01*
X54030964Y-59083869D01*
X53983223Y-59004263D01*
X53962575Y-58970594D01*
X53840408Y-58738424D01*
X53767586Y-58517851D01*
X53756541Y-58419614D01*
X53893558Y-58419614D01*
X53936112Y-58626451D01*
X54026730Y-58837710D01*
X54164518Y-59050724D01*
X54190422Y-59084210D01*
X54268162Y-59175758D01*
X54321430Y-59222870D01*
X54350287Y-59225589D01*
X54356000Y-59201835D01*
X54343164Y-59169495D01*
X54308559Y-59105025D01*
X54258033Y-59018929D01*
X54218068Y-58954185D01*
X54121577Y-58790150D01*
X54056299Y-58650207D01*
X54018269Y-58521801D01*
X54003522Y-58392375D01*
X54003850Y-58375643D01*
X54139632Y-58375643D01*
X54170488Y-58566508D01*
X54247249Y-58771427D01*
X54259745Y-58797520D01*
X54301550Y-58881658D01*
X54326502Y-58924858D01*
X54339852Y-58931919D01*
X54346854Y-58907640D01*
X54350181Y-58880137D01*
X54346742Y-58810740D01*
X54328352Y-58717688D01*
X54306874Y-58645086D01*
X54263025Y-58448610D01*
X54260845Y-58244599D01*
X54300383Y-58050596D01*
X54305200Y-58036460D01*
X54332006Y-57947776D01*
X54349145Y-57866538D01*
X54355550Y-57803152D01*
X54350153Y-57768025D01*
X54332405Y-57771030D01*
X54293640Y-57827289D01*
X54249091Y-57916555D01*
X54205599Y-58022630D01*
X54170006Y-58129315D01*
X54153814Y-58193901D01*
X54139632Y-58375643D01*
X54003850Y-58375643D01*
X54005694Y-58281655D01*
X54031878Y-58108087D01*
X54090526Y-57938713D01*
X54186393Y-57761312D01*
X54239302Y-57680883D01*
X54290956Y-57599063D01*
X54310422Y-57549054D01*
X54301688Y-57526289D01*
X54265531Y-57531410D01*
X54215880Y-57575590D01*
X54157558Y-57650505D01*
X54095386Y-57747829D01*
X54034186Y-57859239D01*
X53978778Y-57976409D01*
X53933986Y-58091015D01*
X53904630Y-58194733D01*
X53899965Y-58219861D01*
X53893558Y-58419614D01*
X53756541Y-58419614D01*
X53744060Y-58308610D01*
X53769777Y-58110437D01*
X53786461Y-58054934D01*
X53810047Y-57964695D01*
X53806831Y-57905304D01*
X53800735Y-57891660D01*
X53783123Y-57871051D01*
X53764352Y-57881990D01*
X53737596Y-57930985D01*
X53720853Y-57967813D01*
X53654634Y-58176183D01*
X53638096Y-58387376D01*
X53497565Y-58387376D01*
X53494611Y-58339195D01*
X53496313Y-58280800D01*
X53506840Y-58166734D01*
X53529625Y-58069584D01*
X53571245Y-57965484D01*
X53599228Y-57907279D01*
X53650210Y-57795420D01*
X53671876Y-57723849D01*
X53667085Y-57693560D01*
X53639418Y-57687300D01*
X53603461Y-57718906D01*
X53556652Y-57791692D01*
X53496428Y-57908973D01*
X53489653Y-57923099D01*
X53410371Y-58135024D01*
X53380117Y-58338475D01*
X53246442Y-58338475D01*
X53244363Y-58243363D01*
X53289016Y-58038357D01*
X53382875Y-57833847D01*
X53403909Y-57798613D01*
X53456430Y-57713841D01*
X53506466Y-57633693D01*
X53528009Y-57599489D01*
X53558327Y-57549208D01*
X53561087Y-57530148D01*
X53536447Y-57530959D01*
X53528949Y-57532371D01*
X53472570Y-57564507D01*
X53406639Y-57635195D01*
X53336926Y-57734550D01*
X53269205Y-57852689D01*
X53209247Y-57979729D01*
X53162823Y-58105788D01*
X53139235Y-58199683D01*
X53128189Y-58392066D01*
X53009800Y-58392066D01*
X53009800Y-57849648D01*
X53060600Y-57849648D01*
X53062063Y-57888485D01*
X53069962Y-57901111D01*
X53089558Y-57883110D01*
X53126112Y-57830066D01*
X53174507Y-57754033D01*
X53226179Y-57663989D01*
X53245106Y-57608018D01*
X53232204Y-57582150D01*
X53214876Y-57579260D01*
X53184292Y-57600410D01*
X53144655Y-57653439D01*
X53104886Y-57722711D01*
X53073907Y-57792588D01*
X53060638Y-57847437D01*
X53060600Y-57849648D01*
X53009800Y-57849648D01*
X53009800Y-57531340D01*
X53066251Y-57491800D01*
X53123302Y-57470941D01*
X53213796Y-57457347D01*
X53320819Y-57451594D01*
X53427457Y-57454258D01*
G37*
X53427457Y-57454258D02*
X53516795Y-57465917D01*
X53549736Y-57475316D01*
X53591914Y-57506958D01*
X53648992Y-57570005D01*
X53710061Y-57652107D01*
X53722839Y-57671332D01*
X53835300Y-57844291D01*
X53848098Y-57684256D01*
X53852063Y-57653806D01*
X53981227Y-57653806D01*
X53984701Y-57655460D01*
X54007881Y-57637578D01*
X54013100Y-57630060D01*
X54019572Y-57606313D01*
X54016098Y-57604660D01*
X53992918Y-57622541D01*
X53987700Y-57630060D01*
X53981227Y-57653806D01*
X53852063Y-57653806D01*
X53861483Y-57581472D01*
X53888138Y-57514145D01*
X53937299Y-57475010D01*
X54018206Y-57456803D01*
X54140096Y-57452261D01*
X54143140Y-57452260D01*
X54255686Y-57456315D01*
X54327632Y-57469634D01*
X54367192Y-57492481D01*
X54377670Y-57507698D01*
X54386082Y-57533482D01*
X54392594Y-57574736D01*
X54397373Y-57636360D01*
X54400588Y-57723256D01*
X54402404Y-57840327D01*
X54402990Y-57992472D01*
X54402512Y-58184595D01*
X54401138Y-58421597D01*
X54400757Y-58476731D01*
X54394100Y-59420760D01*
X54100323Y-59427875D01*
X53806546Y-59434991D01*
X53555900Y-59070845D01*
X53548119Y-59219524D01*
X53539476Y-59305846D01*
X53525280Y-59373547D01*
X53513259Y-59400831D01*
X53474118Y-59417740D01*
X53399821Y-59428757D01*
X53305675Y-59433811D01*
X53206988Y-59432834D01*
X53119070Y-59425756D01*
X53057228Y-59412507D01*
X53040280Y-59402980D01*
X53031674Y-59379924D01*
X53024670Y-59327346D01*
X53019158Y-59241802D01*
X53015026Y-59119847D01*
X53012165Y-58958037D01*
X53011600Y-58889824D01*
X53118586Y-58889824D01*
X53121556Y-58924330D01*
X53137287Y-58972930D01*
X53160932Y-59019888D01*
X53182801Y-59046110D01*
X53229138Y-59075514D01*
X53243828Y-59065994D01*
X53226268Y-59018833D01*
X53209586Y-58988878D01*
X53170687Y-58928862D01*
X53138979Y-58889824D01*
X53133225Y-58885150D01*
X53118586Y-58889824D01*
X53011600Y-58889824D01*
X53010738Y-58785760D01*
X53060600Y-58785760D01*
X53073300Y-58798460D01*
X53086000Y-58785760D01*
X53073300Y-58773060D01*
X53060600Y-58785760D01*
X53010738Y-58785760D01*
X53010465Y-58752928D01*
X53009814Y-58501074D01*
X53009800Y-58451920D01*
X53009800Y-58392066D01*
X53128189Y-58392066D01*
X53160973Y-58590426D01*
X53233859Y-58782885D01*
X53343118Y-58957568D01*
X53397016Y-59020710D01*
X53446848Y-59064661D01*
X53481805Y-59078175D01*
X53492400Y-59062937D01*
X53480949Y-59034878D01*
X53450839Y-58975189D01*
X53408432Y-58896449D01*
X53405687Y-58891487D01*
X53302693Y-58666914D01*
X53248920Y-58451877D01*
X53246442Y-58338475D01*
X53380117Y-58338475D01*
X53398749Y-58537751D01*
X53463211Y-58730711D01*
X53506811Y-58813581D01*
X53564978Y-58905294D01*
X53629799Y-58995515D01*
X53693359Y-59073908D01*
X53747745Y-59130138D01*
X53785043Y-59153871D01*
X53787368Y-59154060D01*
X53812061Y-59149144D01*
X53808097Y-59126157D01*
X53782198Y-59084210D01*
X53668340Y-58902935D01*
X53586264Y-58747948D01*
X53532359Y-58609096D01*
X53503012Y-58476229D01*
X53497565Y-58387376D01*
X53638096Y-58387376D01*
X53671108Y-58596161D01*
X53740952Y-58773572D01*
X53797445Y-58874321D01*
X53861650Y-58974325D01*
X53926381Y-59063955D01*
X53984448Y-59133581D01*
X54028663Y-59173572D01*
X54043921Y-59179460D01*
X54074169Y-59171979D01*
X54076600Y-59167444D01*
X54064157Y-59141832D01*
X54030964Y-59083869D01*
X53983223Y-59004263D01*
X53962575Y-58970594D01*
X53840408Y-58738424D01*
X53767586Y-58517851D01*
X53756541Y-58419614D01*
X53893558Y-58419614D01*
X53936112Y-58626451D01*
X54026730Y-58837710D01*
X54164518Y-59050724D01*
X54190422Y-59084210D01*
X54268162Y-59175758D01*
X54321430Y-59222870D01*
X54350287Y-59225589D01*
X54356000Y-59201835D01*
X54343164Y-59169495D01*
X54308559Y-59105025D01*
X54258033Y-59018929D01*
X54218068Y-58954185D01*
X54121577Y-58790150D01*
X54056299Y-58650207D01*
X54018269Y-58521801D01*
X54003522Y-58392375D01*
X54003850Y-58375643D01*
X54139632Y-58375643D01*
X54170488Y-58566508D01*
X54247249Y-58771427D01*
X54259745Y-58797520D01*
X54301550Y-58881658D01*
X54326502Y-58924858D01*
X54339852Y-58931919D01*
X54346854Y-58907640D01*
X54350181Y-58880137D01*
X54346742Y-58810740D01*
X54328352Y-58717688D01*
X54306874Y-58645086D01*
X54263025Y-58448610D01*
X54260845Y-58244599D01*
X54300383Y-58050596D01*
X54305200Y-58036460D01*
X54332006Y-57947776D01*
X54349145Y-57866538D01*
X54355550Y-57803152D01*
X54350153Y-57768025D01*
X54332405Y-57771030D01*
X54293640Y-57827289D01*
X54249091Y-57916555D01*
X54205599Y-58022630D01*
X54170006Y-58129315D01*
X54153814Y-58193901D01*
X54139632Y-58375643D01*
X54003850Y-58375643D01*
X54005694Y-58281655D01*
X54031878Y-58108087D01*
X54090526Y-57938713D01*
X54186393Y-57761312D01*
X54239302Y-57680883D01*
X54290956Y-57599063D01*
X54310422Y-57549054D01*
X54301688Y-57526289D01*
X54265531Y-57531410D01*
X54215880Y-57575590D01*
X54157558Y-57650505D01*
X54095386Y-57747829D01*
X54034186Y-57859239D01*
X53978778Y-57976409D01*
X53933986Y-58091015D01*
X53904630Y-58194733D01*
X53899965Y-58219861D01*
X53893558Y-58419614D01*
X53756541Y-58419614D01*
X53744060Y-58308610D01*
X53769777Y-58110437D01*
X53786461Y-58054934D01*
X53810047Y-57964695D01*
X53806831Y-57905304D01*
X53800735Y-57891660D01*
X53783123Y-57871051D01*
X53764352Y-57881990D01*
X53737596Y-57930985D01*
X53720853Y-57967813D01*
X53654634Y-58176183D01*
X53638096Y-58387376D01*
X53497565Y-58387376D01*
X53494611Y-58339195D01*
X53496313Y-58280800D01*
X53506840Y-58166734D01*
X53529625Y-58069584D01*
X53571245Y-57965484D01*
X53599228Y-57907279D01*
X53650210Y-57795420D01*
X53671876Y-57723849D01*
X53667085Y-57693560D01*
X53639418Y-57687300D01*
X53603461Y-57718906D01*
X53556652Y-57791692D01*
X53496428Y-57908973D01*
X53489653Y-57923099D01*
X53410371Y-58135024D01*
X53380117Y-58338475D01*
X53246442Y-58338475D01*
X53244363Y-58243363D01*
X53289016Y-58038357D01*
X53382875Y-57833847D01*
X53403909Y-57798613D01*
X53456430Y-57713841D01*
X53506466Y-57633693D01*
X53528009Y-57599489D01*
X53558327Y-57549208D01*
X53561087Y-57530148D01*
X53536447Y-57530959D01*
X53528949Y-57532371D01*
X53472570Y-57564507D01*
X53406639Y-57635195D01*
X53336926Y-57734550D01*
X53269205Y-57852689D01*
X53209247Y-57979729D01*
X53162823Y-58105788D01*
X53139235Y-58199683D01*
X53128189Y-58392066D01*
X53009800Y-58392066D01*
X53009800Y-57849648D01*
X53060600Y-57849648D01*
X53062063Y-57888485D01*
X53069962Y-57901111D01*
X53089558Y-57883110D01*
X53126112Y-57830066D01*
X53174507Y-57754033D01*
X53226179Y-57663989D01*
X53245106Y-57608018D01*
X53232204Y-57582150D01*
X53214876Y-57579260D01*
X53184292Y-57600410D01*
X53144655Y-57653439D01*
X53104886Y-57722711D01*
X53073907Y-57792588D01*
X53060638Y-57847437D01*
X53060600Y-57849648D01*
X53009800Y-57849648D01*
X53009800Y-57531340D01*
X53066251Y-57491800D01*
X53123302Y-57470941D01*
X53213796Y-57457347D01*
X53320819Y-57451594D01*
X53427457Y-57454258D01*
G36*
X55731244Y-57384200D02*
G01*
X55764492Y-57385851D01*
X55884232Y-57393542D01*
X55985183Y-57402819D01*
X56056647Y-57412506D01*
X56087843Y-57421343D01*
X56101117Y-57457463D01*
X56114969Y-57532998D01*
X56128322Y-57636588D01*
X56140100Y-57756875D01*
X56149229Y-57882500D01*
X56154631Y-58002104D01*
X56155231Y-58104329D01*
X56154526Y-58125360D01*
X56146700Y-58303160D01*
X55937498Y-58304424D01*
X55832195Y-58306352D01*
X55763131Y-58313154D01*
X55715756Y-58328677D01*
X55675519Y-58356771D01*
X55649422Y-58380624D01*
X55569965Y-58472351D01*
X55513471Y-58569914D01*
X55486572Y-58659769D01*
X55488490Y-58709243D01*
X55517207Y-58765032D01*
X55570059Y-58828737D01*
X55591468Y-58848986D01*
X55641998Y-58889290D01*
X55689745Y-58912281D01*
X55751675Y-58922736D01*
X55844754Y-58925429D01*
X55863103Y-58925460D01*
X55967838Y-58929706D01*
X56044203Y-58941314D01*
X56078119Y-58955939D01*
X56096248Y-59000125D01*
X56106055Y-59075877D01*
X56107296Y-59164607D01*
X56099724Y-59247727D01*
X56083095Y-59306648D01*
X56082763Y-59307275D01*
X56032632Y-59353102D01*
X55943298Y-59389341D01*
X55825635Y-59414938D01*
X55690516Y-59428840D01*
X55548817Y-59429994D01*
X55411412Y-59417346D01*
X55289174Y-59389843D01*
X55275839Y-59385425D01*
X55074696Y-59290285D01*
X54890125Y-59152811D01*
X54730551Y-58980812D01*
X54604404Y-58782097D01*
X54587564Y-58747660D01*
X54555086Y-58670679D01*
X54535252Y-58597945D01*
X54525108Y-58512375D01*
X54521698Y-58396889D01*
X54521558Y-58366214D01*
X54521859Y-58338392D01*
X54653557Y-58338392D01*
X54666947Y-58539366D01*
X54727134Y-58727232D01*
X54739312Y-58752192D01*
X54770015Y-58821272D01*
X54786758Y-58876252D01*
X54787800Y-58886348D01*
X54798893Y-58920826D01*
X54808758Y-58925460D01*
X54833196Y-58944544D01*
X54876938Y-58994526D01*
X54929408Y-59063095D01*
X55008737Y-59160595D01*
X55085671Y-59233775D01*
X55151116Y-59274615D01*
X55175930Y-59280384D01*
X55173299Y-59261475D01*
X55147675Y-59211107D01*
X55104508Y-59139908D01*
X55101352Y-59135010D01*
X54989449Y-58958939D01*
X54904135Y-58815903D01*
X54842261Y-58697750D01*
X54800676Y-58596330D01*
X54776231Y-58503491D01*
X54765777Y-58411083D01*
X54765970Y-58361134D01*
X54905536Y-58361134D01*
X54916014Y-58500064D01*
X54968913Y-58676923D01*
X55062714Y-58872963D01*
X55194127Y-59082310D01*
X55359864Y-59299092D01*
X55371294Y-59312763D01*
X55418891Y-59355297D01*
X55445607Y-59353682D01*
X55444237Y-59312696D01*
X55428707Y-59274710D01*
X55397023Y-59217757D01*
X55345532Y-59132464D01*
X55282713Y-59032686D01*
X55245149Y-58974738D01*
X55139942Y-58799797D01*
X55069833Y-58645303D01*
X55030926Y-58499141D01*
X55020389Y-58362903D01*
X55161397Y-58362903D01*
X55189379Y-58572377D01*
X55265891Y-58784094D01*
X55316695Y-58881296D01*
X55373601Y-58973444D01*
X55414326Y-59028263D01*
X55476876Y-59104991D01*
X55536320Y-59183688D01*
X55546798Y-59198510D01*
X55592651Y-59251491D01*
X55634774Y-59279661D01*
X55642854Y-59281060D01*
X55659291Y-59271233D01*
X55651934Y-59236677D01*
X55618664Y-59169778D01*
X55605153Y-59145517D01*
X55564808Y-59065272D01*
X55538761Y-58996431D01*
X55534022Y-58968398D01*
X55636921Y-58968398D01*
X55642184Y-58989857D01*
X55671335Y-59035557D01*
X55726991Y-59112627D01*
X55753000Y-59148039D01*
X55813890Y-59223418D01*
X55869309Y-59279047D01*
X55908633Y-59304464D01*
X55912402Y-59305022D01*
X55940250Y-59302417D01*
X55942814Y-59283315D01*
X55920509Y-59234671D01*
X55914987Y-59223910D01*
X55843331Y-59104700D01*
X55770158Y-59018897D01*
X55742068Y-59000277D01*
X55922278Y-59000277D01*
X55925884Y-59027551D01*
X55957554Y-59078913D01*
X55973509Y-59101518D01*
X56045100Y-59201634D01*
X56053325Y-59123479D01*
X56046931Y-59050957D01*
X56023544Y-59007319D01*
X55974852Y-58983109D01*
X55943729Y-58985357D01*
X55922278Y-59000277D01*
X55742068Y-59000277D01*
X55701815Y-58973595D01*
X55687608Y-58969681D01*
X55652934Y-58964049D01*
X55636921Y-58968398D01*
X55534022Y-58968398D01*
X55532879Y-58961639D01*
X55514682Y-58913070D01*
X55480899Y-58888367D01*
X55425821Y-58840642D01*
X55373180Y-58753859D01*
X55327582Y-58639712D01*
X55293633Y-58509896D01*
X55287039Y-58460032D01*
X55411811Y-58460032D01*
X55414895Y-58487212D01*
X55430645Y-58602124D01*
X55476458Y-58516142D01*
X55507009Y-58428811D01*
X55522565Y-58321714D01*
X55523335Y-58297762D01*
X55534668Y-58217023D01*
X55679189Y-58217023D01*
X55693213Y-58255839D01*
X55719755Y-58260512D01*
X55755199Y-58229300D01*
X55755901Y-58227791D01*
X55933182Y-58227791D01*
X55941528Y-58257592D01*
X55970195Y-58265025D01*
X55974074Y-58265060D01*
X56009287Y-58251999D01*
X56036432Y-58206037D01*
X56055480Y-58144410D01*
X56087793Y-58009393D01*
X56102184Y-57917503D01*
X56099123Y-57864514D01*
X56088342Y-57849138D01*
X56063754Y-57860008D01*
X56031184Y-57907530D01*
X55996406Y-57979457D01*
X55965197Y-58063540D01*
X55943333Y-58147530D01*
X55940775Y-58162072D01*
X55933182Y-58227791D01*
X55755901Y-58227791D01*
X55791229Y-58151871D01*
X55805853Y-58106913D01*
X55850172Y-57985573D01*
X55910073Y-57858229D01*
X55975504Y-57744598D01*
X56025129Y-57676756D01*
X56049601Y-57620916D01*
X56053353Y-57562456D01*
X56047538Y-57531803D01*
X56035762Y-57524599D01*
X56012530Y-57545711D01*
X55972348Y-57600008D01*
X55914084Y-57685846D01*
X55833932Y-57814865D01*
X55768118Y-57939141D01*
X55718891Y-58052025D01*
X55688498Y-58146869D01*
X55679189Y-58217023D01*
X55534668Y-58217023D01*
X55547659Y-58124487D01*
X55616891Y-57935298D01*
X55729371Y-57734586D01*
X55745014Y-57710950D01*
X55817047Y-57602902D01*
X55863471Y-57529886D01*
X55887523Y-57485119D01*
X55892440Y-57461819D01*
X55881461Y-57453203D01*
X55868484Y-57452260D01*
X55832427Y-57472937D01*
X55778735Y-57528714D01*
X55714306Y-57610208D01*
X55646040Y-57708036D01*
X55580838Y-57812816D01*
X55525598Y-57915165D01*
X55520829Y-57925028D01*
X55452886Y-58104923D01*
X55415439Y-58289135D01*
X55411811Y-58460032D01*
X55287039Y-58460032D01*
X55275939Y-58376107D01*
X55275417Y-58366660D01*
X55277482Y-58225025D01*
X55301295Y-58092439D01*
X55350904Y-57956866D01*
X55430356Y-57806271D01*
X55503084Y-57689777D01*
X55574068Y-57579665D01*
X55619292Y-57504955D01*
X55641720Y-57459148D01*
X55644315Y-57435746D01*
X55630039Y-57428250D01*
X55622367Y-57428150D01*
X55590687Y-57449290D01*
X55540395Y-57504801D01*
X55478304Y-57585074D01*
X55411229Y-57680502D01*
X55345983Y-57781475D01*
X55289381Y-57878386D01*
X55255206Y-57945870D01*
X55183354Y-58155243D01*
X55161397Y-58362903D01*
X55020389Y-58362903D01*
X55019328Y-58349198D01*
X55021792Y-58280142D01*
X55055679Y-58079735D01*
X55133120Y-57881003D01*
X55244447Y-57694363D01*
X55286758Y-57622204D01*
X55294688Y-57583929D01*
X55272785Y-57580787D01*
X55225596Y-57614025D01*
X55167688Y-57673306D01*
X55062381Y-57822295D01*
X54980653Y-57996234D01*
X54926904Y-58180666D01*
X54905536Y-58361134D01*
X54765970Y-58361134D01*
X54766164Y-58310954D01*
X54768251Y-58272981D01*
X54777958Y-58173165D01*
X54796208Y-58086937D01*
X54828345Y-57996692D01*
X54879716Y-57884829D01*
X54896419Y-57850963D01*
X54943473Y-57752785D01*
X54978667Y-57672343D01*
X54997781Y-57619740D01*
X54999260Y-57604814D01*
X54974753Y-57612372D01*
X54933087Y-57655287D01*
X54881202Y-57724197D01*
X54826042Y-57809742D01*
X54774546Y-57902560D01*
X54766470Y-57918768D01*
X54686791Y-58129722D01*
X54653557Y-58338392D01*
X54521859Y-58338392D01*
X54522843Y-58247565D01*
X54529596Y-58162022D01*
X54545362Y-58091928D01*
X54573688Y-58019627D01*
X54603887Y-57956214D01*
X54719348Y-57769120D01*
X54864571Y-57619980D01*
X55043545Y-57505666D01*
X55260258Y-57423048D01*
X55295800Y-57413318D01*
X55386167Y-57393446D01*
X55478828Y-57382557D01*
X55588836Y-57379769D01*
X55731244Y-57384200D01*
G37*
X55731244Y-57384200D02*
X55764492Y-57385851D01*
X55884232Y-57393542D01*
X55985183Y-57402819D01*
X56056647Y-57412506D01*
X56087843Y-57421343D01*
X56101117Y-57457463D01*
X56114969Y-57532998D01*
X56128322Y-57636588D01*
X56140100Y-57756875D01*
X56149229Y-57882500D01*
X56154631Y-58002104D01*
X56155231Y-58104329D01*
X56154526Y-58125360D01*
X56146700Y-58303160D01*
X55937498Y-58304424D01*
X55832195Y-58306352D01*
X55763131Y-58313154D01*
X55715756Y-58328677D01*
X55675519Y-58356771D01*
X55649422Y-58380624D01*
X55569965Y-58472351D01*
X55513471Y-58569914D01*
X55486572Y-58659769D01*
X55488490Y-58709243D01*
X55517207Y-58765032D01*
X55570059Y-58828737D01*
X55591468Y-58848986D01*
X55641998Y-58889290D01*
X55689745Y-58912281D01*
X55751675Y-58922736D01*
X55844754Y-58925429D01*
X55863103Y-58925460D01*
X55967838Y-58929706D01*
X56044203Y-58941314D01*
X56078119Y-58955939D01*
X56096248Y-59000125D01*
X56106055Y-59075877D01*
X56107296Y-59164607D01*
X56099724Y-59247727D01*
X56083095Y-59306648D01*
X56082763Y-59307275D01*
X56032632Y-59353102D01*
X55943298Y-59389341D01*
X55825635Y-59414938D01*
X55690516Y-59428840D01*
X55548817Y-59429994D01*
X55411412Y-59417346D01*
X55289174Y-59389843D01*
X55275839Y-59385425D01*
X55074696Y-59290285D01*
X54890125Y-59152811D01*
X54730551Y-58980812D01*
X54604404Y-58782097D01*
X54587564Y-58747660D01*
X54555086Y-58670679D01*
X54535252Y-58597945D01*
X54525108Y-58512375D01*
X54521698Y-58396889D01*
X54521558Y-58366214D01*
X54521859Y-58338392D01*
X54653557Y-58338392D01*
X54666947Y-58539366D01*
X54727134Y-58727232D01*
X54739312Y-58752192D01*
X54770015Y-58821272D01*
X54786758Y-58876252D01*
X54787800Y-58886348D01*
X54798893Y-58920826D01*
X54808758Y-58925460D01*
X54833196Y-58944544D01*
X54876938Y-58994526D01*
X54929408Y-59063095D01*
X55008737Y-59160595D01*
X55085671Y-59233775D01*
X55151116Y-59274615D01*
X55175930Y-59280384D01*
X55173299Y-59261475D01*
X55147675Y-59211107D01*
X55104508Y-59139908D01*
X55101352Y-59135010D01*
X54989449Y-58958939D01*
X54904135Y-58815903D01*
X54842261Y-58697750D01*
X54800676Y-58596330D01*
X54776231Y-58503491D01*
X54765777Y-58411083D01*
X54765970Y-58361134D01*
X54905536Y-58361134D01*
X54916014Y-58500064D01*
X54968913Y-58676923D01*
X55062714Y-58872963D01*
X55194127Y-59082310D01*
X55359864Y-59299092D01*
X55371294Y-59312763D01*
X55418891Y-59355297D01*
X55445607Y-59353682D01*
X55444237Y-59312696D01*
X55428707Y-59274710D01*
X55397023Y-59217757D01*
X55345532Y-59132464D01*
X55282713Y-59032686D01*
X55245149Y-58974738D01*
X55139942Y-58799797D01*
X55069833Y-58645303D01*
X55030926Y-58499141D01*
X55020389Y-58362903D01*
X55161397Y-58362903D01*
X55189379Y-58572377D01*
X55265891Y-58784094D01*
X55316695Y-58881296D01*
X55373601Y-58973444D01*
X55414326Y-59028263D01*
X55476876Y-59104991D01*
X55536320Y-59183688D01*
X55546798Y-59198510D01*
X55592651Y-59251491D01*
X55634774Y-59279661D01*
X55642854Y-59281060D01*
X55659291Y-59271233D01*
X55651934Y-59236677D01*
X55618664Y-59169778D01*
X55605153Y-59145517D01*
X55564808Y-59065272D01*
X55538761Y-58996431D01*
X55534022Y-58968398D01*
X55636921Y-58968398D01*
X55642184Y-58989857D01*
X55671335Y-59035557D01*
X55726991Y-59112627D01*
X55753000Y-59148039D01*
X55813890Y-59223418D01*
X55869309Y-59279047D01*
X55908633Y-59304464D01*
X55912402Y-59305022D01*
X55940250Y-59302417D01*
X55942814Y-59283315D01*
X55920509Y-59234671D01*
X55914987Y-59223910D01*
X55843331Y-59104700D01*
X55770158Y-59018897D01*
X55742068Y-59000277D01*
X55922278Y-59000277D01*
X55925884Y-59027551D01*
X55957554Y-59078913D01*
X55973509Y-59101518D01*
X56045100Y-59201634D01*
X56053325Y-59123479D01*
X56046931Y-59050957D01*
X56023544Y-59007319D01*
X55974852Y-58983109D01*
X55943729Y-58985357D01*
X55922278Y-59000277D01*
X55742068Y-59000277D01*
X55701815Y-58973595D01*
X55687608Y-58969681D01*
X55652934Y-58964049D01*
X55636921Y-58968398D01*
X55534022Y-58968398D01*
X55532879Y-58961639D01*
X55514682Y-58913070D01*
X55480899Y-58888367D01*
X55425821Y-58840642D01*
X55373180Y-58753859D01*
X55327582Y-58639712D01*
X55293633Y-58509896D01*
X55287039Y-58460032D01*
X55411811Y-58460032D01*
X55414895Y-58487212D01*
X55430645Y-58602124D01*
X55476458Y-58516142D01*
X55507009Y-58428811D01*
X55522565Y-58321714D01*
X55523335Y-58297762D01*
X55534668Y-58217023D01*
X55679189Y-58217023D01*
X55693213Y-58255839D01*
X55719755Y-58260512D01*
X55755199Y-58229300D01*
X55755901Y-58227791D01*
X55933182Y-58227791D01*
X55941528Y-58257592D01*
X55970195Y-58265025D01*
X55974074Y-58265060D01*
X56009287Y-58251999D01*
X56036432Y-58206037D01*
X56055480Y-58144410D01*
X56087793Y-58009393D01*
X56102184Y-57917503D01*
X56099123Y-57864514D01*
X56088342Y-57849138D01*
X56063754Y-57860008D01*
X56031184Y-57907530D01*
X55996406Y-57979457D01*
X55965197Y-58063540D01*
X55943333Y-58147530D01*
X55940775Y-58162072D01*
X55933182Y-58227791D01*
X55755901Y-58227791D01*
X55791229Y-58151871D01*
X55805853Y-58106913D01*
X55850172Y-57985573D01*
X55910073Y-57858229D01*
X55975504Y-57744598D01*
X56025129Y-57676756D01*
X56049601Y-57620916D01*
X56053353Y-57562456D01*
X56047538Y-57531803D01*
X56035762Y-57524599D01*
X56012530Y-57545711D01*
X55972348Y-57600008D01*
X55914084Y-57685846D01*
X55833932Y-57814865D01*
X55768118Y-57939141D01*
X55718891Y-58052025D01*
X55688498Y-58146869D01*
X55679189Y-58217023D01*
X55534668Y-58217023D01*
X55547659Y-58124487D01*
X55616891Y-57935298D01*
X55729371Y-57734586D01*
X55745014Y-57710950D01*
X55817047Y-57602902D01*
X55863471Y-57529886D01*
X55887523Y-57485119D01*
X55892440Y-57461819D01*
X55881461Y-57453203D01*
X55868484Y-57452260D01*
X55832427Y-57472937D01*
X55778735Y-57528714D01*
X55714306Y-57610208D01*
X55646040Y-57708036D01*
X55580838Y-57812816D01*
X55525598Y-57915165D01*
X55520829Y-57925028D01*
X55452886Y-58104923D01*
X55415439Y-58289135D01*
X55411811Y-58460032D01*
X55287039Y-58460032D01*
X55275939Y-58376107D01*
X55275417Y-58366660D01*
X55277482Y-58225025D01*
X55301295Y-58092439D01*
X55350904Y-57956866D01*
X55430356Y-57806271D01*
X55503084Y-57689777D01*
X55574068Y-57579665D01*
X55619292Y-57504955D01*
X55641720Y-57459148D01*
X55644315Y-57435746D01*
X55630039Y-57428250D01*
X55622367Y-57428150D01*
X55590687Y-57449290D01*
X55540395Y-57504801D01*
X55478304Y-57585074D01*
X55411229Y-57680502D01*
X55345983Y-57781475D01*
X55289381Y-57878386D01*
X55255206Y-57945870D01*
X55183354Y-58155243D01*
X55161397Y-58362903D01*
X55020389Y-58362903D01*
X55019328Y-58349198D01*
X55021792Y-58280142D01*
X55055679Y-58079735D01*
X55133120Y-57881003D01*
X55244447Y-57694363D01*
X55286758Y-57622204D01*
X55294688Y-57583929D01*
X55272785Y-57580787D01*
X55225596Y-57614025D01*
X55167688Y-57673306D01*
X55062381Y-57822295D01*
X54980653Y-57996234D01*
X54926904Y-58180666D01*
X54905536Y-58361134D01*
X54765970Y-58361134D01*
X54766164Y-58310954D01*
X54768251Y-58272981D01*
X54777958Y-58173165D01*
X54796208Y-58086937D01*
X54828345Y-57996692D01*
X54879716Y-57884829D01*
X54896419Y-57850963D01*
X54943473Y-57752785D01*
X54978667Y-57672343D01*
X54997781Y-57619740D01*
X54999260Y-57604814D01*
X54974753Y-57612372D01*
X54933087Y-57655287D01*
X54881202Y-57724197D01*
X54826042Y-57809742D01*
X54774546Y-57902560D01*
X54766470Y-57918768D01*
X54686791Y-58129722D01*
X54653557Y-58338392D01*
X54521859Y-58338392D01*
X54522843Y-58247565D01*
X54529596Y-58162022D01*
X54545362Y-58091928D01*
X54573688Y-58019627D01*
X54603887Y-57956214D01*
X54719348Y-57769120D01*
X54864571Y-57619980D01*
X55043545Y-57505666D01*
X55260258Y-57423048D01*
X55295800Y-57413318D01*
X55386167Y-57393446D01*
X55478828Y-57382557D01*
X55588836Y-57379769D01*
X55731244Y-57384200D01*
G36*
X58507457Y-57454258D02*
G01*
X58596795Y-57465917D01*
X58629736Y-57475316D01*
X58671914Y-57506958D01*
X58728992Y-57570005D01*
X58790061Y-57652107D01*
X58802839Y-57671332D01*
X58915300Y-57844291D01*
X58928098Y-57684256D01*
X58932063Y-57653806D01*
X59061227Y-57653806D01*
X59064701Y-57655460D01*
X59087881Y-57637578D01*
X59093100Y-57630060D01*
X59099572Y-57606313D01*
X59096098Y-57604660D01*
X59072918Y-57622541D01*
X59067700Y-57630060D01*
X59061227Y-57653806D01*
X58932063Y-57653806D01*
X58941483Y-57581472D01*
X58968138Y-57514145D01*
X59017299Y-57475010D01*
X59098206Y-57456803D01*
X59220096Y-57452261D01*
X59223140Y-57452260D01*
X59335686Y-57456315D01*
X59407632Y-57469634D01*
X59447192Y-57492481D01*
X59457670Y-57507698D01*
X59466082Y-57533482D01*
X59472594Y-57574736D01*
X59477373Y-57636360D01*
X59480588Y-57723256D01*
X59482404Y-57840327D01*
X59482990Y-57992472D01*
X59482512Y-58184595D01*
X59481138Y-58421597D01*
X59480757Y-58476731D01*
X59474100Y-59420760D01*
X59180323Y-59427875D01*
X58886546Y-59434991D01*
X58635900Y-59070845D01*
X58628119Y-59219524D01*
X58619476Y-59305846D01*
X58605280Y-59373547D01*
X58593259Y-59400831D01*
X58554118Y-59417740D01*
X58479821Y-59428757D01*
X58385675Y-59433811D01*
X58286988Y-59432834D01*
X58199070Y-59425756D01*
X58137228Y-59412507D01*
X58120280Y-59402980D01*
X58111674Y-59379924D01*
X58104670Y-59327346D01*
X58099158Y-59241802D01*
X58095026Y-59119847D01*
X58092165Y-58958037D01*
X58091630Y-58893429D01*
X58196944Y-58893429D01*
X58202437Y-58940579D01*
X58230400Y-59017317D01*
X58264422Y-59060745D01*
X58295784Y-59063438D01*
X58300848Y-59034156D01*
X58282972Y-58981566D01*
X58280387Y-58976429D01*
X58241290Y-58912376D01*
X58211545Y-58883822D01*
X58196944Y-58893429D01*
X58091630Y-58893429D01*
X58090955Y-58811929D01*
X58147169Y-58811929D01*
X58152255Y-58822170D01*
X58176475Y-58848430D01*
X58180930Y-58829911D01*
X58174764Y-58810064D01*
X58156064Y-58782402D01*
X58147618Y-58782974D01*
X58147169Y-58811929D01*
X58090955Y-58811929D01*
X58090465Y-58752928D01*
X58089814Y-58501074D01*
X58089800Y-58451920D01*
X58089800Y-58339523D01*
X58213860Y-58339523D01*
X58221469Y-58495527D01*
X58248149Y-58629569D01*
X58253667Y-58646060D01*
X58290806Y-58731779D01*
X58339991Y-58821734D01*
X58393430Y-58904195D01*
X58443331Y-58967431D01*
X58481903Y-58999713D01*
X58489850Y-59001610D01*
X58519446Y-58995227D01*
X58521600Y-58991596D01*
X58511394Y-58965703D01*
X58484133Y-58905142D01*
X58444853Y-58820991D01*
X58426350Y-58782046D01*
X58381051Y-58683561D01*
X58352956Y-58606989D01*
X58337986Y-58533462D01*
X58332064Y-58444112D01*
X58331100Y-58341260D01*
X58331523Y-58331171D01*
X58458842Y-58331171D01*
X58469943Y-58487954D01*
X58494053Y-58579267D01*
X58531606Y-58678768D01*
X58576641Y-58774766D01*
X58623201Y-58855572D01*
X58665326Y-58909493D01*
X58692956Y-58925460D01*
X58717625Y-58911531D01*
X58710655Y-58881010D01*
X58624884Y-58653370D01*
X58579980Y-58448006D01*
X58578341Y-58375049D01*
X58717545Y-58375049D01*
X58746363Y-58573250D01*
X58816513Y-58748324D01*
X58862518Y-58823304D01*
X58899058Y-58865614D01*
X58921229Y-58871963D01*
X58924127Y-58839062D01*
X58919642Y-58817510D01*
X58904720Y-58761126D01*
X58881874Y-58678253D01*
X58865881Y-58621474D01*
X58834823Y-58456436D01*
X58831077Y-58345520D01*
X58970615Y-58345520D01*
X58979238Y-58469053D01*
X58981213Y-58480429D01*
X59007530Y-58584652D01*
X59044023Y-58682613D01*
X59084973Y-58762559D01*
X59124663Y-58812737D01*
X59148282Y-58823860D01*
X59174508Y-58807823D01*
X59172932Y-58792110D01*
X59102178Y-58568149D01*
X59087118Y-58416235D01*
X59222762Y-58416235D01*
X59232760Y-58480783D01*
X59267637Y-58611420D01*
X59304323Y-58703547D01*
X59340708Y-58752832D01*
X59368134Y-58758520D01*
X59388439Y-58743318D01*
X59390857Y-58711047D01*
X59375536Y-58647980D01*
X59369538Y-58627742D01*
X59339263Y-58459545D01*
X59339370Y-58273267D01*
X59369224Y-58091061D01*
X59386571Y-58032388D01*
X59413008Y-57939921D01*
X59428640Y-57857204D01*
X59430501Y-57810939D01*
X59423699Y-57780942D01*
X59410623Y-57781203D01*
X59386144Y-57816807D01*
X59345133Y-57892843D01*
X59342179Y-57898524D01*
X59268057Y-58075940D01*
X59227444Y-58252809D01*
X59222762Y-58416235D01*
X59087118Y-58416235D01*
X59080420Y-58348683D01*
X59108008Y-58131052D01*
X59185293Y-57912595D01*
X59312624Y-57690653D01*
X59319302Y-57680883D01*
X59370956Y-57599063D01*
X59390422Y-57549054D01*
X59381688Y-57526289D01*
X59345478Y-57531377D01*
X59295801Y-57575553D01*
X59237468Y-57650506D01*
X59175292Y-57747927D01*
X59114084Y-57859507D01*
X59058658Y-57976935D01*
X59013826Y-58091903D01*
X58984400Y-58196101D01*
X58979932Y-58220003D01*
X58970615Y-58345520D01*
X58831077Y-58345520D01*
X58828955Y-58282697D01*
X58848256Y-58121566D01*
X58866461Y-58054934D01*
X58890047Y-57964695D01*
X58886831Y-57905304D01*
X58880735Y-57891660D01*
X58863123Y-57871051D01*
X58844352Y-57881990D01*
X58817596Y-57930985D01*
X58800853Y-57967813D01*
X58735660Y-58170821D01*
X58717545Y-58375049D01*
X58578341Y-58375049D01*
X58575696Y-58257356D01*
X58611787Y-58073856D01*
X58678945Y-57907844D01*
X58730035Y-57795799D01*
X58751828Y-57724060D01*
X58747085Y-57693560D01*
X58719349Y-57687335D01*
X58683287Y-57719115D01*
X58636353Y-57792186D01*
X58576001Y-57909837D01*
X58570042Y-57922270D01*
X58490185Y-58133458D01*
X58458842Y-58331171D01*
X58331523Y-58331171D01*
X58337389Y-58191325D01*
X58359661Y-58062863D01*
X58403025Y-57940996D01*
X58472588Y-57810844D01*
X58558295Y-57679439D01*
X58605080Y-57601856D01*
X58624092Y-57549153D01*
X58615494Y-57526557D01*
X58579450Y-57539294D01*
X58554488Y-57557808D01*
X58507312Y-57609702D01*
X58447306Y-57693829D01*
X58382922Y-57796295D01*
X58322611Y-57903206D01*
X58274826Y-58000670D01*
X58255572Y-58049160D01*
X58225251Y-58183439D01*
X58213860Y-58339523D01*
X58089800Y-58339523D01*
X58089800Y-57849648D01*
X58140600Y-57849648D01*
X58142063Y-57888485D01*
X58149962Y-57901111D01*
X58169558Y-57883110D01*
X58206112Y-57830066D01*
X58254507Y-57754033D01*
X58306179Y-57663989D01*
X58325106Y-57608018D01*
X58312204Y-57582150D01*
X58294876Y-57579260D01*
X58264292Y-57600410D01*
X58224655Y-57653439D01*
X58184886Y-57722711D01*
X58153907Y-57792588D01*
X58140638Y-57847437D01*
X58140600Y-57849648D01*
X58089800Y-57849648D01*
X58089800Y-57531340D01*
X58146251Y-57491800D01*
X58203302Y-57470941D01*
X58293796Y-57457347D01*
X58400819Y-57451594D01*
X58507457Y-57454258D01*
G37*
X58507457Y-57454258D02*
X58596795Y-57465917D01*
X58629736Y-57475316D01*
X58671914Y-57506958D01*
X58728992Y-57570005D01*
X58790061Y-57652107D01*
X58802839Y-57671332D01*
X58915300Y-57844291D01*
X58928098Y-57684256D01*
X58932063Y-57653806D01*
X59061227Y-57653806D01*
X59064701Y-57655460D01*
X59087881Y-57637578D01*
X59093100Y-57630060D01*
X59099572Y-57606313D01*
X59096098Y-57604660D01*
X59072918Y-57622541D01*
X59067700Y-57630060D01*
X59061227Y-57653806D01*
X58932063Y-57653806D01*
X58941483Y-57581472D01*
X58968138Y-57514145D01*
X59017299Y-57475010D01*
X59098206Y-57456803D01*
X59220096Y-57452261D01*
X59223140Y-57452260D01*
X59335686Y-57456315D01*
X59407632Y-57469634D01*
X59447192Y-57492481D01*
X59457670Y-57507698D01*
X59466082Y-57533482D01*
X59472594Y-57574736D01*
X59477373Y-57636360D01*
X59480588Y-57723256D01*
X59482404Y-57840327D01*
X59482990Y-57992472D01*
X59482512Y-58184595D01*
X59481138Y-58421597D01*
X59480757Y-58476731D01*
X59474100Y-59420760D01*
X59180323Y-59427875D01*
X58886546Y-59434991D01*
X58635900Y-59070845D01*
X58628119Y-59219524D01*
X58619476Y-59305846D01*
X58605280Y-59373547D01*
X58593259Y-59400831D01*
X58554118Y-59417740D01*
X58479821Y-59428757D01*
X58385675Y-59433811D01*
X58286988Y-59432834D01*
X58199070Y-59425756D01*
X58137228Y-59412507D01*
X58120280Y-59402980D01*
X58111674Y-59379924D01*
X58104670Y-59327346D01*
X58099158Y-59241802D01*
X58095026Y-59119847D01*
X58092165Y-58958037D01*
X58091630Y-58893429D01*
X58196944Y-58893429D01*
X58202437Y-58940579D01*
X58230400Y-59017317D01*
X58264422Y-59060745D01*
X58295784Y-59063438D01*
X58300848Y-59034156D01*
X58282972Y-58981566D01*
X58280387Y-58976429D01*
X58241290Y-58912376D01*
X58211545Y-58883822D01*
X58196944Y-58893429D01*
X58091630Y-58893429D01*
X58090955Y-58811929D01*
X58147169Y-58811929D01*
X58152255Y-58822170D01*
X58176475Y-58848430D01*
X58180930Y-58829911D01*
X58174764Y-58810064D01*
X58156064Y-58782402D01*
X58147618Y-58782974D01*
X58147169Y-58811929D01*
X58090955Y-58811929D01*
X58090465Y-58752928D01*
X58089814Y-58501074D01*
X58089800Y-58451920D01*
X58089800Y-58339523D01*
X58213860Y-58339523D01*
X58221469Y-58495527D01*
X58248149Y-58629569D01*
X58253667Y-58646060D01*
X58290806Y-58731779D01*
X58339991Y-58821734D01*
X58393430Y-58904195D01*
X58443331Y-58967431D01*
X58481903Y-58999713D01*
X58489850Y-59001610D01*
X58519446Y-58995227D01*
X58521600Y-58991596D01*
X58511394Y-58965703D01*
X58484133Y-58905142D01*
X58444853Y-58820991D01*
X58426350Y-58782046D01*
X58381051Y-58683561D01*
X58352956Y-58606989D01*
X58337986Y-58533462D01*
X58332064Y-58444112D01*
X58331100Y-58341260D01*
X58331523Y-58331171D01*
X58458842Y-58331171D01*
X58469943Y-58487954D01*
X58494053Y-58579267D01*
X58531606Y-58678768D01*
X58576641Y-58774766D01*
X58623201Y-58855572D01*
X58665326Y-58909493D01*
X58692956Y-58925460D01*
X58717625Y-58911531D01*
X58710655Y-58881010D01*
X58624884Y-58653370D01*
X58579980Y-58448006D01*
X58578341Y-58375049D01*
X58717545Y-58375049D01*
X58746363Y-58573250D01*
X58816513Y-58748324D01*
X58862518Y-58823304D01*
X58899058Y-58865614D01*
X58921229Y-58871963D01*
X58924127Y-58839062D01*
X58919642Y-58817510D01*
X58904720Y-58761126D01*
X58881874Y-58678253D01*
X58865881Y-58621474D01*
X58834823Y-58456436D01*
X58831077Y-58345520D01*
X58970615Y-58345520D01*
X58979238Y-58469053D01*
X58981213Y-58480429D01*
X59007530Y-58584652D01*
X59044023Y-58682613D01*
X59084973Y-58762559D01*
X59124663Y-58812737D01*
X59148282Y-58823860D01*
X59174508Y-58807823D01*
X59172932Y-58792110D01*
X59102178Y-58568149D01*
X59087118Y-58416235D01*
X59222762Y-58416235D01*
X59232760Y-58480783D01*
X59267637Y-58611420D01*
X59304323Y-58703547D01*
X59340708Y-58752832D01*
X59368134Y-58758520D01*
X59388439Y-58743318D01*
X59390857Y-58711047D01*
X59375536Y-58647980D01*
X59369538Y-58627742D01*
X59339263Y-58459545D01*
X59339370Y-58273267D01*
X59369224Y-58091061D01*
X59386571Y-58032388D01*
X59413008Y-57939921D01*
X59428640Y-57857204D01*
X59430501Y-57810939D01*
X59423699Y-57780942D01*
X59410623Y-57781203D01*
X59386144Y-57816807D01*
X59345133Y-57892843D01*
X59342179Y-57898524D01*
X59268057Y-58075940D01*
X59227444Y-58252809D01*
X59222762Y-58416235D01*
X59087118Y-58416235D01*
X59080420Y-58348683D01*
X59108008Y-58131052D01*
X59185293Y-57912595D01*
X59312624Y-57690653D01*
X59319302Y-57680883D01*
X59370956Y-57599063D01*
X59390422Y-57549054D01*
X59381688Y-57526289D01*
X59345478Y-57531377D01*
X59295801Y-57575553D01*
X59237468Y-57650506D01*
X59175292Y-57747927D01*
X59114084Y-57859507D01*
X59058658Y-57976935D01*
X59013826Y-58091903D01*
X58984400Y-58196101D01*
X58979932Y-58220003D01*
X58970615Y-58345520D01*
X58831077Y-58345520D01*
X58828955Y-58282697D01*
X58848256Y-58121566D01*
X58866461Y-58054934D01*
X58890047Y-57964695D01*
X58886831Y-57905304D01*
X58880735Y-57891660D01*
X58863123Y-57871051D01*
X58844352Y-57881990D01*
X58817596Y-57930985D01*
X58800853Y-57967813D01*
X58735660Y-58170821D01*
X58717545Y-58375049D01*
X58578341Y-58375049D01*
X58575696Y-58257356D01*
X58611787Y-58073856D01*
X58678945Y-57907844D01*
X58730035Y-57795799D01*
X58751828Y-57724060D01*
X58747085Y-57693560D01*
X58719349Y-57687335D01*
X58683287Y-57719115D01*
X58636353Y-57792186D01*
X58576001Y-57909837D01*
X58570042Y-57922270D01*
X58490185Y-58133458D01*
X58458842Y-58331171D01*
X58331523Y-58331171D01*
X58337389Y-58191325D01*
X58359661Y-58062863D01*
X58403025Y-57940996D01*
X58472588Y-57810844D01*
X58558295Y-57679439D01*
X58605080Y-57601856D01*
X58624092Y-57549153D01*
X58615494Y-57526557D01*
X58579450Y-57539294D01*
X58554488Y-57557808D01*
X58507312Y-57609702D01*
X58447306Y-57693829D01*
X58382922Y-57796295D01*
X58322611Y-57903206D01*
X58274826Y-58000670D01*
X58255572Y-58049160D01*
X58225251Y-58183439D01*
X58213860Y-58339523D01*
X58089800Y-58339523D01*
X58089800Y-57849648D01*
X58140600Y-57849648D01*
X58142063Y-57888485D01*
X58149962Y-57901111D01*
X58169558Y-57883110D01*
X58206112Y-57830066D01*
X58254507Y-57754033D01*
X58306179Y-57663989D01*
X58325106Y-57608018D01*
X58312204Y-57582150D01*
X58294876Y-57579260D01*
X58264292Y-57600410D01*
X58224655Y-57653439D01*
X58184886Y-57722711D01*
X58153907Y-57792588D01*
X58140638Y-57847437D01*
X58140600Y-57849648D01*
X58089800Y-57849648D01*
X58089800Y-57531340D01*
X58146251Y-57491800D01*
X58203302Y-57470941D01*
X58293796Y-57457347D01*
X58400819Y-57451594D01*
X58507457Y-57454258D01*
G36*
X61053069Y-57467023D02*
G01*
X61104665Y-57479308D01*
X61138005Y-57507722D01*
X61156530Y-57558736D01*
X61163683Y-57638822D01*
X61162906Y-57754448D01*
X61157641Y-57912086D01*
X61155322Y-57979995D01*
X61141633Y-58283243D01*
X61121092Y-58540163D01*
X61092224Y-58754942D01*
X61053552Y-58931767D01*
X61003601Y-59074825D01*
X60940896Y-59188302D01*
X60863960Y-59276387D01*
X60771317Y-59343265D01*
X60661492Y-59393123D01*
X60656612Y-59394861D01*
X60529189Y-59422988D01*
X60377165Y-59431626D01*
X60222668Y-59421204D01*
X60087831Y-59392149D01*
X60063188Y-59383371D01*
X59892235Y-59294774D01*
X59762325Y-59177943D01*
X59703822Y-59094767D01*
X59673169Y-59033408D01*
X59650673Y-58962697D01*
X59633531Y-58870095D01*
X59618942Y-58743065D01*
X59614573Y-58695578D01*
X59602211Y-58526735D01*
X59595682Y-58390496D01*
X59744806Y-58390496D01*
X59754413Y-58496793D01*
X59773145Y-58577977D01*
X59799053Y-58625057D01*
X59825037Y-58631634D01*
X59841392Y-58603974D01*
X59848348Y-58534498D01*
X59846352Y-58419752D01*
X59846603Y-58393524D01*
X59997279Y-58393524D01*
X60005813Y-58453161D01*
X60022201Y-58465172D01*
X60044557Y-58430468D01*
X60070994Y-58349961D01*
X60073771Y-58337971D01*
X60249325Y-58337971D01*
X60251922Y-58388145D01*
X60263563Y-58406226D01*
X60279165Y-58404213D01*
X60305082Y-58371598D01*
X60330397Y-58301034D01*
X60344492Y-58239032D01*
X60371939Y-58126296D01*
X60411246Y-58004018D01*
X60435659Y-57941655D01*
X60472354Y-57849841D01*
X60501568Y-57764881D01*
X60513871Y-57718960D01*
X60528975Y-57642760D01*
X60474986Y-57706182D01*
X60379714Y-57847689D01*
X60305320Y-58015982D01*
X60261059Y-58188391D01*
X60254325Y-58246536D01*
X60249325Y-58337971D01*
X60073771Y-58337971D01*
X60097004Y-58237687D01*
X60147178Y-58046577D01*
X60220234Y-57871212D01*
X60324925Y-57691350D01*
X60348802Y-57655460D01*
X60393010Y-57580864D01*
X60403194Y-57538807D01*
X60395872Y-57530994D01*
X60358157Y-57543241D01*
X60304471Y-57593298D01*
X60240999Y-57673261D01*
X60173925Y-57775227D01*
X60109433Y-57891292D01*
X60101372Y-57907386D01*
X60048977Y-58022678D01*
X60018272Y-58119852D01*
X60002698Y-58223011D01*
X59998484Y-58285347D01*
X59997279Y-58393524D01*
X59846603Y-58393524D01*
X59847902Y-58258120D01*
X59871313Y-58112573D01*
X59920932Y-57968076D01*
X60001105Y-57809594D01*
X60043587Y-57737462D01*
X60102786Y-57632567D01*
X60133091Y-57562992D01*
X60135647Y-57530757D01*
X60111597Y-57537882D01*
X60062087Y-57586387D01*
X60000725Y-57661810D01*
X59885949Y-57827674D01*
X59808711Y-57979485D01*
X59763554Y-58130245D01*
X59746270Y-58268075D01*
X59744806Y-58390496D01*
X59595682Y-58390496D01*
X59593690Y-58348932D01*
X59588943Y-58170305D01*
X59587899Y-57998991D01*
X59590489Y-57843125D01*
X59592457Y-57800811D01*
X59690000Y-57800811D01*
X59693486Y-57845836D01*
X59699324Y-57858660D01*
X59717472Y-57839473D01*
X59753113Y-57790690D01*
X59775524Y-57757604D01*
X59820502Y-57687268D01*
X59838473Y-57648923D01*
X59831696Y-57633036D01*
X59805740Y-57630060D01*
X59760657Y-57651976D01*
X59718953Y-57705440D01*
X59693120Y-57772023D01*
X59690000Y-57800811D01*
X59592457Y-57800811D01*
X59596644Y-57710845D01*
X59606294Y-57610288D01*
X59619369Y-57549589D01*
X59624444Y-57539664D01*
X59641980Y-57521261D01*
X59668820Y-57507739D01*
X59712744Y-57498108D01*
X59781535Y-57491376D01*
X59882976Y-57486554D01*
X60024849Y-57482650D01*
X60082231Y-57481387D01*
X60255794Y-57478950D01*
X60383819Y-57480231D01*
X60471449Y-57485481D01*
X60523826Y-57494947D01*
X60541609Y-57503649D01*
X60553124Y-57519357D01*
X60561601Y-57548629D01*
X60567217Y-57597281D01*
X60570150Y-57671128D01*
X60570577Y-57775987D01*
X60568675Y-57917674D01*
X60564621Y-58102004D01*
X60562459Y-58188123D01*
X60557595Y-58403577D01*
X60555393Y-58572282D01*
X60555930Y-58698222D01*
X60559279Y-58785381D01*
X60565516Y-58837745D01*
X60574714Y-58859298D01*
X60575036Y-58859510D01*
X60584409Y-58851830D01*
X60591760Y-58813370D01*
X60597260Y-58740358D01*
X60601078Y-58629021D01*
X60603384Y-58475586D01*
X60604347Y-58276281D01*
X60604375Y-58238348D01*
X61015578Y-58238348D01*
X61019538Y-58258843D01*
X61039784Y-58245676D01*
X61047673Y-58238126D01*
X61074069Y-58189017D01*
X61094325Y-58108352D01*
X61100533Y-58060326D01*
X61106781Y-57983297D01*
X61106173Y-57951411D01*
X61096720Y-57959245D01*
X61077820Y-57998360D01*
X61049608Y-58076192D01*
X61026893Y-58165765D01*
X61024960Y-58176160D01*
X61015578Y-58238348D01*
X60604375Y-58238348D01*
X60604400Y-58206169D01*
X60604473Y-58155783D01*
X60791938Y-58155783D01*
X60813027Y-58180105D01*
X60817179Y-58180393D01*
X60850838Y-58158375D01*
X60871245Y-58111995D01*
X60890482Y-58059148D01*
X60928785Y-57977373D01*
X60979123Y-57881320D01*
X60999334Y-57845193D01*
X61050061Y-57750307D01*
X61088753Y-57666735D01*
X61109457Y-57607820D01*
X61111367Y-57593974D01*
X61106802Y-57566232D01*
X61089379Y-57570602D01*
X61051009Y-57610664D01*
X61037009Y-57626894D01*
X60969419Y-57716586D01*
X60907862Y-57817406D01*
X60855837Y-57920545D01*
X60816842Y-58017194D01*
X60794376Y-58098543D01*
X60791938Y-58155783D01*
X60604473Y-58155783D01*
X60604700Y-58001512D01*
X60605834Y-57841772D01*
X60606326Y-57816093D01*
X60721667Y-57816093D01*
X60723667Y-57837570D01*
X60737538Y-57830473D01*
X60768260Y-57790886D01*
X60820815Y-57714898D01*
X60848673Y-57674010D01*
X60902094Y-57586873D01*
X60926292Y-57528978D01*
X60922615Y-57504029D01*
X60892410Y-57515727D01*
X60837025Y-57567774D01*
X60817845Y-57589320D01*
X60761959Y-57671328D01*
X60729347Y-57753836D01*
X60726556Y-57769954D01*
X60721667Y-57816093D01*
X60606326Y-57816093D01*
X60608151Y-57721068D01*
X60612002Y-57633518D01*
X60617734Y-57573241D01*
X60625699Y-57534356D01*
X60636246Y-57510983D01*
X60646388Y-57499820D01*
X60703130Y-57478000D01*
X60806473Y-57466608D01*
X60881338Y-57464960D01*
X60979774Y-57464397D01*
X61053069Y-57467023D01*
G37*
X61053069Y-57467023D02*
X61104665Y-57479308D01*
X61138005Y-57507722D01*
X61156530Y-57558736D01*
X61163683Y-57638822D01*
X61162906Y-57754448D01*
X61157641Y-57912086D01*
X61155322Y-57979995D01*
X61141633Y-58283243D01*
X61121092Y-58540163D01*
X61092224Y-58754942D01*
X61053552Y-58931767D01*
X61003601Y-59074825D01*
X60940896Y-59188302D01*
X60863960Y-59276387D01*
X60771317Y-59343265D01*
X60661492Y-59393123D01*
X60656612Y-59394861D01*
X60529189Y-59422988D01*
X60377165Y-59431626D01*
X60222668Y-59421204D01*
X60087831Y-59392149D01*
X60063188Y-59383371D01*
X59892235Y-59294774D01*
X59762325Y-59177943D01*
X59703822Y-59094767D01*
X59673169Y-59033408D01*
X59650673Y-58962697D01*
X59633531Y-58870095D01*
X59618942Y-58743065D01*
X59614573Y-58695578D01*
X59602211Y-58526735D01*
X59595682Y-58390496D01*
X59744806Y-58390496D01*
X59754413Y-58496793D01*
X59773145Y-58577977D01*
X59799053Y-58625057D01*
X59825037Y-58631634D01*
X59841392Y-58603974D01*
X59848348Y-58534498D01*
X59846352Y-58419752D01*
X59846603Y-58393524D01*
X59997279Y-58393524D01*
X60005813Y-58453161D01*
X60022201Y-58465172D01*
X60044557Y-58430468D01*
X60070994Y-58349961D01*
X60073771Y-58337971D01*
X60249325Y-58337971D01*
X60251922Y-58388145D01*
X60263563Y-58406226D01*
X60279165Y-58404213D01*
X60305082Y-58371598D01*
X60330397Y-58301034D01*
X60344492Y-58239032D01*
X60371939Y-58126296D01*
X60411246Y-58004018D01*
X60435659Y-57941655D01*
X60472354Y-57849841D01*
X60501568Y-57764881D01*
X60513871Y-57718960D01*
X60528975Y-57642760D01*
X60474986Y-57706182D01*
X60379714Y-57847689D01*
X60305320Y-58015982D01*
X60261059Y-58188391D01*
X60254325Y-58246536D01*
X60249325Y-58337971D01*
X60073771Y-58337971D01*
X60097004Y-58237687D01*
X60147178Y-58046577D01*
X60220234Y-57871212D01*
X60324925Y-57691350D01*
X60348802Y-57655460D01*
X60393010Y-57580864D01*
X60403194Y-57538807D01*
X60395872Y-57530994D01*
X60358157Y-57543241D01*
X60304471Y-57593298D01*
X60240999Y-57673261D01*
X60173925Y-57775227D01*
X60109433Y-57891292D01*
X60101372Y-57907386D01*
X60048977Y-58022678D01*
X60018272Y-58119852D01*
X60002698Y-58223011D01*
X59998484Y-58285347D01*
X59997279Y-58393524D01*
X59846603Y-58393524D01*
X59847902Y-58258120D01*
X59871313Y-58112573D01*
X59920932Y-57968076D01*
X60001105Y-57809594D01*
X60043587Y-57737462D01*
X60102786Y-57632567D01*
X60133091Y-57562992D01*
X60135647Y-57530757D01*
X60111597Y-57537882D01*
X60062087Y-57586387D01*
X60000725Y-57661810D01*
X59885949Y-57827674D01*
X59808711Y-57979485D01*
X59763554Y-58130245D01*
X59746270Y-58268075D01*
X59744806Y-58390496D01*
X59595682Y-58390496D01*
X59593690Y-58348932D01*
X59588943Y-58170305D01*
X59587899Y-57998991D01*
X59590489Y-57843125D01*
X59592457Y-57800811D01*
X59690000Y-57800811D01*
X59693486Y-57845836D01*
X59699324Y-57858660D01*
X59717472Y-57839473D01*
X59753113Y-57790690D01*
X59775524Y-57757604D01*
X59820502Y-57687268D01*
X59838473Y-57648923D01*
X59831696Y-57633036D01*
X59805740Y-57630060D01*
X59760657Y-57651976D01*
X59718953Y-57705440D01*
X59693120Y-57772023D01*
X59690000Y-57800811D01*
X59592457Y-57800811D01*
X59596644Y-57710845D01*
X59606294Y-57610288D01*
X59619369Y-57549589D01*
X59624444Y-57539664D01*
X59641980Y-57521261D01*
X59668820Y-57507739D01*
X59712744Y-57498108D01*
X59781535Y-57491376D01*
X59882976Y-57486554D01*
X60024849Y-57482650D01*
X60082231Y-57481387D01*
X60255794Y-57478950D01*
X60383819Y-57480231D01*
X60471449Y-57485481D01*
X60523826Y-57494947D01*
X60541609Y-57503649D01*
X60553124Y-57519357D01*
X60561601Y-57548629D01*
X60567217Y-57597281D01*
X60570150Y-57671128D01*
X60570577Y-57775987D01*
X60568675Y-57917674D01*
X60564621Y-58102004D01*
X60562459Y-58188123D01*
X60557595Y-58403577D01*
X60555393Y-58572282D01*
X60555930Y-58698222D01*
X60559279Y-58785381D01*
X60565516Y-58837745D01*
X60574714Y-58859298D01*
X60575036Y-58859510D01*
X60584409Y-58851830D01*
X60591760Y-58813370D01*
X60597260Y-58740358D01*
X60601078Y-58629021D01*
X60603384Y-58475586D01*
X60604347Y-58276281D01*
X60604375Y-58238348D01*
X61015578Y-58238348D01*
X61019538Y-58258843D01*
X61039784Y-58245676D01*
X61047673Y-58238126D01*
X61074069Y-58189017D01*
X61094325Y-58108352D01*
X61100533Y-58060326D01*
X61106781Y-57983297D01*
X61106173Y-57951411D01*
X61096720Y-57959245D01*
X61077820Y-57998360D01*
X61049608Y-58076192D01*
X61026893Y-58165765D01*
X61024960Y-58176160D01*
X61015578Y-58238348D01*
X60604375Y-58238348D01*
X60604400Y-58206169D01*
X60604473Y-58155783D01*
X60791938Y-58155783D01*
X60813027Y-58180105D01*
X60817179Y-58180393D01*
X60850838Y-58158375D01*
X60871245Y-58111995D01*
X60890482Y-58059148D01*
X60928785Y-57977373D01*
X60979123Y-57881320D01*
X60999334Y-57845193D01*
X61050061Y-57750307D01*
X61088753Y-57666735D01*
X61109457Y-57607820D01*
X61111367Y-57593974D01*
X61106802Y-57566232D01*
X61089379Y-57570602D01*
X61051009Y-57610664D01*
X61037009Y-57626894D01*
X60969419Y-57716586D01*
X60907862Y-57817406D01*
X60855837Y-57920545D01*
X60816842Y-58017194D01*
X60794376Y-58098543D01*
X60791938Y-58155783D01*
X60604473Y-58155783D01*
X60604700Y-58001512D01*
X60605834Y-57841772D01*
X60606326Y-57816093D01*
X60721667Y-57816093D01*
X60723667Y-57837570D01*
X60737538Y-57830473D01*
X60768260Y-57790886D01*
X60820815Y-57714898D01*
X60848673Y-57674010D01*
X60902094Y-57586873D01*
X60926292Y-57528978D01*
X60922615Y-57504029D01*
X60892410Y-57515727D01*
X60837025Y-57567774D01*
X60817845Y-57589320D01*
X60761959Y-57671328D01*
X60729347Y-57753836D01*
X60726556Y-57769954D01*
X60721667Y-57816093D01*
X60606326Y-57816093D01*
X60608151Y-57721068D01*
X60612002Y-57633518D01*
X60617734Y-57573241D01*
X60625699Y-57534356D01*
X60636246Y-57510983D01*
X60646388Y-57499820D01*
X60703130Y-57478000D01*
X60806473Y-57466608D01*
X60881338Y-57464960D01*
X60979774Y-57464397D01*
X61053069Y-57467023D01*
D13*
X84508400Y-30927600D02*
X96508400Y-30927600D01*
X84508400Y-31927600D02*
X84508400Y-30927600D01*
X76508400Y-31927600D02*
X84508400Y-31927600D01*
X76508400Y-30927600D02*
X76508400Y-31927600D01*
X58508400Y-30927600D02*
X76508400Y-30927600D01*
X58508400Y-31927600D02*
X58508400Y-30927600D01*
X50508400Y-31927600D02*
X58508400Y-31927600D01*
X50508400Y-30927600D02*
X50508400Y-31927600D01*
X38508400Y-30927600D02*
X50508400Y-30927600D01*
X38508400Y-48927600D02*
X38508400Y-30927600D01*
X96508400Y-48927600D02*
X38508400Y-48927600D01*
X96508400Y-30927600D02*
X96508400Y-48927600D01*
X76508400Y-30927600D02*
X58508400Y-30927600D01*
X76508400Y-31927600D02*
X76508400Y-30927600D01*
X84508400Y-31927600D02*
X76508400Y-31927600D01*
X84508400Y-30927600D02*
X84508400Y-31927600D01*
X96508400Y-30927600D02*
X84508400Y-30927600D01*
X38508400Y-30927600D02*
X50508400Y-30927600D01*
X58508400Y-31927600D02*
X58508400Y-30927600D01*
X50508400Y-31927600D02*
X58508400Y-31927600D01*
X50508400Y-30927600D02*
X50508400Y-31927600D01*
D14*
X96880000Y-96984800D02*
G75*
G03*
X96880000Y-96984800I-200000J0D01*
G01*
D13*
X69673760Y-24498020D02*
X73323760Y-24498020D01*
X73323760Y-24498020D02*
X73328840Y-29248020D01*
X69678840Y-29248020D02*
X73328840Y-29248020D01*
X69673760Y-24498020D02*
X69678840Y-29248020D01*
X28874400Y-26585900D02*
X28874400Y-26815900D01*
X28354400Y-22915900D02*
X36074400Y-22915900D01*
X36074400Y-22915900D02*
X36074400Y-26815900D01*
X28354400Y-29925900D02*
X28874400Y-29925900D01*
X28354400Y-22915900D02*
X28354400Y-26815900D01*
X35554400Y-26585900D02*
X35554400Y-26815900D01*
X28874400Y-29415900D02*
X28874400Y-29925900D01*
X28354400Y-29415900D02*
X28354400Y-29925900D01*
X35014400Y-26585900D02*
X35554400Y-26585900D01*
X35554400Y-29415900D02*
X35554400Y-29925900D01*
X35554400Y-29925900D02*
X36074400Y-29925900D01*
X36074400Y-29415900D02*
X36074400Y-29925900D01*
X28874400Y-26585900D02*
X29414400Y-26585900D01*
X30514400Y-26585900D02*
X33914400Y-26585900D01*
X31211300Y-65362500D02*
X31441300Y-65362500D01*
X27541300Y-65882500D02*
X27541300Y-58162500D01*
X27541300Y-58162500D02*
X31441300Y-58162500D01*
X34551300Y-65882500D02*
X34551300Y-65362500D01*
X27541300Y-65882500D02*
X31441300Y-65882500D01*
X31211300Y-58682500D02*
X31441300Y-58682500D01*
X34041300Y-65362500D02*
X34551300Y-65362500D01*
X34041300Y-65882500D02*
X34551300Y-65882500D01*
X31211300Y-59222500D02*
X31211300Y-58682500D01*
X34041300Y-58682500D02*
X34551300Y-58682500D01*
X34551300Y-58682500D02*
X34551300Y-58162500D01*
X34041300Y-58162500D02*
X34551300Y-58162500D01*
X31211300Y-65362500D02*
X31211300Y-64822500D01*
X31211300Y-63722500D02*
X31211300Y-60322500D01*
X31226500Y-53362500D02*
X31456500Y-53362500D01*
X27556500Y-53882500D02*
X27556500Y-46162500D01*
X27556500Y-46162500D02*
X31456500Y-46162500D01*
X34566500Y-53882500D02*
X34566500Y-53362500D01*
X27556500Y-53882500D02*
X31456500Y-53882500D01*
X31226500Y-46682500D02*
X31456500Y-46682500D01*
X34056500Y-53362500D02*
X34566500Y-53362500D01*
X34056500Y-53882500D02*
X34566500Y-53882500D01*
X31226500Y-47222500D02*
X31226500Y-46682500D01*
X34056500Y-46682500D02*
X34566500Y-46682500D01*
X34566500Y-46682500D02*
X34566500Y-46162500D01*
X34056500Y-46162500D02*
X34566500Y-46162500D01*
X31226500Y-53362500D02*
X31226500Y-52822500D01*
X31226500Y-51722500D02*
X31226500Y-48322500D01*
X85011800Y-64444000D02*
X90761800Y-64444000D01*
X85011800Y-60844000D02*
X85011800Y-64444000D01*
X90761800Y-60844000D02*
X85011800Y-60844000D01*
D15*
X51827100Y-74296200D02*
G75*
G03*
X51827100Y-74296200I-254000J0D01*
G01*
D16*
X53113100Y-74576200D02*
X62533100Y-74576200D01*
X53113100Y-84006200D02*
X53113100Y-74576200D01*
X62533100Y-84006200D02*
X53113100Y-84006200D01*
X62533100Y-74576200D02*
X62533100Y-84006200D01*
D13*
X81845100Y-91724900D02*
X81845100Y-85714900D01*
X88665100Y-89474900D02*
X88665100Y-85714900D01*
X81845100Y-85714900D02*
X83105100Y-85714900D01*
X88665100Y-85714900D02*
X87405100Y-85714900D01*
D11*
X90136800Y-75695000D02*
X91511800Y-75695000D01*
X90136800Y-65570000D02*
X85986800Y-65570000D01*
X90136800Y-75720000D02*
X85986800Y-75720000D01*
X90136800Y-65570000D02*
X90136800Y-65675000D01*
X85986800Y-65570000D02*
X85986800Y-65675000D01*
X85986800Y-75720000D02*
X85986800Y-75615000D01*
X90136800Y-75720000D02*
X90136800Y-75695000D01*
D13*
X52936379Y-67275000D02*
X52610821Y-67275000D01*
X52936379Y-68295000D02*
X52610821Y-68295000D01*
X52941479Y-68837100D02*
X52615921Y-68837100D01*
X52941479Y-69857100D02*
X52615921Y-69857100D01*
X70368100Y-74605800D02*
X71698100Y-74605800D01*
X71698100Y-74605800D02*
X71698100Y-75935800D01*
X71698100Y-77205800D02*
X71698100Y-89965800D01*
X69038100Y-89965800D02*
X71698100Y-89965800D01*
X69038100Y-77205800D02*
X69038100Y-89965800D01*
X69038100Y-77205800D02*
X71698100Y-77205800D01*
X104124200Y-57928800D02*
X104124200Y-65748800D01*
X94804200Y-63948800D02*
X94374200Y-63948800D01*
X104124200Y-57928800D02*
X102174200Y-57928800D01*
X99954200Y-57928800D02*
X96724200Y-57928800D01*
X94804200Y-59728800D02*
X94804200Y-58648800D01*
X94804200Y-65028800D02*
X94804200Y-63948800D01*
X99954200Y-65748800D02*
X96724200Y-65748800D01*
X104124200Y-65748800D02*
X102174200Y-65748800D01*
X75029000Y-74588000D02*
X76359000Y-74588000D01*
X76359000Y-74588000D02*
X76359000Y-75918000D01*
X76359000Y-77188000D02*
X76359000Y-79788000D01*
X73699000Y-79788000D02*
X76359000Y-79788000D01*
X73699000Y-77188000D02*
X73699000Y-79788000D01*
X73699000Y-77188000D02*
X76359000Y-77188000D01*
X60342278Y-70102600D02*
X59825122Y-70102600D01*
X60342278Y-71522600D02*
X59825122Y-71522600D01*
X76686500Y-91714600D02*
X80596500Y-91714600D01*
X76686500Y-89844600D02*
X76686500Y-91714600D01*
X80596500Y-89844600D02*
X76686500Y-89844600D01*
X89262100Y-91722200D02*
X93172100Y-91722200D01*
X89262100Y-89852200D02*
X89262100Y-91722200D01*
X93172100Y-89852200D02*
X89262100Y-89852200D01*
X86063322Y-78403500D02*
X86580478Y-78403500D01*
X86063322Y-76983500D02*
X86580478Y-76983500D01*
X89568522Y-78403500D02*
X90085678Y-78403500D01*
X89568522Y-76983500D02*
X90085678Y-76983500D01*
D17*
X67337466Y-32882495D02*
X67337466Y-33463066D01*
X67298761Y-33579180D01*
X67221352Y-33656590D01*
X67105238Y-33695295D01*
X67027828Y-33695295D01*
X68111561Y-32882495D02*
X67724514Y-32882495D01*
X67685809Y-33269542D01*
X67724514Y-33230838D01*
X67801923Y-33192133D01*
X67995447Y-33192133D01*
X68072857Y-33230838D01*
X68111561Y-33269542D01*
X68150266Y-33346952D01*
X68150266Y-33540476D01*
X68111561Y-33617885D01*
X68072857Y-33656590D01*
X67995447Y-33695295D01*
X67801923Y-33695295D01*
X67724514Y-33656590D01*
X67685809Y-33617885D01*
D18*
X97671801Y-107367293D02*
X97671801Y-108081686D01*
X97624175Y-108224565D01*
X97528923Y-108319817D01*
X97386044Y-108367443D01*
X97290792Y-108367443D01*
X98576699Y-107700677D02*
X98576699Y-108367443D01*
X98338568Y-107319667D02*
X98100437Y-108034060D01*
X98719577Y-108034060D01*
D11*
X70116906Y-30935521D02*
X70259763Y-30983140D01*
X70497859Y-30983140D01*
X70593097Y-30935521D01*
X70640716Y-30887902D01*
X70688335Y-30792664D01*
X70688335Y-30697426D01*
X70640716Y-30602188D01*
X70593097Y-30554569D01*
X70497859Y-30506950D01*
X70307382Y-30459331D01*
X70212144Y-30411712D01*
X70164525Y-30364093D01*
X70116906Y-30268855D01*
X70116906Y-30173617D01*
X70164525Y-30078379D01*
X70212144Y-30030760D01*
X70307382Y-29983140D01*
X70545478Y-29983140D01*
X70688335Y-30030760D01*
X71021668Y-29983140D02*
X71259763Y-30983140D01*
X71450240Y-30268855D01*
X71640716Y-30983140D01*
X71878811Y-29983140D01*
X72688335Y-30316474D02*
X72688335Y-30983140D01*
X72450240Y-29935521D02*
X72212144Y-30649807D01*
X72831192Y-30649807D01*
X85713233Y-81248880D02*
X85379900Y-80772690D01*
X85141804Y-81248880D02*
X85141804Y-80248880D01*
X85522757Y-80248880D01*
X85617995Y-80296500D01*
X85665614Y-80344119D01*
X85713233Y-80439357D01*
X85713233Y-80582214D01*
X85665614Y-80677452D01*
X85617995Y-80725071D01*
X85522757Y-80772690D01*
X85141804Y-80772690D01*
X86570376Y-80582214D02*
X86570376Y-81248880D01*
X86332280Y-80201261D02*
X86094185Y-80915547D01*
X86713233Y-80915547D01*
X30881066Y-27700661D02*
X31023923Y-27748280D01*
X31262019Y-27748280D01*
X31357257Y-27700661D01*
X31404876Y-27653042D01*
X31452495Y-27557804D01*
X31452495Y-27462566D01*
X31404876Y-27367328D01*
X31357257Y-27319709D01*
X31262019Y-27272090D01*
X31071542Y-27224471D01*
X30976304Y-27176852D01*
X30928685Y-27129233D01*
X30881066Y-27033995D01*
X30881066Y-26938757D01*
X30928685Y-26843519D01*
X30976304Y-26795900D01*
X31071542Y-26748280D01*
X31309638Y-26748280D01*
X31452495Y-26795900D01*
X31785828Y-26748280D02*
X32023923Y-27748280D01*
X32214400Y-27033995D01*
X32404876Y-27748280D01*
X32642971Y-26748280D01*
X32928685Y-26748280D02*
X33547733Y-26748280D01*
X33214400Y-27129233D01*
X33357257Y-27129233D01*
X33452495Y-27176852D01*
X33500114Y-27224471D01*
X33547733Y-27319709D01*
X33547733Y-27557804D01*
X33500114Y-27653042D01*
X33452495Y-27700661D01*
X33357257Y-27748280D01*
X33071542Y-27748280D01*
X32976304Y-27700661D01*
X32928685Y-27653042D01*
X32326061Y-63355833D02*
X32373680Y-63212976D01*
X32373680Y-62974880D01*
X32326061Y-62879642D01*
X32278442Y-62832023D01*
X32183204Y-62784404D01*
X32087966Y-62784404D01*
X31992728Y-62832023D01*
X31945109Y-62879642D01*
X31897490Y-62974880D01*
X31849871Y-63165357D01*
X31802252Y-63260595D01*
X31754633Y-63308214D01*
X31659395Y-63355833D01*
X31564157Y-63355833D01*
X31468919Y-63308214D01*
X31421300Y-63260595D01*
X31373680Y-63165357D01*
X31373680Y-62927261D01*
X31421300Y-62784404D01*
X31373680Y-62451071D02*
X32373680Y-62212976D01*
X31659395Y-62022500D01*
X32373680Y-61832023D01*
X31373680Y-61593928D01*
X31468919Y-61260595D02*
X31421300Y-61212976D01*
X31373680Y-61117738D01*
X31373680Y-60879642D01*
X31421300Y-60784404D01*
X31468919Y-60736785D01*
X31564157Y-60689166D01*
X31659395Y-60689166D01*
X31802252Y-60736785D01*
X32373680Y-61308214D01*
X32373680Y-60689166D01*
X32341261Y-51355833D02*
X32388880Y-51212976D01*
X32388880Y-50974880D01*
X32341261Y-50879642D01*
X32293642Y-50832023D01*
X32198404Y-50784404D01*
X32103166Y-50784404D01*
X32007928Y-50832023D01*
X31960309Y-50879642D01*
X31912690Y-50974880D01*
X31865071Y-51165357D01*
X31817452Y-51260595D01*
X31769833Y-51308214D01*
X31674595Y-51355833D01*
X31579357Y-51355833D01*
X31484119Y-51308214D01*
X31436500Y-51260595D01*
X31388880Y-51165357D01*
X31388880Y-50927261D01*
X31436500Y-50784404D01*
X31388880Y-50451071D02*
X32388880Y-50212976D01*
X31674595Y-50022500D01*
X32388880Y-49832023D01*
X31388880Y-49593928D01*
X32388880Y-48689166D02*
X32388880Y-49260595D01*
X32388880Y-48974880D02*
X31388880Y-48974880D01*
X31531738Y-49070119D01*
X31626976Y-49165357D01*
X31674595Y-49260595D01*
X91662309Y-62607490D02*
X91662309Y-63083680D01*
X91328976Y-62083680D02*
X91662309Y-62607490D01*
X91995642Y-62083680D01*
X92852785Y-63083680D02*
X92281357Y-63083680D01*
X92567071Y-63083680D02*
X92567071Y-62083680D01*
X92471833Y-62226538D01*
X92376595Y-62321776D01*
X92281357Y-62369395D01*
X84543995Y-92436680D02*
X84543995Y-93246204D01*
X84591614Y-93341442D01*
X84639233Y-93389061D01*
X84734471Y-93436680D01*
X84924947Y-93436680D01*
X85020185Y-93389061D01*
X85067804Y-93341442D01*
X85115423Y-93246204D01*
X85115423Y-92436680D01*
X85496376Y-92436680D02*
X86115423Y-92436680D01*
X85782090Y-92817633D01*
X85924947Y-92817633D01*
X86020185Y-92865252D01*
X86067804Y-92912871D01*
X86115423Y-93008109D01*
X86115423Y-93246204D01*
X86067804Y-93341442D01*
X86020185Y-93389061D01*
X85924947Y-93436680D01*
X85639233Y-93436680D01*
X85543995Y-93389061D01*
X85496376Y-93341442D01*
X92036995Y-74199480D02*
X92036995Y-75009004D01*
X92084614Y-75104242D01*
X92132233Y-75151861D01*
X92227471Y-75199480D01*
X92417947Y-75199480D01*
X92513185Y-75151861D01*
X92560804Y-75104242D01*
X92608423Y-75009004D01*
X92608423Y-74199480D01*
X93608423Y-75199480D02*
X93036995Y-75199480D01*
X93322709Y-75199480D02*
X93322709Y-74199480D01*
X93227471Y-74342338D01*
X93132233Y-74437576D01*
X93036995Y-74485195D01*
X55240913Y-68260240D02*
X54907580Y-67784050D01*
X54669484Y-68260240D02*
X54669484Y-67260240D01*
X55050437Y-67260240D01*
X55145675Y-67307860D01*
X55193294Y-67355479D01*
X55240913Y-67450717D01*
X55240913Y-67593574D01*
X55193294Y-67688812D01*
X55145675Y-67736431D01*
X55050437Y-67784050D01*
X54669484Y-67784050D01*
X55621865Y-67355479D02*
X55669484Y-67307860D01*
X55764722Y-67260240D01*
X56002818Y-67260240D01*
X56098056Y-67307860D01*
X56145675Y-67355479D01*
X56193294Y-67450717D01*
X56193294Y-67545955D01*
X56145675Y-67688812D01*
X55574246Y-68260240D01*
X56193294Y-68260240D01*
X55167273Y-69814720D02*
X54833940Y-69338530D01*
X54595844Y-69814720D02*
X54595844Y-68814720D01*
X54976797Y-68814720D01*
X55072035Y-68862340D01*
X55119654Y-68909959D01*
X55167273Y-69005197D01*
X55167273Y-69148054D01*
X55119654Y-69243292D01*
X55072035Y-69290911D01*
X54976797Y-69338530D01*
X54595844Y-69338530D01*
X56119654Y-69814720D02*
X55548225Y-69814720D01*
X55833940Y-69814720D02*
X55833940Y-68814720D01*
X55738701Y-68957578D01*
X55643463Y-69052816D01*
X55548225Y-69100435D01*
X57072233Y-71195142D02*
X57024614Y-71242761D01*
X56881757Y-71290380D01*
X56786519Y-71290380D01*
X56643661Y-71242761D01*
X56548423Y-71147523D01*
X56500804Y-71052285D01*
X56453185Y-70861809D01*
X56453185Y-70718952D01*
X56500804Y-70528476D01*
X56548423Y-70433238D01*
X56643661Y-70338000D01*
X56786519Y-70290380D01*
X56881757Y-70290380D01*
X57024614Y-70338000D01*
X57072233Y-70385619D01*
X57405566Y-70290380D02*
X58072233Y-70290380D01*
X57643661Y-71290380D01*
X78865393Y-89396842D02*
X78817774Y-89444461D01*
X78674917Y-89492080D01*
X78579679Y-89492080D01*
X78436821Y-89444461D01*
X78341583Y-89349223D01*
X78293964Y-89253985D01*
X78246345Y-89063509D01*
X78246345Y-88920652D01*
X78293964Y-88730176D01*
X78341583Y-88634938D01*
X78436821Y-88539700D01*
X78579679Y-88492080D01*
X78674917Y-88492080D01*
X78817774Y-88539700D01*
X78865393Y-88587319D01*
X79722536Y-88492080D02*
X79532060Y-88492080D01*
X79436821Y-88539700D01*
X79389202Y-88587319D01*
X79293964Y-88730176D01*
X79246345Y-88920652D01*
X79246345Y-89301604D01*
X79293964Y-89396842D01*
X79341583Y-89444461D01*
X79436821Y-89492080D01*
X79627298Y-89492080D01*
X79722536Y-89444461D01*
X79770155Y-89396842D01*
X79817774Y-89301604D01*
X79817774Y-89063509D01*
X79770155Y-88968271D01*
X79722536Y-88920652D01*
X79627298Y-88873033D01*
X79436821Y-88873033D01*
X79341583Y-88920652D01*
X79293964Y-88968271D01*
X79246345Y-89063509D01*
X91423213Y-89399362D02*
X91375594Y-89446981D01*
X91232737Y-89494600D01*
X91137499Y-89494600D01*
X90994641Y-89446981D01*
X90899403Y-89351743D01*
X90851784Y-89256505D01*
X90804165Y-89066029D01*
X90804165Y-88923172D01*
X90851784Y-88732696D01*
X90899403Y-88637458D01*
X90994641Y-88542220D01*
X91137499Y-88494600D01*
X91232737Y-88494600D01*
X91375594Y-88542220D01*
X91423213Y-88589839D01*
X92327975Y-88494600D02*
X91851784Y-88494600D01*
X91804165Y-88970791D01*
X91851784Y-88923172D01*
X91947022Y-88875553D01*
X92185118Y-88875553D01*
X92280356Y-88923172D01*
X92327975Y-88970791D01*
X92375594Y-89066029D01*
X92375594Y-89304124D01*
X92327975Y-89399362D01*
X92280356Y-89446981D01*
X92185118Y-89494600D01*
X91947022Y-89494600D01*
X91851784Y-89446981D01*
X91804165Y-89399362D01*
X83412033Y-78076042D02*
X83364414Y-78123661D01*
X83221557Y-78171280D01*
X83126319Y-78171280D01*
X82983461Y-78123661D01*
X82888223Y-78028423D01*
X82840604Y-77933185D01*
X82792985Y-77742709D01*
X82792985Y-77599852D01*
X82840604Y-77409376D01*
X82888223Y-77314138D01*
X82983461Y-77218900D01*
X83126319Y-77171280D01*
X83221557Y-77171280D01*
X83364414Y-77218900D01*
X83412033Y-77266519D01*
X84269176Y-77504614D02*
X84269176Y-78171280D01*
X84031080Y-77123661D02*
X83792985Y-77837947D01*
X84412033Y-77837947D01*
X92505233Y-78025242D02*
X92457614Y-78072861D01*
X92314757Y-78120480D01*
X92219519Y-78120480D01*
X92076661Y-78072861D01*
X91981423Y-77977623D01*
X91933804Y-77882385D01*
X91886185Y-77691909D01*
X91886185Y-77549052D01*
X91933804Y-77358576D01*
X91981423Y-77263338D01*
X92076661Y-77168100D01*
X92219519Y-77120480D01*
X92314757Y-77120480D01*
X92457614Y-77168100D01*
X92505233Y-77215719D01*
X92838566Y-77120480D02*
X93457614Y-77120480D01*
X93124280Y-77501433D01*
X93267138Y-77501433D01*
X93362376Y-77549052D01*
X93409995Y-77596671D01*
X93457614Y-77691909D01*
X93457614Y-77930004D01*
X93409995Y-78025242D01*
X93362376Y-78072861D01*
X93267138Y-78120480D01*
X92981423Y-78120480D01*
X92886185Y-78072861D01*
X92838566Y-78025242D01*
X89330233Y-58873642D02*
X89282614Y-58921261D01*
X89139757Y-58968880D01*
X89044519Y-58968880D01*
X88901661Y-58921261D01*
X88806423Y-58826023D01*
X88758804Y-58730785D01*
X88711185Y-58540309D01*
X88711185Y-58397452D01*
X88758804Y-58206976D01*
X88806423Y-58111738D01*
X88901661Y-58016500D01*
X89044519Y-57968880D01*
X89139757Y-57968880D01*
X89282614Y-58016500D01*
X89330233Y-58064119D01*
X89711185Y-58064119D02*
X89758804Y-58016500D01*
X89854042Y-57968880D01*
X90092138Y-57968880D01*
X90187376Y-58016500D01*
X90234995Y-58064119D01*
X90282614Y-58159357D01*
X90282614Y-58254595D01*
X90234995Y-58397452D01*
X89663566Y-58968880D01*
X90282614Y-58968880D01*
X86561633Y-58910142D02*
X86514014Y-58957761D01*
X86371157Y-59005380D01*
X86275919Y-59005380D01*
X86133061Y-58957761D01*
X86037823Y-58862523D01*
X85990204Y-58767285D01*
X85942585Y-58576809D01*
X85942585Y-58433952D01*
X85990204Y-58243476D01*
X86037823Y-58148238D01*
X86133061Y-58053000D01*
X86275919Y-58005380D01*
X86371157Y-58005380D01*
X86514014Y-58053000D01*
X86561633Y-58100619D01*
X87514014Y-59005380D02*
X86942585Y-59005380D01*
X87228300Y-59005380D02*
X87228300Y-58005380D01*
X87133061Y-58148238D01*
X87037823Y-58243476D01*
X86942585Y-58291095D01*
M02*
