G04 #@! TF.GenerationSoftware,KiCad,Pcbnew,(5.1.6)-1*
G04 #@! TF.CreationDate,2020-11-21T20:25:47+01:00*
G04 #@! TF.ProjectId,Dandanator CPC,44616e64-616e-4617-946f-72204350432e,rev?*
G04 #@! TF.SameCoordinates,Original*
G04 #@! TF.FileFunction,Paste,Bot*
G04 #@! TF.FilePolarity,Positive*
%FSLAX46Y46*%
G04 Gerber Fmt 4.6, Leading zero omitted, Abs format (unit mm)*
G04 Created by KiCad (PCBNEW (5.1.6)-1) date 2020-11-21 20:25:47*
%MOMM*%
%LPD*%
G01*
G04 APERTURE LIST*
%ADD10R,1.000000X0.900000*%
%ADD11R,4.000000X3.000000*%
%ADD12R,1.000000X3.000000*%
G04 APERTURE END LIST*
D10*
X64899500Y-28036500D03*
X59899500Y-28036500D03*
X64899500Y-25636500D03*
X59899500Y-25636500D03*
D11*
X54513200Y-30326300D03*
X80513200Y-30326300D03*
D12*
X44243200Y-50426300D03*
X45743200Y-50426300D03*
X47243200Y-50426300D03*
X48743200Y-50426300D03*
X50243200Y-50426300D03*
X51743200Y-50426300D03*
X53243200Y-50426300D03*
X54743200Y-50426300D03*
X56243200Y-50426300D03*
X57743200Y-50426300D03*
X59243200Y-50426300D03*
X60743200Y-50426300D03*
X62243200Y-50426300D03*
X63743200Y-50426300D03*
X65243200Y-50426300D03*
X66743200Y-50426300D03*
X68243200Y-50426300D03*
X69743200Y-50426300D03*
X71243200Y-50426300D03*
X72743200Y-50426300D03*
X74243200Y-50426300D03*
X75743200Y-50426300D03*
X77243200Y-50426300D03*
X78743200Y-50426300D03*
X80243200Y-50426300D03*
X81743200Y-50426300D03*
X83243200Y-50426300D03*
X84743200Y-50426300D03*
X86243200Y-50426300D03*
X87743200Y-50426300D03*
X89243200Y-50426300D03*
X90743200Y-50426300D03*
G36*
G01*
X99410000Y-34929900D02*
X99410000Y-34584900D01*
G75*
G02*
X99557500Y-34437400I147500J0D01*
G01*
X99852500Y-34437400D01*
G75*
G02*
X100000000Y-34584900I0J-147500D01*
G01*
X100000000Y-34929900D01*
G75*
G02*
X99852500Y-35077400I-147500J0D01*
G01*
X99557500Y-35077400D01*
G75*
G02*
X99410000Y-34929900I0J147500D01*
G01*
G37*
G36*
G01*
X98440000Y-34929900D02*
X98440000Y-34584900D01*
G75*
G02*
X98587500Y-34437400I147500J0D01*
G01*
X98882500Y-34437400D01*
G75*
G02*
X99030000Y-34584900I0J-147500D01*
G01*
X99030000Y-34929900D01*
G75*
G02*
X98882500Y-35077400I-147500J0D01*
G01*
X98587500Y-35077400D01*
G75*
G02*
X98440000Y-34929900I0J147500D01*
G01*
G37*
M02*
