G04 #@! TF.GenerationSoftware,KiCad,Pcbnew,(5.1.6)-1*
G04 #@! TF.CreationDate,2020-11-21T20:25:47+01:00*
G04 #@! TF.ProjectId,Dandanator CPC,44616e64-616e-4617-946f-72204350432e,rev?*
G04 #@! TF.SameCoordinates,Original*
G04 #@! TF.FileFunction,Legend,Bot*
G04 #@! TF.FilePolarity,Positive*
%FSLAX46Y46*%
G04 Gerber Fmt 4.6, Leading zero omitted, Abs format (unit mm)*
G04 Created by KiCad (PCBNEW (5.1.6)-1) date 2020-11-21 20:25:47*
%MOMM*%
%LPD*%
G01*
G04 APERTURE LIST*
%ADD10C,0.250000*%
%ADD11C,0.010000*%
%ADD12C,0.120000*%
%ADD13C,0.127000*%
%ADD14C,0.100000*%
%ADD15C,0.150000*%
%ADD16C,0.152400*%
G04 APERTURE END LIST*
D10*
X63039520Y-53994702D02*
X62372853Y-53994702D01*
X62087139Y-55042321D02*
X63039520Y-55042321D01*
X63039520Y-53042321D01*
X62087139Y-53042321D01*
X60277615Y-55042321D02*
X61229996Y-55042321D01*
X61229996Y-53042321D01*
X59610948Y-55042321D02*
X59610948Y-53042321D01*
X58944281Y-53042321D02*
X57801424Y-53042321D01*
X58372853Y-55042321D02*
X58372853Y-53042321D01*
X57134758Y-53994702D02*
X56468091Y-53994702D01*
X56182377Y-55042321D02*
X57134758Y-55042321D01*
X57134758Y-53042321D01*
X56182377Y-53042321D01*
X52658567Y-54851845D02*
X52753805Y-54947083D01*
X53039520Y-55042321D01*
X53229996Y-55042321D01*
X53515710Y-54947083D01*
X53706186Y-54756607D01*
X53801424Y-54566131D01*
X53896662Y-54185179D01*
X53896662Y-53899464D01*
X53801424Y-53518512D01*
X53706186Y-53328036D01*
X53515710Y-53137560D01*
X53229996Y-53042321D01*
X53039520Y-53042321D01*
X52753805Y-53137560D01*
X52658567Y-53232798D01*
X50944281Y-55042321D02*
X50944281Y-53994702D01*
X51039520Y-53804226D01*
X51229996Y-53708988D01*
X51610948Y-53708988D01*
X51801424Y-53804226D01*
X50944281Y-54947083D02*
X51134758Y-55042321D01*
X51610948Y-55042321D01*
X51801424Y-54947083D01*
X51896662Y-54756607D01*
X51896662Y-54566131D01*
X51801424Y-54375655D01*
X51610948Y-54280417D01*
X51134758Y-54280417D01*
X50944281Y-54185179D01*
X49991900Y-55042321D02*
X49991900Y-53708988D01*
X49991900Y-54089940D02*
X49896662Y-53899464D01*
X49801424Y-53804226D01*
X49610948Y-53708988D01*
X49420472Y-53708988D01*
X49039520Y-53708988D02*
X48277615Y-53708988D01*
X48753805Y-53042321D02*
X48753805Y-54756607D01*
X48658567Y-54947083D01*
X48468091Y-55042321D01*
X48277615Y-55042321D01*
X47610948Y-55042321D02*
X47610948Y-53708988D01*
X47610948Y-54089940D02*
X47515710Y-53899464D01*
X47420472Y-53804226D01*
X47229996Y-53708988D01*
X47039520Y-53708988D01*
X46372853Y-55042321D02*
X46372853Y-53708988D01*
X46372853Y-53042321D02*
X46468091Y-53137560D01*
X46372853Y-53232798D01*
X46277615Y-53137560D01*
X46372853Y-53042321D01*
X46372853Y-53232798D01*
X44563329Y-55042321D02*
X44563329Y-53042321D01*
X44563329Y-54947083D02*
X44753805Y-55042321D01*
X45134758Y-55042321D01*
X45325234Y-54947083D01*
X45420472Y-54851845D01*
X45515710Y-54661369D01*
X45515710Y-54089940D01*
X45420472Y-53899464D01*
X45325234Y-53804226D01*
X45134758Y-53708988D01*
X44753805Y-53708988D01*
X44563329Y-53804226D01*
X42753805Y-53708988D02*
X42753805Y-55328036D01*
X42849043Y-55518512D01*
X42944281Y-55613750D01*
X43134758Y-55708988D01*
X43420472Y-55708988D01*
X43610948Y-55613750D01*
X42753805Y-54947083D02*
X42944281Y-55042321D01*
X43325234Y-55042321D01*
X43515710Y-54947083D01*
X43610948Y-54851845D01*
X43706186Y-54661369D01*
X43706186Y-54089940D01*
X43610948Y-53899464D01*
X43515710Y-53804226D01*
X43325234Y-53708988D01*
X42944281Y-53708988D01*
X42753805Y-53804226D01*
X41039520Y-54947083D02*
X41229996Y-55042321D01*
X41610948Y-55042321D01*
X41801424Y-54947083D01*
X41896662Y-54756607D01*
X41896662Y-53994702D01*
X41801424Y-53804226D01*
X41610948Y-53708988D01*
X41229996Y-53708988D01*
X41039520Y-53804226D01*
X40944281Y-53994702D01*
X40944281Y-54185179D01*
X41896662Y-54375655D01*
D11*
G36*
X70661171Y-57517823D02*
G01*
X70609575Y-57530108D01*
X70576235Y-57558522D01*
X70557710Y-57609536D01*
X70550557Y-57689622D01*
X70551334Y-57805248D01*
X70556599Y-57962886D01*
X70558918Y-58030795D01*
X70572607Y-58334043D01*
X70593148Y-58590963D01*
X70622016Y-58805742D01*
X70660688Y-58982567D01*
X70710639Y-59125625D01*
X70773344Y-59239102D01*
X70850280Y-59327187D01*
X70942923Y-59394065D01*
X71052748Y-59443923D01*
X71057628Y-59445661D01*
X71185051Y-59473788D01*
X71337075Y-59482426D01*
X71491572Y-59472004D01*
X71626409Y-59442949D01*
X71651052Y-59434171D01*
X71822005Y-59345574D01*
X71951915Y-59228743D01*
X72010418Y-59145567D01*
X72041071Y-59084208D01*
X72063567Y-59013497D01*
X72080709Y-58920895D01*
X72095298Y-58793865D01*
X72099667Y-58746378D01*
X72112029Y-58577535D01*
X72118558Y-58441296D01*
X71969434Y-58441296D01*
X71959827Y-58547593D01*
X71941095Y-58628777D01*
X71915187Y-58675857D01*
X71889203Y-58682434D01*
X71872848Y-58654774D01*
X71865892Y-58585298D01*
X71867888Y-58470552D01*
X71867637Y-58444324D01*
X71716961Y-58444324D01*
X71708427Y-58503961D01*
X71692039Y-58515972D01*
X71669683Y-58481268D01*
X71643246Y-58400761D01*
X71640469Y-58388771D01*
X71464915Y-58388771D01*
X71462318Y-58438945D01*
X71450677Y-58457026D01*
X71435075Y-58455013D01*
X71409158Y-58422398D01*
X71383843Y-58351834D01*
X71369748Y-58289832D01*
X71342301Y-58177096D01*
X71302994Y-58054818D01*
X71278581Y-57992455D01*
X71241886Y-57900641D01*
X71212672Y-57815681D01*
X71200369Y-57769760D01*
X71185265Y-57693560D01*
X71239254Y-57756982D01*
X71334526Y-57898489D01*
X71408920Y-58066782D01*
X71453181Y-58239191D01*
X71459915Y-58297336D01*
X71464915Y-58388771D01*
X71640469Y-58388771D01*
X71617236Y-58288487D01*
X71567062Y-58097377D01*
X71494006Y-57922012D01*
X71389315Y-57742150D01*
X71365438Y-57706260D01*
X71321230Y-57631664D01*
X71311046Y-57589607D01*
X71318368Y-57581794D01*
X71356083Y-57594041D01*
X71409769Y-57644098D01*
X71473241Y-57724061D01*
X71540315Y-57826027D01*
X71604807Y-57942092D01*
X71612868Y-57958186D01*
X71665263Y-58073478D01*
X71695968Y-58170652D01*
X71711542Y-58273811D01*
X71715756Y-58336147D01*
X71716961Y-58444324D01*
X71867637Y-58444324D01*
X71866338Y-58308920D01*
X71842927Y-58163373D01*
X71793308Y-58018876D01*
X71713135Y-57860394D01*
X71670653Y-57788262D01*
X71611454Y-57683367D01*
X71581149Y-57613792D01*
X71578593Y-57581557D01*
X71602643Y-57588682D01*
X71652153Y-57637187D01*
X71713515Y-57712610D01*
X71828291Y-57878474D01*
X71905529Y-58030285D01*
X71950686Y-58181045D01*
X71967970Y-58318875D01*
X71969434Y-58441296D01*
X72118558Y-58441296D01*
X72120550Y-58399732D01*
X72125297Y-58221105D01*
X72126341Y-58049791D01*
X72123751Y-57893925D01*
X72121783Y-57851611D01*
X72024240Y-57851611D01*
X72020754Y-57896636D01*
X72014916Y-57909460D01*
X71996768Y-57890273D01*
X71961127Y-57841490D01*
X71938716Y-57808404D01*
X71893738Y-57738068D01*
X71875767Y-57699723D01*
X71882544Y-57683836D01*
X71908500Y-57680860D01*
X71953583Y-57702776D01*
X71995287Y-57756240D01*
X72021120Y-57822823D01*
X72024240Y-57851611D01*
X72121783Y-57851611D01*
X72117596Y-57761645D01*
X72107946Y-57661088D01*
X72094871Y-57600389D01*
X72089796Y-57590464D01*
X72072260Y-57572061D01*
X72045420Y-57558539D01*
X72001496Y-57548908D01*
X71932705Y-57542176D01*
X71831264Y-57537354D01*
X71689391Y-57533450D01*
X71632009Y-57532187D01*
X71458446Y-57529750D01*
X71330421Y-57531031D01*
X71242791Y-57536281D01*
X71190414Y-57545747D01*
X71172631Y-57554449D01*
X71161116Y-57570157D01*
X71152639Y-57599429D01*
X71147023Y-57648081D01*
X71144090Y-57721928D01*
X71143663Y-57826787D01*
X71145565Y-57968474D01*
X71149619Y-58152804D01*
X71151781Y-58238923D01*
X71156645Y-58454377D01*
X71158847Y-58623082D01*
X71158310Y-58749022D01*
X71154961Y-58836181D01*
X71148724Y-58888545D01*
X71139526Y-58910098D01*
X71139204Y-58910310D01*
X71129831Y-58902630D01*
X71122480Y-58864170D01*
X71116980Y-58791158D01*
X71113162Y-58679821D01*
X71110856Y-58526386D01*
X71109893Y-58327081D01*
X71109865Y-58289148D01*
X70698662Y-58289148D01*
X70694702Y-58309643D01*
X70674456Y-58296476D01*
X70666567Y-58288926D01*
X70640171Y-58239817D01*
X70619915Y-58159152D01*
X70613707Y-58111126D01*
X70607459Y-58034097D01*
X70608067Y-58002211D01*
X70617520Y-58010045D01*
X70636420Y-58049160D01*
X70664632Y-58126992D01*
X70687347Y-58216565D01*
X70689280Y-58226960D01*
X70698662Y-58289148D01*
X71109865Y-58289148D01*
X71109840Y-58256969D01*
X71109767Y-58206583D01*
X70922302Y-58206583D01*
X70901213Y-58230905D01*
X70897061Y-58231193D01*
X70863402Y-58209175D01*
X70842995Y-58162795D01*
X70823758Y-58109948D01*
X70785455Y-58028173D01*
X70735117Y-57932120D01*
X70714906Y-57895993D01*
X70664179Y-57801107D01*
X70625487Y-57717535D01*
X70604783Y-57658620D01*
X70602873Y-57644774D01*
X70607438Y-57617032D01*
X70624861Y-57621402D01*
X70663231Y-57661464D01*
X70677231Y-57677694D01*
X70744821Y-57767386D01*
X70806378Y-57868206D01*
X70858403Y-57971345D01*
X70897398Y-58067994D01*
X70919864Y-58149343D01*
X70922302Y-58206583D01*
X71109767Y-58206583D01*
X71109540Y-58052312D01*
X71108406Y-57892572D01*
X71107914Y-57866893D01*
X70992573Y-57866893D01*
X70990573Y-57888370D01*
X70976702Y-57881273D01*
X70945980Y-57841686D01*
X70893425Y-57765698D01*
X70865567Y-57724810D01*
X70812146Y-57637673D01*
X70787948Y-57579778D01*
X70791625Y-57554829D01*
X70821830Y-57566527D01*
X70877215Y-57618574D01*
X70896395Y-57640120D01*
X70952281Y-57722128D01*
X70984893Y-57804636D01*
X70987684Y-57820754D01*
X70992573Y-57866893D01*
X71107914Y-57866893D01*
X71106089Y-57771868D01*
X71102238Y-57684318D01*
X71096506Y-57624041D01*
X71088541Y-57585156D01*
X71077994Y-57561783D01*
X71067852Y-57550620D01*
X71011110Y-57528800D01*
X70907767Y-57517408D01*
X70832902Y-57515760D01*
X70734466Y-57515197D01*
X70661171Y-57517823D01*
G37*
X70661171Y-57517823D02*
X70609575Y-57530108D01*
X70576235Y-57558522D01*
X70557710Y-57609536D01*
X70550557Y-57689622D01*
X70551334Y-57805248D01*
X70556599Y-57962886D01*
X70558918Y-58030795D01*
X70572607Y-58334043D01*
X70593148Y-58590963D01*
X70622016Y-58805742D01*
X70660688Y-58982567D01*
X70710639Y-59125625D01*
X70773344Y-59239102D01*
X70850280Y-59327187D01*
X70942923Y-59394065D01*
X71052748Y-59443923D01*
X71057628Y-59445661D01*
X71185051Y-59473788D01*
X71337075Y-59482426D01*
X71491572Y-59472004D01*
X71626409Y-59442949D01*
X71651052Y-59434171D01*
X71822005Y-59345574D01*
X71951915Y-59228743D01*
X72010418Y-59145567D01*
X72041071Y-59084208D01*
X72063567Y-59013497D01*
X72080709Y-58920895D01*
X72095298Y-58793865D01*
X72099667Y-58746378D01*
X72112029Y-58577535D01*
X72118558Y-58441296D01*
X71969434Y-58441296D01*
X71959827Y-58547593D01*
X71941095Y-58628777D01*
X71915187Y-58675857D01*
X71889203Y-58682434D01*
X71872848Y-58654774D01*
X71865892Y-58585298D01*
X71867888Y-58470552D01*
X71867637Y-58444324D01*
X71716961Y-58444324D01*
X71708427Y-58503961D01*
X71692039Y-58515972D01*
X71669683Y-58481268D01*
X71643246Y-58400761D01*
X71640469Y-58388771D01*
X71464915Y-58388771D01*
X71462318Y-58438945D01*
X71450677Y-58457026D01*
X71435075Y-58455013D01*
X71409158Y-58422398D01*
X71383843Y-58351834D01*
X71369748Y-58289832D01*
X71342301Y-58177096D01*
X71302994Y-58054818D01*
X71278581Y-57992455D01*
X71241886Y-57900641D01*
X71212672Y-57815681D01*
X71200369Y-57769760D01*
X71185265Y-57693560D01*
X71239254Y-57756982D01*
X71334526Y-57898489D01*
X71408920Y-58066782D01*
X71453181Y-58239191D01*
X71459915Y-58297336D01*
X71464915Y-58388771D01*
X71640469Y-58388771D01*
X71617236Y-58288487D01*
X71567062Y-58097377D01*
X71494006Y-57922012D01*
X71389315Y-57742150D01*
X71365438Y-57706260D01*
X71321230Y-57631664D01*
X71311046Y-57589607D01*
X71318368Y-57581794D01*
X71356083Y-57594041D01*
X71409769Y-57644098D01*
X71473241Y-57724061D01*
X71540315Y-57826027D01*
X71604807Y-57942092D01*
X71612868Y-57958186D01*
X71665263Y-58073478D01*
X71695968Y-58170652D01*
X71711542Y-58273811D01*
X71715756Y-58336147D01*
X71716961Y-58444324D01*
X71867637Y-58444324D01*
X71866338Y-58308920D01*
X71842927Y-58163373D01*
X71793308Y-58018876D01*
X71713135Y-57860394D01*
X71670653Y-57788262D01*
X71611454Y-57683367D01*
X71581149Y-57613792D01*
X71578593Y-57581557D01*
X71602643Y-57588682D01*
X71652153Y-57637187D01*
X71713515Y-57712610D01*
X71828291Y-57878474D01*
X71905529Y-58030285D01*
X71950686Y-58181045D01*
X71967970Y-58318875D01*
X71969434Y-58441296D01*
X72118558Y-58441296D01*
X72120550Y-58399732D01*
X72125297Y-58221105D01*
X72126341Y-58049791D01*
X72123751Y-57893925D01*
X72121783Y-57851611D01*
X72024240Y-57851611D01*
X72020754Y-57896636D01*
X72014916Y-57909460D01*
X71996768Y-57890273D01*
X71961127Y-57841490D01*
X71938716Y-57808404D01*
X71893738Y-57738068D01*
X71875767Y-57699723D01*
X71882544Y-57683836D01*
X71908500Y-57680860D01*
X71953583Y-57702776D01*
X71995287Y-57756240D01*
X72021120Y-57822823D01*
X72024240Y-57851611D01*
X72121783Y-57851611D01*
X72117596Y-57761645D01*
X72107946Y-57661088D01*
X72094871Y-57600389D01*
X72089796Y-57590464D01*
X72072260Y-57572061D01*
X72045420Y-57558539D01*
X72001496Y-57548908D01*
X71932705Y-57542176D01*
X71831264Y-57537354D01*
X71689391Y-57533450D01*
X71632009Y-57532187D01*
X71458446Y-57529750D01*
X71330421Y-57531031D01*
X71242791Y-57536281D01*
X71190414Y-57545747D01*
X71172631Y-57554449D01*
X71161116Y-57570157D01*
X71152639Y-57599429D01*
X71147023Y-57648081D01*
X71144090Y-57721928D01*
X71143663Y-57826787D01*
X71145565Y-57968474D01*
X71149619Y-58152804D01*
X71151781Y-58238923D01*
X71156645Y-58454377D01*
X71158847Y-58623082D01*
X71158310Y-58749022D01*
X71154961Y-58836181D01*
X71148724Y-58888545D01*
X71139526Y-58910098D01*
X71139204Y-58910310D01*
X71129831Y-58902630D01*
X71122480Y-58864170D01*
X71116980Y-58791158D01*
X71113162Y-58679821D01*
X71110856Y-58526386D01*
X71109893Y-58327081D01*
X71109865Y-58289148D01*
X70698662Y-58289148D01*
X70694702Y-58309643D01*
X70674456Y-58296476D01*
X70666567Y-58288926D01*
X70640171Y-58239817D01*
X70619915Y-58159152D01*
X70613707Y-58111126D01*
X70607459Y-58034097D01*
X70608067Y-58002211D01*
X70617520Y-58010045D01*
X70636420Y-58049160D01*
X70664632Y-58126992D01*
X70687347Y-58216565D01*
X70689280Y-58226960D01*
X70698662Y-58289148D01*
X71109865Y-58289148D01*
X71109840Y-58256969D01*
X71109767Y-58206583D01*
X70922302Y-58206583D01*
X70901213Y-58230905D01*
X70897061Y-58231193D01*
X70863402Y-58209175D01*
X70842995Y-58162795D01*
X70823758Y-58109948D01*
X70785455Y-58028173D01*
X70735117Y-57932120D01*
X70714906Y-57895993D01*
X70664179Y-57801107D01*
X70625487Y-57717535D01*
X70604783Y-57658620D01*
X70602873Y-57644774D01*
X70607438Y-57617032D01*
X70624861Y-57621402D01*
X70663231Y-57661464D01*
X70677231Y-57677694D01*
X70744821Y-57767386D01*
X70806378Y-57868206D01*
X70858403Y-57971345D01*
X70897398Y-58067994D01*
X70919864Y-58149343D01*
X70922302Y-58206583D01*
X71109767Y-58206583D01*
X71109540Y-58052312D01*
X71108406Y-57892572D01*
X71107914Y-57866893D01*
X70992573Y-57866893D01*
X70990573Y-57888370D01*
X70976702Y-57881273D01*
X70945980Y-57841686D01*
X70893425Y-57765698D01*
X70865567Y-57724810D01*
X70812146Y-57637673D01*
X70787948Y-57579778D01*
X70791625Y-57554829D01*
X70821830Y-57566527D01*
X70877215Y-57618574D01*
X70896395Y-57640120D01*
X70952281Y-57722128D01*
X70984893Y-57804636D01*
X70987684Y-57820754D01*
X70992573Y-57866893D01*
X71107914Y-57866893D01*
X71106089Y-57771868D01*
X71102238Y-57684318D01*
X71096506Y-57624041D01*
X71088541Y-57585156D01*
X71077994Y-57561783D01*
X71067852Y-57550620D01*
X71011110Y-57528800D01*
X70907767Y-57517408D01*
X70832902Y-57515760D01*
X70734466Y-57515197D01*
X70661171Y-57517823D01*
G36*
X73206783Y-57505058D02*
G01*
X73117445Y-57516717D01*
X73084504Y-57526116D01*
X73042326Y-57557758D01*
X72985248Y-57620805D01*
X72924179Y-57702907D01*
X72911401Y-57722132D01*
X72798940Y-57895091D01*
X72786142Y-57735056D01*
X72782177Y-57704606D01*
X72653013Y-57704606D01*
X72649539Y-57706260D01*
X72626359Y-57688378D01*
X72621140Y-57680860D01*
X72614668Y-57657113D01*
X72618142Y-57655460D01*
X72641322Y-57673341D01*
X72646540Y-57680860D01*
X72653013Y-57704606D01*
X72782177Y-57704606D01*
X72772757Y-57632272D01*
X72746102Y-57564945D01*
X72696941Y-57525810D01*
X72616034Y-57507603D01*
X72494144Y-57503061D01*
X72491100Y-57503060D01*
X72378554Y-57507115D01*
X72306608Y-57520434D01*
X72267048Y-57543281D01*
X72256570Y-57558498D01*
X72248158Y-57584282D01*
X72241646Y-57625536D01*
X72236867Y-57687160D01*
X72233652Y-57774056D01*
X72231836Y-57891127D01*
X72231250Y-58043272D01*
X72231728Y-58235395D01*
X72233102Y-58472397D01*
X72233483Y-58527531D01*
X72240140Y-59471560D01*
X72533917Y-59478675D01*
X72827694Y-59485791D01*
X73078340Y-59121645D01*
X73086121Y-59270324D01*
X73094764Y-59356646D01*
X73108960Y-59424347D01*
X73120981Y-59451631D01*
X73160122Y-59468540D01*
X73234419Y-59479557D01*
X73328565Y-59484611D01*
X73427252Y-59483634D01*
X73515170Y-59476556D01*
X73577012Y-59463307D01*
X73593960Y-59453780D01*
X73602566Y-59430724D01*
X73609570Y-59378146D01*
X73615082Y-59292602D01*
X73619214Y-59170647D01*
X73622075Y-59008837D01*
X73622610Y-58944229D01*
X73517296Y-58944229D01*
X73511803Y-58991379D01*
X73483840Y-59068117D01*
X73449818Y-59111545D01*
X73418456Y-59114238D01*
X73413392Y-59084956D01*
X73431268Y-59032366D01*
X73433853Y-59027229D01*
X73472950Y-58963176D01*
X73502695Y-58934622D01*
X73517296Y-58944229D01*
X73622610Y-58944229D01*
X73623285Y-58862729D01*
X73567071Y-58862729D01*
X73561985Y-58872970D01*
X73537765Y-58899230D01*
X73533310Y-58880711D01*
X73539476Y-58860864D01*
X73558176Y-58833202D01*
X73566622Y-58833774D01*
X73567071Y-58862729D01*
X73623285Y-58862729D01*
X73623775Y-58803728D01*
X73624426Y-58551874D01*
X73624440Y-58502720D01*
X73624440Y-58390323D01*
X73500380Y-58390323D01*
X73492771Y-58546327D01*
X73466091Y-58680369D01*
X73460573Y-58696860D01*
X73423434Y-58782579D01*
X73374249Y-58872534D01*
X73320810Y-58954995D01*
X73270909Y-59018231D01*
X73232337Y-59050513D01*
X73224390Y-59052410D01*
X73194794Y-59046027D01*
X73192640Y-59042396D01*
X73202846Y-59016503D01*
X73230107Y-58955942D01*
X73269387Y-58871791D01*
X73287890Y-58832846D01*
X73333189Y-58734361D01*
X73361284Y-58657789D01*
X73376254Y-58584262D01*
X73382176Y-58494912D01*
X73383140Y-58392060D01*
X73382717Y-58381971D01*
X73255398Y-58381971D01*
X73244297Y-58538754D01*
X73220187Y-58630067D01*
X73182634Y-58729568D01*
X73137599Y-58825566D01*
X73091039Y-58906372D01*
X73048914Y-58960293D01*
X73021284Y-58976260D01*
X72996615Y-58962331D01*
X73003585Y-58931810D01*
X73089356Y-58704170D01*
X73134260Y-58498806D01*
X73135899Y-58425849D01*
X72996695Y-58425849D01*
X72967877Y-58624050D01*
X72897727Y-58799124D01*
X72851722Y-58874104D01*
X72815182Y-58916414D01*
X72793011Y-58922763D01*
X72790113Y-58889862D01*
X72794598Y-58868310D01*
X72809520Y-58811926D01*
X72832366Y-58729053D01*
X72848359Y-58672274D01*
X72879417Y-58507236D01*
X72883163Y-58396320D01*
X72743625Y-58396320D01*
X72735002Y-58519853D01*
X72733027Y-58531229D01*
X72706710Y-58635452D01*
X72670217Y-58733413D01*
X72629267Y-58813359D01*
X72589577Y-58863537D01*
X72565958Y-58874660D01*
X72539732Y-58858623D01*
X72541308Y-58842910D01*
X72612062Y-58618949D01*
X72627122Y-58467035D01*
X72491478Y-58467035D01*
X72481480Y-58531583D01*
X72446603Y-58662220D01*
X72409917Y-58754347D01*
X72373532Y-58803632D01*
X72346106Y-58809320D01*
X72325801Y-58794118D01*
X72323383Y-58761847D01*
X72338704Y-58698780D01*
X72344702Y-58678542D01*
X72374977Y-58510345D01*
X72374870Y-58324067D01*
X72345016Y-58141861D01*
X72327669Y-58083188D01*
X72301232Y-57990721D01*
X72285600Y-57908004D01*
X72283739Y-57861739D01*
X72290541Y-57831742D01*
X72303617Y-57832003D01*
X72328096Y-57867607D01*
X72369107Y-57943643D01*
X72372061Y-57949324D01*
X72446183Y-58126740D01*
X72486796Y-58303609D01*
X72491478Y-58467035D01*
X72627122Y-58467035D01*
X72633820Y-58399483D01*
X72606232Y-58181852D01*
X72528947Y-57963395D01*
X72401616Y-57741453D01*
X72394938Y-57731683D01*
X72343284Y-57649863D01*
X72323818Y-57599854D01*
X72332552Y-57577089D01*
X72368762Y-57582177D01*
X72418439Y-57626353D01*
X72476772Y-57701306D01*
X72538948Y-57798727D01*
X72600156Y-57910307D01*
X72655582Y-58027735D01*
X72700414Y-58142703D01*
X72729840Y-58246901D01*
X72734308Y-58270803D01*
X72743625Y-58396320D01*
X72883163Y-58396320D01*
X72885285Y-58333497D01*
X72865984Y-58172366D01*
X72847779Y-58105734D01*
X72824193Y-58015495D01*
X72827409Y-57956104D01*
X72833505Y-57942460D01*
X72851117Y-57921851D01*
X72869888Y-57932790D01*
X72896644Y-57981785D01*
X72913387Y-58018613D01*
X72978580Y-58221621D01*
X72996695Y-58425849D01*
X73135899Y-58425849D01*
X73138544Y-58308156D01*
X73102453Y-58124656D01*
X73035295Y-57958644D01*
X72984205Y-57846599D01*
X72962412Y-57774860D01*
X72967155Y-57744360D01*
X72994891Y-57738135D01*
X73030953Y-57769915D01*
X73077887Y-57842986D01*
X73138239Y-57960637D01*
X73144198Y-57973070D01*
X73224055Y-58184258D01*
X73255398Y-58381971D01*
X73382717Y-58381971D01*
X73376851Y-58242125D01*
X73354579Y-58113663D01*
X73311215Y-57991796D01*
X73241652Y-57861644D01*
X73155945Y-57730239D01*
X73109160Y-57652656D01*
X73090148Y-57599953D01*
X73098746Y-57577357D01*
X73134790Y-57590094D01*
X73159752Y-57608608D01*
X73206928Y-57660502D01*
X73266934Y-57744629D01*
X73331318Y-57847095D01*
X73391629Y-57954006D01*
X73439414Y-58051470D01*
X73458668Y-58099960D01*
X73488989Y-58234239D01*
X73500380Y-58390323D01*
X73624440Y-58390323D01*
X73624440Y-57900448D01*
X73573640Y-57900448D01*
X73572177Y-57939285D01*
X73564278Y-57951911D01*
X73544682Y-57933910D01*
X73508128Y-57880866D01*
X73459733Y-57804833D01*
X73408061Y-57714789D01*
X73389134Y-57658818D01*
X73402036Y-57632950D01*
X73419364Y-57630060D01*
X73449948Y-57651210D01*
X73489585Y-57704239D01*
X73529354Y-57773511D01*
X73560333Y-57843388D01*
X73573602Y-57898237D01*
X73573640Y-57900448D01*
X73624440Y-57900448D01*
X73624440Y-57582140D01*
X73567989Y-57542600D01*
X73510938Y-57521741D01*
X73420444Y-57508147D01*
X73313421Y-57502394D01*
X73206783Y-57505058D01*
G37*
X73206783Y-57505058D02*
X73117445Y-57516717D01*
X73084504Y-57526116D01*
X73042326Y-57557758D01*
X72985248Y-57620805D01*
X72924179Y-57702907D01*
X72911401Y-57722132D01*
X72798940Y-57895091D01*
X72786142Y-57735056D01*
X72782177Y-57704606D01*
X72653013Y-57704606D01*
X72649539Y-57706260D01*
X72626359Y-57688378D01*
X72621140Y-57680860D01*
X72614668Y-57657113D01*
X72618142Y-57655460D01*
X72641322Y-57673341D01*
X72646540Y-57680860D01*
X72653013Y-57704606D01*
X72782177Y-57704606D01*
X72772757Y-57632272D01*
X72746102Y-57564945D01*
X72696941Y-57525810D01*
X72616034Y-57507603D01*
X72494144Y-57503061D01*
X72491100Y-57503060D01*
X72378554Y-57507115D01*
X72306608Y-57520434D01*
X72267048Y-57543281D01*
X72256570Y-57558498D01*
X72248158Y-57584282D01*
X72241646Y-57625536D01*
X72236867Y-57687160D01*
X72233652Y-57774056D01*
X72231836Y-57891127D01*
X72231250Y-58043272D01*
X72231728Y-58235395D01*
X72233102Y-58472397D01*
X72233483Y-58527531D01*
X72240140Y-59471560D01*
X72533917Y-59478675D01*
X72827694Y-59485791D01*
X73078340Y-59121645D01*
X73086121Y-59270324D01*
X73094764Y-59356646D01*
X73108960Y-59424347D01*
X73120981Y-59451631D01*
X73160122Y-59468540D01*
X73234419Y-59479557D01*
X73328565Y-59484611D01*
X73427252Y-59483634D01*
X73515170Y-59476556D01*
X73577012Y-59463307D01*
X73593960Y-59453780D01*
X73602566Y-59430724D01*
X73609570Y-59378146D01*
X73615082Y-59292602D01*
X73619214Y-59170647D01*
X73622075Y-59008837D01*
X73622610Y-58944229D01*
X73517296Y-58944229D01*
X73511803Y-58991379D01*
X73483840Y-59068117D01*
X73449818Y-59111545D01*
X73418456Y-59114238D01*
X73413392Y-59084956D01*
X73431268Y-59032366D01*
X73433853Y-59027229D01*
X73472950Y-58963176D01*
X73502695Y-58934622D01*
X73517296Y-58944229D01*
X73622610Y-58944229D01*
X73623285Y-58862729D01*
X73567071Y-58862729D01*
X73561985Y-58872970D01*
X73537765Y-58899230D01*
X73533310Y-58880711D01*
X73539476Y-58860864D01*
X73558176Y-58833202D01*
X73566622Y-58833774D01*
X73567071Y-58862729D01*
X73623285Y-58862729D01*
X73623775Y-58803728D01*
X73624426Y-58551874D01*
X73624440Y-58502720D01*
X73624440Y-58390323D01*
X73500380Y-58390323D01*
X73492771Y-58546327D01*
X73466091Y-58680369D01*
X73460573Y-58696860D01*
X73423434Y-58782579D01*
X73374249Y-58872534D01*
X73320810Y-58954995D01*
X73270909Y-59018231D01*
X73232337Y-59050513D01*
X73224390Y-59052410D01*
X73194794Y-59046027D01*
X73192640Y-59042396D01*
X73202846Y-59016503D01*
X73230107Y-58955942D01*
X73269387Y-58871791D01*
X73287890Y-58832846D01*
X73333189Y-58734361D01*
X73361284Y-58657789D01*
X73376254Y-58584262D01*
X73382176Y-58494912D01*
X73383140Y-58392060D01*
X73382717Y-58381971D01*
X73255398Y-58381971D01*
X73244297Y-58538754D01*
X73220187Y-58630067D01*
X73182634Y-58729568D01*
X73137599Y-58825566D01*
X73091039Y-58906372D01*
X73048914Y-58960293D01*
X73021284Y-58976260D01*
X72996615Y-58962331D01*
X73003585Y-58931810D01*
X73089356Y-58704170D01*
X73134260Y-58498806D01*
X73135899Y-58425849D01*
X72996695Y-58425849D01*
X72967877Y-58624050D01*
X72897727Y-58799124D01*
X72851722Y-58874104D01*
X72815182Y-58916414D01*
X72793011Y-58922763D01*
X72790113Y-58889862D01*
X72794598Y-58868310D01*
X72809520Y-58811926D01*
X72832366Y-58729053D01*
X72848359Y-58672274D01*
X72879417Y-58507236D01*
X72883163Y-58396320D01*
X72743625Y-58396320D01*
X72735002Y-58519853D01*
X72733027Y-58531229D01*
X72706710Y-58635452D01*
X72670217Y-58733413D01*
X72629267Y-58813359D01*
X72589577Y-58863537D01*
X72565958Y-58874660D01*
X72539732Y-58858623D01*
X72541308Y-58842910D01*
X72612062Y-58618949D01*
X72627122Y-58467035D01*
X72491478Y-58467035D01*
X72481480Y-58531583D01*
X72446603Y-58662220D01*
X72409917Y-58754347D01*
X72373532Y-58803632D01*
X72346106Y-58809320D01*
X72325801Y-58794118D01*
X72323383Y-58761847D01*
X72338704Y-58698780D01*
X72344702Y-58678542D01*
X72374977Y-58510345D01*
X72374870Y-58324067D01*
X72345016Y-58141861D01*
X72327669Y-58083188D01*
X72301232Y-57990721D01*
X72285600Y-57908004D01*
X72283739Y-57861739D01*
X72290541Y-57831742D01*
X72303617Y-57832003D01*
X72328096Y-57867607D01*
X72369107Y-57943643D01*
X72372061Y-57949324D01*
X72446183Y-58126740D01*
X72486796Y-58303609D01*
X72491478Y-58467035D01*
X72627122Y-58467035D01*
X72633820Y-58399483D01*
X72606232Y-58181852D01*
X72528947Y-57963395D01*
X72401616Y-57741453D01*
X72394938Y-57731683D01*
X72343284Y-57649863D01*
X72323818Y-57599854D01*
X72332552Y-57577089D01*
X72368762Y-57582177D01*
X72418439Y-57626353D01*
X72476772Y-57701306D01*
X72538948Y-57798727D01*
X72600156Y-57910307D01*
X72655582Y-58027735D01*
X72700414Y-58142703D01*
X72729840Y-58246901D01*
X72734308Y-58270803D01*
X72743625Y-58396320D01*
X72883163Y-58396320D01*
X72885285Y-58333497D01*
X72865984Y-58172366D01*
X72847779Y-58105734D01*
X72824193Y-58015495D01*
X72827409Y-57956104D01*
X72833505Y-57942460D01*
X72851117Y-57921851D01*
X72869888Y-57932790D01*
X72896644Y-57981785D01*
X72913387Y-58018613D01*
X72978580Y-58221621D01*
X72996695Y-58425849D01*
X73135899Y-58425849D01*
X73138544Y-58308156D01*
X73102453Y-58124656D01*
X73035295Y-57958644D01*
X72984205Y-57846599D01*
X72962412Y-57774860D01*
X72967155Y-57744360D01*
X72994891Y-57738135D01*
X73030953Y-57769915D01*
X73077887Y-57842986D01*
X73138239Y-57960637D01*
X73144198Y-57973070D01*
X73224055Y-58184258D01*
X73255398Y-58381971D01*
X73382717Y-58381971D01*
X73376851Y-58242125D01*
X73354579Y-58113663D01*
X73311215Y-57991796D01*
X73241652Y-57861644D01*
X73155945Y-57730239D01*
X73109160Y-57652656D01*
X73090148Y-57599953D01*
X73098746Y-57577357D01*
X73134790Y-57590094D01*
X73159752Y-57608608D01*
X73206928Y-57660502D01*
X73266934Y-57744629D01*
X73331318Y-57847095D01*
X73391629Y-57954006D01*
X73439414Y-58051470D01*
X73458668Y-58099960D01*
X73488989Y-58234239D01*
X73500380Y-58390323D01*
X73624440Y-58390323D01*
X73624440Y-57900448D01*
X73573640Y-57900448D01*
X73572177Y-57939285D01*
X73564278Y-57951911D01*
X73544682Y-57933910D01*
X73508128Y-57880866D01*
X73459733Y-57804833D01*
X73408061Y-57714789D01*
X73389134Y-57658818D01*
X73402036Y-57632950D01*
X73419364Y-57630060D01*
X73449948Y-57651210D01*
X73489585Y-57704239D01*
X73529354Y-57773511D01*
X73560333Y-57843388D01*
X73573602Y-57898237D01*
X73573640Y-57900448D01*
X73624440Y-57900448D01*
X73624440Y-57582140D01*
X73567989Y-57542600D01*
X73510938Y-57521741D01*
X73420444Y-57508147D01*
X73313421Y-57502394D01*
X73206783Y-57505058D01*
G36*
X75982996Y-57435000D02*
G01*
X75949748Y-57436651D01*
X75830008Y-57444342D01*
X75729057Y-57453619D01*
X75657593Y-57463306D01*
X75626397Y-57472143D01*
X75613123Y-57508263D01*
X75599271Y-57583798D01*
X75585918Y-57687388D01*
X75574140Y-57807675D01*
X75565011Y-57933300D01*
X75559609Y-58052904D01*
X75559009Y-58155129D01*
X75559714Y-58176160D01*
X75567540Y-58353960D01*
X75776742Y-58355224D01*
X75882045Y-58357152D01*
X75951109Y-58363954D01*
X75998484Y-58379477D01*
X76038721Y-58407571D01*
X76064818Y-58431424D01*
X76144275Y-58523151D01*
X76200769Y-58620714D01*
X76227668Y-58710569D01*
X76225750Y-58760043D01*
X76197033Y-58815832D01*
X76144181Y-58879537D01*
X76122772Y-58899786D01*
X76072242Y-58940090D01*
X76024495Y-58963081D01*
X75962565Y-58973536D01*
X75869486Y-58976229D01*
X75851137Y-58976260D01*
X75746402Y-58980506D01*
X75670037Y-58992114D01*
X75636121Y-59006739D01*
X75617992Y-59050925D01*
X75608185Y-59126677D01*
X75606944Y-59215407D01*
X75614516Y-59298527D01*
X75631145Y-59357448D01*
X75631477Y-59358075D01*
X75681608Y-59403902D01*
X75770942Y-59440141D01*
X75888605Y-59465738D01*
X76023724Y-59479640D01*
X76165423Y-59480794D01*
X76302828Y-59468146D01*
X76425066Y-59440643D01*
X76438401Y-59436225D01*
X76639544Y-59341085D01*
X76824115Y-59203611D01*
X76983689Y-59031612D01*
X77109836Y-58832897D01*
X77126676Y-58798460D01*
X77159154Y-58721479D01*
X77178988Y-58648745D01*
X77189132Y-58563175D01*
X77192542Y-58447689D01*
X77192682Y-58417014D01*
X77192381Y-58389192D01*
X77060683Y-58389192D01*
X77047293Y-58590166D01*
X76987106Y-58778032D01*
X76974928Y-58802992D01*
X76944225Y-58872072D01*
X76927482Y-58927052D01*
X76926440Y-58937148D01*
X76915347Y-58971626D01*
X76905482Y-58976260D01*
X76881044Y-58995344D01*
X76837302Y-59045326D01*
X76784832Y-59113895D01*
X76705503Y-59211395D01*
X76628569Y-59284575D01*
X76563124Y-59325415D01*
X76538310Y-59331184D01*
X76540941Y-59312275D01*
X76566565Y-59261907D01*
X76609732Y-59190708D01*
X76612888Y-59185810D01*
X76724791Y-59009739D01*
X76810105Y-58866703D01*
X76871979Y-58748550D01*
X76913564Y-58647130D01*
X76938009Y-58554291D01*
X76948463Y-58461883D01*
X76948270Y-58411934D01*
X76808704Y-58411934D01*
X76798226Y-58550864D01*
X76745327Y-58727723D01*
X76651526Y-58923763D01*
X76520113Y-59133110D01*
X76354376Y-59349892D01*
X76342946Y-59363563D01*
X76295349Y-59406097D01*
X76268633Y-59404482D01*
X76270003Y-59363496D01*
X76285533Y-59325510D01*
X76317217Y-59268557D01*
X76368708Y-59183264D01*
X76431527Y-59083486D01*
X76469091Y-59025538D01*
X76574298Y-58850597D01*
X76644407Y-58696103D01*
X76683314Y-58549941D01*
X76693851Y-58413703D01*
X76552843Y-58413703D01*
X76524861Y-58623177D01*
X76448349Y-58834894D01*
X76397545Y-58932096D01*
X76340639Y-59024244D01*
X76299914Y-59079063D01*
X76237364Y-59155791D01*
X76177920Y-59234488D01*
X76167442Y-59249310D01*
X76121589Y-59302291D01*
X76079466Y-59330461D01*
X76071386Y-59331860D01*
X76054949Y-59322033D01*
X76062306Y-59287477D01*
X76095576Y-59220578D01*
X76109087Y-59196317D01*
X76149432Y-59116072D01*
X76175479Y-59047231D01*
X76180218Y-59019198D01*
X76077319Y-59019198D01*
X76072056Y-59040657D01*
X76042905Y-59086357D01*
X75987249Y-59163427D01*
X75961240Y-59198839D01*
X75900350Y-59274218D01*
X75844931Y-59329847D01*
X75805607Y-59355264D01*
X75801838Y-59355822D01*
X75773990Y-59353217D01*
X75771426Y-59334115D01*
X75793731Y-59285471D01*
X75799253Y-59274710D01*
X75870909Y-59155500D01*
X75944082Y-59069697D01*
X75972172Y-59051077D01*
X75791962Y-59051077D01*
X75788356Y-59078351D01*
X75756686Y-59129713D01*
X75740731Y-59152318D01*
X75669140Y-59252434D01*
X75660915Y-59174279D01*
X75667309Y-59101757D01*
X75690696Y-59058119D01*
X75739388Y-59033909D01*
X75770511Y-59036157D01*
X75791962Y-59051077D01*
X75972172Y-59051077D01*
X76012425Y-59024395D01*
X76026632Y-59020481D01*
X76061306Y-59014849D01*
X76077319Y-59019198D01*
X76180218Y-59019198D01*
X76181361Y-59012439D01*
X76199558Y-58963870D01*
X76233341Y-58939167D01*
X76288419Y-58891442D01*
X76341060Y-58804659D01*
X76386658Y-58690512D01*
X76420607Y-58560696D01*
X76427201Y-58510832D01*
X76302429Y-58510832D01*
X76299345Y-58538012D01*
X76283595Y-58652924D01*
X76237782Y-58566942D01*
X76207231Y-58479611D01*
X76191675Y-58372514D01*
X76190905Y-58348562D01*
X76179572Y-58267823D01*
X76035051Y-58267823D01*
X76021027Y-58306639D01*
X75994485Y-58311312D01*
X75959041Y-58280100D01*
X75958339Y-58278591D01*
X75781058Y-58278591D01*
X75772712Y-58308392D01*
X75744045Y-58315825D01*
X75740166Y-58315860D01*
X75704953Y-58302799D01*
X75677808Y-58256837D01*
X75658760Y-58195210D01*
X75626447Y-58060193D01*
X75612056Y-57968303D01*
X75615117Y-57915314D01*
X75625898Y-57899938D01*
X75650486Y-57910808D01*
X75683056Y-57958330D01*
X75717834Y-58030257D01*
X75749043Y-58114340D01*
X75770907Y-58198330D01*
X75773465Y-58212872D01*
X75781058Y-58278591D01*
X75958339Y-58278591D01*
X75923011Y-58202671D01*
X75908387Y-58157713D01*
X75864068Y-58036373D01*
X75804167Y-57909029D01*
X75738736Y-57795398D01*
X75689111Y-57727556D01*
X75664639Y-57671716D01*
X75660887Y-57613256D01*
X75666702Y-57582603D01*
X75678478Y-57575399D01*
X75701710Y-57596511D01*
X75741892Y-57650808D01*
X75800156Y-57736646D01*
X75880308Y-57865665D01*
X75946122Y-57989941D01*
X75995349Y-58102825D01*
X76025742Y-58197669D01*
X76035051Y-58267823D01*
X76179572Y-58267823D01*
X76166581Y-58175287D01*
X76097349Y-57986098D01*
X75984869Y-57785386D01*
X75969226Y-57761750D01*
X75897193Y-57653702D01*
X75850769Y-57580686D01*
X75826717Y-57535919D01*
X75821800Y-57512619D01*
X75832779Y-57504003D01*
X75845756Y-57503060D01*
X75881813Y-57523737D01*
X75935505Y-57579514D01*
X75999934Y-57661008D01*
X76068200Y-57758836D01*
X76133402Y-57863616D01*
X76188642Y-57965965D01*
X76193411Y-57975828D01*
X76261354Y-58155723D01*
X76298801Y-58339935D01*
X76302429Y-58510832D01*
X76427201Y-58510832D01*
X76438301Y-58426907D01*
X76438823Y-58417460D01*
X76436758Y-58275825D01*
X76412945Y-58143239D01*
X76363336Y-58007666D01*
X76283884Y-57857071D01*
X76211156Y-57740577D01*
X76140172Y-57630465D01*
X76094948Y-57555755D01*
X76072520Y-57509948D01*
X76069925Y-57486546D01*
X76084201Y-57479050D01*
X76091873Y-57478950D01*
X76123553Y-57500090D01*
X76173845Y-57555601D01*
X76235936Y-57635874D01*
X76303011Y-57731302D01*
X76368257Y-57832275D01*
X76424859Y-57929186D01*
X76459034Y-57996670D01*
X76530886Y-58206043D01*
X76552843Y-58413703D01*
X76693851Y-58413703D01*
X76694912Y-58399998D01*
X76692448Y-58330942D01*
X76658561Y-58130535D01*
X76581120Y-57931803D01*
X76469793Y-57745163D01*
X76427482Y-57673004D01*
X76419552Y-57634729D01*
X76441455Y-57631587D01*
X76488644Y-57664825D01*
X76546552Y-57724106D01*
X76651859Y-57873095D01*
X76733587Y-58047034D01*
X76787336Y-58231466D01*
X76808704Y-58411934D01*
X76948270Y-58411934D01*
X76948076Y-58361754D01*
X76945989Y-58323781D01*
X76936282Y-58223965D01*
X76918032Y-58137737D01*
X76885895Y-58047492D01*
X76834524Y-57935629D01*
X76817821Y-57901763D01*
X76770767Y-57803585D01*
X76735573Y-57723143D01*
X76716459Y-57670540D01*
X76714980Y-57655614D01*
X76739487Y-57663172D01*
X76781153Y-57706087D01*
X76833038Y-57774997D01*
X76888198Y-57860542D01*
X76939694Y-57953360D01*
X76947770Y-57969568D01*
X77027449Y-58180522D01*
X77060683Y-58389192D01*
X77192381Y-58389192D01*
X77191397Y-58298365D01*
X77184644Y-58212822D01*
X77168878Y-58142728D01*
X77140552Y-58070427D01*
X77110353Y-58007014D01*
X76994892Y-57819920D01*
X76849669Y-57670780D01*
X76670695Y-57556466D01*
X76453982Y-57473848D01*
X76418440Y-57464118D01*
X76328073Y-57444246D01*
X76235412Y-57433357D01*
X76125404Y-57430569D01*
X75982996Y-57435000D01*
G37*
X75982996Y-57435000D02*
X75949748Y-57436651D01*
X75830008Y-57444342D01*
X75729057Y-57453619D01*
X75657593Y-57463306D01*
X75626397Y-57472143D01*
X75613123Y-57508263D01*
X75599271Y-57583798D01*
X75585918Y-57687388D01*
X75574140Y-57807675D01*
X75565011Y-57933300D01*
X75559609Y-58052904D01*
X75559009Y-58155129D01*
X75559714Y-58176160D01*
X75567540Y-58353960D01*
X75776742Y-58355224D01*
X75882045Y-58357152D01*
X75951109Y-58363954D01*
X75998484Y-58379477D01*
X76038721Y-58407571D01*
X76064818Y-58431424D01*
X76144275Y-58523151D01*
X76200769Y-58620714D01*
X76227668Y-58710569D01*
X76225750Y-58760043D01*
X76197033Y-58815832D01*
X76144181Y-58879537D01*
X76122772Y-58899786D01*
X76072242Y-58940090D01*
X76024495Y-58963081D01*
X75962565Y-58973536D01*
X75869486Y-58976229D01*
X75851137Y-58976260D01*
X75746402Y-58980506D01*
X75670037Y-58992114D01*
X75636121Y-59006739D01*
X75617992Y-59050925D01*
X75608185Y-59126677D01*
X75606944Y-59215407D01*
X75614516Y-59298527D01*
X75631145Y-59357448D01*
X75631477Y-59358075D01*
X75681608Y-59403902D01*
X75770942Y-59440141D01*
X75888605Y-59465738D01*
X76023724Y-59479640D01*
X76165423Y-59480794D01*
X76302828Y-59468146D01*
X76425066Y-59440643D01*
X76438401Y-59436225D01*
X76639544Y-59341085D01*
X76824115Y-59203611D01*
X76983689Y-59031612D01*
X77109836Y-58832897D01*
X77126676Y-58798460D01*
X77159154Y-58721479D01*
X77178988Y-58648745D01*
X77189132Y-58563175D01*
X77192542Y-58447689D01*
X77192682Y-58417014D01*
X77192381Y-58389192D01*
X77060683Y-58389192D01*
X77047293Y-58590166D01*
X76987106Y-58778032D01*
X76974928Y-58802992D01*
X76944225Y-58872072D01*
X76927482Y-58927052D01*
X76926440Y-58937148D01*
X76915347Y-58971626D01*
X76905482Y-58976260D01*
X76881044Y-58995344D01*
X76837302Y-59045326D01*
X76784832Y-59113895D01*
X76705503Y-59211395D01*
X76628569Y-59284575D01*
X76563124Y-59325415D01*
X76538310Y-59331184D01*
X76540941Y-59312275D01*
X76566565Y-59261907D01*
X76609732Y-59190708D01*
X76612888Y-59185810D01*
X76724791Y-59009739D01*
X76810105Y-58866703D01*
X76871979Y-58748550D01*
X76913564Y-58647130D01*
X76938009Y-58554291D01*
X76948463Y-58461883D01*
X76948270Y-58411934D01*
X76808704Y-58411934D01*
X76798226Y-58550864D01*
X76745327Y-58727723D01*
X76651526Y-58923763D01*
X76520113Y-59133110D01*
X76354376Y-59349892D01*
X76342946Y-59363563D01*
X76295349Y-59406097D01*
X76268633Y-59404482D01*
X76270003Y-59363496D01*
X76285533Y-59325510D01*
X76317217Y-59268557D01*
X76368708Y-59183264D01*
X76431527Y-59083486D01*
X76469091Y-59025538D01*
X76574298Y-58850597D01*
X76644407Y-58696103D01*
X76683314Y-58549941D01*
X76693851Y-58413703D01*
X76552843Y-58413703D01*
X76524861Y-58623177D01*
X76448349Y-58834894D01*
X76397545Y-58932096D01*
X76340639Y-59024244D01*
X76299914Y-59079063D01*
X76237364Y-59155791D01*
X76177920Y-59234488D01*
X76167442Y-59249310D01*
X76121589Y-59302291D01*
X76079466Y-59330461D01*
X76071386Y-59331860D01*
X76054949Y-59322033D01*
X76062306Y-59287477D01*
X76095576Y-59220578D01*
X76109087Y-59196317D01*
X76149432Y-59116072D01*
X76175479Y-59047231D01*
X76180218Y-59019198D01*
X76077319Y-59019198D01*
X76072056Y-59040657D01*
X76042905Y-59086357D01*
X75987249Y-59163427D01*
X75961240Y-59198839D01*
X75900350Y-59274218D01*
X75844931Y-59329847D01*
X75805607Y-59355264D01*
X75801838Y-59355822D01*
X75773990Y-59353217D01*
X75771426Y-59334115D01*
X75793731Y-59285471D01*
X75799253Y-59274710D01*
X75870909Y-59155500D01*
X75944082Y-59069697D01*
X75972172Y-59051077D01*
X75791962Y-59051077D01*
X75788356Y-59078351D01*
X75756686Y-59129713D01*
X75740731Y-59152318D01*
X75669140Y-59252434D01*
X75660915Y-59174279D01*
X75667309Y-59101757D01*
X75690696Y-59058119D01*
X75739388Y-59033909D01*
X75770511Y-59036157D01*
X75791962Y-59051077D01*
X75972172Y-59051077D01*
X76012425Y-59024395D01*
X76026632Y-59020481D01*
X76061306Y-59014849D01*
X76077319Y-59019198D01*
X76180218Y-59019198D01*
X76181361Y-59012439D01*
X76199558Y-58963870D01*
X76233341Y-58939167D01*
X76288419Y-58891442D01*
X76341060Y-58804659D01*
X76386658Y-58690512D01*
X76420607Y-58560696D01*
X76427201Y-58510832D01*
X76302429Y-58510832D01*
X76299345Y-58538012D01*
X76283595Y-58652924D01*
X76237782Y-58566942D01*
X76207231Y-58479611D01*
X76191675Y-58372514D01*
X76190905Y-58348562D01*
X76179572Y-58267823D01*
X76035051Y-58267823D01*
X76021027Y-58306639D01*
X75994485Y-58311312D01*
X75959041Y-58280100D01*
X75958339Y-58278591D01*
X75781058Y-58278591D01*
X75772712Y-58308392D01*
X75744045Y-58315825D01*
X75740166Y-58315860D01*
X75704953Y-58302799D01*
X75677808Y-58256837D01*
X75658760Y-58195210D01*
X75626447Y-58060193D01*
X75612056Y-57968303D01*
X75615117Y-57915314D01*
X75625898Y-57899938D01*
X75650486Y-57910808D01*
X75683056Y-57958330D01*
X75717834Y-58030257D01*
X75749043Y-58114340D01*
X75770907Y-58198330D01*
X75773465Y-58212872D01*
X75781058Y-58278591D01*
X75958339Y-58278591D01*
X75923011Y-58202671D01*
X75908387Y-58157713D01*
X75864068Y-58036373D01*
X75804167Y-57909029D01*
X75738736Y-57795398D01*
X75689111Y-57727556D01*
X75664639Y-57671716D01*
X75660887Y-57613256D01*
X75666702Y-57582603D01*
X75678478Y-57575399D01*
X75701710Y-57596511D01*
X75741892Y-57650808D01*
X75800156Y-57736646D01*
X75880308Y-57865665D01*
X75946122Y-57989941D01*
X75995349Y-58102825D01*
X76025742Y-58197669D01*
X76035051Y-58267823D01*
X76179572Y-58267823D01*
X76166581Y-58175287D01*
X76097349Y-57986098D01*
X75984869Y-57785386D01*
X75969226Y-57761750D01*
X75897193Y-57653702D01*
X75850769Y-57580686D01*
X75826717Y-57535919D01*
X75821800Y-57512619D01*
X75832779Y-57504003D01*
X75845756Y-57503060D01*
X75881813Y-57523737D01*
X75935505Y-57579514D01*
X75999934Y-57661008D01*
X76068200Y-57758836D01*
X76133402Y-57863616D01*
X76188642Y-57965965D01*
X76193411Y-57975828D01*
X76261354Y-58155723D01*
X76298801Y-58339935D01*
X76302429Y-58510832D01*
X76427201Y-58510832D01*
X76438301Y-58426907D01*
X76438823Y-58417460D01*
X76436758Y-58275825D01*
X76412945Y-58143239D01*
X76363336Y-58007666D01*
X76283884Y-57857071D01*
X76211156Y-57740577D01*
X76140172Y-57630465D01*
X76094948Y-57555755D01*
X76072520Y-57509948D01*
X76069925Y-57486546D01*
X76084201Y-57479050D01*
X76091873Y-57478950D01*
X76123553Y-57500090D01*
X76173845Y-57555601D01*
X76235936Y-57635874D01*
X76303011Y-57731302D01*
X76368257Y-57832275D01*
X76424859Y-57929186D01*
X76459034Y-57996670D01*
X76530886Y-58206043D01*
X76552843Y-58413703D01*
X76693851Y-58413703D01*
X76694912Y-58399998D01*
X76692448Y-58330942D01*
X76658561Y-58130535D01*
X76581120Y-57931803D01*
X76469793Y-57745163D01*
X76427482Y-57673004D01*
X76419552Y-57634729D01*
X76441455Y-57631587D01*
X76488644Y-57664825D01*
X76546552Y-57724106D01*
X76651859Y-57873095D01*
X76733587Y-58047034D01*
X76787336Y-58231466D01*
X76808704Y-58411934D01*
X76948270Y-58411934D01*
X76948076Y-58361754D01*
X76945989Y-58323781D01*
X76936282Y-58223965D01*
X76918032Y-58137737D01*
X76885895Y-58047492D01*
X76834524Y-57935629D01*
X76817821Y-57901763D01*
X76770767Y-57803585D01*
X76735573Y-57723143D01*
X76716459Y-57670540D01*
X76714980Y-57655614D01*
X76739487Y-57663172D01*
X76781153Y-57706087D01*
X76833038Y-57774997D01*
X76888198Y-57860542D01*
X76939694Y-57953360D01*
X76947770Y-57969568D01*
X77027449Y-58180522D01*
X77060683Y-58389192D01*
X77192381Y-58389192D01*
X77191397Y-58298365D01*
X77184644Y-58212822D01*
X77168878Y-58142728D01*
X77140552Y-58070427D01*
X77110353Y-58007014D01*
X76994892Y-57819920D01*
X76849669Y-57670780D01*
X76670695Y-57556466D01*
X76453982Y-57473848D01*
X76418440Y-57464118D01*
X76328073Y-57444246D01*
X76235412Y-57433357D01*
X76125404Y-57430569D01*
X75982996Y-57435000D01*
G36*
X78286783Y-57505058D02*
G01*
X78197445Y-57516717D01*
X78164504Y-57526116D01*
X78122326Y-57557758D01*
X78065248Y-57620805D01*
X78004179Y-57702907D01*
X77991401Y-57722132D01*
X77878940Y-57895091D01*
X77866142Y-57735056D01*
X77862177Y-57704606D01*
X77733013Y-57704606D01*
X77729539Y-57706260D01*
X77706359Y-57688378D01*
X77701140Y-57680860D01*
X77694668Y-57657113D01*
X77698142Y-57655460D01*
X77721322Y-57673341D01*
X77726540Y-57680860D01*
X77733013Y-57704606D01*
X77862177Y-57704606D01*
X77852757Y-57632272D01*
X77826102Y-57564945D01*
X77776941Y-57525810D01*
X77696034Y-57507603D01*
X77574144Y-57503061D01*
X77571100Y-57503060D01*
X77458554Y-57507115D01*
X77386608Y-57520434D01*
X77347048Y-57543281D01*
X77336570Y-57558498D01*
X77328158Y-57584282D01*
X77321646Y-57625536D01*
X77316867Y-57687160D01*
X77313652Y-57774056D01*
X77311836Y-57891127D01*
X77311250Y-58043272D01*
X77311728Y-58235395D01*
X77313102Y-58472397D01*
X77313483Y-58527531D01*
X77320140Y-59471560D01*
X77613917Y-59478675D01*
X77907694Y-59485791D01*
X78158340Y-59121645D01*
X78166121Y-59270324D01*
X78174764Y-59356646D01*
X78188960Y-59424347D01*
X78200981Y-59451631D01*
X78240122Y-59468540D01*
X78314419Y-59479557D01*
X78408565Y-59484611D01*
X78507252Y-59483634D01*
X78595170Y-59476556D01*
X78657012Y-59463307D01*
X78673960Y-59453780D01*
X78682566Y-59430724D01*
X78689570Y-59378146D01*
X78695082Y-59292602D01*
X78699214Y-59170647D01*
X78702075Y-59008837D01*
X78702640Y-58940624D01*
X78595654Y-58940624D01*
X78592684Y-58975130D01*
X78576953Y-59023730D01*
X78553308Y-59070688D01*
X78531439Y-59096910D01*
X78485102Y-59126314D01*
X78470412Y-59116794D01*
X78487972Y-59069633D01*
X78504654Y-59039678D01*
X78543553Y-58979662D01*
X78575261Y-58940624D01*
X78581015Y-58935950D01*
X78595654Y-58940624D01*
X78702640Y-58940624D01*
X78703502Y-58836560D01*
X78653640Y-58836560D01*
X78640940Y-58849260D01*
X78628240Y-58836560D01*
X78640940Y-58823860D01*
X78653640Y-58836560D01*
X78703502Y-58836560D01*
X78703775Y-58803728D01*
X78704426Y-58551874D01*
X78704440Y-58502720D01*
X78704440Y-58442866D01*
X78586051Y-58442866D01*
X78553267Y-58641226D01*
X78480381Y-58833685D01*
X78371122Y-59008368D01*
X78317224Y-59071510D01*
X78267392Y-59115461D01*
X78232435Y-59128975D01*
X78221840Y-59113737D01*
X78233291Y-59085678D01*
X78263401Y-59025989D01*
X78305808Y-58947249D01*
X78308553Y-58942287D01*
X78411547Y-58717714D01*
X78465320Y-58502677D01*
X78467798Y-58389275D01*
X78334123Y-58389275D01*
X78315491Y-58588551D01*
X78251029Y-58781511D01*
X78207429Y-58864381D01*
X78149262Y-58956094D01*
X78084441Y-59046315D01*
X78020881Y-59124708D01*
X77966495Y-59180938D01*
X77929197Y-59204671D01*
X77926872Y-59204860D01*
X77902179Y-59199944D01*
X77906143Y-59176957D01*
X77932042Y-59135010D01*
X78045900Y-58953735D01*
X78127976Y-58798748D01*
X78181881Y-58659896D01*
X78211228Y-58527029D01*
X78216675Y-58438176D01*
X78076144Y-58438176D01*
X78043132Y-58646961D01*
X77973288Y-58824372D01*
X77916795Y-58925121D01*
X77852590Y-59025125D01*
X77787859Y-59114755D01*
X77729792Y-59184381D01*
X77685577Y-59224372D01*
X77670319Y-59230260D01*
X77640071Y-59222779D01*
X77637640Y-59218244D01*
X77650083Y-59192632D01*
X77683276Y-59134669D01*
X77731017Y-59055063D01*
X77751665Y-59021394D01*
X77873832Y-58789224D01*
X77946654Y-58568651D01*
X77957699Y-58470414D01*
X77820682Y-58470414D01*
X77778128Y-58677251D01*
X77687510Y-58888510D01*
X77549722Y-59101524D01*
X77523818Y-59135010D01*
X77446078Y-59226558D01*
X77392810Y-59273670D01*
X77363953Y-59276389D01*
X77358240Y-59252635D01*
X77371076Y-59220295D01*
X77405681Y-59155825D01*
X77456207Y-59069729D01*
X77496172Y-59004985D01*
X77592663Y-58840950D01*
X77657941Y-58701007D01*
X77695971Y-58572601D01*
X77710718Y-58443175D01*
X77710390Y-58426443D01*
X77574608Y-58426443D01*
X77543752Y-58617308D01*
X77466991Y-58822227D01*
X77454495Y-58848320D01*
X77412690Y-58932458D01*
X77387738Y-58975658D01*
X77374388Y-58982719D01*
X77367386Y-58958440D01*
X77364059Y-58930937D01*
X77367498Y-58861540D01*
X77385888Y-58768488D01*
X77407366Y-58695886D01*
X77451215Y-58499410D01*
X77453395Y-58295399D01*
X77413857Y-58101396D01*
X77409040Y-58087260D01*
X77382234Y-57998576D01*
X77365095Y-57917338D01*
X77358690Y-57853952D01*
X77364087Y-57818825D01*
X77381835Y-57821830D01*
X77420600Y-57878089D01*
X77465149Y-57967355D01*
X77508641Y-58073430D01*
X77544234Y-58180115D01*
X77560426Y-58244701D01*
X77574608Y-58426443D01*
X77710390Y-58426443D01*
X77708546Y-58332455D01*
X77682362Y-58158887D01*
X77623714Y-57989513D01*
X77527847Y-57812112D01*
X77474938Y-57731683D01*
X77423284Y-57649863D01*
X77403818Y-57599854D01*
X77412552Y-57577089D01*
X77448709Y-57582210D01*
X77498360Y-57626390D01*
X77556682Y-57701305D01*
X77618854Y-57798629D01*
X77680054Y-57910039D01*
X77735462Y-58027209D01*
X77780254Y-58141815D01*
X77809610Y-58245533D01*
X77814275Y-58270661D01*
X77820682Y-58470414D01*
X77957699Y-58470414D01*
X77970180Y-58359410D01*
X77944463Y-58161237D01*
X77927779Y-58105734D01*
X77904193Y-58015495D01*
X77907409Y-57956104D01*
X77913505Y-57942460D01*
X77931117Y-57921851D01*
X77949888Y-57932790D01*
X77976644Y-57981785D01*
X77993387Y-58018613D01*
X78059606Y-58226983D01*
X78076144Y-58438176D01*
X78216675Y-58438176D01*
X78219629Y-58389995D01*
X78217927Y-58331600D01*
X78207400Y-58217534D01*
X78184615Y-58120384D01*
X78142995Y-58016284D01*
X78115012Y-57958079D01*
X78064030Y-57846220D01*
X78042364Y-57774649D01*
X78047155Y-57744360D01*
X78074822Y-57738100D01*
X78110779Y-57769706D01*
X78157588Y-57842492D01*
X78217812Y-57959773D01*
X78224587Y-57973899D01*
X78303869Y-58185824D01*
X78334123Y-58389275D01*
X78467798Y-58389275D01*
X78469877Y-58294163D01*
X78425224Y-58089157D01*
X78331365Y-57884647D01*
X78310331Y-57849413D01*
X78257810Y-57764641D01*
X78207774Y-57684493D01*
X78186231Y-57650289D01*
X78155913Y-57600008D01*
X78153153Y-57580948D01*
X78177793Y-57581759D01*
X78185291Y-57583171D01*
X78241670Y-57615307D01*
X78307601Y-57685995D01*
X78377314Y-57785350D01*
X78445035Y-57903489D01*
X78504993Y-58030529D01*
X78551417Y-58156588D01*
X78575005Y-58250483D01*
X78586051Y-58442866D01*
X78704440Y-58442866D01*
X78704440Y-57900448D01*
X78653640Y-57900448D01*
X78652177Y-57939285D01*
X78644278Y-57951911D01*
X78624682Y-57933910D01*
X78588128Y-57880866D01*
X78539733Y-57804833D01*
X78488061Y-57714789D01*
X78469134Y-57658818D01*
X78482036Y-57632950D01*
X78499364Y-57630060D01*
X78529948Y-57651210D01*
X78569585Y-57704239D01*
X78609354Y-57773511D01*
X78640333Y-57843388D01*
X78653602Y-57898237D01*
X78653640Y-57900448D01*
X78704440Y-57900448D01*
X78704440Y-57582140D01*
X78647989Y-57542600D01*
X78590938Y-57521741D01*
X78500444Y-57508147D01*
X78393421Y-57502394D01*
X78286783Y-57505058D01*
G37*
X78286783Y-57505058D02*
X78197445Y-57516717D01*
X78164504Y-57526116D01*
X78122326Y-57557758D01*
X78065248Y-57620805D01*
X78004179Y-57702907D01*
X77991401Y-57722132D01*
X77878940Y-57895091D01*
X77866142Y-57735056D01*
X77862177Y-57704606D01*
X77733013Y-57704606D01*
X77729539Y-57706260D01*
X77706359Y-57688378D01*
X77701140Y-57680860D01*
X77694668Y-57657113D01*
X77698142Y-57655460D01*
X77721322Y-57673341D01*
X77726540Y-57680860D01*
X77733013Y-57704606D01*
X77862177Y-57704606D01*
X77852757Y-57632272D01*
X77826102Y-57564945D01*
X77776941Y-57525810D01*
X77696034Y-57507603D01*
X77574144Y-57503061D01*
X77571100Y-57503060D01*
X77458554Y-57507115D01*
X77386608Y-57520434D01*
X77347048Y-57543281D01*
X77336570Y-57558498D01*
X77328158Y-57584282D01*
X77321646Y-57625536D01*
X77316867Y-57687160D01*
X77313652Y-57774056D01*
X77311836Y-57891127D01*
X77311250Y-58043272D01*
X77311728Y-58235395D01*
X77313102Y-58472397D01*
X77313483Y-58527531D01*
X77320140Y-59471560D01*
X77613917Y-59478675D01*
X77907694Y-59485791D01*
X78158340Y-59121645D01*
X78166121Y-59270324D01*
X78174764Y-59356646D01*
X78188960Y-59424347D01*
X78200981Y-59451631D01*
X78240122Y-59468540D01*
X78314419Y-59479557D01*
X78408565Y-59484611D01*
X78507252Y-59483634D01*
X78595170Y-59476556D01*
X78657012Y-59463307D01*
X78673960Y-59453780D01*
X78682566Y-59430724D01*
X78689570Y-59378146D01*
X78695082Y-59292602D01*
X78699214Y-59170647D01*
X78702075Y-59008837D01*
X78702640Y-58940624D01*
X78595654Y-58940624D01*
X78592684Y-58975130D01*
X78576953Y-59023730D01*
X78553308Y-59070688D01*
X78531439Y-59096910D01*
X78485102Y-59126314D01*
X78470412Y-59116794D01*
X78487972Y-59069633D01*
X78504654Y-59039678D01*
X78543553Y-58979662D01*
X78575261Y-58940624D01*
X78581015Y-58935950D01*
X78595654Y-58940624D01*
X78702640Y-58940624D01*
X78703502Y-58836560D01*
X78653640Y-58836560D01*
X78640940Y-58849260D01*
X78628240Y-58836560D01*
X78640940Y-58823860D01*
X78653640Y-58836560D01*
X78703502Y-58836560D01*
X78703775Y-58803728D01*
X78704426Y-58551874D01*
X78704440Y-58502720D01*
X78704440Y-58442866D01*
X78586051Y-58442866D01*
X78553267Y-58641226D01*
X78480381Y-58833685D01*
X78371122Y-59008368D01*
X78317224Y-59071510D01*
X78267392Y-59115461D01*
X78232435Y-59128975D01*
X78221840Y-59113737D01*
X78233291Y-59085678D01*
X78263401Y-59025989D01*
X78305808Y-58947249D01*
X78308553Y-58942287D01*
X78411547Y-58717714D01*
X78465320Y-58502677D01*
X78467798Y-58389275D01*
X78334123Y-58389275D01*
X78315491Y-58588551D01*
X78251029Y-58781511D01*
X78207429Y-58864381D01*
X78149262Y-58956094D01*
X78084441Y-59046315D01*
X78020881Y-59124708D01*
X77966495Y-59180938D01*
X77929197Y-59204671D01*
X77926872Y-59204860D01*
X77902179Y-59199944D01*
X77906143Y-59176957D01*
X77932042Y-59135010D01*
X78045900Y-58953735D01*
X78127976Y-58798748D01*
X78181881Y-58659896D01*
X78211228Y-58527029D01*
X78216675Y-58438176D01*
X78076144Y-58438176D01*
X78043132Y-58646961D01*
X77973288Y-58824372D01*
X77916795Y-58925121D01*
X77852590Y-59025125D01*
X77787859Y-59114755D01*
X77729792Y-59184381D01*
X77685577Y-59224372D01*
X77670319Y-59230260D01*
X77640071Y-59222779D01*
X77637640Y-59218244D01*
X77650083Y-59192632D01*
X77683276Y-59134669D01*
X77731017Y-59055063D01*
X77751665Y-59021394D01*
X77873832Y-58789224D01*
X77946654Y-58568651D01*
X77957699Y-58470414D01*
X77820682Y-58470414D01*
X77778128Y-58677251D01*
X77687510Y-58888510D01*
X77549722Y-59101524D01*
X77523818Y-59135010D01*
X77446078Y-59226558D01*
X77392810Y-59273670D01*
X77363953Y-59276389D01*
X77358240Y-59252635D01*
X77371076Y-59220295D01*
X77405681Y-59155825D01*
X77456207Y-59069729D01*
X77496172Y-59004985D01*
X77592663Y-58840950D01*
X77657941Y-58701007D01*
X77695971Y-58572601D01*
X77710718Y-58443175D01*
X77710390Y-58426443D01*
X77574608Y-58426443D01*
X77543752Y-58617308D01*
X77466991Y-58822227D01*
X77454495Y-58848320D01*
X77412690Y-58932458D01*
X77387738Y-58975658D01*
X77374388Y-58982719D01*
X77367386Y-58958440D01*
X77364059Y-58930937D01*
X77367498Y-58861540D01*
X77385888Y-58768488D01*
X77407366Y-58695886D01*
X77451215Y-58499410D01*
X77453395Y-58295399D01*
X77413857Y-58101396D01*
X77409040Y-58087260D01*
X77382234Y-57998576D01*
X77365095Y-57917338D01*
X77358690Y-57853952D01*
X77364087Y-57818825D01*
X77381835Y-57821830D01*
X77420600Y-57878089D01*
X77465149Y-57967355D01*
X77508641Y-58073430D01*
X77544234Y-58180115D01*
X77560426Y-58244701D01*
X77574608Y-58426443D01*
X77710390Y-58426443D01*
X77708546Y-58332455D01*
X77682362Y-58158887D01*
X77623714Y-57989513D01*
X77527847Y-57812112D01*
X77474938Y-57731683D01*
X77423284Y-57649863D01*
X77403818Y-57599854D01*
X77412552Y-57577089D01*
X77448709Y-57582210D01*
X77498360Y-57626390D01*
X77556682Y-57701305D01*
X77618854Y-57798629D01*
X77680054Y-57910039D01*
X77735462Y-58027209D01*
X77780254Y-58141815D01*
X77809610Y-58245533D01*
X77814275Y-58270661D01*
X77820682Y-58470414D01*
X77957699Y-58470414D01*
X77970180Y-58359410D01*
X77944463Y-58161237D01*
X77927779Y-58105734D01*
X77904193Y-58015495D01*
X77907409Y-57956104D01*
X77913505Y-57942460D01*
X77931117Y-57921851D01*
X77949888Y-57932790D01*
X77976644Y-57981785D01*
X77993387Y-58018613D01*
X78059606Y-58226983D01*
X78076144Y-58438176D01*
X78216675Y-58438176D01*
X78219629Y-58389995D01*
X78217927Y-58331600D01*
X78207400Y-58217534D01*
X78184615Y-58120384D01*
X78142995Y-58016284D01*
X78115012Y-57958079D01*
X78064030Y-57846220D01*
X78042364Y-57774649D01*
X78047155Y-57744360D01*
X78074822Y-57738100D01*
X78110779Y-57769706D01*
X78157588Y-57842492D01*
X78217812Y-57959773D01*
X78224587Y-57973899D01*
X78303869Y-58185824D01*
X78334123Y-58389275D01*
X78467798Y-58389275D01*
X78469877Y-58294163D01*
X78425224Y-58089157D01*
X78331365Y-57884647D01*
X78310331Y-57849413D01*
X78257810Y-57764641D01*
X78207774Y-57684493D01*
X78186231Y-57650289D01*
X78155913Y-57600008D01*
X78153153Y-57580948D01*
X78177793Y-57581759D01*
X78185291Y-57583171D01*
X78241670Y-57615307D01*
X78307601Y-57685995D01*
X78377314Y-57785350D01*
X78445035Y-57903489D01*
X78504993Y-58030529D01*
X78551417Y-58156588D01*
X78575005Y-58250483D01*
X78586051Y-58442866D01*
X78704440Y-58442866D01*
X78704440Y-57900448D01*
X78653640Y-57900448D01*
X78652177Y-57939285D01*
X78644278Y-57951911D01*
X78624682Y-57933910D01*
X78588128Y-57880866D01*
X78539733Y-57804833D01*
X78488061Y-57714789D01*
X78469134Y-57658818D01*
X78482036Y-57632950D01*
X78499364Y-57630060D01*
X78529948Y-57651210D01*
X78569585Y-57704239D01*
X78609354Y-57773511D01*
X78640333Y-57843388D01*
X78653602Y-57898237D01*
X78653640Y-57900448D01*
X78704440Y-57900448D01*
X78704440Y-57582140D01*
X78647989Y-57542600D01*
X78590938Y-57521741D01*
X78500444Y-57508147D01*
X78393421Y-57502394D01*
X78286783Y-57505058D01*
G36*
X69468455Y-57433405D02*
G01*
X69265263Y-57472875D01*
X69088020Y-57554952D01*
X68939662Y-57676954D01*
X68823125Y-57836199D01*
X68741345Y-58030004D01*
X68718662Y-58118283D01*
X68701680Y-58257053D01*
X68700792Y-58422168D01*
X68714552Y-58593695D01*
X68741515Y-58751703D01*
X68772230Y-58856598D01*
X68830352Y-58984616D01*
X68905343Y-59114714D01*
X68988180Y-59233649D01*
X69069839Y-59328178D01*
X69126127Y-59375931D01*
X69272609Y-59446627D01*
X69445267Y-59485828D01*
X69628313Y-59490670D01*
X69707094Y-59481340D01*
X69901883Y-59425526D01*
X70068407Y-59328685D01*
X70205259Y-59192911D01*
X70311033Y-59020296D01*
X70384324Y-58812931D01*
X70412498Y-58641302D01*
X69662040Y-58641302D01*
X69653507Y-58744467D01*
X69630975Y-58826029D01*
X69599046Y-58879361D01*
X69562320Y-58897838D01*
X69525401Y-58874833D01*
X69513207Y-58855610D01*
X69498958Y-58805142D01*
X69487417Y-58722844D01*
X69480381Y-58627680D01*
X69479647Y-58538611D01*
X69480963Y-58515427D01*
X69505236Y-58470318D01*
X69557525Y-58454368D01*
X69613081Y-58469244D01*
X69642113Y-58494963D01*
X69657102Y-58541273D01*
X69661945Y-58621881D01*
X69662040Y-58641302D01*
X70412498Y-58641302D01*
X70423726Y-58572910D01*
X70430513Y-58404760D01*
X70413174Y-58200878D01*
X70170072Y-58200878D01*
X70160990Y-58209959D01*
X70135858Y-58191854D01*
X70100353Y-58148138D01*
X70059655Y-58078025D01*
X70042695Y-58042462D01*
X70000758Y-57959856D01*
X69974756Y-57915251D01*
X69800647Y-57915251D01*
X69794869Y-57929745D01*
X69766143Y-57911332D01*
X69765451Y-57910635D01*
X69037852Y-57910635D01*
X69034881Y-57931817D01*
X69017914Y-57934860D01*
X68978934Y-57915419D01*
X68942384Y-57874271D01*
X68917332Y-57817245D01*
X68931971Y-57786586D01*
X68954422Y-57782460D01*
X68978793Y-57802721D01*
X69010902Y-57852154D01*
X69014340Y-57858660D01*
X69037852Y-57910635D01*
X69765451Y-57910635D01*
X69718685Y-57863536D01*
X69663239Y-57797642D01*
X69217251Y-57797642D01*
X69216040Y-57835014D01*
X69189898Y-57837242D01*
X69144226Y-57797742D01*
X69139053Y-57791563D01*
X69099434Y-57735369D01*
X69079332Y-57691742D01*
X69078754Y-57687210D01*
X69091138Y-57657092D01*
X69123530Y-57662269D01*
X69164535Y-57698105D01*
X69188131Y-57731712D01*
X69217251Y-57797642D01*
X69663239Y-57797642D01*
X69656707Y-57789880D01*
X69626064Y-57749572D01*
X69435794Y-57749572D01*
X69434846Y-57781980D01*
X69408921Y-57778721D01*
X69364131Y-57739258D01*
X69324395Y-57689195D01*
X69287028Y-57629164D01*
X69269633Y-57585740D01*
X69270352Y-57576005D01*
X69300545Y-57563640D01*
X69343775Y-57594007D01*
X69394325Y-57662626D01*
X69405650Y-57682036D01*
X69435794Y-57749572D01*
X69626064Y-57749572D01*
X69598208Y-57712931D01*
X69524957Y-57610328D01*
X69480653Y-57541437D01*
X69462442Y-57500361D01*
X69467465Y-57481199D01*
X69484293Y-57477660D01*
X69510224Y-57497036D01*
X69555962Y-57547960D01*
X69613261Y-57619626D01*
X69673881Y-57701229D01*
X69729576Y-57781962D01*
X69772103Y-57851020D01*
X69779265Y-57864327D01*
X69800647Y-57915251D01*
X69974756Y-57915251D01*
X69942576Y-57860048D01*
X69890394Y-57779117D01*
X69835551Y-57693047D01*
X69814261Y-57644794D01*
X69826492Y-57634477D01*
X69872211Y-57662217D01*
X69913272Y-57695128D01*
X69968664Y-57758146D01*
X70030325Y-57853347D01*
X70089400Y-57964419D01*
X70137033Y-58075049D01*
X70160600Y-58150760D01*
X70170072Y-58200878D01*
X70413174Y-58200878D01*
X70410072Y-58164408D01*
X70351687Y-57953476D01*
X70325085Y-57902722D01*
X70260658Y-57902722D01*
X70253243Y-57909003D01*
X70230199Y-57889060D01*
X70189863Y-57837582D01*
X70147540Y-57775653D01*
X70102589Y-57705268D01*
X70084447Y-57672422D01*
X70091949Y-57672250D01*
X70123929Y-57699889D01*
X70130903Y-57706260D01*
X70178711Y-57757722D01*
X70221381Y-57816085D01*
X70251251Y-57868652D01*
X70260658Y-57902722D01*
X70325085Y-57902722D01*
X70257892Y-57774526D01*
X70131222Y-57630115D01*
X69974214Y-57522804D01*
X69789402Y-57455153D01*
X69579322Y-57429721D01*
X69468455Y-57433405D01*
G37*
X69468455Y-57433405D02*
X69265263Y-57472875D01*
X69088020Y-57554952D01*
X68939662Y-57676954D01*
X68823125Y-57836199D01*
X68741345Y-58030004D01*
X68718662Y-58118283D01*
X68701680Y-58257053D01*
X68700792Y-58422168D01*
X68714552Y-58593695D01*
X68741515Y-58751703D01*
X68772230Y-58856598D01*
X68830352Y-58984616D01*
X68905343Y-59114714D01*
X68988180Y-59233649D01*
X69069839Y-59328178D01*
X69126127Y-59375931D01*
X69272609Y-59446627D01*
X69445267Y-59485828D01*
X69628313Y-59490670D01*
X69707094Y-59481340D01*
X69901883Y-59425526D01*
X70068407Y-59328685D01*
X70205259Y-59192911D01*
X70311033Y-59020296D01*
X70384324Y-58812931D01*
X70412498Y-58641302D01*
X69662040Y-58641302D01*
X69653507Y-58744467D01*
X69630975Y-58826029D01*
X69599046Y-58879361D01*
X69562320Y-58897838D01*
X69525401Y-58874833D01*
X69513207Y-58855610D01*
X69498958Y-58805142D01*
X69487417Y-58722844D01*
X69480381Y-58627680D01*
X69479647Y-58538611D01*
X69480963Y-58515427D01*
X69505236Y-58470318D01*
X69557525Y-58454368D01*
X69613081Y-58469244D01*
X69642113Y-58494963D01*
X69657102Y-58541273D01*
X69661945Y-58621881D01*
X69662040Y-58641302D01*
X70412498Y-58641302D01*
X70423726Y-58572910D01*
X70430513Y-58404760D01*
X70413174Y-58200878D01*
X70170072Y-58200878D01*
X70160990Y-58209959D01*
X70135858Y-58191854D01*
X70100353Y-58148138D01*
X70059655Y-58078025D01*
X70042695Y-58042462D01*
X70000758Y-57959856D01*
X69974756Y-57915251D01*
X69800647Y-57915251D01*
X69794869Y-57929745D01*
X69766143Y-57911332D01*
X69765451Y-57910635D01*
X69037852Y-57910635D01*
X69034881Y-57931817D01*
X69017914Y-57934860D01*
X68978934Y-57915419D01*
X68942384Y-57874271D01*
X68917332Y-57817245D01*
X68931971Y-57786586D01*
X68954422Y-57782460D01*
X68978793Y-57802721D01*
X69010902Y-57852154D01*
X69014340Y-57858660D01*
X69037852Y-57910635D01*
X69765451Y-57910635D01*
X69718685Y-57863536D01*
X69663239Y-57797642D01*
X69217251Y-57797642D01*
X69216040Y-57835014D01*
X69189898Y-57837242D01*
X69144226Y-57797742D01*
X69139053Y-57791563D01*
X69099434Y-57735369D01*
X69079332Y-57691742D01*
X69078754Y-57687210D01*
X69091138Y-57657092D01*
X69123530Y-57662269D01*
X69164535Y-57698105D01*
X69188131Y-57731712D01*
X69217251Y-57797642D01*
X69663239Y-57797642D01*
X69656707Y-57789880D01*
X69626064Y-57749572D01*
X69435794Y-57749572D01*
X69434846Y-57781980D01*
X69408921Y-57778721D01*
X69364131Y-57739258D01*
X69324395Y-57689195D01*
X69287028Y-57629164D01*
X69269633Y-57585740D01*
X69270352Y-57576005D01*
X69300545Y-57563640D01*
X69343775Y-57594007D01*
X69394325Y-57662626D01*
X69405650Y-57682036D01*
X69435794Y-57749572D01*
X69626064Y-57749572D01*
X69598208Y-57712931D01*
X69524957Y-57610328D01*
X69480653Y-57541437D01*
X69462442Y-57500361D01*
X69467465Y-57481199D01*
X69484293Y-57477660D01*
X69510224Y-57497036D01*
X69555962Y-57547960D01*
X69613261Y-57619626D01*
X69673881Y-57701229D01*
X69729576Y-57781962D01*
X69772103Y-57851020D01*
X69779265Y-57864327D01*
X69800647Y-57915251D01*
X69974756Y-57915251D01*
X69942576Y-57860048D01*
X69890394Y-57779117D01*
X69835551Y-57693047D01*
X69814261Y-57644794D01*
X69826492Y-57634477D01*
X69872211Y-57662217D01*
X69913272Y-57695128D01*
X69968664Y-57758146D01*
X70030325Y-57853347D01*
X70089400Y-57964419D01*
X70137033Y-58075049D01*
X70160600Y-58150760D01*
X70170072Y-58200878D01*
X70413174Y-58200878D01*
X70410072Y-58164408D01*
X70351687Y-57953476D01*
X70325085Y-57902722D01*
X70260658Y-57902722D01*
X70253243Y-57909003D01*
X70230199Y-57889060D01*
X70189863Y-57837582D01*
X70147540Y-57775653D01*
X70102589Y-57705268D01*
X70084447Y-57672422D01*
X70091949Y-57672250D01*
X70123929Y-57699889D01*
X70130903Y-57706260D01*
X70178711Y-57757722D01*
X70221381Y-57816085D01*
X70251251Y-57868652D01*
X70260658Y-57902722D01*
X70325085Y-57902722D01*
X70257892Y-57774526D01*
X70131222Y-57630115D01*
X69974214Y-57522804D01*
X69789402Y-57455153D01*
X69579322Y-57429721D01*
X69468455Y-57433405D01*
G36*
X74318324Y-57517327D02*
G01*
X74204474Y-57522596D01*
X74115584Y-57530583D01*
X74062467Y-57541264D01*
X74053883Y-57546052D01*
X74042176Y-57576822D01*
X74022009Y-57650614D01*
X73994841Y-57760628D01*
X73962131Y-57900064D01*
X73925339Y-58062123D01*
X73885922Y-58240005D01*
X73845342Y-58426908D01*
X73805055Y-58616034D01*
X73766522Y-58800583D01*
X73731202Y-58973754D01*
X73700554Y-59128748D01*
X73676036Y-59258764D01*
X73659108Y-59357003D01*
X73651229Y-59416665D01*
X73650847Y-59424392D01*
X73666391Y-59495359D01*
X73715878Y-59528637D01*
X73772568Y-59529744D01*
X73815136Y-59526767D01*
X73895215Y-59523079D01*
X73999533Y-59519246D01*
X74068940Y-59517092D01*
X74212446Y-59511895D01*
X74313007Y-59504719D01*
X74378478Y-59493668D01*
X74416715Y-59476845D01*
X74435572Y-59452354D01*
X74441829Y-59427068D01*
X74467973Y-59382522D01*
X74516958Y-59367622D01*
X74569793Y-59383191D01*
X74603091Y-59420085D01*
X74616044Y-59439672D01*
X74637074Y-59453550D01*
X74674134Y-59462698D01*
X74735176Y-59468091D01*
X74828154Y-59470705D01*
X74961021Y-59471519D01*
X75022191Y-59471560D01*
X75415140Y-59471560D01*
X75422225Y-59408060D01*
X75275440Y-59408060D01*
X75256112Y-59432721D01*
X75250040Y-59433460D01*
X75225379Y-59414131D01*
X75224640Y-59408060D01*
X75243969Y-59383398D01*
X75250040Y-59382660D01*
X75274702Y-59401988D01*
X75275440Y-59408060D01*
X75422225Y-59408060D01*
X75417405Y-59369043D01*
X75400579Y-59288598D01*
X75397962Y-59277444D01*
X75351640Y-59277444D01*
X75330631Y-59331077D01*
X75269177Y-59355153D01*
X75268197Y-59355254D01*
X75262514Y-59338551D01*
X75274683Y-59307874D01*
X75310747Y-59256068D01*
X75338829Y-59243047D01*
X75351505Y-59271746D01*
X75351640Y-59277444D01*
X75397962Y-59277444D01*
X75373565Y-59173482D01*
X75338186Y-59030453D01*
X75330396Y-58999943D01*
X75279776Y-58999943D01*
X75276322Y-59049293D01*
X75247113Y-59120069D01*
X75201442Y-59197892D01*
X75148602Y-59268384D01*
X75097886Y-59317165D01*
X75065890Y-59330891D01*
X75028168Y-59323760D01*
X75021440Y-59315033D01*
X75034378Y-59284825D01*
X75067507Y-59226374D01*
X75112306Y-59153346D01*
X75160252Y-59079404D01*
X75202823Y-59018211D01*
X75221768Y-58993856D01*
X75252291Y-58962931D01*
X75269210Y-58973809D01*
X75279776Y-58999943D01*
X75330396Y-58999943D01*
X75296261Y-58866271D01*
X75272655Y-58775904D01*
X75189620Y-58775904D01*
X75158244Y-58876298D01*
X75091317Y-58992831D01*
X74985878Y-59131998D01*
X74983395Y-59135010D01*
X74912805Y-59213844D01*
X74857100Y-59263856D01*
X74820821Y-59283368D01*
X74808508Y-59270701D01*
X74824700Y-59224174D01*
X74846032Y-59185810D01*
X74894266Y-59107947D01*
X74940882Y-59036113D01*
X74949177Y-59023878D01*
X74982372Y-58968597D01*
X75027767Y-58884138D01*
X75076297Y-58787455D01*
X75082827Y-58773905D01*
X75170667Y-58590614D01*
X75188403Y-58685155D01*
X75189620Y-58775904D01*
X75272655Y-58775904D01*
X75249611Y-58687693D01*
X75200056Y-58501478D01*
X75191545Y-58470032D01*
X75028083Y-58470032D01*
X74992669Y-58670461D01*
X74972480Y-58729261D01*
X74934311Y-58810569D01*
X74879364Y-58906090D01*
X74814600Y-59006075D01*
X74746979Y-59100774D01*
X74683462Y-59180438D01*
X74631009Y-59235316D01*
X74596672Y-59255660D01*
X74574344Y-59240460D01*
X74579234Y-59223910D01*
X74600292Y-59188489D01*
X74640434Y-59122277D01*
X74692097Y-59037733D01*
X74708742Y-59010609D01*
X74826643Y-58787226D01*
X74896555Y-58575604D01*
X74918406Y-58370630D01*
X74914651Y-58341565D01*
X74770538Y-58341565D01*
X74762178Y-58554268D01*
X74703534Y-58762751D01*
X74691516Y-58791052D01*
X74646384Y-58878240D01*
X74586810Y-58973326D01*
X74520563Y-59066143D01*
X74455410Y-59146525D01*
X74399120Y-59204304D01*
X74359463Y-59229313D01*
X74356411Y-59229627D01*
X74342514Y-59219757D01*
X74350902Y-59185684D01*
X74383980Y-59121787D01*
X74444154Y-59022446D01*
X74447136Y-59017691D01*
X74548286Y-58842314D01*
X74615405Y-58688458D01*
X74652327Y-58543777D01*
X74657486Y-58471530D01*
X74518914Y-58471530D01*
X74477121Y-58679889D01*
X74387332Y-58886150D01*
X74262092Y-59072271D01*
X74197114Y-59145485D01*
X74150031Y-59183097D01*
X74125394Y-59185258D01*
X74127751Y-59152118D01*
X74161653Y-59083828D01*
X74170562Y-59069244D01*
X74216956Y-58989697D01*
X74271988Y-58887874D01*
X74317451Y-58798460D01*
X74356352Y-58714251D01*
X74380386Y-58643793D01*
X74393097Y-58569366D01*
X74398028Y-58473252D01*
X74398031Y-58472823D01*
X74264061Y-58472823D01*
X74226963Y-58676772D01*
X74209502Y-58727969D01*
X74168572Y-58818325D01*
X74113264Y-58916445D01*
X74050891Y-59011959D01*
X73988764Y-59094496D01*
X73934192Y-59153686D01*
X73894488Y-59179160D01*
X73891193Y-59179460D01*
X73857275Y-59173354D01*
X73853040Y-59168226D01*
X73865571Y-59142872D01*
X73898719Y-59086033D01*
X73945815Y-59009076D01*
X73955396Y-58993746D01*
X74071603Y-58774870D01*
X74138861Y-58565868D01*
X74153082Y-58412558D01*
X74014267Y-58412558D01*
X74007899Y-58523985D01*
X73994373Y-58621382D01*
X73985276Y-58658760D01*
X73961206Y-58723151D01*
X73925114Y-58801796D01*
X73883435Y-58882854D01*
X73842607Y-58954484D01*
X73809064Y-59004845D01*
X73789245Y-59022096D01*
X73788142Y-59021427D01*
X73789292Y-58993966D01*
X73800626Y-58928088D01*
X73820098Y-58834681D01*
X73837484Y-58758710D01*
X73868120Y-58622573D01*
X73898323Y-58477166D01*
X73923052Y-58347111D01*
X73929919Y-58307118D01*
X73947487Y-58209263D01*
X73961719Y-58155628D01*
X73975046Y-58139961D01*
X73989176Y-58154718D01*
X74005030Y-58211862D01*
X74013352Y-58303162D01*
X74014267Y-58412558D01*
X74153082Y-58412558D01*
X74157544Y-58364460D01*
X74128028Y-58168368D01*
X74103583Y-58092975D01*
X74071427Y-57994233D01*
X74047030Y-57896589D01*
X74038673Y-57845960D01*
X74028021Y-57744360D01*
X74103359Y-57861284D01*
X74201117Y-58055758D01*
X74255065Y-58262711D01*
X74264061Y-58472823D01*
X74398031Y-58472823D01*
X74398738Y-58392060D01*
X74392730Y-58242487D01*
X74370763Y-58114381D01*
X74327753Y-57992901D01*
X74258612Y-57863203D01*
X74171945Y-57730239D01*
X74119574Y-57646801D01*
X74101407Y-57597914D01*
X74110178Y-57582447D01*
X74152201Y-57593471D01*
X74206798Y-57643457D01*
X74268874Y-57723739D01*
X74333335Y-57825652D01*
X74395085Y-57940529D01*
X74449029Y-58059705D01*
X74490074Y-58174512D01*
X74511479Y-58265060D01*
X74518914Y-58471530D01*
X74657486Y-58471530D01*
X74662886Y-58395928D01*
X74660448Y-58330942D01*
X74635008Y-58161511D01*
X74578012Y-57994597D01*
X74484820Y-57818193D01*
X74428048Y-57729855D01*
X74375764Y-57640975D01*
X74358334Y-57587138D01*
X74371608Y-57570839D01*
X74411435Y-57594574D01*
X74473666Y-57660839D01*
X74495853Y-57689082D01*
X74637181Y-57907878D01*
X74728807Y-58125737D01*
X74770538Y-58341565D01*
X74914651Y-58341565D01*
X74892122Y-58167190D01*
X74817631Y-57960170D01*
X74694860Y-57744458D01*
X74690571Y-57738010D01*
X74657121Y-57684951D01*
X74651870Y-57661446D01*
X74673637Y-57655604D01*
X74682396Y-57655509D01*
X74726506Y-57677804D01*
X74782704Y-57738742D01*
X74844939Y-57829516D01*
X74907158Y-57941321D01*
X74962240Y-58062695D01*
X75017878Y-58263446D01*
X75028083Y-58470032D01*
X75191545Y-58470032D01*
X75149416Y-58314385D01*
X75099512Y-58133171D01*
X75052164Y-57964596D01*
X75009192Y-57815417D01*
X74972418Y-57692394D01*
X74964684Y-57668160D01*
X74919840Y-57668160D01*
X74907140Y-57680860D01*
X74894440Y-57668160D01*
X74907140Y-57655460D01*
X74919840Y-57668160D01*
X74964684Y-57668160D01*
X74943660Y-57602284D01*
X74924741Y-57551846D01*
X74920179Y-57544131D01*
X74883599Y-57532589D01*
X74807112Y-57523909D01*
X74701530Y-57518067D01*
X74577664Y-57515039D01*
X74446325Y-57514800D01*
X74318324Y-57517327D01*
G37*
X74318324Y-57517327D02*
X74204474Y-57522596D01*
X74115584Y-57530583D01*
X74062467Y-57541264D01*
X74053883Y-57546052D01*
X74042176Y-57576822D01*
X74022009Y-57650614D01*
X73994841Y-57760628D01*
X73962131Y-57900064D01*
X73925339Y-58062123D01*
X73885922Y-58240005D01*
X73845342Y-58426908D01*
X73805055Y-58616034D01*
X73766522Y-58800583D01*
X73731202Y-58973754D01*
X73700554Y-59128748D01*
X73676036Y-59258764D01*
X73659108Y-59357003D01*
X73651229Y-59416665D01*
X73650847Y-59424392D01*
X73666391Y-59495359D01*
X73715878Y-59528637D01*
X73772568Y-59529744D01*
X73815136Y-59526767D01*
X73895215Y-59523079D01*
X73999533Y-59519246D01*
X74068940Y-59517092D01*
X74212446Y-59511895D01*
X74313007Y-59504719D01*
X74378478Y-59493668D01*
X74416715Y-59476845D01*
X74435572Y-59452354D01*
X74441829Y-59427068D01*
X74467973Y-59382522D01*
X74516958Y-59367622D01*
X74569793Y-59383191D01*
X74603091Y-59420085D01*
X74616044Y-59439672D01*
X74637074Y-59453550D01*
X74674134Y-59462698D01*
X74735176Y-59468091D01*
X74828154Y-59470705D01*
X74961021Y-59471519D01*
X75022191Y-59471560D01*
X75415140Y-59471560D01*
X75422225Y-59408060D01*
X75275440Y-59408060D01*
X75256112Y-59432721D01*
X75250040Y-59433460D01*
X75225379Y-59414131D01*
X75224640Y-59408060D01*
X75243969Y-59383398D01*
X75250040Y-59382660D01*
X75274702Y-59401988D01*
X75275440Y-59408060D01*
X75422225Y-59408060D01*
X75417405Y-59369043D01*
X75400579Y-59288598D01*
X75397962Y-59277444D01*
X75351640Y-59277444D01*
X75330631Y-59331077D01*
X75269177Y-59355153D01*
X75268197Y-59355254D01*
X75262514Y-59338551D01*
X75274683Y-59307874D01*
X75310747Y-59256068D01*
X75338829Y-59243047D01*
X75351505Y-59271746D01*
X75351640Y-59277444D01*
X75397962Y-59277444D01*
X75373565Y-59173482D01*
X75338186Y-59030453D01*
X75330396Y-58999943D01*
X75279776Y-58999943D01*
X75276322Y-59049293D01*
X75247113Y-59120069D01*
X75201442Y-59197892D01*
X75148602Y-59268384D01*
X75097886Y-59317165D01*
X75065890Y-59330891D01*
X75028168Y-59323760D01*
X75021440Y-59315033D01*
X75034378Y-59284825D01*
X75067507Y-59226374D01*
X75112306Y-59153346D01*
X75160252Y-59079404D01*
X75202823Y-59018211D01*
X75221768Y-58993856D01*
X75252291Y-58962931D01*
X75269210Y-58973809D01*
X75279776Y-58999943D01*
X75330396Y-58999943D01*
X75296261Y-58866271D01*
X75272655Y-58775904D01*
X75189620Y-58775904D01*
X75158244Y-58876298D01*
X75091317Y-58992831D01*
X74985878Y-59131998D01*
X74983395Y-59135010D01*
X74912805Y-59213844D01*
X74857100Y-59263856D01*
X74820821Y-59283368D01*
X74808508Y-59270701D01*
X74824700Y-59224174D01*
X74846032Y-59185810D01*
X74894266Y-59107947D01*
X74940882Y-59036113D01*
X74949177Y-59023878D01*
X74982372Y-58968597D01*
X75027767Y-58884138D01*
X75076297Y-58787455D01*
X75082827Y-58773905D01*
X75170667Y-58590614D01*
X75188403Y-58685155D01*
X75189620Y-58775904D01*
X75272655Y-58775904D01*
X75249611Y-58687693D01*
X75200056Y-58501478D01*
X75191545Y-58470032D01*
X75028083Y-58470032D01*
X74992669Y-58670461D01*
X74972480Y-58729261D01*
X74934311Y-58810569D01*
X74879364Y-58906090D01*
X74814600Y-59006075D01*
X74746979Y-59100774D01*
X74683462Y-59180438D01*
X74631009Y-59235316D01*
X74596672Y-59255660D01*
X74574344Y-59240460D01*
X74579234Y-59223910D01*
X74600292Y-59188489D01*
X74640434Y-59122277D01*
X74692097Y-59037733D01*
X74708742Y-59010609D01*
X74826643Y-58787226D01*
X74896555Y-58575604D01*
X74918406Y-58370630D01*
X74914651Y-58341565D01*
X74770538Y-58341565D01*
X74762178Y-58554268D01*
X74703534Y-58762751D01*
X74691516Y-58791052D01*
X74646384Y-58878240D01*
X74586810Y-58973326D01*
X74520563Y-59066143D01*
X74455410Y-59146525D01*
X74399120Y-59204304D01*
X74359463Y-59229313D01*
X74356411Y-59229627D01*
X74342514Y-59219757D01*
X74350902Y-59185684D01*
X74383980Y-59121787D01*
X74444154Y-59022446D01*
X74447136Y-59017691D01*
X74548286Y-58842314D01*
X74615405Y-58688458D01*
X74652327Y-58543777D01*
X74657486Y-58471530D01*
X74518914Y-58471530D01*
X74477121Y-58679889D01*
X74387332Y-58886150D01*
X74262092Y-59072271D01*
X74197114Y-59145485D01*
X74150031Y-59183097D01*
X74125394Y-59185258D01*
X74127751Y-59152118D01*
X74161653Y-59083828D01*
X74170562Y-59069244D01*
X74216956Y-58989697D01*
X74271988Y-58887874D01*
X74317451Y-58798460D01*
X74356352Y-58714251D01*
X74380386Y-58643793D01*
X74393097Y-58569366D01*
X74398028Y-58473252D01*
X74398031Y-58472823D01*
X74264061Y-58472823D01*
X74226963Y-58676772D01*
X74209502Y-58727969D01*
X74168572Y-58818325D01*
X74113264Y-58916445D01*
X74050891Y-59011959D01*
X73988764Y-59094496D01*
X73934192Y-59153686D01*
X73894488Y-59179160D01*
X73891193Y-59179460D01*
X73857275Y-59173354D01*
X73853040Y-59168226D01*
X73865571Y-59142872D01*
X73898719Y-59086033D01*
X73945815Y-59009076D01*
X73955396Y-58993746D01*
X74071603Y-58774870D01*
X74138861Y-58565868D01*
X74153082Y-58412558D01*
X74014267Y-58412558D01*
X74007899Y-58523985D01*
X73994373Y-58621382D01*
X73985276Y-58658760D01*
X73961206Y-58723151D01*
X73925114Y-58801796D01*
X73883435Y-58882854D01*
X73842607Y-58954484D01*
X73809064Y-59004845D01*
X73789245Y-59022096D01*
X73788142Y-59021427D01*
X73789292Y-58993966D01*
X73800626Y-58928088D01*
X73820098Y-58834681D01*
X73837484Y-58758710D01*
X73868120Y-58622573D01*
X73898323Y-58477166D01*
X73923052Y-58347111D01*
X73929919Y-58307118D01*
X73947487Y-58209263D01*
X73961719Y-58155628D01*
X73975046Y-58139961D01*
X73989176Y-58154718D01*
X74005030Y-58211862D01*
X74013352Y-58303162D01*
X74014267Y-58412558D01*
X74153082Y-58412558D01*
X74157544Y-58364460D01*
X74128028Y-58168368D01*
X74103583Y-58092975D01*
X74071427Y-57994233D01*
X74047030Y-57896589D01*
X74038673Y-57845960D01*
X74028021Y-57744360D01*
X74103359Y-57861284D01*
X74201117Y-58055758D01*
X74255065Y-58262711D01*
X74264061Y-58472823D01*
X74398031Y-58472823D01*
X74398738Y-58392060D01*
X74392730Y-58242487D01*
X74370763Y-58114381D01*
X74327753Y-57992901D01*
X74258612Y-57863203D01*
X74171945Y-57730239D01*
X74119574Y-57646801D01*
X74101407Y-57597914D01*
X74110178Y-57582447D01*
X74152201Y-57593471D01*
X74206798Y-57643457D01*
X74268874Y-57723739D01*
X74333335Y-57825652D01*
X74395085Y-57940529D01*
X74449029Y-58059705D01*
X74490074Y-58174512D01*
X74511479Y-58265060D01*
X74518914Y-58471530D01*
X74657486Y-58471530D01*
X74662886Y-58395928D01*
X74660448Y-58330942D01*
X74635008Y-58161511D01*
X74578012Y-57994597D01*
X74484820Y-57818193D01*
X74428048Y-57729855D01*
X74375764Y-57640975D01*
X74358334Y-57587138D01*
X74371608Y-57570839D01*
X74411435Y-57594574D01*
X74473666Y-57660839D01*
X74495853Y-57689082D01*
X74637181Y-57907878D01*
X74728807Y-58125737D01*
X74770538Y-58341565D01*
X74914651Y-58341565D01*
X74892122Y-58167190D01*
X74817631Y-57960170D01*
X74694860Y-57744458D01*
X74690571Y-57738010D01*
X74657121Y-57684951D01*
X74651870Y-57661446D01*
X74673637Y-57655604D01*
X74682396Y-57655509D01*
X74726506Y-57677804D01*
X74782704Y-57738742D01*
X74844939Y-57829516D01*
X74907158Y-57941321D01*
X74962240Y-58062695D01*
X75017878Y-58263446D01*
X75028083Y-58470032D01*
X75191545Y-58470032D01*
X75149416Y-58314385D01*
X75099512Y-58133171D01*
X75052164Y-57964596D01*
X75009192Y-57815417D01*
X74972418Y-57692394D01*
X74964684Y-57668160D01*
X74919840Y-57668160D01*
X74907140Y-57680860D01*
X74894440Y-57668160D01*
X74907140Y-57655460D01*
X74919840Y-57668160D01*
X74964684Y-57668160D01*
X74943660Y-57602284D01*
X74924741Y-57551846D01*
X74920179Y-57544131D01*
X74883599Y-57532589D01*
X74807112Y-57523909D01*
X74701530Y-57518067D01*
X74577664Y-57515039D01*
X74446325Y-57514800D01*
X74318324Y-57517327D01*
G36*
X79423724Y-57517327D02*
G01*
X79309874Y-57522596D01*
X79220984Y-57530583D01*
X79167867Y-57541264D01*
X79159283Y-57546052D01*
X79147576Y-57576822D01*
X79127409Y-57650614D01*
X79100241Y-57760628D01*
X79067531Y-57900064D01*
X79030739Y-58062123D01*
X78991322Y-58240005D01*
X78950742Y-58426908D01*
X78910455Y-58616034D01*
X78871922Y-58800583D01*
X78836602Y-58973754D01*
X78805954Y-59128748D01*
X78781436Y-59258764D01*
X78764508Y-59357003D01*
X78756629Y-59416665D01*
X78756247Y-59424392D01*
X78771791Y-59495359D01*
X78821278Y-59528637D01*
X78877968Y-59529744D01*
X78920536Y-59526767D01*
X79000615Y-59523079D01*
X79104933Y-59519246D01*
X79174340Y-59517092D01*
X79317846Y-59511895D01*
X79418407Y-59504719D01*
X79483878Y-59493668D01*
X79522115Y-59476845D01*
X79540972Y-59452354D01*
X79547229Y-59427068D01*
X79573373Y-59382522D01*
X79622358Y-59367622D01*
X79675193Y-59383191D01*
X79708491Y-59420085D01*
X79721444Y-59439672D01*
X79742474Y-59453550D01*
X79779534Y-59462698D01*
X79840576Y-59468091D01*
X79933554Y-59470705D01*
X80066421Y-59471519D01*
X80127591Y-59471560D01*
X80520540Y-59471560D01*
X80527625Y-59408060D01*
X80522805Y-59369043D01*
X80505979Y-59288598D01*
X80478965Y-59173482D01*
X80443586Y-59030453D01*
X80401661Y-58866271D01*
X80355011Y-58687693D01*
X80305456Y-58501478D01*
X80296431Y-58468131D01*
X80102897Y-58468131D01*
X80093132Y-58549302D01*
X80072927Y-58601171D01*
X80042232Y-58613691D01*
X80041161Y-58613358D01*
X80025827Y-58584465D01*
X80011634Y-58514174D01*
X80000311Y-58411882D01*
X79997794Y-58377334D01*
X79997243Y-58372619D01*
X79834740Y-58372619D01*
X79832538Y-58489175D01*
X79825013Y-58564058D01*
X79810787Y-58606241D01*
X79796640Y-58620791D01*
X79778619Y-58625214D01*
X79765878Y-58606850D01*
X79756595Y-58557903D01*
X79748949Y-58470581D01*
X79744450Y-58397615D01*
X79740799Y-58353687D01*
X79594893Y-58353687D01*
X79591544Y-58490003D01*
X79569909Y-58610382D01*
X79530844Y-58702589D01*
X79497242Y-58741047D01*
X79461456Y-58763773D01*
X79449365Y-58751780D01*
X79458679Y-58699699D01*
X79466875Y-58669945D01*
X79485752Y-58558658D01*
X79490781Y-58420408D01*
X79483619Y-58296768D01*
X79341100Y-58296768D01*
X79339483Y-58503701D01*
X79290842Y-58702524D01*
X79288765Y-58707970D01*
X79239972Y-58813357D01*
X79184555Y-58899946D01*
X79130125Y-58957569D01*
X79087930Y-58976260D01*
X79085784Y-58955437D01*
X79102985Y-58900324D01*
X79135932Y-58821949D01*
X79143925Y-58804810D01*
X79182947Y-58717666D01*
X79206944Y-58645621D01*
X79219417Y-58570656D01*
X79223867Y-58474749D01*
X79224113Y-58392060D01*
X79223945Y-58385421D01*
X79099583Y-58385421D01*
X79096914Y-58470128D01*
X79089396Y-58541388D01*
X79086360Y-58557160D01*
X79065735Y-58629771D01*
X79035386Y-58713215D01*
X79000346Y-58796531D01*
X78965645Y-58868759D01*
X78936315Y-58918938D01*
X78917387Y-58936107D01*
X78914153Y-58932296D01*
X78916399Y-58900192D01*
X78927927Y-58827911D01*
X78947040Y-58724878D01*
X78972046Y-58600515D01*
X78984037Y-58543539D01*
X79012096Y-58414251D01*
X79037012Y-58303750D01*
X79056683Y-58221037D01*
X79069006Y-58175110D01*
X79071552Y-58168881D01*
X79083386Y-58178996D01*
X79092329Y-58227017D01*
X79097891Y-58300104D01*
X79099583Y-58385421D01*
X79223945Y-58385421D01*
X79220787Y-58261002D01*
X79210452Y-58164484D01*
X79190612Y-58086443D01*
X79167821Y-58030004D01*
X79131634Y-57928134D01*
X79131497Y-57858250D01*
X79132573Y-57855137D01*
X79147186Y-57824782D01*
X79163857Y-57827554D01*
X79192114Y-57868285D01*
X79206704Y-57892741D01*
X79296554Y-58090267D01*
X79341100Y-58296768D01*
X79483619Y-58296768D01*
X79482471Y-58276962D01*
X79461329Y-58150088D01*
X79454131Y-58123620D01*
X79418541Y-58031314D01*
X79366690Y-57925842D01*
X79327551Y-57858660D01*
X79257869Y-57746772D01*
X79214073Y-57669851D01*
X79192905Y-57621252D01*
X79191110Y-57594333D01*
X79195001Y-57588233D01*
X79225121Y-57589746D01*
X79271703Y-57628829D01*
X79329014Y-57697354D01*
X79391323Y-57787194D01*
X79452901Y-57890221D01*
X79508015Y-57998309D01*
X79543312Y-58082184D01*
X79579101Y-58213669D01*
X79594893Y-58353687D01*
X79740799Y-58353687D01*
X79732595Y-58255004D01*
X79713485Y-58145504D01*
X79683543Y-58051559D01*
X79665263Y-58008987D01*
X79612420Y-57905724D01*
X79546894Y-57793361D01*
X79505945Y-57730239D01*
X79453277Y-57646087D01*
X79435411Y-57596997D01*
X79443875Y-57582548D01*
X79482452Y-57594681D01*
X79536911Y-57645174D01*
X79601329Y-57726502D01*
X79669786Y-57831141D01*
X79736360Y-57951567D01*
X79740071Y-57958942D01*
X79786681Y-58056185D01*
X79814851Y-58132038D01*
X79829172Y-58206563D01*
X79834236Y-58299825D01*
X79834740Y-58372619D01*
X79997243Y-58372619D01*
X79977545Y-58204313D01*
X79937141Y-58053663D01*
X79869836Y-57905494D01*
X79795363Y-57780468D01*
X79746960Y-57702707D01*
X79725666Y-57659212D01*
X79729803Y-57642390D01*
X79757696Y-57644650D01*
X79765803Y-57646678D01*
X79811115Y-57678105D01*
X79868646Y-57746185D01*
X79931401Y-57840540D01*
X79992391Y-57950795D01*
X80038495Y-58051379D01*
X80070019Y-58149282D01*
X80091292Y-58258074D01*
X80102268Y-58367706D01*
X80102897Y-58468131D01*
X80296431Y-58468131D01*
X80254816Y-58314385D01*
X80204912Y-58133171D01*
X80157564Y-57964596D01*
X80114592Y-57815417D01*
X80093352Y-57744360D01*
X80050640Y-57744360D01*
X80037940Y-57757060D01*
X80025240Y-57744360D01*
X80037940Y-57731660D01*
X80050640Y-57744360D01*
X80093352Y-57744360D01*
X80077818Y-57692394D01*
X80075094Y-57683858D01*
X80025240Y-57683858D01*
X80009591Y-57697629D01*
X79999840Y-57693560D01*
X79975389Y-57659912D01*
X79974440Y-57652461D01*
X79990090Y-57638690D01*
X79999840Y-57642760D01*
X80024292Y-57676407D01*
X80025240Y-57683858D01*
X80075094Y-57683858D01*
X80049060Y-57602284D01*
X80040424Y-57579260D01*
X79695040Y-57579260D01*
X79685747Y-57600167D01*
X79678107Y-57596193D01*
X79675067Y-57566049D01*
X79678107Y-57562326D01*
X79693207Y-57565813D01*
X79695040Y-57579260D01*
X80040424Y-57579260D01*
X80030141Y-57551846D01*
X80025579Y-57544131D01*
X79988999Y-57532589D01*
X79912512Y-57523909D01*
X79806930Y-57518067D01*
X79683064Y-57515039D01*
X79551725Y-57514800D01*
X79423724Y-57517327D01*
G37*
X79423724Y-57517327D02*
X79309874Y-57522596D01*
X79220984Y-57530583D01*
X79167867Y-57541264D01*
X79159283Y-57546052D01*
X79147576Y-57576822D01*
X79127409Y-57650614D01*
X79100241Y-57760628D01*
X79067531Y-57900064D01*
X79030739Y-58062123D01*
X78991322Y-58240005D01*
X78950742Y-58426908D01*
X78910455Y-58616034D01*
X78871922Y-58800583D01*
X78836602Y-58973754D01*
X78805954Y-59128748D01*
X78781436Y-59258764D01*
X78764508Y-59357003D01*
X78756629Y-59416665D01*
X78756247Y-59424392D01*
X78771791Y-59495359D01*
X78821278Y-59528637D01*
X78877968Y-59529744D01*
X78920536Y-59526767D01*
X79000615Y-59523079D01*
X79104933Y-59519246D01*
X79174340Y-59517092D01*
X79317846Y-59511895D01*
X79418407Y-59504719D01*
X79483878Y-59493668D01*
X79522115Y-59476845D01*
X79540972Y-59452354D01*
X79547229Y-59427068D01*
X79573373Y-59382522D01*
X79622358Y-59367622D01*
X79675193Y-59383191D01*
X79708491Y-59420085D01*
X79721444Y-59439672D01*
X79742474Y-59453550D01*
X79779534Y-59462698D01*
X79840576Y-59468091D01*
X79933554Y-59470705D01*
X80066421Y-59471519D01*
X80127591Y-59471560D01*
X80520540Y-59471560D01*
X80527625Y-59408060D01*
X80522805Y-59369043D01*
X80505979Y-59288598D01*
X80478965Y-59173482D01*
X80443586Y-59030453D01*
X80401661Y-58866271D01*
X80355011Y-58687693D01*
X80305456Y-58501478D01*
X80296431Y-58468131D01*
X80102897Y-58468131D01*
X80093132Y-58549302D01*
X80072927Y-58601171D01*
X80042232Y-58613691D01*
X80041161Y-58613358D01*
X80025827Y-58584465D01*
X80011634Y-58514174D01*
X80000311Y-58411882D01*
X79997794Y-58377334D01*
X79997243Y-58372619D01*
X79834740Y-58372619D01*
X79832538Y-58489175D01*
X79825013Y-58564058D01*
X79810787Y-58606241D01*
X79796640Y-58620791D01*
X79778619Y-58625214D01*
X79765878Y-58606850D01*
X79756595Y-58557903D01*
X79748949Y-58470581D01*
X79744450Y-58397615D01*
X79740799Y-58353687D01*
X79594893Y-58353687D01*
X79591544Y-58490003D01*
X79569909Y-58610382D01*
X79530844Y-58702589D01*
X79497242Y-58741047D01*
X79461456Y-58763773D01*
X79449365Y-58751780D01*
X79458679Y-58699699D01*
X79466875Y-58669945D01*
X79485752Y-58558658D01*
X79490781Y-58420408D01*
X79483619Y-58296768D01*
X79341100Y-58296768D01*
X79339483Y-58503701D01*
X79290842Y-58702524D01*
X79288765Y-58707970D01*
X79239972Y-58813357D01*
X79184555Y-58899946D01*
X79130125Y-58957569D01*
X79087930Y-58976260D01*
X79085784Y-58955437D01*
X79102985Y-58900324D01*
X79135932Y-58821949D01*
X79143925Y-58804810D01*
X79182947Y-58717666D01*
X79206944Y-58645621D01*
X79219417Y-58570656D01*
X79223867Y-58474749D01*
X79224113Y-58392060D01*
X79223945Y-58385421D01*
X79099583Y-58385421D01*
X79096914Y-58470128D01*
X79089396Y-58541388D01*
X79086360Y-58557160D01*
X79065735Y-58629771D01*
X79035386Y-58713215D01*
X79000346Y-58796531D01*
X78965645Y-58868759D01*
X78936315Y-58918938D01*
X78917387Y-58936107D01*
X78914153Y-58932296D01*
X78916399Y-58900192D01*
X78927927Y-58827911D01*
X78947040Y-58724878D01*
X78972046Y-58600515D01*
X78984037Y-58543539D01*
X79012096Y-58414251D01*
X79037012Y-58303750D01*
X79056683Y-58221037D01*
X79069006Y-58175110D01*
X79071552Y-58168881D01*
X79083386Y-58178996D01*
X79092329Y-58227017D01*
X79097891Y-58300104D01*
X79099583Y-58385421D01*
X79223945Y-58385421D01*
X79220787Y-58261002D01*
X79210452Y-58164484D01*
X79190612Y-58086443D01*
X79167821Y-58030004D01*
X79131634Y-57928134D01*
X79131497Y-57858250D01*
X79132573Y-57855137D01*
X79147186Y-57824782D01*
X79163857Y-57827554D01*
X79192114Y-57868285D01*
X79206704Y-57892741D01*
X79296554Y-58090267D01*
X79341100Y-58296768D01*
X79483619Y-58296768D01*
X79482471Y-58276962D01*
X79461329Y-58150088D01*
X79454131Y-58123620D01*
X79418541Y-58031314D01*
X79366690Y-57925842D01*
X79327551Y-57858660D01*
X79257869Y-57746772D01*
X79214073Y-57669851D01*
X79192905Y-57621252D01*
X79191110Y-57594333D01*
X79195001Y-57588233D01*
X79225121Y-57589746D01*
X79271703Y-57628829D01*
X79329014Y-57697354D01*
X79391323Y-57787194D01*
X79452901Y-57890221D01*
X79508015Y-57998309D01*
X79543312Y-58082184D01*
X79579101Y-58213669D01*
X79594893Y-58353687D01*
X79740799Y-58353687D01*
X79732595Y-58255004D01*
X79713485Y-58145504D01*
X79683543Y-58051559D01*
X79665263Y-58008987D01*
X79612420Y-57905724D01*
X79546894Y-57793361D01*
X79505945Y-57730239D01*
X79453277Y-57646087D01*
X79435411Y-57596997D01*
X79443875Y-57582548D01*
X79482452Y-57594681D01*
X79536911Y-57645174D01*
X79601329Y-57726502D01*
X79669786Y-57831141D01*
X79736360Y-57951567D01*
X79740071Y-57958942D01*
X79786681Y-58056185D01*
X79814851Y-58132038D01*
X79829172Y-58206563D01*
X79834236Y-58299825D01*
X79834740Y-58372619D01*
X79997243Y-58372619D01*
X79977545Y-58204313D01*
X79937141Y-58053663D01*
X79869836Y-57905494D01*
X79795363Y-57780468D01*
X79746960Y-57702707D01*
X79725666Y-57659212D01*
X79729803Y-57642390D01*
X79757696Y-57644650D01*
X79765803Y-57646678D01*
X79811115Y-57678105D01*
X79868646Y-57746185D01*
X79931401Y-57840540D01*
X79992391Y-57950795D01*
X80038495Y-58051379D01*
X80070019Y-58149282D01*
X80091292Y-58258074D01*
X80102268Y-58367706D01*
X80102897Y-58468131D01*
X80296431Y-58468131D01*
X80254816Y-58314385D01*
X80204912Y-58133171D01*
X80157564Y-57964596D01*
X80114592Y-57815417D01*
X80093352Y-57744360D01*
X80050640Y-57744360D01*
X80037940Y-57757060D01*
X80025240Y-57744360D01*
X80037940Y-57731660D01*
X80050640Y-57744360D01*
X80093352Y-57744360D01*
X80077818Y-57692394D01*
X80075094Y-57683858D01*
X80025240Y-57683858D01*
X80009591Y-57697629D01*
X79999840Y-57693560D01*
X79975389Y-57659912D01*
X79974440Y-57652461D01*
X79990090Y-57638690D01*
X79999840Y-57642760D01*
X80024292Y-57676407D01*
X80025240Y-57683858D01*
X80075094Y-57683858D01*
X80049060Y-57602284D01*
X80040424Y-57579260D01*
X79695040Y-57579260D01*
X79685747Y-57600167D01*
X79678107Y-57596193D01*
X79675067Y-57566049D01*
X79678107Y-57562326D01*
X79693207Y-57565813D01*
X79695040Y-57579260D01*
X80040424Y-57579260D01*
X80030141Y-57551846D01*
X80025579Y-57544131D01*
X79988999Y-57532589D01*
X79912512Y-57523909D01*
X79806930Y-57518067D01*
X79683064Y-57515039D01*
X79551725Y-57514800D01*
X79423724Y-57517327D01*
G36*
X81836937Y-56980103D02*
G01*
X81558222Y-57040443D01*
X81309708Y-57141408D01*
X81091108Y-57283104D01*
X80975487Y-57386414D01*
X80859642Y-57519333D01*
X80783277Y-57652533D01*
X80740715Y-57800359D01*
X80726278Y-57977154D01*
X80726254Y-58016074D01*
X80730963Y-58131567D01*
X80746175Y-58220918D01*
X80777502Y-58308546D01*
X80808839Y-58375487D01*
X80869139Y-58478270D01*
X80950029Y-58590856D01*
X81034216Y-58689203D01*
X81035233Y-58690258D01*
X81180940Y-58841130D01*
X80996790Y-59076231D01*
X80906946Y-59194902D01*
X80849005Y-59282619D01*
X80820259Y-59345610D01*
X80817995Y-59390103D01*
X80839504Y-59422324D01*
X80844390Y-59426313D01*
X80884347Y-59446428D01*
X80960488Y-59476701D01*
X81060276Y-59512918D01*
X81171171Y-59550863D01*
X81280635Y-59586320D01*
X81376129Y-59615076D01*
X81445113Y-59632914D01*
X81470119Y-59636660D01*
X81510672Y-59617780D01*
X81571982Y-59566713D01*
X81644198Y-59491811D01*
X81653611Y-59481061D01*
X81720298Y-59404864D01*
X81761589Y-59362626D01*
X81785341Y-59349902D01*
X81799412Y-59362246D01*
X81810658Y-59392213D01*
X81855920Y-59455120D01*
X81900624Y-59477961D01*
X81955759Y-59486161D01*
X82045865Y-59491700D01*
X82160388Y-59494718D01*
X82288776Y-59495356D01*
X82420476Y-59493752D01*
X82544935Y-59490047D01*
X82651601Y-59484379D01*
X82729919Y-59476888D01*
X82769338Y-59467714D01*
X82771010Y-59466450D01*
X82782585Y-59432038D01*
X82796448Y-59353483D01*
X82812111Y-59237004D01*
X82829088Y-59088816D01*
X82846894Y-58915136D01*
X82865040Y-58722180D01*
X82883042Y-58516164D01*
X82889024Y-58442860D01*
X81803240Y-58442860D01*
X81800829Y-58543525D01*
X81794370Y-58621574D01*
X81785026Y-58665675D01*
X81779789Y-58671460D01*
X81747037Y-58656377D01*
X81694271Y-58618799D01*
X81677277Y-58604934D01*
X81604978Y-58530347D01*
X81555218Y-58451974D01*
X81535411Y-58383185D01*
X81539241Y-58356082D01*
X81573528Y-58313918D01*
X81635412Y-58267621D01*
X81644922Y-58262466D01*
X81087424Y-58262466D01*
X81075221Y-58338009D01*
X81064576Y-58359823D01*
X81050627Y-58347357D01*
X81033572Y-58303370D01*
X80858116Y-58303370D01*
X80857141Y-58329742D01*
X80845628Y-58315592D01*
X80826711Y-58277760D01*
X80799947Y-58196071D01*
X80789159Y-58112660D01*
X80793620Y-58061136D01*
X80805356Y-58052727D01*
X80820948Y-58080885D01*
X80836978Y-58139065D01*
X80850028Y-58220718D01*
X80851199Y-58231473D01*
X80858116Y-58303370D01*
X81033572Y-58303370D01*
X81030472Y-58295376D01*
X81004778Y-58211009D01*
X80966562Y-58096700D01*
X80919812Y-57981102D01*
X80877329Y-57894329D01*
X80831476Y-57797807D01*
X80819145Y-57731319D01*
X80822055Y-57718361D01*
X80836739Y-57695306D01*
X80857818Y-57704695D01*
X80894079Y-57751669D01*
X80904187Y-57766411D01*
X81011928Y-57949967D01*
X81072924Y-58115044D01*
X81087424Y-58262466D01*
X81644922Y-58262466D01*
X81704636Y-58230100D01*
X81760942Y-58214266D01*
X81761789Y-58214260D01*
X81781764Y-58221189D01*
X81794199Y-58248097D01*
X81800758Y-58304163D01*
X81803106Y-58398566D01*
X81803240Y-58442860D01*
X82889024Y-58442860D01*
X82900413Y-58303305D01*
X82908528Y-58196709D01*
X81345438Y-58196709D01*
X81337485Y-58229878D01*
X81312318Y-58215680D01*
X81270214Y-58154438D01*
X81211448Y-58046480D01*
X81202405Y-58028645D01*
X81141553Y-57915875D01*
X81071393Y-57797664D01*
X81009622Y-57703290D01*
X80953352Y-57616915D01*
X80928103Y-57559032D01*
X80930234Y-57520995D01*
X80931686Y-57518176D01*
X80956189Y-57513887D01*
X80997405Y-57547554D01*
X81050440Y-57611152D01*
X81110403Y-57696659D01*
X81172402Y-57796053D01*
X81231546Y-57901311D01*
X81282941Y-58004410D01*
X81321696Y-58097328D01*
X81342918Y-58172043D01*
X81345438Y-58196709D01*
X82908528Y-58196709D01*
X82916667Y-58089819D01*
X82922516Y-58006804D01*
X81512551Y-58006804D01*
X81509635Y-58013495D01*
X81489979Y-58032919D01*
X81486372Y-58031799D01*
X81470412Y-58009021D01*
X81431241Y-57951814D01*
X81374086Y-57867848D01*
X81304172Y-57764788D01*
X81273144Y-57718960D01*
X81199667Y-57608390D01*
X81137721Y-57511396D01*
X81092432Y-57436297D01*
X81068925Y-57391415D01*
X81066769Y-57383909D01*
X81075394Y-57346710D01*
X81102578Y-57350673D01*
X81149553Y-57396907D01*
X81217549Y-57486521D01*
X81276548Y-57572994D01*
X81373936Y-57722270D01*
X81443688Y-57835485D01*
X81488346Y-57917443D01*
X81510453Y-57972948D01*
X81512551Y-58006804D01*
X82922516Y-58006804D01*
X82930074Y-57899554D01*
X81705981Y-57899554D01*
X81681091Y-57909189D01*
X81661208Y-57889145D01*
X81619356Y-57834533D01*
X81561355Y-57753312D01*
X81493024Y-57653439D01*
X81481440Y-57636139D01*
X81391347Y-57500203D01*
X81327039Y-57400117D01*
X81285384Y-57329962D01*
X81263249Y-57283822D01*
X81257499Y-57255781D01*
X81265002Y-57239921D01*
X81269772Y-57236402D01*
X81302242Y-57229731D01*
X81336594Y-57255040D01*
X81378625Y-57318266D01*
X81413275Y-57383429D01*
X81461330Y-57469611D01*
X81526432Y-57575273D01*
X81595378Y-57679082D01*
X81602780Y-57689685D01*
X81670625Y-57792814D01*
X81704685Y-57861814D01*
X81705981Y-57899554D01*
X82930074Y-57899554D01*
X82931317Y-57881923D01*
X82937504Y-57785310D01*
X81904840Y-57785310D01*
X81892670Y-57808589D01*
X81858022Y-57789858D01*
X81803691Y-57731175D01*
X81767677Y-57684315D01*
X81696342Y-57581692D01*
X81626089Y-57471227D01*
X81562820Y-57363331D01*
X81512439Y-57268413D01*
X81480850Y-57196880D01*
X81473040Y-57164796D01*
X81482496Y-57127475D01*
X81509155Y-57134451D01*
X81550451Y-57183227D01*
X81603823Y-57271303D01*
X81626775Y-57314632D01*
X81686719Y-57424662D01*
X81754519Y-57539184D01*
X81810925Y-57626560D01*
X81859248Y-57699875D01*
X81893146Y-57757485D01*
X81904840Y-57785310D01*
X82937504Y-57785310D01*
X82943876Y-57685832D01*
X82944633Y-57672314D01*
X82063167Y-57672314D01*
X82050962Y-57681411D01*
X82017688Y-57656562D01*
X81967735Y-57598964D01*
X81913449Y-57522110D01*
X81840493Y-57405728D01*
X81778011Y-57297064D01*
X81731185Y-57205881D01*
X81705199Y-57141942D01*
X81701640Y-57123071D01*
X81722179Y-57099602D01*
X81739488Y-57096660D01*
X81769420Y-57118464D01*
X81810262Y-57176596D01*
X81852060Y-57255410D01*
X81905859Y-57363729D01*
X81966667Y-57477491D01*
X82006809Y-57547510D01*
X82049912Y-57628078D01*
X82063167Y-57672314D01*
X82944633Y-57672314D01*
X82946899Y-57631908D01*
X82793840Y-57631908D01*
X82783387Y-57649391D01*
X82758832Y-57633311D01*
X82730387Y-57594711D01*
X82708263Y-57544635D01*
X82707021Y-57540117D01*
X82235040Y-57540117D01*
X82223136Y-57557416D01*
X82191337Y-57536082D01*
X82145521Y-57481258D01*
X82112971Y-57433210D01*
X82060498Y-57343413D01*
X82012509Y-57249066D01*
X81975711Y-57164652D01*
X81956815Y-57104656D01*
X81955640Y-57093558D01*
X81975682Y-57073369D01*
X81987390Y-57072098D01*
X82007606Y-57093419D01*
X82043151Y-57148997D01*
X82087810Y-57227083D01*
X82135367Y-57315931D01*
X82179605Y-57403792D01*
X82214308Y-57478920D01*
X82233261Y-57529566D01*
X82235040Y-57540117D01*
X82707021Y-57540117D01*
X82706196Y-57537120D01*
X82697999Y-57484415D01*
X82701831Y-57459602D01*
X82719328Y-57470625D01*
X82746202Y-57511631D01*
X82773223Y-57565337D01*
X82791162Y-57614457D01*
X82793840Y-57631908D01*
X82946899Y-57631908D01*
X82953859Y-57507763D01*
X82960227Y-57366208D01*
X82376146Y-57366208D01*
X82374166Y-57374016D01*
X82359331Y-57394399D01*
X82338921Y-57382681D01*
X82309037Y-57333916D01*
X82265777Y-57243160D01*
X82258916Y-57227904D01*
X82226304Y-57153657D01*
X82213336Y-57114541D01*
X82218952Y-57099295D01*
X82242090Y-57096663D01*
X82246552Y-57096660D01*
X82277604Y-57118492D01*
X82313716Y-57172939D01*
X82347261Y-57243425D01*
X82370613Y-57313373D01*
X82376146Y-57366208D01*
X82960227Y-57366208D01*
X82960780Y-57353933D01*
X82961039Y-57344435D01*
X82841938Y-57344435D01*
X82829191Y-57340782D01*
X82807287Y-57314055D01*
X82777237Y-57267574D01*
X82768440Y-57242088D01*
X82779442Y-57221694D01*
X82803706Y-57233618D01*
X82828119Y-57266757D01*
X82839037Y-57301849D01*
X82841938Y-57344435D01*
X82961039Y-57344435D01*
X82964151Y-57230557D01*
X82963927Y-57201258D01*
X82539840Y-57201258D01*
X82524191Y-57215029D01*
X82514440Y-57210960D01*
X82489989Y-57177312D01*
X82489040Y-57169861D01*
X82504690Y-57156090D01*
X82514440Y-57160160D01*
X82538892Y-57193807D01*
X82539840Y-57201258D01*
X82963927Y-57201258D01*
X82963487Y-57143852D01*
X82958302Y-57100035D01*
X82956407Y-57096666D01*
X82905532Y-57068834D01*
X82814192Y-57040908D01*
X82692689Y-57014625D01*
X82551326Y-56991717D01*
X82400404Y-56973919D01*
X82250225Y-56962964D01*
X82146140Y-56960284D01*
X81836937Y-56980103D01*
G37*
X81836937Y-56980103D02*
X81558222Y-57040443D01*
X81309708Y-57141408D01*
X81091108Y-57283104D01*
X80975487Y-57386414D01*
X80859642Y-57519333D01*
X80783277Y-57652533D01*
X80740715Y-57800359D01*
X80726278Y-57977154D01*
X80726254Y-58016074D01*
X80730963Y-58131567D01*
X80746175Y-58220918D01*
X80777502Y-58308546D01*
X80808839Y-58375487D01*
X80869139Y-58478270D01*
X80950029Y-58590856D01*
X81034216Y-58689203D01*
X81035233Y-58690258D01*
X81180940Y-58841130D01*
X80996790Y-59076231D01*
X80906946Y-59194902D01*
X80849005Y-59282619D01*
X80820259Y-59345610D01*
X80817995Y-59390103D01*
X80839504Y-59422324D01*
X80844390Y-59426313D01*
X80884347Y-59446428D01*
X80960488Y-59476701D01*
X81060276Y-59512918D01*
X81171171Y-59550863D01*
X81280635Y-59586320D01*
X81376129Y-59615076D01*
X81445113Y-59632914D01*
X81470119Y-59636660D01*
X81510672Y-59617780D01*
X81571982Y-59566713D01*
X81644198Y-59491811D01*
X81653611Y-59481061D01*
X81720298Y-59404864D01*
X81761589Y-59362626D01*
X81785341Y-59349902D01*
X81799412Y-59362246D01*
X81810658Y-59392213D01*
X81855920Y-59455120D01*
X81900624Y-59477961D01*
X81955759Y-59486161D01*
X82045865Y-59491700D01*
X82160388Y-59494718D01*
X82288776Y-59495356D01*
X82420476Y-59493752D01*
X82544935Y-59490047D01*
X82651601Y-59484379D01*
X82729919Y-59476888D01*
X82769338Y-59467714D01*
X82771010Y-59466450D01*
X82782585Y-59432038D01*
X82796448Y-59353483D01*
X82812111Y-59237004D01*
X82829088Y-59088816D01*
X82846894Y-58915136D01*
X82865040Y-58722180D01*
X82883042Y-58516164D01*
X82889024Y-58442860D01*
X81803240Y-58442860D01*
X81800829Y-58543525D01*
X81794370Y-58621574D01*
X81785026Y-58665675D01*
X81779789Y-58671460D01*
X81747037Y-58656377D01*
X81694271Y-58618799D01*
X81677277Y-58604934D01*
X81604978Y-58530347D01*
X81555218Y-58451974D01*
X81535411Y-58383185D01*
X81539241Y-58356082D01*
X81573528Y-58313918D01*
X81635412Y-58267621D01*
X81644922Y-58262466D01*
X81087424Y-58262466D01*
X81075221Y-58338009D01*
X81064576Y-58359823D01*
X81050627Y-58347357D01*
X81033572Y-58303370D01*
X80858116Y-58303370D01*
X80857141Y-58329742D01*
X80845628Y-58315592D01*
X80826711Y-58277760D01*
X80799947Y-58196071D01*
X80789159Y-58112660D01*
X80793620Y-58061136D01*
X80805356Y-58052727D01*
X80820948Y-58080885D01*
X80836978Y-58139065D01*
X80850028Y-58220718D01*
X80851199Y-58231473D01*
X80858116Y-58303370D01*
X81033572Y-58303370D01*
X81030472Y-58295376D01*
X81004778Y-58211009D01*
X80966562Y-58096700D01*
X80919812Y-57981102D01*
X80877329Y-57894329D01*
X80831476Y-57797807D01*
X80819145Y-57731319D01*
X80822055Y-57718361D01*
X80836739Y-57695306D01*
X80857818Y-57704695D01*
X80894079Y-57751669D01*
X80904187Y-57766411D01*
X81011928Y-57949967D01*
X81072924Y-58115044D01*
X81087424Y-58262466D01*
X81644922Y-58262466D01*
X81704636Y-58230100D01*
X81760942Y-58214266D01*
X81761789Y-58214260D01*
X81781764Y-58221189D01*
X81794199Y-58248097D01*
X81800758Y-58304163D01*
X81803106Y-58398566D01*
X81803240Y-58442860D01*
X82889024Y-58442860D01*
X82900413Y-58303305D01*
X82908528Y-58196709D01*
X81345438Y-58196709D01*
X81337485Y-58229878D01*
X81312318Y-58215680D01*
X81270214Y-58154438D01*
X81211448Y-58046480D01*
X81202405Y-58028645D01*
X81141553Y-57915875D01*
X81071393Y-57797664D01*
X81009622Y-57703290D01*
X80953352Y-57616915D01*
X80928103Y-57559032D01*
X80930234Y-57520995D01*
X80931686Y-57518176D01*
X80956189Y-57513887D01*
X80997405Y-57547554D01*
X81050440Y-57611152D01*
X81110403Y-57696659D01*
X81172402Y-57796053D01*
X81231546Y-57901311D01*
X81282941Y-58004410D01*
X81321696Y-58097328D01*
X81342918Y-58172043D01*
X81345438Y-58196709D01*
X82908528Y-58196709D01*
X82916667Y-58089819D01*
X82922516Y-58006804D01*
X81512551Y-58006804D01*
X81509635Y-58013495D01*
X81489979Y-58032919D01*
X81486372Y-58031799D01*
X81470412Y-58009021D01*
X81431241Y-57951814D01*
X81374086Y-57867848D01*
X81304172Y-57764788D01*
X81273144Y-57718960D01*
X81199667Y-57608390D01*
X81137721Y-57511396D01*
X81092432Y-57436297D01*
X81068925Y-57391415D01*
X81066769Y-57383909D01*
X81075394Y-57346710D01*
X81102578Y-57350673D01*
X81149553Y-57396907D01*
X81217549Y-57486521D01*
X81276548Y-57572994D01*
X81373936Y-57722270D01*
X81443688Y-57835485D01*
X81488346Y-57917443D01*
X81510453Y-57972948D01*
X81512551Y-58006804D01*
X82922516Y-58006804D01*
X82930074Y-57899554D01*
X81705981Y-57899554D01*
X81681091Y-57909189D01*
X81661208Y-57889145D01*
X81619356Y-57834533D01*
X81561355Y-57753312D01*
X81493024Y-57653439D01*
X81481440Y-57636139D01*
X81391347Y-57500203D01*
X81327039Y-57400117D01*
X81285384Y-57329962D01*
X81263249Y-57283822D01*
X81257499Y-57255781D01*
X81265002Y-57239921D01*
X81269772Y-57236402D01*
X81302242Y-57229731D01*
X81336594Y-57255040D01*
X81378625Y-57318266D01*
X81413275Y-57383429D01*
X81461330Y-57469611D01*
X81526432Y-57575273D01*
X81595378Y-57679082D01*
X81602780Y-57689685D01*
X81670625Y-57792814D01*
X81704685Y-57861814D01*
X81705981Y-57899554D01*
X82930074Y-57899554D01*
X82931317Y-57881923D01*
X82937504Y-57785310D01*
X81904840Y-57785310D01*
X81892670Y-57808589D01*
X81858022Y-57789858D01*
X81803691Y-57731175D01*
X81767677Y-57684315D01*
X81696342Y-57581692D01*
X81626089Y-57471227D01*
X81562820Y-57363331D01*
X81512439Y-57268413D01*
X81480850Y-57196880D01*
X81473040Y-57164796D01*
X81482496Y-57127475D01*
X81509155Y-57134451D01*
X81550451Y-57183227D01*
X81603823Y-57271303D01*
X81626775Y-57314632D01*
X81686719Y-57424662D01*
X81754519Y-57539184D01*
X81810925Y-57626560D01*
X81859248Y-57699875D01*
X81893146Y-57757485D01*
X81904840Y-57785310D01*
X82937504Y-57785310D01*
X82943876Y-57685832D01*
X82944633Y-57672314D01*
X82063167Y-57672314D01*
X82050962Y-57681411D01*
X82017688Y-57656562D01*
X81967735Y-57598964D01*
X81913449Y-57522110D01*
X81840493Y-57405728D01*
X81778011Y-57297064D01*
X81731185Y-57205881D01*
X81705199Y-57141942D01*
X81701640Y-57123071D01*
X81722179Y-57099602D01*
X81739488Y-57096660D01*
X81769420Y-57118464D01*
X81810262Y-57176596D01*
X81852060Y-57255410D01*
X81905859Y-57363729D01*
X81966667Y-57477491D01*
X82006809Y-57547510D01*
X82049912Y-57628078D01*
X82063167Y-57672314D01*
X82944633Y-57672314D01*
X82946899Y-57631908D01*
X82793840Y-57631908D01*
X82783387Y-57649391D01*
X82758832Y-57633311D01*
X82730387Y-57594711D01*
X82708263Y-57544635D01*
X82707021Y-57540117D01*
X82235040Y-57540117D01*
X82223136Y-57557416D01*
X82191337Y-57536082D01*
X82145521Y-57481258D01*
X82112971Y-57433210D01*
X82060498Y-57343413D01*
X82012509Y-57249066D01*
X81975711Y-57164652D01*
X81956815Y-57104656D01*
X81955640Y-57093558D01*
X81975682Y-57073369D01*
X81987390Y-57072098D01*
X82007606Y-57093419D01*
X82043151Y-57148997D01*
X82087810Y-57227083D01*
X82135367Y-57315931D01*
X82179605Y-57403792D01*
X82214308Y-57478920D01*
X82233261Y-57529566D01*
X82235040Y-57540117D01*
X82707021Y-57540117D01*
X82706196Y-57537120D01*
X82697999Y-57484415D01*
X82701831Y-57459602D01*
X82719328Y-57470625D01*
X82746202Y-57511631D01*
X82773223Y-57565337D01*
X82791162Y-57614457D01*
X82793840Y-57631908D01*
X82946899Y-57631908D01*
X82953859Y-57507763D01*
X82960227Y-57366208D01*
X82376146Y-57366208D01*
X82374166Y-57374016D01*
X82359331Y-57394399D01*
X82338921Y-57382681D01*
X82309037Y-57333916D01*
X82265777Y-57243160D01*
X82258916Y-57227904D01*
X82226304Y-57153657D01*
X82213336Y-57114541D01*
X82218952Y-57099295D01*
X82242090Y-57096663D01*
X82246552Y-57096660D01*
X82277604Y-57118492D01*
X82313716Y-57172939D01*
X82347261Y-57243425D01*
X82370613Y-57313373D01*
X82376146Y-57366208D01*
X82960227Y-57366208D01*
X82960780Y-57353933D01*
X82961039Y-57344435D01*
X82841938Y-57344435D01*
X82829191Y-57340782D01*
X82807287Y-57314055D01*
X82777237Y-57267574D01*
X82768440Y-57242088D01*
X82779442Y-57221694D01*
X82803706Y-57233618D01*
X82828119Y-57266757D01*
X82839037Y-57301849D01*
X82841938Y-57344435D01*
X82961039Y-57344435D01*
X82964151Y-57230557D01*
X82963927Y-57201258D01*
X82539840Y-57201258D01*
X82524191Y-57215029D01*
X82514440Y-57210960D01*
X82489989Y-57177312D01*
X82489040Y-57169861D01*
X82504690Y-57156090D01*
X82514440Y-57160160D01*
X82538892Y-57193807D01*
X82539840Y-57201258D01*
X82963927Y-57201258D01*
X82963487Y-57143852D01*
X82958302Y-57100035D01*
X82956407Y-57096666D01*
X82905532Y-57068834D01*
X82814192Y-57040908D01*
X82692689Y-57014625D01*
X82551326Y-56991717D01*
X82400404Y-56973919D01*
X82250225Y-56962964D01*
X82146140Y-56960284D01*
X81836937Y-56980103D01*
G36*
X76259056Y-61139531D02*
G01*
X76179745Y-61142507D01*
X76126591Y-61148547D01*
X76093444Y-61157832D01*
X76079560Y-61165812D01*
X76061986Y-61182188D01*
X76050396Y-61205200D01*
X76044464Y-61242971D01*
X76043866Y-61303624D01*
X76048277Y-61395282D01*
X76057373Y-61526066D01*
X76062451Y-61593823D01*
X76078294Y-61775226D01*
X76094989Y-61909341D01*
X76113075Y-61999676D01*
X76132177Y-62048361D01*
X76155824Y-62098476D01*
X76142936Y-62120328D01*
X76120560Y-62150179D01*
X76113640Y-62192929D01*
X76120191Y-62262293D01*
X76136778Y-62348660D01*
X76158806Y-62433411D01*
X76181682Y-62497924D01*
X76194245Y-62519560D01*
X76229859Y-62537167D01*
X76299570Y-62557515D01*
X76374941Y-62573609D01*
X76532740Y-62602258D01*
X76385021Y-62605359D01*
X76272393Y-62611018D01*
X76200622Y-62628596D01*
X76160568Y-62667561D01*
X76143093Y-62737384D01*
X76139057Y-62847535D01*
X76139040Y-62860243D01*
X76141733Y-62970211D01*
X76151107Y-63040456D01*
X76169108Y-63081835D01*
X76180982Y-63094299D01*
X76218193Y-63105421D01*
X76295896Y-63115411D01*
X76405143Y-63124072D01*
X76536988Y-63131208D01*
X76682486Y-63136622D01*
X76832690Y-63140118D01*
X76978654Y-63141499D01*
X77111430Y-63140568D01*
X77222074Y-63137129D01*
X77301639Y-63130986D01*
X77341178Y-63121941D01*
X77343452Y-63119839D01*
X77355557Y-63077864D01*
X77369109Y-62993035D01*
X77383627Y-62872524D01*
X77398630Y-62723503D01*
X77413637Y-62553143D01*
X77428168Y-62368618D01*
X77441741Y-62177098D01*
X77453875Y-61985756D01*
X77464091Y-61801765D01*
X77471906Y-61632295D01*
X77476840Y-61484520D01*
X77478412Y-61365610D01*
X77476141Y-61282739D01*
X77469547Y-61243078D01*
X77469311Y-61242684D01*
X77450317Y-61220179D01*
X77420980Y-61202155D01*
X77375471Y-61187875D01*
X77307962Y-61176600D01*
X77212625Y-61167593D01*
X77083632Y-61160114D01*
X76915153Y-61153426D01*
X76715396Y-61147195D01*
X76520734Y-61142056D01*
X76370669Y-61139441D01*
X76259056Y-61139531D01*
G37*
X76259056Y-61139531D02*
X76179745Y-61142507D01*
X76126591Y-61148547D01*
X76093444Y-61157832D01*
X76079560Y-61165812D01*
X76061986Y-61182188D01*
X76050396Y-61205200D01*
X76044464Y-61242971D01*
X76043866Y-61303624D01*
X76048277Y-61395282D01*
X76057373Y-61526066D01*
X76062451Y-61593823D01*
X76078294Y-61775226D01*
X76094989Y-61909341D01*
X76113075Y-61999676D01*
X76132177Y-62048361D01*
X76155824Y-62098476D01*
X76142936Y-62120328D01*
X76120560Y-62150179D01*
X76113640Y-62192929D01*
X76120191Y-62262293D01*
X76136778Y-62348660D01*
X76158806Y-62433411D01*
X76181682Y-62497924D01*
X76194245Y-62519560D01*
X76229859Y-62537167D01*
X76299570Y-62557515D01*
X76374941Y-62573609D01*
X76532740Y-62602258D01*
X76385021Y-62605359D01*
X76272393Y-62611018D01*
X76200622Y-62628596D01*
X76160568Y-62667561D01*
X76143093Y-62737384D01*
X76139057Y-62847535D01*
X76139040Y-62860243D01*
X76141733Y-62970211D01*
X76151107Y-63040456D01*
X76169108Y-63081835D01*
X76180982Y-63094299D01*
X76218193Y-63105421D01*
X76295896Y-63115411D01*
X76405143Y-63124072D01*
X76536988Y-63131208D01*
X76682486Y-63136622D01*
X76832690Y-63140118D01*
X76978654Y-63141499D01*
X77111430Y-63140568D01*
X77222074Y-63137129D01*
X77301639Y-63130986D01*
X77341178Y-63121941D01*
X77343452Y-63119839D01*
X77355557Y-63077864D01*
X77369109Y-62993035D01*
X77383627Y-62872524D01*
X77398630Y-62723503D01*
X77413637Y-62553143D01*
X77428168Y-62368618D01*
X77441741Y-62177098D01*
X77453875Y-61985756D01*
X77464091Y-61801765D01*
X77471906Y-61632295D01*
X77476840Y-61484520D01*
X77478412Y-61365610D01*
X77476141Y-61282739D01*
X77469547Y-61243078D01*
X77469311Y-61242684D01*
X77450317Y-61220179D01*
X77420980Y-61202155D01*
X77375471Y-61187875D01*
X77307962Y-61176600D01*
X77212625Y-61167593D01*
X77083632Y-61160114D01*
X76915153Y-61153426D01*
X76715396Y-61147195D01*
X76520734Y-61142056D01*
X76370669Y-61139441D01*
X76259056Y-61139531D01*
G36*
X72363816Y-61164852D02*
G01*
X72317598Y-61180378D01*
X72283066Y-61210749D01*
X72258539Y-61260598D01*
X72242338Y-61334560D01*
X72232781Y-61437267D01*
X72228189Y-61573354D01*
X72226881Y-61747453D01*
X72227177Y-61964200D01*
X72227440Y-62159105D01*
X72227896Y-62413343D01*
X72229351Y-62620756D01*
X72231942Y-62785309D01*
X72235802Y-62910971D01*
X72241066Y-63001706D01*
X72247870Y-63061483D01*
X72256347Y-63094267D01*
X72259372Y-63099619D01*
X72277043Y-63116550D01*
X72306444Y-63128153D01*
X72355664Y-63135145D01*
X72432794Y-63138245D01*
X72545924Y-63138169D01*
X72672122Y-63136224D01*
X73052940Y-63129160D01*
X73081316Y-63041369D01*
X73100646Y-62985716D01*
X73112586Y-62974423D01*
X73124867Y-63003351D01*
X73128770Y-63015969D01*
X73174776Y-63107719D01*
X73245830Y-63156592D01*
X73318722Y-63167260D01*
X73392222Y-63158846D01*
X73448111Y-63138310D01*
X73452046Y-63135510D01*
X73485988Y-63095699D01*
X73529484Y-63027707D01*
X73557318Y-62976760D01*
X73622075Y-62849760D01*
X73623258Y-62946679D01*
X73628545Y-63034087D01*
X73647829Y-63090769D01*
X73690083Y-63123264D01*
X73764280Y-63138110D01*
X73879395Y-63141845D01*
X73891140Y-63141860D01*
X73998284Y-63140402D01*
X74065872Y-63134503D01*
X74105104Y-63121875D01*
X74127177Y-63100228D01*
X74131547Y-63092729D01*
X74139206Y-63052328D01*
X74145644Y-62963548D01*
X74150793Y-62828801D01*
X74154587Y-62650494D01*
X74156957Y-62431037D01*
X74157836Y-62172839D01*
X74157840Y-62152929D01*
X74158039Y-61902083D01*
X74157724Y-61697361D01*
X74155529Y-61534098D01*
X74150088Y-61407625D01*
X74140034Y-61313276D01*
X74124002Y-61246382D01*
X74100626Y-61202276D01*
X74068538Y-61176291D01*
X74026373Y-61163760D01*
X73972765Y-61160014D01*
X73906348Y-61160387D01*
X73867394Y-61160660D01*
X73765609Y-61163744D01*
X73676712Y-61171852D01*
X73619163Y-61183266D01*
X73617353Y-61183926D01*
X73572731Y-61218288D01*
X73512836Y-61289165D01*
X73445070Y-61387611D01*
X73433466Y-61406176D01*
X73375708Y-61499474D01*
X73325450Y-61579984D01*
X73290521Y-61635191D01*
X73282064Y-61648184D01*
X73266286Y-61661257D01*
X73245437Y-61652166D01*
X73214712Y-61615191D01*
X73169301Y-61544610D01*
X73108343Y-61441503D01*
X73026323Y-61308146D01*
X72961981Y-61221184D01*
X72914591Y-61179663D01*
X72906536Y-61176576D01*
X72857636Y-61170079D01*
X72771878Y-61164890D01*
X72663201Y-61161691D01*
X72589390Y-61161006D01*
X72498032Y-61159800D01*
X72423401Y-61159537D01*
X72363816Y-61164852D01*
G37*
X72363816Y-61164852D02*
X72317598Y-61180378D01*
X72283066Y-61210749D01*
X72258539Y-61260598D01*
X72242338Y-61334560D01*
X72232781Y-61437267D01*
X72228189Y-61573354D01*
X72226881Y-61747453D01*
X72227177Y-61964200D01*
X72227440Y-62159105D01*
X72227896Y-62413343D01*
X72229351Y-62620756D01*
X72231942Y-62785309D01*
X72235802Y-62910971D01*
X72241066Y-63001706D01*
X72247870Y-63061483D01*
X72256347Y-63094267D01*
X72259372Y-63099619D01*
X72277043Y-63116550D01*
X72306444Y-63128153D01*
X72355664Y-63135145D01*
X72432794Y-63138245D01*
X72545924Y-63138169D01*
X72672122Y-63136224D01*
X73052940Y-63129160D01*
X73081316Y-63041369D01*
X73100646Y-62985716D01*
X73112586Y-62974423D01*
X73124867Y-63003351D01*
X73128770Y-63015969D01*
X73174776Y-63107719D01*
X73245830Y-63156592D01*
X73318722Y-63167260D01*
X73392222Y-63158846D01*
X73448111Y-63138310D01*
X73452046Y-63135510D01*
X73485988Y-63095699D01*
X73529484Y-63027707D01*
X73557318Y-62976760D01*
X73622075Y-62849760D01*
X73623258Y-62946679D01*
X73628545Y-63034087D01*
X73647829Y-63090769D01*
X73690083Y-63123264D01*
X73764280Y-63138110D01*
X73879395Y-63141845D01*
X73891140Y-63141860D01*
X73998284Y-63140402D01*
X74065872Y-63134503D01*
X74105104Y-63121875D01*
X74127177Y-63100228D01*
X74131547Y-63092729D01*
X74139206Y-63052328D01*
X74145644Y-62963548D01*
X74150793Y-62828801D01*
X74154587Y-62650494D01*
X74156957Y-62431037D01*
X74157836Y-62172839D01*
X74157840Y-62152929D01*
X74158039Y-61902083D01*
X74157724Y-61697361D01*
X74155529Y-61534098D01*
X74150088Y-61407625D01*
X74140034Y-61313276D01*
X74124002Y-61246382D01*
X74100626Y-61202276D01*
X74068538Y-61176291D01*
X74026373Y-61163760D01*
X73972765Y-61160014D01*
X73906348Y-61160387D01*
X73867394Y-61160660D01*
X73765609Y-61163744D01*
X73676712Y-61171852D01*
X73619163Y-61183266D01*
X73617353Y-61183926D01*
X73572731Y-61218288D01*
X73512836Y-61289165D01*
X73445070Y-61387611D01*
X73433466Y-61406176D01*
X73375708Y-61499474D01*
X73325450Y-61579984D01*
X73290521Y-61635191D01*
X73282064Y-61648184D01*
X73266286Y-61661257D01*
X73245437Y-61652166D01*
X73214712Y-61615191D01*
X73169301Y-61544610D01*
X73108343Y-61441503D01*
X73026323Y-61308146D01*
X72961981Y-61221184D01*
X72914591Y-61179663D01*
X72906536Y-61176576D01*
X72857636Y-61170079D01*
X72771878Y-61164890D01*
X72663201Y-61161691D01*
X72589390Y-61161006D01*
X72498032Y-61159800D01*
X72423401Y-61159537D01*
X72363816Y-61164852D01*
G36*
X78654907Y-60653692D02*
G01*
X78463818Y-60655828D01*
X78277682Y-60659350D01*
X78103464Y-60664196D01*
X77948128Y-60670302D01*
X77818640Y-60677603D01*
X77721965Y-60686037D01*
X77665066Y-60695539D01*
X77654204Y-60700220D01*
X77639757Y-60717830D01*
X77628998Y-60747839D01*
X77621406Y-60797046D01*
X77616460Y-60872250D01*
X77613638Y-60980252D01*
X77612420Y-61127851D01*
X77612240Y-61247590D01*
X77613345Y-61443377D01*
X77616795Y-61592014D01*
X77622791Y-61697104D01*
X77631536Y-61762253D01*
X77642720Y-61790580D01*
X77685320Y-61807139D01*
X77767996Y-61817759D01*
X77867517Y-61821060D01*
X78061834Y-61821060D01*
X78078359Y-62056010D01*
X78090314Y-62210383D01*
X78104945Y-62374997D01*
X78121311Y-62541564D01*
X78138473Y-62701798D01*
X78155491Y-62847414D01*
X78171423Y-62970126D01*
X78185331Y-63061648D01*
X78196274Y-63113694D01*
X78199194Y-63120992D01*
X78225072Y-63136645D01*
X78284122Y-63147654D01*
X78382114Y-63154667D01*
X78524819Y-63158334D01*
X78532016Y-63158426D01*
X78658818Y-63158949D01*
X78772114Y-63157501D01*
X78859393Y-63154365D01*
X78907640Y-63149925D01*
X78962771Y-63134334D01*
X78988844Y-63120659D01*
X78996319Y-63091162D01*
X79006566Y-63019138D01*
X79018664Y-62912722D01*
X79031692Y-62780054D01*
X79044728Y-62629269D01*
X79045383Y-62621160D01*
X79058721Y-62457117D01*
X79071841Y-62298807D01*
X79083766Y-62157794D01*
X79093520Y-62045641D01*
X79099551Y-61979810D01*
X79114884Y-61821060D01*
X79310982Y-61821060D01*
X79421522Y-61817003D01*
X79501011Y-61805756D01*
X79537560Y-61790580D01*
X79546757Y-61756820D01*
X79554448Y-61681619D01*
X79560559Y-61574314D01*
X79565018Y-61444244D01*
X79567752Y-61300747D01*
X79568689Y-61153160D01*
X79567756Y-61010823D01*
X79564880Y-60883072D01*
X79559989Y-60779247D01*
X79553009Y-60708685D01*
X79546184Y-60682924D01*
X79515435Y-60673569D01*
X79440886Y-60666046D01*
X79329502Y-60660292D01*
X79188247Y-60656243D01*
X79024086Y-60653836D01*
X78843985Y-60653007D01*
X78654907Y-60653692D01*
G37*
X78654907Y-60653692D02*
X78463818Y-60655828D01*
X78277682Y-60659350D01*
X78103464Y-60664196D01*
X77948128Y-60670302D01*
X77818640Y-60677603D01*
X77721965Y-60686037D01*
X77665066Y-60695539D01*
X77654204Y-60700220D01*
X77639757Y-60717830D01*
X77628998Y-60747839D01*
X77621406Y-60797046D01*
X77616460Y-60872250D01*
X77613638Y-60980252D01*
X77612420Y-61127851D01*
X77612240Y-61247590D01*
X77613345Y-61443377D01*
X77616795Y-61592014D01*
X77622791Y-61697104D01*
X77631536Y-61762253D01*
X77642720Y-61790580D01*
X77685320Y-61807139D01*
X77767996Y-61817759D01*
X77867517Y-61821060D01*
X78061834Y-61821060D01*
X78078359Y-62056010D01*
X78090314Y-62210383D01*
X78104945Y-62374997D01*
X78121311Y-62541564D01*
X78138473Y-62701798D01*
X78155491Y-62847414D01*
X78171423Y-62970126D01*
X78185331Y-63061648D01*
X78196274Y-63113694D01*
X78199194Y-63120992D01*
X78225072Y-63136645D01*
X78284122Y-63147654D01*
X78382114Y-63154667D01*
X78524819Y-63158334D01*
X78532016Y-63158426D01*
X78658818Y-63158949D01*
X78772114Y-63157501D01*
X78859393Y-63154365D01*
X78907640Y-63149925D01*
X78962771Y-63134334D01*
X78988844Y-63120659D01*
X78996319Y-63091162D01*
X79006566Y-63019138D01*
X79018664Y-62912722D01*
X79031692Y-62780054D01*
X79044728Y-62629269D01*
X79045383Y-62621160D01*
X79058721Y-62457117D01*
X79071841Y-62298807D01*
X79083766Y-62157794D01*
X79093520Y-62045641D01*
X79099551Y-61979810D01*
X79114884Y-61821060D01*
X79310982Y-61821060D01*
X79421522Y-61817003D01*
X79501011Y-61805756D01*
X79537560Y-61790580D01*
X79546757Y-61756820D01*
X79554448Y-61681619D01*
X79560559Y-61574314D01*
X79565018Y-61444244D01*
X79567752Y-61300747D01*
X79568689Y-61153160D01*
X79567756Y-61010823D01*
X79564880Y-60883072D01*
X79559989Y-60779247D01*
X79553009Y-60708685D01*
X79546184Y-60682924D01*
X79515435Y-60673569D01*
X79440886Y-60666046D01*
X79329502Y-60660292D01*
X79188247Y-60656243D01*
X79024086Y-60653836D01*
X78843985Y-60653007D01*
X78654907Y-60653692D01*
G36*
X74851724Y-61174927D02*
G01*
X74737874Y-61180196D01*
X74648984Y-61188183D01*
X74595867Y-61198864D01*
X74587283Y-61203652D01*
X74575576Y-61234422D01*
X74555409Y-61308214D01*
X74528241Y-61418228D01*
X74495531Y-61557664D01*
X74458739Y-61719723D01*
X74419322Y-61897605D01*
X74378742Y-62084508D01*
X74338455Y-62273634D01*
X74299922Y-62458183D01*
X74264602Y-62631354D01*
X74233954Y-62786348D01*
X74209436Y-62916364D01*
X74192508Y-63014603D01*
X74184629Y-63074265D01*
X74184247Y-63081992D01*
X74199791Y-63152959D01*
X74249278Y-63186237D01*
X74305968Y-63187344D01*
X74348536Y-63184367D01*
X74428615Y-63180679D01*
X74532933Y-63176846D01*
X74602340Y-63174692D01*
X74745846Y-63169495D01*
X74846407Y-63162319D01*
X74911878Y-63151268D01*
X74950115Y-63134445D01*
X74968972Y-63109954D01*
X74975229Y-63084668D01*
X75001373Y-63040122D01*
X75050358Y-63025222D01*
X75103193Y-63040791D01*
X75136491Y-63077685D01*
X75149444Y-63097272D01*
X75170474Y-63111150D01*
X75207534Y-63120298D01*
X75268576Y-63125691D01*
X75361554Y-63128305D01*
X75494421Y-63129119D01*
X75555591Y-63129160D01*
X75948540Y-63129160D01*
X75955625Y-63065660D01*
X75950805Y-63026643D01*
X75933979Y-62946198D01*
X75906965Y-62831082D01*
X75871586Y-62688053D01*
X75829661Y-62523871D01*
X75783011Y-62345293D01*
X75733456Y-62159078D01*
X75682816Y-61971985D01*
X75632912Y-61790771D01*
X75585564Y-61622196D01*
X75542592Y-61473017D01*
X75505818Y-61349994D01*
X75477060Y-61259884D01*
X75458141Y-61209446D01*
X75453579Y-61201731D01*
X75416999Y-61190189D01*
X75340512Y-61181509D01*
X75234930Y-61175667D01*
X75111064Y-61172639D01*
X74979725Y-61172400D01*
X74851724Y-61174927D01*
G37*
X74851724Y-61174927D02*
X74737874Y-61180196D01*
X74648984Y-61188183D01*
X74595867Y-61198864D01*
X74587283Y-61203652D01*
X74575576Y-61234422D01*
X74555409Y-61308214D01*
X74528241Y-61418228D01*
X74495531Y-61557664D01*
X74458739Y-61719723D01*
X74419322Y-61897605D01*
X74378742Y-62084508D01*
X74338455Y-62273634D01*
X74299922Y-62458183D01*
X74264602Y-62631354D01*
X74233954Y-62786348D01*
X74209436Y-62916364D01*
X74192508Y-63014603D01*
X74184629Y-63074265D01*
X74184247Y-63081992D01*
X74199791Y-63152959D01*
X74249278Y-63186237D01*
X74305968Y-63187344D01*
X74348536Y-63184367D01*
X74428615Y-63180679D01*
X74532933Y-63176846D01*
X74602340Y-63174692D01*
X74745846Y-63169495D01*
X74846407Y-63162319D01*
X74911878Y-63151268D01*
X74950115Y-63134445D01*
X74968972Y-63109954D01*
X74975229Y-63084668D01*
X75001373Y-63040122D01*
X75050358Y-63025222D01*
X75103193Y-63040791D01*
X75136491Y-63077685D01*
X75149444Y-63097272D01*
X75170474Y-63111150D01*
X75207534Y-63120298D01*
X75268576Y-63125691D01*
X75361554Y-63128305D01*
X75494421Y-63129119D01*
X75555591Y-63129160D01*
X75948540Y-63129160D01*
X75955625Y-63065660D01*
X75950805Y-63026643D01*
X75933979Y-62946198D01*
X75906965Y-62831082D01*
X75871586Y-62688053D01*
X75829661Y-62523871D01*
X75783011Y-62345293D01*
X75733456Y-62159078D01*
X75682816Y-61971985D01*
X75632912Y-61790771D01*
X75585564Y-61622196D01*
X75542592Y-61473017D01*
X75505818Y-61349994D01*
X75477060Y-61259884D01*
X75458141Y-61209446D01*
X75453579Y-61201731D01*
X75416999Y-61190189D01*
X75340512Y-61181509D01*
X75234930Y-61175667D01*
X75111064Y-61172639D01*
X74979725Y-61172400D01*
X74851724Y-61174927D01*
D12*
X64229940Y-24500620D02*
X60579940Y-24500620D01*
X60579940Y-24500620D02*
X60574860Y-29250620D01*
X64224860Y-29250620D02*
X60574860Y-29250620D01*
X64229940Y-24500620D02*
X64224860Y-29250620D01*
X50513200Y-30926300D02*
X38513200Y-30926300D01*
X50513200Y-31926300D02*
X50513200Y-30926300D01*
X58513200Y-31926300D02*
X50513200Y-31926300D01*
X58513200Y-30926300D02*
X58513200Y-31926300D01*
X76513200Y-30926300D02*
X58513200Y-30926300D01*
X76513200Y-31926300D02*
X76513200Y-30926300D01*
X84513200Y-31926300D02*
X76513200Y-31926300D01*
X84513200Y-30926300D02*
X84513200Y-31926300D01*
X96513200Y-30926300D02*
X84513200Y-30926300D01*
X96513200Y-48926300D02*
X96513200Y-30926300D01*
X38513200Y-48926300D02*
X96513200Y-48926300D01*
X38513200Y-30926300D02*
X38513200Y-48926300D01*
X58513200Y-30926300D02*
X76513200Y-30926300D01*
X58513200Y-31926300D02*
X58513200Y-30926300D01*
X50513200Y-31926300D02*
X58513200Y-31926300D01*
X50513200Y-30926300D02*
X50513200Y-31926300D01*
X38513200Y-30926300D02*
X50513200Y-30926300D01*
X96513200Y-30926300D02*
X84513200Y-30926300D01*
X76513200Y-31926300D02*
X76513200Y-30926300D01*
X84513200Y-31926300D02*
X76513200Y-31926300D01*
X84513200Y-30926300D02*
X84513200Y-31926300D01*
D13*
X101252000Y-97530800D02*
X101252000Y-106877800D01*
X101252000Y-106877800D02*
X31148000Y-106877800D01*
X31148000Y-106877800D02*
X31148000Y-97530800D01*
X31148000Y-97530800D02*
X101252000Y-97530800D01*
D14*
X98180000Y-34757400D02*
G75*
G03*
X98180000Y-34757400I-50000J0D01*
G01*
D15*
X63741093Y-30861881D02*
X63598236Y-30909500D01*
X63360140Y-30909500D01*
X63264902Y-30861881D01*
X63217283Y-30814262D01*
X63169664Y-30719024D01*
X63169664Y-30623786D01*
X63217283Y-30528548D01*
X63264902Y-30480929D01*
X63360140Y-30433310D01*
X63550617Y-30385691D01*
X63645855Y-30338072D01*
X63693474Y-30290453D01*
X63741093Y-30195215D01*
X63741093Y-30099977D01*
X63693474Y-30004739D01*
X63645855Y-29957120D01*
X63550617Y-29909500D01*
X63312521Y-29909500D01*
X63169664Y-29957120D01*
X62836331Y-29909500D02*
X62598236Y-30909500D01*
X62407760Y-30195215D01*
X62217283Y-30909500D01*
X61979188Y-29909500D01*
X61122045Y-29909500D02*
X61598236Y-29909500D01*
X61645855Y-30385691D01*
X61598236Y-30338072D01*
X61502998Y-30290453D01*
X61264902Y-30290453D01*
X61169664Y-30338072D01*
X61122045Y-30385691D01*
X61074426Y-30480929D01*
X61074426Y-30719024D01*
X61122045Y-30814262D01*
X61169664Y-30861881D01*
X61264902Y-30909500D01*
X61502998Y-30909500D01*
X61598236Y-30861881D01*
X61645855Y-30814262D01*
D16*
X67684133Y-32881195D02*
X67684133Y-33461766D01*
X67722838Y-33577880D01*
X67800247Y-33655290D01*
X67916361Y-33693995D01*
X67993771Y-33693995D01*
X66948742Y-32881195D02*
X67103561Y-32881195D01*
X67180971Y-32919900D01*
X67219676Y-32958604D01*
X67297085Y-33074719D01*
X67335790Y-33229538D01*
X67335790Y-33539176D01*
X67297085Y-33616585D01*
X67258380Y-33655290D01*
X67180971Y-33693995D01*
X67026152Y-33693995D01*
X66948742Y-33655290D01*
X66910038Y-33616585D01*
X66871333Y-33539176D01*
X66871333Y-33345652D01*
X66910038Y-33268242D01*
X66948742Y-33229538D01*
X67026152Y-33190833D01*
X67180971Y-33190833D01*
X67258380Y-33229538D01*
X67297085Y-33268242D01*
X67335790Y-33345652D01*
D15*
X99958095Y-36379780D02*
X99958095Y-35379780D01*
X99720000Y-35379780D01*
X99577142Y-35427400D01*
X99481904Y-35522638D01*
X99434285Y-35617876D01*
X99386666Y-35808352D01*
X99386666Y-35951209D01*
X99434285Y-36141685D01*
X99481904Y-36236923D01*
X99577142Y-36332161D01*
X99720000Y-36379780D01*
X99958095Y-36379780D01*
X98434285Y-36379780D02*
X99005714Y-36379780D01*
X98720000Y-36379780D02*
X98720000Y-35379780D01*
X98815238Y-35522638D01*
X98910476Y-35617876D01*
X99005714Y-35665495D01*
M02*
